<svg id="Layer_1" data-name="Layer 1" xmlns="http://www.w3.org/2000/svg" viewBox="0 0 16 16"><defs><style>.cls-1{fill:#1b3e71;}.cls-2{fill:#f58220;}.cls-3{fill:#fdfeff;}.cls-4{font-size:1.5px;fill:#fff;font-family:NotoSans, Noto Sans;}.cls-5,.cls-7{letter-spacing:-0.01em;}.cls-6,.cls-7,.cls-8{font-family:NotoSans-Bold, Noto Sans;font-weight:700;}.cls-8{letter-spacing:0em;}</style></defs><rect class="cls-1" width="16" height="16"/><path class="cls-2" d="M4.75,3.62V5.45h.7V3.62A1.34,1.34,0,0,0,4.16,2.23a1.28,1.28,0,0,0-.94.45,1.26,1.26,0,0,0-.94-.45A1.36,1.36,0,0,0,1,3.62V5.08a.37.37,0,0,0,.34.4.37.37,0,0,0,.35-.4V3.62A.62.62,0,0,1,2.28,3a.6.6,0,0,1,.59.59V5.08a.37.37,0,0,0,.35.4.38.38,0,0,0,.35-.4V3.62A.61.61,0,0,1,4.16,3,.59.59,0,0,1,4.75,3.62Z"/><path class="cls-2" d="M6,5.9l-.12,0a.36.36,0,0,1-.16-.44l.19-.51a.28.28,0,0,1,.38-.19.36.36,0,0,1,.16.44l-.18.51A.3.3,0,0,1,6,5.9Z"/><path class="cls-3" d="M1.14,10.48A.44.44,0,0,1,1,10.13a.4.4,0,0,1,.38-.43.4.4,0,0,1,.23.09,1.45,1.45,0,0,0,.94.38c.33,0,.53-.15.53-.4h0c0-.24-.12-.36-.74-.54S1.11,8.77,1.11,7.93h0A1.21,1.21,0,0,1,2.4,6.65,1.94,1.94,0,0,1,3.57,7a.44.44,0,0,1,.18.37.41.41,0,0,1-.38.43.4.4,0,0,1-.21-.07,1.4,1.4,0,0,0-.77-.28c-.31,0-.48.16-.48.36v0c0,.27.16.36.8.55s1.17.53,1.17,1.27h0A1.24,1.24,0,0,1,2.53,11,2.17,2.17,0,0,1,1.14,10.48Z"/><path class="cls-3" d="M4.45,10V8.48h0a.37.37,0,0,1-.34-.39.36.36,0,0,1,.34-.39h0V7.29a.44.44,0,0,1,.4-.46.44.44,0,0,1,.4.46V7.7h.36A.36.36,0,0,1,6,8.09a.37.37,0,0,1-.34.39H5.25V9.86c0,.21.08.32.26.32h.1a.36.36,0,0,1,.33.38.37.37,0,0,1-.21.34,1,1,0,0,1-.46.09C4.78,11,4.45,10.76,4.45,10Z"/><path class="cls-3" d="M6.13,9.33h0A1.6,1.6,0,0,1,7.67,7.63,1.58,1.58,0,0,1,9.19,9.31h0A1.59,1.59,0,0,1,7.66,11,1.58,1.58,0,0,1,6.13,9.33Zm2.27,0h0a.81.81,0,0,0-.74-.89.79.79,0,0,0-.74.88h0a.81.81,0,0,0,.75.89A.78.78,0,0,0,8.4,9.33Z"/><path class="cls-3" d="M9.48,9.33h0A1.57,1.57,0,0,1,11,7.63a1.28,1.28,0,0,1,1,.37.38.38,0,0,1,.13.31.38.38,0,0,1-.36.41.33.33,0,0,1-.23-.09.73.73,0,0,0-.51-.2c-.4,0-.68.4-.68.88h0c0,.49.28.89.72.89a.73.73,0,0,0,.52-.22.34.34,0,0,1,.22-.09.37.37,0,0,1,.34.4.43.43,0,0,1-.12.29A1.32,1.32,0,0,1,11,11,1.56,1.56,0,0,1,9.48,9.33Z"/><path class="cls-3" d="M12.47,7a.4.4,0,1,1,.8,0V9l1-1.09a.49.49,0,0,1,.35-.2.38.38,0,0,1,.36.41.58.58,0,0,1-.19.4l-.63.62.75,1.16a.54.54,0,0,1,.1.3.39.39,0,0,1-.37.42.38.38,0,0,1-.35-.21l-.7-1.11-.32.33v.53a.4.4,0,1,1-.8,0Z"/><text class="cls-4" transform="translate(4.13 13.18)"><tspan class="cls-5">b</tspan><tspan x="0.91" y="0">y </tspan><tspan class="cls-6" x="2.07" y="0">Mi</tspan><tspan class="cls-7" x="3.94" y="0">r</tspan><tspan class="cls-8" x="4.61" y="0">ae Asset</tspan></text></svg>