<svg width="28" height="28" viewBox="0 0 28 28" fill="none" xmlns="http://www.w3.org/2000/svg">
    <path d="M23.193 26.89H5.123a1.036 1.036 0 0 1-1.035-1.037V2.268a1.036 1.036 0 0 1 1.036-1.036h18.07a1.036 1.036 0 0 1 1.073 1.036v23.585a1.037 1.037 0 0 1-1.074 1.036zM5.123 2.164a.103.103 0 0 0-.102.103v23.585a.102.102 0 0 0 .103.103h18.07a.104.104 0 0 0 .098-.013.102.102 0 0 0 .041-.09V2.268a.103.103 0 0 0-.102-.103H5.124z" fill="#1B3F71"/>
    <path d="M19.964 11.592H8.4a1.568 1.568 0 0 1-1.559-1.568V5.6A1.559 1.559 0 0 1 8.4 4.07h11.564a1.568 1.568 0 0 1 1.568 1.53v4.396a1.57 1.57 0 0 1-1.568 1.596zM8.4 5.002a.625.625 0 0 0-.672.598v4.396a.635.635 0 0 0 .625.635h11.611a.644.644 0 0 0 .635-.635V5.6a.635.635 0 0 0-.635-.625L8.4 5.003zM9.52 16.445a1.092 1.092 0 1 0 0-2.184 1.092 1.092 0 0 0 0 2.184zM14.187 16.445a1.092 1.092 0 1 0 0-2.184 1.092 1.092 0 0 0 0 2.184zM18.798 16.445a1.092 1.092 0 1 0 0-2.184 1.092 1.092 0 0 0 0 2.184zM9.52 19.768a1.092 1.092 0 1 0 0-2.184 1.092 1.092 0 0 0 0 2.184zM14.187 19.768a1.092 1.092 0 1 0 0-2.184 1.092 1.092 0 0 0 0 2.184zM18.798 19.768a1.092 1.092 0 1 0 0-2.184 1.092 1.092 0 0 0 0 2.184zM9.52 23.296a1.092 1.092 0 1 0 0-2.184 1.092 1.092 0 0 0 0 2.184zM14.187 23.296a1.092 1.092 0 1 0 0-2.184 1.092 1.092 0 0 0 0 2.184zM18.798 23.296a1.092 1.092 0 1 0 0-2.184 1.092 1.092 0 0 0 0 2.184z" fill="#1B3F71"/>
</svg>
