<svg width="23" height="23" viewBox="0 0 23 23" fill="none" xmlns="http://www.w3.org/2000/svg">
    <circle cx="11.5" cy="11.5" r="11" fill="#fff" stroke="#F5821F"/>
    <path d="M11.62 11.254a2.56 2.56 0 1 1 2.56-2.56 2.567 2.567 0 0 1-2.56 2.56zm0-4.096a1.536 1.536 0 1 0 0 3.072 1.536 1.536 0 0 0 0-3.072zm-4.778 8.874a.512.512 0 0 1-.512-.512c0-3.242 3.706-3.242 5.29-3.242.492 0 .929 0 1.325.047a.511.511 0 0 1 .47.547.519.519 0 0 1-.552.47c-.37 0-.779-.04-1.243-.04-3.536 0-4.266.887-4.266 2.218a.505.505 0 0 1-.512.512zm6.218.52a.513.513 0 0 1-.361-.151.493.493 0 0 1-.15-.403l.109-1.31a.513.513 0 0 1 .143-.321l3.768-3.769a1.406 1.406 0 0 1 1.912 0 1.365 1.365 0 0 1 .396.983 1.271 1.271 0 0 1-.362.908l-3.768 3.768a.505.505 0 0 1-.314.15l-1.325.124-.048.02zm.601-1.598-.04.518.532-.047 3.638-3.639a.266.266 0 0 0 .062-.184.403.403 0 0 0-.096-.26.389.389 0 0 0-.464 0l-3.632 3.612z" fill="#F5821F"/>
</svg>
