<svg width="28" height="28" viewBox="0 0 28 28" fill="none" xmlns="http://www.w3.org/2000/svg">
    <g clip-path="url(#w91fktbboa)">
        <path d="M14.345 22.83a8.83 8.83 0 1 1 8.83-8.83 8.839 8.839 0 0 1-8.83 8.83zm0-16.726A7.896 7.896 0 1 0 22.241 14a7.915 7.915 0 0 0-7.896-7.896z" fill="#1C3E71"/>
        <path d="M15.157 11.592a1.698 1.698 0 0 0-1.549-.98h-2.212v-.99h5.899v.99h-1.606c.245.284.423.619.523.98h1.083v.99h-.99a2.707 2.707 0 0 1-2.697 2.454h-.364l3.313 3.444h-1.362l-3.314-3.444v-.933h1.727a1.708 1.708 0 0 0 1.699-1.475h-3.911v-1.036h3.761z" fill="#1B3F71"/>
        <path d="M7.196 27.87a.467.467 0 0 1-.317-.122l-2.576-2.315a.335.335 0 0 1-.094-.14.308.308 0 0 1 0-.14.103.103 0 0 1 0-.046.532.532 0 0 1 0-.131v-.047a.355.355 0 0 1 .084-.121l2.576-2.175a.476.476 0 0 1 .752.215.457.457 0 0 1-.145.495L5.88 24.62h17.164a.579.579 0 0 0 .579-.578V22.4a.467.467 0 1 1 .933 0v1.68a1.521 1.521 0 0 1-1.512 1.512H5.824l1.643 1.475a.458.458 0 0 1 0 .653.476.476 0 0 1-.271.15zM22.6 0a.5.5 0 0 1 .34.13l2.76 2.48a.36.36 0 0 1 .1.15.33.33 0 0 1 0 .15.111.111 0 0 1 0 .05.575.575 0 0 1 0 .14v.05a.382.382 0 0 1-.09.13l-2.76 2.33a.51.51 0 0 1-.806-.23.49.49 0 0 1 .156-.53l1.71-1.37H5.62A.62.62 0 0 0 5 4.1v1.76a.5.5 0 0 1-1 0v-1.8a1.63 1.63 0 0 1 1.62-1.62h18.45L22.31.86a.49.49 0 0 1 0-.7.51.51 0 0 1 .29-.16z" fill="#1C3E71"/>
    </g>
    <defs>
        <clipPath id="w91fktbboa">
            <path fill="#fff" d="M0 0h28v28H0z"/>
        </clipPath>
    </defs>
</svg>
