<svg width="28" height="28" viewBox="0 0 28 28" fill="none" xmlns="http://www.w3.org/2000/svg">
    <path d="M6.235 25.601a2.604 2.604 0 0 1-1.867-.784L2.1 22.521a2.65 2.65 0 0 1-.504-2.986l6.664-14a2.641 2.641 0 0 1 4.321-.654l9.67 10.5a2.631 2.631 0 0 1-.934 4.228L7.243 25.405c-.32.13-.663.196-1.008.196zM2.8 20.104a1.325 1.325 0 0 0 .252 1.493l2.25 2.296a1.307 1.307 0 0 0 1.446.299l14.075-5.796a1.316 1.316 0 0 0 .784-.933 1.288 1.288 0 0 0-.318-1.186l-9.67-10.5a1.335 1.335 0 0 0-2.174.327l-6.645 14zM18.135 1.335a.933.933 0 0 1 .532.532.934.934 0 0 1 0 .709l-1.055 2.707a.934.934 0 0 1-1.213.532.933.933 0 0 1-.532-.486.933.933 0 0 1 0-.718l1.064-2.744a1.07 1.07 0 0 1 .196-.308.932.932 0 0 1 .299-.206c.113-.046.232-.075.354-.084a.934.934 0 0 1 .355.066zM24.845 5.059a.811.811 0 0 0 .215-.29.934.934 0 0 0 .093-.354.935.935 0 0 0-.887-.97.803.803 0 0 0-.363.055.877.877 0 0 0-.308.187l-3.892 3.537a.934.934 0 0 0-.3.644.934.934 0 0 0 1.55.737l3.892-3.546zM22.979 10.836a.933.933 0 0 0-.933.933.934.934 0 0 0 .242.663.934.934 0 0 0 .644.308l2.8.13a.934.934 0 0 0 .047-1.866l-2.8-.168z" fill="#1A4071"/>
    <path d="M12.525 26.73a3.986 3.986 0 0 1-3.677-2.463l1.223-.486a2.65 2.65 0 0 0 4.918-1.969l1.214-.485A3.948 3.948 0 0 1 14 26.44c-.469.188-.97.287-1.475.29z" fill="#1A4071"/>
</svg>
