<svg width="31" height="37" viewBox="0 0 31 37" fill="none" xmlns="http://www.w3.org/2000/svg">
    <path d="M15.25 3a1.25 1.25 0 0 1 1.25 1.25v7.5a1.25 1.25 0 0 1-2.5 0v-7.5A1.25 1.25 0 0 1 15.25 3z" fill="#043B73"/>
    <path d="M19 15.338a1.216 1.216 0 0 1-.771-1.123c0-.67.56-1.215 1.25-1.215a1.3 1.3 0 0 1 .415.069c.001-.004.002-.005.005-.004 3.893 1.72 6.601 5.533 6.601 9.963 0 6.037-5.038 10.934-11.25 10.934C9.037 33.962 4 29.066 4 23.026c0-4.398 2.671-8.188 6.523-9.926.155-.064.322-.096.49-.095.69 0 1.25.544 1.25 1.214a1.215 1.215 0 0 1-.763 1.12c-2.956 1.365-5 4.295-5 7.687 0 4.698 3.918 8.506 8.75 8.506S24 27.724 24 23.026c0-3.392-2.044-6.322-5-7.687v-.002z" fill="#043B73"/>
</svg>
