<svg width="28" height="28" viewBox="0 0 28 28" fill="none" xmlns="http://www.w3.org/2000/svg">
    <path d="M13.617 26.581c-.622 0-1.22-.018-1.792-.056-4.928-.485-7.97-2.081-9.025-4.741C.616 16.314 7.41 8.4 7.7 8.054l.616-.671.084.084a15.335 15.335 0 0 0 11.377 0h.084l.066.065.513.55a21.3 21.3 0 0 1 4.35 6.973c.66 1.962.915 4.04.746 6.104a4.387 4.387 0 0 1-1.39 2.697c-1.68 1.596-4.22 2.137-6.235 2.436a30.077 30.077 0 0 1-4.294.29zm-1.773-.317c2.026.13 4.06.042 6.067-.261 1.978-.29 4.47-.822 6.104-2.371a4.2 4.2 0 0 0 1.306-2.539 14.84 14.84 0 0 0-.737-5.992 20.897 20.897 0 0 0-4.293-6.878 8.97 8.97 0 0 1-.495-.523A15.596 15.596 0 0 1 8.4 7.69l-.495.533C7.84 8.297.925 16.36 3.052 21.69c.999 2.576 3.967 4.106 8.792 4.573z" fill="#1C3E71"/>
    <mask id="f6g7q9yqta" fill="#fff">
        <path d="M13.617 26.815c-.606 0-1.213 0-1.81-.056-5.03-.495-8.13-2.138-9.23-4.891-2.231-5.6 4.666-13.636 4.946-14l.737-.793.243.112a15.204 15.204 0 0 0 11.2 0l.233-.094.69.738a21.674 21.674 0 0 1 4.425 7.102 15.57 15.57 0 0 1 .756 6.207 4.667 4.667 0 0 1-1.456 2.8c-1.727 1.643-4.312 2.193-6.375 2.501-1.442.23-2.898.354-4.358.374zm-1.754-.784c2.007.129 4.022.041 6.01-.262 1.951-.289 4.396-.802 5.974-2.305a3.91 3.91 0 0 0 1.241-2.399c.165-1.988-.08-3.99-.719-5.88A20.766 20.766 0 0 0 20.113 8.4l-.084-.084-.289-.317A16.053 16.053 0 0 1 8.4 7.97l-.336.429c-.065.075-6.87 8.073-4.816 13.216.99 2.464 3.892 3.957 8.615 4.415z"/>
    </mask>
    <path d="M13.617 26.815c-.606 0-1.213 0-1.81-.056-5.03-.495-8.13-2.138-9.23-4.891-2.231-5.6 4.666-13.636 4.946-14l.737-.793.243.112a15.204 15.204 0 0 0 11.2 0l.233-.094.69.738a21.674 21.674 0 0 1 4.425 7.102 15.57 15.57 0 0 1 .756 6.207 4.667 4.667 0 0 1-1.456 2.8c-1.727 1.643-4.312 2.193-6.375 2.501-1.442.23-2.898.354-4.358.374zm-1.754-.784c2.007.129 4.022.041 6.01-.262 1.951-.289 4.396-.802 5.974-2.305a3.91 3.91 0 0 0 1.241-2.399c.165-1.988-.08-3.99-.719-5.88A20.766 20.766 0 0 0 20.113 8.4l-.084-.084-.289-.317A16.053 16.053 0 0 1 8.4 7.97l-.336.429c-.065.075-6.87 8.073-4.816 13.216.99 2.464 3.892 3.957 8.615 4.415z" fill="#1C3E71"/>
    <path d="m11.807 26.759-.098.995h.005l.093-.995zm-9.23-4.891-.93.37v.001l.93-.371zm4.946-14-.733-.68-.031.033-.029.037.793.61zm.737-.793.42-.908-.659-.304-.493.53.732.682zm.243.112-.42.908.026.011.026.01.368-.93zm11.2 0 .368.93.003-.002-.371-.928zm.233-.094.73-.683-.467-.499-.634.254.371.928zm.69.738.732-.683-.001-.001-.73.684zm4.425 7.102.948-.317-.006-.02-.007-.018-.935.355zm.756 6.207.99.134.004-.026.003-.027-.997-.081zm-1.456 2.8-.68-.734-.01.01.69.724zm-6.375 2.501-.148-.989-.009.002.157.987zm-6.113-.41-.096.995.016.002h.016l.064-.997zm6.01-.262-.146-.989h-.004l.15.99zm5.974-2.305-.675-.738-.008.007-.007.007.69.724zm1.241-2.399.992.125.003-.021.002-.021-.997-.083zm-.719-5.88.948-.32-.007-.019-.007-.019-.934.358zM20.113 8.4l.73-.685-.011-.011-.011-.011-.708.707zm-.084-.084-.738.674.015.017.016.016.707-.707zm-.289-.317.74-.674-.457-.5-.634.237.351.937zM8.4 7.97l.356-.935-.69-.262-.453.58.787.617zm-.336.429.753.659.018-.021.017-.022-.788-.616zM3.248 21.616l-.929.37.001.003.928-.373zm10.37 4.199c-.615 0-1.175-.001-1.718-.052l-.187 1.991c.652.061 1.306.06 1.905.06v-2zm-1.713-.052c-4.933-.485-7.516-2.057-8.4-4.266l-1.857.742c1.319 3.297 4.933 5.01 10.061 5.515l.196-1.99zm-8.4-4.265c-.46-1.155-.47-2.49-.16-3.916.311-1.424.93-2.875 1.644-4.204 1.431-2.664 3.158-4.681 3.326-4.9L6.73 7.258l-.028.035-.08.1A34.388 34.388 0 0 0 5.51 8.831a31.52 31.52 0 0 0-2.283 3.6c-.766 1.424-1.471 3.055-1.835 4.724-.364 1.668-.4 3.437.255 5.082l1.858-.74zm4.75-12.95.738-.793-1.465-1.361-.738.793L8.255 8.55zm-.414-.565.243.112.838-1.816-.243-.112-.838 1.816zm.294.133a16.204 16.204 0 0 0 11.936 0l-.737-1.859a14.204 14.204 0 0 1-10.463 0l-.736 1.86zm11.94 0 .233-.094-.743-1.857-.234.093.743 1.857zm-.869-.339.691.737 1.46-1.367-.691-.737-1.46 1.367zm.69.736a20.672 20.672 0 0 1 4.22 6.775l1.87-.71a22.672 22.672 0 0 0-4.628-7.43l-1.462 1.365zm4.207 6.738c.626 1.868.866 3.844.707 5.808l1.994.162a16.566 16.566 0 0 0-.805-6.605l-1.896.635zm.713 5.755a3.666 3.666 0 0 1-1.144 2.2l1.358 1.468a5.667 5.667 0 0 0 1.768-3.4l-1.982-.268zm-1.154 2.21c-1.476 1.403-3.766 1.927-5.834 2.236l.296 1.978c2.057-.307 4.939-.884 6.916-2.765l-1.378-1.45zm-5.843 2.238a29.377 29.377 0 0 1-4.215.36l.027 2c1.508-.02 3.013-.148 4.502-.385l-.314-1.975zm-6.02 1.575c2.079.133 4.166.043 6.225-.271l-.301-1.977c-1.917.292-3.86.376-5.796.252l-.128 1.996zm6.221-.27c1.937-.288 4.685-.826 6.517-2.571l-1.38-1.448c-1.323 1.26-3.465 1.749-5.43 2.04l.293 1.979zm6.502-2.557a4.91 4.91 0 0 0 1.558-3.012l-1.984-.25a2.911 2.911 0 0 1-.924 1.786l1.35 1.476zm1.563-3.054a15.598 15.598 0 0 0-.768-6.283l-1.895.64c.595 1.761.823 3.625.67 5.478l1.993.165zm-.782-6.32a21.765 21.765 0 0 0-4.46-7.113l-1.458 1.37a19.767 19.767 0 0 1 4.05 6.458l1.868-.716zm-4.482-7.135-.084-.084-1.415 1.414.084.084 1.415-1.414zm-.053-.05-.289-.318-1.478 1.347.29.318 1.477-1.348zm-1.379-.58a15.053 15.053 0 0 1-10.633-.027l-.711 1.87a17.053 17.053 0 0 0 12.046.03l-.702-1.874zm-11.776.291-.336.43 1.575 1.232.336-.429-1.575-1.233zm-.301.388c-.06.068-1.827 2.147-3.327 4.885-.75 1.37-1.454 2.941-1.833 4.534-.377 1.587-.45 3.28.167 4.826l1.858-.742c-.41-1.025-.402-2.26-.079-3.622.322-1.356.939-2.753 1.64-4.035a29.914 29.914 0 0 1 2.065-3.224c.599-.82 1.018-1.31 1.014-1.305L7.312 7.742zM2.32 21.989c1.213 3.02 4.65 4.572 9.447 5.037l.192-1.99c-4.648-.45-7.017-1.885-7.783-3.793l-1.856.746z" fill="#043B73" mask="url(#f6g7q9yqta)"/>
    <path d="M14.206 8.783a15.55 15.55 0 0 1-5.908-1.13L6.076 3.65l.196-.168a8.699 8.699 0 0 0 6.244 1.4c.243-.074 6.272-1.932 9.576-1.418h.178l-.094.158-2.258 4.023a14.616 14.616 0 0 1-5.712 1.139zM8.4 7.467a15.344 15.344 0 0 0 11.34 0l2.128-3.734c-3.294-.41-9.23 1.419-9.286 1.438a8.95 8.95 0 0 1-6.048-1.204l1.866 3.5z" fill="#1C3E71"/>
    <mask id="4osacxx7pb" fill="#fff">
        <path d="M14.205 9.016c-2.058.006-4.099-.384-6.01-1.148h-.066l-.074-.084-2.268-4.19.196-.169v-.093l.084.056.242-.205.15.112a8.475 8.475 0 0 0 6.02 1.372s6.188-1.96 9.641-1.438l.523.075-2.558 4.517h-.074a14.821 14.821 0 0 1-5.806 1.195zm-5.6-1.755A15.036 15.036 0 0 0 19.6 7.252l1.867-3.37c-3.286-.233-8.783 1.447-8.839 1.466-1.88.31-3.81.03-5.525-.803l1.502 2.716z"/>
    </mask>
    <path d="M14.205 9.016c-2.058.006-4.099-.384-6.01-1.148h-.066l-.074-.084-2.268-4.19.196-.169v-.093l.084.056.242-.205.15.112a8.475 8.475 0 0 0 6.02 1.372s6.188-1.96 9.641-1.438l.523.075-2.558 4.517h-.074a14.821 14.821 0 0 1-5.806 1.195zm-5.6-1.755A15.036 15.036 0 0 0 19.6 7.252l1.867-3.37c-3.286-.233-8.783 1.447-8.839 1.466-1.88.31-3.81.03-5.525-.803l1.502 2.716z" fill="#1C3E71"/>
    <path d="m8.195 7.868.37-.929-.178-.071h-.192v1zm-.066 0-.747.664.298.336h.45v-1zm-.074-.084-.88.476.055.102.077.086.748-.664zm-2.268-4.19-.651-.76-.613.525.384.71.88-.476zm.196-.169.65.76.35-.3v-.46h-1zm0-.093.554-.832-1.554-1.037v1.869h1zm.084.056-.555.832.626.417.575-.486-.646-.763zm.242-.205.6-.8-.637-.478-.609.514.646.764zm.15.112-.6.8.018.014.02.013.562-.827zm6.02 1.372.148.989.078-.012.076-.024-.302-.953zm9.641-1.438-.15.99h.009l.141-.99zm.523.075.87.493.722-1.276-1.451-.207-.141.99zm-2.558 4.517v1h.583l.288-.507-.87-.493zm-.074 0v-1h-.205l-.189.08.394.92zm-11.406-.56-.875.484.175.316.335.131.365-.93zM19.6 7.252l.366.93.335-.131.174-.314-.875-.485zm1.867-3.37.874.485.76-1.37-1.563-.112-.071.998zm-8.839 1.466.162.987.079-.013.075-.025-.316-.949zm-5.525-.803.436-.9L4.7 2.269l1.529 2.761.875-.484zm7.1 3.471c-1.931.005-3.845-.36-5.637-1.077l-.743 1.858a17.071 17.071 0 0 0 6.385 1.219l-.005-2zM8.195 6.868h-.066v2h.066v-2zm.682.336-.075-.084-1.495 1.328.075.084 1.495-1.328zm.057.104-2.268-4.19-1.759.951L7.175 8.26l1.76-.952zM6.437 4.353l.196-.168-1.301-1.519-.196.168 1.301 1.519zm.546-.928v-.093h-2v.093h2zm-1.555.739.084.056 1.11-1.664-.085-.056-1.11 1.664zm1.285-.013.242-.205L5.663 2.42l-.242.206L6.713 4.15zm-1.004-.168.15.112 1.2-1.6-.15-.112-1.2 1.6zm.188.139a9.475 9.475 0 0 0 6.73 1.534l-.297-1.978a7.475 7.475 0 0 1-5.31-1.21L5.898 4.122zm6.582.545.301.953h.003l.012-.004.049-.016.194-.058a43.594 43.594 0 0 1 3.177-.812c1.975-.424 4.226-.743 5.755-.512l.3-1.977c-1.924-.292-4.494.108-6.476.533a45.598 45.598 0 0 0-3.596.933l-.015.004-.004.002h-.002l.302.954zm9.5-.448.522.075.283-1.98-.523-.075-.282 1.98zm-.207-1.408L19.215 7.33l1.74.985 2.558-4.517-1.74-.986zm-1.687 4.01h-.074v2h.074v-2zm-.468.08a13.821 13.821 0 0 1-5.413 1.115l.003 2a15.822 15.822 0 0 0 6.197-1.275l-.787-1.84zM8.24 8.193a16.036 16.036 0 0 0 11.726-.01l-.732-1.86A14.036 14.036 0 0 1 8.97 6.33l-.73 1.862zm12.235-.455 1.866-3.37-1.75-.969-1.866 3.37 1.75.969zm1.063-4.852c-1.798-.127-4.116.264-5.916.66a44.81 44.81 0 0 0-3.31.854l.632 1.898c-.009.003 1.345-.413 3.107-.8 1.783-.39 3.857-.723 5.345-.617l.142-1.995zm-9.073 1.476a8.221 8.221 0 0 1-4.926-.715l-.873 1.799c1.9.922 4.04 1.233 6.124.89l-.325-1.974zm-6.237.668L7.73 7.745l1.75-.968-1.502-2.716-1.75.968z" fill="#043B73" mask="url(#4osacxx7pb)"/>
    <path d="m6.272 3.799-.159-.196c.056 0 5.936-4.807 16.156-.122l-.102.252c-10.034-4.666-15.84 0-15.895.066z" fill="#1C3E71"/>
    <mask id="0zv1vr3x8c" fill="#fff">
        <path d="m6.244 4.125-.467-.55.187-.15c.056 0 6.113-4.872 16.408-.158l.205.093-.298.663-.215-.103c-9.93-4.545-15.587.01-15.643.056l-.177.15z"/>
    </mask>
    <path d="m6.244 4.125-.467-.55.187-.15c.056 0 6.113-4.872 16.408-.158l.205.093-.298.663-.215-.103c-9.93-4.545-15.587.01-15.643.056l-.177.15z" fill="#1C3E71"/>
    <path d="m6.244 4.125-.763.647.645.76.762-.642-.644-.765zm-.467-.55-.624-.781-.804.642.665.785.763-.646zm.187-.15v-1h-.35l-.275.22.625.78zm16.408-.158-.416.909.002.001.414-.91zm.205.093.912.41.41-.908-.908-.412-.414.91zm-.298.663-.432.902.923.441.42-.932-.911-.411zm-.215-.103.431-.902-.007-.004-.008-.003-.416.909zm-15.643.056-.64-.768-.004.003.644.765zm.586-.497-.467-.55L5.014 4.22l.467.55L7.007 3.48zm-.605.877.187-.15-1.25-1.562-.186.15 1.249 1.562zm-.438.07c.184 0 .321-.053.346-.062a1.015 1.015 0 0 0 .237-.124l.066-.046a9.134 9.134 0 0 1 .952-.57 12.3 12.3 0 0 1 2.982-1.07c2.599-.582 6.463-.642 11.409 1.622l.832-1.819C17.438-.092 13.128-.073 10.11.603A14.297 14.297 0 0 0 6.642 1.85a11.127 11.127 0 0 0-1.166.698l-.05.034c-.004.004.006-.004.023-.014.007-.004.033-.02.068-.038a.985.985 0 0 1 .103-.044c.024-.01.16-.062.344-.062v2zm15.994-.249.206.093.827-1.82-.205-.094-.828 1.821zm-.292-1.228-.299.663 1.823.822.299-.663-1.823-.822zm1.044.172-.215-.103-.862 1.804.214.103.863-1.804zm-.23-.11C12.092-1.744 6.03 3 5.781 3.208l1.28 1.536c-.136.114 5.114-4.25 14.587.085l.832-1.818zm-16.703.2-.177.15 1.288 1.53.177-.15-1.288-1.53z" fill="#043B73" mask="url(#0zv1vr3x8c)"/>
    <path d="M14.98 15.036a2.053 2.053 0 0 0-1.867-1.185h-2.66v-1.176h7.094v1.176h-1.923c.285.348.494.752.616 1.185h1.307v1.185h-1.195a3.248 3.248 0 0 1-3.239 2.95h-.43l3.977 4.162h-1.633L11.04 19.19v-1.194h2.072a2.072 2.072 0 0 0 2.044-1.774h-4.666v-1.185h4.489z" fill="#1B3F71"/>
</svg>
