<svg width="28" height="28" viewBox="0 0 28 28" fill="none" xmlns="http://www.w3.org/2000/svg">
    <path d="M26.133 24.173H1.867l2.51-1.866A3.444 3.444 0 0 0 5.805 19.6v-7.84c0-.233.094-5.45 4.564-7.812a3.37 3.37 0 0 1 .934-1.867 3.49 3.49 0 0 1 4.732 0c.413.413.71.929.858 1.494 5.19 2.146 5.302 8.101 5.302 8.157V19.6a3.426 3.426 0 0 0 1.4 2.753l2.538 1.82zM5.245 23.081h17.51a4.537 4.537 0 0 1-1.652-3.481v-7.84c0-.215-.131-5.47-4.882-7.243l-.298-.112v-.317a2.203 2.203 0 0 0-.616-1.204 2.343 2.343 0 0 0-3.183 0 2.146 2.146 0 0 0-.635 1.447v.326l-.298.14c-4.182 1.988-4.294 6.916-4.294 6.963v7.84a4.536 4.536 0 0 1-1.652 3.481zM1.913 12.87c0-.307-.15-7.606 4.601-10.266l.532.933c-4.162 2.343-4.04 9.222-4.04 9.334H1.912zM26.059 12.87h-1.102c0-.065.131-6.943-4.041-9.286l.541-.933c4.751 2.613 4.611 9.912 4.602 10.22z" fill="#1B3F71"/>
    <path d="M14 27.29a3.648 3.648 0 0 1-2.595-1.073 3.733 3.733 0 0 1-1.073-2.594v-.467h7.336v.467a3.733 3.733 0 0 1-1.073 2.594A3.648 3.648 0 0 1 14 27.291zm-2.688-3.2a2.68 2.68 0 0 0 .756 1.465 2.8 2.8 0 0 0 3.864 0c.4-.397.664-.91.756-1.466h-5.376z" fill="#1B3F71"/>
</svg>
