<svg width="28" height="28" viewBox="0 0 28 28" fill="none" xmlns="http://www.w3.org/2000/svg">
    <path d="M6.655 27.365H.82v-16.24h.934v15.307h4.9v.933z" fill="#1B3F71"/>
    <path d="M26.068 27.365H6.655A1.101 1.101 0 0 1 5.6 26.264V4.797a1.101 1.101 0 0 1 1.055-1.064h19.413a1.101 1.101 0 0 1 1.11 1.102V26.3a1.102 1.102 0 0 1-1.11 1.064zM6.655 4.667a.168.168 0 0 0-.122.13v21.467a.168.168 0 0 0 .168.168h19.414a.178.178 0 0 0 .177-.168V4.797a.179.179 0 0 0-.152-.137.177.177 0 0 0-.072.007H6.655z" fill="#1B3F71"/>
    <path d="M16.51 14.933H8.4V6.421h8.13l-.02 8.512zM9.334 14h6.263V7.355H9.333V14zM24.79 6.421h-6.898v.934h6.897V6.42zM24.79 8.932h-6.898v.933h6.897v-.933zM24.79 11.443h-6.898v.933h6.897v-.933zM24.79 13.953h-6.898v.934h6.897v-.934z" fill="#1B3F71"/>
</svg>
