<svg width="28" height="28" viewBox="0 0 28 28" fill="none" xmlns="http://www.w3.org/2000/svg">
    <path d="M14.122 26.301a9.18 9.18 0 0 1-1.587-.13 5.143 5.143 0 0 1-4.34-5.106v-9.044h11.704v9.063a5.18 5.18 0 0 1-4.396 5.124c-.458.064-.92.095-1.381.093zM9.128 12.955v8.11a4.238 4.238 0 0 0 3.556 4.191c.888.13 1.79.13 2.679 0a4.237 4.237 0 0 0 3.603-4.2v-8.101H9.128zM14.047 10.948a4.536 4.536 0 1 1 4.536-4.536 4.545 4.545 0 0 1-4.536 4.536zm0-8.139a3.603 3.603 0 1 0 3.602 3.603A3.603 3.603 0 0 0 14.047 2.8v.01zM4.778 7.896a3.024 3.024 0 1 1-.018-6.048 3.024 3.024 0 0 1 .018 6.048zm0-5.096a2.09 2.09 0 1 0-.018 4.181A2.09 2.09 0 0 0 4.778 2.8zM6.095 21.98c-.454 0-.906-.038-1.354-.112a4.602 4.602 0 0 1-3.864-4.564V9.268h7.336v.933H1.811v7.103a3.668 3.668 0 0 0 3.09 3.64c.394.067.793.101 1.194.103v.933zM22.895 7.896a3.024 3.024 0 1 1 0-6.048 3.024 3.024 0 0 1 0 6.048zm0-5.105a2.09 2.09 0 1 0 2.09 2.09 2.09 2.09 0 0 0-2.09-2.081v-.01z" fill="#1A4071"/>
    <path d="M21.579 21.98v-.933c.4-.003.8-.037 1.194-.103a3.668 3.668 0 0 0 3.09-3.64v-7.103H19.46v-.933h7.336v8.036a4.611 4.611 0 0 1-3.873 4.564 8.168 8.168 0 0 1-1.344.112z" fill="#1A4071"/>
</svg>
