<svg width="28" height="28" viewBox="0 0 28 28" fill="none" xmlns="http://www.w3.org/2000/svg">
    <path d="M23.893 27.44H4.107a1.419 1.419 0 0 1-1.419-1.419V1.98A1.419 1.419 0 0 1 4.107.56H16.8c.362-.003.712.13.98.373l7.093 6.823a1.437 1.437 0 0 1 .439 1.027V26.02a1.419 1.419 0 0 1-1.419 1.419zM4.107 1.493a.485.485 0 0 0-.486.486V26.02a.485.485 0 0 0 .486.486h19.786a.485.485 0 0 0 .486-.486V8.801a.477.477 0 0 0-.112-.345l-7.14-6.823a.458.458 0 0 0-.327-.14H4.107z" fill="#1B3F71"/>
    <path d="M24.556 8.661h-8.232V1.027h.934v6.701h7.298v.933zM12.843 7.728H6.85v.933h5.992v-.933zM20.673 12.124H6.851v.933h13.822v-.933zM20.673 16.52H6.851v.933h13.822v-.933zM20.673 21.41H6.851v.934h13.822v-.933z" fill="#1B3F71"/>
</svg>
