<svg width="28" height="28" viewBox="0 0 28 28" fill="none" xmlns="http://www.w3.org/2000/svg">
    <path d="M14.205 27.197A13.198 13.198 0 1 1 27.402 14a13.216 13.216 0 0 1-13.197 13.197zm0-25.461A12.264 12.264 0 1 0 26.47 14 12.283 12.283 0 0 0 14.205 1.736z" fill="#1A4071"/>
    <path d="M13.067 18.405a5.675 5.675 0 0 1 .354-2.072 6.123 6.123 0 0 1 1.4-1.866c.502-.465.966-.967 1.391-1.503.21-.284.373-.599.485-.933.117-.39.174-.797.168-1.204a3.023 3.023 0 0 0-.728-2.147 2.65 2.65 0 0 0-2.025-.775 2.95 2.95 0 0 0-2.11.747 2.678 2.678 0 0 0-.802 2.007H9.912a3.733 3.733 0 0 1 1.204-2.866A4.33 4.33 0 0 1 14.14 6.72a4.013 4.013 0 0 1 2.968 1.092 4.042 4.042 0 0 1 1.083 2.968 4.78 4.78 0 0 1-.532 2.212 9.578 9.578 0 0 1-2.035 2.408 3.733 3.733 0 0 0-1.232 3.005h-1.325zm-.178 3.65a.933.933 0 0 1 .271-.588.812.812 0 0 1 .653-.262.86.86 0 0 1 .934.887.832.832 0 0 1-.243.616.934.934 0 0 1-.663.243.832.832 0 0 1-.933-.859l-.019-.037z" fill="#1A4071"/>
</svg>
