<svg width="69" height="69" viewBox="0 0 69 69" fill="none" xmlns="http://www.w3.org/2000/svg">
<path d="M57.5946 34.5103V34.4919C57.5872 33.6815 57.54 32.872 57.4531 32.0665L63.23 27.5437C63.7038 27.1798 64.0275 26.6545 64.1395 26.0675C64.2513 25.4818 64.1445 24.8756 63.8395 24.3635L57.9529 14.1552C57.6631 13.6391 57.1954 13.2459 56.6368 13.0493C56.0761 12.852 55.4626 12.8663 54.9117 13.0897C54.9112 13.0898 54.9107 13.09 54.9102 13.0902L48.0875 15.8407C46.7723 14.8867 45.3618 14.0714 43.8786 13.4079L42.8505 6.15741C42.7677 5.57172 42.4748 5.03613 42.0263 4.65046C41.5792 4.26599 41.008 4.05665 40.4185 4.0611H28.6108C28.0213 4.05665 27.4501 4.26599 27.0031 4.65046C26.5547 5.03604 26.2618 5.57145 26.179 6.15695C26.1789 6.1571 26.1789 6.15726 26.1789 6.15741L25.151 13.4064C23.6654 14.0672 22.2538 14.8831 20.9396 15.8406L14.0904 13.0902C14.0897 13.09 14.089 13.0897 14.0883 13.0894C13.5376 12.8663 12.9243 12.852 12.3638 13.0493C11.8052 13.246 11.3374 13.6391 11.0476 14.1553L5.16111 24.3634C4.85613 24.8755 4.74931 25.4818 4.86108 26.0675C4.97305 26.6542 5.29652 27.1793 5.76996 27.5432L11.5334 32.0659C11.4468 32.8715 11.3994 33.681 11.3916 34.4914L11.3916 34.5103C11.399 35.321 11.4463 36.1307 11.5332 36.9365L5.76993 41.459C5.2965 41.8229 4.97305 42.348 4.86108 42.9347C4.7493 43.5204 4.85613 44.1267 5.16114 44.6388L11.0476 54.8468C11.3374 55.363 11.8052 55.7562 12.3638 55.9529C12.9246 56.1503 13.5382 56.1359 14.0891 55.9125C14.0895 55.9123 14.0899 55.9121 14.0904 55.912L20.9131 53.1615C22.2283 54.1155 23.6388 54.9308 25.122 55.5943L26.1501 62.8448C26.1502 62.8449 26.1502 62.8451 26.1502 62.8452C26.2331 63.4308 26.526 63.9662 26.9743 64.3517C27.4213 64.7362 27.9925 64.9455 28.5819 64.9411H40.3612C40.9506 64.9455 41.5218 64.7362 41.9688 64.3517C42.4173 63.9661 42.7102 63.4305 42.793 62.8448L43.8209 55.5959C45.3062 54.9352 46.7176 54.1194 48.0315 53.1621L54.8527 55.912C54.8532 55.9122 54.8537 55.9124 54.8542 55.9126C55.4051 56.1359 56.0186 56.1502 56.5793 55.9529C57.1379 55.7562 57.6057 55.363 57.8955 54.8468L63.782 44.6388C64.087 44.1267 64.1938 43.5204 64.082 42.9347C63.9702 42.3486 63.6473 41.824 63.1746 41.4601L57.4528 36.9387C57.5399 36.1322 57.5872 35.3217 57.5946 34.5103ZM34.5003 43.8224H34.4989C32.6548 43.8249 30.8513 43.2804 29.3168 42.2578C27.7822 41.2351 26.5854 39.7802 25.8779 38.0772C25.1705 36.3742 24.984 34.4996 25.3422 32.6906C25.7004 30.8816 26.5871 29.2195 27.8902 27.9146C29.1933 26.6097 30.8542 25.7206 32.6627 25.3599C34.4712 24.9992 36.346 25.183 38.05 25.8882C39.754 26.5933 41.2105 27.788 42.2354 29.3211C43.2602 30.8543 43.8072 32.657 43.8072 34.5011V34.5025C43.8089 35.7258 43.5694 36.9374 43.1025 38.0681C42.6355 39.1987 41.9502 40.2262 41.0858 41.0918C40.2215 41.9574 39.1949 42.6441 38.0649 43.1127C36.9349 43.5812 35.7236 43.8224 34.5003 43.8224Z" stroke="#043B73" stroke-width="2" stroke-linecap="round" stroke-linejoin="round"/>
</svg>
