<svg width="168" height="168" viewBox="0 0 168 168" fill="none" xmlns="http://www.w3.org/2000/svg">
<path d="M87.5839 116.088H81.9839C82.1568 112.138 81.528 108.194 80.1355 104.493C78.743 100.792 76.6156 97.4119 73.8815 94.5556C71.1475 91.6993 67.8633 89.4261 64.2271 87.8732C60.5909 86.3202 56.6779 85.5196 52.7239 85.5196C48.77 85.5196 44.857 86.3202 41.2208 87.8732C37.5845 89.4261 34.3004 91.6993 31.5664 94.5556C28.8323 97.4119 26.7049 100.792 25.3124 104.493C23.9199 108.194 23.2911 112.138 23.4639 116.088H17.8639C17.6757 111.393 18.438 106.707 20.105 102.314C21.7721 97.9203 24.3096 93.9088 27.5652 90.5201C30.8208 87.1314 34.7274 84.4352 39.0507 82.5935C43.374 80.7518 48.0247 79.8025 52.7239 79.8025C57.4231 79.8025 62.0739 80.7518 66.3972 82.5935C70.7205 84.4352 74.6271 87.1314 77.8827 90.5201C81.1383 93.9088 83.6758 97.9203 85.3428 102.314C87.0099 106.707 87.7722 111.393 87.5839 116.088Z" fill="#1A4071"/>
<path d="M52.7519 74.3119C49.695 74.3119 46.7067 73.4054 44.165 71.7071C41.6233 70.0088 39.6423 67.5949 38.4724 64.7707C37.3026 61.9464 36.9965 58.8388 37.5929 55.8406C38.1893 52.8424 39.6613 50.0884 41.8229 47.9269C43.9844 45.7653 46.7384 44.2933 49.7366 43.6969C52.7348 43.1005 55.8424 43.4066 58.6667 44.5764C61.4909 45.7463 63.9048 47.7273 65.6031 50.269C67.3014 52.8107 68.2079 55.799 68.2079 58.8559C68.2079 62.9551 66.5795 66.8864 63.6809 69.785C60.7824 72.6835 56.8511 74.3119 52.7519 74.3119ZM52.7519 48.9999C50.8026 48.9999 48.897 49.578 47.2762 50.6609C45.6554 51.7439 44.3921 53.2832 43.6461 55.0842C42.9002 56.8851 42.705 58.8668 43.0853 60.7787C43.4656 62.6906 44.4043 64.4468 45.7827 65.8252C47.161 67.2035 48.9172 68.1422 50.8291 68.5225C52.741 68.9028 54.7227 68.7076 56.5236 67.9617C58.3246 67.2157 59.8639 65.9524 60.9469 64.3316C62.0299 62.7108 62.6079 60.8052 62.6079 58.8559C62.6079 56.2419 61.5695 53.735 59.7211 51.8867C57.8728 50.0383 55.3659 48.9999 52.7519 48.9999Z" fill="#1A4071"/>
<path d="M146.888 54.3201H100.408V59.9201H146.888V54.3201Z" fill="#1A4071"/>
<path d="M146.888 77.7839H100.408V83.3839H146.888V77.7839Z" fill="#1A4071"/>
<path d="M146.888 102.424H100.408V108.024H146.888V102.424Z" fill="#1A4071"/>
<path d="M157.36 135.912H10.1916C8.543 135.912 6.96194 135.257 5.79621 134.091C4.63048 132.926 3.97559 131.345 3.97559 129.696V32.592C3.97559 30.9434 4.63048 29.3623 5.79621 28.1966C6.96194 27.0309 8.543 26.376 10.1916 26.376H157.36C159.008 26.376 160.589 27.0309 161.755 28.1966C162.921 29.3623 163.576 30.9434 163.576 32.592V129.696C163.576 131.345 162.921 132.926 161.755 134.091C160.589 135.257 159.008 135.912 157.36 135.912ZM10.1916 31.976C10.0282 31.976 9.87153 32.0409 9.75601 32.1564C9.64049 32.2719 9.57559 32.4286 9.57559 32.592V129.696C9.57559 129.859 9.64049 130.016 9.75601 130.132C9.87153 130.247 10.0282 130.312 10.1916 130.312H157.36C157.523 130.312 157.68 130.247 157.795 130.132C157.911 130.016 157.976 129.859 157.976 129.696V32.592C157.976 32.4286 157.911 32.2719 157.795 32.1564C157.68 32.0409 157.523 31.976 157.36 31.976H10.1916Z" fill="#1A4071"/>
</svg>
