<svg width="16" height="16" viewBox="0 0 16 16" fill="none" xmlns="http://www.w3.org/2000/svg">
<path d="M0.1 8C0.1 3.63326 3.6336 0.1 8 0.1C12.3667 0.1 15.9 3.63357 15.9 8C15.9 12.3667 12.3664 15.9 8 15.9C3.63326 15.9 0.1 12.3664 0.1 8ZM1.15 8C1.15 11.7863 4.21402 14.85 8 14.85C11.7863 14.85 14.85 11.786 14.85 8C14.85 4.21374 11.786 1.15 8 1.15C4.21374 1.15 1.15 4.21399 1.15 8Z" fill="#F6821F" stroke="#F9F9F9" stroke-width="0.2"/>
<path d="M8.62501 11.2461V8.6253L11.2458 8.6253C11.591 8.6253 11.8708 8.34551 11.8708 8.00033C11.8708 7.65511 11.591 7.37531 11.2458 7.37534L8.62501 7.37531L8.62498 4.75449C8.62503 4.40933 8.34517 4.12947 7.99999 4.12949C7.65481 4.12952 7.375 4.40933 7.37502 4.75451L7.37502 7.37531L4.75421 7.37531C4.40901 7.37531 4.12918 7.65511 4.1292 8.00029C4.12922 8.34555 4.4091 8.6253 4.75419 8.62528L7.37502 8.6253L7.37504 11.2461C7.375 11.5912 7.65483 11.8711 8.00003 11.8711C8.34523 11.8711 8.62503 11.5913 8.62501 11.2461Z" fill="#F6821F"/>
</svg>
