<svg width="53" height="53" viewBox="0 0 53 53" fill="none" xmlns="http://www.w3.org/2000/svg">
    <path d="M.14.5h40.18c6.628 0 12 5.373 12 12v28c0 6.627-5.372 12-12 12H.14V.5z" fill="#F5821F"/>
    <path d="M40.284 32.442c-.34-1.071-1.266-2.043-2.482-2.22a11.2 11.2 0 0 0 2.218-6.67.697.697 0 0 0-1.394 0 9.663 9.663 0 0 1-2.953 6.992l-8.51 2.194c.44-1.843-.85-3.816-2.827-3.816l-3.609.01a9.69 9.69 0 0 1-1.616-5.38c0-5.382 4.377-9.76 9.758-9.76a9.73 9.73 0 0 1 7.06 3.023l-1.511-.269a.697.697 0 0 0-.244 1.373l3.335.592c.398.071.834-.291.819-.711l-.123-3.386a.697.697 0 0 0-1.393.05l.047 1.306a11.12 11.12 0 0 0-7.99-3.372c-6.15 0-11.152 5.004-11.152 11.154 0 1.904.475 3.742 1.383 5.383l-4.664.013a1.606 1.606 0 0 0-1.585-1.362H9.424c-.884 0-1.603.72-1.603 1.605v10.736c0 .885.72 1.605 1.603 1.605h3.428c.823 0 1.503-.625 1.593-1.425l8.48 1.33a2.81 2.81 0 0 0 1.413-.142l14.287-5.333c1.463-.546 2.146-1.993 1.66-3.52zM13.06 39.927a.21.21 0 0 1-.209.21H9.424a.21.21 0 0 1-.209-.21V29.191a.21.21 0 0 1 .209-.21h3.428a.21.21 0 0 1 .21.21v10.736zm25.076-5.27L23.85 39.989c-.226.084-.47.109-.708.072l-8.687-1.363V30.34l9.885-.025h.006c1.067 0 1.482.838 1.514 1.556.026.592-.238 1.617-1.39 1.732l-5.426-.023h-.003a.697.697 0 0 0-.002 1.394l5.46.023c.515 0 1.12-.23 1.537-.53l10.961-2.826c.952-.25 1.706.425 1.96 1.222.099.312.333 1.363-.82 1.793z" fill="#fff"/>
    <path d="m29.649 28.945-2.835-4.95v-.66h.33c.8 0 1.41-.115 1.83-.345.43-.23.68-.645.75-1.245h-2.91v-.96h2.895c-.1-.56-.365-.965-.795-1.215-.42-.25-1.01-.375-1.77-.375h-.33v-.96h6.21v.96h-2.835c.48.39.765.92.855 1.59h1.98v.96h-1.95c-.07.73-.35 1.3-.84 1.71-.48.4-1.12.655-1.92.765l2.865 4.725h-1.53z" fill="#fff"/>
</svg>
