<svg xmlns="http://www.w3.org/2000/svg" width="160" height="127" fill="none" viewBox="0 0 160 127">
    <ellipse cx="87.532" cy="110.997" fill="#D6E6FE" rx="72.469" ry="15.595"/>
    <ellipse cx="87.532" cy="108.247" fill="#E8F4FF" rx="72.469" ry="15.595"/>
    <path fill="#D5E5FD" d="M107.22 106.595c-.046-.046-.138-.092-.138-.183-.046-3.257-.321-6.468.138-9.678.55-.459 1.238-.367 1.88-.367h13.072c1.606 0 1.651-.046 1.651-1.697V17.247c0-1.743-.045-1.743-1.834-1.743h-10.183c-.596 0-1.238.092-1.788-.275-.551-.642-.367-1.422-.367-2.156-.046-1.055-.046-2.11 0-3.21 0-.413 0-.826.367-1.147 1.33 0 2.66.092 3.99 0 3.348-.275 6.605.642 9.953.504 1.376-.045 3.99 2.798 3.99 4.404-.091 10.136-.045 20.319-.045 30.455.321.367.367.826.367 1.284 0 4.128.045 8.302 0 12.43.045 5.183.045 10.32 0 15.503 0 .367.045.734 0 1.147.045 5.825.045 11.696.045 17.52 0 .643.138 1.33-.367 1.881v7.981c0 1.972-1.834 4.036-3.669 4.678-1.376.505-2.752.321-4.128.413-.413-.642-1.009-.825-1.789-.825-3.027.045-6.008.045-9.035 0-.826-.138-1.422.275-2.11.504zM55.39 9.084c.184-.688.734-.412 1.147-.412 5.137-.046 10.228-.046 15.365-.046.275.78-.367.734-.734.734-.963 0-.963.458-.734 1.146.46 1.468.826 2.982 1.33 4.45-.091.183-.275.274-.458.32-3.302.23-6.56.046-9.861.092-2.615.046-2.431-.183-2.431 2.431 0 25.41.045 50.82 0 76.23 0 .046.045.046.045.092.322-1.835 1.147-3.623 1.147-5.55 0-.321.138-.688.596-.688.413.138.413.505.46.826.09 1.972.779 3.852 1.237 5.733.138.55.184 1.1.092 1.697-.183.826-.825.826-1.422.826-2.385.137-2.385.091-3.027 2.385-.459 1.697-.871 3.394-1.422 5.091-.137.413-.183.917-.78.963-1.467-.871-1.926-2.293-2.201-3.807-.092-.413-.046-.825-.046-1.238v-84.9c0-1.1.092-2.2.505-3.256.458-1.1 1.009-2.064 2.201-2.66-.32-.23-.78-.138-1.009-.459z"/>
    <path fill="#ADC8EB" d="M55.39 9.086h2.157c0 .092.045.183.045.275-.413.23-.871.459-1.284.688-.55.275-1.009.688-1.284 1.239-.642 1.238-1.01 2.522-1.01 3.99.047 28.391.047 56.783 0 85.128 0 2.018.643 3.67 2.065 5 .871 0 1.513.55 2.247.825.23.092.505.367.138.688-.596.184-1.193.184-1.743-.137-2.018.275-3.532-.78-5.045-1.835-1.193-.734-1.743-1.835-1.743-3.256v-5.917c0-.505.045-1.01.32-1.422V14.223c.092-2.66 2.432-5.091 5.138-5.137z"/>
    <path fill="#BDE9F8" d="M71.673 14.864c-1.147-.505-.688-1.697-1.055-2.569-.32-.688-.413-1.605-.688-2.339-.367-.963.092-.78.642-.826.459-.045 1.147.367 1.33-.458.046-1.422 1.285-2.798 2.66-3.21 3.028-.918 6.101-.276 9.174-.368 1.238-.046 1.651-.55 1.926-1.513.413-1.652 2.798-3.578 4.495-3.578 1.514 0 2.936-.092 4.404.734 1.513.826 2.11 2.11 2.568 3.532.23.78.55.825 1.147.825 2.247 0 4.495.046 6.742 0 .963 0 1.789.413 2.706.688 1.468.413 1.651 1.88 2.294 2.982v4.357c-.321.23-.643.23-.964.092-1.192-.505-2.476-.413-3.715-.413H74.563c-1.101.046-2.018.367-2.294 1.651-.091.138-.229.413-.596.413z"/>
    <path fill="#CADEF4" d="M50.346 94.394c0 2.064.091 4.083 0 6.147-.092 1.697.32 3.164 1.422 4.449-1.285-.092-2.248-.918-3.349-1.468-4.036-1.926-8.026-3.945-12.017-5.963-.092-.046-.137-.229-.23-.367 1.881-.642 3.9-.825 5.826-1.238 1.147-.23 2.34-.413 3.486-.642 1.605-.367 3.348-.092 4.862-.918z"/>
    <path fill="#D6E6FD" d="M39.566 122.375c1.01-.413 1.514.275 2.064.917-.871.184-1.513-.275-2.064-.917z"/>
    <path fill="#FEFEFE" d="M60.894 87.975c-.412.046-.458.32-.458.688.092 2.385-.963 4.495-1.56 6.926-.412-.55-.275-1.01-.275-1.422V24.495c0-2.752.046-5.504 0-8.256 0-.871.23-1.192 1.147-1.192 3.898.046 7.797.046 11.696.046.458.871 1.192 1.009 2.11 1.009h34.354c.917 0 1.651-.138 2.11-1.01 4.311 0 8.622 0 12.934-.045 1.009 0 1.284.23 1.284 1.284-.046 11.008-.046 22.016-.046 32.978v45.959c0 1.467 0 1.467-1.513 1.467H107.22c-.413-1.697-.23-3.394-.23-5.091 0-.78-.091-1.56-.321-2.247-.275-.918-1.055-1.376-2.11-1.376-3.302.045-6.604 0-9.953 0-1.009 0-1.972.091-2.568-.918-.78-1.192-.917-2.66-1.239-3.99-.458-2.018-1.33-2.614-3.302-2.156-4.22 1.01-8.394 2.156-12.66 3.12-2.843.641-5.687 1.375-8.53 2.017-1.33.321-2.66.734-3.99.963-.505.092-.826.78-1.423.918z"/>
    <path fill="#A9C6EA" d="M60.894 87.975c.459-.826 1.1-1.193 2.11-1.422 1.514-.367 3.027-.642 4.495-1.147 1.422-.504 2.981-.688 4.449-1.055 1.697-.458 3.486-.734 5.183-1.192 1.468-.413 2.935-.734 4.449-1.101 1.56-.367 3.073-.917 4.632-1.147 1.147-.183 2.202-1.055 3.532-.32.78.458 1.239 1.1 1.33 1.696.276 1.606.963 3.165 1.055 4.77.092.918-.458.918-1.146.918H74.929c-1.834 0-2.064.32-2.614 2.064-.459 1.421-.505 2.752 0 4.174.23.596.23 1.467-.046 2.018-.505.917-.505 1.88-.275 2.66.642 1.926.23 3.853.367 5.733.091 1.376-.688 2.615-.413 3.991-1.514.963-3.165 1.422-4.908 1.146-1.56-.229-2.018-1.559-2.339-2.935-.826-3.532-1.972-7.018-2.43-10.641 0-1.33-.505-2.569-.827-3.853-.275-1.376-.78-2.798-.55-4.357z"/>
    <path fill="#CDE1F8" d="M65.022 106.823c.55 2.339 1.56 3.349 4.311 2.431.826-.275 1.698-.596 2.57-.596v2.981c0 .551-.23.826-.78.597-2.66-1.101-5.459-1.973-8.165-2.982-1.88-.734-3.807-1.468-5.78-1.972-.274-.092-.412-.184-.458-.459h1.835c.183-.229.459-.321.688-.321 1.651-.092 3.256-.046 4.908 0 .367-.046.642.092.871.321z"/>
    <path fill="#D5E5FD" d="M107.22 106.599c.367-.734.963-.963 1.789-.918 3.256.046 6.558.046 9.815 0 .871 0 1.33.23 1.238 1.147h-11.65c-.367-.046-.825.138-1.192-.229z"/>
    <path fill="#D2F3FE" d="M110.017 15.094c.184 1.1-.275 1.376-1.376 1.376-11.925-.046-23.85-.046-35.776 0-1.1 0-1.513-.322-1.376-1.376.092-.092.184-.184.276-.23.046-.046.091-.046.091-.092.367-2.247.55-2.43 3.395-2.43 9.219-.046 18.438-.046 27.611 0 2.431 0 4.862-.322 7.201.688-.092.688-.046 1.376-.046 2.064z"/>
    <path fill="#BED5F7" d="M65.023 106.827h-6.421c-.413-.688-1.284-.459-1.835-.872-.23-.183-.459-.367-.688-.504.55-2.018 1.055-3.991 1.651-5.963.184-.596.413-1.192.505-1.835.092-.55.504-.963 1.238-.917.642.046 1.285 0 1.927 0 .367 0 .78.092.871-.459.23.046.413.184.413.459 0 2.43 1.1 4.633 1.468 7.018.229.963.504 2.064.871 3.073z"/>
    <path fill="#69BDFA" d="M91.258 2.252c1.789-.23 3.715 1.835 3.623 3.486-.091 1.789-1.972 3.807-3.67 3.807-1.65 0-3.577-1.973-3.623-3.715-.091-1.652 1.927-3.624 3.67-3.578z"/>
    <path fill="#EAEEF4" d="M82.451 54.262c.367 5.504-4.449 8.806-8.668 8.898-2.156.046-4.266-.78-5.917-2.385-1.973-1.88-3.028-4.22-2.844-6.972.321-5.137 4.128-8.302 8.852-8.44 4.082-.045 9.174 3.854 8.577 8.899zM102.541 48.112c4.082 0 8.164.046 12.246 0 .872 0 1.193.23 1.193 1.147-.046 2.523 0 2.523-2.523 2.523H90.203c-1.055 0-1.376-.276-1.33-1.33.092-2.386 0-2.386 2.34-2.386 3.76.046 7.567.046 11.328.046z"/>
    <path fill="#EFF2F7" d="M102.358 30.688H89.974c-.826 0-1.147-.23-1.101-1.101 0-2.614-.046-2.614 2.569-2.614h23.254c.963 0 1.33.229 1.284 1.284-.046 2.43 0 2.43-2.385 2.43h-11.237zM102.358 37.567H89.974c-.826 0-1.147-.184-1.147-1.055 0-2.615-.046-2.615 2.569-2.615 7.705 0 15.411 0 23.116-.045 1.055 0 1.468.229 1.422 1.376-.091 2.339 0 2.339-2.385 2.339h-11.191z"/>
    <path fill="#EAEEF5" d="M102.358 59.582H89.974c-.826 0-1.147-.229-1.101-1.1 0-2.615-.046-2.615 2.569-2.615h23.254c1.009 0 1.33.23 1.284 1.284-.046 2.431 0 2.431-2.385 2.431h-11.237z"/>
    <path fill="#EAEEF4" d="M67.04 29.13c.367.045.596.275.871.504 1.01 1.009 2.11 2.018 3.074 3.073.55.596.871.55 1.421 0 2.523-2.569 5.137-5.091 7.66-7.706.642-.688 1.055-.642 1.605.046.184.23.413.459.643.642.596.46.458.78 0 1.285-3.349 3.302-6.651 6.604-9.953 9.953-.55.55-.872.458-1.376-.046-1.652-1.743-3.349-3.44-5.092-5.091-.734-.688-.825-1.147 0-1.743.413-.321.642-.78 1.147-.918z"/>
    <path fill="#95B9DE" d="M82.36 87.516c.688-.734 1.1-1.238.32-1.926-.32-.276.23-.688.551-.78 1.239-.321 2.385-.872 3.532-1.33.688-.276.826.275.688.78-.23.963-.596 1.88-.917 2.843-.092.23-.23.413-.459.413H82.36z"/>
    <path fill="#FEFEFE" d="M79.7 54.402c.276 1.605-.504 2.981-1.559 4.174-1.147 1.238-2.798 1.88-4.311 1.834-2.798-.137-6.147-2.476-6.055-6.192.092-3.623 3.073-6.054 6.146-6.054 2.66 0 6.055 2.064 5.78 6.238z"/>
    <path fill="#E1EBF3" d="M71.937 91.606c0-2.21 1.79-4 4-4h27.317c2.209 0 4 1.79 4 4v20.767H71.937V91.606z"/>
    <path fill="#FEFEFE" d="M96.762 91.967c1.147-.917 2.34-.825 3.486-.734.78.092 1.33-.55 2.064-.504.642.046.826.092.459.78-.872 1.467-1.606 2.981-2.477 4.403-.367.642-.78.32-1.01-.184-.458-1.009-1.008-1.1-1.925-.458-1.881 1.284-3.99 2.247-5.871 3.577-.322.23-.734.184-1.101 0-.23-.137-.505-.229-.688-.367-1.56-1.284-2.844-.458-4.22.413-1.835 1.193-3.761 2.202-5.596 3.348-.596.367-.871.138-1.055-.321-.183-.367-.275-.825.322-1.146 2.614-1.514 5.228-3.12 7.843-4.679.412-.229.871-.55 1.33-.091 1.422 1.376 2.935 1.238 4.449.137 1.422-1.009 2.935-1.835 4.403-2.706.275-.138.367-.275.184-.505-.23-.275-.184-.733-.597-.963z"/>
    <path fill="#fff" d="M78.817 105.035H81.56899999999999V109.622H78.817zM83.403 103.66H86.155V109.62299999999999H83.403zM87.99 102.285H90.74199999999999V109.624H87.99zM92.577 101.367H95.329V109.623H92.577zM97.164 99.992H99.916V109.62400000000001H97.164z"/>
    <path fill="#DADADA" d="M31.941 97.318l3.446 6.507 1.61 3.041c.524.992 1.946.992 2.47 0l1.61-3.041 3.446-6.507H31.941z"/>
    <path fill="#3A556A" d="M41.077 103.825l-1.61 3.041c-.524.992-1.945.992-2.47 0l-1.61-3.041h5.69z"/>
    <path fill="#A4CEF4" d="M38.232 97.323v-52.42h-6.29v52.42h6.29z"/>
    <path fill="#6FB7F8" d="M44.522 97.323v-52.42h-6.29v52.42h6.29z"/>
    <path fill="#127CDD" d="M44.523 44.895H31.94v-6.278c0-.797.646-1.443 1.442-1.443h9.697c.797 0 1.443.646 1.443 1.443v6.278z"/>
    <path fill="#EBF0F3" d="M44.522 50.23v-2.097H31.94v2.097h12.582zM44.52 54.421v-2.097H31.938v2.097H44.52z"/>
    <path fill="#8AE5F9" d="M146.501 45.156c-2.848-8.645-7.882-3.602-10.043 0 0 1.525-2.161 7.5-3.814 13.983-1.652 6.484.509 10.297 4.45 14.365 3.152 3.255 1.822 5.424.762 6.102-4.983.916-5.805 2.33-5.593 2.924-3.432 7.882 10.424 11.568 11.822 11.568 1.399 0 15.128-4.703 9.153-11.568-4.78-5.492-1.144-11.78 1.272-14.238 1.271-1.567 2.517-5.517-2.67-8.771-5.187-3.255-5.721-10.933-5.339-14.365z"/>
    <path stroke="#1AB5D7" d="M143.577 86.981c-.339-.847-1.449-2.745-3.178-3.56M143.449 71.852c.339-.847 2.848-4.144 4.577-4.958"/>
    <path fill="#8390D8" d="M137.348 103.123v-2.924h12.585v2.924c-.212 1.229-1.831 3.687-6.611 3.687-4.779 0-5.974-2.458-5.974-3.687zM137.348 98.547H149.93300000000002V99.564H137.348z"/>
    <path stroke="#1AB5D7" d="M143.204 98.547L143.204 61.935"/>
</svg>
