<svg width="34" height="34" viewBox="0 0 34 34" fill="none" xmlns="http://www.w3.org/2000/svg">
<circle cx="17" cy="17" r="17" fill="#043B73"/>
<path d="M20.7442 12.9489V11.9423C20.7442 11.8501 20.6677 11.7746 20.574 11.7746H12.4041C12.3105 11.7746 12.2339 11.8501 12.2339 11.9423V12.9489C12.2339 13.0412 12.3105 13.1166 12.4041 13.1166H20.574C20.6677 13.1166 20.7442 13.0412 20.7442 12.9489ZM12.4041 14.7942C12.3105 14.7942 12.2339 14.8697 12.2339 14.962V15.9685C12.2339 16.0608 12.3105 16.1363 12.4041 16.1363H16.3189C16.4125 16.1363 16.4891 16.0608 16.4891 15.9685V14.962C16.4891 14.8697 16.4125 14.7942 16.3189 14.7942H12.4041ZM15.4678 24.2726H10.5319V9.50983H22.4463V16.7235C22.4463 16.8157 22.5229 16.8912 22.6165 16.8912H23.808C23.9016 16.8912 23.9782 16.8157 23.9782 16.7235V8.67104C23.9782 8.29987 23.6739 8 23.2973 8H9.68083C9.30424 8 9 8.29987 9 8.67104V25.1114C9 25.4826 9.30424 25.7824 9.68083 25.7824H15.4678C15.5615 25.7824 15.6381 25.707 15.6381 25.6147V24.4404C15.6381 24.3481 15.5615 24.2726 15.4678 24.2726ZM24.9505 25.3526L22.9654 23.3961C23.4399 22.7775 23.7229 22.0058 23.7229 21.1691C23.7229 19.1308 22.0463 17.4784 19.9783 17.4784C17.9103 17.4784 16.2338 19.1308 16.2338 21.1691C16.2338 23.2073 17.9103 24.8598 19.9783 24.8598C20.74 24.8598 21.4463 24.6354 22.0378 24.2516L24.0526 26.2375C24.0867 26.271 24.1292 26.2857 24.1718 26.2857C24.2143 26.2857 24.259 26.2689 24.2909 26.2375L24.9505 25.5874C24.9662 25.572 24.9786 25.5537 24.9871 25.5336C24.9956 25.5134 25 25.4918 25 25.47C25 25.4482 24.9956 25.4266 24.9871 25.4064C24.9786 25.3863 24.9662 25.368 24.9505 25.3526ZM19.9783 23.5177C18.6613 23.5177 17.5954 22.4671 17.5954 21.1691C17.5954 19.871 18.6613 18.8204 19.9783 18.8204C21.2953 18.8204 22.3612 19.871 22.3612 21.1691C22.3612 22.4671 21.2953 23.5177 19.9783 23.5177Z" fill="#FFFBFB"/>
</svg>
