<svg width="30" height="30" viewBox="0 0 26 26" fill="none" xmlns="http://www.w3.org/2000/svg">
<path d="M26 13C26 20.1797 20.1797 26 13 26C5.8203 26 0 20.1797 0 13C0 5.8203 5.8203 0 13 0C20.1797 0 26 5.8203 26 13Z" fill="#043B72" fill-opacity="0.1"/>
<g clip-path="url(#clip0_1603_597)">
<path d="M17.9493 14.9133C18.0213 14.9752 18.0925 15.0289 18.1551 15.0913C19.0357 15.9699 19.9143 16.8503 20.7954 17.7283C20.9335 17.8659 21.0159 18.022 20.9869 18.219C20.9562 18.428 20.8403 18.5788 20.6392 18.6487C20.4182 18.7255 20.2253 18.6672 20.0611 18.5029C19.1543 17.5956 18.2468 16.6891 17.341 15.7809C17.2985 15.7383 17.2696 15.682 17.2333 15.6307C16.1772 16.4164 15.0386 16.7178 13.7803 16.4733C12.7128 16.2658 11.8437 15.7183 11.1896 14.8485C9.88161 13.1093 10.0942 10.6738 11.6757 9.18425C13.2475 7.70393 15.6837 7.63192 17.335 9.01312C18.9894 10.3969 19.4546 12.9305 17.9493 14.9133ZM14.6003 15.4888C16.3686 15.4838 17.8049 14.0474 17.7994 12.2893C17.7938 10.5046 16.3615 9.08693 14.5672 9.08982C12.8253 9.09265 11.399 10.5412 11.4009 12.3055C11.4028 14.0535 12.8504 15.4937 14.6003 15.4888Z" fill="#F58220"/>
<path d="M13.0015 6.95598C10.5518 6.95598 8.10212 6.95604 5.65247 6.95563C5.58045 6.95563 5.50672 6.95901 5.43664 6.9459C5.16838 6.89569 4.98077 6.64592 5.00304 6.37719C5.02484 6.11418 5.24012 5.90663 5.5092 5.89048C5.55348 5.88779 5.59804 5.88938 5.64246 5.88938C10.5474 5.88931 15.4523 5.88931 20.3572 5.88959C20.4237 5.88959 20.4915 5.88621 20.5566 5.89718C20.8241 5.94236 21.0171 6.1904 20.9989 6.4592C20.9812 6.72152 20.7671 6.93501 20.5004 6.95425C20.4452 6.95825 20.3894 6.95591 20.3339 6.95591C17.8897 6.95598 15.4456 6.95598 13.0015 6.95598Z" fill="#F58220"/>
<path d="M11.384 19.7553C9.45099 19.7553 7.5179 19.7559 5.58489 19.7548C5.17068 19.7546 4.90263 19.4094 5.03334 19.0467C5.11039 18.8327 5.26911 18.717 5.49321 18.691C5.5426 18.6853 5.59309 18.6888 5.6431 18.6888C9.48141 18.6887 13.3197 18.6886 17.158 18.6891C17.23 18.6891 17.3038 18.6865 17.3736 18.7006C17.6353 18.7536 17.8172 18.9964 17.799 19.2593C17.781 19.5215 17.5666 19.7347 17.2998 19.7536C17.2445 19.7575 17.1887 19.7552 17.1332 19.7552C15.2168 19.7553 13.3004 19.7553 11.384 19.7553Z" fill="#F58220"/>
<path d="M7.15123 9.08921C7.66214 9.08921 8.17313 9.08824 8.68404 9.08955C9.0241 9.09045 9.2649 9.31056 9.2669 9.61868C9.2689 9.92777 9.02865 10.1548 8.69156 10.1553C7.65304 10.1566 6.61445 10.1567 5.57593 10.1553C5.2396 10.1548 4.99907 9.92646 5.00176 9.61744C5.00445 9.30807 5.24325 9.09045 5.5851 9.08955C6.10712 9.08824 6.62921 9.08921 7.15123 9.08921Z" fill="#F58220"/>
<path d="M7.14248 12.2891C7.65339 12.2891 8.16438 12.2883 8.67529 12.2894C9.02638 12.2901 9.26925 12.5117 9.26684 12.8265C9.26449 13.1347 9.02418 13.3549 8.68357 13.3553C7.65056 13.3564 6.61756 13.3564 5.58456 13.3553C5.24443 13.3549 5.00363 13.134 5.00163 12.8261C4.99956 12.5101 5.24057 12.2901 5.5929 12.2894C6.10954 12.2884 6.62598 12.2891 7.14248 12.2891Z" fill="#F58220"/>
<path d="M7.14103 16.5555C6.62453 16.5555 6.10803 16.5564 5.59153 16.5552C5.24119 16.5544 4.99839 16.331 5.00177 16.0161C5.00502 15.7068 5.24381 15.4896 5.58622 15.4893C6.61922 15.4883 7.65222 15.4882 8.68523 15.4893C9.0248 15.4896 9.26553 15.7112 9.26698 16.0194C9.26843 16.3284 9.02811 16.5539 8.69061 16.555C8.17404 16.5568 7.65754 16.5555 7.14103 16.5555Z" fill="#F58220"/>
</g>
<defs>
<clipPath id="clip0_1603_597">
<rect width="16" height="16" fill="white" transform="translate(5 5)"/>
</clipPath>
</defs>
</svg>
