<svg width="20" height="20" viewBox="0 0 16 19" fill="none" xmlns="http://www.w3.org/2000/svg">
    <path d="M11.744 4.949V3.942a.17.17 0 0 0-.17-.167h-8.17a.17.17 0 0 0-.17.167V4.95a.17.17 0 0 0 .17.168h8.17a.17.17 0 0 0 .17-.168zm-8.34 1.845a.17.17 0 0 0-.17.168v1.007a.17.17 0 0 0 .17.167H7.32a.17.17 0 0 0 .17-.167V6.962a.17.17 0 0 0-.17-.168H3.404zm3.064 9.479H1.532V1.51h11.914v7.213a.17.17 0 0 0 .17.168h1.192a.17.17 0 0 0 .17-.168V.671a.675.675 0 0 0-.68-.671H.68C.304 0 0 .3 0 .671v16.44c0 .372.304.671.68.671h5.788a.17.17 0 0 0 .17-.167V16.44a.17.17 0 0 0-.17-.167zm9.482 1.08-1.985-1.957c.475-.619.758-1.39.758-2.227 0-2.038-1.677-3.69-3.745-3.69s-3.744 1.652-3.744 3.69c0 2.038 1.676 3.69 3.744 3.69a3.77 3.77 0 0 0 2.06-.607l2.015 1.986a.173.173 0 0 0 .238 0l.66-.65a.166.166 0 0 0 .036-.182.166.166 0 0 0-.037-.053zm-4.972-1.835c-1.317 0-2.383-1.05-2.383-2.349 0-1.298 1.066-2.349 2.383-2.349s2.383 1.051 2.383 2.35c0 1.297-1.066 2.348-2.383 2.348z" fill="#FFFBFB"/>
</svg>
