<svg width="28" height="28" viewBox="0 0 28 28" fill="none" xmlns="http://www.w3.org/2000/svg">
<path d="M21.5951 18.411C21.0749 17.6346 20.3629 16.5715 20.3629 13.5455V12.1818C20.3629 9.30489 18.4424 6.87088 15.8174 6.08624V5.8182C15.8174 4.81541 15.0016 4 13.9992 4C12.9969 4 12.1811 4.81541 12.1811 5.8182V6.08624C9.55609 6.87088 7.63558 9.30489 7.63558 12.1818V13.5455C7.63558 16.5715 6.92359 17.6346 6.40332 18.411C6.10234 18.8606 5.81738 19.2854 5.81738 19.9091C5.81738 21.391 8.90666 21.911 11.4113 22.0901C11.7625 23.2144 12.7934 24 13.9992 24C15.205 24 16.2359 23.2144 16.5871 22.0901C19.0918 21.911 22.181 21.391 22.181 19.9091C22.1811 19.2854 21.8961 18.8606 21.5951 18.411ZM13.0901 5.8182C13.0901 5.31706 13.4976 4.90912 13.9992 4.90912C14.5008 4.90912 14.9083 5.31702 14.9083 5.8182V5.89081C14.6106 5.84794 14.3087 5.8182 13.9992 5.8182C13.6898 5.8182 13.3879 5.84794 13.0902 5.89081V5.8182H13.0901ZM13.9992 23.0909C13.3198 23.0909 12.7231 22.716 12.4131 22.1472C13.0572 22.1743 13.6165 22.1818 13.9992 22.1818C14.382 22.1818 14.9413 22.1743 15.5855 22.1472C15.2754 22.716 14.6787 23.0909 13.9992 23.0909ZM13.9992 21.2727C9.83641 21.2727 6.7265 20.5527 6.7265 19.9091C6.7265 19.5766 6.86679 19.3524 7.15886 18.917C7.71015 18.0931 8.5447 16.848 8.5447 13.5455V12.1818C8.5447 9.17402 10.9914 6.72727 13.9992 6.72727C17.0071 6.72727 19.4538 9.17402 19.4538 12.1818V13.5455C19.4538 16.848 20.2883 18.0931 20.8396 18.917C21.1317 19.3525 21.272 19.5766 21.272 19.9091C21.272 20.5528 18.1621 21.2727 13.9992 21.2727Z" fill="#F58220"/>
<circle cx="14" cy="14" r="13.5" fill="#F58220" fill-opacity="0.1" stroke="#F58220"/>
</svg>
