<svg width="20" height="20" viewBox="0 0 20 20" fill="none" xmlns="http://www.w3.org/2000/svg">
<path d="M10 20C15.5228 20 20 15.5228 20 10C20 4.47715 15.5228 0 10 0C4.47715 0 0 4.47715 0 10C0 15.5228 4.47715 20 10 20Z" fill="#97144D"/>
<path d="M8.18322 15.1601C6.40152 15.1498 4.92773 11.5128 4.92773 9.66052C4.92773 6.63485 7.1975 5.97245 8.07226 5.97245C8.46647 5.97245 8.88741 6.12726 9.25868 6.26425C9.51831 6.35981 9.78683 6.45846 9.93617 6.45846C10.0256 6.45846 10.2362 6.37454 10.4222 6.30092C10.8188 6.14302 11.3123 5.94678 11.8871 5.94678C11.8881 5.94678 11.8895 5.94678 11.8905 5.94678C12.3196 5.94678 13.6208 6.04096 14.4031 7.21574L14.5863 7.49111L14.3226 7.69011C13.9459 7.97438 13.2584 8.49294 13.2584 9.52012C13.2584 10.7367 14.0369 11.2045 14.411 11.4296C14.5761 11.5289 14.747 11.6313 14.747 11.8553C14.747 12.0016 13.5797 15.142 11.8846 15.142C11.4699 15.142 11.1767 15.0173 10.9181 14.9074C10.6564 14.796 10.4307 14.7001 10.0577 14.7001C9.86866 14.7001 9.62959 14.7895 9.37648 14.8844C9.0306 15.0135 8.6391 15.1601 8.19487 15.1601H8.18322Z" fill="white"/>
<path d="M12.0669 3.18848C12.1111 4.7802 10.9727 5.88447 9.83573 5.81521C9.64837 4.54496 10.9726 3.18848 12.0669 3.18848Z" fill="white"/>
</svg>
