<svg width="12" height="17" viewBox="0 0 18 21" fill="none" xmlns="http://www.w3.org/2000/svg">
<path d="M9.50184 20.287L0.300345 11.1128C0.191129 11.0036 0.113949 10.8853 0.0688062 10.7578C0.0229352 10.6304 0 10.4939 0 10.3483C0 10.2027 0.0229352 10.0661 0.0688062 9.93871C0.113949 9.81129 0.191129 9.69297 0.300345 9.58376L9.50184 0.382258C9.75668 0.127419 10.0752 0 10.4575 0C10.8397 0 11.1674 0.136521 11.4404 0.409562C11.7135 0.682604 11.85 1.00115 11.85 1.36521C11.85 1.72926 11.7135 2.04781 11.4404 2.32085L3.41302 10.3483L11.4404 18.3757C11.6953 18.6305 11.8227 18.9443 11.8227 19.3171C11.8227 19.6907 11.6862 20.0139 11.4131 20.287C11.1401 20.56 10.8215 20.6965 10.4575 20.6965C10.0934 20.6965 9.77489 20.56 9.50184 20.287Z" fill="#999"/>
</svg>
