<svg width="191" height="191" viewBox="0 0 191 191" fill="none" xmlns="http://www.w3.org/2000/svg">
<path d="M169.735 78.6283H21.2646C19.8495 78.5862 18.4812 78.1122 17.3432 77.2701C16.2052 76.428 15.3519 75.2579 14.898 73.917C14.397 72.5233 14.3423 71.0082 14.7416 69.582C15.141 68.1559 15.9744 66.8895 17.1263 65.9586L91.0433 6.68496C92.303 5.66132 93.8768 5.10254 95.5 5.10254C97.1232 5.10254 98.6969 5.66132 99.9566 6.68496L174.192 65.9586C175.344 66.8895 176.177 68.1559 176.577 69.582C176.976 71.0082 176.921 72.5233 176.42 73.917C175.949 75.309 175.047 76.5153 173.846 77.362C172.644 78.2087 171.205 78.6521 169.735 78.6283ZM95.0543 11.651L20.819 70.9883C20.7203 71.1036 20.6661 71.2504 20.6661 71.4021C20.6661 71.5539 20.7203 71.7006 20.819 71.8159C20.8729 71.9552 20.97 72.0736 21.096 72.1537C21.222 72.2339 21.3703 72.2717 21.5193 72.2616H169.735C169.884 72.2717 170.033 72.2339 170.159 72.1537C170.285 72.0736 170.382 71.9552 170.436 71.8159C170.534 71.7006 170.588 71.5539 170.588 71.4021C170.588 71.2504 170.534 71.1036 170.436 70.9883L95.9456 11.651C95.8158 11.5577 95.6599 11.5075 95.5 11.5075C95.3401 11.5075 95.1842 11.5577 95.0543 11.651Z" fill="#1A4071"/>
<path d="M171.9 185.843H19.1C18.5231 185.843 17.9519 185.729 17.4189 185.509C16.8859 185.288 16.4016 184.964 15.9937 184.556C15.5858 184.148 15.2622 183.664 15.0414 183.131C14.8207 182.598 14.707 182.027 14.707 181.45V166.616C14.707 166.039 14.8207 165.468 15.0414 164.935C15.2622 164.402 15.5858 163.917 15.9937 163.509C16.4016 163.101 16.8859 162.778 17.4189 162.557C17.9519 162.336 18.5231 162.223 19.1 162.223H171.9C172.477 162.223 173.048 162.336 173.581 162.557C174.114 162.778 174.598 163.101 175.006 163.509C175.414 163.917 175.738 164.402 175.959 164.935C176.179 165.468 176.293 166.039 176.293 166.616V181.45C176.293 182.027 176.179 182.598 175.959 183.131C175.738 183.664 175.414 184.148 175.006 184.556C174.598 184.964 174.114 185.288 173.581 185.509C173.048 185.729 172.477 185.843 171.9 185.843ZM21.4557 179.476H169.735V168.589H21.2647L21.4557 179.476Z" fill="#1A4071"/>
<path d="M43.9939 153.819H29.1596C27.9887 153.802 26.8714 153.325 26.0493 152.491C25.2273 151.657 24.7665 150.533 24.7666 149.362V91.4889C24.7666 90.3238 25.2294 89.2065 26.0533 88.3826C26.8771 87.5588 27.9945 87.0959 29.1596 87.0959H43.9939C45.159 87.0959 46.2764 87.5588 47.1003 88.3826C47.9241 89.2065 48.3869 90.3238 48.3869 91.4889V149.362C48.3871 150.533 47.9263 151.657 47.1042 152.491C46.2821 153.325 45.1648 153.802 43.9939 153.819ZM31.2606 147.452H42.0203V93.4626H31.1333L31.2606 147.452Z" fill="#1A4071"/>
<path d="M83.4676 153.819H68.6969C67.52 153.802 66.396 153.327 65.5638 152.495C64.7315 151.663 64.2567 150.539 64.2402 149.362V91.489C64.257 90.3181 64.7339 89.2008 65.5679 88.3788C66.4018 87.5567 67.5259 87.0959 68.6969 87.096H83.4676C84.0498 87.0876 84.6279 87.195 85.1683 87.412C85.7086 87.629 86.2004 87.9512 86.6151 88.36C87.0298 88.7688 87.3591 89.2559 87.5838 89.7931C87.8086 90.3302 87.9243 90.9067 87.9242 91.489V149.362C87.9242 150.544 87.4547 151.678 86.6189 152.513C85.7831 153.349 84.6495 153.819 83.4676 153.819ZM70.7342 147.452H81.6849V93.4627H70.6069L70.7342 147.452Z" fill="#1A4071"/>
<path d="M123.004 153.819H108.233C107.062 153.802 105.945 153.325 105.123 152.491C104.301 151.657 103.84 150.533 103.84 149.362V91.4889C103.84 90.3238 104.303 89.2065 105.127 88.3826C105.95 87.5588 107.068 87.0959 108.233 87.0959H123.067C124.232 87.0959 125.35 87.5588 126.173 88.3826C126.997 89.2065 127.46 90.3238 127.46 91.4889V149.362C127.46 150.544 126.991 151.677 126.155 152.513C125.319 153.349 124.185 153.819 123.004 153.819ZM110.27 147.452H120.966V93.4626H110.143L110.27 147.452Z" fill="#1A4071"/>
<path d="M162.541 153.819H147.706C146.536 153.802 145.418 153.325 144.596 152.491C143.774 151.657 143.313 150.533 143.313 149.362V91.4889C143.313 90.3238 143.776 89.2065 144.6 88.3826C145.424 87.5588 146.541 87.0959 147.706 87.0959H162.541C163.706 87.0959 164.823 87.5588 165.647 88.3826C166.471 89.2065 166.934 90.3238 166.934 91.4889V149.362C166.934 150.533 166.473 151.657 165.651 152.491C164.829 153.325 163.712 153.802 162.541 153.819ZM149.807 147.452H160.694V93.4626H149.68L149.807 147.452Z" fill="#1A4071"/>
</svg>
