<svg width="26" height="26" viewBox="0 0 72 72" fill="none" xmlns="http://www.w3.org/2000/svg">
<path d="M72 36C72 55.8823 55.8823 72 36 72C16.1177 72 0 55.8823 0 36C0 16.1177 16.1177 0 36 0C55.8823 0 72 16.1177 72 36Z" fill="#043B73"/>
<path d="M46.5 37.3125L49.0095 42.1727L54.375 42.9523L50.4375 46.5L51.4494 51.75L46.5 48.7969L41.5506 51.75L42.5625 46.5L38.625 42.9523L44.1375 42.1727L46.5 37.3125ZM22.875 36H30.75V38.625H22.875V36ZM22.875 30.75H36V33.375H22.875V30.75ZM22.875 25.5H36V28.125H22.875V25.5Z" fill="white"/>
<path d="M36 49.125H20.25V22.875H51.75V36H54.375V22.875C54.375 22.1788 54.0984 21.5111 53.6062 21.0188C53.1139 20.5266 52.4462 20.25 51.75 20.25H20.25C19.5538 20.25 18.8861 20.5266 18.3938 21.0188C17.9016 21.5111 17.625 22.1788 17.625 22.875V49.125C17.625 49.8212 17.9016 50.4889 18.3938 50.9812C18.8861 51.4734 19.5538 51.75 20.25 51.75H36V49.125Z" fill="white"/>
</svg>
