<svg width="26" height="26" viewBox="0 0 26 26" fill="none" xmlns="http://www.w3.org/2000/svg">
<path d="M26 13C26 20.1797 20.1797 26 13 26C5.8203 26 0 20.1797 0 13C0 5.8203 5.8203 0 13 0C20.1797 0 26 5.8203 26 13Z" fill="#999999" fill-opacity="0.1"/>
<path d="M4.59967 12.3788C4.59967 12.1195 4.60026 11.8774 4.59952 11.6353C4.59833 11.2541 4.67293 11.1797 5.06065 11.1781C5.09791 11.178 5.1351 11.1781 5.18635 11.1781C5.18635 9.7821 5.18635 8.39253 5.18635 6.97783C4.92082 6.97783 4.65463 6.97872 4.38837 6.9776C4.10544 6.97641 4.00287 6.87519 4.00064 6.5962C3.99953 6.45876 4.00012 6.32124 4.0005 6.18379C4.00124 5.91946 4.03917 5.86063 4.2835 5.76275C5.45886 5.29202 6.63474 4.82234 7.81026 4.35206C8.0824 4.24317 8.35052 4.12253 8.62787 4.02897C8.73051 3.99431 8.86773 3.98754 8.96613 4.02637C10.4287 4.603 11.8867 5.19087 13.3476 5.7716C13.5313 5.84456 13.6121 5.96341 13.6011 6.15813C13.5937 6.28896 13.5999 6.42053 13.5997 6.55173C13.5991 6.89163 13.511 6.97753 13.1629 6.97783C12.9148 6.97805 12.6666 6.9779 12.4093 6.9779C12.4093 8.38309 12.4093 9.76789 12.4093 11.179C12.4945 11.179 12.5792 11.1769 12.6637 11.1794C12.8852 11.1858 12.9958 11.2945 12.9987 11.5171C13.0024 11.7971 12.9996 12.0771 12.9996 12.3789C13.1054 12.3789 13.197 12.3754 13.2883 12.3796C13.4774 12.3883 13.5957 12.4978 13.5983 12.6843C13.6037 13.0779 13.6036 13.4717 13.5975 13.8653C13.5943 14.074 13.4705 14.1775 13.2381 14.178C12.5757 14.1797 11.9133 14.1786 11.2509 14.1786C8.98242 14.1786 6.71395 14.1787 4.44549 14.1785C4.08506 14.1785 4.00079 14.0958 4.0005 13.7419C4.00027 13.4295 4.0002 13.117 4.0005 12.8046C4.00087 12.4697 4.08796 12.3813 4.41864 12.3789C4.47323 12.3785 4.52775 12.3788 4.59967 12.3788ZM5.20464 12.3789C5.29568 12.3789 5.36939 12.3789 5.44309 12.3789C7.01138 12.3786 8.57975 12.3782 10.148 12.378C10.2105 12.378 10.274 12.3731 10.3352 12.3823C10.5022 12.4073 10.5909 12.5147 10.592 12.6774C10.593 12.8411 10.5025 12.9472 10.3368 12.9739C10.2757 12.9838 10.2122 12.9786 10.1497 12.9786C8.37514 12.9788 6.60068 12.9788 4.82614 12.9788C4.754 12.9788 4.68193 12.9788 4.60971 12.9788C4.60971 13.1908 4.60971 13.3758 4.60971 13.5676C7.40773 13.5676 10.1966 13.5676 12.9853 13.5676C12.9853 13.3669 12.9853 13.1776 12.9853 12.9787C12.5028 12.9787 12.0346 12.9844 11.5667 12.9741C11.4695 12.9719 11.3389 12.9379 11.2865 12.87C11.2297 12.7965 11.2035 12.645 11.2424 12.5664C11.2848 12.4808 11.4138 12.3955 11.5113 12.3877C11.801 12.3645 12.0937 12.3794 12.3868 12.3794C12.3868 12.1676 12.3868 11.9783 12.3868 11.7939C9.98464 11.7939 7.59576 11.7939 5.20472 11.7939C5.20464 11.9896 5.20464 12.1702 5.20464 12.3789ZM12.9882 6.36772C12.9953 6.35478 13.0024 6.34191 13.0094 6.32897C12.962 6.29602 12.9188 6.25266 12.8666 6.23169C11.5532 5.70384 10.2394 5.17704 8.92337 4.65611C8.85174 4.62777 8.7494 4.62725 8.67793 4.65551C7.35582 5.17838 6.03609 5.70719 4.71681 6.23712C4.66966 6.25608 4.63217 6.29885 4.59015 6.33061C4.59669 6.34303 4.60324 6.35538 4.60978 6.3678C7.4026 6.36772 10.1954 6.36772 12.9882 6.36772ZM7.01235 6.98653C7.01235 8.39052 7.01235 9.77912 7.01235 11.1633C7.31469 11.1633 7.60401 11.1633 7.89036 11.1633C7.89036 9.76343 7.89036 8.37929 7.89036 6.98653C7.59575 6.98653 7.31089 6.98653 7.01235 6.98653ZM9.71532 6.98564C9.71532 8.39566 9.71532 9.78426 9.71532 11.168C10.0156 11.168 10.3005 11.168 10.5879 11.168C10.5879 9.76834 10.5879 8.37959 10.5879 6.98564C10.2912 6.98564 10.0064 6.98564 9.71532 6.98564ZM6.39235 6.98951C6.18581 6.98951 6.00106 6.98951 5.81282 6.98951C5.81282 8.38941 5.81282 9.77778 5.81282 11.1647C6.01445 11.1647 6.20388 11.1647 6.39235 11.1647C6.39235 9.76633 6.39235 8.38234 6.39235 6.98951ZM9.08707 11.17C9.08707 9.7673 9.08707 8.37914 9.08707 6.99456C8.88461 6.99456 8.69548 6.99456 8.50969 6.99456C8.50969 8.39387 8.50969 9.77756 8.50969 11.17C8.70388 11.17 8.88878 11.17 9.08707 11.17ZM11.2139 6.98564C11.2139 8.39224 11.2139 9.78039 11.2139 11.1679C11.4128 11.1679 11.5976 11.1679 11.7891 11.1679C11.7891 9.76975 11.7891 8.38153 11.7891 6.98564C11.5936 6.98564 11.4088 6.98564 11.2139 6.98564Z" fill="#999999"/>
<path d="M15.4001 20.1778C16.6183 20.1778 17.8054 20.1777 18.9926 20.1778C19.4737 20.1778 19.9549 20.1771 20.436 20.1787C20.6726 20.1795 20.8026 20.2929 20.7969 20.4868C20.7915 20.6731 20.6665 20.7774 20.4367 20.7776C18.8308 20.7788 17.2248 20.7788 15.6189 20.7791C15.5519 20.7791 15.4849 20.7791 15.4031 20.7791C15.4031 20.903 15.3931 21.0087 15.4054 21.1118C15.4239 21.2666 15.5194 21.357 15.6762 21.3755C15.7194 21.3806 15.7636 21.3779 15.8073 21.3779C17.532 21.378 19.2567 21.3782 20.9814 21.3779C21.3043 21.3779 21.3989 21.286 21.3989 20.971C21.3992 18.5714 21.3991 16.1719 21.3991 13.7723C21.3991 13.7167 21.3991 13.6611 21.3991 13.5787C21.3176 13.5787 21.2455 13.5787 21.1734 13.5787C19.1925 13.5787 17.2116 13.5787 15.2307 13.5786C14.8885 13.5786 14.8005 13.4895 14.8001 13.1453C14.7999 12.9892 14.7974 12.8328 14.8009 12.6767C14.8121 12.1742 15.1958 11.7817 15.6955 11.7805C17.4952 11.7762 19.2949 11.7762 21.0946 11.7793C21.6034 11.7802 21.997 12.1756 21.9976 12.6863C22.0005 15.4796 22.0007 18.2728 21.9984 21.066C21.9979 21.5841 21.6011 21.9767 21.0792 21.9775C19.292 21.9802 17.5048 21.9799 15.7176 21.9768C15.1951 21.9759 14.801 21.584 14.8004 21.0642C14.7978 18.8895 14.7988 16.7149 14.7994 14.5403C14.7995 14.2941 14.9002 14.1745 15.0998 14.1743C15.3 14.174 15.3994 14.2924 15.3995 14.54C15.4001 16.3396 15.3998 18.1393 15.3998 19.939C15.4001 20.0125 15.4001 20.0858 15.4001 20.1778ZM15.4001 12.966C17.4126 12.966 19.401 12.966 21.3991 12.966C21.3991 12.9102 21.3988 12.867 21.3991 12.824C21.4017 12.4627 21.3206 12.3791 20.966 12.3789C20.6412 12.3788 20.3165 12.3792 19.9918 12.3792C18.5867 12.3791 17.1816 12.3785 15.7765 12.3793C15.502 12.3794 15.4032 12.4789 15.4002 12.7494C15.3994 12.8173 15.4001 12.8854 15.4001 12.966Z" fill="#999999"/>
<path d="M18.1441 18.8008L17.1645 17.0999V16.6991H17.491C17.6833 16.6991 17.8448 16.6576 17.9754 16.5745C18.106 16.4878 18.1895 16.3687 18.2257 16.217H17.1645V15.8162H18.2203C18.1876 15.6789 18.1205 15.5652 18.0189 15.4749C17.9173 15.381 17.7759 15.3341 17.5944 15.3341H17.1645V14.9332H19.6189V15.3341H18.7645C18.8915 15.4713 18.9713 15.632 19.004 15.8162H19.6189V16.217H19.0148C18.9786 16.4842 18.8752 16.6937 18.7046 16.8453C18.5341 16.9934 18.3146 17.0945 18.0461 17.1487L19.1128 18.8008H18.1441Z" fill="#999999"/>
<path d="M10.2305 20.7781C9.28714 20.7781 8.34383 20.779 7.40045 20.7779C6.43542 20.7769 5.80188 20.1459 5.80107 19.1848C5.8001 18.054 5.80077 16.9232 5.80092 15.7924C5.80092 15.7424 5.79772 15.6918 5.80456 15.6427C5.82732 15.4795 5.95651 15.3677 6.11441 15.3788C6.28124 15.3906 6.378 15.4879 6.39667 15.6508C6.40864 15.7558 6.4015 15.8629 6.4015 15.9691C6.40143 17.0312 6.40009 18.0932 6.40106 19.1553C6.40165 19.8346 6.74839 20.178 7.4305 20.1781C9.36092 20.1783 11.2914 20.1761 13.2218 20.1836C13.3325 20.184 13.4754 20.2352 13.5434 20.3143C13.598 20.378 13.6001 20.5411 13.5554 20.6206C13.5113 20.6989 13.3805 20.7672 13.2852 20.7708C12.8547 20.7869 12.4234 20.7789 11.9923 20.779C11.405 20.7793 10.8177 20.7791 10.2305 20.7791C10.2305 20.7788 10.2305 20.7784 10.2305 20.7781Z" fill="#999999"/>
<path d="M16.9606 5.17945C17.5226 5.17945 18.0845 5.17752 18.6465 5.1799C19.5491 5.18362 20.1958 5.82504 20.1982 6.72417C20.2014 7.89172 20.1998 9.05935 20.1985 10.2269C20.1982 10.484 20.0506 10.6248 19.8321 10.5762C19.6455 10.5348 19.5976 10.3977 19.5979 10.2233C19.6001 9.11818 19.5994 8.01303 19.5985 6.90787C19.5985 6.78322 19.6046 6.65634 19.5848 6.53421C19.5112 6.08022 19.153 5.7819 18.6762 5.78056C17.5024 5.77729 16.3285 5.77967 15.1547 5.77907C14.9303 5.77892 14.8192 5.7015 14.7953 5.53408C14.7645 5.31906 14.896 5.18124 15.1436 5.1802C15.7494 5.17789 16.355 5.17945 16.9606 5.17945Z" fill="#999999"/>
</svg>
