<svg width="236" height="141" viewBox="0 0 236 141" fill="none" xmlns="http://www.w3.org/2000/svg">
<path d="M217.445 99.068C222.638 99.5834 227.831 100.257 232.509 102.834C233.421 103.349 234.293 103.746 234.848 104.697C235.363 105.649 235.324 106.6 234.491 107.314C233.579 108.107 233.342 109.137 233.976 110.009C235.522 112.111 235.165 114.172 233.976 116.233C233.5 117.106 232.906 117.898 232.271 118.652C231.161 119.92 230.646 121.625 230.765 123.211C231.042 126.541 229.893 129.553 229.179 132.685C228.822 134.35 227.276 135.222 225.849 135.857C223.669 136.848 221.29 137.363 218.912 137.878C216.256 138.473 213.52 138.83 210.824 139.187C208.961 139.425 207.019 139.543 205.116 139.702C201.191 140.059 197.267 140.098 193.342 140.376C192.232 140.455 191.082 140.495 189.972 140.535C185.77 140.733 181.528 140.614 177.326 140.772C167.376 141.129 157.386 140.852 147.435 140.931C139.19 141.01 130.944 141.05 122.698 140.891C118.298 140.812 113.897 140.772 109.537 140.693C104.581 140.614 99.626 140.455 94.6706 140.495C89.2396 140.535 83.8085 140.336 78.417 140.217C75.087 140.138 71.757 140.257 68.427 140.059C62.322 139.702 56.217 139.821 50.112 139.623C44.1259 139.425 38.1398 139.464 32.1934 139.543C29.5769 139.583 27.0002 139.623 24.3837 139.702C21.2916 139.781 18.2391 139.266 15.3451 138.156C13.1648 137.323 11.1033 136.213 9.59691 134.311C8.56619 133.042 8.32834 131.536 8.88334 130.029C9.47798 128.404 10.4691 126.937 11.4601 125.51C12.8873 123.448 14.1955 121.308 14.3144 118.771C14.3541 117.7 13.7991 116.749 13.0062 115.996C11.5791 114.648 9.87442 113.974 7.93191 113.617C5.87048 113.221 3.72976 112.943 1.94583 111.714C-0.31382 110.168 -0.710252 106.838 1.31154 104.182C3.05583 101.883 5.27583 100.218 7.85262 99.0284C9.43834 98.3148 11.1826 98.0373 12.9269 97.958C13.0062 98.4734 13.3233 98.7905 13.7594 99.068C14.5523 99.5437 15.3451 99.9798 16.2173 100.297C19.1905 101.407 22.2826 101.486 25.4144 101.447C25.4144 101.684 25.4144 101.922 25.4144 102.16C24.7405 109.653 24.0666 117.106 23.4323 124.598C23.3134 126.104 22.9566 127.571 23.1944 129.078C23.1548 129.395 23.1152 129.672 23.1152 129.99C23.1152 130.346 22.8377 130.782 23.3134 131.1C24.1459 131.575 24.8594 132.21 25.7316 132.527C25.7712 132.566 25.8902 132.447 26.0091 132.368C27.1984 131.615 27.238 131.298 26.3659 130.188C26.1677 129.95 26.0091 129.712 25.8109 129.474C27.1191 124.638 28.4669 119.841 29.7355 115.004C30.9248 110.485 32.6691 106.045 32.233 101.248C32.5898 101.248 32.9862 101.248 33.343 101.248C33.7791 106.64 34.2152 112.031 34.6909 117.423C35.0477 121.664 35.4045 125.906 35.7612 130.108C35.8009 130.545 35.5234 131.1 36.0784 131.377C36.792 131.734 37.4659 132.091 38.1795 132.408C38.9723 132.765 39.0912 131.932 39.4877 131.575C39.6859 131.417 40.0823 131.179 39.7255 130.822C39.2498 130.386 38.9723 129.752 38.2588 129.633C38.0605 128.8 38.457 128.007 38.4966 127.215C38.7741 123.171 38.6948 119.127 39.0516 115.084C39.448 110.564 39.567 106.045 39.8048 101.486C39.8445 101.011 39.8841 100.614 40.4391 100.535C40.7959 100.495 41.1923 100.456 41.5491 100.456C41.9852 100.812 42.5005 100.773 43.0159 100.773C64.9384 100.773 86.9006 100.773 108.823 100.773C109.339 100.773 109.854 100.733 110.33 100.574C109.854 102.953 109.735 105.332 110.171 107.71C111.876 117.106 119.923 123.805 129.319 123.845C152.153 123.884 174.987 123.845 197.822 123.845C198.733 123.845 199.685 123.884 200.597 123.647C200.478 124.162 200.755 124.598 200.834 125.074C200.557 125.351 200.279 125.589 200.042 125.867C198.733 127.532 198.733 127.532 200.121 128.84C200.2 128.919 200.279 128.998 200.359 129.038C200.478 129.157 200.597 129.157 200.715 129.038C202.024 127.888 203.49 126.897 203.847 125.034C203.847 124.36 204.006 123.686 203.808 123.012C205.155 122.933 206.186 122.101 207.415 121.744C207.455 122.893 207.494 124.083 207.574 125.232C207.296 125.549 207.019 125.827 206.781 126.144C205.75 127.492 205.79 127.849 207.177 128.919C207.415 129.117 207.534 129.157 207.772 128.959C208.882 127.968 210.151 127.096 210.587 125.549C211.498 123.329 211.578 120.951 212.014 118.652C212.291 118.334 212.529 118.017 212.846 117.74C216.335 114.053 218.158 109.772 218.238 104.658C218.158 102.874 217.802 100.971 217.445 99.068Z" fill="#F7F7F7"/>
<path d="M110.33 100.693C109.815 100.852 109.339 100.891 108.824 100.891C86.901 100.891 64.9388 100.891 43.0162 100.891C42.5009 100.891 41.9855 100.931 41.5494 100.574C43.5712 99.9796 45.5534 99.385 47.3373 98.2353C48.1302 97.72 48.3284 97.2839 47.7337 96.4514C46.7823 95.1432 46.148 93.6764 46.0687 92.0114C46.5841 92.2096 46.8219 92.725 47.2184 93.0818C49.2402 94.8261 51.262 94.6675 52.8477 92.5664C56.1777 88.166 59.5473 83.7657 62.8773 79.3653C63.9873 78.85 63.9873 78.85 63.3134 77.6607C63.9477 77.2642 64.2648 76.5903 64.6613 76.0353C66.0488 74.0532 67.7138 72.2692 68.9427 70.2078C69.2995 70.1681 69.5373 70.3664 69.8148 70.5249C73.3431 72.2692 77.1092 72.9432 81.0338 72.4674C92.2924 71.0799 99.5867 60.971 98.3181 50.2278C97.0892 39.9602 87.0595 31.7938 76.5938 32.9831C68.7841 33.8552 63.0756 37.9384 60.142 45.2724C57.248 52.527 58.5166 59.306 63.3134 65.411C63.5513 65.6885 63.9081 65.9264 63.9081 66.3624C63.5513 66.4417 63.3927 66.7985 63.1945 67.0364C61.4898 69.296 59.7852 71.5556 58.0409 73.7757C57.367 72.6656 56.1777 73.0224 55.1866 72.7846C54.6316 72.6656 54.2748 73.1017 54.037 73.5774C53.918 73.4982 53.8388 73.4189 53.7198 73.3396C53.7198 72.8242 53.3234 72.7846 52.927 72.7053C49.9141 71.9521 46.8616 71.1989 43.8487 70.4456C42.0252 70.0096 41.9855 70.0096 41.7477 67.9878C41.9062 68.0274 42.0648 68.1067 42.2234 68.1067C47.0202 68.4635 51.7773 68.7807 56.5741 69.1374C57.0102 69.1771 57.248 69.0582 57.2084 68.5824C58.0805 68.7014 58.7941 69.4149 59.7455 69.1771C60.4195 69.0185 61.1331 68.741 61.1727 68.0274C61.252 66.7589 60.6177 66.1246 59.587 66.1246C59.2302 66.1246 58.913 66.1642 58.5563 66.1246C57.803 66.0453 57.4859 66.4417 57.367 67.1156C57.3273 67.3535 57.4066 67.5914 57.1688 67.7499C57.0498 66.0849 57.0498 66.1246 55.4641 65.7281C51.7773 64.8164 48.0509 63.9046 44.3641 62.9928C43.8884 62.8739 43.5712 62.636 43.2541 62.3189C40.7566 59.9799 38.2987 57.641 35.8012 55.3813C34.493 54.1921 32.9073 53.9938 31.2026 54.5092C31.3216 53.5578 31.9162 53.0424 32.6298 52.4874C33.6209 51.7738 34.4534 50.981 34.5326 49.6331C34.5723 48.8799 34.8894 48.1267 35.0877 47.3735C37.268 47.096 39.4484 46.8185 41.6287 46.9374C42.1837 46.977 42.3423 46.6995 42.3423 46.1842C42.3027 45.0345 42.3027 43.9245 42.3423 42.7749C42.5009 38.9295 43.5316 35.2824 45.2759 31.8334C46.6634 29.1377 48.4473 26.7195 50.6673 24.6581C54.037 21.5659 57.8823 19.3459 62.362 18.1566C65.4145 17.3241 68.5066 17.0466 71.5988 17.2448C74.5324 17.4431 77.3867 18.0377 80.0824 19.2666C82.6195 20.2181 84.8792 21.6056 86.9802 23.2706C89.3984 25.2131 91.4202 27.5124 93.0853 30.1684C93.2835 30.4856 93.3628 31.0009 93.9574 30.5649C98.3181 27.3934 103.234 25.9266 108.586 25.6888C108.942 26.2438 108.586 26.997 109.22 27.552C110.687 28.8999 112.51 27.5124 112.986 26.0456C116.712 26.4816 120.082 27.8295 123.254 29.8116C126.465 31.8334 129.081 34.4102 131.142 37.5817C131.777 38.5331 132.015 39.762 132.966 40.5152C132.887 41.3477 133.323 42.0217 133.561 42.7749C134.036 43.9245 134.393 45.0742 134.591 46.3031C134.671 46.7788 134.948 46.8978 135.384 46.8978C136.891 46.8978 138.397 46.8581 139.904 47.096C141.331 47.3338 142.797 47.4131 144.106 48.1663C143.59 48.7213 142.599 48.3645 142.242 49.1574C141.767 49.1178 141.212 48.7213 140.776 49.1574C140.379 49.5538 139.904 49.7917 139.428 49.9899C138.992 50.1881 138.714 50.5053 138.833 50.9413C138.912 51.3378 139.309 51.4567 139.745 51.4567C140.815 51.4963 141.846 51.2585 142.837 51.0206C142.956 51.2585 143.115 51.3774 143.392 51.3378C145.652 51.0999 147.872 50.9017 150.131 50.6638C150.449 50.6242 150.686 50.6638 150.964 50.862C153.62 52.4874 155.959 54.4696 157.901 56.8878C160.914 60.6142 162.896 64.8164 163.689 69.5735C162.857 70.8817 161.628 71.8728 160.914 73.2603C160.637 73.8153 160.28 73.6171 159.923 73.3396C158.655 72.4278 157.267 71.7539 155.8 71.2385C152.708 70.1681 149.616 69.8114 146.326 70.3664C142.877 70.961 139.824 72.3089 137.208 74.5685C134.116 77.1849 132.094 80.515 131.182 84.5189C131.063 85.1532 130.786 85.391 130.151 85.3118C128.962 85.1532 127.812 85.391 126.663 85.5496C118.576 86.5407 112.074 92.6853 110.33 100.693Z" fill="#E0EBEF"/>
<path d="M110.33 100.693C112.114 92.6852 118.615 86.5406 126.623 85.4306C127.773 85.272 128.922 85.0341 130.112 85.1927C130.746 85.272 130.984 84.9945 131.142 84.3998C132.015 80.4355 134.036 77.1055 137.168 74.4495C139.785 72.2295 142.837 70.8816 146.286 70.2473C149.576 69.6923 152.669 70.0491 155.761 71.1195C157.228 71.6348 158.615 72.3087 159.884 73.2205C160.24 73.498 160.597 73.6962 160.875 73.1412C161.588 71.7537 162.817 70.7627 163.65 69.4544C163.967 69.4544 164.125 69.1769 164.284 69.0184C165.513 67.9084 166.821 66.9569 168.288 66.2037C170.27 65.1334 172.371 64.4198 174.591 64.1423C175.661 63.8648 176.732 63.9441 177.842 63.9441C177.921 64.1819 178.04 64.4198 178.04 64.618C178.04 65.8469 179.11 66.0055 179.864 66.2434C180.577 66.4812 181.053 65.8073 181.37 65.2127C181.449 65.1334 181.529 65.0541 181.608 64.9748C181.806 64.8162 182.004 64.6973 182.163 64.5387C183.035 64.3802 183.788 65.0541 184.621 64.9748C184.74 65.3316 185.096 65.3316 185.374 65.4505C188.308 66.7984 190.924 68.6219 192.906 71.2384C192.827 71.6744 192.43 71.6744 192.153 71.833C191.36 72.2691 190.409 72.4673 189.814 73.1016C189.1 73.8548 188.347 74.0134 187.435 74.053C187.118 74.053 186.761 74.172 186.722 74.5287C186.603 75.282 186.008 75.5595 185.493 75.9559C185.176 76.1937 184.7 76.3127 185.057 76.9073C185.334 77.3434 185.652 77.7398 186.207 77.502C187.911 76.7488 189.814 76.6695 191.598 75.9955C192.787 75.5595 193.897 74.8855 195.205 74.8855C195.483 75.2423 195.681 75.6387 195.84 76.0352C196.87 78.6516 197.307 81.3473 197.267 84.1223C197.267 84.4791 196.95 85.0738 197.703 85.1927C197.941 85.1927 198.179 85.1927 198.417 85.2323C205.869 85.3909 211.618 88.602 215.582 94.9449C215.859 95.3809 215.939 95.9756 216.454 96.2927C216.692 97.2441 217.049 98.1559 217.485 99.0281C217.842 100.931 218.198 102.834 218.159 104.816C218.079 109.89 216.256 114.211 212.767 117.898C212.49 118.176 212.212 118.493 211.935 118.81C210.508 119.999 209.001 121.03 207.376 121.902C206.147 122.259 205.077 123.091 203.768 123.171C202.738 123.527 201.667 123.765 200.597 123.765C199.685 123.963 198.773 123.963 197.822 123.963C174.988 123.963 152.153 124.003 129.319 123.963C119.963 123.924 111.876 117.224 110.171 107.829C109.735 105.49 109.854 103.072 110.33 100.693Z" fill="#AFCED3"/>
<path d="M57.1284 68.5022C57.168 68.978 56.9302 69.0969 56.4941 69.0572C51.6973 68.7005 46.9402 68.3833 42.1434 68.0265C41.9848 68.0265 41.8262 67.9472 41.6676 67.9076C41.9451 69.9294 41.9451 69.9294 43.7687 70.3655C46.7816 71.079 49.8341 71.8719 52.847 72.6251C53.2037 72.7044 53.6002 72.744 53.6398 73.2594C53.6002 73.9333 53.5605 74.6073 53.7191 75.2812C53.6398 75.9155 53.1641 75.7569 52.8073 75.7569C50.0323 75.5587 47.2573 75.4001 44.4823 75.1623C43.4912 75.083 43.4119 75.4001 43.5705 76.2326C43.9669 78.2941 44.2841 80.3555 44.6012 82.4169C44.958 84.9937 45.2355 87.5705 45.5527 90.1869C45.9094 90.5041 45.7905 90.9402 45.7905 91.3366C45.8302 91.5744 45.6716 91.9312 46.0284 92.0898V92.0502C46.1076 93.7152 46.7419 95.1819 47.6934 96.4902C48.3277 97.3623 48.0898 97.7587 47.2969 98.2741C45.513 99.4237 43.5309 100.058 41.5091 100.613C41.1523 100.653 40.7559 100.692 40.3991 100.692C40.3198 100.653 40.2009 100.534 40.1612 100.573C37.9412 101.287 35.6023 101.287 33.303 101.327C32.9462 101.327 32.5498 101.327 32.193 101.327C29.9333 101.287 27.6737 101.644 25.414 101.525C22.2822 101.564 19.1901 101.446 16.2169 100.375C15.3447 100.058 14.5122 99.6219 13.759 99.1462C13.3229 98.8687 13.0058 98.5516 12.9265 98.0362C13.0454 97.2037 13.6401 96.7677 14.1951 96.2523C16.2565 94.2702 18.0405 92.0898 18.8333 89.2751C20.2605 88.5616 21.7273 88.403 23.313 88.7201C24.9383 89.0373 25.8501 88.2841 26.2465 86.6191C26.3655 86.1037 26.5637 85.5487 26.8412 85.073C27.2376 84.3594 27.7926 83.8837 28.6648 84.0026C29.8937 84.2009 30.7658 83.7648 31.4398 82.6548C32.3912 81.0691 32.4705 79.2851 32.0741 77.5805C30.9641 72.9423 29.7351 68.304 28.3873 63.7055C27.5151 60.6529 27.2376 57.5608 27.1583 54.3894C27.7926 54.6272 28.4666 54.0722 29.1405 54.429C29.6955 54.7462 30.2108 54.6669 30.7658 54.4687C30.9244 54.429 31.083 54.429 31.2019 54.3894C32.9066 53.874 34.4923 54.0722 35.8005 55.2615C38.3376 57.5608 40.7955 59.8997 43.2534 62.199C43.5705 62.5162 43.9273 62.754 44.3634 62.8729C48.0502 63.7847 51.7766 64.6965 55.4634 65.6083C57.0491 66.0048 57.0491 65.9651 57.168 67.6301C57.1284 67.9472 57.1284 68.2247 57.1284 68.5022Z" fill="#577893"/>
<path d="M174.591 64.1419C172.371 64.459 170.27 65.1726 168.287 66.2033C166.821 66.9962 165.473 67.9079 164.284 69.0179C164.085 69.1765 163.966 69.4937 163.649 69.454C162.896 64.6969 160.914 60.4947 157.861 56.7683C155.879 54.3501 153.58 52.3679 150.924 50.7426C150.646 50.5443 150.409 50.5047 150.091 50.5443C147.832 50.7822 145.612 50.9804 143.352 51.2183C143.075 51.2579 142.916 51.139 142.797 50.9011C142.48 50.3065 142.559 49.5929 142.202 49.0379C142.559 48.2054 143.55 48.6018 144.066 48.0468C144.422 47.9676 144.819 47.9279 145.176 47.809C146.999 47.2143 148.823 46.6197 150.646 46.0647C152.034 45.6286 152.153 45.47 152.074 43.8843C151.36 44.5186 150.646 45.1133 149.972 45.7079C149.616 46.0251 149.299 46.144 148.783 46.0647C144.185 45.1133 139.586 44.1618 134.987 43.2104C134.591 43.1311 134.155 43.1311 133.957 42.6554C133.917 41.9418 134.274 41.2679 134.155 40.5543C134.432 40.3165 134.75 40.3958 135.027 40.3958C138.793 40.3165 142.559 40.2372 146.325 40.1975C146.92 40.1975 147.277 39.9597 147.634 39.5633C149.536 37.4225 151.519 35.3215 153.421 33.1807C154.412 32.0311 155.443 31.04 157.108 31.0797C158.179 31.159 159.209 30.8815 160.2 30.4454C160.438 30.4454 160.716 30.5247 160.914 30.4454C162.539 29.8507 163.451 30.6436 164.442 31.8329C168.922 37.5018 172.609 43.6465 174.511 50.6633C175.463 54.2708 175.384 57.9972 174.948 61.684C174.749 62.5958 174.67 63.3887 174.591 64.1419Z" fill="#ADAEB3"/>
<path d="M27.0794 54.3904C27.1586 57.5222 27.3965 60.6539 28.3083 63.7065C29.6561 68.305 30.9247 72.9036 31.9951 77.5815C32.3915 79.2861 32.3122 81.0701 31.3608 82.6558C30.6869 83.7658 29.8147 84.2019 28.5858 84.0036C27.7136 83.8847 27.119 84.3604 26.7622 85.074C26.5244 85.5497 26.3261 86.0651 26.1676 86.6201C25.7711 88.2851 24.8593 89.0383 23.234 88.7211C21.6483 88.404 20.1815 88.5626 18.7543 89.2761C17.4858 89.3554 17.1686 88.9987 17.5254 87.8094C17.7236 87.1354 17.5254 86.5804 17.0101 86.184C16.6136 85.9065 16.1775 85.6686 15.7415 85.5101C12.4115 84.5586 11.9358 81.3079 12.4511 78.8897C12.6493 78.0176 13.0854 77.2247 13.4025 76.3922C14.354 75.0047 15.3451 73.6568 16.2568 72.2693C17.8029 69.9304 18.8733 67.3933 19.349 64.6182C20.0626 61.8432 20.3004 59.0286 20.0626 56.1347C19.9833 54.7075 19.904 53.2407 19.8643 51.8136C19.7454 48.9989 19.8643 46.2239 20.9743 43.6075C22.5204 39.9603 25.6522 37.9782 29.5769 38.1368C29.6165 38.1368 29.6561 38.1368 29.6958 38.1368C30.6076 38.1368 31.4004 38.4936 32.0347 39.0882C33.3826 40.3171 35.4044 40.9911 35.6026 43.2111C35.6819 44.2814 35.8404 45.3518 34.8494 46.1843C34.889 44.6382 34.4529 43.2507 33.2637 42.1011C32.4312 43.6075 31.1229 44.6779 30.0922 45.9464C28.7444 47.6511 27.4758 49.3557 27.1983 51.6154C26.8415 52.4875 27.0794 53.4389 27.0794 54.3904Z" fill="#4F5050"/>
<path d="M219.784 58.3545C219.625 60.0195 218.912 61.6052 218.674 63.2702C218.476 64.6181 218.159 65.9659 218 67.3138C217.881 68.4634 218.357 69.6131 218.555 70.7231C219.229 74.2117 219.982 77.7002 220.735 81.1888C220.894 81.9817 220.696 82.3781 219.903 82.5367C219.031 82.7349 218.159 82.9331 217.366 83.3295C213.203 83.4088 209.001 83.4485 204.839 83.5674C202.619 83.6467 200.478 83.171 198.337 82.7349C198.416 81.6645 198.535 80.5545 198.615 79.4842C198.773 77.4228 199.13 75.3613 199.09 73.2602C199.209 73.2602 199.289 73.2602 199.408 73.2206C201.746 72.3088 204.085 71.5159 206.424 70.6438C207.891 70.0888 209.516 69.732 210.587 68.3445C211.697 66.9174 213.045 65.6488 214.313 64.3802C216.216 62.4774 218 60.4159 219.784 58.3545Z" fill="#95A176"/>
<path d="M108.506 25.6097C103.154 25.8476 98.2385 27.354 93.8778 30.4858C93.2831 30.9219 93.1642 30.4065 93.0056 30.0894C91.3803 27.4333 89.3188 25.134 86.9006 23.1915C84.7996 21.5265 82.5399 20.0993 80.0028 19.1876C79.7649 16.7297 79.4874 14.2322 79.2495 11.7743C79.0117 9.51468 78.7738 7.21539 78.536 4.95574C78.4963 4.71789 78.3377 4.40075 78.7342 4.28182C79.6856 4.28182 80.6767 4.28182 81.6281 4.28182C82.1831 4.24217 82.1831 4.67825 82.2624 5.03503C82.976 7.81004 83.7292 10.585 84.4428 13.3997C84.6013 13.9547 84.8392 14.3908 85.2753 14.7475C86.9006 16.1351 88.5656 17.5622 90.1513 18.9893C90.5478 19.3461 90.8253 19.4254 91.301 19.1876C92.3317 18.6326 93.4417 18.5533 94.5517 18.3551C95.7806 18.1965 97.0096 18.0379 98.2781 17.8397C100.221 17.6415 102.203 17.919 104.066 17.2451C104.462 17.1261 104.621 17.4036 104.819 17.6018C106.96 19.8615 109.14 22.0815 111.281 24.3411C111.004 24.3411 110.686 24.2222 110.488 24.3411C109.894 24.6979 108.704 24.3015 108.506 25.6097Z" fill="#B1654F"/>
<path d="M184.66 64.9743C183.788 65.0536 183.075 64.3797 182.202 64.5382C182.44 63.904 181.806 63.3093 182.202 62.675C185.572 61.3668 188.902 60.0189 192.272 58.7504C192.906 58.5125 193.382 58.1557 193.778 57.6007C195.126 55.5789 196.632 53.6364 197.861 51.5354C198.773 49.9496 200.319 49.5532 201.746 48.8793C202.579 48.4829 203.411 47.8882 204.442 48.0468C204.997 49.4343 205.552 50.8218 206.147 52.2093C206.424 52.8039 207.534 53.0418 207.931 52.5264C208.882 51.2579 209.913 49.9893 210.626 48.5621C211.816 48.6018 213.005 48.6018 214.194 48.6414V48.6018C214.274 48.7604 214.353 48.8793 214.432 49.0379C213.877 48.9982 213.6 49.355 213.362 49.8307C210.904 54.4689 208.208 58.9486 205.83 63.6265C205.592 64.1022 205.314 64.6968 204.918 64.9743C203.174 66.005 201.35 66.8772 199.526 67.8286C199.407 65.1725 199.328 62.5561 199.209 59.6225C198.337 60.9704 197.663 62.0011 196.989 63.0715C196.791 63.3886 196.593 63.6661 196.117 63.7057C192.272 64.1418 188.466 64.5779 184.66 64.9743Z" fill="#95A176"/>
<path d="M199.526 67.8689C201.31 66.9174 203.134 66.0057 204.918 65.0146C205.354 64.7767 205.592 64.1821 205.83 63.6667C208.169 58.9889 210.904 54.5092 213.362 49.871C213.6 49.4349 213.877 49.0781 214.432 49.0781C215.503 49.6728 216.613 50.2278 217.683 50.8224C217.921 50.9413 218.079 51.0999 218.119 51.3774C218.634 53.7163 219.427 56.0156 219.784 58.3546C218 60.416 216.216 62.4774 214.274 64.3803C212.965 65.6489 211.657 66.9174 210.547 68.3446C209.477 69.7321 207.851 70.0889 206.385 70.6439C204.046 71.516 201.667 72.3089 199.368 73.2207C199.289 73.2603 199.17 73.2603 199.051 73.2603C198.496 73.4585 197.98 73.6171 197.425 73.855C196.672 74.1721 195.8 74.2514 195.166 74.8857C193.857 74.8857 192.747 75.5596 191.558 75.9957C189.814 76.63 187.911 76.7093 186.167 77.5021C185.612 77.74 185.295 77.3832 185.017 76.9075C184.66 76.3525 185.136 76.2335 185.453 75.956C185.929 75.5596 186.524 75.2425 186.682 74.5289C186.761 74.1721 187.079 74.0928 187.396 74.0532C188.307 74.0135 189.061 73.855 189.774 73.1017C190.369 72.5071 191.32 72.2692 192.113 71.8332C192.391 71.6746 192.787 71.635 192.866 71.2385C195.285 70.406 197.346 69.0582 199.526 67.8689Z" fill="#A2AF82"/>
<path d="M204.085 44.5586C204.085 44.8361 204.085 45.1136 204.085 45.3911C204.085 46.3425 203.609 46.7389 202.658 46.5407C202.301 46.4614 201.944 46.3425 201.627 46.065C201.151 45.6289 200.596 45.3911 199.962 45.3911C199.685 45.3911 199.328 45.3514 199.249 45.0739C199.09 44.4396 198.654 44.3604 198.099 44.3604C197.465 44.3604 197.346 43.8846 197.544 43.4486C197.782 42.8539 197.782 42.2989 197.544 41.7043C197.187 40.8718 197.584 39.96 198.575 39.8014C200.24 39.5239 201.191 38.6121 201.627 37.0264C201.667 36.8282 201.865 36.5111 202.024 36.4714C203.253 36.075 204.125 35.1236 205.195 34.5289C205.829 34.1721 206.345 33.8946 206.741 33.2207C207.613 31.7539 209.516 31.1196 211.498 31.6746C213.56 32.2296 215.264 33.4586 216.969 34.6478C217.722 35.1632 217.96 36.0353 218 36.9075C218 38.6518 218.912 39.6032 220.577 39.9996C221.607 40.2375 222.519 40.6339 222.915 41.7836C223.233 42.8143 222.242 43.6468 222.519 44.6775C222.519 44.7171 222.36 44.7568 222.281 44.7964C220.497 45.3514 219.704 46.7786 219.229 48.4039C219.03 49.1175 218.753 49.2761 218.039 49.1572C216.81 48.9589 215.542 48.6418 214.273 48.6418V48.6814C214.075 48.3643 213.679 48.4039 213.401 48.285C212.41 47.8489 211.697 47.175 211.578 46.0254C211.617 45.51 211.617 44.9946 211.736 44.5189C212.529 41.0304 212.252 40.3961 209.12 38.5725C209.04 38.5329 208.922 38.4932 208.842 38.4139C207.93 37.6607 207.098 37.9382 206.226 38.4536C204.045 39.7221 203.371 41.7043 204.085 44.5586Z" fill="#4D3F3E"/>
<path d="M93.8381 15.0257C90.3495 12.885 88.7241 9.27752 90.5477 5.86823C91.182 4.71858 92.1334 4.00501 93.402 3.72751C95.067 3.33108 96.732 2.97429 98.4367 2.57786C99.1106 2.41929 99.7845 2.45893 100.379 2.73643C101.568 3.25179 102.718 3.13286 103.907 2.81572C105.691 2.30036 107.475 2.22108 109.259 2.85536C110.647 3.33108 111.162 4.48072 110.171 5.55108C108.783 7.1368 107.753 8.96037 106.643 10.7047C105.89 11.8543 104.542 12.0525 103.273 12.1714C102.916 12.2111 102.52 12.1715 102.123 12.1318C101.529 11.5372 100.696 11.3389 99.9828 10.9822C98.5953 10.3082 97.1285 9.99109 95.5824 10.11C94.0759 10.2289 93.6002 10.7839 93.6399 12.2904C93.6795 13.2022 93.9967 14.0743 93.8381 15.0257Z" fill="#40332A"/>
<path d="M152.074 23.7459C150.766 22.9531 149.854 21.7638 148.744 20.7331C148.11 20.1384 148.823 18.0373 149.577 17.6013C152.153 16.2534 154.77 15.9363 157.584 16.848C159.13 17.3238 160.795 17.522 162.421 17.7598C163.293 17.8788 163.65 18.1959 163.57 19.187C163.372 21.5259 163.253 23.8252 163.214 26.1641C163.214 26.8777 162.936 27.3138 162.302 27.5516C161.787 27.7499 161.43 28.3445 160.756 28.1859C160.795 26.5606 160.518 24.9748 160.439 23.3891C160.399 22.8341 160.201 22.6359 159.606 22.6359C157.981 22.5963 156.316 22.5963 154.69 22.3981C153.462 22.2395 152.589 22.5963 152.074 23.7459Z" fill="#575A5B"/>
<path d="M216.414 96.333C215.938 96.0158 215.859 95.4212 215.542 94.9851C211.577 88.6422 205.869 85.4312 198.376 85.2726C198.138 85.2726 197.9 85.2726 197.663 85.2329C197.821 84.5987 197.98 83.9644 198.138 83.3301C198.733 83.9247 199.407 83.2508 200.041 83.449C202.34 84.2022 204.719 84.1229 207.058 83.9247C210.11 83.6869 213.163 83.8851 216.215 83.7662C216.691 83.7662 217.008 83.9247 217.008 84.4797C217.008 84.7572 217.167 84.9951 217.207 85.2726C217.207 85.5897 217.207 85.9465 217.207 86.2637C217.207 86.3826 217.207 86.5015 217.246 86.5808C217.643 86.8979 217.484 87.2944 217.444 87.6908C217.048 88.8801 217.088 90.0297 217.444 91.219C217.127 92.9237 216.77 94.6283 216.414 96.333Z" fill="#2A4460"/>
<path d="M19.3489 64.5783C18.8732 67.3534 17.8029 69.8905 16.2568 72.2294C15.345 73.6169 14.3539 75.0044 13.4025 76.3523C12.7286 74.6476 13.0854 72.8637 13.2439 71.1591C13.3629 69.5337 13.6007 67.9084 14.0368 66.3623C14.4729 64.8558 15.1071 63.4287 15.7811 62.0016C16.7325 60.0591 17.8029 58.1958 19.2697 56.6101C19.4282 56.4515 19.5075 56.293 19.7454 56.293C19.8247 58.8698 19.6661 61.4466 19.1507 64.0233C19.1111 64.2216 19.1507 64.4198 19.3489 64.5783Z" fill="#E0EBEF"/>
<path d="M204.085 44.5583C203.411 41.6644 204.045 39.7219 206.107 38.4533C206.979 37.8983 207.851 37.6605 208.723 38.4137C208.802 38.493 208.882 38.5326 209.001 38.5723C212.132 40.3958 212.41 41.0301 211.617 44.5187C211.498 45.0341 211.498 45.5494 211.458 46.0251C211.022 46.3026 210.626 46.6594 210.15 46.818C209.357 47.0558 209.159 47.5316 209.278 48.2848C208.208 48.2848 207.177 48.4433 206.146 48.0469C206.463 47.3333 206.344 46.7783 205.631 46.3819C204.878 45.9855 204.64 45.153 204.085 44.5583Z" fill="#F0D7BA"/>
<path d="M152.073 23.7466C152.628 22.6366 153.461 22.2798 154.729 22.3987C156.355 22.597 158.02 22.597 159.645 22.6366C160.2 22.6366 160.438 22.8348 160.478 23.3898C160.557 24.9755 160.834 26.5612 160.795 28.1866C160.755 28.3055 160.795 28.4641 160.715 28.4641C159.764 28.9398 159.804 29.693 160.121 30.5255C159.13 30.922 158.099 31.1995 157.029 31.1598C157.068 30.1291 156.751 29.4948 155.641 29.1777C153.936 28.702 152.43 26.5216 152.271 24.698C152.232 24.3809 152.39 23.9845 152.073 23.7466Z" fill="#F0D7BA"/>
<path d="M27.1982 51.5758C27.4757 49.3162 28.7443 47.6115 30.0922 45.9069C31.1229 44.6383 32.3915 43.568 33.2636 42.0615C34.4529 43.2112 34.8493 44.5987 34.8493 46.1447C34.9286 46.5015 34.9683 46.8583 35.0476 47.2151C34.8493 47.9683 34.5322 48.7215 34.4926 49.4748C34.4133 50.8226 33.5411 51.6551 32.5897 52.329C31.8761 52.8444 31.2815 53.3994 31.1625 54.3508C31.004 54.3905 30.8454 54.3905 30.7265 54.4301C28.784 54.3905 28.3082 52.6065 27.1982 51.5758Z" fill="#F0D7BA"/>
<path d="M93.8384 15.0238C93.9573 14.0724 93.6798 13.2003 93.6402 12.2488C93.6006 10.7821 94.0763 10.1874 95.5827 10.0685C97.1288 9.94955 98.5956 10.2667 99.9831 10.9406C100.697 11.2974 101.529 11.4956 102.124 12.0903C101.529 12.9624 101.489 13.9931 101.133 14.9842C100.816 15.896 100.34 16.4906 99.3884 16.6492C98.6749 16.7681 98.3577 17.1249 98.3974 17.7989C97.1684 17.9574 95.9395 18.116 94.6709 18.3142C95.1863 17.006 95.107 15.896 93.8384 15.0238Z" fill="#F0D7BA"/>
<path d="M206.107 48.0859C207.138 48.4824 208.209 48.3238 209.239 48.3238C209.636 48.6409 210.191 48.3634 210.587 48.6409C209.874 50.1077 208.843 51.3367 207.891 52.6052C207.495 53.1206 206.345 52.9224 206.107 52.2881C205.513 50.9006 204.958 49.5131 204.403 48.1256C204.997 48.0859 205.552 48.0859 206.107 48.0859Z" fill="#E0EBEF"/>
<path d="M182.202 62.7147C181.806 63.349 182.44 63.9436 182.202 64.5779C182.004 64.7365 181.806 64.8554 181.647 65.014C181.568 65.0933 181.489 65.1726 181.41 65.2519C181.053 65.8465 180.617 66.4808 179.903 66.2826C179.15 66.0447 178.08 65.8861 178.08 64.6572C178.08 64.4194 177.961 64.1815 177.881 63.9833C177.961 62.9129 179.229 62.1597 180.577 62.3976C181.092 62.4769 181.568 62.8733 182.202 62.7147Z" fill="#A2AF82"/>
<path d="M81.6679 4.2418C80.7165 4.2418 79.7254 4.2418 78.774 4.2418C79.3686 3.80572 78.8533 3.44894 78.6947 3.13179C78.4172 2.65608 78.1397 2.22001 78.1793 1.62536C78.1793 0.436075 78.6947 0 80.0029 0C81.0733 0 81.2715 0.396432 81.43 1.62536C81.549 2.37858 81.5886 3.01286 81.3111 3.72644C81.1922 4.00394 81.5093 4.08322 81.6679 4.2418Z" fill="#F0D7BA"/>
<path d="M108.506 25.6095C108.665 24.3409 109.894 24.7374 110.607 24.3409C110.806 24.222 111.123 24.3409 111.4 24.3409C112.233 24.5392 112.51 25.2924 112.867 25.9663C112.431 27.4331 110.568 28.8206 109.101 27.4727C108.506 26.8781 108.863 26.1645 108.506 25.6095Z" fill="#F0D7BA"/>
<path d="M217.286 85.2719C217.207 84.9944 217.088 84.7566 217.088 84.4791C217.048 83.9241 216.771 83.7655 216.295 83.7655C213.242 83.8844 210.19 83.6466 207.137 83.9241C204.798 84.1223 202.42 84.1619 200.121 83.4483C199.486 83.2501 198.812 83.9241 198.218 83.3294C198.257 83.1312 198.337 82.9726 198.376 82.7744C200.517 83.2105 202.658 83.6862 204.878 83.6069C209.04 83.488 213.242 83.4483 217.405 83.3691C217.246 84.0033 217.643 84.6376 217.286 85.2719Z" fill="#40332A"/>
<path d="M19.349 64.5783C19.1508 64.4594 19.1111 64.2215 19.1508 64.0233C19.6661 61.4862 19.8247 58.9094 19.7454 56.2929C19.8247 56.2137 19.9436 56.174 20.0229 56.0947C20.3004 58.9887 20.0626 61.8033 19.349 64.5783Z" fill="#F7F7F7"/>
<path d="M134.036 40.5951C134.194 41.3087 133.798 41.9826 133.877 42.6962C133.758 42.6962 133.6 42.6962 133.481 42.6962C133.203 41.9826 132.807 41.269 132.886 40.4365C133.282 40.5158 133.679 40.5555 134.036 40.5951Z" fill="#F0D7BA"/>
<path d="M217.484 91.2186C217.127 90.0294 217.088 88.8797 217.484 87.6904C217.603 88.8401 217.88 90.0294 217.484 91.2186Z" fill="#40332A"/>
<path d="M217.286 86.5808C217.286 86.4619 217.286 86.343 217.247 86.2637C217.286 86.343 217.564 86.4619 217.286 86.5808Z" fill="#575A5B"/>
<path d="M25.3753 101.525C27.635 101.643 29.8946 101.287 32.1542 101.326C32.63 106.163 30.846 110.563 29.6567 115.082C28.3882 119.919 27.0403 124.755 25.7321 129.552C25.4942 129.909 25.2167 129.711 24.9392 129.592C24.3446 129.354 23.7499 129.156 23.1157 129.116C22.8778 127.61 23.2346 126.103 23.3535 124.636C23.9878 117.144 24.6617 109.691 25.3357 102.198C25.3753 102 25.3753 101.762 25.3753 101.525Z" fill="#4F5050"/>
<path d="M33.2637 101.327C35.563 101.287 37.9019 101.327 40.1219 100.573C40.2012 100.534 40.2805 100.653 40.3598 100.692C39.8048 100.772 39.7255 101.128 39.7255 101.644C39.4876 106.163 39.4083 110.722 38.9723 115.241C38.6155 119.285 38.6948 123.328 38.4173 127.372C38.3776 128.165 37.9415 128.958 38.1794 129.79C37.4262 130.266 36.5144 130.107 35.6819 130.226C35.3251 125.985 34.9683 121.743 34.6115 117.541C34.1755 112.11 33.6997 106.718 33.2637 101.327Z" fill="#4F5050"/>
<path d="M207.376 121.942C209.001 121.07 210.508 119.999 211.935 118.85C211.499 121.149 211.42 123.527 210.508 125.747C210.31 125.351 209.953 125.43 209.636 125.43C208.922 125.43 208.208 125.43 207.535 125.43C207.455 124.281 207.416 123.131 207.376 121.942Z" fill="#4D3F3E"/>
<path d="M203.808 125.232C203.451 127.096 201.984 128.087 200.676 129.236C200.557 129.355 200.438 129.316 200.319 129.236C200.24 129.157 200.161 129.078 200.081 129.038C198.733 127.73 198.733 127.73 200.002 126.065C200.24 125.787 200.517 125.51 200.795 125.272C201.786 125.232 202.777 125.232 203.808 125.232Z" fill="#575A5B"/>
<path d="M207.494 125.429C208.208 125.429 208.921 125.429 209.595 125.429C209.913 125.429 210.269 125.35 210.468 125.746C210.031 127.293 208.763 128.165 207.653 129.156C207.415 129.354 207.296 129.314 207.058 129.116C205.671 128.046 205.631 127.689 206.662 126.341C206.939 126.024 207.256 125.746 207.494 125.429Z" fill="#575A5B"/>
<path d="M23.1155 129.157C23.7498 129.197 24.3445 129.395 24.9391 129.633C25.2166 129.752 25.4941 129.95 25.732 129.593C25.9302 129.831 26.0887 130.069 26.287 130.307C27.1591 131.377 27.1195 131.734 25.9302 132.487C25.8509 132.527 25.732 132.646 25.6527 132.646C24.7805 132.289 24.0273 131.655 23.2345 131.219C22.7191 130.941 23.0362 130.505 23.0362 130.109C23.0362 129.752 23.1155 129.474 23.1155 129.157Z" fill="#95A176"/>
<path d="M35.682 130.187C36.5145 130.068 37.3866 130.227 38.1795 129.751C38.893 129.87 39.1705 130.544 39.6463 130.94C40.003 131.257 39.6462 131.495 39.4084 131.693C39.012 132.011 38.9327 132.883 38.1002 132.526C37.3866 132.209 36.7127 131.852 35.9991 131.495C35.4441 131.178 35.7216 130.623 35.682 130.187Z" fill="#95A176"/>
<path d="M203.808 125.232C202.817 125.232 201.786 125.232 200.795 125.232C200.756 124.756 200.438 124.32 200.557 123.805C201.667 123.805 202.698 123.606 203.729 123.21C203.927 123.884 203.808 124.558 203.808 125.232Z" fill="#4D3F3E"/>
<path d="M63.7884 66.2427C63.7488 65.8066 63.4316 65.6084 63.1938 65.2913C58.397 59.1466 57.1284 52.3677 60.0223 45.1527C62.9559 37.8187 68.6645 33.7355 76.4742 32.8634C86.9399 31.6741 96.9696 39.8405 98.1985 50.108C99.5067 60.8513 92.2124 70.9602 80.9142 72.3477C76.9895 72.8235 73.2631 72.1892 69.6952 70.4052C69.4177 70.2863 69.1798 70.0484 68.8231 70.0881C68.4266 69.8106 68.0302 69.4538 67.5941 69.2159C66.2066 68.4231 65.1363 67.1545 63.7884 66.2427ZM96.137 52.5263C96.3353 42.7741 87.9706 34.568 78.1392 34.6473C68.3473 34.6869 60.5773 42.5759 60.498 52.1298C60.4188 62.1199 68.5852 70.2467 78.4563 70.207C88.3274 70.1674 96.2956 62.1595 96.137 52.5263Z" fill="#575A5B"/>
<path d="M45.7513 91.2979C45.7513 90.9015 45.8702 90.4654 45.5134 90.1483C45.6324 89.3158 46.0684 88.6419 46.5441 87.9679C49.5174 83.964 52.4906 79.9601 55.4638 75.9561C56.2567 76.0751 56.8117 75.639 57.2874 75.084C58.556 75.9561 59.8245 76.8283 61.0535 77.7797C61.6481 78.2554 62.4806 78.5329 62.7581 79.3654C59.4281 83.7658 56.0981 88.1662 52.7284 92.5665C51.1427 94.6676 49.1209 94.8658 47.0991 93.0819C46.7027 92.7251 46.4649 92.2097 45.9495 92.0115V92.0512C46.1874 91.6944 45.9099 91.4962 45.7513 91.2979Z" fill="#2A4460"/>
<path d="M63.7883 66.2441C65.1362 67.1559 66.1669 68.4641 67.6337 69.257C68.0697 69.4949 68.4662 69.8517 68.8626 70.1292C67.594 72.1906 65.9687 74.0142 64.5812 75.9567C64.1847 76.5117 63.8676 77.1856 63.2333 77.582C62.8765 77.6613 62.6783 77.4235 62.4404 77.2252C60.934 76.1549 59.4276 75.0845 57.9211 74.0142C57.9211 73.8952 57.9608 73.7763 57.9608 73.6574C59.6654 71.3977 61.3701 69.1381 63.1144 66.9181C63.2729 66.6406 63.4315 66.3234 63.7883 66.2441Z" fill="#A2AF82"/>
<path d="M57.9609 73.6964C57.9609 73.8153 57.9213 73.9343 57.9213 74.0532C57.287 74.1721 57.6834 74.8064 57.3663 75.0839C56.8905 75.6786 56.3355 76.075 55.5427 75.9561C55.0273 75.6389 54.1948 75.9164 53.957 75.0839C53.8777 75.1632 53.838 75.2425 53.7588 75.2821C53.6398 74.6082 53.6398 73.9343 53.6795 73.2603C53.7984 73.3396 53.8777 73.4189 53.9966 73.4982C54.2345 73.0225 54.5913 72.5864 55.1463 72.7053C56.058 72.9432 57.287 72.5864 57.9609 73.6964Z" fill="#F0D7BA"/>
<path d="M57.1284 68.5031C57.1284 68.2256 57.1284 67.948 57.1284 67.6705C57.3663 67.512 57.287 67.2345 57.3266 67.0363C57.4456 66.3623 57.7627 65.9659 58.5159 66.0452C58.8727 66.0848 59.1899 66.0452 59.5466 66.0452C60.5774 66.0452 61.2116 66.7191 61.1324 67.9481C61.0927 68.7013 60.3395 68.9391 59.7052 69.0977C58.7141 69.3356 58.0006 68.622 57.1284 68.5031Z" fill="#F0D7BA"/>
<path d="M57.3267 75.0444C57.6438 74.7669 57.2474 74.1326 57.8817 74.0137C59.3881 75.084 60.8945 76.1544 62.401 77.2248C62.6388 77.423 62.8767 77.6212 63.1938 77.5815C63.8678 78.7708 63.8677 78.7708 62.7577 79.2862C62.4802 78.4537 61.6874 78.1762 61.0531 77.7005C59.8638 76.7887 58.5952 75.9562 57.3267 75.0444Z" fill="#B1654F"/>
<path d="M142.163 49.0769C142.56 49.6319 142.48 50.3455 142.758 50.9402C141.727 51.178 140.696 51.3762 139.666 51.3762C139.269 51.3762 138.873 51.2573 138.754 50.8609C138.635 50.4248 138.913 50.1077 139.349 49.9095C139.824 49.7112 140.3 49.4734 140.696 49.0769C141.133 48.6409 141.648 49.0373 142.163 49.0769Z" fill="#F0D7BA"/>
<path d="M181.37 65.2134C181.449 65.1342 181.528 65.0549 181.607 64.9756C181.528 65.0945 181.449 65.1342 181.37 65.2134Z" fill="#95A176"/>
<path d="M53.7197 75.2822C53.799 75.2029 53.8387 75.1236 53.9179 75.084C54.1162 75.9165 54.9883 75.639 55.5037 75.9561C52.5304 79.9601 49.5572 84.0036 46.584 87.9679C46.0686 88.6419 45.6326 89.3158 45.5533 90.1483C45.2361 87.5715 44.9586 84.9551 44.6019 82.3783C44.3244 80.3168 43.9676 78.2554 43.5711 76.194C43.4126 75.3615 43.4918 75.0443 44.4829 75.1236C47.2579 75.3615 50.0329 75.5201 52.8079 75.7183C53.1647 75.7579 53.6404 75.9165 53.7197 75.2822Z" fill="#E0EBEF"/>
<path d="M27.1988 51.5742C28.3088 52.6049 28.7845 54.3492 30.6874 54.4285C30.1324 54.6664 29.5774 54.706 29.062 54.3889C28.4277 54.0321 27.7538 54.5871 27.0799 54.3492C27.0799 53.4374 26.842 52.486 27.1988 51.5742Z" fill="#E0EBEF"/>
<path d="M45.7512 91.2979C45.9098 91.5357 46.1873 91.6943 45.9891 92.0511C45.6323 91.8529 45.8305 91.5357 45.7512 91.2979Z" fill="#E0EBEF"/>
<path d="M210.626 48.6012C210.19 48.3237 209.675 48.6012 209.278 48.2841C209.159 47.5308 209.358 47.0551 210.151 46.8173C210.626 46.6587 211.023 46.3019 211.459 46.0244C211.578 47.1741 212.291 47.848 213.282 48.2841C213.599 48.403 213.956 48.3633 214.154 48.6805C213.005 48.6408 211.816 48.6012 210.626 48.6012Z" fill="#FEFEFE"/>
<path d="M96.1376 52.527C96.2962 62.1999 88.3676 70.1681 78.4569 70.2077C68.5858 70.2474 60.4193 62.0809 60.4986 52.1306C60.5779 42.5766 68.3479 34.7273 78.1397 34.648C87.9712 34.5687 96.3358 42.7748 96.1376 52.527ZM61.4501 52.1702C61.4104 61.5656 69.0615 69.296 78.4172 69.296C87.3765 69.2563 95.2258 62.4377 95.2655 52.4874C95.3051 43.1713 87.7333 35.5995 78.4569 35.6391C69.0615 35.6391 61.4501 42.973 61.4501 52.1702Z" fill="#577893"/>
<path d="M61.4499 52.1705C61.4895 42.9733 69.0613 35.6394 78.4567 35.5998C87.7331 35.5601 95.3049 43.1319 95.2653 52.448C95.2256 62.438 87.3763 69.2566 78.417 69.2566C69.0613 69.2963 61.4102 61.5659 61.4499 52.1705ZM82.302 65.8077C82.302 64.9355 81.6281 64.1823 80.756 64.1823C79.9235 64.1823 79.1702 64.9355 79.2099 65.768C79.2495 66.6005 80.0028 67.2745 80.8749 67.2348C81.6281 67.2348 82.302 66.5609 82.302 65.8077Z" fill="#B1D1E1"/>
<path d="M82.3019 65.807C82.3019 66.5602 81.628 67.2342 80.8748 67.2738C80.0026 67.3134 79.2494 66.6395 79.2097 65.807C79.1701 64.9745 79.9233 64.2213 80.7558 64.2213C81.5883 64.1817 82.3019 64.8952 82.3019 65.807Z" fill="#E0EBEF"/>
</svg>
