<svg width="20" height="8" viewBox="0 0 20 8" fill="none" xmlns="http://www.w3.org/2000/svg">
<path d="M2.376 6.40524C2.9999 6.40524 3.6238 6.40524 4.24382 6.40524C4.81734 6.40524 5.47225 5.86272 5.21649 5.05668C5.09248 4.66917 4.70109 4.39403 4.2632 4.39016C3.24791 4.37853 2.23262 4.37078 1.21345 4.36303C0.946065 4.35916 0.678679 4.37078 0.411293 4.35528C0.171033 4.33978 -0.0110986 4.11502 0.000526868 3.87089C0.00827718 3.64613 0.221411 3.44074 0.457795 3.44074C1.46146 3.43687 2.46512 3.43687 3.46879 3.43299C3.79043 3.42912 4.11207 3.42912 4.4337 3.39424C4.85222 3.34774 5.19323 2.99123 5.26686 2.56884C5.33662 2.16582 5.12348 1.73568 4.75534 1.53417C4.58871 1.44117 4.41045 1.39466 4.2167 1.39854C2.99215 1.39854 1.7676 1.39854 0.539173 1.39854C0.295038 1.39854 0.105156 1.27453 0.035403 1.0769C-0.0731013 0.759138 0.171034 0.441375 0.535298 0.441375C1.13982 0.4375 1.74822 0.4375 2.35662 0.4375C2.95727 0.4375 3.56179 0.4375 4.16244 0.4375C5.25136 0.4375 6.05739 1.10015 6.22403 2.17357C6.31315 2.74709 6.12715 3.26249 5.75126 3.70813C5.73576 3.72751 5.71638 3.74301 5.70088 3.76238C5.58075 3.89801 5.57687 3.92514 5.70088 4.05302C5.95664 4.32041 6.11552 4.63429 6.20077 4.99468C6.39453 5.83171 5.94501 6.77725 5.17386 7.15314C4.8716 7.3004 4.54996 7.37403 4.2167 7.37403C2.99602 7.3779 1.77535 7.37403 0.554674 7.37403C0.279538 7.37403 0.0935304 7.23452 0.035403 6.99426C-0.0343498 6.71525 0.167158 6.44011 0.45392 6.43624C0.96544 6.42849 1.47309 6.42849 1.98461 6.42849C2.12024 6.42849 2.25199 6.42849 2.38762 6.42849C2.376 6.40911 2.376 6.40911 2.376 6.40524Z" fill="#056FAD"/>
<path d="M14.4242 3.90567C14.3196 3.77392 14.2111 3.65766 14.1219 3.52591C13.2772 2.27036 14.0212 0.63504 15.5247 0.449032C15.6797 0.429657 15.8425 0.425781 16.0014 0.425781C17.1484 0.425781 18.2916 0.425781 19.4386 0.425781C19.5975 0.425781 19.737 0.464533 19.8494 0.580787C19.985 0.724168 20.0432 0.894675 19.9618 1.08843C19.8765 1.28994 19.7138 1.3907 19.4968 1.3907C18.6675 1.3907 17.8421 1.3907 17.0128 1.3907C16.602 1.3907 16.1913 1.38682 15.7844 1.3907C15.1992 1.39457 14.7691 1.80146 14.7303 2.38273C14.6993 2.84 15.1062 3.34765 15.5712 3.3864C16.0479 3.42515 16.5323 3.42903 17.0128 3.4329C17.8576 3.44065 18.7024 3.43678 19.5472 3.44065C19.7758 3.44065 19.954 3.59566 19.9928 3.82042C20.0315 4.04905 19.9192 4.25444 19.706 4.33194C19.6402 4.35519 19.5665 4.35906 19.4968 4.35906C18.8302 4.36294 18.1676 4.35906 17.5011 4.36681C16.881 4.37457 16.2649 4.37457 15.6449 4.40557C15.207 4.42882 14.9202 4.6962 14.7768 5.09534C14.6373 5.47898 14.7691 5.88587 15.0907 6.15714C15.3039 6.33927 15.5557 6.40902 15.8309 6.40902C17.0322 6.40902 18.2296 6.41677 19.4309 6.42065C19.5239 6.42065 19.6285 6.42452 19.7138 6.4594C19.9192 6.54465 20.0277 6.76166 19.985 6.97092C19.9424 7.18793 19.7448 7.35843 19.5084 7.36231C19.2294 7.36618 18.9465 7.36618 18.6675 7.36618C17.6948 7.36618 16.7183 7.37006 15.7456 7.36618C15.2767 7.36231 14.8505 7.21893 14.4862 6.91279C13.5833 6.15714 13.5252 4.82796 14.3506 3.99092C14.3777 3.95605 14.4048 3.92892 14.4242 3.90567Z" fill="#056FAD"/>
<path d="M10.7579 0.479821C11.4089 0.479821 12.0638 0.475945 12.7149 0.483696C12.959 0.487571 13.1218 0.673578 13.1334 0.913838C13.145 1.18122 12.9629 1.38661 12.6955 1.39048C12.1258 1.39823 11.5601 1.39436 10.9904 1.39823C10.3316 1.39823 9.669 1.39436 9.01022 1.40211C8.59945 1.40598 8.23906 1.54549 8.02205 1.91363C7.65779 2.52203 8.01043 3.28543 8.70796 3.41719C8.80096 3.43656 8.89784 3.44431 8.99472 3.44431C9.69225 3.44819 10.3898 3.44431 11.0912 3.44431C11.6996 3.44431 12.215 3.6497 12.6335 4.10309C13.4899 5.02538 13.2109 6.58706 12.0871 7.15284C11.7461 7.32334 11.3896 7.40085 11.0098 7.40085C9.88213 7.40085 8.75058 7.40085 7.62291 7.40085C7.52991 7.40085 7.43691 7.40472 7.34778 7.38535C7.05327 7.33497 6.89826 7.13346 6.92151 6.8467C6.94089 6.59481 7.13464 6.43206 7.44078 6.42818C8.0298 6.42431 8.61883 6.42431 9.20785 6.42431C9.85113 6.42431 10.4944 6.42818 11.1416 6.42043C11.5949 6.41656 11.9786 6.13367 12.122 5.71515C12.3312 5.099 11.8546 4.4131 11.2036 4.40535C10.506 4.3976 9.8085 4.40148 9.1071 4.40148C8.71571 4.40148 8.33594 4.35885 7.97555 4.17284C7.2354 3.7892 6.81301 2.9793 6.92926 2.15776C7.06877 1.18122 7.87867 0.46432 8.87459 0.45657C9.50236 0.448819 10.1301 0.45657 10.7579 0.45657C10.7579 0.460445 10.7579 0.468195 10.7579 0.479821Z" fill="#056FAD"/>
</svg>
