<svg width="18" height="18" viewBox="0 0 18 18" fill="none" xmlns="http://www.w3.org/2000/svg">
<circle opacity="0.1" cx="9" cy="9" r="9" transform="rotate(-90 9 9)" fill="#3DA23F"/>
<path d="M6.54297 5.14746H8.7346C9.76408 5.14746 10.5088 5.30135 10.9687 5.60914C11.4286 5.91692 11.6585 6.40336 11.6585 7.06845C11.6585 7.52836 11.5294 7.90866 11.2712 8.20937C11.0164 8.50654 10.6432 8.69935 10.1515 8.78779V8.84086C11.3295 9.04251 11.9186 9.66161 11.9186 10.6982C11.9186 11.3916 11.6833 11.9328 11.2128 12.322C10.7458 12.7111 10.0913 12.9057 9.24934 12.9057H6.54297V5.14746ZM7.44509 8.46939H8.93094C9.56773 8.46939 10.0259 8.37034 10.3054 8.17223C10.5848 7.97057 10.7246 7.63272 10.7246 7.15866C10.7246 6.72352 10.5689 6.41043 10.2576 6.21939C9.94627 6.02482 9.45099 5.92753 8.77174 5.92753H7.44509V8.46939ZM7.44509 9.23355V12.1363H9.06361C9.68978 12.1363 10.1603 12.016 10.4752 11.7754C10.7936 11.5313 10.9528 11.151 10.9528 10.6345C10.9528 10.1534 10.79 9.79958 10.4645 9.57317C10.1426 9.34675 9.65087 9.23355 8.98931 9.23355H7.44509Z" fill="#3DA23F"/>
</svg>
