<svg width="16" height="16" viewBox="0 0 16 16" fill="none" xmlns="http://www.w3.org/2000/svg">
<path d="M14.2857 1.71428H12.5714V0.571439C12.5714 0.255837 12.3156 0 12 0C11.6844 0 11.4286 0.255837 11.4286 0.571439V1.71428H4.57141V0.571439C4.57141 0.255837 4.31558 0 4.00001 0C3.68444 0 3.42857 0.255837 3.42857 0.571439V1.71428H1.71428C0.767511 1.71428 0 2.4818 0 3.42857V14.2857C0 15.2325 0.767511 16 1.71428 16H14.2857C15.2325 16 16 15.2325 16 14.2857V3.42857C16 2.4818 15.2325 1.71428 14.2857 1.71428ZM14.8571 14.2857C14.8571 14.6013 14.6013 14.8572 14.2857 14.8572H1.71428C1.39868 14.8572 1.14285 14.6013 1.14285 14.2857V6.85714H14.8571V14.2857ZM14.8571 5.71429H1.14285V3.42857C1.14285 3.11297 1.39868 2.85713 1.71428 2.85713H3.42857V3.99997C3.42857 4.31558 3.68441 4.57141 4.00001 4.57141C4.31561 4.57141 4.57145 4.31558 4.57145 3.99997V2.85713H11.4286V3.99997C11.4286 4.31558 11.6844 4.57141 12 4.57141C12.3156 4.57141 12.5715 4.31558 12.5715 3.99997V2.85713H14.2857C14.6014 2.85713 14.8572 3.11297 14.8572 3.42857V5.71429H14.8571Z" fill="#BEC1D1"/>
<path d="M4.57122 8H3.42837C3.11277 8 2.85693 8.25584 2.85693 8.57144C2.85693 8.88704 3.11277 9.14287 3.42837 9.14287H4.57122C4.88682 9.14287 5.14266 8.88704 5.14266 8.57144C5.14266 8.25584 4.88682 8 4.57122 8Z" fill="#BEC1D1"/>
<path d="M8.57122 8H7.42837C7.11277 8 6.85693 8.25584 6.85693 8.57144C6.85693 8.88704 7.11277 9.14287 7.42837 9.14287H8.57122C8.88682 9.14287 9.14266 8.88704 9.14266 8.57144C9.14266 8.25584 8.88682 8 8.57122 8Z" fill="#BEC1D1"/>
<path d="M12.5717 8H11.4289C11.1133 8 10.8574 8.25584 10.8574 8.57144C10.8574 8.88704 11.1133 9.14287 11.4289 9.14287H12.5717C12.8873 9.14287 13.1431 8.88704 13.1431 8.57144C13.1431 8.25584 12.8873 8 12.5717 8Z" fill="#BEC1D1"/>
<path d="M4.57122 10.2861H3.42837C3.11277 10.2861 2.85693 10.542 2.85693 10.8576C2.85693 11.1732 3.11277 11.429 3.42837 11.429H4.57122C4.88682 11.429 5.14266 11.1732 5.14266 10.8576C5.14266 10.542 4.88682 10.2861 4.57122 10.2861Z" fill="#BEC1D1"/>
<path d="M8.57122 10.2861H7.42837C7.11277 10.2861 6.85693 10.542 6.85693 10.8576C6.85693 11.1732 7.11277 11.429 7.42837 11.429H8.57122C8.88682 11.429 9.14266 11.1732 9.14266 10.8576C9.14266 10.542 8.88682 10.2861 8.57122 10.2861Z" fill="#BEC1D1"/>
<path d="M12.5717 10.2861H11.4289C11.1133 10.2861 10.8574 10.542 10.8574 10.8576C10.8574 11.1732 11.1133 11.429 11.4289 11.429H12.5717C12.8873 11.429 13.1431 11.1732 13.1431 10.8576C13.1431 10.542 12.8873 10.2861 12.5717 10.2861Z" fill="#BEC1D1"/>
<path d="M4.57122 12.5708H3.42837C3.11277 12.5708 2.85693 12.8266 2.85693 13.1422C2.85693 13.4578 3.11277 13.7136 3.42837 13.7136H4.57122C4.88682 13.7136 5.14266 13.4578 5.14266 13.1422C5.14266 12.8266 4.88682 12.5708 4.57122 12.5708Z" fill="#BEC1D1"/>
<path d="M8.57122 12.5708H7.42837C7.11277 12.5708 6.85693 12.8266 6.85693 13.1422C6.85693 13.4578 7.11277 13.7137 7.42837 13.7137H8.57122C8.88682 13.7137 9.14266 13.4578 9.14266 13.1422C9.14266 12.8266 8.88682 12.5708 8.57122 12.5708Z" fill="#BEC1D1"/>
<path d="M12.5717 12.5708H11.4289C11.1133 12.5708 10.8574 12.8266 10.8574 13.1422C10.8574 13.4578 11.1133 13.7137 11.4289 13.7137H12.5717C12.8873 13.7137 13.1431 13.4578 13.1431 13.1422C13.1431 12.8266 12.8873 12.5708 12.5717 12.5708Z" fill="#BEC1D1"/>
</svg>
