<svg id="Layer_1" data-name="Layer 1" xmlns="http://www.w3.org/2000/svg" viewBox="0 0 24 24"><defs><style>.cls-1{fill:#938e85;}</style></defs><path class="cls-1" d="M20.1,23.57H3.9a2.32,2.32,0,0,1-2.32-2.31V5.06a2.32,2.32,0,0,1,.68-1.64A2.36,2.36,0,0,1,3.9,2.74H6.21V.43H8.53V2.74h6.94V.43h2.32V2.74H20.1a2.36,2.36,0,0,1,1.64.68,2.32,2.32,0,0,1,.68,1.64v16.2a2.32,2.32,0,0,1-2.32,2.31ZM3.9,9.69V21.26H20.1V9.69Zm0-4.63V7.37H20.1V5.06ZM17.79,18.94H15.47V16.63h2.32Zm-4.63,0H10.84V16.63h2.32Zm-4.63,0H6.21V16.63H8.53Zm9.26-4.63H15.47V12h2.32Zm-4.63,0H10.84V12h2.32Zm-4.63,0H6.21V12H8.53Z"/></svg>