<svg width="16" height="16" viewBox="0 0 16 16" fill="none" xmlns="http://www.w3.org/2000/svg">
<path d="M0.1 8C0.1 3.63326 3.6336 0.1 8 0.1C12.3667 0.1 15.9 3.63357 15.9 8C15.9 12.3667 12.3664 15.9 8 15.9C3.63326 15.9 0.1 12.3664 0.1 8ZM1.15 8C1.15 11.7863 4.21402 14.85 8 14.85C11.7863 14.85 14.85 11.786 14.85 8C14.85 4.21374 11.786 1.15 8 1.15C4.21374 1.15 1.15 4.21399 1.15 8Z" fill="#F6821F" stroke="#F9F9F9" stroke-width="0.2"/>
<path d="M10.7373 9.8534L8.8841 8.00021L10.7373 6.14702C10.9814 5.90296 10.9814 5.50724 10.7373 5.26315C10.4932 5.01905 10.0975 5.01909 9.85345 5.26315L8.00023 7.11634L6.14701 5.26315C5.90298 5.01905 5.5072 5.01905 5.26313 5.26315C5.01907 5.50724 5.01907 5.90296 5.26316 6.14702L7.11635 8.00021L5.26316 9.8534C5.01907 10.0975 5.01904 10.4932 5.26313 10.7373C5.50729 10.9814 5.90301 10.9813 6.14701 10.7373L8.00023 8.88409L9.85345 10.7373C10.0974 10.9813 10.4932 10.9814 10.7373 10.7373C10.9814 10.4932 10.9814 10.0975 10.7373 9.8534Z" fill="#F6821F"/>
</svg>
