<svg width="26" height="26" viewBox="0 0 26 26" fill="none" xmlns="http://www.w3.org/2000/svg">
<path d="M25.67 13.835C25.67 20.3713 20.3713 25.67 13.835 25.67C7.29871 25.67 2 20.3713 2 13.835C2 7.29871 7.29871 2 13.835 2C20.3713 2 25.67 7.29871 25.67 13.835Z" fill="#043B73"/>
<path d="M14.575 17L12.3333 14.6667V14H13.5C13.7944 14 14.0487 13.9041 14.2627 13.7123C14.4764 13.5208 14.6056 13.2833 14.65 13H12V12.3333H14.55C14.4556 12.1389 14.3153 11.9791 14.1293 11.854C13.9431 11.7291 13.7333 11.6667 13.5 11.6667H12V11H16V11.6667H14.9167C14.9944 11.7611 15.0639 11.8639 15.125 11.975C15.1861 12.0861 15.2333 12.2056 15.2667 12.3333H16V13H15.325C15.2806 13.4722 15.0861 13.868 14.7417 14.1873C14.3972 14.5069 13.9833 14.6667 13.5 14.6667H13.2583L15.5 17H14.575Z" fill="white"/>
<path d="M6 10C6 9.73478 6.10536 9.48043 6.29289 9.29289C6.48043 9.10536 6.73478 9 7 9H21C21.2652 9 21.5196 9.10536 21.7071 9.29289C21.8946 9.48043 22 9.73478 22 10V18C22 18.2652 21.8946 18.5196 21.7071 18.7071C21.5196 18.8946 21.2652 19 21 19H7C6.73478 19 6.48043 18.8946 6.29289 18.7071C6.10536 18.5196 6 18.2652 6 18V10ZM9 10C9 10.5304 8.78929 11.0391 8.41421 11.4142C8.03914 11.7893 7.53043 12 7 12V16C7.53043 16 8.03914 16.2107 8.41421 16.5858C8.78929 16.9609 9 17.4696 9 18H19C19 17.4696 19.2107 16.9609 19.5858 16.5858C19.9609 16.2107 20.4696 16 21 16V12C20.4696 12 19.9609 11.7893 19.5858 11.4142C19.2107 11.0391 19 10.5304 19 10H9Z" fill="white"/>
</svg>
