<svg width="24" height="21" viewBox="0 0 24 21" fill="none" xmlns="http://www.w3.org/2000/svg">
<path d="M3.95864 17.4165C4.09722 17.4165 4.2358 17.3636 4.34163 17.2578L10.4586 11.1408L13.3256 14.0078C13.5373 14.2194 13.88 14.2194 14.0916 14.0078L21.8336 6.2658V8.20819C21.8336 8.50759 22.0759 8.74987 22.3753 8.74987C22.6747 8.74987 22.917 8.50759 22.917 8.20819V4.95819C22.917 4.65878 22.6747 4.4165 22.3753 4.4165H19.1253C18.8259 4.4165 18.5836 4.65878 18.5836 4.95819C18.5836 5.25759 18.8259 5.49987 19.1253 5.49987H21.0677L13.7086 12.8589L10.8416 9.99188C10.63 9.78027 10.2873 9.78027 10.0757 9.99188L3.5757 16.4919C3.36409 16.7035 3.36409 17.0463 3.5757 17.2578C3.68147 17.3636 3.82006 17.4165 3.95864 17.4165Z" fill="#666666"/>
<line x1="0.5" y1="20.5" x2="23.5" y2="20.5" stroke="#666666" stroke-linecap="round"/>
<path d="M0.5 0.5L0.500001 20.5" stroke="#666666" stroke-linecap="round"/>
</svg>
