<svg width="12" height="11" viewBox="0 0 12 11" fill="none" xmlns="http://www.w3.org/2000/svg">
    <g clip-path="url(#vpbs9gp5oa)">
        <path d="M1.888 8.818a.25.25 0 0 0 .183-.08L4.989 5.64l1.368 1.451a.248.248 0 0 0 .366 0l3.693-3.92v.984c0 .152.116.274.259.274.142 0 .258-.122.258-.274V2.511c0-.152-.116-.275-.258-.275H9.124c-.143 0-.258.123-.258.275 0 .151.115.274.258.274h.927L6.54 6.51 5.172 5.059a.248.248 0 0 0-.365 0L1.706 8.35a.286.286 0 0 0 0 .388.25.25 0 0 0 .182.08z" fill="#F5821F"/>
        <path d="M.24 10.38h10.972M.24.253V10.38" stroke="#F5821F" stroke-width=".889" stroke-linecap="round"/>
    </g>
    <defs>
        <clipPath id="vpbs9gp5oa">
            <path fill="#fff" d="M0 0h11.45v10.632H0z"/>
        </clipPath>
    </defs>
</svg>
