<svg width="275" height="275" viewBox="0 0 275 275" fill="none" xmlns="http://www.w3.org/2000/svg">
<circle opacity="0.5" cx="137.5" cy="137.5" r="137.5" fill="#127CDD" fill-opacity="0.1"/>
<path d="M138.001 234.667C191.388 234.667 234.667 191.388 234.667 138.001C234.667 84.6131 191.388 41.334 138.001 41.334C84.6131 41.334 41.334 84.6131 41.334 138.001C41.334 191.388 84.6131 234.667 138.001 234.667Z" fill="#00ACC1"/>
<path d="M137.999 215.333C180.709 215.333 215.333 180.709 215.333 137.999C215.333 95.2893 180.709 60.666 137.999 60.666C95.2893 60.666 60.666 95.2893 60.666 137.999C60.666 180.709 95.2893 215.333 137.999 215.333Z" fill="#EEEEEE"/>
<path d="M133.166 75.166H142.833V137.999H133.166V75.166Z" fill="black"/>
<path d="M173.21 165.328L165.356 173.187L133.92 141.751L141.779 133.887L173.21 165.328Z" fill="black"/>
<path d="M138.001 147.667C143.339 147.667 147.667 143.339 147.667 138.001C147.667 132.662 143.339 128.334 138.001 128.334C132.662 128.334 128.334 132.662 128.334 138.001C128.334 143.339 132.662 147.667 138.001 147.667Z" fill="black"/>
<path d="M137.999 142.833C140.669 142.833 142.833 140.669 142.833 137.999C142.833 135.33 140.669 133.166 137.999 133.166C135.33 133.166 133.166 135.33 133.166 137.999C133.166 140.669 135.33 142.833 137.999 142.833Z" fill="#00ACC1"/>
</svg>
