<svg width="28" height="28" viewBox="0 0 28 28" fill="none" xmlns="http://www.w3.org/2000/svg">
<path d="M10.5631 2.99609C10.8413 2.99609 11.0673 3.22189 11.0673 3.50011L11.0673 10.5582C11.0673 10.8364 10.8413 11.0622 10.5631 11.0622L3.50518 11.0622C3.22677 11.0622 3.00098 10.8364 3.00098 10.5582C3.00098 10.2798 3.22677 10.054 3.50518 10.054L10.0589 10.054L10.0589 3.50011C10.0589 3.22189 10.2849 2.99609 10.5631 2.99609Z" fill="#999999"/>
<path d="M11.0673 3.50011L11.0173 3.50011L11.0673 3.50011ZM11.0673 10.5582L11.1173 10.5582L11.0673 10.5582ZM10.5631 11.0622L10.5631 11.1122L10.5631 11.0622ZM3.50518 11.0622L3.50518 11.0122L3.50518 11.0622ZM3.50518 10.054L3.50518 10.004L3.50518 10.054ZM10.0589 10.054L10.0589 10.104L10.1089 10.104L10.1089 10.054L10.0589 10.054ZM10.0589 3.50011L10.0089 3.50011L10.0589 3.50011ZM10.5631 3.04609C10.8137 3.04609 11.0173 3.24952 11.0173 3.50011L11.1173 3.50011C11.1173 3.19425 10.8689 2.94609 10.5631 2.94609L10.5631 3.04609ZM11.0173 3.50011L11.0173 10.5582L11.1173 10.5582L11.1173 3.50011L11.0173 3.50011ZM11.0173 10.5582C11.0173 10.8088 10.8137 11.0122 10.5631 11.0122L10.5631 11.1122C10.8689 11.1122 11.1173 10.8641 11.1173 10.5582L11.0173 10.5582ZM10.5631 11.0122L3.50518 11.0122L3.50518 11.1122L10.5631 11.1122L10.5631 11.0122ZM3.50518 11.0122C3.25437 11.0122 3.05098 10.8088 3.05098 10.5582L2.95098 10.5582C2.95098 10.864 3.19917 11.1122 3.50518 11.1122L3.50518 11.0122ZM3.05098 10.5582C3.05098 10.3074 3.25438 10.104 3.50518 10.104L3.50518 10.004C3.19915 10.004 2.95098 10.2522 2.95098 10.5582L3.05098 10.5582ZM3.50518 10.104L10.0589 10.104L10.0589 10.004L3.50518 10.004L3.50518 10.104ZM10.1089 10.054L10.1089 3.50011L10.0089 3.50011L10.0089 10.054L10.1089 10.054ZM10.1089 3.50011C10.1089 3.24952 10.3124 3.04609 10.5631 3.04609L10.5631 2.94609C10.2573 2.94609 10.0089 3.19425 10.0089 3.50011L10.1089 3.50011Z" fill="white"/>
<path d="M17.4376 2.99609C17.716 2.99609 17.9418 3.22189 17.9418 3.50011L17.9418 10.054L24.4957 10.054C24.7739 10.054 24.9997 10.2798 24.9997 10.5582C24.9997 10.8364 24.7739 11.0622 24.4957 11.0622L17.4376 11.0622C17.1594 11.0622 16.9336 10.8364 16.9336 10.5582L16.9336 3.50011C16.9336 3.22189 17.1594 2.99609 17.4376 2.99609Z" fill="#999999"/>
<path d="M17.9418 3.50011L17.8918 3.50011L17.9418 3.50011ZM17.9418 10.054L17.8918 10.054L17.8918 10.104L17.9418 10.104L17.9418 10.054ZM24.4957 10.054L24.4957 10.104L24.4957 10.054ZM24.4957 11.0622L24.4957 11.1122L24.4957 11.0622ZM17.4376 11.0622L17.4376 11.0122L17.4376 11.0622ZM16.9336 10.5582L16.9836 10.5582L16.9336 10.5582ZM16.9336 3.50011L16.8836 3.50011L16.9336 3.50011ZM17.4376 3.04609C17.6884 3.04609 17.8918 3.24951 17.8918 3.50011L17.9918 3.50011C17.9918 3.19426 17.7436 2.94609 17.4376 2.94609L17.4376 3.04609ZM17.8918 3.50011L17.8918 10.054L17.9918 10.054L17.9918 3.50011L17.8918 3.50011ZM17.9418 10.104L24.4957 10.104L24.4957 10.004L17.9418 10.004L17.9418 10.104ZM24.4957 10.104C24.7463 10.104 24.9497 10.3074 24.9497 10.5582L25.0497 10.5582C25.0497 10.2522 24.8015 10.004 24.4957 10.004L24.4957 10.104ZM24.9497 10.5582C24.9497 10.8088 24.7463 11.0122 24.4957 11.0122L24.4957 11.1122C24.8015 11.1122 25.0497 10.864 25.0497 10.5582L24.9497 10.5582ZM24.4957 11.0122L17.4376 11.0122L17.4376 11.1122L24.4957 11.1122L24.4957 11.0122ZM17.4376 11.0122C17.187 11.0122 16.9836 10.8088 16.9836 10.5582L16.8836 10.5582C16.8836 10.864 17.1318 11.1122 17.4376 11.1122L17.4376 11.0122ZM16.9836 10.5582L16.9836 3.50011L16.8836 3.50011L16.8836 10.5582L16.9836 10.5582ZM16.9836 3.50011C16.9836 3.2495 17.187 3.04609 17.4376 3.04609L17.4376 2.94609C17.1318 2.94609 16.8836 3.19427 16.8836 3.50011L16.9836 3.50011Z" fill="white"/>
<path d="M17.4386 16.9336L24.4967 16.9336C24.7749 16.9336 25.0007 17.1596 25.0007 17.4378C25.0007 17.716 24.7749 17.942 24.4967 17.942L17.9428 17.942L17.9428 24.4957C17.9428 24.7741 17.717 24.9999 17.4386 24.9999C17.1604 24.9999 16.9346 24.7741 16.9346 24.4957L16.9346 17.4378C16.9346 17.1596 17.1604 16.9336 17.4386 16.9336V16.9336Z" fill="#999999"/>
<path d="M24.4967 16.9336L24.4967 16.9836L24.4967 16.9336ZM25.0007 17.4378L25.0507 17.4378L25.0007 17.4378ZM24.4967 17.942L24.4967 17.992L24.4967 17.942ZM17.9428 17.942L17.9428 17.892L17.8928 17.892L17.8928 17.942L17.9428 17.942ZM17.9428 24.4957L17.9928 24.4957L17.9428 24.4957ZM17.4386 24.9999L17.4386 25.0499L17.4386 24.9999ZM16.9346 24.4957L16.8846 24.4957L16.9346 24.4957ZM16.9346 17.4378L16.9846 17.4378L16.9346 17.4378ZM17.4386 16.9836L24.4967 16.9836L24.4967 16.8836L17.4386 16.8836L17.4386 16.9836ZM24.4967 16.9836C24.7472 16.9836 24.9507 17.1872 24.9507 17.4378L25.0507 17.4378C25.0507 17.132 24.8025 16.8836 24.4967 16.8836L24.4967 16.9836ZM24.9507 17.4378C24.9507 17.6884 24.7472 17.892 24.4967 17.892L24.4967 17.992C24.8025 17.992 25.0507 17.7436 25.0507 17.4378L24.9507 17.4378ZM24.4967 17.892L17.9428 17.892L17.9428 17.992L24.4967 17.992L24.4967 17.892ZM17.8928 17.942L17.8928 24.4957L17.9928 24.4957L17.9928 17.942L17.8928 17.942ZM17.8928 24.4957C17.8928 24.7465 17.6894 24.9499 17.4386 24.9499L17.4386 25.0499C17.7446 25.0499 17.9928 24.8017 17.9928 24.4957L17.8928 24.4957ZM17.4386 24.9499C17.188 24.9499 16.9846 24.7465 16.9846 24.4957L16.8846 24.4957C16.8846 24.8017 17.1327 25.0499 17.4386 25.0499L17.4386 24.9499ZM16.9846 24.4957L16.9846 17.4378L16.8846 17.4378L16.8846 24.4957L16.9846 24.4957ZM16.9846 17.4378C16.9846 17.1872 17.188 16.9836 17.4386 16.9836L17.4386 16.8836C17.1327 16.8836 16.8846 17.132 16.8846 17.4378L16.9846 17.4378Z" fill="white"/>
<path d="M3.50518 16.9414L10.5631 16.9414C10.8413 16.9414 11.0673 17.1674 11.0673 17.4456L11.0673 24.5035C11.0673 24.7819 10.8413 25.0077 10.5631 25.0077C10.2849 25.0077 10.0589 24.7819 10.0589 24.5035L10.0589 17.9498L3.50518 17.9498C3.22677 17.9498 3.00098 17.7238 3.00098 17.4456C3.00098 17.1674 3.22677 16.9414 3.50518 16.9414Z" fill="#999999"/>
<path d="M3.50518 16.9414L3.50518 16.8914L3.50518 16.9414ZM10.5631 16.9414L10.5631 16.9914L10.5631 16.9414ZM11.0673 17.4456L11.0173 17.4456L11.0673 17.4456ZM11.0673 24.5035L11.1173 24.5035L11.0673 24.5035ZM10.0589 24.5035L10.1089 24.5035L10.0589 24.5035ZM10.0589 17.9498L10.1089 17.9498L10.1089 17.8998L10.0589 17.8998L10.0589 17.9498ZM3.50518 17.9498L3.50518 17.8998L3.50518 17.9498ZM3.50518 16.9914L10.5631 16.9914L10.5631 16.8914L3.50518 16.8914L3.50518 16.9914ZM10.5631 16.9914C10.8137 16.9914 11.0173 17.195 11.0173 17.4456L11.1173 17.4456C11.1173 17.1398 10.8689 16.8914 10.5631 16.8914L10.5631 16.9914ZM11.0173 17.4456L11.0173 24.5035L11.1173 24.5035L11.1173 17.4456L11.0173 17.4456ZM11.0173 24.5035C11.0173 24.7543 10.8137 24.9577 10.5631 24.9577L10.5631 25.0577C10.8689 25.0577 11.1173 24.8095 11.1173 24.5035L11.0173 24.5035ZM10.5631 24.9577C10.3125 24.9577 10.1089 24.7543 10.1089 24.5035L10.0089 24.5035C10.0089 24.8095 10.2572 25.0577 10.5631 25.0577L10.5631 24.9577ZM10.1089 24.5035L10.1089 17.9498L10.0089 17.9498L10.0089 24.5035L10.1089 24.5035ZM10.0589 17.8998L3.50518 17.8998L3.50518 17.9998L10.0589 17.9998L10.0589 17.8998ZM3.50518 17.8998C3.25439 17.8998 3.05098 17.6962 3.05098 17.4456L2.95098 17.4456C2.95098 17.7514 3.19914 17.9998 3.50518 17.9998L3.50518 17.8998ZM3.05098 17.4456C3.05098 17.195 3.25439 16.9914 3.50518 16.9914L3.50518 16.8914C3.19914 16.8914 2.95098 17.1398 2.95098 17.4456L3.05098 17.4456Z" fill="white"/>
</svg>
