<svg width="621" height="320" viewBox="0 0 621 320" fill="none" xmlns="http://www.w3.org/2000/svg">
<path d="M445.666 262.421C439.491 260.146 440.683 254.513 440.575 249.963C440.466 234.472 440.683 218.981 440.791 203.382C440.9 183.992 453.899 170.776 473.289 170.559C483.364 170.451 483.364 170.451 481.089 160.485C479.681 154.31 478.272 148.244 476.864 142.069C476.106 138.603 475.889 135.245 478.056 132.212C480.114 130.478 482.497 129.612 485.097 129.287C489.755 130.587 491.921 133.945 492.896 138.495C494.955 147.919 497.554 157.235 499.504 166.768C500.263 170.451 501.887 171.534 505.571 171.534C507.954 171.534 510.879 169.368 512.937 172.509C512.828 173.376 512.612 174.242 512.612 175.109C512.612 197.966 512.612 220.823 512.612 243.572C512.612 244.763 512.937 246.063 513.153 247.255C516.945 249.855 516.837 247.146 516.837 244.547C516.837 231.439 517.053 218.223 516.728 205.116C516.62 200.566 518.137 199.699 522.253 199.808C532.219 200.024 542.293 199.916 553.234 199.916C551.934 197.966 551.285 196.774 550.526 195.583C540.019 181.175 529.511 166.768 518.895 152.469C505.462 134.27 492.138 115.963 478.706 97.7638C474.589 92.2391 470.798 86.3894 466.14 81.2981C457.907 68.2989 448.049 56.4912 439.275 43.9253C438.3 42.5171 436.783 41.3255 436.566 39.4839L436.675 39.3756C438.191 39.3756 439.6 39.3756 441.116 39.4839C449.457 50.9666 457.69 62.4492 466.356 74.4735C468.848 64.8324 467.656 55.8413 470.689 47.3918C471.448 45.3336 470.473 42.9504 467.006 42.3004C460.507 41.2171 453.899 40.6755 447.616 38.2923C450.216 38.834 451.732 36.2341 454.115 35.9091C458.99 36.9924 463.756 38.2923 469.389 38.4007C466.681 33.6343 463.756 29.7345 460.398 26.0514C460.723 24.4265 461.157 22.6933 461.482 21.0684C473.939 37.7507 486.505 54.433 498.854 71.2237C529.511 112.821 560.059 154.527 590.607 196.125C592.124 198.183 593.532 200.024 596.457 200.241C606.531 200.999 612.923 206.632 616.497 215.84C617.797 228.731 617.797 241.73 616.714 254.621C616.172 261.229 614.331 262.746 607.831 262.746C553.884 262.529 499.829 262.529 445.666 262.421ZM525.178 252.888C499.721 251.913 474.372 252.779 448.916 252.563C447.399 252.563 444.908 251.263 444.583 254.079C444.258 256.679 445.233 258.737 448.374 258.737C448.916 258.846 449.457 258.954 449.999 258.954C502.429 258.954 554.968 258.954 607.398 258.954C608.264 258.954 609.239 259.062 610.106 258.846C612.273 258.304 613.464 256.788 613.247 254.513C613.031 251.913 610.973 252.671 609.564 252.671C603.065 252.563 596.565 252.563 590.066 252.671C568.4 252.671 546.843 252.779 525.178 252.888ZM524.419 248.121C552.693 248.121 580.966 248.121 609.348 248.338C612.381 248.338 613.464 247.471 613.356 244.33C613.139 236.964 613.572 229.489 613.247 222.123C613.031 216.382 611.081 211.182 605.665 208.04C601.657 204.032 596.673 204.249 591.582 204.249C569.592 204.249 547.601 204.141 525.611 204.032C523.12 204.032 521.17 203.816 521.17 207.499C521.386 220.065 521.278 232.739 521.17 245.413C521.17 248.013 522.253 248.555 524.419 248.121ZM509.254 211.94C509.254 206.307 509.254 200.783 509.254 195.15C509.254 189.517 509.037 183.992 509.362 178.359C509.47 175.326 508.495 174.351 505.462 174.459C494.63 174.676 483.797 174.459 472.964 174.567C456.607 174.676 444.691 186.375 444.474 202.841C444.366 216.49 444.583 230.247 444.366 243.897C444.366 247.146 445.016 248.23 448.482 248.23C467.44 248.013 486.397 248.013 505.246 248.23C508.929 248.23 509.254 246.821 509.254 243.788C509.145 233.281 509.254 222.556 509.254 211.94ZM472.206 82.1647C482.172 95.7055 491.163 107.946 500.913 121.162C502.212 109.68 503.404 99.7136 504.596 89.8559C504.812 87.906 504.487 87.0394 502.212 86.7144C492.788 85.4145 483.255 83.8979 472.206 82.1647ZM474.697 44.5753C471.556 55.5163 472.314 65.9157 470.473 75.9901C470.148 77.7233 471.231 78.0483 472.639 78.2649C482.28 79.6732 491.813 81.1897 502.754 82.8147C493.005 69.5988 484.122 57.4662 474.697 44.5753ZM541.318 135.245C540.019 146.402 538.827 156.26 537.744 166.01C537.527 167.418 537.202 168.826 539.477 169.151C549.118 170.559 558.759 171.968 569.592 173.593C559.842 160.485 550.96 148.352 541.318 135.245ZM533.736 165.901C534.927 155.61 536.01 146.403 537.094 137.303C537.31 135.245 537.744 133.512 534.819 132.97C525.503 131.128 516.187 128.962 506.871 127.012C506.329 126.904 505.896 127.337 506.112 128.312C514.995 140.445 524.094 152.685 533.736 165.901ZM508.495 90.6142C507.304 101.014 506.112 110.221 505.029 119.429C504.921 120.837 504.487 122.354 506.546 122.787C516.295 124.845 525.936 127.012 536.985 129.504C527.236 116.071 518.137 103.83 508.495 90.6142ZM539.044 173.159C545.977 182.692 552.259 191.141 558.976 200.241C562.659 193.091 566.017 186.592 569.375 180.092C570.458 178.034 569.267 177.492 567.75 177.276C558.542 175.976 549.443 174.676 539.044 173.159ZM573.925 179.659C570.892 185.725 568.075 191.141 565.367 196.558C564.825 197.749 563.417 199.483 566.125 199.591C573.383 199.808 580.533 199.699 588.657 199.699C583.349 192.441 578.8 186.267 573.925 179.659Z" fill="#F58220"/>
<path d="M159.898 316.584C109.526 316.584 59.1539 316.584 8.8903 316.584C0.874112 316.584 -0.100826 315.5 0.00750121 307.484C0.115828 283.436 0.115818 259.495 0.115818 235.447C0.115818 228.622 0.115825 228.622 7.26539 228.622C11.9234 228.622 16.6898 228.514 21.3479 228.622C24.0561 228.731 25.1393 228.081 25.1393 225.156C25.5726 213.89 25.6809 213.89 37.1636 213.998C45.2881 213.998 53.4126 214.106 61.5371 213.998C64.7869 213.998 66.4118 214.648 66.4118 218.44C66.4118 228.839 66.6285 228.839 77.2445 228.839C82.9858 228.839 88.8355 228.731 94.5768 228.839C96.8517 228.839 97.8266 228.189 97.7183 225.806C97.61 222.014 97.8266 218.223 97.61 214.431C97.5016 211.615 98.8016 210.532 101.401 210.532C110.934 210.532 120.575 210.64 130.108 210.532C132.491 210.532 133.899 211.398 133.791 213.998C133.791 214.865 133.791 215.84 133.791 216.706C133.899 228.839 133.899 228.839 145.815 228.839C155.781 228.839 165.639 228.622 175.605 228.947C179.288 229.056 180.155 227.756 180.047 224.398C179.83 216.598 180.155 208.907 179.938 201.107C179.83 197.532 181.238 196.449 184.705 196.449C228.035 196.558 271.366 196.558 314.697 196.449C318.813 196.449 319.897 197.857 319.897 201.866C319.788 237.83 319.897 273.686 319.897 309.651C319.897 315.284 318.163 316.692 311.664 316.692C260.967 316.584 210.487 316.584 159.898 316.584ZM311.339 311.492C316.105 313.875 315.455 310.301 315.455 307.701C315.564 273.253 315.564 238.805 315.672 204.357C315.672 200.457 313.83 200.566 311.014 200.566C270.066 200.566 229.119 200.674 188.171 200.457C184.38 200.457 183.73 201.757 183.838 205.115C184.055 212.698 183.838 220.281 183.946 227.864C184.055 231.439 183.08 233.064 179.072 233.064C164.231 232.847 149.498 232.847 134.658 233.064C131.3 233.064 129.783 232.197 129.783 228.514C129.783 224.073 131.841 218.223 128.916 215.515C126.1 212.807 120.359 214.865 115.917 214.756C111.476 214.648 105.626 213.132 102.81 215.406C99.4515 218.006 101.835 224.073 101.618 228.731C101.51 231.98 100.426 233.28 97.1767 233.172C89.5938 232.955 82.0109 233.064 74.428 233.064C62.9454 233.064 62.8371 233.064 62.5121 221.798C62.4037 218.548 61.2121 217.898 58.2873 218.006C52.0044 218.115 45.6131 218.006 39.3301 218.006C29.3641 218.006 29.2557 218.006 29.0391 227.864C28.9307 231.33 27.9558 232.739 24.381 232.63C18.748 232.414 13.2234 232.739 7.59038 232.522C4.77388 232.414 3.69061 233.389 3.79894 236.205C4.01559 241.405 3.79893 246.713 3.90726 251.913C4.01558 270.653 4.01558 289.394 4.12391 308.134C4.12391 310.301 3.79893 312.792 7.37371 312.034C8.99861 312.142 10.6235 312.251 12.2484 312.251C110.284 312.251 208.212 312.251 306.247 312.251C307.981 312.359 309.931 313.117 311.339 311.492Z" fill="#F58220"/>
<path d="M407.425 315.824C397.892 311.491 392.259 304.233 392.584 293.508C392.909 284.084 397.892 277.368 406.775 273.685C410.025 272.385 413.383 272.06 416.849 272.06C431.798 272.06 446.748 271.951 461.588 272.168C465.163 272.168 466.463 271.085 465.813 267.618C466.355 266.427 467.438 266.318 468.521 266.318C484.229 266.427 499.936 266.535 515.752 266.643C514.885 271.085 516.618 272.385 521.168 272.276C535.359 271.951 549.658 272.168 563.849 272.168C579.99 272.168 587.247 278.018 590.497 293.725C589.956 306.833 579.556 316.799 565.149 316.69C516.835 316.149 468.521 316.474 420.207 316.474C415.983 316.474 411.758 316.04 407.425 315.824ZM580.639 281.701C577.065 277.259 572.082 276.176 566.665 276.176C535.684 276.176 504.702 276.176 473.613 276.176C454.005 276.176 434.29 276.068 414.683 276.284C401.359 276.393 393.017 289.175 398 301.091C401.142 308.566 406.883 312.249 414.791 312.249C465.921 312.357 517.16 312.357 568.29 312.249C576.09 312.249 581.723 308.457 584.756 301.308C587.789 293.942 586.489 287.225 580.639 281.701Z" fill="#F58220"/>
<path d="M376.117 165.255C382.075 169.696 387.925 174.029 393.883 178.471C397.891 181.395 401.357 185.078 407.099 184.753C409.59 184.645 411.648 186.703 412.082 189.628C412.515 192.661 411.54 195.045 408.615 196.236C406.882 196.994 405.149 197.428 404.932 199.594C403.307 204.144 401.79 208.694 400.166 213.243C397.349 221.368 392.691 224.618 384.025 224.618C374.492 224.618 364.959 224.618 355.427 224.618C348.819 222.56 345.027 218.01 343.294 211.402C342.427 208.152 341.127 204.902 340.044 201.652C339.178 199.053 338.311 196.886 335.169 195.911C332.57 195.153 331.486 192.445 332.028 189.737C332.461 187.028 334.303 184.645 337.011 184.753C342.319 184.97 345.569 181.612 349.252 178.904C355.427 174.246 361.601 169.588 367.668 164.93C368.859 166.013 369.076 167.421 369.509 168.829C362.793 173.812 356.185 178.687 348.819 184.104C364.526 184.104 379.15 184.104 394.749 184.104C387.6 178.796 381.317 174.029 375.034 169.263C375.25 167.746 375.684 166.446 376.117 165.255ZM350.769 217.252C353.043 220.068 356.293 220.61 359.543 220.826C364.418 221.151 369.292 221.043 374.059 221.043C393.558 221.043 393.991 220.718 399.624 202.302C399.732 201.761 399.732 201.219 399.841 200.678C401.466 198.511 401.574 197.103 398.216 197.103C379.908 197.103 361.601 197.103 342.427 197.103C345.569 204.144 346.11 211.51 350.769 217.252ZM372.217 188.545C361.71 188.545 351.31 188.545 340.802 188.545C339.069 188.545 336.253 187.462 336.144 190.603C336.144 193.528 338.853 192.878 340.694 192.878C361.601 192.878 382.617 192.878 403.524 192.878C405.474 192.878 408.073 193.42 407.965 190.495C407.857 188.112 405.365 188.545 403.632 188.545C393.124 188.437 382.725 188.545 372.217 188.545Z" fill="#F58220"/>
<path d="M436.565 39.3771C434.507 38.6188 433.207 40.027 431.69 40.8936C416.308 50.1014 401.034 59.2009 385.76 68.4087C384.785 60.7175 381.427 54.8678 373.735 52.1596C389.768 40.5687 405.8 28.9777 421.832 17.3867C422.916 27.3528 427.14 35.1523 436.782 39.2687L436.565 39.3771Z" fill="#F58220"/>
<path d="M436.672 39.159C427.031 35.0426 422.914 27.2431 421.723 17.277C423.456 14.3522 423.889 10.7774 426.164 8.06924C432.122 0.811343 440.68 -1.7885 449.346 1.24465C456.929 3.84449 461.587 11.2107 461.695 20.7435C461.37 22.3684 460.937 24.1016 460.612 25.7265C459.637 29.7346 456.604 32.4428 454.221 35.5842C451.838 35.8009 450.321 38.4007 447.721 37.9674C445.771 39.484 443.388 38.9424 441.221 39.159C439.597 39.2674 438.188 39.2674 436.672 39.159ZM450.538 19.9852C450.646 15.8688 446.638 11.5357 442.521 11.2107C438.188 10.9941 433.639 15.3271 433.639 19.6602C433.639 23.7766 437.863 28.0014 441.98 28.1097C446.313 28.218 450.429 24.3183 450.538 19.9852Z" fill="#FDC697"/>
<path d="M515.75 266.645C500.043 266.537 484.335 266.428 468.52 266.32C467.436 266.32 466.353 266.428 465.811 267.62C464.295 266.32 462.453 266.212 460.72 266.428C455.087 267.078 450.104 265.67 445.663 262.312C499.826 262.42 553.881 262.42 608.045 262.529C614.544 262.529 616.386 261.012 616.927 254.404C618.011 241.513 618.011 228.514 616.711 215.623C620.502 218.765 620.719 223.098 620.827 227.431C620.935 237.722 620.935 248.013 620.827 258.304C620.827 265.02 619.202 266.537 612.486 266.537C582.588 266.537 552.689 266.537 522.683 266.537C520.408 266.537 518.025 266.645 515.75 266.645Z" fill="#FDC697"/>
<path d="M407.425 315.824C411.65 316.041 415.983 316.366 420.208 316.366C468.522 316.366 516.835 316.041 565.149 316.582C579.557 316.691 590.064 306.725 590.498 293.617C595.156 307.05 586.49 319.832 572.407 319.832C520.843 319.941 469.172 319.832 417.608 319.832C413.708 319.941 409.7 320.049 407.425 315.824Z" fill="#FDC697"/>
<path d="M373.626 52.1588C381.318 54.867 384.784 60.7166 385.651 68.4078C385.217 68.8412 384.784 69.2745 384.242 69.7078C383.809 73.2825 380.668 75.3408 379.584 78.4822C375.685 78.3739 371.785 80.5405 367.993 79.1322C364.202 77.8323 363.877 79.7822 363.877 82.5987C362.035 80.2155 364.635 75.4491 359.761 74.6908C353.369 62.7749 361.602 51.7255 373.626 52.1588ZM377.201 66.5663C377.201 62.4499 374.926 60.2833 371.243 60.175C367.777 60.0667 365.502 62.4499 365.285 65.9163C365.177 69.7078 367.235 71.9826 371.243 71.9826C374.926 71.8743 376.985 70.0328 377.201 66.5663Z" fill="#FDC697"/>
<path d="M376.119 156.587C379.694 150.954 378.502 147.379 372.436 145.104C371.244 144.671 369.836 144.671 369.619 143.154C368.319 132.755 361.928 123.547 363.011 112.715C363.661 112.173 362.686 109.357 364.528 110.873C370.486 115.964 375.469 113.256 380.452 109.465C379.802 115.748 379.044 121.922 378.502 128.205C378.285 130.914 377.31 132.863 375.252 134.705C372.544 137.088 372.219 139.688 375.794 141.963C384.135 147.379 384.46 154.42 376.985 161.245C375.36 159.837 376.01 158.212 376.119 156.587Z" fill="#F58220"/>
<path d="M466.137 81.1895C470.904 86.2808 474.587 92.1305 478.703 97.6551C477.295 98.6301 477.945 99.8217 478.27 101.013C480.545 110.438 482.819 119.862 485.094 129.287C482.494 129.72 480.003 130.478 478.053 132.211C474.37 117.154 470.687 101.988 467.004 86.9308C466.57 85.0892 465.704 83.2477 466.137 81.1895Z" fill="#FDC697"/>
<path d="M355.429 224.504C364.961 224.504 374.494 224.504 384.027 224.504C392.693 224.504 397.351 221.146 400.168 213.13C401.793 208.58 403.418 204.03 404.934 199.48C409.267 200.347 410.35 202.297 408.292 206.522C406.234 210.638 405.367 215.405 403.634 219.629C401.143 225.479 396.701 228.62 390.202 228.62C381.752 228.62 373.303 228.62 364.853 228.62C361.062 228.62 357.595 228.079 355.429 224.504Z" fill="#FDC697"/>
<path d="M380.344 109.465C375.361 113.148 370.378 115.964 364.42 110.873C362.578 109.248 363.445 112.173 362.903 112.714C361.278 108.49 361.387 104.157 362.036 99.8235C363.12 98.4153 364.203 97.007 365.395 95.4904C369.619 93.8655 373.844 94.0822 378.069 95.4904C378.611 97.657 379.91 99.2819 381.427 100.798C381.319 103.723 382.077 106.756 380.344 109.465ZM371.461 99.7152C368.861 99.7152 367.453 100.907 367.236 103.507C367.02 106.431 368.753 108.056 371.353 108.056C373.952 108.165 375.794 106.215 375.686 103.615C375.686 101.232 373.952 99.8235 371.461 99.7152Z" fill="#FDC697"/>
<path d="M381.317 100.797C379.8 99.2802 378.5 97.6554 377.958 95.4888C378.5 89.8558 379.042 84.2228 379.583 78.4815C380.775 75.34 383.916 73.2818 384.241 69.707C383.266 79.9981 382.292 90.3974 381.317 100.797Z" fill="#F58220"/>
<path d="M376.118 156.586C376.01 158.211 375.36 159.944 376.877 161.244C376.66 162.544 376.335 163.952 376.118 165.252C375.685 166.552 375.36 167.852 374.927 169.044C373.085 168.935 371.244 168.719 369.51 168.61C369.077 167.202 368.86 165.794 367.669 164.711C368.319 163.627 368.21 162.653 367.452 161.786C369.402 160.378 368.319 158.861 367.452 157.345C370.269 156.478 372.868 153.77 376.118 156.586Z" fill="#FDC697"/>
<path d="M365.286 95.4892C364.203 96.8975 363.12 98.3057 361.928 99.8223C360.845 92.0228 359.653 84.3316 358.678 76.5321C358.57 75.9904 359.328 75.3405 359.653 74.7988C364.528 75.5571 362.037 80.3235 363.77 82.7067C364.311 86.8231 364.853 91.1562 365.286 95.4892Z" fill="#F58220"/>
<path d="M367.342 157.342C368.208 158.859 369.183 160.267 367.342 161.784C363.334 160.159 361.059 157.234 360.625 152.901C360.517 151.601 360.517 150.193 362.142 149.976C363.442 149.868 363.983 150.734 364.2 151.926C364.742 154.092 365.392 156.151 367.342 157.342Z" fill="#F58220"/>
<path d="M605.556 208.039C610.972 211.181 612.814 216.38 613.139 222.122C613.464 229.488 613.139 236.854 613.247 244.329C613.355 247.47 612.272 248.337 609.239 248.337C580.965 248.229 552.692 248.228 524.311 248.12C524.311 236.963 524.419 225.913 524.419 214.756C524.419 207.823 525.069 207.173 531.677 207.173C553.992 207.173 576.307 207.173 598.623 207.173C601.114 207.064 603.389 207.281 605.556 208.039ZM596.348 223.313C594.506 223.638 592.123 222.555 590.39 224.505C588.873 226.13 588.982 228.188 590.498 229.921C591.69 231.438 601.006 231.438 602.414 230.03C604.039 228.405 604.039 226.346 602.739 224.613C601.006 222.663 598.623 223.638 596.348 223.313ZM596.998 212.264C595.373 212.372 593.748 212.264 592.123 212.481C590.498 212.697 589.523 213.781 589.307 215.297C589.09 216.814 589.307 218.33 590.823 218.98C594.398 220.497 598.189 220.389 601.764 218.98C603.281 218.33 603.606 216.814 603.389 215.297C603.172 213.781 602.306 212.589 600.681 212.372C599.489 212.372 598.298 212.372 596.998 212.264Z" fill="#FDC697"/>
<path d="M509.252 211.937C509.252 222.553 509.144 233.169 509.36 243.894C509.36 246.927 509.035 248.335 505.352 248.335C486.395 248.118 467.546 248.118 448.589 248.335C445.123 248.335 444.473 247.252 444.473 244.002C444.689 230.353 444.364 216.595 444.581 202.946C444.798 186.48 456.605 174.781 473.071 174.673C483.904 174.564 494.736 174.781 505.569 174.564C508.602 174.564 509.577 175.431 509.469 178.464C509.252 184.097 509.36 189.622 509.36 195.255C509.252 200.78 509.252 206.413 509.252 211.937ZM451.081 216.487C450.972 216.487 450.864 216.487 450.864 216.487C450.864 220.603 450.972 224.828 450.864 228.945C450.756 233.169 451.947 233.819 455.955 232.086C464.621 228.403 472.096 222.337 481.195 219.087C484.445 217.895 488.237 214.104 487.912 209.554C487.262 201.863 487.803 194.063 487.37 186.372C487.262 184.314 488.345 179.981 483.579 179.223C468.305 176.731 453.572 186.805 451.297 201.971C450.431 206.738 451.081 211.612 451.081 216.487ZM504.269 196.446C504.269 191.572 504.377 186.805 503.077 182.039C501.669 177.273 498.094 179.764 495.495 179.331C492.786 178.898 491.703 180.414 491.811 183.231C491.92 191.572 491.811 199.805 491.811 208.146C491.811 209.446 491.703 210.746 493.22 211.287C497.769 212.912 504.269 208.362 504.269 203.488C504.269 201.105 504.269 198.83 504.269 196.446ZM496.361 228.728C498.744 228.511 501.344 228.186 501.561 225.261C501.777 222.228 499.069 221.578 496.795 221.362C494.411 221.145 491.811 222.012 491.595 224.828C491.378 227.753 493.978 228.295 496.361 228.728Z" fill="#FEFEFE"/>
<path d="M525.176 252.889C546.841 252.78 568.398 252.672 590.064 252.564C596.563 252.564 603.063 252.564 609.562 252.564C610.971 252.564 613.029 251.806 613.245 254.405C613.462 256.789 612.271 258.197 610.104 258.739C609.237 258.955 608.262 258.847 607.396 258.847C554.966 258.847 502.427 258.847 449.997 258.847C449.455 258.847 448.914 258.738 448.372 258.63C448.372 254.405 451.622 255.597 453.788 255.489C475.779 255.38 497.769 255.489 519.759 255.38C522.034 255.597 524.743 256.464 525.176 252.889Z" fill="#FDC697"/>
<path d="M605.555 208.043C603.28 207.284 601.005 207.068 598.622 207.068C576.306 207.068 553.991 207.068 531.676 207.068C525.068 207.068 524.418 207.718 524.418 214.651C524.418 225.808 524.31 236.858 524.31 248.015C522.143 248.449 521.06 247.907 521.06 245.307C521.168 232.633 521.276 220.067 521.06 207.393C520.951 203.71 523.01 203.926 525.501 203.926C547.492 204.035 569.482 204.143 591.472 204.143C596.672 204.251 601.655 204.143 605.555 208.043Z" fill="#FEFEFE"/>
<path d="M525.176 252.888C524.742 256.463 522.034 255.596 519.759 255.704C497.769 255.704 475.778 255.704 453.788 255.813C451.513 255.813 448.372 254.729 448.372 258.954C445.23 258.954 444.255 256.896 444.58 254.296C444.905 251.371 447.397 252.671 448.913 252.78C474.37 252.671 499.719 251.913 525.176 252.888Z" fill="#FEFEFE"/>
<path d="M513.043 172.404C513.26 173.488 513.585 174.462 513.585 175.546C513.585 198.511 513.585 221.585 513.585 244.55C513.585 245.417 513.368 246.283 513.26 247.258C513.043 246.067 512.718 244.767 512.718 243.575C512.718 220.718 512.718 197.861 512.718 175.112C512.718 174.246 512.935 173.271 513.043 172.404Z" fill="#FDC697"/>
<path d="M7.48154 312.03C3.90675 312.788 4.23173 310.297 4.23173 308.13C4.12341 289.389 4.12341 270.649 4.01508 251.908C4.01508 246.709 4.1234 241.401 3.90675 236.201C3.79842 233.384 4.88169 232.41 7.69819 232.518C13.3312 232.626 18.8559 232.41 24.4888 232.626C28.0636 232.735 29.1469 231.326 29.1469 227.86C29.3636 218.002 29.4719 218.002 39.438 218.002C45.7209 218.002 52.1122 218.11 58.3952 218.002C61.2117 217.894 62.5116 218.544 62.6199 221.794C62.9449 233.06 63.1615 233.06 74.5358 233.06C82.1187 233.06 89.7016 232.951 97.2845 233.168C100.643 233.276 101.618 231.976 101.726 228.726C101.943 224.177 99.451 218.002 102.917 215.402C105.842 213.236 111.584 214.644 116.025 214.752C120.466 214.861 126.208 212.802 129.024 215.511C131.841 218.219 129.891 224.068 129.891 228.51C129.891 232.193 131.299 233.06 134.766 233.06C149.606 232.951 164.339 232.951 179.18 233.06C183.188 233.06 184.163 231.435 184.054 227.86C183.946 220.277 184.163 212.694 183.946 205.111C183.838 201.753 184.488 200.453 188.279 200.453C229.227 200.561 270.174 200.561 311.122 200.561C313.83 200.561 315.78 200.453 315.78 204.353C315.563 238.801 315.563 273.249 315.563 307.697C315.563 310.297 316.213 313.871 311.447 311.488C313.397 303.039 311.338 300.222 303.322 300.222C207.778 300.222 112.234 300.222 16.6893 300.222C8.23983 300.222 7.6982 300.764 7.58987 309.43C7.48155 310.297 7.48154 311.163 7.48154 312.03ZM258.8 258.95C258.8 263.499 258.8 267.941 258.8 272.49C258.691 276.282 260.533 278.123 264.108 279.423C272.341 282.457 280.898 280.723 289.24 281.157C291.839 281.265 293.789 279.748 293.789 276.932C293.789 267.724 294.331 258.516 293.573 249.417C292.923 240.967 290.323 238.368 285.232 238.151C278.624 237.934 271.907 238.043 265.191 238.043C260.75 238.043 258.691 240.317 258.691 244.759C258.8 249.525 258.8 254.183 258.8 258.95ZM201.603 258.625C201.603 263.283 201.603 267.941 201.603 272.707C201.603 276.282 203.445 278.015 206.695 279.315C214.927 282.348 223.377 280.832 231.718 281.157C234.968 281.265 236.593 279.315 236.593 276.065C236.593 267.399 236.809 258.733 236.484 250.175C236.051 240.859 233.018 238.259 223.919 238.259C218.827 238.259 213.844 238.151 208.753 238.259C203.011 238.368 201.495 239.992 201.495 245.842C201.495 250.067 201.603 254.292 201.603 258.625ZM37.7047 284.623C33.3716 284.623 29.0386 284.515 24.8138 284.623C21.3474 284.731 18.7475 286.465 18.8559 290.148C18.8559 293.723 21.239 295.672 24.8138 295.781C33.2633 295.889 41.7128 295.889 50.1623 295.781C53.7371 295.781 56.1203 293.831 56.1203 290.256C56.1203 286.681 53.7371 284.731 50.1623 284.731C45.9376 284.515 41.8211 284.623 37.7047 284.623ZM80.9271 295.781C85.2602 295.781 89.5933 295.889 93.9264 295.781C97.3928 295.672 99.776 293.723 99.776 290.039C99.776 286.573 97.5011 284.731 94.143 284.731C85.4769 284.623 76.8107 284.623 68.1446 284.731C64.8948 284.731 62.6199 286.681 62.6199 290.148C62.6199 293.939 65.0031 295.672 68.4696 295.889C72.586 295.889 76.8107 295.781 80.9271 295.781ZM222.294 214.536C220.452 214.536 218.719 214.536 216.877 214.536C213.736 214.536 211.678 215.944 211.353 219.194C211.028 222.335 212.653 224.393 215.794 224.935C220.452 225.585 225.11 225.91 229.66 224.718C232.368 223.96 234.318 222.443 233.885 219.41C233.451 216.594 231.61 214.969 228.793 214.752C226.627 214.427 224.46 214.536 222.294 214.536ZM170.297 272.165C171.597 272.165 172.788 272.165 174.088 272.165C177.338 272.274 179.83 271.191 180.046 267.507C180.263 263.716 177.555 262.633 174.522 262.416C171.488 262.199 168.455 262.308 165.314 262.416C162.064 262.524 160.331 264.366 160.114 267.507C160.006 270.541 162.172 271.949 164.88 272.165C166.722 272.382 168.564 272.165 170.297 272.165ZM141.915 250.283C140.074 250.283 138.34 250.283 136.499 250.283C134.007 250.283 132.382 251.042 132.274 253.967C132.166 256.566 133.899 257.65 135.957 257.758C139.749 257.975 143.54 257.975 147.223 257.758C149.39 257.65 150.798 256.025 150.69 253.75C150.581 251.258 149.065 250.392 146.682 250.392C145.057 250.392 143.54 250.283 141.915 250.283ZM285.123 215.077C287.29 215.077 289.456 215.186 291.623 215.077C293.464 214.969 294.764 214.102 294.656 212.044C294.548 210.419 293.356 209.444 291.731 209.444C287.398 209.336 283.065 209.336 278.732 209.444C276.89 209.444 275.482 210.311 275.374 212.261C275.265 214.211 276.782 215.077 278.624 215.186C280.79 215.186 282.957 215.077 285.123 215.077ZM36.0798 253.858C38.5713 253.858 41.0629 253.858 43.6627 253.858C45.3959 253.858 47.6708 254.075 47.8875 251.583C47.9958 249.2 45.9376 248.117 43.9877 248.009C38.788 247.792 33.5883 247.9 28.3886 248.009C26.5471 248.009 25.1388 248.767 25.1388 250.717C25.0305 253.1 26.6554 253.75 28.6053 253.858C30.9885 253.967 33.48 253.858 36.0798 253.858ZM71.7194 253.533C68.7945 253.75 64.6781 252.667 64.5698 257.108C64.4615 261.116 68.2529 261.116 71.5027 261.224C74.5359 261.224 77.7857 261.333 78.0023 257.325C78.219 252.667 74.4275 253.75 71.7194 253.533Z" fill="#FEFEFE"/>
<path d="M7.48047 312.035C7.48047 311.168 7.48047 310.194 7.48047 309.327C7.5888 300.661 8.13042 300.119 16.5799 300.119C112.124 300.119 207.668 300.119 303.213 300.119C311.337 300.119 313.395 302.936 311.337 311.385C309.929 313.01 307.979 312.252 306.246 312.252C208.21 312.252 110.283 312.252 12.2468 312.252C10.7303 312.36 9.10537 312.143 7.48047 312.035Z" fill="#FDC697"/>
<path d="M580.639 281.702C586.488 287.335 587.788 294.051 584.755 301.418C581.722 308.567 576.089 312.359 568.289 312.359C517.159 312.359 465.92 312.467 414.79 312.359C406.882 312.359 401.141 308.567 398 301.201C399.083 299.793 398.541 298.06 398.758 296.543C399.841 287.768 409.266 278.127 420.64 280.511C419.665 280.944 418.69 281.486 417.715 281.919C411.649 284.735 408.941 289.285 409.59 295.676C410.132 300.768 414.249 305.317 419.557 306.509C424.648 307.701 430.498 305.317 433.206 300.118C434.831 296.868 437.105 296.976 439.814 296.976C475.453 296.976 511.093 296.976 546.841 296.976C550.307 296.976 552.69 297.518 554.532 301.093C557.132 306.076 563.523 307.917 568.614 306.184C574.464 304.342 577.605 299.684 577.605 293.51C577.605 286.577 572.731 283.652 567.639 280.619C572.189 278.236 576.305 280.944 580.639 281.702Z" fill="#FDC697"/>
<path d="M420.532 280.402C409.158 278.019 399.733 287.768 398.65 296.435C398.433 297.951 398.867 299.684 397.892 301.093C392.909 289.177 401.25 276.394 414.574 276.286C434.181 276.069 453.897 276.177 473.504 276.177C504.485 276.177 535.467 276.177 566.557 276.177C571.973 276.177 576.956 277.152 580.531 281.594C576.198 280.836 572.081 278.236 567.532 280.402C566.123 280.402 564.715 280.294 563.415 280.294C561.79 279.102 559.949 279.536 558.215 279.536C515.535 279.536 472.962 279.536 430.281 279.536C428.332 279.536 426.273 278.886 424.54 280.294C423.349 280.402 421.94 280.402 420.532 280.402Z" fill="#FEFEFE"/>
<path d="M399.842 200.67C399.842 201.211 399.842 201.753 399.626 202.295C393.884 220.71 393.559 221.035 374.06 221.035C369.186 221.035 364.311 221.144 359.545 220.819C356.403 220.602 353.045 220.06 350.77 217.244C349.687 213.127 348.82 208.903 347.304 205.003C345.895 201.536 346.762 200.453 350.228 200.453C366.802 200.561 383.377 200.561 399.842 200.67Z" fill="#FDC697"/>
<path d="M372.219 188.542C382.727 188.542 393.126 188.542 403.634 188.542C405.367 188.542 407.859 188.109 407.967 190.492C408.184 193.417 405.476 192.875 403.526 192.875C382.619 192.875 361.603 192.875 340.696 192.875C338.855 192.875 336.146 193.525 336.146 190.601C336.146 187.459 339.071 188.651 340.805 188.542C351.312 188.434 361.712 188.542 372.219 188.542Z" fill="#FDC697"/>
<path d="M399.842 200.673C383.376 200.673 366.802 200.565 350.336 200.565C346.761 200.565 346.003 201.648 347.411 205.115C348.928 209.015 349.795 213.239 350.878 217.356C346.22 211.614 345.678 204.248 342.537 197.207C361.71 197.207 380.018 197.207 398.325 197.207C401.683 197.099 401.466 198.507 399.842 200.673Z" fill="#FEFEFE"/>
<path d="M450.538 19.9877C450.43 24.3207 446.205 28.2205 441.98 28.2205C437.864 28.1122 433.639 23.8874 433.639 19.771C433.639 15.4379 438.189 10.9965 442.522 11.3215C446.747 11.5382 450.755 15.8712 450.538 19.9877Z" fill="#F58220"/>
<path d="M377.202 66.5618C376.985 70.1365 374.819 71.8698 371.244 71.8698C367.236 71.8698 365.177 69.5949 365.286 65.8035C365.394 62.337 367.777 59.9538 371.244 60.0621C374.927 60.2788 377.202 62.4453 377.202 66.5618Z" fill="#F58220"/>
<path d="M371.46 99.7148C373.952 99.8232 375.685 101.34 375.685 103.615C375.793 106.214 373.952 108.164 371.352 108.056C368.752 108.056 367.127 106.323 367.236 103.506C367.344 100.906 368.86 99.7148 371.46 99.7148Z" fill="#F58220"/>
<path d="M596.346 223.312C598.621 223.637 601.112 222.663 602.629 224.612C604.037 226.346 603.929 228.296 602.304 230.029C600.895 231.437 591.688 231.437 590.388 229.92C588.98 228.187 588.871 226.237 590.279 224.504C592.013 222.663 594.396 223.637 596.346 223.312Z" fill="#FEFEFE"/>
<path d="M596.996 212.264C598.296 212.372 599.487 212.372 600.787 212.48C602.412 212.697 603.279 213.78 603.495 215.405C603.712 216.922 603.387 218.438 601.871 219.088C598.296 220.497 594.504 220.605 590.929 219.088C589.413 218.438 589.196 216.922 589.413 215.405C589.63 213.78 590.605 212.805 592.229 212.589C593.746 212.372 595.371 212.372 596.996 212.264Z" fill="#F58220"/>
<path d="M451.081 216.492C451.081 211.617 450.539 206.634 451.189 201.976C453.464 186.811 468.196 176.736 483.47 179.228C488.237 179.986 487.154 184.427 487.262 186.377C487.587 194.069 487.154 201.76 487.803 209.559C488.128 214.109 484.337 217.9 481.087 219.092C472.096 222.342 464.622 228.408 455.847 232.091C451.839 233.824 450.647 233.175 450.756 228.95C450.864 224.833 450.756 220.609 450.756 216.492C450.864 216.492 450.972 216.492 451.081 216.492ZM482.062 184.211C470.904 180.419 456.714 189.085 455.197 201.651C454.222 209.451 454.764 217.359 454.764 225.267C454.764 228.841 456.28 226.783 457.472 225.808C464.947 221.584 472.529 217.25 480.004 213.026C481.845 212.051 482.279 210.426 482.279 208.476C482.17 200.46 482.17 192.335 482.062 184.211Z" fill="#F58220"/>
<path d="M504.269 196.448C504.269 198.831 504.269 201.106 504.269 203.489C504.269 208.364 497.878 212.805 493.22 211.289C491.703 210.747 491.812 209.339 491.812 208.147C491.812 199.806 491.92 191.573 491.812 183.232C491.812 180.416 492.895 178.899 495.495 179.332C498.095 179.766 501.67 177.274 503.078 182.041C504.486 186.915 504.269 191.682 504.269 196.448ZM495.278 194.715C495.17 197.206 495.062 199.698 495.278 202.189C495.387 203.381 494.412 205.547 496.578 205.656C498.42 205.764 498.961 203.814 498.961 202.081C499.07 196.556 499.07 190.923 499.286 185.399C499.286 184.207 499.503 183.232 497.986 183.124C496.578 183.016 495.387 183.341 495.387 184.965C495.278 188.215 495.278 191.465 495.278 194.715Z" fill="#F58220"/>
<path d="M496.36 228.734C493.977 228.301 491.377 227.76 491.594 224.835C491.81 222.127 494.41 221.26 496.793 221.368C499.068 221.585 501.776 222.127 501.56 225.268C501.343 228.085 498.743 228.518 496.36 228.734Z" fill="#F58220"/>
<path d="M258.799 258.959C258.799 254.301 258.908 249.643 258.799 244.876C258.691 240.435 260.749 238.16 265.299 238.16C272.015 238.16 278.623 238.052 285.34 238.268C290.431 238.377 292.922 241.085 293.681 249.534C294.439 258.634 294.006 267.841 293.897 277.049C293.897 279.866 291.947 281.491 289.348 281.274C281.006 280.732 272.557 282.574 264.216 279.541C260.641 278.241 258.799 276.399 258.908 272.608C258.799 267.95 258.799 263.4 258.799 258.959ZM265.299 275.099C271.365 275.208 277.54 275.208 283.606 275.316C286.206 275.424 287.723 274.666 287.614 271.741C287.506 262.75 287.398 253.867 287.289 244.876C287.831 242.276 286.314 241.843 284.256 241.843C278.19 241.843 272.124 241.843 265.949 241.843C263.458 241.843 262.374 243.035 262.374 245.418C262.374 254.192 262.374 262.967 262.374 271.741C262.483 273.691 262.699 275.424 265.299 275.099Z" fill="#F58220"/>
<path d="M201.604 258.63C201.604 254.297 201.604 249.964 201.604 245.631C201.712 239.781 203.229 238.156 208.862 238.048C213.953 237.94 218.936 238.048 224.028 238.048C233.235 238.048 236.16 240.648 236.594 249.964C237.027 258.63 236.702 267.188 236.702 275.854C236.702 279.104 235.077 281.162 231.827 280.946C223.486 280.621 215.037 282.137 206.804 279.104C203.446 277.912 201.604 276.071 201.712 272.496C201.604 268.055 201.604 263.397 201.604 258.63ZM230.527 244.656C230.852 241.948 229.011 241.84 227.061 241.84C221.103 241.84 215.145 241.948 209.295 241.84C206.479 241.731 205.395 242.923 205.395 245.631C205.395 254.297 205.395 262.855 205.395 271.521C205.395 273.254 205.179 275.421 207.995 275.204C214.278 275.204 220.561 275.313 226.844 275.421C229.552 275.421 230.852 274.554 230.744 271.629C230.636 262.638 230.636 253.647 230.527 244.656Z" fill="#F58220"/>
<path d="M37.7048 284.626C41.8212 284.626 45.9376 284.518 50.054 284.626C53.6288 284.734 56.012 286.576 56.012 290.151C56.012 293.725 53.5205 295.675 50.054 295.675C41.6045 295.784 33.155 295.784 24.7055 295.675C21.1307 295.675 18.7476 293.725 18.7476 290.042C18.7476 286.359 21.2391 284.626 24.7055 284.518C29.0386 284.518 33.3717 284.518 37.7048 284.626ZM37.1631 291.775C41.2795 291.775 45.5043 291.775 49.6207 291.775C50.704 291.775 52.0039 291.667 51.8956 290.259C51.7872 288.959 50.704 288.526 49.5124 288.526C41.3879 288.526 33.2634 288.526 25.1389 288.526C23.9473 288.526 22.864 288.851 22.864 290.259C22.864 291.775 24.1639 291.775 25.1389 291.775C29.2553 291.775 33.2634 291.775 37.1631 291.775Z" fill="#F58220"/>
<path d="M80.9279 295.788C76.8114 295.788 72.5867 295.896 68.4703 295.788C65.0038 295.679 62.6206 293.838 62.6206 290.046C62.6206 286.58 64.8955 284.738 68.1453 284.63C76.8114 284.522 85.4776 284.522 94.1437 284.63C97.3935 284.63 99.6684 286.472 99.7767 289.938C99.7767 293.621 97.5019 295.571 93.9271 295.679C89.594 295.896 85.2609 295.788 80.9279 295.788ZM81.5778 288.422C77.5697 288.422 73.6699 288.422 69.6619 288.422C68.3619 288.422 66.8454 288.422 66.6287 289.938C66.4121 291.78 68.037 291.78 69.2285 291.78C77.1364 291.78 85.0443 291.78 92.9521 291.78C94.0354 291.78 95.3353 291.78 95.4436 290.371C95.552 288.638 94.1437 288.53 92.8438 288.53C89.1607 288.422 85.3692 288.422 81.5778 288.422Z" fill="#F58220"/>
<path d="M222.295 214.543C224.461 214.543 226.628 214.434 228.794 214.543C231.611 214.759 233.561 216.384 233.886 219.201C234.319 222.234 232.369 223.859 229.661 224.509C225.003 225.701 220.345 225.484 215.795 224.726C212.654 224.292 211.137 222.126 211.354 218.984C211.679 215.734 213.737 214.326 216.878 214.326C218.72 214.543 220.453 214.543 222.295 214.543Z" fill="#FDC697"/>
<path d="M170.297 272.169C168.456 272.169 166.723 272.278 164.881 272.169C162.173 271.844 160.006 270.544 160.115 267.511C160.223 264.37 162.065 262.528 165.314 262.42C168.348 262.312 171.489 262.203 174.522 262.42C177.664 262.637 180.264 263.72 180.047 267.511C179.83 271.194 177.339 272.278 174.089 272.169C172.789 272.169 171.597 272.278 170.297 272.169Z" fill="#FDC697"/>
<path d="M141.917 250.288C143.542 250.288 145.167 250.288 146.792 250.288C149.067 250.288 150.691 251.155 150.8 253.646C150.908 255.921 149.5 257.546 147.333 257.654C143.542 257.871 139.859 257.871 136.067 257.654C134.009 257.546 132.276 256.463 132.384 253.863C132.493 251.046 134.117 250.18 136.609 250.18C138.342 250.288 140.075 250.288 141.917 250.288Z" fill="#FDC697"/>
<path d="M285.124 215.081C282.957 215.081 280.791 215.081 278.624 215.081C276.783 214.973 275.375 214.215 275.375 212.156C275.483 210.206 276.891 209.34 278.733 209.34C283.066 209.34 287.399 209.34 291.732 209.34C293.357 209.34 294.548 210.315 294.657 211.94C294.765 213.998 293.357 214.865 291.624 214.973C289.457 215.189 287.29 215.081 285.124 215.081Z" fill="#F58220"/>
<path d="M36.0802 253.862C33.5887 253.862 31.0971 253.862 28.4973 253.862C26.4391 253.862 24.9225 253.104 25.0308 250.72C25.1392 248.662 26.5474 248.012 28.2807 248.012C33.4803 248.012 38.68 247.796 43.8797 248.012C45.7213 248.121 47.8878 249.204 47.7795 251.587C47.5628 254.079 45.3963 253.754 43.5547 253.862C41.0632 253.97 38.5717 253.862 36.0802 253.862Z" fill="#F58220"/>
<path d="M71.7204 253.533C74.4285 253.858 78.22 252.775 78.0033 257.325C77.7867 261.224 74.5369 261.224 71.5037 261.224C68.3622 261.224 64.5708 261.224 64.5708 257.108C64.6791 252.667 68.9039 253.75 71.7204 253.533Z" fill="#FDC697"/>
<path d="M563.522 280.404C564.931 280.404 566.339 280.513 567.639 280.513C572.622 283.437 577.605 286.471 577.605 293.404C577.605 299.578 574.463 304.128 568.614 306.078C563.522 307.703 557.131 305.861 554.531 300.986C552.69 297.412 550.307 296.87 546.84 296.87C511.201 296.978 475.561 296.978 439.813 296.87C437.105 296.87 434.83 296.762 433.205 300.011C430.497 305.319 424.756 307.594 419.556 306.403C414.248 305.211 410.132 300.77 409.59 295.57C408.94 289.179 411.648 284.521 417.714 281.813C418.689 281.379 419.664 280.838 420.639 280.404C422.048 280.404 423.347 280.513 424.756 280.513C428.547 282.896 432.664 284.737 434.397 289.395C435.047 291.129 436.78 290.695 438.188 290.695C475.128 290.695 511.959 290.695 548.898 290.695C550.523 290.695 552.256 291.02 553.015 289.07C554.856 284.196 559.189 282.246 563.522 280.404ZM429.089 293.945C428.764 289.829 426.706 287.229 422.481 286.904C418.473 286.579 415.006 289.829 415.115 293.728C415.331 297.953 417.823 300.445 421.939 300.553C426.164 300.661 428.439 298.17 429.089 293.945ZM564.714 300.661C568.722 300.661 572.08 297.52 571.972 293.945C571.755 289.829 569.589 287.229 565.364 287.012C561.356 286.796 557.998 289.937 558.214 293.945C558.323 298.17 560.923 300.228 564.714 300.661Z" fill="#F58220"/>
<path d="M563.525 280.405C559.192 282.246 554.859 284.196 553.017 288.963C552.259 290.913 550.417 290.588 548.901 290.588C511.961 290.588 475.13 290.588 438.191 290.588C436.783 290.588 435.049 291.021 434.399 289.288C432.666 284.63 428.55 282.788 424.758 280.405C426.492 278.888 428.55 279.647 430.5 279.647C473.18 279.647 515.753 279.647 558.434 279.647C560.058 279.647 561.9 279.213 563.525 280.405Z" fill="#FDC697"/>
<path d="M482.061 184.205C482.17 192.33 482.17 200.454 482.278 208.579C482.278 210.529 481.845 212.045 480.003 213.128C472.529 217.353 464.946 221.686 457.471 225.911C457.363 219.845 456.821 213.67 457.254 207.712C457.904 199.046 462.237 192.33 469.712 187.78C473.612 185.288 478.053 185.505 482.061 184.205Z" fill="#FDC697"/>
<path d="M482.061 184.208C478.053 185.4 473.612 185.183 469.82 187.566C462.346 192.224 457.904 198.832 457.363 207.498C456.929 213.565 457.471 219.631 457.579 225.697C456.388 226.781 454.871 228.73 454.871 225.156C454.871 217.248 454.33 209.34 455.305 201.54C456.821 189.191 470.904 180.417 482.061 184.208Z" fill="#FEFEFE"/>
<path d="M495.278 194.718C495.278 191.468 495.278 188.218 495.278 185.077C495.278 183.343 496.47 183.018 497.878 183.235C499.395 183.343 499.287 184.427 499.178 185.51C499.07 191.035 498.962 196.668 498.853 202.192C498.853 203.926 498.312 205.767 496.47 205.767C494.412 205.659 495.279 203.601 495.17 202.301C495.062 199.701 495.17 197.209 495.278 194.718Z" fill="#FDC697"/>
<path d="M287.289 244.867C287.397 253.858 287.398 262.741 287.614 271.732C287.614 274.657 286.206 275.415 283.606 275.307C277.54 275.198 271.365 275.198 265.299 275.09C265.299 267.074 265.299 259.058 265.407 250.933C265.407 246.708 266.924 244.217 271.798 244.65C276.89 245.084 282.089 244.867 287.289 244.867Z" fill="#FDC697"/>
<path d="M287.29 244.873C282.09 244.873 276.891 245.09 271.799 244.656C266.925 244.331 265.408 246.715 265.408 250.939C265.408 258.955 265.408 266.972 265.3 275.096C262.7 275.421 262.375 273.688 262.375 271.738C262.375 262.964 262.375 254.189 262.375 245.415C262.375 242.923 263.458 241.84 265.95 241.84C272.016 241.84 278.082 241.84 284.257 241.84C286.315 241.84 287.94 242.273 287.29 244.873Z" fill="#FEFEFE"/>
<path d="M230.527 244.648C230.635 253.64 230.635 262.631 230.852 271.622C230.852 274.438 229.552 275.413 226.952 275.413C220.669 275.305 214.386 275.305 208.103 275.197C208.103 267.289 208.32 259.381 208.103 251.473C207.995 247.357 209.511 245.732 213.411 245.19C219.044 244.323 224.785 245.082 230.527 244.648Z" fill="#FDC697"/>
<path d="M230.527 244.661C224.786 245.094 219.045 244.336 213.303 245.094C209.404 245.636 207.779 247.261 207.995 251.377C208.32 259.285 207.995 267.193 207.995 275.101C205.179 275.318 205.395 273.151 205.395 271.418C205.395 262.752 205.395 254.194 205.395 245.528C205.395 242.82 206.587 241.736 209.295 241.736C215.253 241.845 221.211 241.736 227.061 241.736C229.011 241.845 230.852 241.953 230.527 244.661Z" fill="#FEFEFE"/>
<path d="M37.1625 291.777C33.1544 291.777 29.2546 291.777 25.2465 291.777C24.1633 291.777 22.8634 291.669 22.9717 290.261C22.9717 288.852 24.1633 288.527 25.2465 288.527C33.371 288.527 41.4956 288.527 49.6201 288.527C50.8117 288.527 51.8949 288.961 52.0033 290.261C52.1116 291.777 50.7033 291.777 49.7284 291.777C45.5037 291.777 41.3872 291.777 37.1625 291.777Z" fill="#FEFEFE"/>
<path d="M81.5784 288.419C85.3698 288.419 89.1613 288.419 92.9527 288.419C94.2526 288.419 95.6609 288.527 95.5526 290.26C95.4442 291.669 94.1443 291.669 93.061 291.669C85.1532 291.669 77.2453 291.669 69.3375 291.669C68.1459 291.669 66.4126 291.669 66.7376 289.827C66.9543 288.311 68.4709 288.311 69.7708 288.311C73.6705 288.419 77.6786 288.419 81.5784 288.419Z" fill="#FEFEFE"/>
<path d="M429.091 293.945C428.441 298.061 426.166 300.661 421.941 300.552C417.825 300.444 415.333 297.953 415.117 293.728C415.008 289.828 418.475 286.578 422.483 286.903C426.708 287.228 428.766 289.936 429.091 293.945Z" fill="#FEFEFE"/>
<path d="M564.715 300.662C560.924 300.228 558.324 298.17 558.107 293.945C557.89 289.937 561.249 286.796 565.257 287.013C569.59 287.229 571.756 289.829 571.865 293.945C572.081 297.52 568.615 300.662 564.715 300.662Z" fill="#FEFEFE"/>
</svg>
