<svg id="Layer_1" data-name="Layer 1" xmlns="http://www.w3.org/2000/svg" xmlns:xlink="http://www.w3.org/1999/xlink" viewBox="0 0 333.91 186.09"><defs><style>.cls-1{fill:none;}.cls-2{fill:#f58220;}.cls-3{fill:#fee1c7;}.cls-4{fill:#d67028;}.cls-5{clip-path:url(#clip-path);}</style><clipPath id="clip-path"><path class="cls-1" d="M222.56,129.69c-1-1-3.18-5-5.05-15.11a207.39,207.39,0,0,1-2.81-35.89,207.35,207.35,0,0,1,2.81-35.88c1.87-10.16,4.05-14.1,5.05-15.11,1,1,3.19,4.95,5.06,15.11,1.81,9.83,16.08,22.57,16.08,35.88s-14.27,26.06-16.08,35.89C225.75,124.74,223.56,128.67,222.56,129.69Z"/></clipPath></defs><path class="cls-2" d="M122.17,107.47a.19.19,0,0,1-.12,0,.23.23,0,0,1-.08-.32l.51-.8a.23.23,0,0,1,.39.26c-.17.26-.34.52-.5.79A.23.23,0,0,1,122.17,107.47Z"/><path class="cls-2" d="M178.77,116a.25.25,0,0,1-.23-.17c-.15-.58-.32-1.17-.5-1.74a.23.23,0,0,1,.15-.29.24.24,0,0,1,.3.15c.18.58.36,1.17.51,1.76a.24.24,0,0,1-.17.29Zm-1.55-4.51a.23.23,0,0,1-.21-.15c-.24-.55-.5-1.1-.77-1.63a.24.24,0,0,1,.11-.32.23.23,0,0,1,.31.1c.27.55.54,1.11.78,1.67a.25.25,0,0,1-.12.31ZM175,107.22a.23.23,0,0,1-.19-.11c-.32-.51-.66-1-1-1.5a.24.24,0,1,1,.38-.28c.35.5.7,1,1,1.53a.23.23,0,0,1-.07.32A.2.2,0,0,1,175,107.22Zm-50.57-2.93a.22.22,0,0,1-.15-.06.24.24,0,0,1,0-.33c.39-.47.79-.94,1.2-1.39a.23.23,0,0,1,.33,0,.24.24,0,0,1,0,.33q-.6.68-1.17,1.38A.23.23,0,0,1,124.42,104.29Zm47.73-.91a.25.25,0,0,1-.18-.08c-.39-.46-.81-.9-1.22-1.33a.24.24,0,0,1,0-.33.23.23,0,0,1,.33,0c.43.43.84.89,1.25,1.35a.24.24,0,0,1,0,.33A.22.22,0,0,1,172.15,103.38Zm-44.46-2.58a.22.22,0,0,1-.17-.07.23.23,0,0,1,0-.33c.45-.41.92-.82,1.39-1.2a.23.23,0,1,1,.3.36c-.47.38-.93.78-1.37,1.18A.25.25,0,0,1,127.69,100.8Zm41.06-.78a.24.24,0,0,1-.15-.06c-.46-.39-.93-.77-1.41-1.13a.23.23,0,0,1-.05-.32.23.23,0,0,1,.33-.05c.49.36,1,.75,1.44,1.14a.25.25,0,0,1,0,.34A.23.23,0,0,1,168.75,100Zm-37.3-2.16a.24.24,0,0,1-.19-.1.25.25,0,0,1,.06-.33c.51-.34,1-.66,1.56-1a.23.23,0,0,1,.24.4c-.52.31-1,.63-1.54,1A.2.2,0,0,1,131.45,97.86Zm33.43-.64-.12,0c-.51-.32-1-.62-1.57-.9a.24.24,0,0,1-.1-.32.23.23,0,0,1,.32-.09c.54.28,1.08.59,1.6.91a.23.23,0,0,1,.07.32A.23.23,0,0,1,164.88,97.22Zm-29.26-1.7a.23.23,0,0,1-.21-.13.24.24,0,0,1,.11-.31c.56-.26,1.12-.5,1.69-.73a.25.25,0,0,1,.31.14.23.23,0,0,1-.14.3c-.55.22-1.11.46-1.66.71A.16.16,0,0,1,135.62,95.52Zm25-.47a.15.15,0,0,1-.09,0c-.55-.23-1.12-.44-1.69-.64a.24.24,0,0,1-.15-.3A.23.23,0,0,1,159,94c.58.2,1.16.42,1.72.65a.23.23,0,0,1,.12.31A.22.22,0,0,1,160.63,95.05ZM140.1,93.86a.23.23,0,0,1-.22-.17.22.22,0,0,1,.16-.29c.58-.17,1.18-.32,1.78-.45a.24.24,0,0,1,.28.17.23.23,0,0,1-.18.28c-.59.13-1.18.28-1.75.45Zm16-.3H156c-.58-.15-1.17-.27-1.76-.38a.24.24,0,0,1-.19-.28.22.22,0,0,1,.27-.18c.6.11,1.2.24,1.79.38a.24.24,0,0,1,.18.28A.24.24,0,0,1,156.09,93.56Zm-11.31-.66a.23.23,0,0,1,0-.46q.92-.12,1.83-.18a.24.24,0,1,1,0,.47c-.6,0-1.2.1-1.8.17Zm6.6-.12h0c-.59,0-1.2-.09-1.8-.1a.25.25,0,0,1-.23-.24.24.24,0,0,1,.24-.23h0c.61,0,1.23.05,1.84.1a.25.25,0,0,1,.21.26A.23.23,0,0,1,151.38,92.78Z"/><path class="cls-2" d="M179.51,119.8a.24.24,0,0,1-.24-.2c0-.31-.08-.62-.13-.92a.24.24,0,0,1,.2-.27.23.23,0,0,1,.27.19c0,.31.09.63.13.94a.23.23,0,0,1-.2.26Z"/><path class="cls-2" d="M173.12,143a.3.3,0,0,1-.15-.05.24.24,0,0,1,0-.33l.57-.74a.23.23,0,0,1,.33,0,.25.25,0,0,1,0,.33l-.58.75A.21.21,0,0,1,173.12,143Z"/><path class="cls-2" d="M148.54,154.85h0c-.64,0-1.29,0-1.93-.07a.24.24,0,0,1-.22-.25.24.24,0,0,1,.25-.22c.63,0,1.27.06,1.9.07a.23.23,0,0,1,.24.23A.24.24,0,0,1,148.54,154.85Zm3.11-.14a.24.24,0,0,1-.23-.22.22.22,0,0,1,.21-.25c.62-.06,1.26-.14,1.88-.24a.23.23,0,0,1,.27.19.24.24,0,0,1-.19.27q-1,.15-1.92.24Zm-8.11-.29h0c-.63-.11-1.27-.24-1.89-.38a.24.24,0,0,1,.1-.46c.62.14,1.24.27,1.87.37a.24.24,0,0,1,.19.27A.23.23,0,0,1,143.54,154.42Zm13.05-.6a.23.23,0,0,1-.06-.46q.93-.24,1.83-.54a.23.23,0,0,1,.29.15.24.24,0,0,1-.14.3c-.61.2-1.24.38-1.86.55Zm-17.92-.62-.08,0c-.61-.2-1.21-.43-1.81-.67a.25.25,0,0,1-.13-.31.23.23,0,0,1,.31-.12c.58.23,1.18.46,1.78.66a.24.24,0,0,1,.15.3A.24.24,0,0,1,138.67,153.2Zm22.66-1a.24.24,0,0,1-.21-.14.23.23,0,0,1,.12-.31c.57-.26,1.15-.54,1.71-.83a.22.22,0,0,1,.31.1.23.23,0,0,1-.09.31c-.57.3-1.16.58-1.74.84A.19.19,0,0,1,161.33,152.16Zm-27.28-.95-.11,0c-.56-.3-1.12-.62-1.67-1a.24.24,0,0,1-.08-.32.24.24,0,0,1,.33-.08c.53.33,1.09.65,1.65,1a.23.23,0,0,1,.09.31A.23.23,0,0,1,134.05,151.21Zm31.69-1.47a.24.24,0,0,1-.2-.11.23.23,0,0,1,.07-.32c.53-.35,1-.72,1.55-1.1a.25.25,0,0,1,.33,0,.24.24,0,0,1,0,.33c-.52.38-1,.76-1.58,1.11A.22.22,0,0,1,165.74,149.74Zm-35.91-1.24a.24.24,0,0,1-.14-.05c-.51-.39-1-.8-1.5-1.22a.24.24,0,0,1,0-.33.24.24,0,0,1,.34,0c.47.41,1,.81,1.47,1.2a.24.24,0,0,1,0,.33A.21.21,0,0,1,129.83,148.5Zm39.87-1.85a.23.23,0,0,1-.17-.08.24.24,0,0,1,0-.33c.47-.43.93-.87,1.36-1.33a.25.25,0,0,1,.34,0,.24.24,0,0,1,0,.33c-.44.46-.91.91-1.38,1.35A.25.25,0,0,1,169.7,146.65Zm-43.61-1.51a.23.23,0,0,1-.17-.07c-.43-.47-.86-.95-1.28-1.44a.25.25,0,0,1,0-.34.24.24,0,0,1,.33,0c.41.49.83,1,1.27,1.42a.26.26,0,0,1,0,.34A.27.27,0,0,1,126.09,145.14ZM123,141.23a.24.24,0,0,1-.2-.11c-.36-.53-.71-1.07-1-1.62a.24.24,0,0,1,.08-.33.23.23,0,0,1,.32.09c.32.54.66,1.08,1,1.6a.24.24,0,0,1-.06.33A.33.33,0,0,1,123,141.23Zm-2.49-4.37a.24.24,0,0,1-.21-.14c-.27-.58-.53-1.17-.76-1.77a.22.22,0,0,1,.13-.3.24.24,0,0,1,.31.13c.23.59.48,1.17.75,1.75a.24.24,0,0,1-.12.31Zm-1.74-4.71a.25.25,0,0,1-.23-.17c-.17-.62-.32-1.25-.46-1.88a.24.24,0,0,1,.18-.27.23.23,0,0,1,.28.18c.13.61.29,1.23.46,1.84a.24.24,0,0,1-.17.29Z"/><path class="cls-2" d="M117.76,127.21a.23.23,0,0,1-.23-.21c0-.31-.07-.63-.09-.94a.25.25,0,0,1,.21-.26.24.24,0,0,1,.26.22q0,.47.09.93a.24.24,0,0,1-.21.26Z"/><path class="cls-3" d="M124.81,122.44a.37.37,0,0,0,.19.39l4,2.11a19.88,19.88,0,0,0,1.52,6.23L128,134.9a.36.36,0,0,0,0,.43l3.22,4.39a.39.39,0,0,0,.41.14l4.34-1.35a19.69,19.69,0,0,0,5.48,3.32l.81,4.47a.37.37,0,0,0,.31.3l5.39.83a.37.37,0,0,0,.38-.2l2.12-4a19.75,19.75,0,0,0,6.22-1.52l3.74,2.58a.36.36,0,0,0,.43,0l4.39-3.22a.38.38,0,0,0,.14-.41L164,136.29a19.55,19.55,0,0,0,3.32-5.48l4.47-.81a.37.37,0,0,0,.3-.31l.83-5.39a.38.38,0,0,0-.2-.38l-4-2.12a19.82,19.82,0,0,0-1.52-6.22l2.58-3.73a.38.38,0,0,0,0-.44L166.53,107a.36.36,0,0,0-.41-.13l-4.34,1.34a19.55,19.55,0,0,0-5.48-3.32l-.81-4.47a.38.38,0,0,0-.31-.3l-5.39-.82a.36.36,0,0,0-.38.19l-2.12,4a19.77,19.77,0,0,0-6.22,1.53l-3.74-2.59a.36.36,0,0,0-.43,0l-4.39,3.22a.39.39,0,0,0-.14.41l1.35,4.34a19.69,19.69,0,0,0-3.32,5.48l-4.47.81a.38.38,0,0,0-.3.31Z"/><path class="cls-2" d="M148.86,128.56a5.13,5.13,0,0,1-3.3-1.19,5.18,5.18,0,1,1,3.3,1.19Zm0-9.67a4.46,4.46,0,0,0-3.46,1.63,4.5,4.5,0,0,0,.6,6.31h0a4.49,4.49,0,1,0,2.86-7.94Z"/><path class="cls-2" d="M149,136.88a13.21,13.21,0,0,1-2.07-.16,13.43,13.43,0,0,1-8.83-5.35h0a14.15,14.15,0,0,1-1.17-1.89h0l0,0,0,0,0,0-.06-.13c-.06-.12-.11-.23-.16-.35l.64-.28a13.21,13.21,0,0,0,1.37,2.35h0a12.78,12.78,0,1,0-1.48-12.53l-.65-.28A13.6,13.6,0,0,1,141,112.5a13.5,13.5,0,1,1,8,24.38Z"/><path class="cls-2" d="M179.45,139.52a.19.19,0,0,1-.12,0,.23.23,0,0,1-.08-.32c.17-.27.35-.54.54-.79a.24.24,0,1,1,.38.28,7.85,7.85,0,0,0-.52.76A.23.23,0,0,1,179.45,139.52Z"/><path class="cls-2" d="M196.28,139.71a.26.26,0,0,1-.21-.11,9.86,9.86,0,0,0-.73-1.09l-.31-.37a.23.23,0,0,1,0-.33.25.25,0,0,1,.33,0l.33.4a9.77,9.77,0,0,1,.77,1.13.23.23,0,0,1-.09.32A.2.2,0,0,1,196.28,139.71Zm-14.17-3a.23.23,0,0,1-.13-.42,9.41,9.41,0,0,1,1.62-.95.24.24,0,0,1,.2.43,9.62,9.62,0,0,0-1.55.9A.23.23,0,0,1,182.11,136.67Zm10.83-.37a.19.19,0,0,1-.12,0,9.56,9.56,0,0,0-1.61-.78.24.24,0,0,1-.13-.31.22.22,0,0,1,.3-.13,10.44,10.44,0,0,1,1.68.82.24.24,0,0,1,.08.33A.23.23,0,0,1,192.94,136.3Zm-6.39-1.37a.24.24,0,0,1-.23-.21.25.25,0,0,1,.21-.26,9.75,9.75,0,0,1,1.87-.06.24.24,0,1,1,0,.47,9,9,0,0,0-1.79.06Z"/><path class="cls-2" d="M197.53,143.41a.24.24,0,0,1-.23-.21c0-.3-.09-.6-.16-.9a.24.24,0,0,1,.18-.28.23.23,0,0,1,.28.18c.07.31.13.63.17.94a.25.25,0,0,1-.21.27Z"/><path class="cls-2" d="M195.1,151.21a.22.22,0,0,1-.15-.06.24.24,0,0,1,0-.34c.2-.22.4-.46.58-.7a.23.23,0,0,1,.33-.05.23.23,0,0,1,0,.32c-.19.26-.4.51-.61.75A.25.25,0,0,1,195.1,151.21Z"/><path class="cls-2" d="M187.81,154.46a11,11,0,0,1-1.28-.08.23.23,0,0,1-.2-.26.24.24,0,0,1,.26-.21,9.4,9.4,0,0,0,1.76.07.24.24,0,0,1,.25.22.25.25,0,0,1-.23.25Zm3.41-.61a.24.24,0,0,1-.08-.46,9.65,9.65,0,0,0,1.59-.76.23.23,0,0,1,.24.4,9.48,9.48,0,0,1-1.67.8Zm-7.47-.27a.18.18,0,0,1-.1,0,9.71,9.71,0,0,1-1.6-.91.24.24,0,1,1,.27-.39,10,10,0,0,0,1.52.88.23.23,0,0,1,.12.31A.23.23,0,0,1,183.75,153.58Zm-3.68-2.91a.25.25,0,0,1-.19-.09,10.51,10.51,0,0,1-1-1.55.25.25,0,0,1,.11-.32.23.23,0,0,1,.31.1,10.15,10.15,0,0,0,.95,1.49.22.22,0,0,1,0,.32A.19.19,0,0,1,180.07,150.67Z"/><path class="cls-2" d="M178.15,146.38a.24.24,0,0,1-.23-.19c0-.32-.1-.64-.12-1A.23.23,0,0,1,178,145a.24.24,0,0,1,.26.22,8.85,8.85,0,0,0,.11.9.24.24,0,0,1-.19.28Z"/><path class="cls-3" d="M180.28,144.08a.11.11,0,0,0,.06.12l1.27.67a6.12,6.12,0,0,0,.48,2l-.81,1.18a.12.12,0,0,0,0,.14l1,1.38a.11.11,0,0,0,.13,0l1.36-.42a6.31,6.31,0,0,0,1.73,1l.26,1.4a.13.13,0,0,0,.1.1l1.69.26a.14.14,0,0,0,.13-.06l.66-1.27a6.25,6.25,0,0,0,2-.48l1.17.82a.14.14,0,0,0,.14,0l1.38-1a.12.12,0,0,0,0-.13l-.43-1.37a6.17,6.17,0,0,0,1.05-1.73l1.41-.26a.09.09,0,0,0,.09-.09l.26-1.7a.1.1,0,0,0-.06-.12l-1.26-.67a6.41,6.41,0,0,0-.49-2l.82-1.18a.12.12,0,0,0,0-.14l-1-1.38a.13.13,0,0,0-.13-.05l-1.37.43a6,6,0,0,0-1.73-1l-.25-1.41a.12.12,0,0,0-.1-.09l-1.7-.26a.1.1,0,0,0-.12.06l-.67,1.27a6.19,6.19,0,0,0-2,.48l-1.18-.82a.12.12,0,0,0-.13,0l-1.39,1a.11.11,0,0,0,0,.13l.42,1.37a6.38,6.38,0,0,0-1,1.73l-1.41.25a.13.13,0,0,0-.1.1Z"/><path class="cls-2" d="M187.87,146.25a1.88,1.88,0,0,1-1.2-.43h0a1.88,1.88,0,1,1,3.07-1.62,1.85,1.85,0,0,1-.42,1.37A1.87,1.87,0,0,1,187.87,146.25Zm-.75-1a1.18,1.18,0,1,0,1.5-1.81,1.19,1.19,0,0,0-1.66.16,1.17,1.17,0,0,0,.16,1.65Z"/><path class="cls-2" d="M187.91,148.87a4.49,4.49,0,0,1-3.63-1.83l0,0a4.52,4.52,0,0,1-.41-.71h0v0h0v0l.64-.29a3.77,3.77,0,0,0,.41.7l0,.06a3.8,3.8,0,0,0,3.83,1.4,4,4,0,0,0,1.41-.63l0,0a3.73,3.73,0,0,0,1.5-2.48,3.79,3.79,0,0,0,0-.58,3.74,3.74,0,0,0-.74-2.24,3.79,3.79,0,0,0-6.55.77l-.65-.27a4.5,4.5,0,0,1,8.64,1.74,4,4,0,0,1-.05.69,4.49,4.49,0,0,1-4.44,3.81Z"/><path class="cls-3" d="M84.23,99.76s18.16,47.88,23.9,57.85c6.66,11.56,26.1,4.19,25.13-5.49s-23.68-49.67-23.68-49.67Z"/><path class="cls-2" d="M118.85,164.42a12.68,12.68,0,0,1-11.52-6.36c-5.71-9.91-23.21-56-24-58l-.53-1.4,27.29,2.89.24.41c.93,1.64,22.82,40.28,23.8,50,.48,4.77-3.56,9.5-9.82,11.51A18.17,18.17,0,0,1,118.85,164.42ZM85.63,100.83c3,8,18.21,47.49,23.29,56.32,3.38,5.87,10.13,6.17,14.88,4.65,4.44-1.43,9-5,8.55-9.59-.89-8.85-20.94-44.65-23.34-48.9Z"/><polygon class="cls-3" points="108.77 64.88 221.61 25.75 220.43 131.63 105.68 106.03 108.77 64.88"/><path class="cls-2" d="M221.33,132.78l-116.62-26,3.19-42.55L222.55,24.46ZM106.66,105.31l112.86,25.18,1.16-103.44-111,38.5Z"/><ellipse class="cls-4" cx="221.72" cy="79" rx="11.09" ry="54.41"/><path class="cls-3" d="M222.56,129.69c-1-1-3.18-5-5.05-15.11a207.39,207.39,0,0,1-2.81-35.89,207.35,207.35,0,0,1,2.81-35.88c1.87-10.16,4.05-14.1,5.05-15.11,1,1,3.19,4.95,5.06,15.11a207.43,207.43,0,0,1,2.8,35.88,207.47,207.47,0,0,1-2.8,35.89C225.75,124.74,223.56,128.67,222.56,129.69Z"/><g class="cls-5"><path class="cls-2" d="M236.77,78.29c0,9.24-5,16.74-14.84,16.74s-17.84-7.5-17.84-16.74,8-16.74,17.84-16.74S236.77,69,236.77,78.29Z"/></g><path class="cls-3" d="M90.57,62.6a63.54,63.54,0,0,1,21.15,1c-2.71,14.17-2.3,28.93.83,44.22H89.34a7.53,7.53,0,0,1-7.44-6.35C80.75,94.2,79.33,81.88,80.84,72A11.14,11.14,0,0,1,90.57,62.6Z"/><path class="cls-2" d="M113.68,108.79H89.34A8.42,8.42,0,0,1,81,101.67c-1.3-8.25-2.54-20.12-1.06-29.82A12.09,12.09,0,0,1,90.46,61.69a64.45,64.45,0,0,1,21.46,1.06l.87.2-.17.87c-2.62,13.67-2.34,28.42.83,43.86ZM90.57,62.6l.1.92a10.24,10.24,0,0,0-8.92,8.6c-1.52,10,0,22.61,1.06,29.26A6.57,6.57,0,0,0,89.34,107h22.09a114.39,114.39,0,0,1-.78-42.59,62.48,62.48,0,0,0-20-.84Z"/><path class="cls-2" d="M104.5,73.45H86.41A1.64,1.64,0,0,1,85,72.59,1.61,1.61,0,0,1,85,70.91a.46.46,0,0,1,.78.5.72.72,0,0,0,.6,1.11H104.5a.72.72,0,0,0,.72-.72V70.52a.72.72,0,0,0-.72-.72H86.28a.47.47,0,0,1-.47-.47.46.46,0,0,1,.47-.46H104.5a1.65,1.65,0,0,1,1.65,1.65V71.8A1.65,1.65,0,0,1,104.5,73.45Z"/><path class="cls-2" d="M102.89,81.46H84.8a1.62,1.62,0,0,1-1.45-.86,1.63,1.63,0,0,1,.06-1.68.46.46,0,1,1,.78.5.73.73,0,0,0,0,.74.7.7,0,0,0,.63.37h18.09a.71.71,0,0,0,.71-.72V78.53a.71.71,0,0,0-.71-.72H84.66a.47.47,0,0,1,0-.93h18.23a1.65,1.65,0,0,1,1.65,1.65v1.28A1.65,1.65,0,0,1,102.89,81.46Z"/><path class="cls-2" d="M125.16,62a.46.46,0,0,1-.14-.9l85.47-27.2a.47.47,0,0,1,.59.3.47.47,0,0,1-.31.58L125.31,62A.39.39,0,0,1,125.16,62Z"/><path class="cls-3" d="M113.61,66.74a.46.46,0,0,1-.43-.29.46.46,0,0,1,.25-.61l4.4-1.79a.46.46,0,0,1,.61.25.48.48,0,0,1-.26.61l-4.4,1.79A.38.38,0,0,1,113.61,66.74Z"/><path class="cls-2" d="M104.5,90.84H86.41A1.64,1.64,0,0,1,85,90,1.61,1.61,0,0,1,85,88.3a.46.46,0,0,1,.78.5.72.72,0,0,0,.6,1.11H104.5a.72.72,0,0,0,.72-.72V87.91a.72.72,0,0,0-.72-.72H86.28a.47.47,0,1,1,0-.93H104.5a1.65,1.65,0,0,1,1.65,1.65v1.28A1.65,1.65,0,0,1,104.5,90.84Z"/><path class="cls-2" d="M106.19,101.26H88.11a1.65,1.65,0,0,1-1.39-2.55.47.47,0,1,1,.78.51.73.73,0,0,0,0,.73.72.72,0,0,0,.64.38h18.08a.72.72,0,0,0,.72-.72V98.32a.72.72,0,0,0-.72-.72H88a.47.47,0,0,1,0-.93h18.22a1.65,1.65,0,0,1,1.65,1.65v1.29A1.65,1.65,0,0,1,106.19,101.26Z"/><path class="cls-2" d="M122.35,157.87a12,12,0,0,1-2.52-.27,11.63,11.63,0,0,1-8.21-6.65L97.17,118.84a.45.45,0,0,1,.23-.61.46.46,0,0,1,.61.23l14.45,32.1a10.72,10.72,0,0,0,7.57,6.13,10.51,10.51,0,0,0,9.24-2.36l.41-.37a.47.47,0,0,1,.63.69l-.43.38A11.39,11.39,0,0,1,122.35,157.87Z"/><path class="cls-2" d="M95.45,114.37a.47.47,0,0,1-.42-.27l-1.61-3.58a.47.47,0,0,1,.23-.62.48.48,0,0,1,.62.23l1.61,3.58a.47.47,0,0,1-.24.62A.41.41,0,0,1,95.45,114.37Z"/><path class="cls-3" d="M234.13,77.81a.46.46,0,0,1-.46-.43c-.33-4.53-1.9-7.91-4.67-10-4.8-3.69-11.65-2.42-11.72-2.41a.46.46,0,0,1-.54-.37.46.46,0,0,1,.37-.54c.29-.06,7.33-1.36,12.46,2.58,3,2.3,4.68,5.9,5,10.71a.46.46,0,0,1-.43.5Z"/><polygon class="cls-2" points="258.68 108.64 244.82 106.91 246.62 99.86 231.3 95.17 253.79 96.28 250.82 103.56 258.68 108.64"/><polygon class="cls-2" points="248.62 149.43 239.28 142.78 243.33 138.38 234.09 129.03 249.91 138.59 244.92 142.69 248.62 149.43"/><polygon class="cls-2" points="262.63 23.23 251.65 40.51 246.29 36.08 235.99 47.39 246.12 28.42 251.2 33.97 262.63 23.23"/><rect class="cls-2" x="7.25" y="129.33" width="44.46" height="0.74"/><rect class="cls-2" x="108.77" y="18.21" width="48.82" height="0.74"/><rect class="cls-2" x="45.78" y="34.94" width="10.16" height="0.74"/><rect class="cls-2" x="49.46" y="42.66" width="10.16" height="0.74"/><rect class="cls-2" x="64.53" y="42.66" width="10.16" height="0.74"/><rect class="cls-2" x="79.6" y="42.66" width="10.16" height="0.74"/><rect class="cls-2" x="258.68" y="56.02" width="46.02" height="0.74"/><rect class="cls-2" x="281.97" y="81.1" width="43.9" height="0.74"/></svg>