<svg width="25" height="24" viewBox="0 0 25 24" fill="none" xmlns="http://www.w3.org/2000/svg">
<path d="M5.79394 4H20.8564C21.1153 4 21.3251 4.20988 21.3251 4.46875V16.5188C21.3251 16.7777 21.3252 16.8 21.3252 16.9875L21.3251 19.5312C21.3251 19.7208 21.2109 19.8918 21.0358 19.9643C20.9778 19.9883 20.9169 20 20.8565 20C20.7345 20 20.6146 19.9524 20.5249 19.8627L17.6497 16.9875L5.79394 16.9875C5.53507 16.9875 5.3252 16.7777 5.3252 16.5188V4.46875C5.3252 4.20988 5.53507 4 5.79394 4ZM16.0063 10.8253C16.0935 10.9125 16.2144 10.9625 16.3376 10.9625C16.461 10.9625 16.5819 10.9125 16.6691 10.8253C16.7563 10.7378 16.8063 10.6171 16.8063 10.4937C16.8063 10.3703 16.7563 10.2496 16.6691 10.1622C16.5819 10.075 16.461 10.025 16.3376 10.025C16.2144 10.025 16.0935 10.075 16.0063 10.1622C15.9188 10.2497 15.8688 10.3703 15.8688 10.4937C15.8688 10.6171 15.9188 10.7378 16.0063 10.8253ZM12.9938 10.8253C13.081 10.9125 13.2019 10.9625 13.3251 10.9625C13.4485 10.9625 13.5694 10.9125 13.6566 10.8253C13.7438 10.7381 13.7938 10.6171 13.7938 10.4937C13.7938 10.3703 13.7438 10.2496 13.6566 10.1625C13.5694 10.0749 13.4485 10.025 13.3251 10.025C13.2019 10.025 13.081 10.075 12.9938 10.1625C12.9063 10.2496 12.8563 10.3703 12.8563 10.4937C12.8563 10.6171 12.9063 10.7381 12.9938 10.8253ZM9.9813 10.8253C10.0685 10.9125 10.1894 10.9625 10.3126 10.9625C10.436 10.9625 10.5569 10.9125 10.6441 10.8253C10.7313 10.7381 10.7813 10.6171 10.7813 10.4937C10.7813 10.3703 10.7313 10.2496 10.6441 10.1622C10.5569 10.075 10.436 10.025 10.3126 10.025C10.1894 10.025 10.0685 10.075 9.9813 10.1622C9.8938 10.2497 9.84383 10.3703 9.84383 10.4937C9.84383 10.6171 9.8938 10.7381 9.9813 10.8253Z" fill="#2B2D42"/>
</svg>
