<svg width="109" height="109" viewBox="0 0 109 109" fill="none" xmlns="http://www.w3.org/2000/svg">
<g clip-path="url(#clip0_4689_3625)">
<path d="M12.2589 54.4999C12.2589 31.2039 31.2039 12.2589 54.5 12.2589C77.7961 12.2589 96.7411 31.2039 96.7411 54.4999C96.7411 77.796 77.7961 96.741 54.5 96.741C31.2039 96.741 12.2589 77.796 12.2589 54.4999Z" fill="#4BAE4F" stroke="#109313" stroke-width="7"/>
<path fill-rule="evenodd" clip-rule="evenodd" d="M76.6201 39.0802C77.7279 40.188 77.7279 42.0105 76.6201 43.1183L49.8187 69.9197C49.2648 70.4736 48.5322 70.7595 47.7997 70.7595C47.0671 70.7595 46.3345 70.4736 45.7806 69.9197L32.3799 56.519C31.2721 55.4112 31.2721 53.5887 32.3799 52.4809C33.4877 51.3731 35.3102 51.3731 36.418 52.4809L47.7997 63.8626L72.582 39.0802C73.6898 37.9545 75.5123 37.9545 76.6201 39.0802Z" fill="white" stroke="white" stroke-width="3"/>
</g>
<defs>
<clipPath id="clip0_4689_3625">
<rect width="91.4821" height="91.4821" fill="white" transform="translate(8.75894 8.75885)"/>
</clipPath>
</defs>
</svg>
