<svg width="154" height="154" viewBox="0 0 154 154" fill="none" xmlns="http://www.w3.org/2000/svg">
<path d="M127.204 145.581H126.793C102.663 143.917 79.528 135.312 60.1746 120.804C40.8213 106.296 26.0744 86.5024 17.7096 63.8073C15.9129 59.6493 1.95025 25.9746 10.9849 13.3466C12.2919 11.5025 14.0773 10.0499 16.1488 9.14531C18.2202 8.24075 20.4992 7.9185 22.7402 8.21327H51.3329C58.4169 8.21327 61.5996 17.4019 63.0883 22.9459C63.3963 23.7673 63.6016 24.4859 63.8069 25.0506C66.3223 31.8779 68.9403 39.6293 61.8563 47.1753L53.8996 55.4913C54.1562 61.1893 57.5443 85.6753 96.3523 100.459C99.9969 96.8659 108.98 87.9853 109.083 87.8313C110.066 86.7412 111.299 85.9056 112.676 85.396C114.052 84.8865 115.532 84.7181 116.988 84.9053C126.273 86.3523 134.833 90.7854 141.372 97.5333C147.378 104.72 146.197 115.911 145.273 124.894C145.273 126.383 144.965 127.82 144.862 129.103C144.796 131.348 144.286 133.558 143.36 135.605C142.435 137.651 141.113 139.494 139.47 141.026C137.828 142.558 135.899 143.75 133.793 144.532C131.688 145.314 129.448 145.67 127.204 145.581ZM21.3542 14.9893C20.3768 14.8221 19.3719 14.9416 18.4609 15.3333C17.55 15.725 16.7719 16.3722 16.2209 17.1966C11.0876 24.4859 17.9662 47.9966 23.6129 61.2406C31.5341 82.7582 45.4885 101.537 63.8057 115.33C82.123 129.122 104.027 137.344 126.896 139.011C128.336 139.17 129.793 139.023 131.172 138.579C132.551 138.135 133.821 137.404 134.897 136.434C135.973 135.464 136.832 134.278 137.417 132.952C138.002 131.627 138.3 130.193 138.292 128.744C138.292 127.358 138.292 125.921 138.702 124.329C139.524 116.578 140.499 106.927 136.29 101.897C130.995 96.609 124.236 93.0324 116.886 91.6299C115.14 91.6299 114.935 91.6299 113.96 92.6566L99.6889 106.773L98.2003 108.211L96.2496 107.8C46.1996 89.5253 47.4316 55.6453 47.5343 54.2079V52.9759L48.3556 52.1033C57.2876 42.8119 57.2876 42.8119 57.3389 42.8119C61.2916 38.6539 60.5216 34.9579 57.7496 27.4119L56.9796 25.0506C56.2096 22.5353 53.7456 14.7839 51.4869 14.7839H21.3542V14.9893Z" fill="#1B4071"/>
</svg>
