<svg width="16" height="17" viewBox="0 0 16 17" fill="none" xmlns="http://www.w3.org/2000/svg">
<path d="M7.67876 2.04541L0.521484 6.99586L8.45413 13.1392L15.5518 6.99586L7.67876 2.04541Z" fill="#FEF9F4"/>
<path fill-rule="evenodd" clip-rule="evenodd" d="M7.67231 1.78735L15.9118 6.96827L8.46092 13.4174L0.15625 6.98596L7.67231 1.78735ZM7.68361 2.30331L0.88513 7.00559L8.44575 12.8608L15.1901 7.02328L7.68361 2.30331Z" fill="#F58220"/>
<path d="M2.48828 14.0928V1.03076H10.4806L13.4628 4.13225V14.0928H2.48828Z" fill="#FEF9F4"/>
<path fill-rule="evenodd" clip-rule="evenodd" d="M2.27344 0.81543H10.5728L13.6787 4.04555V14.3082H2.27344V0.81543ZM2.70421 1.2462V13.8775H13.2479V4.21905L10.3894 1.2462H2.70421Z" fill="#F58220"/>
<path fill-rule="evenodd" clip-rule="evenodd" d="M10.7569 1.58102V3.97652H12.9716L10.7569 1.58102ZM10.3262 1.25088C10.3262 0.976495 10.6629 0.844708 10.8491 1.04617L13.4885 3.90105C13.6671 4.09415 13.5301 4.40729 13.2671 4.40729H10.3262V1.25088Z" fill="#F58220"/>
<path d="M10.4796 5.7569C10.4796 6.15762 10.4067 6.52938 10.2609 6.87219C10.1151 7.215 9.91243 7.48253 9.65278 7.67478C9.3954 7.86703 9.10613 7.96315 8.78498 7.96315C8.58454 7.96315 8.41941 7.91914 8.28958 7.83112C8.16203 7.74079 8.08003 7.61455 8.04359 7.45241H8.02309C7.90921 7.63077 7.78052 7.76048 7.63702 7.84155C7.49353 7.92262 7.32612 7.96315 7.13479 7.96315C6.84553 7.96315 6.62003 7.87166 6.45832 7.68867C6.2966 7.50337 6.21574 7.237 6.21574 6.88956C6.21574 6.54907 6.29205 6.22942 6.44465 5.93062C6.59953 5.62951 6.81364 5.39209 7.08696 5.21837C7.36028 5.04234 7.66549 4.95432 8.00259 4.95432C8.42396 4.95432 8.79637 5.01801 9.1198 5.14541L8.75765 6.60466C8.73259 6.70658 8.71095 6.79575 8.69273 6.87219C8.67451 6.94631 8.6654 7.02043 8.6654 7.09455C8.6654 7.25206 8.73145 7.33081 8.86356 7.33081C9.01389 7.33081 9.1551 7.25669 9.28721 7.10845C9.41931 6.96021 9.52409 6.76217 9.60153 6.51432C9.68125 6.26648 9.72111 6.01864 9.72111 5.7708C9.72111 5.27744 9.57989 4.90104 9.29746 4.64162C9.0173 4.37988 8.60846 4.24901 8.07092 4.24901C7.60855 4.24901 7.1906 4.35788 6.81705 4.57561C6.44579 4.79334 6.15539 5.1014 5.94584 5.4998C5.73857 5.8982 5.63493 6.35219 5.63493 6.86177C5.63493 7.42462 5.78754 7.86587 6.09275 8.18551C6.39796 8.50284 6.82617 8.66151 7.37737 8.66151C7.64386 8.66151 7.89326 8.63834 8.12559 8.59202C8.36019 8.54569 8.61301 8.46926 8.88406 8.36271V9.00895C8.36019 9.21741 7.83063 9.32164 7.29537 9.32164C6.80111 9.32164 6.37063 9.22204 6.00392 9.02284C5.63721 8.82596 5.35706 8.54685 5.16345 8.18551C4.96985 7.82417 4.87305 7.4084 4.87305 6.9382C4.87305 6.29196 5.00971 5.71637 5.28303 5.21142C5.55863 4.70648 5.94925 4.31155 6.4549 4.02665C6.96283 3.73943 7.52997 3.59583 8.15634 3.59583C8.88064 3.59583 9.44892 3.78576 9.86119 4.16563C10.2734 4.54318 10.4796 5.07361 10.4796 5.7569ZM7.95818 5.58666C7.77141 5.58666 7.60513 5.64688 7.45936 5.76733C7.31587 5.88546 7.20198 6.04412 7.11771 6.24332C7.03571 6.4402 6.99471 6.64172 6.99471 6.84787C6.99471 6.99843 7.02205 7.11655 7.07671 7.20226C7.13365 7.28796 7.21337 7.33081 7.31587 7.33081C7.63702 7.33081 7.8796 7.01811 8.04359 6.39272L8.23833 5.6214C8.15634 5.59824 8.06295 5.58666 7.95818 5.58666Z" fill="#F58220"/>
<path d="M0.460938 14.8148V6.99487L8.39358 13.1382L15.4912 6.99487V14.8148C15.4912 15.7665 14.7198 16.5379 13.7681 16.5379H2.18401C1.23239 16.5379 0.460938 15.7665 0.460938 14.8148Z" fill="#FEF9F4"/>
<path fill-rule="evenodd" clip-rule="evenodd" d="M15.7071 6.52368V14.8149C15.7071 15.8855 14.8393 16.7534 13.7687 16.7534H2.18456C1.11397 16.7534 0.246094 15.8855 0.246094 14.8149V6.55574L8.38654 12.86L15.7071 6.52368ZM0.676863 7.43419V14.8149C0.676863 15.6476 1.35188 16.3226 2.18456 16.3226H13.7687C14.6014 16.3226 15.2764 15.6476 15.2764 14.8149V7.46625L8.40171 13.4166L0.676863 7.43419Z" fill="#F58220"/>
<path d="M7.83672 10.8819L1.46829 15.7659C1.14165 16.0164 1.3188 16.5385 1.73044 16.5385H14.2745C14.6735 16.5385 14.8581 16.0428 14.5562 15.7819L8.92442 10.9137C8.61528 10.6465 8.16096 10.6332 7.83672 10.8819Z" fill="#FEF9F4"/>
<path fill-rule="evenodd" clip-rule="evenodd" d="M8.78257 11.0766C8.55072 10.8762 8.20998 10.8662 7.9668 11.0527L1.59837 15.9368C1.43505 16.062 1.52363 16.3231 1.72945 16.3231H14.2735C14.473 16.3231 14.5653 16.0752 14.4143 15.9447L8.78257 11.0766ZM7.70465 10.7109C8.10996 10.4001 8.67786 10.4167 9.06428 10.7507L14.696 15.6188C15.1489 16.0103 14.872 16.7538 14.2735 16.7538H1.72945C1.11199 16.7538 0.846272 15.9707 1.33623 15.595L7.70465 10.7109Z" fill="#F58220"/>
</svg>
