<svg width="279" height="253" viewBox="0 0 279 253" fill="none" xmlns="http://www.w3.org/2000/svg">
<path d="M71.182 35.4858C63.8676 35.9724 62.8517 43.7973 63.2581 47.6489V225.23C63.2581 250.164 79.1057 250.164 99.8298 250.164H246.118V47.0408C246.118 40.2294 243.68 35.4858 237.584 35.4858H71.182Z" fill="white" stroke="#F58220" stroke-width="4"/>
<path d="M109.651 250.997C125.549 250.516 143.386 200.212 104.949 187.516H250.472C286.853 187.516 282.608 250.997 250.472 250.997H109.651C109.498 251.001 109.346 251.001 109.194 250.997H109.651Z" fill="#FDC697"/>
<path d="M104.949 187.516C143.755 200.334 125.201 251.485 109.194 250.997H250.472C282.608 250.997 286.853 187.516 250.472 187.516H104.949Z" stroke="#F58220" stroke-width="4"/>
<rect x="81.5605" y="140.737" width="125.299" height="13.3652" rx="6.68259" fill="#FDC697"/>
<rect x="81.5605" y="119.019" width="87.709" height="13.3652" rx="6.68259" fill="#FDC697"/>
<rect opacity="0.8" x="81.5605" y="97.3003" width="125.299" height="13.3652" rx="6.68259" fill="#F58220"/>
<rect x="81.5605" y="75.582" width="50.1194" height="13.3652" rx="6.68259" fill="#FDC697"/>
<rect opacity="0.8" x="81.5605" y="53.8638" width="125.299" height="13.3652" rx="6.68259" fill="#F58220"/>
<rect x="154.232" y="75.582" width="50.1194" height="13.3652" rx="6.68259" fill="#FDC697"/>
<circle cx="31.5916" cy="54.095" r="8.22241" fill="#FDC697"/>
<circle cx="40.2458" cy="241.912" r="8.22241" fill="#FDC697"/>
<circle cx="145.84" cy="9.08793" r="9.08793" fill="#FDC697"/>
<circle cx="269.609" cy="116.412" r="9.08793" fill="#FDC697"/>
<ellipse cx="220.274" cy="20.7724" rx="3.89483" ry="4.32759" fill="#FDC697"/>
<circle cx="261.388" cy="171.373" r="3.46207" fill="#FDC697"/>
<circle cx="242.345" cy="234.555" r="3.46207" fill="#FDC697"/>
<circle cx="154.494" cy="241.046" r="3.02931" fill="#FDC697"/>
<ellipse cx="48.0352" cy="122.038" rx="3.02931" ry="3.46207" fill="#FDC697"/>
<circle cx="3.02931" cy="195.174" r="3.02931" fill="#FDC697"/>
<circle cx="265.714" cy="57.9897" r="4.32759" fill="#FDC697"/>
</svg>
