<svg width="26" height="26" viewBox="0 0 26 26" fill="none" xmlns="http://www.w3.org/2000/svg">
<path d="M26 13C26 20.1797 20.1797 26 13 26C5.8203 26 0 20.1797 0 13C0 5.8203 5.8203 0 13 0C20.1797 0 26 5.8203 26 13Z" fill="#F58220" fill-opacity="0.1"/>
<path fill-rule="evenodd" clip-rule="evenodd" d="M7.44362 7.60508C7.14447 7.60508 6.90195 7.84759 6.90195 8.14674V8.62523H6.25195V8.14674C6.25195 7.48861 6.78548 6.95508 7.44362 6.95508H21.4934C22.1515 6.95508 22.685 7.48861 22.685 8.14674V14.9551C22.685 15.6132 22.1515 16.1468 21.4934 16.1468H20.9925V15.4968H21.4934C21.7925 15.4968 22.035 15.2543 22.035 14.9551V8.14674C22.035 7.84759 21.7925 7.60508 21.4934 7.60508H7.44362Z" fill="#F58220"/>
<path fill-rule="evenodd" clip-rule="evenodd" d="M18.6457 10.6646H4.50632C4.38665 10.6646 4.28965 10.7617 4.28965 10.8813V17.8018C4.28965 17.9214 4.38665 18.0184 4.50632 18.0184H18.6457C18.7654 18.0184 18.8624 17.9214 18.8624 17.8018V10.8813C18.8624 10.7617 18.7654 10.6646 18.6457 10.6646ZM4.50632 10.0146C4.02767 10.0146 3.63965 10.4027 3.63965 10.8813V17.8018C3.63965 18.2804 4.02767 18.6684 4.50632 18.6684H18.6457C19.1244 18.6684 19.5124 18.2804 19.5124 17.8018V10.8813C19.5124 10.4027 19.1244 10.0146 18.6457 10.0146H4.50632Z" fill="#F58220"/>
<path fill-rule="evenodd" clip-rule="evenodd" d="M11.5769 15.4188C12.1589 15.4188 12.6308 14.947 12.6308 14.365C12.6308 13.783 12.1589 13.3111 11.5769 13.3111C10.9949 13.3111 10.523 13.783 10.523 14.365C10.523 14.947 10.9949 15.4188 11.5769 15.4188ZM11.5769 16.0688C12.5179 16.0688 13.2808 15.306 13.2808 14.365C13.2808 13.424 12.5179 12.6611 11.5769 12.6611C10.6359 12.6611 9.87305 13.424 9.87305 14.365C9.87305 15.306 10.6359 16.0688 11.5769 16.0688Z" fill="#F58220"/>
<path fill-rule="evenodd" clip-rule="evenodd" d="M6.45374 10.4861C6.45374 10.3513 6.4426 10.2193 6.42126 10.091L7.06245 9.98438C7.08963 10.1478 7.10374 10.3154 7.10374 10.4861C7.10374 12.1638 5.74371 13.5238 4.06602 13.5238C3.92148 13.5238 3.77912 13.5137 3.63965 13.4941L3.73015 12.8504C3.83973 12.8658 3.95185 12.8738 4.06602 12.8738C5.38472 12.8738 6.45374 11.8048 6.45374 10.4861Z" fill="#F58220"/>
<path fill-rule="evenodd" clip-rule="evenodd" d="M6.45374 18.1985C6.45374 18.3333 6.4426 18.4652 6.42126 18.5935L7.06245 18.7002C7.08963 18.5368 7.10374 18.3692 7.10374 18.1985C7.10374 16.5208 5.74371 15.1608 4.06602 15.1608C3.92148 15.1608 3.77912 15.1709 3.63965 15.1905L3.73015 15.8342C3.83973 15.8188 3.95185 15.8108 4.06602 15.8108C5.38472 15.8108 6.45374 16.8798 6.45374 18.1985Z" fill="#F58220"/>
<path fill-rule="evenodd" clip-rule="evenodd" d="M16.7435 10.5085C16.7435 10.3737 16.7547 10.2418 16.776 10.1135L16.1348 10.0068C16.1076 10.1702 16.0935 10.3379 16.0935 10.5085C16.0935 12.1862 17.4536 13.5463 19.1312 13.5463C19.2758 13.5463 19.4181 13.5361 19.5576 13.5165L19.4671 12.8729C19.3575 12.8883 19.2454 12.8963 19.1312 12.8963C17.8125 12.8963 16.7435 11.8272 16.7435 10.5085Z" fill="#F58220"/>
<path fill-rule="evenodd" clip-rule="evenodd" d="M16.7435 18.2209C16.7435 18.3558 16.7547 18.4877 16.776 18.616L16.1348 18.7227C16.1076 18.5592 16.0935 18.3916 16.0935 18.2209C16.0935 16.5433 17.4536 15.1832 19.1312 15.1832C19.2758 15.1832 19.4181 15.1934 19.5576 15.213L19.4671 15.8566C19.3575 15.8412 19.2454 15.8332 19.1312 15.8332C17.8125 15.8332 16.7435 16.9023 16.7435 18.2209Z" fill="#F58220"/>
</svg>
