<svg width="26" height="26" viewBox="0 0 26 26" fill="none" xmlns="http://www.w3.org/2000/svg">
<path d="M26 13C26 20.1797 20.1797 26 13 26C5.8203 26 0 20.1797 0 13C0 5.8203 5.8203 0 13 0C20.1797 0 26 5.8203 26 13Z" fill="#F58220" fill-opacity="0.1"/>
<path fill-rule="evenodd" clip-rule="evenodd" d="M9.90729 18.9988H6.50072V19.6962H9.90729V18.9988ZM6.06738 18.5654V20.1295H10.3406V18.5654H6.06738Z" fill="#F58220"/>
<path fill-rule="evenodd" clip-rule="evenodd" d="M14.9063 18.9988H11.4997V19.6962H14.9063V18.9988ZM11.0664 18.5654V20.1295H15.3396V18.5654H11.0664Z" fill="#F58220"/>
<path fill-rule="evenodd" clip-rule="evenodd" d="M19.9063 18.9988H16.4997V19.6962H19.9063V18.9988ZM16.0664 18.5654V20.1295H20.3396V18.5654H16.0664Z" fill="#F58220"/>
<path fill-rule="evenodd" clip-rule="evenodd" d="M14.9346 16.4851H11.5281V17.1825H14.9346V16.4851ZM11.0947 16.0518V17.6158H15.368V16.0518H11.0947Z" fill="#F58220"/>
<path fill-rule="evenodd" clip-rule="evenodd" d="M19.9337 16.4851H16.5271V17.1825H19.9337V16.4851ZM16.0938 16.0518V17.6158H20.367V16.0518H16.0938Z" fill="#F58220"/>
<path fill-rule="evenodd" clip-rule="evenodd" d="M19.9063 13.9714H16.4997V14.6688H19.9063V13.9714ZM16.0664 13.5381V15.1021H20.3396V13.5381H16.0664Z" fill="#F58220"/>
<path fill-rule="evenodd" clip-rule="evenodd" d="M18.3633 5.5166L19.2188 11.1036L17.7732 10.3895C16.6674 12.1754 13.414 15.0884 7.81734 14.6863L7.51562 14.6646V13.2286L7.80994 13.2007C9.32322 13.0572 12.7848 12.0182 14.7919 9.06179L13.8003 8.52399L18.3633 5.5166ZM15.0637 8.46977L15.7137 8.82232L15.5321 9.11508C13.5307 12.3414 9.96707 13.555 8.16562 13.8125V14.0564C13.5876 14.33 16.5559 11.3185 17.3569 9.81071L17.505 9.53205L18.3873 9.96789L17.8742 6.61739L15.0637 8.46977Z" fill="#F58220"/>
</svg>
