<svg width="26" height="26" viewBox="0 0 26 26" fill="none" xmlns="http://www.w3.org/2000/svg">
<path d="M26 13C26 20.1797 20.1797 26 13 26C5.8203 26 0 20.1797 0 13C0 5.8203 5.8203 0 13 0C20.1797 0 26 5.8203 26 13Z" fill="#F58220" fill-opacity="0.1"/>
<path d="M9.9651 6.81891C9.9651 6.46417 9.96404 6.14153 9.9653 5.81894C9.96809 5.1158 10.4008 4.68201 11.1057 4.68099C12.3667 4.67917 13.6277 4.67937 14.8887 4.68089C15.6039 4.68175 16.035 5.11483 16.0371 5.83035C16.0382 6.1643 16.0373 6.49825 16.0373 6.85207C16.1344 6.85207 16.2087 6.85207 16.2831 6.85207C17.5821 6.85207 18.8811 6.85431 20.1801 6.85131C20.989 6.84944 21.6315 7.15677 22.0666 7.85215C22.2549 8.15329 22.3555 8.48628 22.3563 8.84208C22.3597 10.3692 22.3611 11.8963 22.3576 13.4234C22.3566 13.8766 22.0851 14.2407 21.6454 14.3682C21.49 14.4133 21.4609 14.4867 21.4613 14.6321C21.4662 16.0704 21.4616 17.5089 21.4653 18.9473C21.4674 19.75 21.1605 20.3853 20.4746 20.8195C20.1333 21.0356 19.7529 21.1215 19.3524 21.1216C15.1195 21.1221 10.8867 21.1248 6.65379 21.1201C5.41023 21.1187 4.54376 20.2324 4.5392 18.9703C4.53392 17.5129 4.53626 16.0555 4.54057 14.598C4.54097 14.4548 4.51795 14.3805 4.3565 14.3382C3.94472 14.2304 3.64718 13.8379 3.64586 13.4082C3.64125 11.8558 3.63247 10.3032 3.65067 8.75091C3.66224 7.76539 4.51319 6.90263 5.49597 6.83118C5.61589 6.82246 5.73652 6.81942 5.85679 6.81937C7.14311 6.81856 8.42947 6.81886 9.71578 6.81886C9.79072 6.81891 9.86556 6.81891 9.9651 6.81891ZM14.9452 13.6713C15.0404 13.6713 15.1087 13.6713 15.1771 13.6713C17.1668 13.6713 19.1566 13.6714 21.1463 13.6713C21.5138 13.6713 21.6489 13.5373 21.649 13.17C21.6495 11.7823 21.6307 10.3942 21.656 9.00693C21.6717 8.14482 21.0163 7.5539 20.205 7.55618C15.4145 7.56962 10.6239 7.56951 5.83337 7.55618C5.03216 7.55395 4.36781 8.13605 4.38348 9.00815C4.40868 10.4081 4.39007 11.8088 4.39032 13.2092C4.39037 13.5914 4.47186 13.6711 4.86235 13.6712C6.86473 13.6714 8.86716 13.6713 10.8695 13.6713C10.9374 13.6713 11.0052 13.6713 11.0948 13.6713C11.0948 13.4859 11.0929 13.3229 11.0951 13.16C11.1039 12.5032 11.541 12.0415 12.1965 12.024C12.7473 12.0092 13.2993 12.0082 13.8501 12.0246C14.5051 12.0441 14.9367 12.5066 14.9449 13.1669C14.9469 13.3248 14.9452 13.4826 14.9452 13.6713ZM14.9076 14.4254C14.9076 14.5579 14.9091 14.6711 14.9073 14.7844C14.8967 15.4303 14.4634 15.893 13.8175 15.9137C13.2604 15.9315 12.7019 15.9318 12.1448 15.9135C11.5 15.8923 11.0668 15.4273 11.0575 14.7819C11.0559 14.6691 11.0573 14.5562 11.0573 14.4324C9.12561 14.4324 7.2108 14.4324 5.28508 14.4324C5.28508 14.518 5.28508 14.5873 5.28508 14.6567C5.28508 16.0763 5.28488 17.4958 5.28518 18.9154C5.28539 19.8249 5.83119 20.3726 6.73736 20.3726C9.06953 20.3728 11.4017 20.3727 13.7338 20.3727C15.6097 20.3727 17.4856 20.3746 19.3614 20.3717C20.1574 20.3705 20.6795 19.841 20.6797 19.046C20.68 17.5757 20.6799 16.1054 20.6794 14.6351C20.6794 14.568 20.6739 14.5009 20.6706 14.4254C18.748 14.4254 16.843 14.4254 14.9076 14.4254ZM10.7188 6.80436C12.2404 6.80436 13.7377 6.80436 15.2465 6.80436C15.2465 6.46737 15.2475 6.14478 15.2462 5.82218C15.2452 5.54426 15.1325 5.43073 14.8544 5.43017C14.2526 5.42891 13.6509 5.42977 13.0491 5.42977C12.3967 5.42977 11.7442 5.4287 11.0918 5.43043C10.8626 5.43104 10.7246 5.54376 10.7207 5.74577C10.7139 6.09356 10.7188 6.44161 10.7188 6.80436ZM13.0012 12.8076C12.7351 12.8076 12.4689 12.8045 12.2028 12.8085C11.9449 12.8124 11.8106 12.9343 11.8067 13.1917C11.7988 13.7176 11.7989 14.2437 11.8061 14.7696C11.8097 15.0288 11.9559 15.1628 12.2167 15.1643C12.7299 15.1673 13.2432 15.1672 13.7565 15.1643C14.0182 15.1628 14.1537 15.0443 14.158 14.7881C14.1668 14.256 14.1666 13.7235 14.1585 13.1913C14.1546 12.9341 14.0194 12.8125 13.7617 12.8085C13.5082 12.8045 13.2547 12.8076 13.0012 12.8076Z" fill="#F58220"/>
<path d="M13.3782 13.9927C13.3781 14.1631 13.382 14.3337 13.3772 14.504C13.3699 14.7627 13.2319 14.9031 12.9958 14.9006C12.7686 14.8981 12.6306 14.76 12.6266 14.5117C12.6209 14.1583 12.62 13.8046 12.6272 13.4512C12.6321 13.2086 12.78 13.0696 13.0071 13.0723C13.2262 13.0749 13.3607 13.2096 13.3773 13.4435C13.3782 13.456 13.3782 13.4687 13.3782 13.4813C13.3783 13.6518 13.3782 13.8223 13.3782 13.9927Z" fill="#F58220"/>
</svg>
