<svg width="26" height="26" viewBox="0 0 26 26" fill="none" xmlns="http://www.w3.org/2000/svg">
<path d="M26 13C26 20.1797 20.1797 26 13 26C5.8203 26 0 20.1797 0 13C0 5.8203 5.8203 0 13 0C20.1797 0 26 5.8203 26 13Z" fill="#F58220" fill-opacity="0.1"/>
<path fill-rule="evenodd" clip-rule="evenodd" d="M6.63855 4.875C6.81804 4.875 6.96355 5.02051 6.96355 5.2V18.9015H20.65C20.8295 18.9015 20.975 19.047 20.975 19.2265C20.975 19.406 20.8295 19.5515 20.65 19.5515H6.96355V20.28C6.96355 20.4595 6.81804 20.605 6.63855 20.605C6.45906 20.605 6.31355 20.4595 6.31355 20.28V19.5515H5.72051C5.54102 19.5515 5.39551 19.406 5.39551 19.2265C5.39551 19.047 5.54102 18.9015 5.72051 18.9015H6.31355V5.2C6.31355 5.02051 6.45906 4.875 6.63855 4.875Z" fill="#F58220"/>
<path fill-rule="evenodd" clip-rule="evenodd" d="M11.163 7.38086L15.5176 12.9733L19.1636 9.33913L18.2025 9.49438C18.0253 9.52301 17.8584 9.40257 17.8298 9.22537C17.8012 9.04817 17.9216 8.88132 18.0988 8.8527L20.4975 8.46522L20.1573 10.6385C20.1296 10.8158 19.9633 10.9371 19.786 10.9093C19.6087 10.8816 19.4874 10.7153 19.5152 10.538L19.6323 9.78968L15.4561 13.9523L11.0216 8.25724L8.5037 9.94038C8.35448 10.0401 8.15264 10 8.05289 9.8508C7.95314 9.70158 7.99324 9.49975 8.14246 9.4L11.163 7.38086Z" fill="#F58220"/>
<path fill-rule="evenodd" clip-rule="evenodd" d="M8.24004 18.083C8.06055 18.083 7.91504 17.9375 7.91504 17.758V11.5453C7.91504 11.3658 8.06055 11.2203 8.24004 11.2203C8.41953 11.2203 8.56504 11.3658 8.56504 11.5453V17.758C8.56504 17.9375 8.41953 18.083 8.24004 18.083Z" fill="#F58220"/>
<path fill-rule="evenodd" clip-rule="evenodd" d="M10.6473 18.083C10.4678 18.083 10.3223 17.9375 10.3223 17.758V10.7025C10.3223 10.523 10.4678 10.3775 10.6473 10.3775C10.8268 10.3775 10.9723 10.523 10.9723 10.7025V17.758C10.9723 17.9375 10.8268 18.083 10.6473 18.083Z" fill="#F58220"/>
<path fill-rule="evenodd" clip-rule="evenodd" d="M13.0555 18.083C12.876 18.083 12.7305 17.9375 12.7305 17.758V13.8027C12.7305 13.6232 12.876 13.4777 13.0555 13.4777C13.235 13.4777 13.3805 13.6232 13.3805 13.8027V17.758C13.3805 17.9375 13.235 18.083 13.0555 18.083Z" fill="#F58220"/>
<path fill-rule="evenodd" clip-rule="evenodd" d="M15.4637 18.083C15.2842 18.083 15.1387 17.9375 15.1387 17.758V15.4883C15.1387 15.3088 15.2842 15.1633 15.4637 15.1633C15.6432 15.1633 15.7887 15.3088 15.7887 15.4883V17.758C15.7887 17.9375 15.6432 18.083 15.4637 18.083Z" fill="#F58220"/>
<path fill-rule="evenodd" clip-rule="evenodd" d="M17.8719 18.083C17.6924 18.083 17.5469 17.9375 17.5469 17.758L17.5469 13.3512C17.5469 13.1717 17.6924 13.0262 17.8719 13.0262C18.0514 13.0262 18.1969 13.1717 18.1969 13.3512L18.1969 17.758C18.1969 17.9375 18.0514 18.083 17.8719 18.083Z" fill="#F58220"/>
</svg>
