<svg width="28" height="29" viewBox="0 0 28 29" fill="none" xmlns="http://www.w3.org/2000/svg">
    <path d="M16.1 6.1a2.1 2.1 0 1 0-4.2 0h-1.4a3.5 3.5 0 1 1 7 0h6.3a.7.7 0 1 1 0 1.4h-.776L21.21 23.222a2.8 2.8 0 0 1-2.782 2.478H9.572a2.8 2.8 0 0 1-2.782-2.478L4.974 7.5H4.2a.7.7 0 0 1-.689-.574L3.5 6.8a.7.7 0 0 1 .7-.7h11.9zm5.513 1.4H6.385L8.18 23.06a1.4 1.4 0 0 0 1.392 1.24h8.856a1.4 1.4 0 0 0 1.39-1.24L21.613 7.5zM11.9 11c.343 0 .63.217.689.502l.011.11v8.576c0 .337-.314.612-.7.612-.343 0-.63-.217-.689-.503l-.011-.11v-8.573c0-.339.314-.613.7-.613V11zm4.2 0c.343 0 .63.217.689.502l.011.11v8.576c0 .337-.314.612-.7.612-.343 0-.63-.217-.689-.503l-.011-.11v-8.573c0-.339.314-.613.7-.613V11z" fill="#FB462E"/>
</svg>
