<svg width="19" height="15" viewBox="0 0 19 15" fill="none" xmlns="http://www.w3.org/2000/svg">
<path d="M11.4842 11.2034H9.96459V6.23437C9.96459 6.14414 9.89076 6.07031 9.80053 6.07031H8.57006C8.47982 6.07031 8.406 6.14414 8.406 6.23437V11.2034H6.89047C6.75307 11.2034 6.67719 11.3613 6.76127 11.468L9.05814 14.3739C9.07349 14.3935 9.0931 14.4094 9.11548 14.4203C9.13787 14.4312 9.16244 14.4369 9.18734 14.4369C9.21224 14.4369 9.23682 14.4312 9.2592 14.4203C9.28159 14.4094 9.3012 14.3935 9.31654 14.3739L11.6134 11.468C11.6975 11.3613 11.6216 11.2034 11.4842 11.2034V11.2034Z" fill="#F5821F"/>
<path d="M15.3275 4.23897C14.3883 1.76162 11.995 0 9.1916 0C6.38818 0 3.99492 1.75957 3.05566 4.23691C1.29814 4.69834 0 6.3 0 8.20312C0 10.4692 1.83545 12.3047 4.09951 12.3047H4.92188C5.01211 12.3047 5.08594 12.2309 5.08594 12.1406V10.9102C5.08594 10.8199 5.01211 10.7461 4.92188 10.7461H4.09951C3.4084 10.7461 2.7583 10.4713 2.27432 9.97295C1.79238 9.47666 1.53604 8.80811 1.55859 8.11494C1.57705 7.57354 1.76162 7.06494 2.0959 6.63633C2.43838 6.19951 2.91826 5.88164 3.45146 5.74014L4.22871 5.53711L4.51377 4.78652C4.69014 4.31895 4.93623 3.88213 5.2459 3.48633C5.55161 3.09403 5.91374 2.74917 6.32051 2.46299C7.16338 1.87031 8.15596 1.55654 9.1916 1.55654C10.2272 1.55654 11.2198 1.87031 12.0627 2.46299C12.4708 2.7501 12.8317 3.09463 13.1373 3.48633C13.447 3.88213 13.6931 4.321 13.8694 4.78652L14.1524 5.53506L14.9276 5.74014C16.0392 6.03955 16.8164 7.05059 16.8164 8.20312C16.8164 8.88193 16.5519 9.52178 16.072 10.0017C15.8366 10.2384 15.5567 10.4261 15.2483 10.5538C14.9399 10.6816 14.6093 10.747 14.2755 10.7461H13.4531C13.3629 10.7461 13.2891 10.8199 13.2891 10.9102V12.1406C13.2891 12.2309 13.3629 12.3047 13.4531 12.3047H14.2755C16.5396 12.3047 18.375 10.4692 18.375 8.20312C18.375 6.30205 17.081 4.70244 15.3275 4.23897Z" fill="#F5821F"/>
</svg>
