<svg width="15" height="15" viewBox="0 0 15 15" fill="none" xmlns="http://www.w3.org/2000/svg">
<path fill-rule="evenodd" clip-rule="evenodd" d="M1.29152 6.23049C1.33506 6.18683 1.38679 6.1522 1.44374 6.12857C1.50069 6.10494 1.56174 6.09277 1.6234 6.09277C1.68505 6.09277 1.7461 6.10494 1.80305 6.12857C1.86 6.1522 1.91173 6.18683 1.95527 6.23049L7.2484 11.5245L12.5415 6.23049C12.6295 6.14247 12.7489 6.09302 12.8734 6.09302C12.9979 6.09302 13.1173 6.14247 13.2053 6.23049C13.2933 6.3185 13.3427 6.43788 13.3427 6.56236C13.3427 6.68684 13.2933 6.80622 13.2053 6.89424L7.58027 12.5192C7.53673 12.5629 7.485 12.5975 7.42805 12.6212C7.3711 12.6448 7.31005 12.6569 7.2484 12.6569C7.18674 12.6569 7.12569 12.6448 7.06874 12.6212C7.01179 12.5975 6.96006 12.5629 6.91652 12.5192L1.29152 6.89424C1.24787 6.85069 1.21323 6.79897 1.1896 6.74202C1.16597 6.68507 1.15381 6.62402 1.15381 6.56236C1.15381 6.5007 1.16597 6.43965 1.1896 6.3827C1.21323 6.32576 1.24787 6.27403 1.29152 6.23049Z" fill="#F5821F"/>
<path fill-rule="evenodd" clip-rule="evenodd" d="M1.29152 2.48049C1.33506 2.43683 1.38679 2.4022 1.44374 2.37857C1.50069 2.35494 1.56174 2.34277 1.6234 2.34277C1.68505 2.34277 1.7461 2.35494 1.80305 2.37857C1.86 2.4022 1.91173 2.43683 1.95527 2.48049L7.2484 7.77455L12.5415 2.48049C12.5851 2.4369 12.6368 2.40233 12.6938 2.37875C12.7507 2.35516 12.8118 2.34302 12.8734 2.34302C12.935 2.34302 12.9961 2.35516 13.053 2.37875C13.1099 2.40233 13.1617 2.4369 13.2053 2.48049C13.2489 2.52407 13.2834 2.57581 13.307 2.63275C13.3306 2.6897 13.3427 2.75073 13.3427 2.81236C13.3427 2.874 13.3306 2.93503 13.307 2.99197C13.2834 3.04891 13.2489 3.10065 13.2053 3.14424L7.58027 8.76924C7.53673 8.81289 7.485 8.84752 7.42805 8.87115C7.3711 8.89479 7.31005 8.90695 7.2484 8.90695C7.18674 8.90695 7.12569 8.89479 7.06874 8.87115C7.01179 8.84752 6.96006 8.81289 6.91652 8.76924L1.29152 3.14424C1.24787 3.10069 1.21323 3.04897 1.1896 2.99202C1.16597 2.93507 1.15381 2.87402 1.15381 2.81236C1.15381 2.7507 1.16597 2.68965 1.1896 2.6327C1.21323 2.57576 1.24787 2.52403 1.29152 2.48049Z" fill="#F5821F"/>
</svg>
