<svg width="184" height="184" viewBox="0 0 184 184" fill="none" xmlns="http://www.w3.org/2000/svg">
<path d="M157.013 180.32H26.9867C24.5142 180.32 22.1429 179.338 20.3946 177.589C18.6463 175.841 17.6641 173.47 17.6641 170.997V13.0027C17.6641 10.5301 18.6463 8.15887 20.3946 6.41053C22.1429 4.66219 24.5142 3.67999 26.9867 3.67999H110.4C112.779 3.65751 115.079 4.53366 116.84 6.13332L163.453 50.968C164.36 51.8434 165.081 52.8913 165.577 54.05C166.072 55.2087 166.33 56.4547 166.336 57.7147V170.997C166.336 173.47 165.354 175.841 163.606 177.589C161.857 179.338 159.486 180.32 157.013 180.32ZM26.9867 9.81332C26.1409 9.81332 25.3296 10.1493 24.7315 10.7475C24.1334 11.3456 23.7974 12.1568 23.7974 13.0027V170.997C23.7974 171.843 24.1334 172.654 24.7315 173.253C25.3296 173.851 26.1409 174.187 26.9867 174.187H157.013C157.859 174.187 158.67 173.851 159.269 173.253C159.867 172.654 160.203 171.843 160.203 170.997V57.8373C160.267 57.0134 160.002 56.1975 159.467 55.568L112.547 10.7333C112.268 10.4445 111.935 10.2143 111.566 10.0563C111.198 9.89826 110.801 9.81566 110.4 9.81332H26.9867Z" fill="#1B3F71"/>
<path d="M161.368 56.9174H107.272V6.7467H113.406V50.784H161.368V56.9174Z" fill="#1B3F71"/>
<path d="M135.853 79.672H45.0186V85.8053H135.853V79.672Z" fill="#1B3F71"/>
<path d="M135.853 108.56H45.0186V114.693H135.853V108.56Z" fill="#1B3F71"/>
<path d="M135.853 140.699H45.0186V146.832H135.853V140.699Z" fill="#1B3F71"/>
</svg>
