<svg width="178" height="178" viewBox="0 0 178 178" fill="none" xmlns="http://www.w3.org/2000/svg">
<path d="M151.893 174.44H26.1066C23.7147 174.44 21.4207 173.49 19.7294 171.798C18.0381 170.107 17.0879 167.813 17.0879 165.421V12.5786C17.0879 10.1867 18.0381 7.89281 19.7294 6.20148C21.4207 4.51016 23.7147 3.55998 26.1066 3.55998H106.8C109.101 3.53823 111.326 4.38581 113.03 5.93331L158.123 49.306C159 50.1529 159.698 51.1666 160.177 52.2875C160.656 53.4084 160.906 54.6138 160.912 55.8326V165.421C160.912 167.813 159.962 170.107 158.27 171.798C156.579 173.49 154.285 174.44 151.893 174.44ZM26.1066 9.49331C25.2883 9.49331 24.5035 9.81837 23.9249 10.397C23.3463 10.9756 23.0212 11.7604 23.0212 12.5786V165.421C23.0212 166.24 23.3463 167.024 23.9249 167.603C24.5035 168.182 25.2883 168.507 26.1066 168.507H151.893C152.712 168.507 153.496 168.182 154.075 167.603C154.653 167.024 154.979 166.24 154.979 165.421V55.9513C155.041 55.1542 154.785 54.365 154.267 53.756L108.877 10.3833C108.607 10.1039 108.285 9.88119 107.928 9.72833C107.572 9.57548 107.188 9.49557 106.8 9.49331H26.1066Z" fill="#1B3F71"/>
<path d="M156.106 55.0613H103.774V6.52661H109.708V49.1279H156.106V55.0613Z" fill="#1B3F71"/>
<path d="M114.039 95.6453H44.5V111.665H114.039V95.6453Z" fill="#1C3E71"/>
<path d="M133.5 103.655L100.036 84.3127V122.998L133.5 103.655Z" fill="#1C3E71"/>
</svg>
