<svg width="29" height="29" viewBox="0 0 29 29" fill="none" xmlns="http://www.w3.org/2000/svg">
    <path d="M8.915 5.567a1.117 1.117 0 1 0 2.233 0 1.117 1.117 0 0 0-2.233 0zM17.849 5.567a1.117 1.117 0 1 0 2.233 0 1.117 1.117 0 0 0-2.233 0zM8.915 14.5a1.117 1.117 0 1 0 2.233 0 1.117 1.117 0 0 0-2.233 0zM17.849 14.5a1.117 1.117 0 1 0 2.233 0 1.117 1.117 0 0 0-2.233 0zM8.915 23.433a1.117 1.117 0 1 0 2.234 0 1.117 1.117 0 0 0-2.234 0zM17.849 23.433a1.117 1.117 0 1 0 2.233 0 1.117 1.117 0 0 0-2.233 0z" stroke="#999"/>
</svg>
