<svg width="530" height="232" viewBox="0 0 530 232" fill="none" xmlns="http://www.w3.org/2000/svg">
<path d="M165.634 206.388C218.925 206.388 262.126 163.188 262.126 109.897C262.126 56.6056 218.925 13.4048 165.634 13.4048C112.343 13.4048 69.1426 56.6056 69.1426 109.897C69.1426 163.188 112.343 206.388 165.634 206.388Z" fill="white" stroke="#F58220" stroke-width="3"/>
<path fill-rule="evenodd" clip-rule="evenodd" d="M50.2598 230L153.882 90.8438V229.474L50.2598 230Z" fill="#FDDDB0"/>
<path fill-rule="evenodd" clip-rule="evenodd" d="M50.2598 229.996L116.77 140.634L123.432 151.213L142.777 135.55L153.648 138.53L153.882 229.47L50.2598 229.996Z" fill="#F8AB6A"/>
<path fill-rule="evenodd" clip-rule="evenodd" d="M153.529 228.188L153.88 90.8438L267.087 214.103V228.305C267.087 228.305 153.88 228.188 153.529 228.188Z" fill="#FEECD1"/>
<path fill-rule="evenodd" clip-rule="evenodd" d="M153.529 229.474V138.593L166.446 127.313L185.382 125.151L267.087 215.389V229.182L153.529 229.474Z" fill="#FDC697"/>
<path fill-rule="evenodd" clip-rule="evenodd" d="M266.1 229.237V51.0986L278.198 53.9039L291.698 48.5854L394.97 209.658V112.757L404.262 117.901L409.405 111.179L511.449 229.237H266.1Z" fill="#FDC697"/>
<path fill-rule="evenodd" clip-rule="evenodd" d="M182.348 121.759L265.806 3C265.806 3 269.547 213.926 265.806 213.926C262.124 213.926 182.348 121.759 182.348 121.759Z" fill="#F8AB6A"/>
<path fill-rule="evenodd" clip-rule="evenodd" d="M265.808 3L266.86 50.9829L257.45 58.2884L244.476 53.3791L229.923 59.8664L228.812 55.6584L265.808 3Z" fill="#FDDDB0"/>
<path fill-rule="evenodd" clip-rule="evenodd" d="M265.809 3L291.699 48.5867L278.199 53.9051L266.568 51.2167C266.568 51.2167 265.809 3.05844 265.809 3Z" fill="#FEECD1"/>
<path opacity="0.8" fill-rule="evenodd" clip-rule="evenodd" d="M394.966 209.779V92.7729L350.256 139.938L394.966 209.779Z" fill="#F79745"/>
<path fill-rule="evenodd" clip-rule="evenodd" d="M394.971 92.7104L409.406 111.179L404.263 117.9L394.912 112.698L394.971 92.7104Z" fill="#FEECD1"/>
<path fill-rule="evenodd" clip-rule="evenodd" d="M394.964 112.757L387.191 114.627L381.697 106.737L394.964 92.7104V112.757Z" fill="#FDDDB0"/>
<path fill-rule="evenodd" clip-rule="evenodd" d="M313.262 148.118C333.776 190.782 324.717 205.861 313.73 205.802C302.508 205.744 290.878 193.295 313.262 148.118Z" fill="white" stroke="#F58220" stroke-width="3"/>
<path d="M313.26 187.334V228.596" stroke="#F58220" stroke-width="3"/>
<path d="M318.754 191.774L313.26 194.638" stroke="#F58220" stroke-width="2"/>
<path d="M306.309 196.568L313.03 200.017" stroke="#F58220" stroke-width="2"/>
<path fill-rule="evenodd" clip-rule="evenodd" d="M355.109 180.085C367.733 206.327 362.18 215.62 355.401 215.561C348.504 215.503 341.374 207.905 355.109 180.085Z" fill="white" stroke="#F58220" stroke-width="3"/>
<path d="M355.109 204.223V229.588" stroke="#F58220" stroke-width="3"/>
<path d="M358.499 206.911L355.109 208.664" stroke="#F58220" stroke-width="2"/>
<path d="M350.844 209.896L354.993 212" stroke="#F58220" stroke-width="2"/>
<path fill-rule="evenodd" clip-rule="evenodd" d="M433.54 171.907C448.152 202.298 441.723 213.052 433.891 212.993C425.884 212.935 417.585 204.11 433.54 171.907Z" fill="white" stroke="#F58220" stroke-width="3"/>
<path d="M433.541 199.839V229.236" stroke="#F58220" stroke-width="3"/>
<path d="M437.457 202.996L433.541 205.041" stroke="#F58220" stroke-width="2"/>
<path d="M428.572 206.442L433.365 208.897" stroke="#F58220" stroke-width="2"/>
<path fill-rule="evenodd" clip-rule="evenodd" d="M188.309 148.701C208.823 191.365 199.764 206.444 188.777 206.385C177.555 206.327 165.925 193.878 188.309 148.701Z" fill="white" stroke="#F58220" stroke-width="3"/>
<path d="M188.307 187.916V229.178" stroke="#F58220" stroke-width="3"/>
<path d="M193.8 192.362L188.307 195.226" stroke="#F58220" stroke-width="3"/>
<path d="M181.354 197.151L188.075 200.599" stroke="#F58220" stroke-width="3"/>
<path fill-rule="evenodd" clip-rule="evenodd" d="M50.2598 229.998L153.882 91.0758L182.344 121.759L193.156 106.388L265.803 3L301.629 64.016L350.255 139.935L394.965 92.7707L511.445 229.238L64.8124 229.998H50.2598Z" stroke="#F58220" stroke-width="3"/>
<path fill-rule="evenodd" clip-rule="evenodd" d="M226.592 88.5054C232.144 89.0314 236.469 93.4732 236.469 98.8501C236.469 103.292 233.956 109.955 222.384 108.844H195.265C192.986 108.493 184.512 108.084 184.512 97.7397C184.512 91.9537 189.421 87.3366 195.441 87.3366C195.908 87.3366 196.376 87.3366 196.843 87.395C197.662 80.3232 203.974 74.771 211.688 74.771C219.754 74.771 226.358 80.9077 226.592 88.5054Z" fill="#FEECD1" stroke="#F58220" stroke-width="3"/>
<path d="M197.487 94.9348C197.487 94.9348 196.201 90.1424 196.844 87.3955" stroke="#F58220" stroke-width="3"/>
<path d="M226.589 88.5049C226.589 88.5049 222.323 88.3296 220.336 91.2518" stroke="#F58220" stroke-width="3"/>
<path fill-rule="evenodd" clip-rule="evenodd" d="M350.199 66.9405C358.382 67.6419 364.752 74.1876 364.752 82.1361C364.752 88.6819 361.012 98.4421 344.004 96.8056H304.145C300.814 96.2796 288.365 95.6367 288.365 80.4412C288.365 72.0252 295.554 65.1872 304.437 65.1872C305.139 65.1872 305.782 65.1872 306.425 65.3041C307.652 54.8425 316.945 46.7188 328.283 46.7188C340.147 46.7188 349.79 55.7192 350.199 66.9405Z" fill="#FFE1C8" stroke="#F58220" stroke-width="3"/>
<path d="M307.417 76.4062C307.417 76.4062 305.547 69.276 306.423 65.3018" stroke="#F58220" stroke-width="3"/>
<path d="M350.199 66.9387C350.199 66.9387 343.887 66.6465 340.965 70.9714" stroke="#F58220" stroke-width="3"/>
<path d="M54.1196 229.997H0" stroke="#F58220" stroke-width="4"/>
<path d="M529.621 229.238H498.061" stroke="#F58220" stroke-width="4"/>
<path d="M102.512 81.4934C102.512 81.4934 116.129 77.9283 122.324 87.0457C122.324 87.0457 128.812 77.3439 143.014 78.5712" stroke="#F58220" stroke-width="3"/>
<path d="M156.631 66.0615C156.631 66.0615 170.248 62.4964 176.444 71.6138C176.444 71.6138 182.931 61.8535 197.133 63.0809" stroke="#F58220" stroke-width="3"/>
<path d="M140.031 48.3558C140.031 48.3558 147.863 46.3102 151.428 51.5118C151.428 51.5118 155.168 45.9595 163.351 46.6609" stroke="#F58220" stroke-width="3"/>
</svg>
