<svg width="23" height="23" viewBox="0 0 23 23" fill="none" xmlns="http://www.w3.org/2000/svg">
    <circle cx="11.5" cy="11.477" r="10.5" fill="#FEFEFE" stroke="#F6821F"/>
    <g clip-path="url(#v12pmdyusa)">
        <path d="M15.95 7.27c-.357-.341-.75-.514-1.17-.514-.657 0-1.136.424-1.267.554-.185.183-6.478 6.478-6.478 6.478a.337.337 0 0 0-.086.15c-.142.524-.853 2.85-.86 2.874a.337.337 0 0 0 .084.337.33.33 0 0 0 .335.08c.024-.007 2.426-.784 2.821-.901a.334.334 0 0 0 .139-.083c.25-.247 6.12-6.05 6.509-6.453.403-.415.603-.848.595-1.285-.008-.432-.217-.848-.622-1.236zm-2.541 1.087c.166.04.56.173.961.578.406.41.516.878.537.984-1.288 1.28-4.25 4.212-5.419 5.368a2.697 2.697 0 0 0-.562-.837 2.898 2.898 0 0 0-.96-.65l5.443-5.443zM7.52 14.353c.18.048.554.187.935.57.293.297.432.623.494.822-.455.146-1.452.49-2.085.694.188-.617.505-1.579.656-2.086zm7.98-5.029-.062.063a2.707 2.707 0 0 0-.599-.926 2.905 2.905 0 0 0-.908-.627l.046-.046c.038-.037.378-.362.802-.362.244 0 .483.111.712.33.271.26.41.517.415.763.005.252-.132.523-.405.805z" fill="#F6821F"/>
    </g>
    <defs>
        <clipPath id="v12pmdyusa">
            <path fill="#fff" transform="translate(6.086 6.763)" d="M0 0h10.476v10.476H0z"/>
        </clipPath>
    </defs>
</svg>
