<svg width="18" height="18" viewBox="0 0 18 18" fill="none" xmlns="http://www.w3.org/2000/svg">
<path d="M15.3454 0.708793C14.6929 0.0573555 13.6362 0.0573555 12.9837 0.708793L12.3925 1.30328L6.09933 7.59372L6.08595 7.6072C6.08271 7.61043 6.08271 7.61388 6.07927 7.61388C6.07258 7.62392 6.06255 7.63384 6.05597 7.64387C6.05597 7.64722 6.05252 7.64722 6.05252 7.65056C6.04583 7.66059 6.04259 7.66728 6.0358 7.67731C6.03256 7.68066 6.03256 7.6839 6.02922 7.68734C6.02587 7.69738 6.02253 7.70406 6.01908 7.7141C6.01908 7.71734 6.01584 7.71734 6.01584 7.72078L4.61958 11.9199C4.57862 12.0395 4.60975 12.1719 4.69972 12.2606C4.76293 12.323 4.84819 12.3579 4.9369 12.3575C4.97316 12.3569 5.00911 12.3513 5.0438 12.3408L9.23928 10.9411C9.24252 10.9411 9.24252 10.9411 9.24597 10.9378C9.25653 10.9347 9.26666 10.9302 9.27596 10.9244C9.27857 10.9241 9.28087 10.9229 9.28275 10.9211C9.29268 10.9144 9.30605 10.9076 9.31608 10.901C9.32601 10.8944 9.33614 10.8843 9.34618 10.8777C9.34952 10.8742 9.35276 10.8742 9.35276 10.871C9.35621 10.8676 9.36289 10.8644 9.36624 10.8576L16.2506 3.97256C16.902 3.31998 16.902 2.26319 16.2506 1.61071L15.3454 0.708793ZM9.13239 10.156L6.80754 7.83103L12.6264 2.01167L14.9512 4.33663L9.13239 10.156ZM6.48008 8.44903L8.51111 10.4801L5.46133 11.4957L6.48008 8.44903ZM15.7797 3.50483L15.4256 3.86232L13.1006 1.53714L13.4582 1.17976C13.8493 0.788943 14.4832 0.788943 14.8744 1.17976L15.7829 2.08837C16.1711 2.48128 16.1696 3.1138 15.7797 3.50483Z" fill="#999999"/>
<path fill-rule="evenodd" clip-rule="evenodd" d="M12.9839 0.708831C13.6364 0.057394 14.6931 0.057394 15.3456 0.708831L16.2508 1.61075C16.9022 2.26323 16.9022 3.32001 16.2508 3.9726L9.3664 10.8576C9.36405 10.8624 9.36003 10.8654 9.35665 10.868C9.35524 10.869 9.35394 10.87 9.35292 10.871C9.35292 10.873 9.35172 10.8738 9.35001 10.8748C9.34893 10.8755 9.34764 10.8763 9.34634 10.8777C9.34134 10.881 9.33631 10.8852 9.3313 10.8893C9.32625 10.8935 9.32123 10.8977 9.31625 10.901C9.31132 10.9043 9.30557 10.9076 9.29983 10.9109C9.2939 10.9143 9.28796 10.9178 9.28292 10.9212C9.28104 10.9229 9.27874 10.9241 9.27613 10.9244C9.26683 10.9303 9.25669 10.9347 9.24614 10.9379C9.24413 10.9398 9.24329 10.9406 9.2423 10.9409C9.24159 10.9411 9.2408 10.9411 9.23945 10.9411L5.04396 12.3409C5.00927 12.3513 4.97333 12.357 4.93707 12.3576C4.84836 12.3579 4.7631 12.323 4.69988 12.2606C4.60992 12.1719 4.57878 12.0395 4.61974 11.9199L6.01601 7.72082C6.01601 7.71907 6.01684 7.71821 6.01767 7.71736C6.01846 7.71654 6.01925 7.71573 6.01925 7.71413C6.0209 7.70932 6.02253 7.70528 6.02415 7.70126C6.02591 7.69691 6.02764 7.6926 6.02938 7.68738C6.03107 7.68564 6.0319 7.68396 6.03273 7.68229C6.03355 7.68064 6.03436 7.67901 6.03597 7.67735C6.03948 7.67216 6.04204 7.66787 6.04462 7.66354C6.04703 7.6595 6.04946 7.65544 6.05268 7.6506C6.05268 7.64893 6.05355 7.64809 6.05441 7.64725C6.05527 7.64642 6.05613 7.64558 6.05613 7.64391C6.05947 7.63882 6.0637 7.63376 6.06793 7.62869C6.07203 7.62378 6.07614 7.61886 6.07943 7.61392C6.08158 7.61392 6.08239 7.61259 6.08348 7.6108C6.08413 7.60971 6.0849 7.60846 6.08612 7.60723L6.09949 7.59375L12.3927 1.30332L12.9839 0.708831ZM12.2365 1.14801L12.237 1.14754L12.8283 0.552958C13.5668 -0.184319 14.7627 -0.184319 15.5012 0.552959L16.4067 1.45514C17.1439 2.19361 17.1439 3.38964 16.4067 4.1282L9.53348 11.002C9.52524 11.012 9.5173 11.02 9.51064 11.0261C9.50479 11.0322 9.49917 11.0374 9.49416 11.0416L9.48809 11.0479L9.47308 11.0579M12.2365 1.14801L5.98811 7.39367H5.96155L5.89947 7.48681C5.89923 7.48708 5.89897 7.4874 5.89868 7.48775C5.89674 7.49007 5.89264 7.49497 5.88868 7.49999C5.88442 7.5054 5.87836 7.51336 5.87198 7.52308L5.85121 7.55474L5.83631 7.57011L5.82086 7.61644C5.8207 7.61685 5.82045 7.61749 5.82007 7.61841L5.81974 7.61925C5.81941 7.62006 5.81899 7.62109 5.81851 7.62229C5.81651 7.6264 5.81457 7.63068 5.81273 7.63514C5.80945 7.64307 5.80659 7.6513 5.80419 7.6598L4.41138 11.8486C4.41126 11.8489 4.41114 11.8493 4.41102 11.8496C4.34318 12.0489 4.39524 12.2695 4.54523 12.4174C4.64972 12.5205 4.7908 12.5784 4.93785 12.5778L4.94088 12.5778C4.99748 12.5768 5.05352 12.568 5.10749 12.5518L5.11059 12.5508L9.29528 11.1547C9.3087 11.1513 9.32343 11.1464 9.33876 11.1389C9.3399 11.1384 9.34102 11.1378 9.34213 11.1373C9.3515 11.1334 9.36082 11.1291 9.37004 11.1243C9.38298 11.1184 9.39514 11.1115 9.40642 11.1037M5.8354 7.58446C5.83519 7.58488 5.83527 7.58471 5.8354 7.58446V7.58446ZM15.6239 3.34934C15.9282 3.04415 15.9295 2.5505 15.6268 2.24362C15.6267 2.24348 15.6265 2.24334 15.6264 2.2432L14.7189 1.33562C14.4137 1.03071 13.9191 1.03073 13.614 1.33558C13.614 1.33559 13.6141 1.33558 13.614 1.33558L13.4123 1.53723L15.425 3.55012L15.6239 3.34934ZM15.4258 3.86235L13.1008 1.53718L13.4583 1.1798C13.8494 0.788981 14.4834 0.788981 14.8746 1.1798L15.7831 2.08841C16.1713 2.48132 16.1698 3.11384 15.7799 3.50487L15.4258 3.86235ZM5.89523 7.49644C5.89488 7.49702 5.89495 7.49692 5.89523 7.49644C5.89526 7.4964 5.89517 7.49654 5.89523 7.49644ZM9.13256 10.156L14.9514 4.33667L12.6265 2.01171L6.80771 7.83107L9.13256 10.156ZM9.13256 9.84453L14.6399 4.33667L12.6265 2.3232L7.11918 7.83106L9.13256 9.84453ZM6.48025 8.44906L5.46149 11.4957L8.51128 10.4802L6.48025 8.44906ZM6.57623 8.85655L5.81018 11.1474L8.10346 10.3838L6.57623 8.85655Z" fill="#999999"/>
<path fill-rule="evenodd" clip-rule="evenodd" d="M0 2.14183C0 1.41198 0.591663 0.820312 1.32152 0.820312H6.33578V1.70133H1.32152C1.07823 1.70133 0.881013 1.89855 0.881013 2.14183V16.6785C0.881013 16.9218 1.07824 17.119 1.32152 17.119H15.6848C15.9281 17.119 16.1253 16.9218 16.1253 16.6785V11.4909H17.0063V16.6785C17.0063 17.4084 16.4147 18 15.6848 18H1.32152C0.591663 18 0 17.4084 0 16.6785V2.14183Z" fill="#999999"/>
</svg>
