<svg width="25" height="24" viewBox="0 0 25 24" fill="none" xmlns="http://www.w3.org/2000/svg">
<path d="M19.4879 4.64407C18.6278 3.78531 17.2348 3.78531 16.3746 4.64407L15.5953 5.42775L7.2993 13.7201L7.28167 13.7379C7.2774 13.7421 7.2774 13.7467 7.27285 13.7467C7.26404 13.7599 7.25081 13.773 7.24214 13.7862C7.24214 13.7906 7.23759 13.7906 7.23759 13.795C7.22878 13.8083 7.22451 13.8171 7.21555 13.8303C7.21128 13.8347 7.21128 13.839 7.20687 13.8435C7.20247 13.8567 7.19806 13.8656 7.19351 13.8788C7.19351 13.8831 7.18924 13.8831 7.18924 13.8876L5.34862 19.4231C5.29462 19.5807 5.33567 19.7552 5.45427 19.8722C5.5376 19.9544 5.65 20.0004 5.76694 20C5.81473 19.9992 5.86212 19.9917 5.90785 19.978L11.4385 18.1327C11.4428 18.1327 11.4428 18.1327 11.4474 18.1285C11.4613 18.1243 11.4746 18.1184 11.4869 18.1107C11.4903 18.1103 11.4934 18.1088 11.4958 18.1064C11.5089 18.0976 11.5266 18.0887 11.5398 18.0799C11.5529 18.0712 11.5662 18.0579 11.5794 18.0491C11.5839 18.0446 11.5881 18.0446 11.5881 18.0403C11.5927 18.0359 11.6015 18.0316 11.6059 18.0227L20.6812 8.94652C21.5399 8.08625 21.5399 6.69315 20.6812 5.83302L19.4879 4.64407ZM11.2976 17.0978L8.2329 14.0329L15.9035 6.36158L18.9683 9.42645L11.2976 17.0978ZM7.80122 14.8476L10.4786 17.5251L6.45826 18.8638L7.80122 14.8476ZM20.0604 8.32994L19.5936 8.80119L16.5287 5.73604L17.0001 5.26492C17.5156 4.74972 18.3513 4.74972 18.867 5.26492L20.0647 6.46269C20.5764 6.98064 20.5744 7.81446 20.0604 8.32994Z" fill="#2B2D42"/>
</svg>
