<svg width="24" height="24" viewBox="0 0 24 24" fill="none" xmlns="http://www.w3.org/2000/svg">
<path d="M12.4011 5.64209H4.91648C4.45824 5.64209 4 6.10033 4 6.55857V19.0839C4 19.5421 4.45824 20.0003 4.91648 20.0003H17.5945C18.0527 20.0003 18.511 19.5421 18.511 19.0839V11.4465" stroke="#971C4E" stroke-width="0.5" stroke-miterlimit="10" stroke-linecap="round" stroke-linejoin="round"/>
<path d="M8.12451 15.8761L9.49923 12.5156L11.6377 14.5013L8.12451 15.8761Z" stroke="#971C4E" stroke-width="0.5" stroke-miterlimit="10" stroke-linecap="round" stroke-linejoin="round"/>
<path d="M9.49902 12.5157L17.9001 4.11456C18.0529 3.96181 18.2056 3.96181 18.3584 4.11456L19.8858 5.48928C20.0386 5.64203 20.0386 5.79478 19.8858 5.94753L11.4847 14.3486L9.49902 12.5157Z" stroke="#971C4E" stroke-width="0.5" stroke-miterlimit="10" stroke-linecap="round" stroke-linejoin="round"/>
<path d="M16.9834 5.03125L18.9691 7.01696" stroke="#971C4E" stroke-width="0.5" stroke-miterlimit="10" stroke-linecap="round" stroke-linejoin="round"/>
</svg>
