<svg width="20" height="20" viewBox="0 0 20 20" fill="none" xmlns="http://www.w3.org/2000/svg">
<path d="M16.1627 2.64407C15.3026 1.78531 13.9096 1.78531 13.0494 2.64407L12.2701 3.42775L3.9741 11.7201L3.95647 11.7379C3.9522 11.7421 3.9522 11.7467 3.94766 11.7467C3.93884 11.7599 3.92562 11.773 3.91694 11.7862C3.91694 11.7906 3.9124 11.7906 3.9124 11.795C3.90358 11.8083 3.89931 11.8171 3.89036 11.8303C3.88609 11.8347 3.88609 11.839 3.88168 11.8435C3.87727 11.8567 3.87286 11.8656 3.86832 11.8788C3.86832 11.8831 3.86405 11.8831 3.86405 11.8876L2.02342 17.4231C1.96943 17.5807 2.01048 17.7552 2.12907 17.8722C2.2124 17.9544 2.3248 18.0004 2.44174 18C2.48954 17.9992 2.53692 17.9917 2.58265 17.978L8.11334 16.1327C8.11761 16.1327 8.11761 16.1327 8.12215 16.1285C8.13607 16.1243 8.14943 16.1184 8.16169 16.1107C8.16513 16.1103 8.16816 16.1088 8.17064 16.1064C8.18372 16.0976 8.20136 16.0887 8.21458 16.0799C8.22766 16.0712 8.24102 16.0579 8.25425 16.0491C8.25866 16.0446 8.26293 16.0446 8.26293 16.0403C8.26747 16.0359 8.27629 16.0316 8.28069 16.0227L17.356 6.94652C18.2147 6.08625 18.2147 4.69315 17.356 3.83302L16.1627 2.64407ZM7.97243 15.0978L4.90771 12.0329L12.5783 4.36158L15.6431 7.42645L7.97243 15.0978ZM4.47603 12.8476L7.15343 15.5251L3.13306 16.8638L4.47603 12.8476ZM16.7352 6.32994L16.2684 6.80119L13.2035 3.73604L13.6749 3.26492C14.1904 2.74972 15.0261 2.74972 15.5418 3.26492L16.7395 4.46269C17.2512 4.98064 17.2492 5.81446 16.7352 6.32994Z" fill="#BEC1D1"/>
</svg>
