<svg width="12" height="12" viewBox="0 0 12 12" fill="none" xmlns="http://www.w3.org/2000/svg">
    <path d="M10.33.824a1.55 1.55 0 0 0-2.189 0l-.548.55-5.833 5.83-.013.013c-.003.003-.003.007-.006.007l-.021.027c0 .003-.004.003-.004.007l-.015.024c-.003.003-.003.006-.006.01l-.01.024c0 .003-.003.003-.003.007L.388 11.214a.305.305 0 0 0 .075.316.312.312 0 0 0 .319.075l3.888-1.298c.003 0 .003 0 .006-.003a.113.113 0 0 0 .028-.012.011.011 0 0 0 .007-.003l.03-.019c.01-.006.02-.015.028-.021.003-.004.006-.004.006-.007.004-.003.01-.006.013-.012l6.381-6.381a1.55 1.55 0 0 0 0-2.19L10.33.825zM4.571 9.58 2.416 7.425 7.81 2.03l2.155 2.155L4.57 9.58zM2.113 7.998 3.995 9.88l-2.826.941.944-2.823zm8.62-4.583-.329.332L8.25 1.592l.332-.332a.929.929 0 0 1 1.312 0l.843.843c.36.364.358.95-.003 1.312z" fill="#333"/>
</svg>
