<svg width="28" height="27" viewBox="0 0 28 27" fill="none" xmlns="http://www.w3.org/2000/svg">
    <path d="m22.257 7.37.075-.074H5.38l.075.075 7.893 7.919c.13.13.32.194.508.194a.719.719 0 0 0 .508-.194l-.031-.031.03.03 7.894-7.918zM4.543 18.803v.106l.075-.075 5.293-5.31.031-.031-.03-.031-5.294-5.31-.075-.076v10.727zm.912.81-.075.075h16.952l-.075-.075-5.263-5.28-.031-.031-.031.031-1.759 1.765c-.703.705-1.93.706-2.634 0l-1.76-1.765-.03-.031-.031.031-5.263 5.28zm17.639-.779.075.075V8.075l-.075.075-5.294 5.31-.03.032.03.03 5.294 5.311zM5.202 6.153H22.51c.991 0 1.802.807 1.802 1.802v11.073c0 .995-.81 1.802-1.802 1.802H5.203c-.99 0-1.802-.806-1.802-1.802V7.955c0-.995.81-1.802 1.802-1.802z" fill="#F6821F" stroke="#fff" stroke-width=".088"/>
</svg>
