<svg width="46" height="46" viewBox="0 0 46 46" fill="none" xmlns="http://www.w3.org/2000/svg">
    <path d="M36.944 13.369 26.88 3.306c-.287-.287-.575-.431-1.006-.431H11.5A2.883 2.883 0 0 0 8.625 5.75v34.5a2.883 2.883 0 0 0 2.875 2.875h23a2.884 2.884 0 0 0 2.875-2.875V14.375c0-.431-.144-.719-.431-1.006zM25.875 6.325l8.05 8.05h-8.05v-8.05zM34.5 40.25h-23V5.75H23v8.625a2.883 2.883 0 0 0 2.875 2.875H34.5v23z" fill="#F6821F"/>
    <path d="M14.375 31.625h17.25V34.5h-17.25v-2.875zm0-8.625h17.25v2.875h-17.25V23z" fill="#F6821F"/>
</svg>
