<svg width="26" height="26" viewBox="0 0 26 26" fill="none" xmlns="http://www.w3.org/2000/svg">
<path d="M25.67 13.835C25.67 20.3713 20.3713 25.67 13.835 25.67C7.29871 25.67 2 20.3713 2 13.835C2 7.29871 7.29871 2 13.835 2C20.3713 2 25.67 7.29871 25.67 13.835Z" fill="#043B73"/>
<path d="M9.23964 19.0714L12.2064 13.5L15.5957 16.5132C15.7018 16.6075 15.8282 16.6762 15.965 16.714C16.1018 16.7519 16.2455 16.7578 16.385 16.7314C16.5258 16.7051 16.6585 16.6465 16.7729 16.5603C16.8873 16.4741 16.9801 16.3627 17.0443 16.2346L19.6071 11.1321L18.7621 10.7143L16.2132 15.8214L12.8239 12.8082C12.7205 12.712 12.5965 12.6407 12.4613 12.5997C12.3261 12.5586 12.1834 12.549 12.0439 12.5714C11.9062 12.5943 11.7754 12.6479 11.6613 12.7283C11.5471 12.8087 11.4526 12.9137 11.3846 13.0357L8.92857 17.6786V7H8V19.0714C8 19.3177 8.09783 19.5539 8.27197 19.728C8.44611 19.9022 8.6823 20 8.92857 20H21V19.0714H9.23964Z" fill="white"/>
</svg>
