<svg width="26" height="26" viewBox="0 0 26 26" fill="none" xmlns="http://www.w3.org/2000/svg">
<path d="M26 13C26 20.1797 20.1797 26 13 26C5.8203 26 0 20.1797 0 13C0 5.8203 5.8203 0 13 0C20.1797 0 26 5.8203 26 13Z" fill="#999999" fill-opacity="0.1"/>
<path d="M4 21.0796C4.08245 20.924 4.21295 20.8742 4.38533 20.8801C4.6604 20.8895 4.93624 20.8756 5.21126 20.8858C5.34254 20.8907 5.37756 20.8532 5.37698 20.7208C5.37163 19.5198 5.37382 18.3187 5.37382 17.1176C5.37382 15.8462 5.38958 14.5745 5.36701 13.3035C5.35592 12.6786 5.84174 12.1723 6.477 12.1994C6.84545 12.2151 7.21512 12.2014 7.58421 12.2022C8.2845 12.204 8.69532 12.6157 8.69556 13.3197C8.69634 15.6164 8.6958 17.9131 8.69576 20.2098C8.69576 20.3915 8.70028 20.5732 8.69381 20.7547C8.69021 20.8553 8.72703 20.8909 8.82524 20.8833C8.99315 20.8703 9.20746 20.9521 9.31714 20.8513C9.4209 20.7558 9.34837 20.5406 9.34847 20.3785C9.35042 17.2322 9.34959 14.086 9.35027 10.9397C9.35037 10.4046 9.62976 10.0126 10.1047 9.88582C10.2051 9.85902 10.3128 9.85075 10.4173 9.84963C10.8098 9.84544 11.2025 9.84267 11.5949 9.8487C12.2638 9.85897 12.6733 10.2763 12.6735 10.9462C12.6745 14.1804 12.6738 17.4146 12.6745 20.6487C12.6746 20.9205 12.6456 20.8799 12.9069 20.8819C13.3261 20.8851 13.3262 20.8833 13.3262 20.4655C13.3262 18.0867 13.3261 15.708 13.3262 13.3293C13.3262 12.6162 13.7364 12.2034 14.4465 12.2023C14.8156 12.2017 15.1847 12.2006 15.5538 12.2025C16.2301 12.2061 16.6495 12.6256 16.6498 13.3008C16.6506 15.7616 16.6517 18.2223 16.6466 20.6831C16.6462 20.8416 16.6839 20.8902 16.8468 20.8866C17.3038 20.8767 17.3044 20.8843 17.3045 20.4325C17.3046 17.3741 17.3044 14.3157 17.3044 11.2573C17.3044 11.0992 17.2999 10.94 17.3418 10.7859C17.4612 10.3465 17.8543 10.0439 18.3137 10.0406C18.7472 10.0375 19.1809 10.037 19.6144 10.0409C20.1682 10.046 20.6008 10.4697 20.6249 11.0251C20.6276 11.0894 20.6261 11.154 20.6261 11.2184C20.6262 14.3705 20.6276 17.5227 20.6222 20.6748C20.6219 20.8415 20.6574 20.8981 20.8308 20.8869C21.0817 20.8707 21.3347 20.8906 21.5862 20.8798C21.7663 20.872 21.9042 20.9253 22 21.0794C22 21.1497 22 21.22 22 21.2903C21.8862 21.4349 21.7372 21.4675 21.5566 21.4673C15.8523 21.4634 10.148 21.4634 4.44365 21.4673C4.26305 21.4675 4.11387 21.4353 4.00015 21.2903C4 21.2202 4 21.1499 4 21.0796ZM14.6737 20.8709C15.0659 20.8737 15.4587 20.866 15.8502 20.8839C16.035 20.8924 16.0701 20.831 16.0696 20.6582C16.0639 18.3623 16.0659 16.0663 16.0658 13.7703C16.0658 13.5829 16.0691 13.3953 16.0628 13.208C16.0545 12.962 15.8853 12.7884 15.6381 12.7848C15.2048 12.7784 14.7712 12.7774 14.3379 12.7857C14.14 12.7895 13.9935 12.8869 13.9385 13.0908C13.9032 13.1691 13.917 13.2522 13.917 13.3333C13.9163 15.7279 13.9165 18.1226 13.9165 20.5172C13.9165 20.5933 13.9219 20.67 13.9147 20.7454C13.9054 20.8443 13.9401 20.879 14.0415 20.8754C14.252 20.8678 14.4629 20.8717 14.6737 20.8709ZM12.0881 15.8072C12.0881 14.1792 12.0886 12.5513 12.0877 10.9233C12.0875 10.5768 11.9424 10.4305 11.5989 10.4282C11.2125 10.4255 10.826 10.4249 10.4395 10.4266C10.0765 10.4281 9.93391 10.5722 9.93386 10.9395C9.93333 14.1896 9.93493 17.4396 9.93017 20.6896C9.92992 20.8508 9.98226 20.8843 10.131 20.8821C10.7164 20.8734 11.3022 20.8709 11.8876 20.8795C12.0502 20.8819 12.0922 20.8338 12.0916 20.6735C12.0858 19.0513 12.0881 17.4293 12.0881 15.8072ZM20.0368 15.8892C20.0368 14.2962 20.0373 12.7033 20.0365 11.1104C20.0364 10.7844 19.9175 10.6543 19.5915 10.626C19.1766 10.5899 18.7605 10.6047 18.3453 10.612C18.04 10.6173 17.8838 10.7982 17.8837 11.1159C17.8825 14.3135 17.8839 17.5111 17.88 20.7087C17.8798 20.8566 17.9363 20.8817 18.0655 20.8802C18.6394 20.8741 19.2134 20.8762 19.7873 20.8754C20.0367 20.8751 20.0368 20.8753 20.0368 20.633C20.0368 19.0516 20.0368 17.4704 20.0368 15.8892ZM8.11445 16.9805C8.11425 16.9805 8.11401 16.9805 8.11381 16.9805C8.11381 15.7446 8.1144 14.5087 8.11343 13.2728C8.11318 12.9808 7.94634 12.7886 7.67682 12.7844C7.24937 12.7778 6.82162 12.7778 6.39416 12.7839C6.13807 12.7876 5.96422 12.9646 5.96398 13.2193C5.96184 15.7204 5.96296 18.2215 5.95936 20.7226C5.95916 20.8498 6.00484 20.8797 6.12308 20.8786C6.72049 20.8734 7.31805 20.8691 7.91531 20.8793C8.08312 20.8821 8.11834 20.8268 8.11761 20.6706C8.11192 19.4406 8.11445 18.2106 8.11445 16.9805Z" fill="#999999"/>
<path d="M20.5002 5.82049C20.4178 5.90639 20.3352 5.99433 20.2506 6.08028C18.5535 7.80514 16.8562 9.52976 15.159 11.2545C14.946 11.471 14.8442 11.4762 14.6039 11.2804C13.4594 10.3485 12.314 9.41788 11.1729 8.48189C11.0708 8.39817 11.0125 8.40547 10.9147 8.4867C9.69335 9.50038 8.46794 10.5091 7.24355 11.5192C7.16198 11.5864 7.08148 11.6596 6.966 11.6518C6.84528 11.6436 6.75218 11.5849 6.71 11.4694C6.66039 11.3335 6.69838 11.2181 6.81113 11.1254C7.22283 10.7869 7.6335 10.4472 8.04471 10.1081C8.95289 9.35908 9.86136 8.61039 10.7692 7.86093C11.0005 7.67002 11.0829 7.66807 11.319 7.86016C12.4639 8.79148 13.6093 9.72213 14.7511 10.6572C14.8327 10.724 14.8713 10.7244 14.9454 10.649C16.6529 8.90973 18.3633 7.17334 20.073 5.43623C20.0879 5.421 20.1012 5.40417 20.139 5.36088C19.7632 5.39153 19.4218 5.41862 19.0806 5.44746C18.6721 5.482 18.264 5.51999 17.8554 5.55258C17.6581 5.56829 17.5411 5.47402 17.5249 5.29765C17.5079 5.11447 17.6144 4.9953 17.8153 4.97803C18.8129 4.89232 19.8106 4.8073 20.8083 4.72286C21.0823 4.69966 21.21 4.81586 21.1881 5.08713C21.1289 5.81665 21.0617 6.54549 20.9983 7.27466C20.978 7.50799 20.9589 7.74142 20.941 7.9749C20.9177 8.27842 20.8099 8.41136 20.6041 8.38708C20.4031 8.3634 20.3309 8.21791 20.3577 7.92606C20.4187 7.26134 20.4742 6.59612 20.5306 5.931C20.5332 5.89987 20.5522 5.8633 20.5002 5.82049Z" fill="#999999"/>
</svg>
