<svg width="26" height="26" viewBox="0 0 72 72" fill="none" xmlns="http://www.w3.org/2000/svg">
<path d="M72 36C72 55.8823 55.8823 72 36 72C16.1177 72 0 55.8823 0 36C0 16.1177 16.1177 0 36 0C55.8823 0 72 16.1177 72 36Z" fill="#043B73"/>
<path d="M50.4219 46.4844H22.2031V20.8906C22.2031 20.7102 22.0555 20.5625 21.875 20.5625H19.5781C19.3977 20.5625 19.25 20.7102 19.25 20.8906V49.1094C19.25 49.2898 19.3977 49.4375 19.5781 49.4375H50.4219C50.6023 49.4375 50.75 49.2898 50.75 49.1094V46.8125C50.75 46.632 50.6023 46.4844 50.4219 46.4844ZM26.5426 40.1557C26.6697 40.2828 26.8748 40.2828 27.0061 40.1557L32.6785 34.5119L37.9121 39.7783C38.0393 39.9055 38.2484 39.9055 38.3756 39.7783L49.6713 28.4867C49.7984 28.3596 49.7984 28.1504 49.6713 28.0232L48.0471 26.399C47.9854 26.338 47.9021 26.3037 47.8153 26.3037C47.7285 26.3037 47.6453 26.338 47.5836 26.399L38.15 35.8285L32.9246 30.5703C32.8629 30.5092 32.7797 30.475 32.6929 30.475C32.6061 30.475 32.5228 30.5092 32.4611 30.5703L24.9225 38.0639C24.8614 38.1255 24.8271 38.2088 24.8271 38.2956C24.8271 38.3824 24.8614 38.4657 24.9225 38.5273L26.5426 40.1557Z" fill="white"/>
</svg>
