<svg width="16" height="16" viewBox="0 0 16 16" fill="none" xmlns="http://www.w3.org/2000/svg">
<path d="M16 8C16 12.4183 12.4183 16 8 16C3.58172 16 0 12.4183 0 8C0 3.58172 3.58172 0 8 0C12.4183 0 16 3.58172 16 8Z" fill="#FEF3E9"/>
<path d="M4.08497 3.2002V12.4802M3.52002 11.8319H12.7074" stroke="#F58220" stroke-width="0.6" stroke-linecap="round"/>
<path d="M5.12207 5.94971L6.82618 4.81055L9.53053 8.2836L12.3738 5.44959M12.3738 5.44959L11.1698 5.64408M12.3738 5.44959L12.2071 6.51466" stroke="#F58220" stroke-width="0.6" stroke-linecap="round"/>
<line x1="4.97051" y1="10.827" x2="4.97051" y2="7.20372" stroke="#F58220" stroke-width="0.6" stroke-linecap="round"/>
<line x1="6.45244" y1="10.827" x2="6.45244" y2="6.68508" stroke="#F58220" stroke-width="0.6" stroke-linecap="round"/>
<line x1="7.93389" y1="10.827" x2="7.93389" y2="8.59294" stroke="#F58220" stroke-width="0.6" stroke-linecap="round"/>
<line x1="9.41582" y1="10.827" x2="9.41582" y2="9.63023" stroke="#F58220" stroke-width="0.6" stroke-linecap="round"/>
<line x1="10.8978" y1="10.827" x2="10.8978" y2="8.3151" stroke="#F58220" stroke-width="0.6" stroke-linecap="round"/>
</svg>
