<svg width="16" height="16" viewBox="0 0 16 16" fill="none" xmlns="http://www.w3.org/2000/svg">
<path d="M15.5 2.50019H9V1.00019C9 0.851186 8.934 0.710185 8.819 0.615185C8.705 0.520185 8.552 0.479185 8.408 0.509185L0.408 2.00919C0.171 2.05319 0 2.25919 0 2.50019V13.5002C0 13.7402 0.171 13.9472 0.408 13.9912L8.408 15.4912C8.438 15.4972 8.469 15.5002 8.5 15.5002C8.616 15.5002 8.729 15.4602 8.819 15.3852C8.934 15.2902 9 15.1482 9 15.0002V13.5002H15.5C15.776 13.5002 16 13.2762 16 13.0002V3.00019C16 2.72419 15.776 2.50019 15.5 2.50019ZM6.876 9.67119C7.058 9.87819 7.037 10.1942 6.829 10.3762C6.734 10.4592 6.617 10.5002 6.5 10.5002C6.361 10.5002 6.223 10.4422 6.124 10.3292L4.67 8.66819L3.395 10.3082C3.296 10.4342 3.148 10.5002 3 10.5002C2.893 10.5002 2.785 10.4662 2.693 10.3952C2.475 10.2252 2.436 9.91119 2.605 9.69319L3.999 7.90119L2.624 6.32919C2.442 6.12219 2.463 5.80619 2.671 5.62419C2.878 5.44219 3.193 5.46219 3.377 5.67119L4.625 7.09719L6.106 5.19319C6.276 4.97619 6.59 4.93619 6.808 5.10619C7.026 5.27519 7.065 5.58919 6.895 5.80819L5.295 7.86419L6.876 9.67119ZM15 12.5002H9V11.5002H10.5C10.776 11.5002 11 11.2762 11 11.0002C11 10.7242 10.776 10.5002 10.5 10.5002H9V9.50019H10.5C10.776 9.50019 11 9.27619 11 9.00019C11 8.72418 10.776 8.50019 10.5 8.50019H9V7.50019H10.5C10.776 7.50019 11 7.27619 11 7.00019C11 6.72419 10.776 6.50019 10.5 6.50019H9V5.50019H10.5C10.776 5.50019 11 5.27619 11 5.00019C11 4.72419 10.776 4.50019 10.5 4.50019H9V3.50019H15V12.5002Z" fill="#20BF55"/>
<path d="M13.5 4.5H12.5C12.224 4.5 12 4.724 12 5C12 5.276 12.224 5.5 12.5 5.5H13.5C13.776 5.5 14 5.276 14 5C14 4.724 13.776 4.5 13.5 4.5Z" fill="#20BF55"/>
<path d="M13.5 6.5H12.5C12.224 6.5 12 6.724 12 7C12 7.276 12.224 7.5 12.5 7.5H13.5C13.776 7.5 14 7.276 14 7C14 6.724 13.776 6.5 13.5 6.5Z" fill="#20BF55"/>
<path d="M13.5 8.5H12.5C12.224 8.5 12 8.724 12 9C12 9.276 12.224 9.5 12.5 9.5H13.5C13.776 9.5 14 9.276 14 9C14 8.724 13.776 8.5 13.5 8.5Z" fill="#20BF55"/>
<path d="M13.5 10.5H12.5C12.224 10.5 12 10.724 12 11C12 11.276 12.224 11.5 12.5 11.5H13.5C13.776 11.5 14 11.276 14 11C14 10.724 13.776 10.5 13.5 10.5Z" fill="#20BF55"/>
</svg>
