<svg width="32" height="32" viewBox="0 0 32 32" fill="none" xmlns="http://www.w3.org/2000/svg">
    <circle opacity=".05" cx="16" cy="16" r="16" fill="#F58220"/>
    <path d="m9.92 16.532-.402-.294v-.002.002l-.183.463m.585-.169-.402-.294-.183.463m.585-.169a.498.498 0 0 1-.585.17m.585-.17a7.066 7.066 0 0 1 5.68-2.886c.415 0 .831.038 1.243.111v.855c0 .272.054.5.161.677.148.245.39.385.665.385.27 0 .537-.131.796-.39l2.823-2.823c.62-.62.62-1.628 0-2.248L18.465 7.39C18.206 7.13 17.94 7 17.67 7c-.411 0-.826.328-.826 1.062v.776c-4.008.237-7.326 3.313-7.82 7.34-.027.225.101.44.312.523m8.008-2.944v-.418l-.412-.074c-.44-.079-.886-.119-1.33-.119a7.566 7.566 0 0 0-6.08 3.085 7.886 7.886 0 0 1 7.351-6.894l.47-.028V8.062c0-.273.077-.41.133-.473a.254.254 0 0 1 .194-.089c.095 0 .243.044.442.243l2.824 2.823a1.092 1.092 0 0 1 0 1.542l-2.823 2.823c-.2.199-.348.243-.443.243-.091 0-.175-.041-.237-.143-.047-.08-.09-.21-.09-.419v-.854z" stroke="#F58220"/>
    <path d="M15.564 17.242v.419l.412.074c.44.079.886.119 1.33.119a7.566 7.566 0 0 0 6.08-3.085 7.885 7.885 0 0 1-7.351 6.894l-.471.028V22.938c0 .273-.076.41-.132.473a.254.254 0 0 1-.194.09c-.095 0-.243-.045-.443-.244l-.353.353.353-.353-2.823-2.823a1.092 1.092 0 0 1 0-1.542l2.823-2.822c.2-.2.348-.244.443-.244.07 0 .138.026.194.089.056.063.132.2.132.473v.854zm7.826-2.479z" stroke="#F58220"/>
</svg>
