<svg width="20" height="14" viewBox="0 0 20 14" fill="none" xmlns="http://www.w3.org/2000/svg">
    <path d="M19.873 6.574C19.694 6.305 15.437 0 10 0 4.563.001.305 6.305.127 6.573c-.17.255-.17.6 0 .855.178.269 4.436 6.573 9.873 6.573 5.437 0 9.694-6.304 9.873-6.573.17-.254.17-.6 0-.854zM10 12.553c-4.005 0-7.474-4.185-8.5-5.553C2.524 5.631 5.985 1.45 10 1.45c4.005 0 7.473 4.183 8.5 5.551-1.025 1.37-4.486 5.552-8.5 5.552z" fill="#999"/>
    <path d="M10 3.4c-1.94 0-3.517 1.617-3.517 3.604 0 1.986 1.578 3.603 3.517 3.603 1.94 0 3.518-1.617 3.518-3.603C13.518 5.017 11.94 3.4 10 3.4zm0 6.006c-1.293 0-2.345-1.078-2.345-2.402C7.655 5.679 8.707 4.6 10 4.6c1.293 0 2.345 1.078 2.345 2.403 0 1.324-1.052 2.402-2.345 2.402z" fill="#999"/>
</svg>
