<svg width="23" height="18" viewBox="0 0 23 18" fill="none" xmlns="http://www.w3.org/2000/svg">
<path d="M20.8729 8.57276C20.6942 8.30433 16.4371 2 10.9999 2C5.56275 2 1.30539 8.30433 1.12691 8.57251C0.957695 8.82717 0.957695 9.17257 1.12691 9.42723C1.30539 9.69567 5.56275 16 10.9999 16C16.4371 16 20.6942 9.69563 20.8729 9.42745C21.0424 9.17283 21.0424 8.82717 20.8729 8.57276ZM10.9999 14.5517C6.99486 14.5517 3.52606 10.3674 2.49922 8.99951C3.52473 7.63039 6.98627 3.44827 10.9999 3.44827C15.0048 3.44827 18.4733 7.63185 19.5006 9.00049C18.4751 10.3696 15.0136 14.5517 10.9999 14.5517Z" fill="#999999"/>
<path d="M11.0002 5.39941C9.06082 5.39941 7.48291 7.01585 7.48291 9.00263C7.48291 10.9894 9.06082 12.6058 11.0002 12.6058C12.9397 12.6058 14.5176 10.9894 14.5176 9.00263C14.5176 7.01585 12.9397 5.39941 11.0002 5.39941ZM11.0002 11.4047C9.70722 11.4047 8.65538 10.3272 8.65538 9.00263C8.65538 7.67807 9.70726 6.60051 11.0002 6.60051C12.2932 6.60051 13.3451 7.67807 13.3451 9.00263C13.3451 10.3272 12.2933 11.4047 11.0002 11.4047Z" fill="#999999"/>
<path d="M1.59683 2.91098L1.30023 3.31351L1.70276 3.61011L19.4415 16.6807L19.844 16.9773L20.1406 16.5748L21.0304 15.3672L21.327 14.9647L20.9245 14.6681L3.18576 1.59747L2.78323 1.30087L2.48663 1.7034L1.59683 2.91098Z" fill="#999999" stroke="white"/>
</svg>
