<svg width="16" height="16" viewBox="0 0 16 16" fill="none" xmlns="http://www.w3.org/2000/svg">
<path d="M8 16C12.4183 16 16 12.4183 16 8C16 3.58172 12.4183 0 8 0C3.58172 0 0 3.58172 0 8C0 12.4183 3.58172 16 8 16Z" fill="#BEC1D1"/>
<path d="M5.144 3.70996H4.13547C3.89929 3.70996 3.70445 3.89544 3.71748 4.13126C3.78138 5.28745 4.27168 7.47526 5.91627 9.53667C7.33219 11.3115 9.47895 12.0087 11.0236 12.2165C11.7281 12.3112 12.2897 11.7251 12.2897 11.0142C12.2897 10.2243 11.3317 9.59713 10.5677 9.39663C10.0087 9.24995 9.62419 9.43614 9.21779 9.84696L8.63434 10.4367C7.24719 9.90617 5.99438 8.19448 5.54136 7.40495L6.13322 6.78452C6.53318 6.36524 6.63707 5.74025 6.57954 5.16366C6.50318 4.39833 5.91313 3.70996 5.144 3.70996Z" fill="white"/>
</svg>
