<svg width="28" height="28" viewBox="0 0 28 28" fill="none" xmlns="http://www.w3.org/2000/svg">
<path d="M11.4353 13.0702L11.4349 13.0698L2.69915 3.59333C2.69912 3.59331 2.69909 3.59328 2.69906 3.59325C2.27857 3.13626 2.60235 2.4 3.22213 2.4H24.778C25.3964 2.4 25.7201 3.13784 25.3009 3.59338L16.5653 13.0723L16.5652 13.0723L16.5635 13.0742C16.2483 13.4207 16.0693 13.8743 16.0693 14.3458V21.0817C16.0693 21.3932 15.9619 21.5221 15.5359 22.0333L15.5328 22.037L12.5031 25.509C12.2863 25.7085 11.9309 25.5556 11.9309 25.2571V14.3434C11.9309 13.8734 11.7554 13.4186 11.4353 13.0702Z" stroke="#999999" stroke-width="0.8"/>
</svg>
