<svg width="26" height="26" viewBox="0 0 26 26" fill="none" xmlns="http://www.w3.org/2000/svg">
<rect opacity="0.1" width="26" height="26" rx="4" fill="#F58220"/>
<path d="M13.3226 10.5518C14.1416 10.5518 14.7902 10.7772 15.2683 11.2279C15.7464 11.6787 15.9854 12.2931 15.9854 13.0713C15.9854 13.9728 15.713 14.6778 15.1682 15.1863C14.6271 15.6909 13.8563 15.9433 12.8556 15.9433C11.9476 15.9433 11.2342 15.7911 10.7153 15.4868V14.2559C11.0155 14.4331 11.3602 14.5699 11.7493 14.6662C12.1385 14.7625 12.4998 14.8107 12.8334 14.8107C13.4226 14.8107 13.8711 14.6739 14.1787 14.4004C14.4863 14.1269 14.6401 13.7262 14.6401 13.1984C14.6401 12.1891 14.0212 11.6844 12.7833 11.6844C12.6092 11.6844 12.3942 11.7037 12.1385 11.7422C11.8828 11.7769 11.6585 11.8174 11.4658 11.8636L10.8821 11.5053L11.1934 7.37939H15.4184V8.58712H12.3442L12.1607 10.679C12.2904 10.6559 12.4479 10.6289 12.6332 10.5981C12.8223 10.5673 13.052 10.5518 13.3226 10.5518Z" fill="#F58220"/>
<path fill-rule="evenodd" clip-rule="evenodd" d="M6.57703 5.57133C6.57703 4.64823 7.32535 3.8999 8.24845 3.8999H18.1229C19.046 3.8999 19.7943 4.64823 19.7943 5.57133V16.0611C19.7943 16.5951 19.5391 17.097 19.1076 17.4116L13.6781 21.3707C13.3497 21.6102 12.9037 21.6083 12.5774 21.3659L7.25195 17.4111C6.82734 17.0958 6.57703 16.5981 6.57703 16.0693V5.57133ZM8.24845 4.27133C7.53048 4.27133 6.94845 4.85336 6.94845 5.57133V16.0693C6.94845 16.4806 7.14314 16.8677 7.47339 17.1129L12.7989 21.0677C12.9947 21.2131 13.2623 21.2143 13.4593 21.0706L18.8888 17.1115C19.2244 16.8668 19.4228 16.4765 19.4228 16.0611V5.57133C19.4228 4.85336 18.8408 4.27133 18.1229 4.27133H8.24845Z" fill="#F58220"/>
</svg>
