<svg width="24" height="24" viewBox="0 0 24 24" fill="none" xmlns="http://www.w3.org/2000/svg">
<path d="M12 21C7.02944 21 3 16.9706 3 12C3 7.02944 7.02944 3 12 3C16.9706 3 21 7.02944 21 12C21 16.9706 16.9706 21 12 21Z" fill="#E6E6E6"/>
<path fill-rule="evenodd" clip-rule="evenodd" d="M11.1324 16.6176L7.75739 16.6176C7.55028 16.6176 7.38239 16.4497 7.38239 16.2426L7.38239 12.8676C7.38239 12.6604 7.55028 12.4926 7.75739 12.4926C7.9645 12.4926 8.13239 12.6605 8.13239 12.8676L8.13239 15.3372L11.2045 12.2651L11.7349 12.7954L8.66272 15.8676L11.1324 15.8676C11.3395 15.8676 11.5074 16.0354 11.5074 16.2426C11.5074 16.4497 11.3395 16.6176 11.1324 16.6176Z" fill="#97144D"/>
<path fill-rule="evenodd" clip-rule="evenodd" d="M13.3979 6.85217L16.7729 6.85217C16.98 6.85217 17.1479 7.02006 17.1479 7.22717L17.1479 10.6022C17.1479 10.8093 16.98 10.9772 16.7729 10.9772C16.5658 10.9772 16.3979 10.8093 16.3979 10.6022L16.3979 8.1325L13.3257 11.2046L12.7954 10.6743L15.8676 7.60217L13.3979 7.60217C13.1908 7.60217 13.0229 7.43428 13.0229 7.22717C13.0229 7.02006 13.1908 6.85217 13.3979 6.85217Z" fill="#97144D"/>
</svg>
