<svg width="172" height="269" viewBox="0 0 172 269" fill="none" xmlns="http://www.w3.org/2000/svg">
<path d="M143.127 100.982L57.1543 120.272L69.3001 182.075L123.361 206.128H161.941C166.133 204.223 172.658 198.507 171.944 193.744L157.893 108.724C155.416 99.7696 146.541 99.5529 143.127 100.982Z" fill="#FDC697"/>
<path d="M138.843 102.031L50.9648 116.796L63.5869 182.288L120.982 211.343L161.468 206.342C165.659 204.437 166.945 198.721 166.231 193.958L152.18 108.937C149.714 100.023 143.424 101.185 138.903 102.02L138.843 102.031Z" fill="#FFB06D"/>
<path d="M166.23 193.957C166.944 198.72 165.658 204.436 161.467 206.341L120.981 211.342L111.102 206.341L155.275 200.767C161.943 200.053 164.797 192.908 164.797 185.288L166.23 193.957Z" fill="#F58220"/>
<path d="M140.272 124.797L80.0195 133.132L82.1629 139.086L140.748 130.274L140.272 124.797Z" fill="#F58220"/>
<path d="M142.415 137.181L80.0195 145.993L82.1629 151.947L142.415 142.897V137.181Z" fill="#F58220"/>
<path d="M143.129 150.517L82.877 158.852L85.0203 164.806L143.606 155.995L143.129 150.517Z" fill="#F58220"/>
<path d="M89.3087 109.556C66.4461 113.366 19.2442 120.606 18.1011 122.892C16.6722 125.75 -7.8575 134.324 3.09751 147.66C11.8615 158.329 90.2613 232.601 128.366 268.403C132.414 269.276 140.511 269.022 140.511 261.021C140.511 251.018 130.747 148.851 128.842 143.373C128.366 140.277 125.984 134.228 120.269 134.8C101.296 133.847 63.8903 131.096 63.112 130.989C52.6333 129.56 51.6807 122.892 65.2553 118.367L89.3087 109.556Z" fill="#FDC697"/>
<path d="M76.2869 112.122C54.0786 114.763 12.1465 121.102 12.1465 131.704C12.1462 133.371 16.4332 133.748 21.6726 134.085C52.553 136.07 114.695 140.134 116.219 140.515C118.362 141.051 121.316 136.705 115.028 136.705C96.4524 135.514 58.7767 133.037 56.681 132.656C38.1573 127.331 57.6794 114.576 76.2869 112.122Z" fill="#F58220"/>
<path d="M34.6016 119.1C32.5121 119.277 30.0744 119.609 27.478 120.123C16.5311 123.209 3.1652 132.225 8.16695 134.341L113.43 142.2C121.432 142.581 122.718 148.392 123.433 154.346L134.864 261.515C135.245 268.373 130.339 268.421 127.481 268.421L25.5521 260.086C21.0272 258.657 18.8838 254.37 17.9312 251.274C14.8844 241.372 3.72128 175.542 0.0695373 143.153C-1.19243 129.271 14.9817 122.595 27.478 120.123C30.0828 119.388 32.5508 118.99 34.6016 119.1Z" fill="#FFB06D"/>
<g opacity="0.8">
<path fill-rule="evenodd" clip-rule="evenodd" d="M34.6016 119.1C32.5121 119.277 30.0744 119.609 27.478 120.123C30.0829 119.388 32.5508 118.99 34.6016 119.1Z" fill="#F58220"/>
<path d="M0.0695373 143.153C3.72128 175.542 14.8844 241.372 17.9312 251.274C18.8838 254.37 21.0272 258.657 25.5521 260.086L40.0096 261.268L127.481 268.421C130.339 268.421 135.245 268.373 134.864 261.515L35.0084 256.257C28.3401 255.781 26.6731 253.161 25.5521 248.875C24.7321 245.739 12.8739 171.719 8.16695 134.341C3.1652 132.225 16.5311 123.209 27.478 120.123C14.9817 122.595 -1.19243 129.271 0.0695373 143.153Z" fill="#F58220"/>
</g>
<path d="M1.18945 144.563L106.453 152.661C109.708 153.296 116.217 156.852 116.217 165.997L125.743 250.065C125.743 254.828 124.028 257.4 116.217 257.21L17.3838 249.827" stroke="#F58220" stroke-width="2" stroke-dasharray="16 16"/>
<path d="M6.13059 20.1982C6.13059 21.5004 6.91193 24.4521 10.0373 25.8412M4.39427 22.3686C4.10489 23.8155 4.82835 27.1434 10.0373 28.8797M33.4773 13.687C33.9114 14.2658 34.5191 15.7706 33.4773 17.1596M35.2137 12.3848C35.503 12.9635 35.9082 14.7288 35.2137 17.1596" stroke="#F58220"/>
<path d="M11.3401 16.7253C13.771 17.4198 16.6938 17.5934 17.8513 17.5934C19.2407 16.8989 21.0344 19.6191 21.7575 21.066C24.362 21.9341 26.0983 25.4068 23.4939 28.0112C20.8894 30.6157 17.4168 25.4068 16.1145 25.4068C14.8123 25.4068 11.3401 24.9727 8.30158 21.9342C5.26303 18.8957 8.30158 15.8571 11.3401 16.7253Z" fill="#FDC697"/>
<path d="M18.0507 7.82617C19.3672 9.98443 20.3126 12.7556 20.6207 13.8713C20.3211 15.3955 23.4206 16.4004 25.0078 16.7123C26.5379 18.9917 30.3474 19.741 32.1646 16.5372C33.9819 13.3335 28.0365 11.3727 27.6898 10.1174C27.3432 8.86216 26.0006 5.63079 22.2629 3.51069C18.5251 1.39059 16.405 5.12834 18.0507 7.82617Z" fill="#FDC697"/>
<path d="M15.681 14.555C15.3338 12.4714 18.7196 13.1081 20.4559 13.6868C21.3234 16.2912 22.1929 15.4233 24.3632 16.7255C26.5336 18.0277 23.4951 21.0663 22.1929 21.0663C20.8906 21.0663 20.4559 18.4618 19.5884 18.0277C18.7209 17.5936 16.1151 17.1594 15.681 14.555Z" fill="#F58220"/>
<path fill-rule="evenodd" clip-rule="evenodd" d="M30.0034 124.377C34.7353 116.096 41.9291 99.4067 42.1743 84.6812C46.5557 79.5496 51.0815 71.5536 50.8394 61.8698C50.4054 44.5067 34.778 27.1435 30.0034 24.105C39.1191 33.2206 54.7461 56.1399 44.3283 74.8921C43.5174 76.3516 42.6978 77.6751 41.8735 78.8729C41.4952 75.9171 40.7511 73.1108 39.5531 70.5514C31.9134 54.23 20.7431 56.5162 16.1129 59.6994C12.0615 62.8827 5.78185 72.2008 13.0744 84.0078C20.3669 95.8147 32.0293 92.6893 36.9489 89.6508C37.6977 89.1062 38.5617 88.3909 39.4851 87.5182C38.9526 98.6713 35.3956 111.877 30.0034 124.377ZM34.1785 88.2601C39.9118 84.5949 40.8471 75.8163 36.2675 68.6525C31.6879 61.4888 23.3276 58.6526 17.5943 62.3178C11.8609 65.983 10.9256 74.7616 15.5052 81.9253C20.0848 89.0891 28.4451 91.9252 34.1785 88.2601Z" fill="#FDC697"/>
</svg>
