<svg width="26" height="26" viewBox="0 0 26 26" fill="none" xmlns="http://www.w3.org/2000/svg">
<path d="M26 13C26 20.1797 20.1797 26 13 26C5.8203 26 0 20.1797 0 13C0 5.8203 5.8203 0 13 0C20.1797 0 26 5.8203 26 13Z" fill="#F58220" fill-opacity="0.1"/>
<g clip-path="url(#clip0_1603_420)">
<path d="M7.80166 19.4809C7.74392 19.6412 7.714 19.7884 7.64168 19.9106C7.51695 20.1215 7.31549 20.2269 7.0677 20.2275C6.36717 20.229 5.66657 20.2284 4.96604 20.2278C4.80831 20.2276 4.72366 20.1578 4.72233 20.0318C4.72099 19.9016 4.80964 19.8251 4.97382 19.8248C5.63771 19.8234 6.30165 19.8242 6.96561 19.8241C7.26027 19.824 7.35823 19.7252 7.3583 19.4265C7.35851 18.1262 7.35851 16.8258 7.3583 15.5254C7.35823 15.2234 7.25459 15.1182 6.95671 15.118C6.29276 15.1177 5.62888 15.1168 4.96492 15.1189C4.85274 15.1193 4.76395 15.0903 4.72948 14.9748C4.68834 14.8368 4.78483 14.7193 4.94726 14.7154C5.14859 14.7105 5.35019 14.714 5.55165 14.714C6.01407 14.7139 6.47656 14.7139 6.93905 14.714C7.4419 14.7141 7.67602 14.9106 7.76375 15.4053C7.76606 15.4182 7.77223 15.4305 7.77286 15.4323C8.06493 15.4655 8.35658 15.4718 8.63435 15.5369C8.96622 15.6147 9.30146 15.7105 9.60894 15.8547C11.3405 16.6667 13.064 17.4955 14.7904 18.3182C14.8647 18.3536 14.9406 18.3857 15.0158 18.4191C15.4541 18.6131 15.6714 19.0973 15.5229 19.5492C15.3736 20.0039 14.9155 20.2678 14.4482 20.1649C14.3866 20.1513 14.3275 20.1228 14.2699 20.0955C13.0662 19.5265 11.8628 18.9568 10.6598 18.3864C10.6108 18.3632 10.5425 18.3406 10.5252 18.2999C10.4961 18.2316 10.4701 18.1323 10.4999 18.077C10.5298 18.0218 10.6275 17.9857 10.6999 17.9766C10.7554 17.9695 10.8193 18.0139 10.8769 18.0412C12.0598 18.6006 13.2423 19.161 14.425 19.7208C14.6996 19.8508 14.9924 19.748 15.1156 19.4795C15.2377 19.2136 15.1217 18.9182 14.8512 18.79C13.6275 18.2099 12.4053 17.6267 11.1813 17.0472C10.4992 16.7241 9.82021 16.3934 9.12914 16.0905C8.70645 15.9052 8.24999 15.8508 7.773 15.8614C7.76901 15.9131 7.7627 15.9566 7.7627 16.0001C7.76214 16.9754 7.76403 17.9507 7.76004 18.9259C7.75955 19.038 7.7894 19.0746 7.90446 19.0755C8.4284 19.0795 8.92768 19.2006 9.40972 19.4045C11.0741 20.1085 12.7408 20.8072 14.4041 21.5137C14.6866 21.6337 14.9376 21.6165 15.1961 21.4496C16.9727 20.3029 18.7526 19.1614 20.531 18.0176C20.7701 17.8638 20.8644 17.6014 20.775 17.3512C20.6843 17.0973 20.4379 16.9428 20.1697 16.9841C20.0913 16.9962 20.0115 17.0311 19.9434 17.0733C18.8346 17.7602 17.7276 18.45 16.6202 19.1392C16.6046 19.1489 16.5892 19.1588 16.5735 19.1682C16.4447 19.2448 16.3218 19.2302 16.2582 19.1306C16.19 19.024 16.2282 18.9057 16.3631 18.8216C17.3574 18.2021 18.3523 17.5832 19.347 16.9642C19.4752 16.8844 19.6035 16.8046 19.7318 16.725C20.1882 16.4412 20.78 16.5694 21.0602 17.0126C21.3479 17.468 21.2189 18.0557 20.7623 18.3518C20.2784 18.6655 19.792 18.9753 19.3068 19.2871C18.0094 20.1212 16.7108 20.9534 15.4157 21.791C15.0423 22.0325 14.6638 22.0632 14.255 21.8898C12.5787 21.1788 10.9001 20.4732 9.22241 19.7653C8.79594 19.5853 8.35265 19.484 7.88897 19.4769C7.85323 19.4764 7.81729 19.4801 7.80166 19.4809Z" fill="#F58220" stroke="#F58220" stroke-width="0.2"/>
<path d="M17.653 9.97037C17.6529 12.0653 15.9329 13.7662 13.8132 13.7675C11.6849 13.7689 9.96665 12.0688 9.96848 9.96378C9.9703 7.85848 11.6889 6.16416 13.8197 6.16675C15.9374 6.16934 17.6531 7.87179 17.653 9.97037ZM10.3724 9.96967C10.3747 11.8451 11.9134 13.3629 13.8122 13.3628C15.7068 13.3627 17.2507 11.8362 17.2491 9.96448C17.2476 8.09231 15.7042 6.57094 13.8071 6.5715C11.9107 6.57199 10.3701 8.09624 10.3724 9.96967Z" fill="#F58220"/>
<path d="M13.5101 5.15091C13.4377 5.15652 13.3652 5.16528 13.2927 5.1671C13.1642 5.17039 13.0727 5.0959 13.06 4.9828C13.0474 4.86942 13.1217 4.77545 13.2489 4.75597C13.3507 4.74042 13.4541 4.73502 13.5868 4.7222C13.473 4.59585 13.377 4.48871 13.2804 4.38213C13.1736 4.26447 13.1666 4.14388 13.2621 4.05678C13.3554 3.97171 13.468 3.98173 13.5768 4.09027C13.8034 4.3164 14.0287 4.54372 14.2532 4.77195C14.3683 4.88897 14.3645 5.00137 14.2414 5.11475C14.0093 5.32855 13.7762 5.54115 13.5422 5.75292C13.4323 5.85235 13.3106 5.85733 13.2261 5.77023C13.1358 5.67703 13.1471 5.55769 13.2632 5.44725C13.3546 5.36022 13.4517 5.27908 13.5462 5.19534C13.5342 5.18041 13.5221 5.16563 13.5101 5.15091Z" fill="#F58220"/>
<path d="M9.44037 7.19153C9.62333 7.18663 9.73762 7.32817 9.6796 7.46075C9.57722 7.69452 9.46265 7.92345 9.34276 8.14888C9.28866 8.2507 9.18621 8.27558 9.08152 8.22715C8.97655 8.17859 8.9275 8.0828 8.97396 7.97755C9.07697 7.74406 9.1907 7.51492 9.31157 7.29019C9.33953 7.2382 9.41367 7.21101 9.44037 7.19153Z" fill="#F58220"/>
<path d="M8.68094 10.9278C8.68472 10.757 8.73903 10.6776 8.85339 10.6572C8.96691 10.637 9.05422 10.6875 9.08681 10.799C9.15471 11.0309 9.21714 11.2646 9.27628 11.4989C9.30516 11.6132 9.24552 11.717 9.13922 11.7487C9.02654 11.7822 8.92669 11.7439 8.89067 11.6374C8.8063 11.3872 8.73994 11.131 8.68094 10.9278Z" fill="#F58220"/>
<path d="M11.3566 14.4785C11.2798 14.4509 11.2329 14.4431 11.1962 14.4194C11.0047 14.2958 10.813 14.1721 10.6269 14.0407C10.5098 13.958 10.4876 13.8287 10.5589 13.7313C10.6305 13.6336 10.7553 13.624 10.875 13.7045C11.0565 13.8268 11.239 13.9476 11.4212 14.0688C11.5105 14.1282 11.5635 14.2136 11.5158 14.3124C11.483 14.3805 11.4073 14.4278 11.3566 14.4785Z" fill="#F58220"/>
<path d="M18.5663 9.9195C18.5605 9.80584 18.5526 9.69653 18.5499 9.58714C18.5465 9.4486 18.6215 9.35821 18.7415 9.35001C18.8648 9.3416 18.9576 9.41553 18.9636 9.5561C18.9736 9.79274 18.9742 10.0303 18.9653 10.2669C18.9599 10.41 18.8712 10.4826 18.7465 10.4765C18.6187 10.4701 18.5472 10.3813 18.5515 10.2298C18.5545 10.125 18.5614 10.0202 18.5663 9.9195Z" fill="#F58220"/>
<path d="M10.1791 13.1335C10.1356 13.1846 10.0976 13.2691 10.0385 13.2881C9.9725 13.3092 9.85352 13.2987 9.81645 13.2536C9.64897 13.05 9.49453 12.8343 9.35193 12.6123C9.29293 12.5204 9.32691 12.4151 9.42487 12.3492C9.51513 12.2884 9.63495 12.31 9.7044 12.4041C9.84525 12.5948 9.98287 12.7879 10.1185 12.9825C10.1433 13.0181 10.1522 13.0649 10.1791 13.1335Z" fill="#F58220"/>
<path d="M11.512 5.67462C11.4742 5.64056 11.3847 5.59768 11.369 5.53601C11.3515 5.46678 11.3774 5.33308 11.4247 5.30988C11.6772 5.18634 11.9392 5.07976 12.2047 4.98677C12.2979 4.95419 12.3819 5.02517 12.4117 5.12412C12.4407 5.2204 12.4195 5.31787 12.3252 5.36069C12.0889 5.46811 11.8467 5.56243 11.6064 5.66109C11.5901 5.66782 11.5705 5.66663 11.512 5.67462Z" fill="#F58220"/>
<path d="M12.3196 14.4694C12.3841 14.4866 12.4539 14.5077 12.5249 14.5238C12.6938 14.5622 12.8635 14.597 13.0324 14.6356C13.165 14.6661 13.232 14.7627 13.2095 14.8845C13.1888 14.9967 13.0896 15.07 12.9634 15.0445C12.7268 14.9967 12.4915 14.9411 12.2579 14.8803C12.1396 14.8495 12.0891 14.7594 12.1087 14.6386C12.1271 14.526 12.2076 14.4822 12.3196 14.4694Z" fill="#F58220"/>
<path d="M8.59174 9.64783C8.61416 9.45765 8.63329 9.26698 8.66006 9.07743C8.68052 8.93231 8.77708 8.85263 8.89859 8.86875C9.0264 8.88571 9.08898 8.99019 9.07111 9.14449C9.04805 9.34378 9.02654 9.54342 9.0107 9.74342C8.99753 9.91054 8.91975 10.0041 8.78836 9.9954C8.66146 9.98699 8.59313 9.89267 8.59643 9.7308C8.59699 9.70347 8.5965 9.67607 8.5965 9.64875C8.59496 9.64847 8.59335 9.64811 8.59174 9.64783Z" fill="#F58220"/>
<path d="M18.3548 12.2075C18.1658 12.2047 18.0698 12.0698 18.1201 11.928C18.1993 11.7048 18.2844 11.4837 18.3702 11.2629C18.4151 11.1477 18.5053 11.106 18.6235 11.1334C18.731 11.1582 18.8011 11.2613 18.7631 11.3771C18.6823 11.6233 18.5899 11.8665 18.4876 12.1045C18.4642 12.159 18.3813 12.188 18.3548 12.2075Z" fill="#F58220"/>
<path d="M17.9944 12.9067C17.9552 12.9837 17.9375 13.0422 17.9014 13.0852C17.7609 13.2528 17.6181 13.4188 17.4694 13.5791C17.3649 13.6918 17.2326 13.6995 17.1442 13.6118C17.0566 13.5248 17.0698 13.4015 17.1728 13.2856C17.3151 13.1255 17.4542 12.9626 17.5941 12.8005C17.6615 12.7224 17.7511 12.6891 17.8382 12.7372C17.9011 12.7718 17.9416 12.847 17.9944 12.9067Z" fill="#F58220"/>
<path d="M16.6531 14.1648C16.6402 14.1883 16.6252 14.2599 16.5829 14.2845C16.3506 14.4193 16.1157 14.551 15.8732 14.6657C15.7728 14.7132 15.6731 14.6608 15.6263 14.5532C15.5797 14.446 15.6113 14.35 15.7106 14.2934C15.9206 14.174 16.1336 14.0596 16.3494 13.9512C16.4967 13.8772 16.6503 13.9727 16.6531 14.1648Z" fill="#F58220"/>
<path d="M14.1934 15.0951C14.157 15.097 14.1204 15.1017 14.0841 15.1003C13.9688 15.0956 13.8947 15.0382 13.8769 14.9219C13.8598 14.8109 13.9278 14.7102 14.0438 14.6924C14.2869 14.6552 14.5311 14.6235 14.7758 14.5976C14.8944 14.5851 14.9864 14.6643 14.996 14.7739C15.0068 14.8964 14.9494 14.9809 14.8295 15.0033C14.619 15.0427 14.4066 15.0715 14.1951 15.1047C14.1944 15.1016 14.1939 15.0983 14.1934 15.0951Z" fill="#F58220"/>
<path d="M10.8853 6.02969C10.8391 6.1039 10.8135 6.16858 10.7683 6.21329C10.6128 6.36724 10.4502 6.51405 10.2905 6.66386C10.1923 6.75587 10.0698 6.76484 9.98405 6.68566C9.89772 6.60598 9.88973 6.47536 9.98461 6.38077C10.1557 6.21013 10.3306 6.0421 10.5176 5.88976C10.568 5.84876 10.6751 5.84554 10.7425 5.86733C10.7975 5.88513 10.8324 5.96593 10.8853 6.02969Z" fill="#F58220"/>
<path d="M10.6997 9.95565C10.7207 9.37803 10.8625 8.83993 11.1554 8.34401C11.1865 8.29146 11.2357 8.2218 11.2848 8.21431C11.3559 8.20338 11.4504 8.22138 11.5064 8.2642C11.5882 8.32664 11.5648 8.42159 11.5261 8.51471C11.4057 8.80475 11.2693 9.09156 11.1851 9.39253C11.0802 9.76722 11.1048 10.1543 11.1825 10.536C11.2149 10.6949 11.1582 10.7993 11.0319 10.8233C10.9135 10.8457 10.8168 10.7731 10.791 10.6204C10.7537 10.4 10.7295 10.1774 10.6997 9.95565Z" fill="#F58220"/>
<path d="M16.8838 9.95682C16.8546 10.1786 16.8312 10.4013 16.7944 10.6218C16.7691 10.7728 16.6695 10.8465 16.5518 10.8234C16.4301 10.7995 16.3701 10.698 16.4003 10.5478C16.5445 9.83083 16.4375 9.15651 16.0676 8.52416C15.9948 8.39971 16.0176 8.28514 16.1173 8.22305C16.2223 8.15774 16.3419 8.1939 16.4174 8.32094C16.7169 8.82408 16.8654 9.36918 16.8838 9.95682Z" fill="#F58220"/>
<path d="M14.8834 8.84682H14.3608C14.4423 8.96666 14.495 9.10728 14.519 9.26866H15.0033L14.8834 9.70489H14.5214C14.4862 9.96854 14.3808 10.1707 14.205 10.3113C14.0292 10.4503 13.7806 10.5334 13.4594 10.5606L14.5765 11.8668V11.898H13.8885L12.6683 10.4767L12.6659 10.11H13.2724C13.4514 10.11 13.5928 10.0732 13.6967 9.9997C13.8022 9.9246 13.8725 9.82633 13.9077 9.70489H12.6179L12.7402 9.26866H13.8981C13.8198 9.02099 13.608 8.89716 13.2628 8.89716H12.6179L12.7474 8.4082H15.0057L14.8834 8.84682Z" fill="#F58220"/>
</g>
<defs>
<clipPath id="clip0_1603_420">
<rect width="18" height="18" fill="white" transform="translate(4 4)"/>
</clipPath>
</defs>
</svg>
