<svg width="24" height="24" viewBox="0 0 24 24" fill="none" xmlns="http://www.w3.org/2000/svg">
    <path d="M22.925 15.022h-3.352a11.118 11.118 0 0 0-4.128-6.262 1.18 1.18 0 0 0-.329-1.928l1.028-3.629a1.58 1.58 0 0 0-1.516-2.015h-.715a2.372 2.372 0 0 0-4.11 0h-.716a1.579 1.579 0 0 0-1.514 2.013L8.6 6.831a1.18 1.18 0 0 0-.328 1.93 11.206 11.206 0 0 0-4.13 6.261H1.187A1.18 1.18 0 0 0 .31 17a1.168 1.168 0 0 0 0 1.58 1.175 1.175 0 0 0 .245 1.79 1.146 1.146 0 0 0 0 1.164 1.183 1.183 0 0 0 .632 2.185H7.51a1.182 1.182 0 0 0 1.052-.65 8.712 8.712 0 0 0 3.296.65h11.067a.79.79 0 0 0 .79-.79v-7.115a.79.79 0 0 0-.79-.79zm0 1.92a1.578 1.578 0 0 1-1.13-1.13h1.13v1.13zM9.091 8.303a.395.395 0 0 1 0-.79h5.534a.395.395 0 1 1 0 .79H9.09zm-.63-6.01a.778.778 0 0 1 .626-.314h.435c-.023.13-.035.263-.036.395v1.581a.395.395 0 0 0 .791 0v-1.58a1.581 1.581 0 1 1 3.162 0v1.58a.395.395 0 1 0 .79 0v-1.58c0-.133-.012-.266-.035-.396h.435a.79.79 0 0 1 .754 1.007l-1.057 3.736H9.39L8.333 2.984a.781.781 0 0 1 .128-.691zm-7.275 13.52H7.51a.395.395 0 0 1 0 .79H1.186a.395.395 0 0 1 0-.79zm0 5.138a.395.395 0 0 1 .395-.395h6.324a.395.395 0 1 1 0 .79H1.581a.395.395 0 0 1-.395-.395zm0-1.186a.395.395 0 1 1 0-.79H7.51a.395.395 0 1 1 0 .79H1.186zM.791 17.79a.395.395 0 0 1 .395-.395H7.51a.395.395 0 1 1 0 .79H1.186a.395.395 0 0 1-.395-.395zm6.72 5.138H1.185a.395.395 0 1 1 0-.79H7.51a.395.395 0 0 1 0 .79zm1.145-.681a1.185 1.185 0 0 0-.118-.295 1.179 1.179 0 0 0 0-2 1.159 1.159 0 0 0-.15-1.371 1.167 1.167 0 0 0 0-1.581 1.18 1.18 0 0 0-.878-1.977H4.952c.584-2.327 2.34-4.793 4.252-5.928h5.308c2.426 1.437 4.46 4.85 4.46 7.51 0 3.486-3.191 6.323-7.114 6.323a7.899 7.899 0 0 1-3.202-.681zm11.107-5.643a6.677 6.677 0 0 0-.054-.79h1.276a2.375 2.375 0 0 0 1.94 1.94v3.234a2.375 2.375 0 0 0-1.94 1.94h-5.522c2.55-1.182 4.3-3.57 4.3-6.324zm2.032 6.324a1.578 1.578 0 0 1 1.13-1.13v1.13h-1.13z" fill="#FF831A"/>
    <path d="M21.342 20.555a1.186 1.186 0 1 0 0-2.372 1.186 1.186 0 0 0 0 2.372zm0-1.58a.395.395 0 1 1 0 .79.395.395 0 0 1 0-.79zM12.705 18.36l-1.57-2.74v-.364h.183c.443 0 .78-.064 1.013-.191.238-.127.377-.357.415-.69h-1.61v-.53h1.602c-.055-.31-.202-.535-.44-.673-.232-.138-.559-.208-.98-.208h-.182v-.53h3.437v.53h-1.57c.266.216.424.51.474.88h1.095v.532h-1.079c-.038.404-.193.72-.465.946-.265.221-.62.363-1.062.423l1.586 2.615h-.847z" fill="#FF831A"/>
</svg>
