<svg width="72" height="72" viewBox="0 0 72 72" fill="none" xmlns="http://www.w3.org/2000/svg">
<path d="M72 36C72 55.8823 55.8823 72 36 72C16.1177 72 0 55.8823 0 36C0 16.1177 16.1177 0 36 0C55.8823 0 72 16.1177 72 36Z" fill="#043B73"/>
<path d="M41.4367 15.2624H39.0291C39.4046 15.8805 39.6476 16.6058 39.758 17.4382H41.989L41.4367 19.6882H39.7691C39.6071 21.0481 39.1212 22.0907 38.3112 22.8159C37.5013 23.533 36.3564 23.9615 34.8765 24.1016L40.0231 30.8393V31H36.8534L31.2319 23.669L31.2209 21.7775H34.0151C34.8397 21.7775 35.4913 21.5879 35.9699 21.2088C36.4558 20.8214 36.7798 20.3146 36.9418 19.6882H31L31.5633 17.4382H36.8976C36.5368 16.1607 35.5612 15.522 33.9709 15.522H31L31.5964 13H42L41.4367 15.2624Z" fill="white"/>
<path d="M58.9016 41.5656C60.7547 39.668 61.0224 36.7266 59.5679 34.7051L58.9016 41.5656ZM58.9016 41.5656L58.8736 41.591L50.5906 49.1328C50.5906 49.1329 50.5906 49.1329 50.5906 49.1329C46.7867 52.5948 41.8598 54.4995 36.7167 54.4995H16.9183C16.1332 54.4995 15.5 53.8662 15.5 53.0829C15.5 52.2995 16.1332 51.6663 16.9183 51.6663H36.7148C41.1495 51.6663 45.3976 50.0233 48.6779 47.0377C48.6779 47.0377 48.6779 47.0377 48.6779 47.0377L56.8957 39.5591L56.9046 39.551L56.9131 39.5425C57.7238 38.7301 57.9551 37.3168 57.2639 36.359L57.2635 36.3586C56.8353 35.7667 56.2018 35.4012 55.4807 35.3407L55.4807 35.3407L55.4715 35.3401C54.7822 35.2951 54.0882 35.5322 53.582 36.0331L45.4675 43.4743L45.4674 43.4743L45.4623 43.4791C44.5186 44.3695 43.251 44.9164 41.8557 44.9164H32.2644C31.4793 44.9164 30.8461 44.2831 30.8461 43.4998C30.8461 42.7164 31.4793 42.0831 32.2644 42.0831H41.8557C42.151 42.0831 42.7363 42.0194 43.2648 41.6825C43.8282 41.3235 44.274 40.6852 44.274 39.6665C44.274 38.332 43.1903 37.2499 41.8557 37.2499H32.4332C27.691 37.2499 23.2268 39.0984 19.8721 42.4483L19.8719 42.4482L19.8626 42.458L17.9489 44.4755C17.9488 44.4756 17.9486 44.4757 17.9485 44.4758C17.6682 44.7699 17.2944 44.9183 16.9183 44.9183C16.567 44.9183 16.216 44.7893 15.9427 44.5304C15.3749 43.9895 15.3522 43.093 15.8899 42.5276L15.89 42.5275L17.8363 40.4795C21.765 36.5584 26.9345 34.4205 32.4351 34.4205H41.8576C44.0211 34.4205 45.886 35.7356 46.6907 37.6098L46.9687 38.2573L47.488 37.7811L51.6142 33.9977L51.6224 33.9901L51.6303 33.9822C52.6586 32.9514 54.172 32.3862 55.7045 32.5192L55.7082 32.5195C57.2483 32.6419 58.6553 33.4374 59.5679 34.7051L58.9016 41.5656Z" fill="white" stroke="#043B73"/>
</svg>
