<svg width="26" height="26" viewBox="0 0 26 26" fill="none" xmlns="http://www.w3.org/2000/svg">
<path d="M26 13C26 20.1797 20.1797 26 13 26C5.8203 26 0 20.1797 0 13C0 5.8203 5.8203 0 13 0C20.1797 0 26 5.8203 26 13Z" fill="#F58220" fill-opacity="0.1"/>
<g clip-path="url(#clip0_1998_168)">
<path d="M7.80163 19.481C7.74389 19.6413 7.71397 19.7885 7.64165 19.9107C7.51692 20.1216 7.31546 20.227 7.06767 20.2276C6.36714 20.2291 5.66654 20.2285 4.96601 20.2279C4.80828 20.2277 4.72363 20.1579 4.72229 20.0319C4.72096 19.9017 4.80961 19.8252 4.97379 19.8249C5.63768 19.8235 6.30162 19.8243 6.96557 19.8242C7.26024 19.8241 7.3582 19.7253 7.35827 19.4267C7.35848 18.1263 7.35848 16.8259 7.35827 15.5256C7.3582 15.2235 7.25456 15.1183 6.95668 15.1181C6.29273 15.1178 5.62884 15.117 4.96489 15.1191C4.8527 15.1194 4.76392 15.0904 4.72945 14.9749C4.68831 14.8369 4.7848 14.7194 4.94723 14.7155C5.14856 14.7106 5.35016 14.7141 5.55162 14.7141C6.01404 14.714 6.47653 14.714 6.93902 14.7141C7.44187 14.7142 7.67599 14.9107 7.76372 15.4054C7.76603 15.4183 7.7722 15.4306 7.77283 15.4324C8.0649 15.4656 8.35655 15.4719 8.63432 15.537C8.96619 15.6148 9.30143 15.7106 9.60891 15.8548C11.3404 16.6668 13.064 17.4956 14.7904 18.3184C14.8647 18.3537 14.9406 18.3858 15.0158 18.4192C15.4541 18.6132 15.6714 19.0974 15.5229 19.5494C15.3735 20.0041 14.9155 20.268 14.4481 20.165C14.3866 20.1514 14.3275 20.1229 14.2699 20.0956C13.0661 19.5266 11.8628 18.9569 10.6597 18.3865C10.6108 18.3633 10.5424 18.3407 10.5251 18.3C10.496 18.2317 10.47 18.1325 10.4999 18.0771C10.5298 18.0219 10.6274 17.9859 10.6998 17.9767C10.7553 17.9696 10.8193 18.014 10.8768 18.0413C12.0597 18.6007 13.2422 19.1611 14.425 19.721C14.6996 19.8509 14.9923 19.7481 15.1156 19.4796C15.2377 19.2137 15.1216 18.9183 14.8511 18.7901C13.6275 18.21 12.4053 17.6268 11.1813 17.0473C10.4991 16.7242 9.82018 16.3936 9.12911 16.0906C8.70642 15.9054 8.24996 15.8509 7.77297 15.8616C7.76898 15.9132 7.76267 15.9567 7.76267 16.0002C7.76211 16.9755 7.764 17.9508 7.76001 18.926C7.75952 19.0381 7.78937 19.0747 7.90443 19.0756C8.42837 19.0796 8.92765 19.2007 9.40969 19.4046C11.0741 20.1086 12.7407 20.8073 14.4041 21.5138C14.6865 21.6338 14.9375 21.6166 15.1961 21.4497C16.9727 20.3031 18.7526 19.1616 20.5309 18.0177C20.7701 17.8639 20.8643 17.6015 20.7749 17.3513C20.6842 17.0975 20.4379 16.9429 20.1697 16.9842C20.0913 16.9963 20.0115 17.0312 19.9434 17.0734C18.8346 17.7604 17.7276 18.4502 16.6202 19.1393C16.6046 19.149 16.5892 19.1589 16.5735 19.1683C16.4447 19.2449 16.3218 19.2303 16.2582 19.1307C16.19 19.0241 16.2282 18.9059 16.3631 18.8218C17.3574 18.2022 18.3523 17.5834 19.347 16.9643C19.4752 16.8845 19.6034 16.8048 19.7317 16.7251C20.1882 16.4414 20.78 16.5695 21.0601 17.0127C21.3479 17.4682 21.2189 18.0558 20.7622 18.3519C20.2784 18.6656 19.7919 18.9754 19.3068 19.2872C18.0094 20.1213 16.7108 20.9535 15.4157 21.7911C15.0422 22.0326 14.6638 22.0633 14.255 21.89C12.5786 21.1789 10.9 20.4733 9.22238 19.7654C8.79591 19.5854 8.35262 19.4841 7.88894 19.477C7.8532 19.4765 7.81726 19.4803 7.80163 19.481Z" fill="#F58220" stroke="#F58220" stroke-width="0.2"/>
<path d="M17.653 9.97037C17.6529 12.0653 15.9329 13.7662 13.8131 13.7675C11.6849 13.7689 9.96662 12.0688 9.96845 9.96378C9.97027 7.85848 11.6888 6.16416 13.8197 6.16675C15.9373 6.16934 17.653 7.87179 17.653 9.97037ZM10.3724 9.96967C10.3747 11.8451 11.9133 13.3629 13.8122 13.3628C15.7068 13.3627 17.2507 11.8362 17.2491 9.96448C17.2475 8.09231 15.7041 6.57094 13.8071 6.5715C11.9107 6.57199 10.37 8.09624 10.3724 9.96967Z" fill="#F58220"/>
<path d="M13.5101 5.15091C13.4376 5.15652 13.3652 5.16528 13.2926 5.1671C13.1641 5.17039 13.0726 5.0959 13.06 4.9828C13.0474 4.86942 13.1216 4.77545 13.2488 4.75597C13.3506 4.74042 13.454 4.73502 13.5867 4.7222C13.4729 4.59585 13.3769 4.48871 13.2803 4.38213C13.1736 4.26447 13.1666 4.14388 13.2621 4.05678C13.3553 3.97171 13.4679 3.98173 13.5767 4.09027C13.8033 4.3164 14.0286 4.54372 14.2531 4.77195C14.3682 4.88897 14.3645 5.00137 14.2414 5.11475C14.0093 5.32855 13.7761 5.54115 13.5422 5.75292C13.4323 5.85235 13.3105 5.85733 13.2261 5.77023C13.1357 5.67703 13.147 5.55769 13.2631 5.44725C13.3546 5.36022 13.4516 5.27908 13.5462 5.19534C13.5341 5.18041 13.522 5.16563 13.5101 5.15091Z" fill="#F58220"/>
<path d="M9.44034 7.19153C9.6233 7.18663 9.73759 7.32817 9.67957 7.46075C9.57719 7.69452 9.46262 7.92345 9.34273 8.14888C9.28863 8.2507 9.18618 8.27558 9.08149 8.22715C8.97652 8.17859 8.92747 8.0828 8.97393 7.97755C9.07694 7.74406 9.19067 7.51492 9.31154 7.29019C9.3395 7.2382 9.41364 7.21101 9.44034 7.19153Z" fill="#F58220"/>
<path d="M8.68091 10.9278C8.68469 10.757 8.739 10.6776 8.85336 10.6572C8.96688 10.637 9.05419 10.6875 9.08678 10.799C9.15468 11.0309 9.21711 11.2646 9.27625 11.4989C9.30512 11.6132 9.24549 11.717 9.13919 11.7487C9.02651 11.7822 8.92666 11.7439 8.89064 11.6374C8.80627 11.3872 8.73991 11.131 8.68091 10.9278Z" fill="#F58220"/>
<path d="M11.3565 14.4785C11.2798 14.4509 11.2329 14.4431 11.1962 14.4194C11.0047 14.2958 10.813 14.1721 10.6269 14.0407C10.5098 13.958 10.4876 13.8287 10.5589 13.7313C10.6304 13.6336 10.7553 13.624 10.875 13.7045C11.0565 13.8268 11.2389 13.9476 11.4211 14.0688C11.5105 14.1282 11.5635 14.2136 11.5158 14.3124C11.483 14.3805 11.4073 14.4278 11.3565 14.4785Z" fill="#F58220"/>
<path d="M18.5663 9.9195C18.5604 9.80584 18.5525 9.69653 18.5499 9.58714C18.5464 9.4486 18.6215 9.35821 18.7414 9.35001C18.8648 9.3416 18.9575 9.41553 18.9635 9.5561C18.9735 9.79274 18.9742 10.0303 18.9653 10.2669C18.9599 10.41 18.8712 10.4826 18.7464 10.4765C18.6187 10.4701 18.5471 10.3813 18.5515 10.2298C18.5545 10.125 18.5613 10.0202 18.5663 9.9195Z" fill="#F58220"/>
<path d="M10.179 13.1337C10.1355 13.1847 10.0976 13.2693 10.0385 13.2882C9.97247 13.3093 9.85348 13.2988 9.81642 13.2538C9.64894 13.0501 9.4945 12.8344 9.3519 12.6124C9.29289 12.5205 9.32688 12.4152 9.42484 12.3493C9.5151 12.2886 9.63492 12.3101 9.70437 12.4042C9.84522 12.5949 9.98284 12.7881 10.1184 12.9826C10.1432 13.0182 10.1521 13.065 10.179 13.1337Z" fill="#F58220"/>
<path d="M11.512 5.67462C11.4742 5.64056 11.3847 5.59768 11.369 5.53601C11.3515 5.46678 11.3774 5.33308 11.4247 5.30988C11.6772 5.18634 11.9392 5.07976 12.2047 4.98677C12.2979 4.95419 12.3819 5.02517 12.4117 5.12412C12.4407 5.2204 12.4195 5.31787 12.3252 5.36069C12.0889 5.46811 11.8467 5.56243 11.6064 5.66109C11.5901 5.66782 11.5705 5.66663 11.512 5.67462Z" fill="#F58220"/>
<path d="M12.3196 14.4692C12.3841 14.4865 12.4539 14.5076 12.5249 14.5237C12.6938 14.5621 12.8635 14.5968 13.0324 14.6355C13.165 14.6659 13.232 14.7626 13.2095 14.8844C13.1888 14.9966 13.0896 15.0699 12.9634 15.0444C12.7268 14.9965 12.4915 14.941 12.2579 14.8802C12.1396 14.8494 12.0891 14.7593 12.1087 14.6385C12.1271 14.5259 12.2076 14.4821 12.3196 14.4692Z" fill="#F58220"/>
<path d="M8.59167 9.64783C8.6141 9.45765 8.63323 9.26698 8.66 9.07743C8.68046 8.93231 8.77702 8.85263 8.89853 8.86875C9.02634 8.88571 9.08892 8.99019 9.07105 9.14449C9.04799 9.34378 9.02648 9.54342 9.01064 9.74342C8.99747 9.91054 8.91969 10.0041 8.7883 9.9954C8.6614 9.98699 8.59307 9.89267 8.59637 9.7308C8.59693 9.70347 8.59644 9.67607 8.59644 9.64875C8.5949 9.64847 8.59329 9.64811 8.59167 9.64783Z" fill="#F58220"/>
<path d="M18.3548 12.2075C18.1658 12.2047 18.0698 12.0698 18.1201 11.928C18.1993 11.7048 18.2844 11.4837 18.3702 11.2629C18.4151 11.1477 18.5053 11.106 18.6235 11.1334C18.731 11.1582 18.8011 11.2613 18.7631 11.3771C18.6823 11.6233 18.5899 11.8665 18.4876 12.1045C18.4642 12.159 18.3813 12.188 18.3548 12.2075Z" fill="#F58220"/>
<path d="M17.9944 12.9067C17.9552 12.9837 17.9374 13.0422 17.9013 13.0852C17.7609 13.2528 17.6181 13.4188 17.4694 13.5791C17.3649 13.6918 17.2325 13.6995 17.1442 13.6118C17.0565 13.5248 17.0698 13.4015 17.1728 13.2856C17.315 13.1255 17.4541 12.9626 17.5941 12.8005C17.6615 12.7224 17.751 12.6891 17.8382 12.7372C17.9011 12.7718 17.9416 12.847 17.9944 12.9067Z" fill="#F58220"/>
<path d="M16.6531 14.165C16.6401 14.1884 16.6251 14.2601 16.5828 14.2847C16.3506 14.4194 16.1157 14.5511 15.8732 14.6659C15.7727 14.7134 15.673 14.661 15.6262 14.5533C15.5796 14.4461 15.6112 14.3501 15.7106 14.2936C15.9205 14.1741 16.1335 14.0597 16.3494 13.9513C16.4966 13.8773 16.6503 13.9728 16.6531 14.165Z" fill="#F58220"/>
<path d="M14.1934 15.095C14.157 15.0968 14.1204 15.1016 14.0841 15.1001C13.9688 15.0954 13.8947 15.0381 13.8769 14.9218C13.8598 14.8107 13.9278 14.71 14.0438 14.6923C14.2869 14.6551 14.5311 14.6234 14.7758 14.5975C14.8944 14.585 14.9864 14.6642 14.996 14.7737C15.0068 14.8963 14.9494 14.9808 14.8295 15.0032C14.619 15.0426 14.4066 15.0714 14.1951 15.1046C14.1944 15.1015 14.1939 15.0982 14.1934 15.095Z" fill="#F58220"/>
<path d="M10.8852 6.02969C10.8391 6.1039 10.8135 6.16858 10.7683 6.21329C10.6127 6.36724 10.4502 6.51405 10.2905 6.66386C10.1923 6.75587 10.0698 6.76484 9.98402 6.68566C9.89769 6.60598 9.8897 6.47537 9.98458 6.38077C10.1556 6.21013 10.3305 6.0421 10.5176 5.88976C10.5679 5.84876 10.6751 5.84554 10.7424 5.86733C10.7975 5.88513 10.8323 5.96593 10.8852 6.02969Z" fill="#F58220"/>
<path d="M10.6997 9.95565C10.7207 9.37803 10.8625 8.83993 11.1554 8.34401C11.1864 8.29146 11.2356 8.2218 11.2848 8.21431C11.3559 8.20338 11.4503 8.22138 11.5064 8.2642C11.5882 8.32664 11.5648 8.42159 11.5261 8.51471C11.4056 8.80475 11.2693 9.09156 11.185 9.39253C11.0801 9.76722 11.1047 10.1543 11.1825 10.536C11.2149 10.6949 11.1581 10.7993 11.0319 10.8233C10.9134 10.8457 10.8167 10.7731 10.7909 10.6204C10.7537 10.4 10.7295 10.1774 10.6997 9.95565Z" fill="#F58220"/>
<path d="M16.8838 9.95682C16.8546 10.1786 16.8312 10.4013 16.7944 10.6218C16.7691 10.7728 16.6695 10.8465 16.5518 10.8234C16.4301 10.7995 16.3701 10.698 16.4003 10.5478C16.5445 9.83083 16.4375 9.15651 16.0676 8.52416C15.9948 8.39971 16.0176 8.28514 16.1173 8.22305C16.2223 8.15774 16.3419 8.1939 16.4174 8.32094C16.7169 8.82408 16.8654 9.36918 16.8838 9.95682Z" fill="#F58220"/>
<path d="M14.8833 8.84682H14.3607C14.4422 8.96666 14.495 9.10728 14.5189 9.26866H15.0032L14.8833 9.70489H14.5213C14.4862 9.96854 14.3807 10.1707 14.2049 10.3113C14.0291 10.4503 13.7806 10.5334 13.4593 10.5606L14.5765 11.8668V11.898H13.8884L12.6682 10.4767L12.6658 10.11H13.2723C13.4513 10.11 13.5928 10.0732 13.6967 9.9997C13.8021 9.9246 13.8725 9.82633 13.9076 9.70489H12.6179L12.7401 9.26866H13.898C13.8197 9.02099 13.608 8.89716 13.2627 8.89716H12.6179L12.7473 8.4082H15.0056L14.8833 8.84682Z" fill="#F58220"/>
</g>
<defs>
<clipPath id="clip0_1998_168">
<rect width="18" height="18" fill="white" transform="translate(4 4)"/>
</clipPath>
</defs>
</svg>
