<svg width="34" height="34" viewBox="0 0 34 34" fill="none" xmlns="http://www.w3.org/2000/svg">
    <circle cx="17" cy="17" r="17" fill="#F5821F"/>
    <path d="M27.166 14.946V12.7a1.885 1.885 0 0 0-1.888-1.888h-1.229l-10.037-4.18a1.39 1.39 0 0 0-1.834.77l-1.365 3.41H9.804A1.884 1.884 0 0 0 7.916 12.7v10.89a1.886 1.886 0 0 0 1.888 1.888h15.474a1.884 1.884 0 0 0 1.888-1.888v-2.246a.95.95 0 0 0 .917-.944v-4.51a.95.95 0 0 0-.917-.944zM13.031 7.74a.459.459 0 0 1 .257-.266.507.507 0 0 1 .366 0l8.012 3.337h-2.218L14.02 9.006a.458.458 0 0 0-.578.266l-.595 1.54h-1.045L13.03 7.74zm3.52 3.07h-2.713l.302-.797 2.411.798zm9.698 12.779a.972.972 0 0 1-.971.972H9.804a.973.973 0 0 1-.971-.972V12.7a.978.978 0 0 1 .971-.972h15.474a.978.978 0 0 1 .971.972v2.237h-4.125a3.208 3.208 0 1 0 0 6.416h4.125v2.237zm.917-3.19a.04.04 0 0 1-.037.037h-5.005a2.292 2.292 0 0 1 0-4.584l5.042.037v4.51z" fill="#fff"/>
    <path d="M22.125 16.77a1.375 1.375 0 1 0 0 2.75 1.375 1.375 0 0 0 0-2.75zm0 1.833a.458.458 0 1 1 0-.915.458.458 0 0 1 0 .915zM13.416 14.02a.459.459 0 0 1-.458.458h-1.834a.458.458 0 0 1 0-.916h1.834a.459.459 0 0 1 .458.458zM15.25 15.853a.458.458 0 0 1-.459.459h-3.667a.458.458 0 0 1 0-.917h3.667a.458.458 0 0 1 .458.458z" fill="#fff"/>
</svg>
