<svg width="16" height="16" viewBox="0 0 16 16" fill="none" xmlns="http://www.w3.org/2000/svg">
<path d="M10.8941 7.30535V7.87044L4.99121 10.9403V9.9628C4.99121 9.88135 5.01157 9.80753 5.0523 9.74135C5.09303 9.67516 5.1643 9.61662 5.26612 9.56571L8.69485 7.83226C8.79667 7.77626 8.90357 7.73044 9.01557 7.6948C9.13267 7.65407 9.25485 7.61844 9.38212 7.58789C9.12248 7.53189 8.89339 7.45298 8.69485 7.35116L5.26612 5.61007C5.1643 5.55916 5.09303 5.50316 5.0523 5.44207C5.01157 5.37589 4.99121 5.29953 4.99121 5.21298V4.24316L10.8941 7.30535Z" fill="#97144D"/>
<rect x="0.75" y="0.75" width="14.5" height="14.5" rx="3.25" stroke="#97144D" stroke-width="1.5"/>
</svg>
