<svg width="25" height="24" viewBox="0 0 25 24" fill="none" xmlns="http://www.w3.org/2000/svg">
    <g clip-path="url(#ak4axvz4ta)">
        <path d="M11.38 18.604c.794.202 1.532-.408 1.585-1.198.06-.887.19-1.7.355-2.185.104-.304.398-.855.864-1.383.462-.526 1.064-.994 1.77-1.19.557-.154 1.126-.645 1.126-1.362V7.91c0-.713-.566-1.236-1.202-1.304-.889-.096-1.299-.35-1.717-.61l-.04-.025a4.062 4.062 0 0 0-.806-.409c-.33-.114-.715-.183-1.217-.183H9.192c-.778 0-1.328.403-1.606.898a1.589 1.589 0 0 0-.211.77c0 .128.019.263.064.391a2.707 2.707 0 0 0-.405.76c-.092.279-.143.643-.004.97-.057.11-.1.227-.132.34-.064.228-.094.479-.094.723 0 .243.03.493.094.722.03.105.068.207.115.306a1.618 1.618 0 0 0-.194 1.463c.17.5.566.928.996 1.073.703.238 1.497.233 2.09.178a8.12 8.12 0 0 0 .367-.042 8.024 8.024 0 0 0 .051 3.804c.056.2.164.38.312.523.147.143.33.244.529.291l.216.055zM9.192 6.222h2.906c.423 0 .716.058.946.139.234.081.42.192.645.331l.033.02c.461.286.995.617 2.068.733.276.03.46.244.46.464v3.377c0 .214-.188.458-.515.548-.91.253-1.642.84-2.17 1.441-.528.6-.884 1.245-1.029 1.669-.201.59-.338 1.492-.4 2.405-.02.305-.299.5-.554.437l-.217-.056c-.133-.034-.215-.12-.24-.215a7.145 7.145 0 0 1 .121-3.987.429.429 0 0 0-.089-.42.414.414 0 0 0-.405-.123h-.003l-.011.003-.048.012a7.285 7.285 0 0 1-.86.133c-.551.05-1.21.045-1.753-.139-.145-.049-.373-.253-.473-.548-.089-.26-.072-.566.22-.863l.294-.297-.293-.3a.633.633 0 0 1-.128-.265 1.845 1.845 0 0 1-.062-.49c0-.18.022-.35.062-.491a.643.643 0 0 1 .128-.266l.293-.298-.293-.299c-.04-.04-.09-.149-.004-.411.09-.255.233-.486.42-.68l.292-.297-.293-.3c-.005-.003-.034-.041-.034-.143a.74.74 0 0 1 .1-.35c.138-.244.418-.473.886-.473z" fill="#FB462E"/>
    </g>
    <circle cx="12.098" cy="12" r="11.5" stroke="#FB462E"/>
    <defs>
        <clipPath id="ak4axvz4ta">
            <path fill="#fff" transform="rotate(-180 9.37 9.322)" d="M0 0h13.286v13.5H0z"/>
        </clipPath>
    </defs>
</svg>
