<svg width="16" height="16" viewBox="0 0 16 16" fill="none" xmlns="http://www.w3.org/2000/svg">
<path d="M11.9376 12.6671L11.9373 12.6674C11.8497 12.7549 11.748 12.8099 11.6808 12.842C11.6065 12.8774 11.5311 12.9048 11.4689 12.9249C11.4053 12.9454 11.3469 12.9611 11.3029 12.9718C11.2808 12.9772 11.2609 12.9817 11.2443 12.9852C11.2363 12.9869 11.2272 12.9887 11.2178 12.9904C11.2135 12.9911 11.2063 12.9924 11.1979 12.9936C11.1953 12.994 11.1916 12.9945 11.1872 12.9951C11.1844 12.9954 11.1813 12.9958 11.178 12.9961L11.1777 12.9962C11.1726 12.9967 11.1533 12.9988 11.1284 12.999L11.9376 12.6671ZM11.9376 12.6671L12.5774 12.0272C12.5775 12.027 12.5777 12.0269 12.5779 12.0267C12.7763 11.8289 12.8977 11.5668 12.9561 11.319C13.0145 11.071 13.0226 10.783 12.9349 10.5182C12.9348 10.5179 12.9347 10.5176 12.9346 10.5173L12.8901 10.382L12.8901 10.382L12.8892 10.3793C12.8037 10.1241 12.6346 9.89672 12.4523 9.72452C12.2699 9.55225 12.0333 9.39675 11.7741 9.32554L11.7735 9.32538L10.5911 9.00202L10.5899 9.00168C10.3258 8.93022 10.0404 8.94854 9.79479 9.01253C9.54945 9.07645 9.2891 9.2002 9.09272 9.39658L9.09258 9.39671L8.87797 9.61149M11.9376 12.6671L8.87797 9.61149M5.62109 3.11172L5.62179 3.11196C5.87655 3.19736 6.10438 3.36604 6.27705 3.54839C6.44964 3.73064 6.60627 3.9679 6.677 4.22864M5.62109 3.11172L6.30701 6.85219C6.33179 6.94392 6.3597 7.03435 6.39063 7.12334M5.62109 3.11172L5.48677 3.06692L5.32813 3.54108L5.48635 3.06678L5.48671 3.06689C5.22074 2.97793 4.93159 2.98598 4.68272 3.0448C4.43403 3.10358 4.17197 3.22572 3.9741 3.42433C3.97398 3.42446 3.97385 3.42459 3.97372 3.42472M5.62109 3.11172L3.97372 3.42472M6.677 4.22864L6.19443 4.35953L6.67685 4.22809L6.677 4.22864ZM6.677 4.22864L6.99905 5.41065L6.99929 5.41155C7.07075 5.67576 7.0525 5.96121 6.98871 6.20676C6.92504 6.45186 6.80166 6.71223 6.60561 6.90833L6.60559 6.90835L6.39063 7.12334M6.39063 7.12334C6.79492 8.28683 7.71415 9.20636 8.87797 9.61149M6.39063 7.12334L8.87797 9.61149M3.97372 3.42472L3.33572 4.06282L3.97372 3.42472ZM0.5 8C0.5 3.85818 3.85819 0.5 8.00003 0.5C12.1419 0.5 15.5 3.85818 15.5 8C15.5 12.1417 12.1419 15.5 8.00003 15.5C3.8582 15.5 0.5 12.1418 0.5 8Z" stroke="#97144D"/>
</svg>
