<svg width="60" height="60" viewBox="0 0 60 60" fill="none" xmlns="http://www.w3.org/2000/svg">
<circle cx="30" cy="30" r="29" fill="#EFF2F3" stroke="#97144D" stroke-width="2"/>
<mask id="mask0" mask-type="alpha" maskUnits="userSpaceOnUse" x="0" y="0" width="60" height="60">
<circle cx="30" cy="30" r="30" fill="#C4C4C4"/>
</mask>
<g mask="url(#mask0)">
<path d="M29.7049 38.0268C32.7965 38.0268 35.4736 36.9179 37.661 34.7302C39.8484 32.5429 40.9572 29.8665 40.9572 26.7745C40.9572 23.6836 39.8484 21.0069 37.6606 18.8188C35.4729 16.6318 32.7962 15.5229 29.7049 15.5229C26.6129 15.5229 23.9366 16.6318 21.7492 18.8191C19.5618 21.0065 18.4526 23.6833 18.4526 26.7745C18.4526 29.8665 19.5618 32.5432 21.7495 34.7306C23.9373 36.9176 26.614 38.0268 29.7049 38.0268V38.0268Z" fill="#97144D"/>
<path d="M49.3935 51.4424C49.3305 50.5321 49.2029 49.5391 49.015 48.4905C48.8254 47.4341 48.5813 46.4354 48.289 45.5226C47.9871 44.5791 47.5765 43.6474 47.069 42.7546C46.5422 41.8279 45.9234 41.0209 45.2291 40.3569C44.5031 39.6623 43.6141 39.1037 42.5862 38.6964C41.5619 38.2911 40.4267 38.0858 39.2123 38.0858C38.7354 38.0858 38.2742 38.2815 37.3835 38.8614C36.8353 39.2189 36.1941 39.6323 35.4784 40.0896C34.8665 40.4795 34.0374 40.8449 33.0134 41.1756C32.0144 41.4989 31 41.6629 29.9988 41.6629C28.9976 41.6629 27.9836 41.4989 26.9834 41.1756C25.9605 40.8452 25.1315 40.4799 24.5202 40.09C23.8113 39.637 23.1697 39.2235 22.6133 38.861C21.7237 38.2811 21.2621 38.0854 20.7853 38.0854C19.5706 38.0854 18.4357 38.2911 17.4117 38.6967C16.3845 39.1034 15.4952 39.6619 14.7685 40.3573C14.0745 41.0217 13.4554 41.8282 12.9293 42.7546C12.4221 43.6474 12.0115 44.5788 11.7093 45.5229C11.4174 46.4357 11.1732 47.4341 10.9836 48.4905C10.7958 49.5377 10.6682 50.531 10.6051 51.4435C10.5431 52.3374 10.5117 53.2651 10.5117 54.2022C10.5117 56.6408 11.2869 58.6151 12.8156 60.071C14.3254 61.5078 16.3232 62.2367 18.7526 62.2367H41.2471C43.6765 62.2367 45.6736 61.5081 47.1837 60.071C48.7128 58.6161 49.488 56.6415 49.488 54.2018C49.4876 53.2605 49.4559 52.332 49.3935 51.4424V51.4424Z" fill="#97144D"/>
</g>
</svg>
