<svg width="16" height="16" viewBox="0 0 16 16" fill="none" xmlns="http://www.w3.org/2000/svg">
<path d="M8.81031 5.89733C8.81031 6.33251 8.45753 6.68529 8.02234 6.68529C7.58716 6.68529 7.23438 6.33251 7.23438 5.89733C7.23438 5.46216 7.58716 5.10938 8.02234 5.10938C8.45753 5.10938 8.81031 5.46216 8.81031 5.89733Z" stroke="#97144D"/>
<mask id="path-2-inside-1" fill="white">
<path d="M7.99987 0C3.58171 0 0 3.5818 0 7.99992C0 12.4179 3.58171 16 7.99987 16C12.418 16 16 12.4179 16 7.99992C16 3.5818 12.418 0 7.99987 0ZM7.98328 3.66286C7.98893 3.66286 7.99448 3.6626 8.00003 3.66233C8.00557 3.6626 8.01107 3.66286 8.01677 3.66286C9.36474 3.68414 10.4613 4.79823 10.4613 6.14651C10.4613 7.79496 8.69998 9.46415 8.00003 10.0622C7.95325 10.0222 7.90141 9.97717 7.84594 9.92778C7.84498 9.92693 7.84413 9.92623 7.84333 9.92543C7.0687 9.23711 5.53881 7.68301 5.53881 6.14651C5.53876 4.79823 6.63542 3.6842 7.98328 3.66286ZM8.03475 12.3868C6.55936 12.3868 5.06568 11.9635 5.06568 11.1549C5.06568 10.5874 5.80116 10.21 6.74939 10.0351C6.93281 10.2195 7.10641 10.3821 7.25873 10.5178C6.22586 10.6331 5.61903 10.9601 5.61903 11.1547C5.61903 11.3939 6.53611 11.8333 8.03475 11.8333C9.53338 11.8333 10.4506 11.3939 10.4506 11.1547C10.4506 10.9561 9.81819 10.6209 8.74783 10.5119C8.90148 10.3747 9.07647 10.2107 9.26127 10.0244C10.238 10.1944 11.0039 10.5756 11.0039 11.1549C11.0039 11.9635 9.51024 12.3868 8.03475 12.3868Z"/>
</mask>
<path d="M7.98328 3.66286V2.66286H7.97537L7.96745 2.66299L7.98328 3.66286ZM8.00003 3.66233L8.04805 2.66348L8.00003 2.66117L7.952 2.66348L8.00003 3.66233ZM8.01677 3.66286L8.03256 2.66299L8.02467 2.66286H8.01677V3.66286ZM8.00003 10.0622L7.35009 10.8222L7.99975 11.3778L8.64964 10.8225L8.00003 10.0622ZM7.84594 9.92778L8.51093 9.18092L8.5103 9.18037L7.84594 9.92778ZM7.84333 9.92543L8.55043 9.21832L8.5296 9.19749L8.50757 9.17791L7.84333 9.92543ZM5.53881 6.14651L6.53881 6.14651L6.53881 6.14648L5.53881 6.14651ZM6.74939 10.0351L7.45834 9.32988L7.08653 8.95613L6.56808 9.05172L6.74939 10.0351ZM7.25873 10.5178L7.36973 11.5116L9.59844 11.2627L7.92387 9.77104L7.25873 10.5178ZM8.74783 10.5119L8.08171 9.76609L6.38985 11.2771L8.64655 11.5068L8.74783 10.5119ZM9.26127 10.0244L9.43278 9.03918L8.91877 8.9497L8.55133 9.32011L9.26127 10.0244ZM11.0039 11.1549H12.0039H11.0039ZM7.99987 -1C3.02942 -1 -1 3.02952 -1 7.99992H1C1 4.13407 4.13401 1 7.99987 1V-1ZM-1 7.99992C-1 12.9702 3.02938 17 7.99987 17V15C4.13404 15 1 11.8657 1 7.99992H-1ZM7.99987 17C12.9703 17 17 12.9702 17 7.99992H15C15 11.8657 11.8657 15 7.99987 15V17ZM17 7.99992C17 3.02948 12.9703 -1 7.99987 -1V1C11.8658 1 15 4.13411 15 7.99992H17ZM7.98328 4.66286C8.01686 4.66286 8.04621 4.66126 8.04805 4.66118L7.952 2.66348C7.94823 2.66366 7.95152 2.66349 7.95582 2.66334C7.96085 2.66316 7.97062 2.66286 7.98328 2.66286V4.66286ZM7.952 4.66118C7.95368 4.66126 7.98308 4.66286 8.01677 4.66286V2.66286C8.02934 2.66286 8.03911 2.66316 8.0443 2.66334C8.04863 2.6635 8.05204 2.66368 8.04805 2.66348L7.952 4.66118ZM8.00099 4.66274C8.80281 4.6754 9.46129 5.34428 9.46129 6.14651H11.4613C11.4613 4.25219 9.92667 2.69289 8.03256 2.66299L8.00099 4.66274ZM9.46129 6.14651C9.46129 6.64042 9.18183 7.25189 8.69547 7.89516C8.22881 8.51238 7.6734 9.02599 7.35041 9.30197L8.64964 10.8225C9.02661 10.5004 9.70183 9.88036 10.2908 9.10135C10.8601 8.3484 11.4613 7.30105 11.4613 6.14651H9.46129ZM8.64996 9.30224C8.60775 9.26615 8.56096 9.22547 8.51093 9.18092L7.18096 10.6746C7.24186 10.7289 7.29875 10.7783 7.35009 10.8222L8.64996 9.30224ZM8.5103 9.18037C8.50554 9.17614 8.50173 9.17283 8.50075 9.17198C8.49845 9.16998 8.50156 9.17268 8.50383 9.17466C8.50944 9.17958 8.52799 9.19587 8.55043 9.21832L7.13623 10.6325C7.15948 10.6558 7.17885 10.6728 7.18533 10.6785C7.18802 10.6809 7.19158 10.684 7.18973 10.6824C7.18921 10.6819 7.18586 10.679 7.18158 10.6752L8.5103 9.18037ZM8.50757 9.17791C8.14832 8.85869 7.63182 8.35346 7.21251 7.77027C6.77811 7.1661 6.53881 6.60325 6.53881 6.14651H4.53881C4.53881 7.22627 5.06446 8.20872 5.58867 8.9378C6.12796 9.68787 6.76371 10.3038 7.17909 10.673L8.50757 9.17791ZM6.53881 6.14648C6.53878 5.34434 7.19729 4.67543 7.9991 4.66274L7.96745 2.66299C6.07355 2.69296 4.53874 4.25213 4.53881 6.14655L6.53881 6.14648ZM8.03475 11.3868C7.37462 11.3868 6.75829 11.2899 6.34469 11.1365C6.13585 11.059 6.0377 10.9887 6.00726 10.9601C5.99056 10.9444 6.06568 11.0143 6.06568 11.1549H4.06568C4.06568 11.6998 4.32752 12.1258 4.63699 12.4169C4.93272 12.6951 5.3002 12.8822 5.64921 13.0117C6.35129 13.2721 7.21948 13.3868 8.03475 13.3868V11.3868ZM6.06568 11.1549C6.06568 11.3677 5.91478 11.3992 6.07819 11.2981C6.23341 11.202 6.51936 11.0944 6.93071 11.0186L6.56808 9.05172C6.03119 9.1507 5.47529 9.31919 5.02571 9.59741C4.58433 9.87057 4.06568 10.3746 4.06568 11.1549H6.06568ZM6.04044 10.7404C6.23885 10.9398 6.42714 11.1162 6.59359 11.2645L7.92387 9.77104C7.78569 9.64795 7.62677 9.49918 7.45834 9.32988L6.04044 10.7404ZM7.14773 9.52394C6.55653 9.58997 6.04724 9.7202 5.65724 9.88755C5.4668 9.96926 5.26709 10.0758 5.09628 10.2157C4.98577 10.3063 4.61903 10.623 4.61903 11.1547H6.61903C6.61903 11.3912 6.52871 11.5569 6.47803 11.6326C6.42541 11.7112 6.3762 11.7526 6.36369 11.7629C6.33893 11.7832 6.35549 11.7643 6.44587 11.7255C6.61751 11.6518 6.92806 11.5609 7.36973 11.5116L7.14773 9.52394ZM4.61903 11.1547C4.61903 11.5019 4.77962 11.7515 4.88137 11.8783C4.99128 12.0153 5.11727 12.116 5.22114 12.187C5.43157 12.331 5.68526 12.444 5.94684 12.5318C6.48021 12.7107 7.19344 12.8333 8.03475 12.8333V10.8333C7.37742 10.8333 6.88279 10.7362 6.58296 10.6356C6.50969 10.6111 6.45296 10.5879 6.41165 10.5686C6.3912 10.559 6.37587 10.5511 6.36513 10.5451C6.35425 10.539 6.34971 10.5359 6.35033 10.5363C6.35067 10.5365 6.35933 10.5424 6.37356 10.5549C6.38722 10.5669 6.41219 10.5904 6.44135 10.6268C6.48709 10.6838 6.61903 10.8674 6.61903 11.1547H4.61903ZM8.03475 12.8333C8.87606 12.8333 9.58931 12.7107 10.1227 12.5318C10.3843 12.444 10.638 12.331 10.8484 12.1871C10.9523 12.116 11.0783 12.0154 11.1882 11.8784C11.29 11.7516 11.4506 11.5019 11.4506 11.1547H9.45063C9.45063 10.8673 9.58261 10.6837 9.62834 10.6267C9.65751 10.5903 9.68248 10.5669 9.69614 10.5549C9.71036 10.5424 9.71902 10.5365 9.71935 10.5362C9.71997 10.5358 9.71542 10.539 9.70453 10.545C9.69379 10.551 9.67845 10.559 9.658 10.5686C9.61667 10.5879 9.55993 10.6111 9.48664 10.6356C9.18676 10.7362 8.69207 10.8333 8.03475 10.8333V12.8333ZM11.4506 11.1547C11.4506 10.8637 11.3368 10.6419 11.2472 10.5106C11.1553 10.376 11.0484 10.2762 10.9613 10.2062C10.7871 10.0662 10.5829 9.95943 10.3869 9.87734C9.98554 9.70925 9.4601 9.57928 8.8491 9.51709L8.64655 11.5068C9.10592 11.5536 9.43188 11.6457 9.61433 11.7221C9.71021 11.7622 9.73107 11.7833 9.70885 11.7655C9.69774 11.7565 9.64868 11.7163 9.59553 11.6385C9.54466 11.564 9.45063 11.3961 9.45063 11.1547H11.4506ZM9.41394 11.2578C9.58134 11.1083 9.77107 10.9304 9.97122 10.7286L8.55133 9.32011C8.38188 9.49093 8.22162 9.64114 8.08171 9.76609L9.41394 11.2578ZM9.08977 11.0095C9.51543 11.0836 9.81657 11.1925 9.98272 11.2926C10.1603 11.3997 10.0039 11.3724 10.0039 11.1549H12.0039C12.0039 10.358 11.4646 9.85055 11.015 9.57964C10.554 9.30184 9.98383 9.13511 9.43278 9.03918L9.08977 11.0095ZM10.0039 11.1549C10.0039 11.0143 10.079 10.9444 10.0623 10.9601C10.0319 10.9887 9.93375 11.059 9.72491 11.1365C9.3113 11.2899 8.69493 11.3868 8.03475 11.3868V13.3868C8.85006 13.3868 9.71827 13.2721 10.4204 13.0117C10.7694 12.8822 11.1369 12.6951 11.4326 12.4169C11.7421 12.1259 12.0039 11.6998 12.0039 11.1549H10.0039Z" fill="#97144D" mask="url(#path-2-inside-1)"/>
</svg>
