<svg width="26" height="24" viewBox="0 0 26 24" fill="none" xmlns="http://www.w3.org/2000/svg">
<line x1="2" y1="22" x2="23.6271" y2="22" stroke="#97144D" stroke-width="2"/>
<path fill-rule="evenodd" clip-rule="evenodd" d="M5 11.9212C5 11.3963 5.42555 10.9707 5.9505 10.9707H20.0495C20.5744 10.9707 21 11.3963 21 11.9212C21 12.4461 20.5744 12.8717 20.0495 12.8717H5.9505C5.42555 12.8717 5 12.4461 5 11.9212Z" fill="#BEC1D1"/>
<path fill-rule="evenodd" clip-rule="evenodd" d="M12.9206 4C13.4455 4 13.8711 4.42555 13.8711 4.9505V19.0495C13.8711 19.5744 13.4455 20 12.9206 20C12.3957 20 11.9701 19.5744 11.9701 19.0495V4.9505C11.9701 4.42555 12.3957 4 12.9206 4Z" fill="#BEC1D1"/>
</svg>
