<svg width="26" height="18" viewBox="0 0 26 18" fill="none" xmlns="http://www.w3.org/2000/svg">
<path d="M25.8348 8.88664C25.6025 8.56455 20.0682 1 12.9999 1C5.93157 1 0.397009 8.56455 0.164989 8.88634C-0.0549963 9.1919 -0.0549963 9.60635 0.164989 9.91192C0.397009 10.234 5.93157 17.7986 12.9999 17.7986C20.0682 17.7986 25.6025 10.234 25.8348 9.91218C26.0551 9.60666 26.0551 9.1919 25.8348 8.88664ZM12.9999 16.0608C7.79332 16.0608 3.28388 11.04 1.94899 9.39869C3.28215 7.75589 7.78215 2.73777 12.9999 2.73777C18.2062 2.73777 22.7153 7.75764 24.0508 9.39987C22.7176 11.0426 18.2176 16.0608 12.9999 16.0608Z" fill="#BEC1D1"/>
<path d="M12.9999 5.07581C10.4786 5.07581 8.42737 7.01538 8.42737 9.39931C8.42737 11.7833 10.4786 13.7228 12.9999 13.7228C15.5211 13.7228 17.5724 11.7833 17.5724 9.39931C17.5724 7.01538 15.5211 5.07581 12.9999 5.07581ZM12.9999 12.2816C11.319 12.2816 9.95157 10.9886 9.95157 9.39931C9.95157 7.80998 11.319 6.517 12.9999 6.517C14.6808 6.517 16.0482 7.80998 16.0482 9.39931C16.0482 10.9886 14.6808 12.2816 12.9999 12.2816Z" fill="#BEC1D1"/>
<line x1="3.05091" y1="1.85651" x2="22.8816" y2="16.9225" stroke="#BEC1D1" stroke-width="1.5" stroke-linecap="round"/>
</svg>
