<svg width="239" height="179" viewBox="0 0 239 179" fill="none" xmlns="http://www.w3.org/2000/svg">
    <path d="M2.156 137.339v-17.133H5.79v17.133H2.156zm13.184-2.614c.39 0 .77-.039 1.137-.117.375-.078.746-.176 1.113-.293v2.66c-.383.172-.86.313-1.43.422a9.102 9.102 0 0 1-1.851.176c-.782 0-1.485-.125-2.11-.375-.617-.258-1.105-.699-1.465-1.324-.351-.633-.527-1.512-.527-2.637v-6.316h-1.71v-1.512l1.968-1.195 1.031-2.766h2.285v2.789h3.668v2.684h-3.668v6.316c0 .5.14.875.422 1.125.29.242.668.363 1.137.363zm7.793-14.519.164.258c-.14.57-.324 1.179-.55 1.828-.22.64-.462 1.285-.727 1.933-.258.649-.52 1.266-.786 1.852h-2.566c.11-.469.219-.961.328-1.477.117-.515.227-1.031.328-1.547.11-.515.207-1.015.293-1.5.086-.484.16-.933.223-1.347h3.293zm11.46 13.242c0 .891-.21 1.645-.632 2.262-.414.609-1.035 1.074-1.863 1.394-.828.313-1.86.469-3.094.469-.914 0-1.7-.059-2.356-.176a9.656 9.656 0 0 1-1.968-.586v-2.953c.71.32 1.472.586 2.285.797.82.203 1.539.305 2.156.305.695 0 1.192-.102 1.488-.305.305-.211.457-.484.457-.82a.971.971 0 0 0-.187-.586c-.117-.18-.375-.379-.774-.598-.398-.226-1.023-.519-1.875-.879-.82-.344-1.496-.691-2.027-1.043-.523-.351-.914-.765-1.172-1.242-.25-.484-.375-1.098-.375-1.84 0-1.211.469-2.121 1.407-2.73.945-.617 2.207-.926 3.785-.926.812 0 1.586.082 2.32.246.742.164 1.504.426 2.285.785l-1.078 2.578a18.422 18.422 0 0 0-1.84-.691 5.769 5.769 0 0 0-1.746-.27c-.523 0-.918.071-1.184.211-.265.141-.398.356-.398.645 0 .211.066.398.2.562.14.164.405.348.796.551.399.195.98.449 1.746.762a13.53 13.53 0 0 1 1.934.961c.547.328.969.738 1.265 1.23.297.485.446 1.114.446 1.887zm16.337-9.457c.18 0 .386.012.62.035.243.016.438.039.587.07l-.27 3.352a2.19 2.19 0 0 0-.504-.082 5.184 5.184 0 0 0-.55-.035c-.461 0-.91.058-1.348.176-.43.117-.817.308-1.16.574a2.703 2.703 0 0 0-.82 1.031c-.196.422-.294.941-.294 1.559v6.668h-3.574v-13.102h2.707l.528 2.203h.175c.258-.445.578-.851.961-1.219.39-.375.832-.671 1.325-.89.5-.227 1.039-.34 1.617-.34zm8.953-.023c1.758 0 3.105.382 4.043 1.148.937.766 1.406 1.93 1.406 3.492v8.731h-2.496l-.691-1.782h-.094a6.637 6.637 0 0 1-1.149 1.149c-.39.297-.84.515-1.347.656-.508.141-1.125.211-1.852.211-.773 0-1.469-.148-2.086-.445a3.31 3.31 0 0 1-1.441-1.36c-.352-.617-.528-1.398-.528-2.343 0-1.391.489-2.415 1.465-3.071.977-.664 2.442-1.031 4.395-1.101l2.273-.071v-.574c0-.687-.18-1.191-.539-1.512-.36-.32-.86-.48-1.5-.48-.633 0-1.254.09-1.863.269-.61.18-1.219.407-1.828.68l-1.184-2.414a10.173 10.173 0 0 1 2.332-.867 11.31 11.31 0 0 1 2.684-.316zm1.898 7.3-1.383.047c-1.156.031-1.96.238-2.414.621-.445.383-.668.887-.668 1.512 0 .547.16.937.48 1.172.321.226.74.34 1.255.34.765 0 1.41-.227 1.933-.68.532-.453.797-1.098.797-1.934v-1.078zm10.817-7.031v13.102h-3.575v-13.102h3.575zm-1.782-5.133c.532 0 .989.125 1.371.375.383.242.575.699.575 1.371 0 .664-.192 1.125-.575 1.383-.382.25-.84.375-1.37.375-.54 0-1-.125-1.383-.375-.375-.258-.563-.719-.563-1.383 0-.672.188-1.129.563-1.371.382-.25.843-.375 1.382-.375zm12.985 4.887c1.398 0 2.523.383 3.375 1.148.851.758 1.277 1.977 1.277 3.657v8.543H84.88v-7.653c0-.937-.172-1.644-.516-2.121-.336-.476-.867-.715-1.594-.715-1.093 0-1.84.371-2.238 1.114-.398.742-.597 1.812-.597 3.211v6.164h-3.575v-13.102h2.73l.481 1.676h.2c.28-.453.628-.82 1.043-1.102a4.597 4.597 0 0 1 1.394-.621 6.356 6.356 0 0 1 1.594-.199zm11.906.246v13.102h-3.574v-13.102h3.574zm-1.781-5.133c.531 0 .988.125 1.37.375.384.242.575.699.575 1.371 0 .664-.191 1.125-.574 1.383-.383.25-.84.375-1.371.375-.54 0-1-.125-1.383-.375-.375-.258-.563-.719-.563-1.383 0-.672.188-1.129.563-1.371.383-.25.844-.375 1.383-.375zm12.984 4.887c1.399 0 2.524.383 3.375 1.148.852.758 1.277 1.977 1.277 3.657v8.543h-3.574v-7.653c0-.937-.172-1.644-.515-2.121-.336-.476-.868-.715-1.594-.715-1.094 0-1.84.371-2.238 1.114-.399.742-.598 1.812-.598 3.211v6.164h-3.574v-13.102h2.73l.481 1.676h.199c.281-.453.629-.82 1.043-1.102a4.604 4.604 0 0 1 1.394-.621 6.358 6.358 0 0 1 1.594-.199zm12.164 19.113c-1.828 0-3.226-.32-4.195-.961-.961-.633-1.441-1.523-1.441-2.672 0-.789.246-1.449.738-1.98.492-.531 1.215-.91 2.168-1.137a2.409 2.409 0 0 1-.961-.761c-.274-.36-.41-.739-.41-1.137 0-.5.144-.914.433-1.242.289-.336.707-.664 1.254-.985a3.55 3.55 0 0 1-1.64-1.429c-.399-.657-.598-1.43-.598-2.321 0-.953.207-1.761.621-2.426.422-.671 1.031-1.183 1.828-1.535.805-.351 1.781-.527 2.93-.527.242 0 .523.016.844.047.32.031.613.066.878.105.274.039.457.071.551.094h4.571v1.816l-2.051.528c.187.289.328.597.422.926.093.328.14.675.14 1.043 0 1.406-.492 2.503-1.476 3.293-.977.781-2.336 1.171-4.078 1.171a23.41 23.41 0 0 1-1.172-.093 1.64 1.64 0 0 0-.41.445.939.939 0 0 0-.141.492c0 .172.07.317.211.434.148.109.367.195.656.258.297.054.664.082 1.102.082h2.226c1.438 0 2.531.308 3.281.925.758.618 1.137 1.524 1.137 2.719 0 1.531-.64 2.719-1.922 3.563-1.273.843-3.105 1.265-5.496 1.265zm.153-2.332c.851 0 1.582-.082 2.191-.246.617-.156 1.09-.383 1.418-.68.328-.289.492-.636.492-1.043 0-.328-.098-.589-.293-.785-.187-.187-.476-.32-.867-.398-.383-.078-.875-.117-1.477-.117h-1.851c-.438 0-.832.07-1.184.211-.344.14-.617.336-.82.586a1.396 1.396 0 0 0-.305.89c0 .492.235.879.703 1.16.477.282 1.141.422 1.993.422zm.574-9.937c.672 0 1.164-.207 1.476-.621.313-.414.469-.977.469-1.688 0-.789-.164-1.379-.492-1.769-.32-.399-.805-.598-1.453-.598-.656 0-1.149.199-1.477.598-.328.39-.492.98-.492 1.769 0 .711.16 1.274.48 1.688.329.414.825.621 1.489.621zm22.558-6.844c.18 0 .387.012.621.035.243.016.438.039.586.07l-.269 3.352a2.186 2.186 0 0 0-.504-.082 5.193 5.193 0 0 0-.551-.035c-.461 0-.91.058-1.347.176-.43.117-.817.308-1.161.574a2.709 2.709 0 0 0-.82 1.031c-.195.422-.293.941-.293 1.559v6.668h-3.574v-13.102h2.707l.527 2.203h.176c.258-.445.578-.851.961-1.219a4.6 4.6 0 0 1 1.324-.89c.5-.227 1.039-.34 1.617-.34zm8.989 0c1.211 0 2.254.234 3.129.703a4.807 4.807 0 0 1 2.027 2.016c.476.883.715 1.961.715 3.234v1.734h-8.449c.039 1.008.339 1.801.902 2.379.57.571 1.359.856 2.367.856.836 0 1.602-.086 2.297-.258.695-.172 1.41-.43 2.144-.773v2.765a8.458 8.458 0 0 1-2.039.703c-.703.149-1.558.223-2.566.223-1.313 0-2.477-.242-3.492-.727a5.42 5.42 0 0 1-2.379-2.214c-.57-.993-.856-2.243-.856-3.75 0-1.532.258-2.805.774-3.821.523-1.023 1.25-1.789 2.18-2.297.929-.515 2.011-.773 3.246-.773zm.023 2.543c-.695 0-1.273.223-1.734.668-.453.445-.715 1.144-.785 2.098h5.015c-.008-.532-.105-1.004-.293-1.418a2.199 2.199 0 0 0-.82-.985c-.359-.242-.82-.363-1.383-.363zm19.524 10.805-1.008-4.582a40.682 40.682 0 0 0-.27-1.207c-.125-.54-.262-1.114-.41-1.723-.141-.617-.273-1.188-.398-1.711l-.258-1.148h-.106l-.257 1.148c-.118.523-.25 1.094-.399 1.711l-.398 1.746c-.125.539-.219.949-.282 1.23l-1.054 4.536h-3.844l-3.727-13.102h3.563l1.512 5.801c.101.406.199.89.293 1.453.093.555.175 1.094.246 1.617.078.516.136.926.175 1.231h.094c.016-.227.047-.528.094-.903.055-.375.113-.761.176-1.16.07-.406.133-.769.187-1.09.063-.328.11-.551.141-.668l1.617-6.281h3.938l1.535 6.281c.054.227.125.586.211 1.078.093.493.175 1 .246 1.524.07.515.109.922.117 1.219h.094a61.698 61.698 0 0 1 .433-2.825c.11-.578.219-1.07.328-1.476l1.571-5.801h3.504l-3.774 13.102h-3.89zm15.152-13.371c1.758 0 3.105.382 4.043 1.148.937.766 1.406 1.93 1.406 3.492v8.731H189l-.691-1.782h-.094a6.629 6.629 0 0 1-1.149 1.149c-.39.297-.839.515-1.347.656-.508.141-1.125.211-1.852.211-.773 0-1.469-.148-2.086-.445a3.31 3.31 0 0 1-1.441-1.36c-.352-.617-.528-1.398-.528-2.343 0-1.391.489-2.415 1.465-3.071.977-.664 2.442-1.031 4.395-1.101l2.273-.071v-.574c0-.687-.179-1.191-.539-1.512-.359-.32-.859-.48-1.5-.48-.633 0-1.254.09-1.863.269-.609.18-1.219.407-1.828.68l-1.184-2.414a10.192 10.192 0 0 1 2.332-.867 11.312 11.312 0 0 1 2.684-.316zm1.898 7.3-1.383.047c-1.156.031-1.96.238-2.414.621-.445.383-.668.887-.668 1.512 0 .547.161.937.481 1.172.32.226.738.34 1.254.34.765 0 1.41-.227 1.933-.68.532-.453.797-1.098.797-1.934v-1.078zm14.555-7.277c.18 0 .387.012.621.035.242.016.438.039.586.07l-.269 3.352a2.206 2.206 0 0 0-.504-.082 5.193 5.193 0 0 0-.551-.035c-.461 0-.91.058-1.348.176-.43.117-.816.308-1.16.574a2.7 2.7 0 0 0-.82 1.031c-.196.422-.293.941-.293 1.559v6.668h-3.574v-13.102h2.707l.527 2.203h.176c.257-.445.578-.851.961-1.219.39-.375.832-.671 1.324-.89.5-.227 1.039-.34 1.617-.34zm7.734 13.582c-1.461 0-2.652-.57-3.574-1.711-.914-1.148-1.371-2.832-1.371-5.051 0-2.242.465-3.937 1.395-5.086.929-1.156 2.144-1.734 3.644-1.734.625 0 1.176.086 1.652.258.477.172.887.402 1.231.691.351.289.648.613.891.973h.117c-.047-.25-.106-.617-.176-1.102a11.891 11.891 0 0 1-.094-1.511v-4.196h3.586v18.235h-2.742l-.691-1.7h-.153c-.226.36-.511.688-.855.985a3.886 3.886 0 0 1-1.207.691c-.469.172-1.02.258-1.653.258zm1.254-2.848c.977 0 1.664-.289 2.063-.867.406-.586.621-1.465.644-2.637v-.386c0-1.274-.195-2.246-.586-2.918-.39-.68-1.117-1.02-2.179-1.02-.789 0-1.407.34-1.852 1.02-.445.679-.668 1.66-.668 2.941s.223 2.246.668 2.895c.453.648 1.09.972 1.91.972zm18.926-1.277c0 .891-.211 1.645-.633 2.262-.414.609-1.035 1.074-1.863 1.394-.828.313-1.859.469-3.094.469-.914 0-1.699-.059-2.355-.176a9.645 9.645 0 0 1-1.969-.586v-2.953c.711.32 1.473.586 2.285.797.82.203 1.539.305 2.156.305.696 0 1.192-.102 1.489-.305.304-.211.457-.484.457-.82a.971.971 0 0 0-.188-.586c-.117-.18-.375-.379-.773-.598-.399-.226-1.024-.519-1.875-.879-.821-.344-1.496-.691-2.028-1.043-.523-.351-.914-.765-1.171-1.242-.25-.484-.375-1.098-.375-1.84 0-1.211.468-2.121 1.406-2.73.945-.617 2.207-.926 3.785-.926.812 0 1.586.082 2.32.246a11.35 11.35 0 0 1 2.285.785l-1.078 2.578a18.305 18.305 0 0 0-1.84-.691 5.765 5.765 0 0 0-1.746-.27c-.523 0-.918.071-1.183.211-.266.141-.399.356-.399.645 0 .211.067.398.2.562.14.164.406.348.796.551.399.195.981.449 1.747.762.742.305 1.386.625 1.933.961.547.328.969.738 1.266 1.23.297.485.445 1.114.445 1.887zm5.789-1.793h-2.859l-.598-11.449h4.055l-.598 11.449zm-3.504 4.008c0-.735.199-1.25.598-1.547.406-.297.894-.445 1.465-.445.554 0 1.031.148 1.429.445.407.297.61.812.61 1.547 0 .703-.203 1.211-.61 1.523-.398.313-.875.469-1.429.469-.571 0-1.059-.156-1.465-.469-.399-.312-.598-.82-.598-1.523z" fill="#F5821F"/>
    <path d="M51.95 162.608c0 1.93-.352 3.543-1.056 4.84a6.824 6.824 0 0 1-3.058 2.918c-1.328.648-2.941.973-4.84.973h-4.652v-17.133h5.168c1.742 0 3.242.32 4.5.961a6.634 6.634 0 0 1 2.906 2.824c.688 1.242 1.031 2.781 1.031 4.617zm-2.098.07c0-1.539-.258-2.808-.774-3.808a4.859 4.859 0 0 0-2.25-2.227c-.984-.492-2.191-.738-3.621-.738h-2.871v13.723h2.426c2.36 0 4.129-.582 5.308-1.746 1.188-1.164 1.782-2.899 1.782-5.204zm16.687 2.215c0 1.055-.137 1.996-.41 2.825-.273.828-.668 1.527-1.184 2.097a5.162 5.162 0 0 1-1.875 1.313c-.726.297-1.55.445-2.472.445-.86 0-1.649-.148-2.367-.445a5.35 5.35 0 0 1-1.852-1.313c-.516-.57-.918-1.269-1.207-2.097-.281-.829-.422-1.77-.422-2.825 0-1.406.238-2.601.715-3.586.476-.992 1.156-1.746 2.039-2.261.89-.524 1.95-.786 3.176-.786 1.172 0 2.195.262 3.07.786.883.523 1.566 1.281 2.05 2.273.493.984.74 2.176.74 3.574zm-9.773 0c0 1.032.136 1.926.41 2.684.273.758.695 1.344 1.265 1.758.57.414 1.305.621 2.203.621.891 0 1.622-.207 2.192-.621.578-.414 1.004-1 1.277-1.758.274-.758.41-1.652.41-2.684 0-1.023-.136-1.906-.41-2.648-.273-.75-.695-1.328-1.265-1.735-.57-.406-1.309-.609-2.215-.609-1.336 0-2.317.442-2.942 1.324-.617.883-.925 2.106-.925 3.668zm19.218-6.633c1.524 0 2.676.375 3.457 1.125.782.743 1.172 1.938 1.172 3.586v8.368h-1.922V163.1c0-1.07-.246-1.871-.738-2.402-.484-.531-1.23-.797-2.238-.797-1.422 0-2.422.402-3 1.207-.578.805-.867 1.973-.867 3.504v6.727h-1.946v-12.844h1.57l.294 1.851h.105a3.812 3.812 0 0 1 1.043-1.136 4.528 4.528 0 0 1 1.418-.703 5.495 5.495 0 0 1 1.652-.247zm10.172-4.054.176.258c-.14.57-.32 1.183-.539 1.839a43.183 43.183 0 0 1-1.488 3.774h-1.43c.117-.445.234-.922.352-1.43a46.55 46.55 0 0 0 .644-3.07c.094-.492.172-.949.234-1.371h2.051zm6.692 15.773c.32 0 .648-.027.984-.082a4.46 4.46 0 0 0 .82-.199v1.512c-.226.101-.543.187-.949.258-.398.07-.789.105-1.172.105-.68 0-1.297-.117-1.851-.352-.555-.242-1-.648-1.336-1.218-.328-.571-.492-1.36-.492-2.368v-7.617h-1.829v-.949l1.84-.762.774-2.789h1.172v2.977h3.761v1.523H90.81v7.559c0 .805.183 1.406.55 1.805.375.398.872.597 1.489.597zm24.586-11.719c1.414 0 2.48.372 3.199 1.114.719.734 1.078 1.918 1.078 3.551v8.414h-1.922v-8.321c0-1.039-.227-1.816-.68-2.332-.445-.523-1.109-.785-1.992-.785-1.242 0-2.144.359-2.707 1.078-.562.719-.844 1.778-.844 3.176v7.184h-1.933v-8.321c0-.695-.102-1.273-.305-1.734-.195-.461-.492-.805-.89-1.031-.391-.235-.887-.352-1.489-.352-.851 0-1.535.176-2.051.527-.515.352-.89.875-1.125 1.571-.226.687-.339 1.535-.339 2.543v6.797h-1.946v-12.844h1.571l.293 1.816h.105c.258-.445.582-.82.973-1.125.39-.304.828-.535 1.312-.691a5.02 5.02 0 0 1 1.547-.235c.977 0 1.793.184 2.449.551.664.36 1.145.91 1.442 1.653h.105c.422-.743 1-1.293 1.735-1.653a5.323 5.323 0 0 1 2.414-.551zm10.218.235v12.844h-1.945v-12.844h1.945zm-.949-4.805c.32 0 .594.106.82.317.235.203.352.523.352.961 0 .429-.117.75-.352.96a1.16 1.16 0 0 1-.82.317c-.336 0-.617-.106-.844-.317-.218-.21-.328-.531-.328-.96 0-.438.11-.758.328-.961.227-.211.508-.317.844-.317zm13.383 14.133c0 .82-.207 1.512-.621 2.074-.406.555-.992.973-1.758 1.254-.758.281-1.664.422-2.719.422-.898 0-1.676-.07-2.332-.211a6.756 6.756 0 0 1-1.722-.598v-1.793c.523.258 1.148.493 1.875.704.726.21 1.468.316 2.226.316 1.11 0 1.914-.18 2.414-.539.5-.359.75-.848.75-1.465 0-.352-.101-.66-.304-.926-.196-.273-.528-.535-.997-.785-.468-.258-1.117-.539-1.945-.844a22.612 22.612 0 0 1-2.133-.925c-.593-.313-1.054-.692-1.382-1.137-.321-.445-.481-1.024-.481-1.735 0-1.085.438-1.917 1.313-2.496.882-.586 2.039-.879 3.468-.879.774 0 1.496.079 2.168.235.68.148 1.313.351 1.899.609l-.657 1.559a11.925 11.925 0 0 0-1.699-.574 7.253 7.253 0 0 0-1.84-.235c-.898 0-1.589.149-2.074.446-.476.296-.715.703-.715 1.218 0 .399.11.727.328.985.227.257.586.5 1.079.726.492.227 1.14.492 1.945.797.805.297 1.5.606 2.086.926.586.312 1.035.695 1.347 1.148.321.446.481 1.02.481 1.723zm11.437 0c0 .82-.207 1.512-.621 2.074-.406.555-.992.973-1.757 1.254-.758.281-1.665.422-2.719.422-.899 0-1.676-.07-2.332-.211a6.764 6.764 0 0 1-1.723-.598v-1.793a11.6 11.6 0 0 0 1.875.704c.727.21 1.469.316 2.227.316 1.109 0 1.914-.18 2.414-.539.5-.359.75-.848.75-1.465 0-.352-.102-.66-.305-.926-.195-.273-.527-.535-.996-.785-.469-.258-1.117-.539-1.945-.844a22.386 22.386 0 0 1-2.133-.925c-.594-.313-1.055-.692-1.383-1.137-.32-.445-.48-1.024-.48-1.735 0-1.085.437-1.917 1.312-2.496.883-.586 2.039-.879 3.469-.879.773 0 1.496.079 2.168.235a9.967 9.967 0 0 1 1.898.609l-.656 1.559a11.968 11.968 0 0 0-1.699-.574 7.26 7.26 0 0 0-1.84-.235c-.899 0-1.59.149-2.074.446-.477.296-.715.703-.715 1.218 0 .399.109.727.328.985.226.257.586.5 1.078.726.492.227 1.141.492 1.945.797.805.297 1.5.606 2.086.926.586.312 1.035.695 1.348 1.148.32.446.48 1.02.48 1.723zm20.438-2.93c0 1.055-.137 1.996-.41 2.825-.274.828-.668 1.527-1.184 2.097a5.152 5.152 0 0 1-1.875 1.313c-.726.297-1.551.445-2.472.445-.86 0-1.649-.148-2.368-.445a5.345 5.345 0 0 1-1.851-1.313c-.516-.57-.918-1.269-1.207-2.097-.282-.829-.422-1.77-.422-2.825 0-1.406.238-2.601.715-3.586.476-.992 1.156-1.746 2.039-2.261.89-.524 1.949-.786 3.176-.786 1.171 0 2.195.262 3.07.786.883.523 1.566 1.281 2.051 2.273.492.984.738 2.176.738 3.574zm-9.773 0c0 1.032.136 1.926.41 2.684.273.758.695 1.344 1.265 1.758.571.414 1.305.621 2.203.621.891 0 1.622-.207 2.192-.621.578-.414 1.004-1 1.277-1.758.274-.758.41-1.652.41-2.684 0-1.023-.136-1.906-.41-2.648-.273-.75-.695-1.328-1.265-1.735-.571-.406-1.309-.609-2.215-.609-1.336 0-2.317.442-2.942 1.324-.617.883-.925 2.106-.925 3.668zm23.742-6.398v12.844h-1.594l-.281-1.805h-.106a3.73 3.73 0 0 1-1.031 1.125 4.477 4.477 0 0 1-1.43.68 5.837 5.837 0 0 1-1.676.234c-1.015 0-1.867-.164-2.554-.492a3.31 3.31 0 0 1-1.559-1.524c-.344-.687-.515-1.57-.515-2.648v-8.414h1.968v8.273c0 1.071.243 1.871.727 2.403.484.523 1.223.785 2.215.785.953 0 1.711-.18 2.273-.539.571-.36.981-.887 1.231-1.582.25-.703.375-1.563.375-2.578v-6.762h1.957zm8.261 11.484c.321 0 .649-.027.985-.082.336-.054.609-.121.82-.199v1.512c-.226.101-.543.187-.949.258a6.77 6.77 0 0 1-1.172.105c-.68 0-1.297-.117-1.852-.352-.554-.242-1-.648-1.335-1.218-.329-.571-.493-1.36-.493-2.368v-7.617h-1.828v-.949l1.84-.762.773-2.789h1.172v2.977h3.762v1.523h-3.762v7.559c0 .805.184 1.406.551 1.805.375.398.871.597 1.488.597zm4.114.141c0-.547.133-.934.398-1.16.266-.235.59-.352.973-.352.398 0 .734.117 1.008.352.273.226.41.613.41 1.16 0 .539-.137.933-.41 1.183-.274.243-.61.364-1.008.364a1.39 1.39 0 0 1-.973-.364c-.265-.25-.398-.644-.398-1.183z" fill="#043B73"/>
    <g clip-path="url(#9ily6dhuxa)">
        <path d="M68.94 70.332a6.186 6.186 0 1 1 0-12.373 6.186 6.186 0 0 1 0 12.373zm0-10.518a4.33 4.33 0 1 0 0 8.66 4.33 4.33 0 0 0 0-8.66z" fill="#EF9926"/>
        <path d="M203.067 36.267a2.164 2.164 0 0 1-2.124-2.588 2.168 2.168 0 0 1 2.952-1.578 2.164 2.164 0 0 1 .703 3.532 2.165 2.165 0 0 1-1.531.634zm0-3.712a1.55 1.55 0 0 0-1.429.955 1.545 1.545 0 0 0 1.127 2.109 1.544 1.544 0 0 0 1.588-.658 1.547 1.547 0 0 0-1.286-2.406z" fill="#FFEB97"/>
        <path d="M90.011 93.174a2.536 2.536 0 1 1 0-5.071 2.536 2.536 0 0 1 0 5.07zm0-4.33a1.794 1.794 0 1 0 0 3.588 1.794 1.794 0 0 0 0-3.589z" fill="#EA3F3F"/>
        <path d="M179.323 62.104a2.784 2.784 0 1 0 0-5.57 2.784 2.784 0 0 0 0 5.57zM64.083 30.365a2.165 2.165 0 1 0 0-4.33 2.165 2.165 0 0 0 0 4.33z" fill="#FFAE1F"/>
        <path d="M158.023 17.261a2.475 2.475 0 1 0 0-4.95 2.475 2.475 0 0 0 0 4.95zM30.56 79.563a2.475 2.475 0 1 0 0-4.95 2.475 2.475 0 0 0 0 4.95zM204.7 83.696a1.856 1.856 0 1 0 0-3.713 1.856 1.856 0 0 0 0 3.713z" fill="#FFD522"/>
        <path d="M79.698 53.702a2.784 2.784 0 1 0 0-5.568 2.784 2.784 0 0 0 0 5.568zM141.537 1.856a.928.928 0 1 0 0-1.855.928.928 0 0 0 0 1.855zM43.408 72.064a.928.928 0 1 0 0-1.856.928.928 0 0 0 0 1.856zM87.846 66.317a.928.928 0 1 0 0-1.856.928.928 0 0 0 0 1.856z" fill="#E54242"/>
        <path d="M160.814 56.09a.928.928 0 1 0 0-1.857.928.928 0 0 0 0 1.857z" fill="#FFAE1F"/>
        <path d="M89.652 7.387a.928.928 0 1 0 0-1.856.928.928 0 0 0 0 1.856z" fill="#FFC91F"/>
        <path d="M123.899 14.44a1.547 1.547 0 1 0 0-3.094 1.547 1.547 0 0 0 0 3.094zM211.306 68.482a1.546 1.546 0 1 0 .001-3.093 1.546 1.546 0 0 0-.001 3.093z" fill="#EF4B4B"/>
        <path d="M171.695 49.198a1.547 1.547 0 1 0 0-3.094 1.547 1.547 0 0 0 0 3.094z" fill="#E54242"/>
        <path d="m189.234 83.139-6.317-6.608-6.44 3.502-.884-1.633 7.683-4.176 6.038 6.31 10.028-9.317 1.262 1.36-11.37 10.562z" fill="#FFAE1F"/>
        <path d="m180.523 35.086-.823-9.163 9.119-.012-2.803-9.88 10.474-.601-2.852-7.294 2.308-.897 4.089 10.462-10.795.625 2.851 10.06-9.681.012.575 6.465-2.462.223z" fill="#EF4B4B"/>
        <path d="m79.92 32.19-1.768-.569 3.105-9.59-8.481-3.736L76.37 9.31 66.249 6.818l.44-1.807 12.193 3.007-3.718 9.299 8.376 3.694-3.62 11.18z" fill="#FFAE1F"/>
        <path d="m36.536 58.775-5.123-10.79-6.372 9.3-2.041-1.4 8.797-12.85 5.4 11.36 5.68-6.175 5.178 8.6-2.122 1.275-3.47-5.767-5.927 6.447z" fill="#FFE669"/>
        <path d="M50.53 33.106c-5.432-3.6-3.712-11.013-3.601-11.328l1.8.445c0 .062-1.51 6.46 2.827 9.336l-1.026 1.547zM205.498 53.925l-1.602-.935c3.284-5.63 10.789-4.3 11.104-4.238l-.34 1.856c-.093-.043-6.539-1.2-9.162 3.317zM74.6 82.075l-1.744-.619a9.454 9.454 0 0 1 10.021-5.618l-.198 1.856c-6.118-.693-8.06 4.331-8.079 4.38z" fill="#FFAE1F"/>
        <path d="m160.17 94.387-1.719-.7c.779-1.936.853-3.613.21-4.986a5.945 5.945 0 0 0-3.229-2.827l.575-1.764a7.823 7.823 0 0 1 4.33 3.805c.873 1.862.817 4.04-.167 6.472zM95.788 14.335l-.89-1.627c1.818-1.002 2.938-2.252 3.315-3.712a6.033 6.033 0 0 0-.717-4.25l1.565-1.003a7.882 7.882 0 0 1 .953 5.692c-.514 1.986-1.918 3.638-4.226 4.9z" fill="#CC3232"/>
        <path d="M173.477 72.788c-7.912-1.497-9.805-8.742-9.898-9.051l1.807-.452a10.901 10.901 0 0 0 8.425 7.678l-.334 1.825z" fill="#EF4B4B"/>
        <path d="M161.099 25.187c-1.04.711 10.782-.91 15.985-14.948.433-1.157-4.949-4.95-6.254-3.409-1.306 1.54 2.468 10.097-9.731 18.357z" fill="#FFAE1F"/>
    </g>
    <g clip-path="url(#dei6pqinrb)">
        <path d="M126.777 96.062h-15.543l4.295-39.397h6.953l4.295 39.397z" fill="#FBC900"/>
        <path d="M121.688 56.665v-4.828c10.474 0 17.329-3.056 22.724-9.093 7.052-7.883 7.848-18.975 7.848-23.63h-18.529v-4.816h23.019l.207 2.16c.066.713 1.537 17.711-8.97 29.483-6.376 7.117-14.419 10.724-26.299 10.724z" fill="#FBC900"/>
        <g style="mix-blend-mode:multiply" fill="#FCCC00">
            <path d="M152.26 17.883h-18.529v1.232h18.529c.011-.443 0-.864 0-1.232z"/>
            <path d="m156.903 16.48-.207-2.16h-1.363l.087.94c.066.712 1.537 17.71-8.959 29.493-6.027 6.771-13.656 10.346-24.773 10.638v1.274c11.88 0 19.923-3.607 26.245-10.703 10.507-11.771 9.035-28.77 8.97-29.483z"/>
        </g>
        <path d="M116.325 56.665v-4.828c-10.475 0-17.33-3.056-22.725-9.093-7.052-7.883-7.848-18.975-7.848-23.63h18.529v-4.816H81.316l-.207 2.16c-.065.713-1.536 17.711 8.97 29.483 6.322 7.117 14.387 10.724 26.246 10.724z" fill="#FBC900"/>
        <g style="mix-blend-mode:multiply" fill="#FCCC00">
            <path d="M85.753 17.883h18.528v1.232H85.753c-.011-.443 0-.864 0-1.232z"/>
            <path d="m81.11 16.48.207-2.16h1.351l-.087.94c-.066.712-1.537 17.71 8.959 29.493 6.06 6.793 13.613 10.368 24.774 10.66v1.274c-11.88 0-19.924-3.607-26.245-10.703-10.496-11.793-9.025-28.792-8.96-29.505z"/>
        </g>
        <path d="M98.34 6.673v33.393a20.443 20.443 0 0 0 6.505 13.642 20.814 20.814 0 0 0 14.161 5.547 20.814 20.814 0 0 0 14.16-5.547 20.447 20.447 0 0 0 6.505-13.642V6.673h-41.33z" fill="#FBC900"/>
        <path d="M135.889 6.673c.452 2.131.678 4.303.675 6.48 0 17.064-13.896 41.633-30.91 42.55a20.805 20.805 0 0 0 10.588 4.621 20.88 20.88 0 0 0 11.436-1.728 20.652 20.652 0 0 0 8.716-7.537 20.384 20.384 0 0 0 3.277-10.993V6.673h-3.782z" fill="#FBDAA6" style="mix-blend-mode:multiply"/>
        <path d="M142.614 9.697c0 .892-.357 1.748-.992 2.38a3.418 3.418 0 0 1-2.398.99H98.778a3.416 3.416 0 0 1-2.398-.99 3.353 3.353 0 0 1-.992-2.38 3.33 3.33 0 0 1 .981-2.396 3.391 3.391 0 0 1 2.409-.995h40.457a3.42 3.42 0 0 1 2.402 1 3.343 3.343 0 0 1 .977 2.391z" fill="#F29F00"/>
        <path d="M139.671 8.725a1.44 1.44 0 0 1-.409 1.016 1.467 1.467 0 0 1-1.008.442H98.297a1.479 1.479 0 0 1-1.033-.43 1.451 1.451 0 0 1-.427-1.028c.003-.385.159-.755.434-1.027a1.49 1.49 0 0 1 1.037-.43h39.946c.39 0 .764.153 1.04.426.276.274.431.645.431 1.031h-.054z" fill="#fff" style="mix-blend-mode:soft-light"/>
        <path d="M136.499 93.794h-35.008v6.545h35.008v-6.545z" fill="#F19A00"/>
        <path d="M132.739 89.993h-27.477v3.812h27.477v-3.812z" fill="#F6B200"/>
        <path d="M122.613 57.875a22.021 22.021 0 0 1-15.47-6.365 21.617 21.617 0 0 1-6.415-15.332V21.231c.028-.302.17-.583.397-.788a1.236 1.236 0 0 1 2.055.788v14.947a19.203 19.203 0 0 0 5.697 13.614 19.559 19.559 0 0 0 13.736 5.653 1.244 1.244 0 0 1 .945.312 1.212 1.212 0 0 1 .297 1.396 1.213 1.213 0 0 1-.736.664 1.245 1.245 0 0 1-.506.058z" fill="#fff" style="mix-blend-mode:soft-light"/>
    </g>
    <defs>
        <clipPath id="9ily6dhuxa">
            <path fill="#fff" transform="translate(23)" d="M0 0h192v94.387H0z"/>
        </clipPath>
        <clipPath id="dei6pqinrb">
            <path fill="#fff" transform="translate(81 6.339)" d="M0 0h76v94H0z"/>
        </clipPath>
    </defs>
</svg>
