<svg width="80" height="78" viewBox="0 0 80 78" fill="none" xmlns="http://www.w3.org/2000/svg">
<path d="M60.1035 29.6861C50.925 20.6166 36.2555 20.8321 27.3383 30.1673C18.4212 39.5026 18.633 54.4226 27.8115 63.4921C36.99 72.5615 51.6595 72.3461 60.5766 63.0108C69.4938 53.6756 69.282 38.7556 60.1035 29.6861Z" stroke="#FF4D43" stroke-width="3" stroke-miterlimit="10" stroke-linecap="round" stroke-linejoin="round"/>
<path d="M60.103 29.6861C59.3627 28.9547 58.5761 28.2718 57.767 27.6611L49.5454 60.467L60.6457 62.938C69.5068 53.6129 69.2721 38.7464 60.103 29.6861Z" fill="#FF4D43"/>
<path d="M50.1047 55.1191C50.1047 55.1191 46.4341 55.2688 42.9442 58.1934C39.4543 61.1181 35.5618 63.8811 34.232 64.7387C32.9022 65.5963 31.2422 68.0631 30.626 69.437C30.0099 70.811 28.2937 75.9604 26.4277 75.5329C24.5618 75.1053 23.0896 72.5648 23.0712 71.2721C23.0528 69.9793 24.999 62.7911 26.6024 61.3069C28.2058 59.8227 30.4923 56.7002 28.6693 55.9846C26.8702 55.2927 22.542 53.8956 20.2039 53.3792C17.8658 52.8629 14.5589 52.0973 14.0664 48.9198C13.574 45.7423 15.3398 44.0881 15.3398 44.0881C15.3398 44.0881 16.7391 43.1577 16.7549 42.6067C16.7474 42.08 16.8813 38.2468 18.368 36.8362C19.8787 35.4491 20.3167 34.7961 20.0023 32.5499C19.7111 30.2794 23.9692 28.397 23.9692 28.397C23.9692 28.397 24.3528 23.9136 25.686 23.2954C27.0185 22.6293 29.2176 19.987 37.5151 24.0316C45.7894 28.1005 46.6197 28.5432 49.1406 30.326C51.6615 32.1088 55.5387 33.2492 55.5387 33.2492L50.1047 55.1191Z" fill="white"/>
<path d="M50.105 55.1193C50.105 55.1193 46.4344 55.269 42.9445 58.1937C39.4545 61.1183 35.5621 63.8813 34.2323 64.7389C32.9025 65.5966 31.2424 68.0633 30.6263 69.4373C30.0101 70.8112 28.294 75.9607 26.428 75.5331C24.562 75.1056 23.0898 72.5651 23.0715 71.2723C23.0531 69.9795 24.9993 62.7913 26.6027 61.3071C28.2061 59.8229 30.4925 56.7004 28.6695 55.9849C26.8704 55.2929 22.5422 53.8959 20.2041 53.3795C17.866 52.8631 14.5591 52.0975 14.0667 48.92C13.5743 45.7426 15.34 44.0883 15.34 44.0883C15.34 44.0883 16.7394 43.1579 16.7551 42.6069C16.7476 42.0802 16.8816 38.247 18.3683 36.8364C19.8789 35.4493 20.3169 34.7963 20.0025 32.5501C19.7113 30.2796 23.9694 28.3972 23.9694 28.3972C23.9694 28.3972 24.3531 23.9139 25.6863 23.2956C27.0188 22.6295 29.2178 19.9872 37.5154 24.0318C45.7897 28.1007 46.62 28.5434 49.1408 30.3262C51.6617 32.1091 55.539 33.2494 55.539 33.2494L50.105 55.1193Z" stroke="#FF4D43" stroke-width="3" stroke-miterlimit="10" stroke-linecap="round" stroke-linejoin="round"/>
<path d="M9.73682 18.7045C9.73682 18.7045 10.8354 18.1288 10.8354 16.876C10.8354 15.6232 11.5013 14.946 12.1671 16.0972C12.8329 17.2485 13.6652 17.9257 14.5308 17.8241C15.3964 17.7225 15.463 18.7045 14.5308 19.551C13.5986 20.4313 13.3989 21.5826 13.3989 22.1582C13.3989 22.7338 13.1991 25.0363 11.6011 22.937C10.0032 20.8377 9.4372 19.6526 8.97112 19.6526C8.50504 19.6526 8.17212 18.7045 9.73682 18.7045Z" fill="#F15B25"/>
<path d="M73.221 29.4303C73.221 29.4303 74.4528 29.498 75.052 28.4145C75.6845 27.331 76.5834 27.094 76.5834 28.4484C76.5834 29.7689 76.9829 30.7847 77.7486 31.1572C78.5143 31.4958 78.1481 32.3761 76.883 32.647C75.6512 32.9179 74.8855 33.7982 74.6192 34.3061C74.3196 34.814 73.0212 36.7102 72.6883 34.0353C72.3554 31.3942 72.4553 30.1075 72.0225 29.8705C71.6563 29.5996 71.8893 28.6515 73.221 29.4303Z" fill="#1A3761"/>
<path d="M74.7556 9.93218C74.7556 9.93218 75.9541 9.79675 76.4201 8.61165C76.8529 7.46041 77.7185 7.05408 77.9183 8.37463C78.118 9.69517 78.684 10.6432 79.5162 10.8464C80.3485 11.0496 80.0822 11.9976 78.917 12.4717C77.7185 12.9457 77.1526 13.9277 76.9528 14.4694C76.7531 15.0112 75.7543 17.0767 75.0219 14.5372C74.2562 11.9638 74.1563 10.6771 73.7235 10.5078C73.2242 10.3724 73.2907 9.39042 74.7556 9.93218Z" fill="#F15B25"/>
<path d="M36.0555 4.63874C36.9381 4.63874 37.6535 3.91108 37.6535 3.01346C37.6535 2.11584 36.9381 1.38818 36.0555 1.38818C35.173 1.38818 34.4575 2.11584 34.4575 3.01346C34.4575 3.91108 35.173 4.63874 36.0555 4.63874Z" stroke="#F15B25" stroke-width="2" stroke-miterlimit="10"/>
<path d="M61.8915 14.9132C62.774 14.9132 63.4894 14.1855 63.4894 13.2879C63.4894 12.3903 62.774 11.6626 61.8915 11.6626C61.0089 11.6626 60.2935 12.3903 60.2935 13.2879C60.2935 14.1855 61.0089 14.9132 61.8915 14.9132Z" stroke="#1A3761" stroke-width="2" stroke-miterlimit="10"/>
<path d="M12.7323 1.38825C12.7323 2.13318 12.1331 2.77651 11.3674 2.77651C10.6017 2.77651 10.0024 2.16704 10.0024 1.38825C10.0024 0.643333 10.6017 0 11.3674 0C12.1331 0 12.7323 0.643333 12.7323 1.38825Z" fill="#1A3761"/>
<path d="M63.8886 23.4721C63.8886 24.0477 63.4225 24.4879 62.8899 24.4879C62.3239 24.4879 61.8911 24.0139 61.8911 23.4721C61.8911 22.8965 62.3572 22.4563 62.8899 22.4563C63.4558 22.4224 63.8886 22.8965 63.8886 23.4721Z" fill="#1A3761"/>
<path d="M51.1859 11.6627C51.1859 12.3737 50.62 12.9493 49.9208 12.9493C49.2217 12.9493 48.6558 12.3737 48.6558 11.6627C48.6558 10.9516 49.2217 10.376 49.9208 10.376C50.62 10.376 51.1859 10.9177 51.1859 11.6627Z" fill="#3AB556"/>
<path d="M26.0867 10.4974C26.0867 10.4974 26.6527 10.5313 26.9523 10.0234C27.2519 9.5155 27.6514 9.41392 27.6514 10.0234C27.6514 10.6329 27.8511 11.1069 28.1841 11.2762C28.5503 11.4455 28.3505 11.8518 27.7846 11.9873C27.2186 12.1227 26.8524 12.5291 26.7192 12.7661C26.5861 13.0031 25.9868 13.8834 25.8204 12.6306C25.6539 11.3778 25.7205 10.8022 25.5207 10.6667C25.3543 10.5652 25.4875 10.125 26.0867 10.4974Z" fill="#971B4E"/>
</svg>
