<svg width="24" height="25" viewBox="0 0 24 25" fill="none" xmlns="http://www.w3.org/2000/svg">
    <g clip-path="url(#qvj6ox209a)">
        <path d="M12.717 4.875c-.794-.201-1.531.409-1.584 1.198-.06.887-.191 1.701-.356 2.186-.103.303-.397.854-.863 1.383-.463.525-1.065.994-1.77 1.19-.558.154-1.126.645-1.126 1.362v3.376c0 .713.566 1.235 1.202 1.303.888.097 1.299.35 1.717.61l.04.026c.226.139.48.293.805.408.33.115.715.183 1.218.183h2.906c.778 0 1.328-.402 1.606-.898.134-.233.207-.498.21-.769 0-.128-.018-.263-.063-.392.167-.221.315-.487.405-.76.091-.278.143-.643.003-.97.058-.109.1-.226.132-.34.064-.227.094-.479.094-.722s-.03-.494-.094-.723a1.823 1.823 0 0 0-.114-.305 1.618 1.618 0 0 0 .194-1.463c-.17-.5-.566-.928-.996-1.073-.704-.238-1.497-.233-2.09-.178a8.056 8.056 0 0 0-.367.042 8.026 8.026 0 0 0-.052-3.805c-.056-.2-.163-.38-.311-.523a1.14 1.14 0 0 0-.53-.29l-.216-.056zm2.189 12.382H12c-.424 0-.717-.058-.947-.138a3.185 3.185 0 0 1-.644-.332l-.034-.02c-.46-.286-.994-.617-2.067-.732-.277-.03-.46-.245-.46-.464v-3.377c0-.214.188-.458.515-.548.909-.254 1.641-.84 2.17-1.442.528-.599.884-1.244 1.028-1.668.202-.591.338-1.492.4-2.405.021-.306.3-.501.554-.437l.218.055c.133.034.214.121.24.216a7.145 7.145 0 0 1-.121 3.986.428.428 0 0 0 .088.42.413.413 0 0 0 .406.124l.002-.001.012-.003.048-.011a7.29 7.29 0 0 1 .86-.133c.55-.05 1.21-.045 1.752.138.146.05.374.254.474.549.088.26.072.565-.221.862l-.293.298.293.299a.633.633 0 0 1 .128.265c.04.141.062.313.062.49 0 .18-.023.35-.062.492a.642.642 0 0 1-.128.265l-.293.298.293.3c.039.039.09.148.004.41a1.88 1.88 0 0 1-.42.68l-.293.298.294.299c.005.004.034.042.034.143a.739.739 0 0 1-.1.351c-.138.243-.418.473-.886.473z" fill="#3DA23F"/>
    </g>
    <circle cx="12" cy="12.122" r="11.5" stroke="#3DA23F"/>
    <defs>
        <clipPath id="qvj6ox209a">
            <path fill="#fff" transform="translate(5.357 4.836)" d="M0 0h13.286v13.5H0z"/>
        </clipPath>
    </defs>
</svg>
