<svg width="81" height="77" viewBox="0 0 81 77" fill="none" xmlns="http://www.w3.org/2000/svg">
<path fill-rule="evenodd" clip-rule="evenodd" d="M39.6719 36.6815H22.5541V35.7334C22.5541 33.5243 20.7632 31.7334 18.5541 31.7334H11.4519C10.7174 31.7334 10.1221 32.3288 10.1221 33.0632C10.1221 33.7976 10.7174 34.393 11.4519 34.393H15.9563C18.1655 34.393 19.9563 36.1838 19.9563 38.393V64.8438C19.9563 67.0529 21.7472 68.8438 23.9563 68.8438H53.1083C53.8598 68.8438 54.469 68.2346 54.469 67.4831C54.469 66.7316 53.8598 66.1224 53.1083 66.1224H26.4506C24.2645 66.1224 22.4922 64.3501 22.4922 62.1639H52.2925C54.0314 62.1639 55.5712 61.0404 56.1017 59.3844L58.3693 52.3067C56.765 52.96 55.0099 53.32 53.1707 53.32C45.5532 53.32 39.378 47.1448 39.378 39.5273C39.378 38.5517 39.4793 37.5998 39.6719 36.6815Z" fill="#BEC1D1"/>
<path fill-rule="evenodd" clip-rule="evenodd" d="M53.1689 50.5996C59.2834 50.5996 64.2402 45.6428 64.2402 39.5283C64.2402 33.4138 59.2834 28.457 53.1689 28.457C47.0544 28.457 42.0977 33.4138 42.0977 39.5283C42.0977 45.6428 47.0544 50.5996 53.1689 50.5996ZM57.4813 36.711C57.9378 36.2544 57.9378 35.5141 57.4813 35.0575C57.0247 34.6009 56.2844 34.6009 55.8278 35.0575L53.1594 37.7259L50.3603 34.9267C49.8603 34.4267 49.0496 34.4267 48.5497 34.9267C48.0497 35.4267 48.0497 36.2373 48.5497 36.7373L51.3488 39.5365L48.6985 42.1868C48.2419 42.6434 48.2419 43.3837 48.6985 43.8403C49.1551 44.2969 49.8954 44.2969 50.352 43.8403L53.0023 41.1899L55.8195 44.0072C56.3195 44.5072 57.1302 44.5072 57.6301 44.0072C58.1301 43.5072 58.1301 42.6966 57.6301 42.1966L54.8129 39.3793L57.4813 36.711Z" fill="#BEC1D1"/>
<circle cx="30.7801" cy="72.062" r="4.3914" fill="#BEC1D1"/>
<circle cx="47.2327" cy="72.062" r="4.3914" fill="#BEC1D1"/>
<path d="M1.62017 21.4639C1.62017 21.4639 3.14533 20.6782 3.14533 18.9681C3.14533 17.2581 4.06966 16.3338 4.99399 17.9052C5.91832 19.4765 7.07374 20.4009 8.27538 20.2622C9.47701 20.1236 9.56944 21.4639 8.27538 22.6193C6.98131 23.8209 6.704 25.3923 6.704 26.178C6.704 26.9636 6.4267 30.1064 4.2083 27.2409C1.9899 24.3755 1.20422 22.7579 0.557192 22.7579C-0.136058 22.8041 -0.552013 21.4639 1.62017 21.4639Z" fill="#971B4E"/>
<path d="M34.2951 2.61339C34.2951 2.61339 36.0051 2.70582 36.837 1.22689C37.7151 -0.252043 38.963 -0.575543 38.963 1.27312C38.963 3.07557 39.5176 4.46207 40.5805 4.97045C41.6435 5.43262 41.1352 6.63424 39.3789 7.00397C37.6689 7.3737 36.6059 8.57535 36.2362 9.2686C35.8202 9.96185 34.0178 12.55 33.5556 8.89887C33.0935 5.29397 33.2321 3.53774 32.6313 3.21423C32.1229 2.84449 32.4464 1.50419 34.2951 2.61339Z" fill="#971B4E"/>
<path d="M73.7182 26.5515C73.7182 26.5515 75.382 26.3666 76.029 24.749C76.6298 23.1777 77.8314 22.6231 78.1087 24.4255C78.386 26.228 79.1717 27.522 80.3271 27.7993C81.4825 28.0766 81.1128 29.3707 79.4952 30.0177C77.8314 30.6648 77.0458 32.005 76.7685 32.7445C76.4912 33.484 75.1047 36.3032 74.0879 32.8369C73.0249 29.3245 72.8863 27.5682 72.2855 27.3372C71.5922 27.1523 71.7308 25.7658 73.7182 26.5515Z" fill="#F15B25"/>
<path d="M27.1749 21.5354C28.4001 21.5354 29.3933 20.5422 29.3933 19.317C29.3933 18.0918 28.4001 17.0986 27.1749 17.0986C25.9498 17.0986 24.9565 18.0918 24.9565 19.317C24.9565 20.5422 25.9498 21.5354 27.1749 21.5354Z" stroke="#F15B25" stroke-width="2" stroke-miterlimit="10"/>
<path d="M55.8297 21.5354C57.0549 21.5354 58.0481 20.5422 58.0481 19.3171C58.0481 18.0919 57.0549 17.0986 55.8297 17.0986C54.6046 17.0986 53.6113 18.0919 53.6113 19.3171C53.6113 20.5422 54.6046 21.5354 55.8297 21.5354Z" stroke="#1A3761" stroke-width="2" stroke-miterlimit="10"/>
<path d="M55.8333 4.18445C55.8333 5.155 55.0476 5.94068 54.077 5.94068C53.1065 5.94068 52.3208 5.155 52.3208 4.18445C52.3208 3.2139 53.1065 2.42822 54.077 2.42822C55.0014 2.42822 55.8333 3.2139 55.8333 4.18445Z" fill="#3AB556"/>
<path d="M11.9698 4.91644C11.9698 4.91644 12.7555 4.96265 13.1714 4.2694C13.5874 3.57615 14.142 3.4375 14.142 4.2694C14.142 5.1013 14.4193 5.74833 14.8814 5.97942C15.3898 6.2105 15.1125 6.76509 14.3269 6.94996C13.5412 7.13482 13.0328 7.68942 12.8479 8.01293C12.663 8.33645 11.8312 9.5381 11.6001 7.82808C11.369 6.11807 11.4614 5.33239 11.1841 5.14752C10.953 5.00887 11.1379 4.40806 11.9698 4.91644Z" fill="#971B4E"/>
</svg>
