<svg width="16" height="16" viewBox="0 0 16 16" fill="none" xmlns="http://www.w3.org/2000/svg">
<path d="M8.00036 8.19699L7.99987 8.19699L8.00036 8.19699ZM8.00036 8.19699L8.00067 8.19699L8.00036 8.19699ZM8.26459 2.38568L8.00003 2.2207L7.73546 2.38568L3.29781 5.15285C3.18772 5.2215 3.11177 5.31193 3.06638 5.41161C3.05692 5.41554 3.04756 5.41973 3.03829 5.42417C2.85174 5.51351 2.70741 5.70691 2.70741 5.94982V10.476C2.70741 11.2256 3.31494 11.8332 4.0646 11.8332H11.9355C12.5085 11.8332 12.9985 11.4782 13.1976 10.976H13.2931V10.476V5.94982C13.2931 5.7069 13.1488 5.51351 12.9622 5.42416C12.9528 5.41963 12.9432 5.41537 12.9336 5.41136C12.8882 5.31178 12.8122 5.22144 12.7022 5.15285L8.26459 2.38568ZM4.90156 6.26198H11.099L8.00815 8.18928C8.00572 8.19057 8.00308 8.19198 8.00027 8.19352C7.99749 8.19201 7.99488 8.19061 7.99247 8.18934L4.90156 6.26198ZM0.5 7.99992C0.5 3.85793 3.85786 0.5 7.99987 0.5C12.1419 0.5 15.5 3.85795 15.5 7.99992C15.5 12.1418 12.1419 15.5 7.99987 15.5C3.85788 15.5 0.5 12.1418 0.5 7.99992Z" stroke="#97144D"/>
</svg>
