<svg width="26" height="17" viewBox="0 0 26 17" fill="none" xmlns="http://www.w3.org/2000/svg">
<path d="M25.8348 7.88664C25.6025 7.56455 20.0682 0 12.9999 0C5.93157 0 0.397009 7.56455 0.164989 7.88634C-0.0549963 8.19191 -0.0549963 8.60635 0.164989 8.91192C0.397009 9.23401 5.93157 16.7986 12.9999 16.7986C20.0682 16.7986 25.6025 9.23396 25.8348 8.91218C26.0551 8.60666 26.0551 8.1919 25.8348 7.88664ZM12.9999 15.0608C7.79332 15.0608 3.28388 10.04 1.94899 8.39869C3.28215 6.75589 7.78215 1.73777 12.9999 1.73777C18.2062 1.73777 22.7153 6.75764 24.0508 8.39987C22.7176 10.0426 18.2176 15.0608 12.9999 15.0608Z" fill="#BEC1D1"/>
<path d="M12.9998 4.07568C10.4785 4.07568 8.42725 6.01525 8.42725 8.39919C8.42725 10.7831 10.4785 12.7227 12.9998 12.7227C15.521 12.7227 17.5723 10.7831 17.5723 8.39919C17.5723 6.01525 15.521 4.07568 12.9998 4.07568ZM12.9998 11.2815C11.3189 11.2815 9.95145 9.98853 9.95145 8.39919C9.95145 6.80986 11.3189 5.51688 12.9998 5.51688C14.6806 5.51688 16.0481 6.80986 16.0481 8.39919C16.0481 9.98853 14.6807 11.2815 12.9998 11.2815Z" fill="#BEC1D1"/>
</svg>
