<svg width="12" height="17" viewBox="0 0 12 17" fill="none" xmlns="http://www.w3.org/2000/svg">
<path d="M11.3092 15.5502H0V0H8.76472L11.3092 2.54462V15.5502Z" fill="#E3E4D8"/>
<path d="M8.76611 0V2.54462H11.3106L8.76611 0Z" fill="#D0CEBD"/>
<path d="M0 11.3096H11.3092V16.3988H0V11.3096Z" fill="#B53438"/>
<path d="M1.6973 15.5505C1.54129 15.5505 1.41455 15.4238 1.41455 15.2678V12.4405C1.41455 12.2843 1.54129 12.1577 1.6973 12.1577C1.85344 12.1577 1.98005 12.2843 1.98005 12.4405V15.2678C1.98005 15.4238 1.85344 15.5505 1.6973 15.5505Z" fill="white"/>
<path d="M9.61339 12.7222H7.91703C7.76101 12.7222 7.63428 12.5955 7.63428 12.4395C7.63428 12.2833 7.76101 12.1567 7.91703 12.1567H9.61339C9.76953 12.1567 9.89614 12.2833 9.89614 12.4395C9.89614 12.5955 9.76953 12.7222 9.61339 12.7222Z" fill="white"/>
<path d="M9.61339 14.1358H7.91703C7.76101 14.1358 7.63428 14.0092 7.63428 13.8531C7.63428 13.697 7.76101 13.5703 7.91703 13.5703H9.61339C9.76953 13.5703 9.89614 13.697 9.89614 13.8531C9.89614 14.0092 9.76953 14.1358 9.61339 14.1358Z" fill="white"/>
<path d="M7.91703 15.5495C7.76101 15.5495 7.63428 15.4229 7.63428 15.2669V12.4395C7.63428 12.2833 7.76101 12.1567 7.91703 12.1567C8.07316 12.1567 8.19978 12.2833 8.19978 12.4395V15.2669C8.19978 15.4229 8.07316 15.5495 7.91703 15.5495Z" fill="white"/>
<path d="M5.44992 3.04639C5.42227 3.0554 5.07534 3.53519 5.47706 3.94118C5.74455 3.35278 5.46218 3.04263 5.44992 3.04639ZM5.62107 5.40121C5.41939 6.08969 5.1534 6.83297 4.86753 7.50581C5.45617 7.28024 6.09661 7.08319 6.69764 6.94382C6.31743 6.50756 5.93735 5.9627 5.62107 5.40121ZM7.72567 7.23245C7.95525 7.40685 8.01117 7.49505 8.16168 7.49505C8.22749 7.49505 8.41553 7.4923 8.50235 7.37245C8.54452 7.31414 8.56091 7.27686 8.56704 7.25734C8.53263 7.23895 8.48646 7.20255 8.23599 7.20255C8.09349 7.20255 7.91484 7.20868 7.72567 7.23245ZM3.88366 8.46879C3.28138 8.8027 3.03604 9.07732 3.01853 9.23221C3.01565 9.25798 3.00802 9.32529 3.13976 9.42475C3.18192 9.41149 3.42701 9.30114 3.88366 8.46879ZM3.1335 9.89492C3.03542 9.89492 2.94133 9.86351 2.86101 9.80421C2.56775 9.58652 2.52822 9.34468 2.54686 9.17991C2.59803 8.72726 3.16515 8.25285 4.23309 7.76967C4.65684 6.85249 5.06007 5.72237 5.30041 4.77829C5.01941 4.17388 4.74592 3.38981 4.94497 2.92978C5.01478 2.76864 5.10223 2.64491 5.2645 2.59136C5.32893 2.57047 5.4912 2.54395 5.55088 2.54395C5.69876 2.54395 5.84076 2.72035 5.90907 2.83508C6.03631 3.04801 6.03693 3.29598 6.01679 3.53519C5.99727 3.76752 5.95774 3.9986 5.9122 4.22705C5.87892 4.39495 5.84126 4.5621 5.8011 4.72862C6.18081 5.50293 6.71853 6.29212 7.23424 6.83235C7.60381 6.76654 7.92159 6.73313 8.18057 6.73313C8.62133 6.73313 8.88907 6.8346 8.99791 7.04353C9.08849 7.21656 9.05109 7.41911 8.88794 7.64469C8.73106 7.8615 8.51511 7.97598 8.26264 7.97598C7.91959 7.97598 7.52099 7.76229 7.07597 7.34017C6.27664 7.50531 5.34332 7.79957 4.58878 8.12536C4.3532 8.61892 4.12763 9.01652 3.91732 9.30827C3.62919 9.70863 3.38009 9.89492 3.1335 9.89492Z" fill="#B53438"/>
<path d="M2.54555 14.4191H1.6973C1.54129 14.4191 1.41455 14.2925 1.41455 14.1363V12.44C1.41455 12.2838 1.54129 12.1572 1.6973 12.1572H2.54555C3.16922 12.1572 3.67642 12.6644 3.67642 13.2882C3.67642 13.9119 3.16922 14.4191 2.54555 14.4191ZM1.98005 13.8536H2.54555C2.85732 13.8536 3.11092 13.6 3.11092 13.2882C3.11092 12.9763 2.85732 12.7227 2.54555 12.7227H1.98005V13.8536Z" fill="white"/>
<path d="M5.08942 15.55H4.80667C4.65054 15.55 4.52393 15.4234 4.52393 15.2673V12.44C4.52393 12.2838 4.65054 12.1572 4.80667 12.1572H5.08942C6.02462 12.1572 6.78579 12.918 6.78579 13.8536C6.78579 14.7892 6.02462 15.55 5.08942 15.55ZM5.08942 14.9846H5.09218H5.08942ZM5.08942 12.7227V14.9846C5.7131 14.9846 6.22029 14.4773 6.22029 13.8536C6.22029 13.2299 5.7131 12.7227 5.08942 12.7227Z" fill="white"/>
</svg>
