<svg width="70" height="82" viewBox="0 0 70 82" fill="none" xmlns="http://www.w3.org/2000/svg">
<path d="M57.3125 52.1678C57.3125 67.5236 45.1896 80.0002 30.269 80.0002C15.3485 80.0002 3.22559 67.5236 3.22559 52.1678C3.22559 36.812 15.3485 24.3354 30.269 24.3354C45.2284 24.3354 57.3125 36.812 57.3125 52.1678Z" fill="white"/>
<path d="M30.3072 80.0002C45.2429 80.0002 57.3506 67.5392 57.3506 52.1678C57.3506 36.7964 45.2429 24.3354 30.3072 24.3354C15.3715 24.3354 3.26367 36.7964 3.26367 52.1678C3.26367 67.5392 15.3715 80.0002 30.3072 80.0002Z" stroke="#3AB556" stroke-width="3" stroke-miterlimit="10" stroke-linecap="round" stroke-linejoin="round"/>
<path d="M30.3072 79.9998C31.5117 79.9998 32.7162 79.9198 33.8818 79.7598L14.5318 45.0894L3.26367 52.2874C3.30253 67.6032 15.3866 79.9998 30.3072 79.9998Z" fill="#3AB556"/>
<path d="M18.3398 50.0882C18.3398 50.0882 21.2929 46.8891 21.8757 41.4906C22.4585 36.0921 23.5076 30.4936 23.935 28.6541C24.3625 26.8146 23.7796 23.3355 23.1968 21.656C22.614 19.9765 19.9329 14.178 21.8368 12.9784C23.7408 11.7787 27.0046 12.6985 28.0537 13.7782C29.1028 14.8579 33.2215 22.5757 33.0661 25.175C32.9107 27.7743 33.4935 32.3331 35.5917 31.4133C37.6511 30.4936 42.3914 28.0543 44.7616 26.5347C47.1318 25.0151 50.5122 22.8957 53.4653 25.175C56.4183 27.4544 56.2629 30.3336 56.2629 30.3336C56.2629 30.3336 55.8355 32.2931 56.2629 32.773C56.6903 33.2128 59.6433 36.5719 59.5267 39.0113C59.3713 41.4506 59.5267 42.3703 61.5861 44.0099C63.6454 45.6894 61.5861 50.848 61.5861 50.848C61.5861 50.848 64.8499 54.9669 64.2283 56.6064C63.6454 58.286 63.9174 62.3649 53.7373 65.8839C43.5571 69.3629 42.508 69.6829 38.9721 70.2827C35.4363 70.8825 31.2788 73.1619 31.2788 73.1619L18.3398 50.0882Z" fill="white"/>
<path d="M18.3398 50.0882C18.3398 50.0882 21.2929 46.8891 21.8757 41.4906C22.4585 36.0921 23.5076 30.4936 23.935 28.6541C24.3625 26.8146 23.7796 23.3355 23.1968 21.656C22.614 19.9765 19.9329 14.178 21.8368 12.9784C23.7408 11.7787 27.0046 12.6985 28.0537 13.7782C29.1028 14.8579 33.2215 22.5757 33.0661 25.175C32.9107 27.7743 33.4935 32.3331 35.5917 31.4133C37.6511 30.4936 42.3914 28.0543 44.7616 26.5347C47.1318 25.0151 50.5122 22.8957 53.4653 25.175C56.4183 27.4544 56.2629 30.3336 56.2629 30.3336C56.2629 30.3336 55.8355 32.2931 56.2629 32.773C56.6903 33.2128 59.6433 36.5719 59.5267 39.0113C59.3713 41.4506 59.5267 42.3703 61.5861 44.0099C63.6454 45.6894 61.5861 50.848 61.5861 50.848C61.5861 50.848 64.8499 54.9669 64.2283 56.6064C63.6454 58.286 63.9174 62.3649 53.7373 65.8839C43.5571 69.3629 42.508 69.6829 38.9721 70.2827C35.4363 70.8825 31.2788 73.1619 31.2788 73.1619L18.3398 50.0882Z" stroke="#3AB556" stroke-width="3" stroke-miterlimit="10" stroke-linecap="round" stroke-linejoin="round"/>
<path d="M3.26405 21.1364C3.26405 21.1364 4.54629 20.4566 4.54629 18.977C4.54629 17.4974 5.32341 16.6976 6.10052 18.0572C6.87763 19.4169 7.84902 20.2167 8.85926 20.0967C9.86951 19.9767 9.94722 21.1364 8.85926 22.1361C7.77131 23.1758 7.53817 24.5355 7.53817 25.2153C7.53817 25.8951 7.30503 28.6143 5.43997 26.135C3.5749 23.6557 2.91436 22.2561 2.37038 22.2561C1.8264 22.2561 1.43784 21.1364 3.26405 21.1364Z" fill="#971B4E"/>
<path d="M30.7349 2.26124C30.7349 2.26124 32.1726 2.34122 32.872 1.06157C33.6102 -0.218081 34.6593 -0.49799 34.6593 1.10157C34.6593 2.66114 35.1256 3.86082 36.0193 4.3007C36.9129 4.70059 36.4855 5.74029 35.009 6.0602C33.5714 6.38011 32.6777 7.41984 32.3668 8.01967C32.0171 8.61951 30.5018 10.8589 30.1132 7.69976C29.7247 4.58062 29.8412 3.06102 29.3361 2.78109C28.9087 2.46118 29.1807 1.34149 30.7349 2.26124Z" fill="#971B4E"/>
<path d="M63.8778 22.9755C63.8778 22.9755 65.2766 22.8156 65.8206 21.416C66.3257 20.0564 67.3359 19.5765 67.5691 21.1361C67.8022 22.6956 68.4627 23.8153 69.4341 24.0552C70.4055 24.2952 70.0947 25.4149 68.7347 25.9747C67.3359 26.5346 66.6754 27.6943 66.4423 28.3341C66.2091 28.9739 65.0435 31.4132 64.1886 28.4141C63.295 25.3749 63.1784 23.8553 62.6733 23.6554C62.0905 23.4954 62.1682 22.3357 63.8778 22.9755Z" fill="#F15B25"/>
<path d="M10.0252 12.3785C11.0553 12.3785 11.8903 11.5191 11.8903 10.459C11.8903 9.39892 11.0553 8.53955 10.0252 8.53955C8.99518 8.53955 8.16016 9.39892 8.16016 10.459C8.16016 11.5191 8.99518 12.3785 10.0252 12.3785Z" stroke="#F15B25" stroke-width="2" stroke-miterlimit="10"/>
<path d="M41.9647 14.8976C42.9947 14.8976 43.8298 14.0382 43.8298 12.9781C43.8298 11.918 42.9947 11.0586 41.9647 11.0586C40.9346 11.0586 40.0996 11.918 40.0996 12.9781C40.0996 14.0382 40.9346 14.8976 41.9647 14.8976Z" stroke="#1A3761" stroke-width="2" stroke-miterlimit="10"/>
<path d="M3.18616 11.3388C3.18616 12.2185 2.48676 12.9783 1.59308 12.9783C0.699402 12.9783 0 12.2585 0 11.3388C0 10.459 0.699402 9.69922 1.59308 9.69922C2.48676 9.69922 3.18616 10.459 3.18616 11.3388Z" fill="#1A3761"/>
<path d="M63.8011 17.377C63.8011 18.0568 63.2571 18.5767 62.6354 18.5767C61.9748 18.5767 61.4697 18.0168 61.4697 17.377C61.4697 16.6972 62.0137 16.1773 62.6354 16.1773C63.2959 16.1373 63.8011 16.6972 63.8011 17.377Z" fill="#1A3761"/>
<path d="M48.8026 3.66069C48.8026 4.50046 48.1421 5.18027 47.3261 5.18027C46.5101 5.18027 45.8496 4.50046 45.8496 3.66069C45.8496 2.82092 46.5101 2.14111 47.3261 2.14111C48.1421 2.14111 48.8026 2.78093 48.8026 3.66069Z" fill="#3AB556"/>
<path d="M4.89596 2.22127C4.89596 2.22127 5.5565 2.26125 5.9062 1.66141C6.2559 1.06157 6.72217 0.941607 6.72217 1.66141C6.72217 2.38121 6.9553 2.94106 7.34385 3.14101C7.77126 3.34095 7.53814 3.82081 6.87759 3.98077C6.21705 4.14073 5.78963 4.62061 5.63421 4.90054C5.47879 5.18046 4.77939 6.22017 4.58512 4.74057C4.39084 3.26098 4.46854 2.58117 4.23541 2.42121C4.04113 2.30124 4.19656 1.78139 4.89596 2.22127Z" fill="#971B4E"/>
</svg>
