<svg width="286" height="276" viewBox="0 0 286 276" fill="none" xmlns="http://www.w3.org/2000/svg">
<path d="M164.785 115.784H159.102V135.099H164.785V115.784Z" fill="url(#paint0_linear)"/>
<path d="M160.643 115.783H162.666L161.221 135.099H159.102L160.643 115.783Z" fill="white"/>
<path d="M155.344 210.675L156.741 275.414H169.072L160.064 210.675H155.344Z" fill="#384A5B"/>
<path d="M160.527 228.599L159.141 218.627L158.139 218.767L159.525 228.738L160.527 228.599Z" fill="#010101"/>
<path d="M153.712 228.665L153.436 216.047L152.424 216.069L152.701 228.687L153.712 228.665Z" fill="#010101"/>
<path d="M177.696 228.643H127.359V233.363H177.696V228.643Z" fill="white"/>
<path d="M177.694 230.087H127.357V233.363H177.694V230.087Z" fill="url(#paint1_linear)"/>
<path d="M174.95 228.161H129.672V229.172H174.95V228.161Z" fill="#010101"/>
<path d="M174.899 232.881H128.465V233.892H174.899V232.881Z" fill="#010101"/>
<path d="M167.143 275.944H153.752L152.934 239.721L153.945 239.673L154.764 274.932H165.987L161.074 239.769L162.086 239.625L167.143 275.944Z" fill="#010101"/>
<path d="M178.965 210.675H174.324L175.882 275.414H181.02L178.965 210.675Z" fill="url(#paint2_linear)"/>
<path d="M174.324 210.675H176.395L178.852 275.414H176.588L174.324 210.675Z" fill="white"/>
<path d="M181.546 275.944H176.055V275.462L173.791 210.193H179.282V210.675L181.546 275.944ZM177.066 274.932H180.535L178.319 211.205H174.851L177.066 274.932Z" fill="#010101"/>
<path d="M134.151 210.675H129.34L113.486 275.414H118.452L134.151 210.675Z" fill="url(#paint3_linear)"/>
<path d="M115.413 275.414L131.598 210.675H129.671L113.486 275.414H115.413Z" fill="white"/>
<path d="M181.739 207.93H124.756V210.675H181.739V207.93Z" fill="url(#paint4_linear)"/>
<path d="M178.898 207.93H127.357L134.101 135.099H184.823L178.898 207.93Z" fill="#EBF3FB"/>
<path d="M179.333 208.411H126.781L130.49 168.72L131.502 168.817L127.889 207.4H178.418L184.246 135.58H134.536L133.958 142.035L132.947 141.939L133.621 134.569H185.354L185.306 135.099L179.333 208.411Z" fill="#010101"/>
<path d="M182.27 211.205H124.227V207.448H182.27V211.205ZM125.238 210.194H181.21V208.46H125.238V210.194Z" fill="#010101"/>
<path d="M118.35 275.944H112.811L129.284 210.193H134.824L118.35 275.944ZM114.111 274.932H117.531L133.475 211.205H130.103L114.111 274.932Z" fill="#010101"/>
<path d="M159.584 134.762L158.572 134.665L160.162 115.253H165.316L163.967 134.762L162.956 134.714L164.256 116.265H161.077L159.584 134.762Z" fill="#010101"/>
<path d="M85.2607 119.251L87.8136 126.862L88.3435 135.05H89.2105L88.0063 142.228L73.7484 145.888L57.7082 165.686L57.082 167.372L57.6119 169.106L67.4865 176.572L65.6079 191.119H66.7158L65.7042 227.631L60.0685 267.129V269.345C60.0685 269.345 57.3229 275.462 57.4192 275.221C57.5637 274.932 75.7233 275.655 75.8196 275.221C75.8678 274.788 76.3495 272.235 76.3495 272.235C76.3495 272.235 67.4383 271.994 67.1011 271.994C66.7158 271.994 65.2707 269.393 65.1744 269.248C65.078 269.056 75.2416 233.314 75.2416 233.314L79.8658 217.66L84.6345 235.675V267.129L85.3089 268.767L82.5151 275.221C82.5151 275.221 100.916 275.269 100.964 274.932C101.012 274.643 101.445 272.235 101.445 272.235L91.8116 271.994L90.4629 269.634L92.8232 250.703L95.5206 230.569L92.9195 195.743L101.108 160.821L111.416 176.716L112.717 177.487L133.67 162.41L137.524 160.628L146.772 158.316L146.628 156.871C146.628 156.871 143.834 157.449 143.834 157.256C143.834 157.063 143.737 155.378 143.737 155.378L136.03 156.052L130.587 158.846L116.281 167.131H114.836L107.707 151.091L100.578 145.84L97.9291 141.12L100.964 141.939L102.89 125.031L104.239 124.935L106.792 116.12L85.2607 119.251Z" fill="white"/>
<path d="M92.9202 192.034L65.6085 191.167L67.4871 176.523L57.6125 169.154L57.1309 166.89L57.7089 165.685L73.749 145.888L84.6352 142.854L90.9453 154.944L100.434 145.888L107.515 150.898L114.163 166.456C114.5 167.227 115.463 167.564 116.186 167.131L132.322 157.786L133.575 162.41L112.091 177.92L101.205 160.869L92.9202 192.034Z" fill="#971C4E"/>
<path d="M80.683 151.476L79.4306 151.572C77.7447 151.668 76.1552 152.439 75.0473 153.74L64.7392 165.589C64.113 166.312 64.113 167.468 64.7392 168.19L71.9163 176.186C72.398 174.452 72.4943 174.452 73.4095 173.922L67.9183 167.516L68.4963 165.734L80.683 151.476Z" fill="white"/>
<path d="M112.283 172.574C112.668 173.297 113.631 173.537 114.306 173.104L133.236 160.821L133.525 162.459L112.042 177.969L100.963 160.387L102.36 154.655L112.283 172.574Z" fill="white"/>
<path d="M103.085 153.788L93.4028 192.034L88.7305 191.889L96.4375 164.144L103.085 153.788Z" fill="white"/>
<path d="M82.2242 208.796L89.2568 235.578L88.5343 266.599H84.6326V235.723L79.7676 217.37L82.2242 208.796Z" fill="#384A5B"/>
<path d="M76.7328 191.553L72.3012 226.812L64.1126 267.178H60.0664L65.8466 226.909L66.7618 191.167L76.7328 191.553Z" fill="#384A5B"/>
<path d="M100.914 275.27L101.203 273.728L86.8489 273.777L84.1514 271.898L82.5137 275.27H100.914Z" fill="#010101"/>
<path d="M75.8171 275.27L76.1061 273.728L61.7519 273.777L59.0544 271.898L57.4648 275.27H75.8171Z" fill="#010101"/>
<path d="M85.1637 266.599H84.1521V235.771L79.2871 217.515L80.2987 217.274L85.1637 235.675V266.599Z" fill="#010101"/>
<path d="M61.8001 267.707L61.752 266.695L65.3164 266.503L82.32 206.533L83.2833 206.822L66.0871 267.514L61.8001 267.707Z" fill="#010101"/>
<path d="M60.5955 266.696L59.584 266.551L65.3161 226.86L66.2313 190.637L80.73 191.167L80.6819 192.179L67.2428 191.697L66.3276 226.908V226.956L60.5955 266.696Z" fill="#010101"/>
<path d="M101.348 275.8H81.4062L84.8744 268.622L85.7896 269.056L83.044 274.788H100.481L100.818 272.813L91.4735 272.572L89.5468 269.056L90.4138 268.574L92.0997 271.561L102.022 271.802L101.348 275.8Z" fill="#010101"/>
<path d="M76.2524 275.8H56.3105L59.7787 268.622L60.6939 269.056L57.9483 274.788H75.4335L75.7707 272.813L66.3778 272.572L64.4511 269.056L65.3181 268.574L67.004 271.561L76.9267 271.802L76.2524 275.8Z" fill="#010101"/>
<path d="M91.0877 267.128H86.5117V266.117H90.1725L94.9412 231.098L92.1475 195.646L93.159 195.55L95.9528 231.098V231.195L91.0877 267.128Z" fill="#010101"/>
<path d="M103.134 153.925L102.15 153.69L95.5624 181.237L96.5462 181.472L103.134 153.925Z" fill="#010101"/>
<path d="M67.9838 176.669L66.9805 176.541L65.1266 191.066L66.13 191.194L67.9838 176.669Z" fill="#010101"/>
<path d="M71.6274 180.377L57.9475 170.214C57.225 169.684 56.7433 168.865 56.5988 167.95C56.5024 167.034 56.7433 166.119 57.3213 165.397L73.4578 145.455L84.4884 142.372L84.7774 143.335L74.0358 146.322L58.092 165.975C57.7067 166.456 57.514 167.131 57.5621 167.757C57.6585 168.383 57.9957 168.961 58.4773 169.347L72.1573 179.51L71.6274 180.377Z" fill="#010101"/>
<path d="M72.8786 174.26L67.8691 168.143C67.2911 167.42 67.2911 166.361 67.9173 165.638L80.7783 150.609L81.549 151.284L68.688 166.312C68.3989 166.65 68.3989 167.131 68.688 167.517L73.6975 173.634L72.8786 174.26Z" fill="#010101"/>
<path d="M133.234 161.302L138.291 159.135L146.624 157.497L146.576 156.919L143.879 157.208L143.686 155.426L135.979 156.1L132.318 157.834L133.234 161.302Z" fill="#F1D5AC"/>
<path d="M112.474 177.873C112.329 177.873 112.233 177.873 112.088 177.824C111.559 177.728 111.125 177.391 110.836 176.957L100.576 160.869L101.443 160.339L111.703 176.428C111.848 176.668 112.04 176.813 112.329 176.861C112.57 176.909 112.859 176.861 113.052 176.717L132.994 162.266L132.319 159.713L133.283 159.472L134.15 162.699L113.582 177.535C113.245 177.728 112.859 177.873 112.474 177.873Z" fill="#010101"/>
<path d="M115.51 167.902C115.318 167.902 115.077 167.854 114.884 167.805C114.354 167.613 113.921 167.227 113.728 166.746L107.129 151.284L100.53 146.563L90.848 155.763L85.4531 145.744L86.3683 145.263L91.137 154.077L100.434 145.214L107.948 150.561L114.643 166.264C114.74 166.505 114.932 166.698 115.221 166.794C115.51 166.89 115.751 166.842 115.992 166.698L132.129 157.353L132.658 158.22L116.522 167.565C116.185 167.805 115.848 167.902 115.51 167.902Z" fill="#010101"/>
<path d="M106.164 118.047C105.971 117.999 86.0293 121.034 86.0293 121.034L87.8115 126.862L88.3414 135.051H90.5571L90.9425 126.14L104.141 124.984L106.164 118.047Z" fill="#1A1A1A"/>
<path d="M130.537 148.924L136.077 154.656L139.063 157.979L142.194 157.546L131.789 147.768L130.537 148.924Z" fill="#384A5B"/>
<path d="M95.5201 125.995L95.1348 140.494L100.867 141.987L102.649 125.273L95.5201 125.995Z" fill="#F1D5AC"/>
<path d="M87.8594 135.58L87.8113 135.099C87.6186 132.016 87.3296 127.295 87.2814 126.814C87.0888 126.236 84.7767 119.492 84.7767 119.444L84.584 118.866L107.368 115.639L104.526 125.513L91.4239 126.669L90.9904 135.58H87.8594ZM85.9327 119.685C86.5107 121.419 88.1966 126.332 88.2448 126.525C88.293 126.621 88.3411 126.814 88.7747 134.569H90.027L90.4606 125.754L103.755 124.55L105.971 116.843L85.9327 119.685Z" fill="#010101"/>
<path d="M81.1173 177.295C115.028 178.981 98.2654 209.761 76.7822 188.278C70.1349 181.63 71.4836 175.368 73.7957 173.731C77.5047 171.081 81.1173 177.295 81.1173 177.295Z" fill="#EBF3FB"/>
<path d="M141.135 159.424L146.53 164.963L147.927 163.181L143.495 158.798L141.135 159.424Z" fill="#384A5B"/>
<path d="M101.3 142.662L92.3887 140.301V134.521H93.4002V139.531L100.433 141.361L102.263 125.08L103.275 125.176L101.3 142.662Z" fill="#010101"/>
<path d="M93.929 193.335C93.5918 194.25 92.0986 194.491 90.6054 193.913C89.1121 193.335 88.1969 192.13 88.5823 191.263C88.9195 190.348 90.4127 190.107 91.9059 190.685C93.3992 191.263 94.3144 192.467 93.929 193.335Z" fill="#ED594B"/>
<path d="M78.3228 179.8C78.1301 180.33 77.2631 180.474 76.3961 180.137C75.529 179.8 74.9992 179.077 75.1918 178.547C75.3845 178.018 76.2516 177.873 77.1186 178.21C77.9856 178.547 78.5155 179.27 78.3228 179.8Z" fill="#384A5B"/>
<path d="M85.5013 188.904C85.1641 189.819 83.6709 190.06 82.1776 189.482C80.6844 188.904 79.7692 187.699 80.1545 186.832C80.5399 185.965 81.985 185.676 83.4782 186.254C84.9233 186.832 85.8385 188.037 85.5013 188.904Z" fill="#384A5B"/>
<path d="M89.7147 135.142L88.7168 134.977L87.2975 143.53L88.2953 143.695L89.7147 135.142Z" fill="#010101"/>
<path d="M136.269 161.785L135.836 160.87L137.907 159.906L146.144 157.98L146.096 157.498L137.955 158.606L137.811 157.642L147.011 156.342L147.252 158.75L138.244 160.87L136.269 161.785Z" fill="#010101"/>
<path d="M91.9056 186.543C91.5684 187.458 90.0751 187.699 88.5819 187.121C87.0887 186.543 86.1735 185.338 86.5588 184.471C86.896 183.556 88.3893 183.315 89.8825 183.893C91.3275 184.471 92.2428 185.675 91.9056 186.543Z" fill="#FFE476"/>
<path d="M143.253 157.352L143.205 155.956L140.171 156.245L140.074 155.233L144.169 154.848L144.265 157.304L143.253 157.352Z" fill="#010101"/>
<path d="M134.389 157.401L133.955 156.486L135.834 155.57L136.942 155.474L136.99 156.486L136.123 156.582L134.389 157.401Z" fill="#010101"/>
<path d="M148.021 162.94L153.705 166.36L151.297 169.106L147.154 163.856L148.021 162.94Z" fill="white"/>
<path d="M147.205 163.759L152.6 167.516L150.48 169.925L146.338 164.674L147.205 163.759Z" fill="#ED594B"/>
<path d="M91.6184 196.37C87.4277 196.37 82.081 194.298 76.3971 188.614C71.6284 183.846 71.1949 179.655 71.3876 177.584C71.5321 175.705 72.3027 174.068 73.4588 173.297C74.4222 172.622 75.4337 172.43 76.4934 172.671C78.95 173.2 80.8768 175.994 81.4066 176.813C87.1387 177.102 91.8111 178.258 95.231 180.233C99.0364 182.401 100.337 185.002 100.77 186.832C101.541 190.108 99.9997 193.383 96.8688 195.117C95.4237 195.888 93.6415 196.37 91.6184 196.37ZM75.6746 173.586C75.0965 173.586 74.5667 173.779 74.0368 174.116C73.1698 174.742 72.5436 176.091 72.3991 177.68C72.2546 179.559 72.6399 183.412 77.1196 187.892C85.1638 195.936 92.3409 196.418 96.3389 194.202C99.0845 192.661 100.433 189.867 99.7589 187.025C99.2772 185.05 96.5798 178.547 81.0695 177.777H80.7804L80.6359 177.536C80.6359 177.488 78.6129 174.116 76.2526 173.634C76.0599 173.586 75.8672 173.586 75.6746 173.586Z" fill="#010101"/>
<path d="M92.1471 194.78C91.6172 194.78 91.0392 194.684 90.4612 194.443C88.6789 193.768 87.6674 192.323 88.1491 191.119C88.3899 190.493 88.9679 190.107 89.7386 189.963C90.4612 189.818 91.28 189.915 92.0989 190.252C93.8811 190.926 94.8927 192.371 94.411 193.576C94.122 194.346 93.2549 194.78 92.1471 194.78ZM90.3648 190.878C90.2203 190.878 90.0758 190.878 89.9313 190.926C89.4978 191.023 89.2088 191.215 89.0643 191.456C88.8716 191.986 89.4978 192.949 90.7983 193.479C92.0989 193.961 93.2068 193.72 93.4476 193.19C93.6403 192.66 93.0141 191.697 91.7135 191.167C91.28 190.975 90.7983 190.878 90.3648 190.878Z" fill="#010101"/>
<path d="M83.7154 190.3C83.1856 190.3 82.6075 190.204 82.0295 189.963C80.2473 189.289 79.2357 187.844 79.7174 186.64C79.9583 186.013 80.5363 185.628 81.307 185.483C82.0295 185.339 82.8484 185.435 83.6673 185.772C84.4861 186.061 85.1605 186.591 85.594 187.169C86.0757 187.796 86.2202 188.518 85.9793 189.096C85.6422 189.867 84.7751 190.3 83.7154 190.3ZM81.9332 186.447C81.7887 186.447 81.6442 186.447 81.4997 186.495C81.0661 186.591 80.7771 186.784 80.6326 187.025C80.4399 187.555 81.0661 188.518 82.3667 189.048C83.6672 189.53 84.7751 189.289 85.016 188.759C85.1123 188.518 85.016 188.133 84.7751 187.796C84.4379 187.362 83.9081 186.977 83.2819 186.736C82.8002 186.543 82.3667 186.447 81.9332 186.447Z" fill="#010101"/>
<path d="M90.1236 187.94C89.5938 187.94 88.9676 187.844 88.4377 187.603C86.6555 186.929 85.6439 185.484 86.1256 184.279C86.5591 183.123 88.3414 182.69 90.0754 183.412C91.8577 184.087 92.8692 185.532 92.3875 186.736C92.1467 187.362 91.5687 187.747 90.798 187.892C90.5571 187.94 90.3645 187.94 90.1236 187.94ZM88.3414 184.087C87.667 184.087 87.1853 184.328 87.0408 184.665C86.8481 185.195 87.4743 186.158 88.7749 186.688C89.4011 186.929 90.0273 187.025 90.5571 186.929C90.9906 186.832 91.2797 186.64 91.4242 186.399C91.6168 185.869 90.9907 184.906 89.6901 184.376C89.2084 184.183 88.7267 184.087 88.3414 184.087Z" fill="#010101"/>
<path d="M77.2644 180.859C76.9273 180.859 76.5419 180.763 76.2047 180.667C75.6749 180.474 75.2414 180.137 75.0005 179.799C74.6633 179.366 74.567 178.884 74.7115 178.451C75.0005 177.632 76.1566 177.343 77.3126 177.825C77.8425 178.017 78.276 178.354 78.5168 178.692C78.854 179.125 78.9504 179.607 78.8058 180.04C78.6613 180.474 78.2278 180.763 77.698 180.859C77.5535 180.811 77.409 180.859 77.2644 180.859ZM76.2047 178.547C75.8676 178.547 75.6749 178.643 75.6267 178.74C75.5785 178.836 75.6267 178.981 75.7712 179.125C75.9157 179.366 76.2047 179.559 76.5419 179.655C76.8791 179.799 77.2163 179.848 77.5053 179.799C77.698 179.751 77.7943 179.703 77.8425 179.607C77.8906 179.51 77.8425 179.366 77.698 179.221C77.5053 178.981 77.2645 178.788 76.9273 178.692C76.6383 178.595 76.3974 178.547 76.2047 178.547Z" fill="#010101"/>
<path d="M146.432 165.541L140.893 160.002L141.615 159.279L146.384 164.048L147.203 163.181L143.301 159.424L143.975 158.701L148.648 163.133L146.432 165.541Z" fill="#010101"/>
<path d="M138.679 158.316L129.816 148.923L131.791 147.045L142.244 157.064L141.57 157.787L131.791 148.442L131.261 148.972L139.402 157.594L138.679 158.316Z" fill="#010101"/>
<path d="M150.479 170.455C150.335 170.455 150.19 170.407 150.094 170.262L146.096 165.301L146.866 164.675L150.479 169.154L152.839 166.36L149.082 164.241L149.564 163.374L153.851 165.831C153.995 165.927 154.092 166.023 154.092 166.168C154.14 166.312 154.092 166.457 153.995 166.601L150.864 170.358C150.768 170.358 150.672 170.455 150.479 170.455Z" fill="#010101"/>
<path d="M215.941 89.0021C215.941 81.7287 210.064 75.8521 202.791 75.8521C195.517 75.8521 189.641 81.7287 189.641 89.0021C189.641 96.2756 195.517 102.152 202.791 102.152C210.064 102.152 215.941 96.2756 215.941 89.0021Z" fill="white"/>
<path d="M215.941 89.5315C215.941 82.7398 210.45 77.2485 203.658 77.2485C196.866 77.2485 191.375 82.7398 191.375 89.5315C191.375 96.3233 196.866 101.815 203.658 101.815C210.402 101.815 215.941 96.3233 215.941 89.5315Z" fill="#FEE370"/>
<path d="M202.789 102.585C195.323 102.585 189.205 96.5158 189.205 89.0015C189.205 81.5354 195.274 75.418 202.789 75.418C210.255 75.418 216.372 81.4872 216.372 89.0015C216.324 96.4677 210.255 102.585 202.789 102.585ZM202.789 76.285C195.756 76.285 190.072 82.0171 190.072 89.0015C190.072 96.0342 195.804 101.718 202.789 101.718C209.821 101.718 215.505 95.986 215.505 89.0015C215.505 81.9689 209.773 76.285 202.789 76.285Z" fill="#010101"/>
<path d="M203.174 96.082H202.307V98.1051H203.174V96.082Z" fill="#010101"/>
<path d="M203.174 80.2827H202.307V82.354H203.174V80.2827Z" fill="#010101"/>
<path d="M210.64 190.782C217.143 188.085 224.561 191.167 227.258 197.67C229.956 204.173 226.873 211.591 220.37 214.288C213.867 216.986 206.449 213.903 203.752 207.4C201.054 200.898 204.137 193.48 210.64 190.782Z" fill="white"/>
<path d="M223.888 199.066L218.156 198.344L214.881 193.575L212.424 198.826L206.885 200.415L211.124 204.365L210.931 210.145L215.989 207.351L221.384 209.326L220.324 203.642L223.888 199.066Z" fill="#FFE476"/>
<path d="M217.048 215.974C211.894 215.974 206.981 212.891 204.861 207.833L205.632 207.496C208.233 213.758 215.41 216.745 221.72 214.192C224.755 212.939 227.115 210.579 228.368 207.544C229.62 204.51 229.62 201.186 228.368 198.151C225.766 191.89 218.589 188.903 212.279 191.504C208.715 192.949 206.114 195.936 205.102 199.645L204.283 199.404C205.343 195.454 208.137 192.275 211.942 190.685C218.637 187.94 226.344 191.119 229.09 197.814C231.836 204.51 228.657 212.217 221.961 214.962C220.42 215.637 218.734 215.974 217.048 215.974Z" fill="#010101"/>
<path d="M212.522 210.82L212.137 210.098L217.387 207.207L222.3 208.99L221.289 203.836L224.516 199.741L221.53 199.356L221.626 198.537L226.106 199.067L222.204 204.077L223.408 210.29L217.435 208.123L212.522 210.82Z" fill="#010101"/>
<path d="M212.906 206.533L212.039 206.485L212.087 204.847L207.463 200.512L213.58 198.778L216.278 193.046L219.939 198.441L219.216 198.922L216.374 194.732L214.158 199.5L209.149 200.897L212.954 204.51L212.906 206.533Z" fill="#010101"/>
<path d="M266.517 93.5775C273.02 90.8801 280.438 93.9629 283.135 100.466C285.833 106.968 282.75 114.386 276.247 117.084C269.744 119.781 262.326 116.698 259.629 110.196C256.931 103.693 260.014 96.275 266.517 93.5775Z" fill="white"/>
<path d="M279.763 101.862L274.031 101.14L270.756 96.3711L268.299 101.621L262.76 103.211L266.999 107.161L266.806 112.941L271.864 110.147L277.259 112.122L276.199 106.438L279.763 101.862Z" fill="#EBF3FB"/>
<path d="M272.972 118.77C267.818 118.77 262.904 115.687 260.785 110.629L261.556 110.292C264.157 116.554 271.334 119.54 277.644 116.987C283.906 114.386 286.892 107.209 284.291 100.899C281.69 94.6371 274.513 91.6506 268.203 94.2517C264.639 95.6968 262.037 98.6833 261.026 102.392L260.207 102.151C261.267 98.2016 264.061 95.0224 267.866 93.4329C274.561 90.6872 282.268 93.8664 285.014 100.562C287.76 107.257 284.58 114.964 277.885 117.71C276.295 118.432 274.609 118.77 272.972 118.77Z" fill="#010101"/>
<path d="M268.445 113.616L268.012 112.893L273.262 110.003L278.175 111.785L277.164 106.631L280.391 102.537L277.405 102.151L277.501 101.333L281.981 101.862L278.079 106.872L279.283 113.086L273.31 110.918L268.445 113.616Z" fill="#010101"/>
<path d="M268.784 109.328L267.917 109.28L268.013 107.642L263.389 103.307L269.458 101.573L272.155 95.8408L275.816 101.236L275.094 101.717L272.3 97.5267L270.036 102.295L265.026 103.74L268.832 107.305L268.784 109.328Z" fill="#010101"/>
<path d="M151.923 69.0596C151.923 62.4605 146.576 57.1138 139.977 57.1138C133.378 57.1138 128.031 62.4605 128.031 69.0596C128.031 75.6587 133.378 81.0054 139.977 81.0054C146.576 81.0054 151.923 75.6587 151.923 69.0596Z" fill="white"/>
<path d="M137.715 73.5877H133.717L132.754 62.2681L147.156 63.9058V73.5877H144.555L144.17 76.815L141.28 73.4914L137.715 73.5877Z" fill="#EBF3FB"/>
<path d="M138.532 80.3793C131.692 80.3793 126.152 74.8399 126.152 68C126.152 61.16 131.692 55.6206 138.532 55.6206C145.372 55.6206 150.911 61.16 150.911 68C150.911 71.8535 149.129 75.4179 146.094 77.7782L145.564 77.1039C148.406 74.8881 150.044 71.5645 150.044 67.9518C150.044 61.5935 144.89 56.4395 138.532 56.4395C132.173 56.4395 127.019 61.5935 127.019 67.9518C127.019 74.3101 132.173 79.4641 138.532 79.4641V80.3793Z" fill="#010101"/>
<path d="M143.012 76.7184L139.495 72.7204L140.17 72.1424L142.434 74.7435L142.723 72.046H145.324V63.183L131.788 61.6416L132.655 72.046H136.268V72.9131H131.885L130.873 60.6782L146.143 62.4605V72.9131H143.493L143.012 76.7184Z" fill="#010101"/>
<path d="M192.722 8.89739C189.735 2.15378 181.836 -0.929025 175.092 2.05743C168.349 5.04389 165.266 12.9436 168.252 19.6872C171.239 26.4308 179.138 29.5136 185.882 26.5271C192.626 23.5407 195.66 15.641 192.722 8.89739Z" fill="white"/>
<path d="M185.114 20.891L184.295 23.0586L173.746 18.7716C171 17.5192 169.748 14.1474 171.289 11.5463C172.975 8.75254 177.214 8.5117 179.382 12.0762C179.43 12.1243 179.526 12.1243 179.478 12.028C178.322 8.03001 181.308 5.04355 184.536 5.71791C187.474 6.29593 189.112 9.52323 188.196 12.3652L187.185 15.1108L185.114 20.891Z" fill="#FFE476"/>
<path d="M182.609 23.107L171.626 18.6273C170.133 17.9047 168.977 16.6042 168.495 15.0146C168.062 13.5696 168.206 12.0763 168.977 10.7758C169.844 9.33073 171.385 8.4637 173.071 8.4637C174.516 8.4637 175.817 9.04172 176.877 10.1496C176.78 8.65637 177.214 7.25948 178.177 6.19977C179.333 4.94738 181.019 4.41753 182.657 4.75471C184.102 5.04372 185.306 5.91076 186.125 7.25948C186.992 8.70454 187.185 10.3904 186.655 11.98L185.643 14.7256L184.873 14.4366L185.884 11.691C186.318 10.3423 186.125 8.89721 185.402 7.64483C184.728 6.53695 183.717 5.81442 182.512 5.57358C181.115 5.28457 179.767 5.76625 178.803 6.7778C177.744 7.93384 177.406 9.61975 177.936 11.3538C177.984 11.5947 177.888 11.8355 177.647 11.9318C177.406 12.0282 177.166 11.9318 177.021 11.7392C176.058 10.1978 174.613 9.28256 173.023 9.28256C171.626 9.28256 170.374 10.0051 169.651 11.2093C169.025 12.269 168.881 13.5214 169.218 14.7256C169.651 16.0743 170.615 17.1822 171.867 17.8084L181.983 21.9509L182.609 20.2169L183.379 20.5059L182.609 23.107Z" fill="#010101"/>
<path d="M178.513 27.5863C176.827 27.5863 175.141 27.2973 173.504 26.623C170.084 25.2742 167.338 22.7213 165.893 19.3495C164.4 15.9777 164.303 12.2205 165.652 8.80055C167.001 5.38057 169.554 2.63496 172.926 1.1899C176.297 -0.303326 180.055 -0.399663 183.475 0.949059C186.895 2.29778 189.64 4.85072 191.085 8.22253C192.819 12.1724 192.627 16.6039 190.555 20.4092L189.833 20.0239C191.76 16.4594 191.952 12.3169 190.315 8.60787C188.918 5.42874 186.365 3.0203 183.137 1.76792C179.91 0.515532 176.394 0.61187 173.215 2.00876C170.036 3.40565 167.627 5.9586 166.375 9.18591C165.122 12.4132 165.219 15.9295 166.616 19.1086C168.012 22.2878 170.565 24.6962 173.793 25.9486C177.02 27.201 180.536 27.1046 183.715 25.7078L184.053 26.4785C182.319 27.201 180.392 27.5863 178.513 27.5863Z" fill="#010101"/>
<path d="M267.771 22.3842C264.784 15.6406 256.885 12.5578 250.141 15.5442C243.397 18.5307 240.315 26.4304 243.301 33.174C246.288 39.9176 254.187 43.0004 260.931 40.0139C267.674 37.0275 270.757 29.1278 267.771 22.3842Z" fill="white"/>
<path d="M260.206 34.3779L259.387 36.5454L248.839 32.2584C246.141 31.0061 244.841 27.6342 246.382 25.0331C248.068 22.2394 252.307 21.9985 254.474 25.563C254.522 25.6112 254.619 25.6112 254.571 25.5148C253.415 21.5168 256.401 18.5304 259.628 19.2047C262.567 19.7827 264.204 23.01 263.289 25.852L262.278 28.5976L260.206 34.3779Z" fill="#384A5B"/>
<path d="M257.702 36.5943L246.72 32.1146C245.227 31.3921 244.071 30.0915 243.589 28.5019C243.156 27.0569 243.3 25.5636 244.071 24.2631C244.938 22.818 246.479 21.951 248.165 21.951C249.61 21.951 250.911 22.529 251.97 23.6369C251.874 22.1437 252.308 20.7468 253.271 19.6871C254.427 18.4347 256.113 17.9048 257.751 18.242C259.196 18.531 260.4 19.3981 261.219 20.7468C262.086 22.1918 262.278 23.8777 261.749 25.4673L260.737 28.2129L259.966 27.9239L260.978 25.1783C261.411 23.8296 261.219 22.3845 260.496 21.1321C259.822 20.0243 258.81 19.3017 257.606 19.0609C256.209 18.7719 254.861 19.2536 253.897 20.2651C252.837 21.4211 252.5 23.1071 253.03 24.8411C253.078 25.082 252.982 25.3228 252.741 25.4191C252.5 25.5155 252.259 25.4191 252.115 25.2265C251.152 23.6851 249.706 22.7699 248.165 22.7699C246.768 22.7699 245.516 23.4924 244.793 24.6966C244.167 25.7563 244.023 27.0087 244.36 28.2129C244.793 29.5617 245.757 30.6695 247.009 31.2957L257.173 35.4382L257.799 33.7042L258.569 33.9932L257.702 36.5943Z" fill="#010101"/>
<path d="M253.609 41.0732C251.923 41.0732 250.237 40.7841 248.599 40.1098C245.179 38.7611 242.434 36.2081 240.989 32.8363C239.496 29.4645 239.399 25.7074 240.748 22.2874C242.097 18.8674 244.65 16.1218 248.021 14.6767C254.958 11.5939 263.146 14.7731 266.181 21.7094C267.915 25.6592 267.722 30.0907 265.651 33.896L264.929 33.5107C266.855 29.9462 267.048 25.8037 265.41 22.0947C264.013 18.9156 261.46 16.5071 258.233 15.2547C255.006 14.0024 251.49 14.0987 248.31 15.4956C245.131 16.8925 242.723 19.4454 241.47 22.6727C240.218 25.9 240.314 29.4163 241.711 32.5955C243.108 35.7746 245.661 38.183 248.888 39.4354C252.116 40.6878 255.632 40.5915 258.811 39.1946L259.148 39.9653C257.366 40.6878 255.488 41.0732 253.609 41.0732Z" fill="#010101"/>
<path d="M85.403 95.119C85.403 87.99 79.6228 82.1616 72.4457 82.1616C65.2685 82.1616 59.4883 87.9418 59.4883 95.119C59.4883 102.296 65.2685 108.076 72.4457 108.076C79.6228 108.076 85.403 102.296 85.403 95.119Z" fill="white"/>
<path d="M69.1699 101.525H77.5994C78.1775 101.525 78.7073 101.14 78.8037 100.562L80.2005 94.3483C80.4414 93.2886 79.6225 92.2289 78.5146 92.2289H74.0831L74.9983 89.965C75.2392 89.3869 75.2392 88.7126 75.0465 88.0864L74.7093 87.1712C74.4685 86.4486 73.7941 86.0151 73.0234 86.0151H72.3009V89.5314L69.1699 93.2404V100.129V101.525Z" fill="#ED594B"/>
<path d="M67.868 94.829V93.1431H64.9297V101.524H67.868V94.829Z" fill="#ED594B"/>
<path d="M76.0564 100.754H67.5787V99.8874H76.0564C76.4417 99.8874 76.7789 99.5984 76.8753 99.213L78.2722 92.9993C78.3685 92.614 78.2722 92.2286 78.0313 91.8914C77.7905 91.6024 77.4051 91.4097 77.0198 91.4097H71.9621L73.1181 88.5678C73.3108 88.0861 73.3589 87.5081 73.1663 86.9782L72.8291 86.063C72.6364 85.5332 72.1066 85.1478 71.5285 85.1478H71.2395L71.1914 88.4714L68.0604 92.1804V98.924H67.1934V91.8432L70.3243 88.1343L70.3725 84.2808H71.5285C72.4437 84.2808 73.3108 84.8588 73.5998 85.7258L73.937 86.641C74.1778 87.3636 74.1778 88.1343 73.8888 88.8086L73.2144 90.4945H77.0198C77.6941 90.4945 78.2722 90.7835 78.7057 91.3134C79.1392 91.8433 79.2837 92.4694 79.1392 93.1438L77.7423 99.3576C77.5496 100.225 76.8753 100.754 76.0564 100.754Z" fill="#010101"/>
<path d="M66.668 100.754H62.959V91.5542H66.7643V93.6254H65.8973V92.3731H63.7778V99.9355H66.668V100.754Z" fill="#010101"/>
<path d="M70.9046 107.305C63.5348 107.305 57.5137 101.284 57.5137 93.9143C57.5137 86.5445 63.5348 80.5234 70.9046 80.5234C78.2744 80.5234 84.2955 86.5445 84.2955 93.9143C84.2955 98.105 82.4169 101.958 79.0932 104.511L78.5634 103.837C81.6462 101.429 83.4284 97.816 83.4284 93.9143C83.4284 87.0262 77.7927 81.3905 70.9046 81.3905C64.0165 81.3905 58.3807 87.0262 58.3807 93.9143C58.3807 100.802 64.0165 106.438 70.9046 106.438V107.305Z" fill="#010101"/>
<path d="M252.258 154.559C252.258 147.671 246.67 142.083 239.782 142.083C232.894 142.083 227.307 147.671 227.307 154.559C227.307 161.447 232.894 167.034 239.782 167.034C246.67 167.034 252.258 161.447 252.258 154.559Z" fill="white"/>
<path d="M238.967 166.119C231.886 166.119 226.105 160.339 226.105 153.258C226.105 146.177 231.886 140.397 238.967 140.397C246.047 140.397 251.828 146.177 251.828 153.258C251.828 157.304 249.997 161.013 246.818 163.47L246.288 162.795C249.275 160.483 250.961 157.015 250.961 153.258C250.961 146.611 245.566 141.216 238.918 141.216C232.271 141.216 226.876 146.611 226.876 153.258C226.876 159.905 232.271 165.3 238.918 165.3V166.119H238.967Z" fill="#010101"/>
<path d="M236.652 147.093V161.014L247.249 154.03L236.652 147.093Z" fill="#EBF3FB"/>
<path d="M234.773 160.773V156.293H235.64V159.184L244.985 153.018L235.64 146.852V151.862H234.773V145.311L246.527 153.018L234.773 160.773Z" fill="#010101"/>
<path d="M33.3811 136.448C33.3811 129.56 27.7935 123.972 20.9054 123.972C14.0173 123.972 8.42969 129.56 8.42969 136.448C8.42969 143.336 14.0173 148.924 20.9054 148.924C27.7935 148.924 33.3811 143.336 33.3811 136.448Z" fill="white"/>
<path d="M20.0857 148.008C13.0049 148.008 7.22461 142.227 7.22461 135.147C7.22461 128.066 13.0049 122.286 20.0857 122.286C27.1664 122.286 32.9467 128.066 32.9467 135.147C32.9467 139.193 31.1163 142.902 27.9371 145.358L27.4073 144.684C30.3937 142.372 32.0796 138.904 32.0796 135.147C32.0796 128.499 26.6848 123.105 20.0375 123.105C13.3902 123.105 7.99531 128.499 7.99531 135.147C7.99531 141.794 13.3902 147.189 20.0375 147.189V148.008H20.0857Z" fill="#010101"/>
<path d="M54.4304 44.6864C54.4304 37.5093 48.6501 31.729 41.473 31.729C34.2959 31.729 28.5156 37.5093 28.5156 44.6864C28.5156 51.8635 34.2959 57.6437 41.473 57.6437C48.6501 57.6437 54.4304 51.8635 54.4304 44.6864Z" fill="white"/>
<path d="M40.6546 56.6802C33.2847 56.6802 27.2637 50.6591 27.2637 43.2893C27.2637 35.9195 33.2847 29.8984 40.6546 29.8984C48.0244 29.8984 54.0455 35.9195 54.0455 43.2893C54.0455 47.48 52.1669 51.3335 48.8432 53.8864L48.3134 53.2121C51.3962 50.8036 53.1784 47.191 53.1784 43.2893C53.1784 36.353 47.5427 30.7655 40.6546 30.7655C33.7183 30.7655 28.1307 36.4012 28.1307 43.2893C28.1307 50.2256 33.7664 55.8132 40.6546 55.8132V56.6802Z" fill="#010101"/>
<path d="M48.2171 44.2526C48.2171 40.5436 45.2306 37.5571 41.5216 37.5571C37.8126 37.5571 34.8262 40.5436 34.8262 44.2526C34.8262 47.9616 37.8126 50.948 41.5216 50.948C45.1824 50.948 48.2171 47.9134 48.2171 44.2526Z" fill="#ED594B"/>
<path d="M40.6543 50.4664C36.7045 50.4664 33.5254 47.2873 33.5254 43.3375C33.5254 39.3876 36.7045 36.2085 40.6543 36.2085C44.6042 36.2085 47.7833 39.3876 47.7833 43.3375C47.7833 47.2391 44.556 50.4664 40.6543 50.4664ZM40.6543 37.0274C37.1862 37.0274 34.3924 39.8693 34.3924 43.2893C34.3924 46.7574 37.2344 49.5512 40.6543 49.5512C44.1225 49.5512 46.9163 46.7093 46.9163 43.2893C46.9163 39.8693 44.0743 37.0274 40.6543 37.0274Z" fill="#010101"/>
<path d="M27.6497 219.395C27.6497 212.121 21.7731 206.245 14.4997 206.245C7.22619 206.245 1.34961 212.121 1.34961 219.395C1.34961 226.668 7.22619 232.545 14.4997 232.545C21.725 232.593 27.6497 226.668 27.6497 219.395Z" fill="white"/>
<path d="M13.5836 231.629C6.06926 231.629 0 225.511 0 218.045C0 210.531 6.11743 204.461 13.5836 204.461C21.0979 204.461 27.1671 210.579 27.1671 218.045C27.1671 222.284 25.2404 226.234 21.8686 228.835L21.3387 228.16C24.5179 225.704 26.3001 222.043 26.3001 218.045C26.3001 211.012 20.568 205.28 13.5354 205.28C6.50277 205.28 0.770702 211.012 0.770702 218.045C0.770702 225.078 6.50277 230.81 13.5354 230.81V231.629H13.5836Z" fill="#010101"/>
<path d="M13.5365 211.109H10.2129V226.764H13.5365V211.109Z" fill="#EBF3FB"/>
<path d="M18.6889 211.109H15.3652V226.764H18.6889V211.109Z" fill="#EBF3FB"/>
<path d="M13.052 225.849H12.2331V210.628H9.72837V225.849H8.86133V209.761H13.052V225.849Z" fill="#010101"/>
<path d="M18.2063 225.849H17.3874V210.628H14.8827V225.849H14.0156V209.761H18.2063V225.849Z" fill="#010101"/>
<path d="M206.547 85.2919H204.235C204.669 85.629 204.958 86.0626 205.006 86.7369H206.547V87.4595H205.006C204.861 88.9045 203.705 89.8197 201.923 89.8679C203.031 91.0239 204.235 92.469 205.391 93.914H204.042C202.934 92.5653 201.923 91.3611 200.574 89.9642V89.049H201.345C202.886 89.049 203.705 88.4228 203.802 87.4595H200.574V86.7369H203.753C203.561 85.9181 202.79 85.4845 201.586 85.4845H200.574V84.5693H206.499V85.2919H206.547Z" fill="#010101"/>
<path d="M20.4699 129.608H19.6992V139.338H20.4699V129.608Z" fill="#010101"/>
<path d="M24.9527 134.087H15.2227V134.858H24.9527V134.087Z" fill="#010101"/>
<defs>
<linearGradient id="paint0_linear" x1="159.093" y1="125.4" x2="164.778" y2="125.4" gradientUnits="userSpaceOnUse">
<stop stop-color="#BDD2E3"/>
<stop offset="0.0049505" stop-color="#BDD2E3"/>
<stop offset="1" stop-color="#759EBA"/>
</linearGradient>
<linearGradient id="paint1_linear" x1="127.351" y1="231.717" x2="177.686" y2="231.717" gradientUnits="userSpaceOnUse">
<stop stop-color="#BDD2E3"/>
<stop offset="0.0049505" stop-color="#BDD2E3"/>
<stop offset="1" stop-color="#759EBA"/>
</linearGradient>
<linearGradient id="paint2_linear" x1="181.044" y1="243.066" x2="174.333" y2="243.066" gradientUnits="userSpaceOnUse">
<stop stop-color="#BDD2E3"/>
<stop offset="0.0049505" stop-color="#BDD2E3"/>
<stop offset="1" stop-color="#759EBA"/>
</linearGradient>
<linearGradient id="paint3_linear" x1="113.482" y1="243.083" x2="134.163" y2="243.083" gradientUnits="userSpaceOnUse">
<stop stop-color="#BDD2E3"/>
<stop offset="0.0049505" stop-color="#BDD2E3"/>
<stop offset="1" stop-color="#759EBA"/>
</linearGradient>
<linearGradient id="paint4_linear" x1="124.744" y1="209.331" x2="181.752" y2="209.331" gradientUnits="userSpaceOnUse">
<stop stop-color="#BDD2E3"/>
<stop offset="0.0049505" stop-color="#BDD2E3"/>
<stop offset="1" stop-color="#759EBA"/>
</linearGradient>
</defs>
</svg>
