<svg width="16" height="16" viewBox="0 0 16 16" fill="none" xmlns="http://www.w3.org/2000/svg">
<path d="M5.10588 7.30535V7.87044L11.0088 10.9403V9.9628C11.0088 9.88135 10.9884 9.80753 10.9477 9.74135C10.907 9.67516 10.8357 9.61662 10.7339 9.56571L7.30515 7.83226C7.20333 7.77626 7.09643 7.73044 6.98443 7.6948C6.86733 7.65407 6.74515 7.61844 6.61788 7.58789C6.87752 7.53189 7.10661 7.45298 7.30515 7.35116L10.7339 5.61007C10.8357 5.55916 10.907 5.50316 10.9477 5.44207C10.9884 5.37589 11.0088 5.29953 11.0088 5.21298V4.24316L5.10588 7.30535Z" fill="#97144D"/>
<rect x="-0.75" y="0.75" width="14.5" height="14.5" rx="3.25" transform="matrix(-1 0 0 1 14.5 0)" stroke="#97144D" stroke-width="1.5"/>
</svg>