<svg width="80" height="82" viewBox="0 0 80 82" fill="none" xmlns="http://www.w3.org/2000/svg">
<path d="M23.8825 82.0001H56.5647C59.5666 82.0001 62.0117 79.5753 62.0117 76.5924V51.3564C62.0117 48.3736 59.5666 45.9487 56.5647 45.9487H23.8825C20.8806 45.9487 18.4355 48.3736 18.4355 51.3564V76.5924C18.4355 79.5753 20.8806 82.0001 23.8825 82.0001ZM56.5647 49.5539C57.5647 49.5539 58.3804 50.3614 58.3804 51.3564V76.5924C58.3804 77.5875 57.5647 78.395 56.5647 78.395H23.8825C22.8825 78.395 22.0669 77.5875 22.0669 76.5924V51.3564C22.0669 50.3614 22.8825 49.5539 23.8825 49.5539H56.5647Z" fill="#B6BDC7"/>
<path d="M52.9338 49.5539C53.9361 49.5539 54.7495 48.7463 54.7495 47.7513V38.7384C54.7495 30.7853 48.2351 24.3179 40.2241 24.3179C32.2132 24.3179 25.6987 30.7853 25.6987 38.7384C25.6987 39.7335 26.5121 40.541 27.5144 40.541C28.5166 40.541 29.3301 39.7335 29.3301 38.7384C29.3301 32.7753 34.2177 27.923 40.2241 27.923C46.2306 27.923 51.1182 32.7753 51.1182 38.7384V47.7513C51.1182 48.7463 51.9316 49.5539 52.9338 49.5539Z" fill="#B6BDC7"/>
<path d="M43.8513 63.9743C43.8513 65.9526 42.2339 67.5686 40.2235 67.5686C38.2131 67.5686 36.5957 65.9526 36.5957 63.9743C36.5957 61.996 38.2131 60.3799 40.2235 60.3799C42.2339 60.3799 43.8513 61.996 43.8513 63.9743Z" stroke="#B6BDC7" stroke-width="2"/>
<path d="M1.60017 23.9067C1.60017 23.9067 3.1065 23.1363 3.1065 21.4596C3.1065 19.7829 4.01942 18.8765 4.93235 20.4173C5.84527 21.9581 6.98643 22.8644 8.17323 22.7284C9.36003 22.5925 9.45132 23.9067 8.17323 25.0396C6.89514 26.2178 6.62125 27.7586 6.62125 28.529C6.62125 29.2994 6.34737 32.3809 4.15636 29.5713C1.96534 26.7616 1.18936 25.1756 0.550314 25.1756C-0.134378 25.2209 -0.545199 23.9067 1.60017 23.9067Z" fill="#971B4E"/>
<path d="M33.8725 2.5625C33.8725 2.5625 35.5614 2.65313 36.383 1.203C37.2503 -0.247136 38.4827 -0.564336 38.4827 1.24833C38.4827 3.01569 39.0305 4.37519 40.0803 4.87367C41.1302 5.32684 40.6281 6.50506 38.8935 6.86759C37.2046 7.23012 36.1548 8.40837 35.7896 9.08812C35.3788 9.76787 33.5986 12.3056 33.1421 8.72559C32.6857 5.19089 32.8226 3.46886 32.2292 3.15164C31.7271 2.78911 32.0466 1.4749 33.8725 2.5625Z" fill="#971B4E"/>
<path d="M72.8086 26.0363C72.8086 26.0363 74.4519 25.855 75.0909 24.2689C75.6843 22.7282 76.8711 22.1844 77.145 23.9517C77.4189 25.7191 78.1948 26.9879 79.336 27.2598C80.4771 27.5317 80.112 28.8006 78.5144 29.4351C76.8711 30.0695 76.0951 31.3837 75.8213 32.1087C75.5474 32.8338 74.178 35.5981 73.1738 32.1994C72.1239 28.7553 71.987 27.0332 71.3936 26.8067C70.7089 26.6254 70.8458 25.2659 72.8086 26.0363Z" fill="#F15B25"/>
<path d="M9.54356 14.0277C10.7536 14.0277 11.7346 13.0538 11.7346 11.8524C11.7346 10.6511 10.7536 9.67725 9.54356 9.67725C8.3335 9.67725 7.35254 10.6511 7.35254 11.8524C7.35254 13.0538 8.3335 14.0277 9.54356 14.0277Z" stroke="#F15B25" stroke-width="2" stroke-miterlimit="10"/>
<path d="M47.0641 16.8826C48.2741 16.8826 49.2551 15.9088 49.2551 14.7075C49.2551 13.5061 48.2741 12.5322 47.0641 12.5322C45.854 12.5322 44.873 13.5061 44.873 14.7075C44.873 15.9088 45.854 16.8826 47.0641 16.8826Z" stroke="#1A3761" stroke-width="2" stroke-miterlimit="10"/>
<path d="M55.1429 4.10338C55.1429 5.05503 54.3669 5.82541 53.4084 5.82541C52.4498 5.82541 51.6738 5.05503 51.6738 4.10338C51.6738 3.15173 52.4498 2.38135 53.4084 2.38135C54.3213 2.38135 55.1429 3.15173 55.1429 4.10338Z" fill="#3AB556"/>
<path d="M3.51708 2.47178C3.51708 2.47178 4.29306 2.51709 4.70388 1.83734C5.11469 1.15759 5.66245 1.02164 5.66245 1.83734C5.66245 2.65304 5.93632 3.28748 6.39278 3.51406C6.89489 3.74065 6.62102 4.28444 5.84503 4.4657C5.06905 4.64697 4.56694 5.19077 4.38435 5.50798C4.20177 5.8252 3.38014 7.00345 3.15191 5.32673C2.92368 3.65001 3.01496 2.87963 2.74109 2.69837C2.51286 2.56242 2.69545 1.9733 3.51708 2.47178Z" fill="#971B4E"/>
</svg>
