<svg width="26" height="26" viewBox="0 0 26 26" fill="none" xmlns="http://www.w3.org/2000/svg">
<path d="M26 13C26 20.1797 20.1797 26 13 26C5.8203 26 0 20.1797 0 13C0 5.8203 5.8203 0 13 0C20.1797 0 26 5.8203 26 13Z" fill="#F58220" fill-opacity="0.1"/>
<path d="M5.10685 4V22.1815M4 20.9113H22" stroke="#F58220" stroke-width="1.2" stroke-linecap="round"/>
<path d="M7.03027 13.9267L10.6875 12.6205L15.2537 10.792L21.3467 8.4094M21.3467 8.4094L19.5692 7.13477M21.3467 8.4094L21.0201 10.4961" stroke="#F58220" stroke-width="1.2" stroke-linecap="round"/>
<line x1="6.95225" y1="19.0758" x2="6.95225" y2="17.141" stroke="#F58220" stroke-width="1.2" stroke-linecap="round"/>
<line x1="9.56504" y1="19.0758" x2="9.56504" y2="15.5737" stroke="#F58220" stroke-width="1.2" stroke-linecap="round"/>
<line x1="12.6358" y1="18.9332" x2="12.6358" y2="14.5808" stroke="#F58220" stroke-width="1.2" stroke-linecap="round"/>
<line x1="15.3116" y1="19.0758" x2="15.3116" y2="12.9614" stroke="#F58220" stroke-width="1.2" stroke-linecap="round"/>
<line x1="18.4469" y1="19.0758" x2="18.4469" y2="11.9165" stroke="#F58220" stroke-width="1.2" stroke-linecap="round"/>
</svg>
