<svg width="21" height="22" viewBox="0 0 21 22" fill="none" xmlns="http://www.w3.org/2000/svg">
<path d="M0.689453 16.7045C3.2027 15.9412 5.71594 15.2013 8.20569 14.4027C8.72243 14.2383 8.99255 14.297 9.23917 14.7902C9.53278 15.3892 9.8851 15.9646 10.2257 16.5519C10.3549 16.7632 10.3666 16.9277 10.1552 17.0686C9.8851 17.2565 9.80289 17.0099 9.69719 16.8455C9.65022 16.775 9.61498 16.6928 9.56801 16.6223C8.5815 14.9429 8.5815 14.9429 6.67896 15.5301C4.97606 16.0586 3.2849 16.5753 1.582 17.1038C1.27666 17.1978 0.971312 17.327 0.689453 17.0569C0.689453 16.9394 0.689453 16.822 0.689453 16.7045Z" fill="#65B28C"/>
<path d="M13.6786 6.6375C13.6786 6.69622 13.6786 6.71971 13.6786 6.75494C13.5376 8.56354 13.5376 8.5518 15.2288 9.15075C16.9904 9.76144 18.7403 10.3839 20.4902 11.0063C20.7016 11.0885 21.1126 11.0533 20.9717 11.4526C20.8542 11.8284 20.5254 11.6405 20.3023 11.57C17.9652 10.7714 15.6281 9.94935 13.291 9.16249C12.88 9.02156 12.739 8.82191 12.8213 8.39912C12.927 7.80017 12.9739 7.18948 13.0796 6.59053C13.1266 6.35564 12.9739 5.88588 13.4554 5.95634C13.9135 6.01506 13.6081 6.42611 13.6786 6.6375Z" fill="#65B28C"/>
<path d="M6.51456 10.4064C6.4441 10.5238 6.39712 10.6295 6.31491 10.7117C5.79817 11.2989 5.26969 11.8861 4.7412 12.4733C4.58853 12.6495 4.42411 12.7317 4.22446 12.5321C4.0483 12.3442 4.18923 12.215 4.29492 12.0858C4.62376 11.71 4.91736 11.3107 5.29317 10.9818C5.75119 10.5825 5.68073 10.2654 5.34015 9.80743C4.0483 8.08104 2.79168 6.33117 1.53506 4.56955C1.37064 4.33467 0.936104 4.04106 1.28843 3.77095C1.72296 3.44211 1.8404 4.01758 2.01656 4.25246C3.39063 6.09628 4.75294 7.95186 6.11526 9.80743C6.26794 9.99533 6.38538 10.195 6.51456 10.4064Z" fill="#65B28C"/>
<path d="M12.3748 21.1559C12.4805 18.5134 12.5979 16.1176 12.6684 13.7336C12.6919 13.0994 12.8798 12.7706 13.5492 12.7236C14.1599 12.6766 14.7589 12.5592 15.3695 12.4652C15.5809 12.43 15.7923 12.43 15.8276 12.7118C15.8628 13.0289 15.6162 12.982 15.4283 13.0407C14.7589 13.2286 13.8193 13.0172 13.467 13.5222C13.1264 14.0154 13.2908 14.861 13.2556 15.5539C13.1617 17.3273 13.0794 19.1006 12.9855 20.874C12.9737 21.1206 13.0442 21.4495 12.6332 21.426C12.2574 21.4025 12.3748 21.1089 12.3748 21.1559Z" fill="#65B28C"/>
<path d="M14.1013 0.673188C12.645 2.59922 11.2357 4.44305 9.82643 6.28688C8.8869 7.52001 8.8869 7.52001 7.46586 6.8506C7.12529 6.68618 6.78471 6.52176 6.44413 6.36909C6.26797 6.28688 6.13878 6.21641 6.23273 5.98153C6.33843 5.72316 6.50285 5.72316 6.71424 5.82886C7.07831 6.00502 7.47761 6.13421 7.80644 6.38083C8.49935 6.89757 8.87516 6.6392 9.33318 6.01676C10.5428 4.37259 11.8112 2.77539 13.0678 1.16644C13.2792 0.884583 13.4554 0.497026 14.1013 0.673188Z" fill="#B92429"/>
</svg>
