<svg width="23" height="23" viewBox="0 0 23 23" fill="none" xmlns="http://www.w3.org/2000/svg">
<circle cx="11.5" cy="11.5" r="11.5" fill="#FF7518" fill-opacity="0.1"/>
<circle cx="11.5" cy="11.5" r="7.75" stroke="#FF7518" stroke-width="0.5"/>
<path d="M9.47632 8.07482H9.42632V8.12482V8.5772V8.6272H9.47632H13.8993H13.9493V8.5772V8.12482V8.07482H13.8993H9.47632Z" fill="#FF7518" stroke="#FF7518" stroke-width="0.1"/>
<path d="M12.2548 11.0842C12.7696 10.5193 12.6587 9.80084 12.4229 9.22871C12.1864 8.65497 11.8178 8.21049 11.7867 8.17351L11.7545 8.13522L11.7162 8.16744L11.3701 8.45876L11.3315 8.49125L11.3643 8.52956C11.3643 8.52954 11.3655 8.531 11.3682 8.53417L11.3787 8.54717C11.3877 8.55842 11.4006 8.5747 11.4166 8.59552C11.4485 8.63717 11.4928 8.69691 11.5434 8.77073C11.6448 8.91853 11.7709 9.12194 11.874 9.34889C12.0827 9.80797 12.1869 10.3386 11.8466 10.712C11.4678 11.1277 10.8883 11.3102 10.3943 11.3873C9.9017 11.4642 9.50362 11.4349 9.4974 11.4344L9.49659 11.4344C9.38611 11.4277 9.27726 11.4861 9.22698 11.5891L9.2269 11.5893C9.17749 11.6915 9.19529 11.8138 9.27272 11.8974C9.27272 11.8974 9.27272 11.8975 9.27272 11.8975L12.4076 15.2838L12.4416 15.3205L12.4783 15.2866L12.81 14.9794L12.8466 14.9454L12.8127 14.9087L10.1006 11.9791M12.2548 11.0842L12.2183 11.0509L12.2548 11.0842C12.2548 11.0842 12.2548 11.0842 12.2548 11.0842ZM12.2548 11.0842C11.6531 11.7445 10.7191 11.9314 10.1006 11.9791M10.1006 11.9791L10.0572 11.9321C10.6714 11.8897 11.6165 11.7104 12.2178 11.0505C13.1371 10.0418 11.9947 8.51329 11.78 8.24443L11.7806 8.24394L11.7484 8.20569L11.7101 8.23787C11.7101 8.23788 11.7101 8.23788 11.7101 8.23789L11.4405 8.46481C11.4404 8.46466 11.4403 8.46455 11.4402 8.46446L11.4023 8.49701C11.4024 8.49716 11.4027 8.49747 11.4031 8.49794C11.4396 8.5416 12.6013 9.95811 11.8836 10.7457C11.1029 11.6023 9.50997 11.4856 9.49357 11.4843C9.40205 11.4788 9.31281 11.5272 9.27192 11.611C9.2314 11.6948 9.24604 11.7951 9.30941 11.8635L12.4103 15.2132L12.4103 15.2132L12.4435 15.249L12.4443 15.2499L12.4446 15.2496L12.481 15.2159L12.481 15.2159L12.7757 14.9429L12.776 14.9427L10.0367 11.9836C10.0576 11.9823 10.0789 11.9808 10.1006 11.9791Z" fill="#FF7518" stroke="#FF7518" stroke-width="0.1"/>
<path d="M9.47632 9.66527H9.42632V9.71527V10.1677V10.2177H9.47632H13.8993H13.9493V10.1677V9.71527V9.66527H13.8993H9.47632Z" fill="#FF7518" stroke="#FF7518" stroke-width="0.1"/>
</svg>
