<svg width="12" height="12" viewBox="0 0 12 12" fill="none" xmlns="http://www.w3.org/2000/svg">
<path fill-rule="evenodd" clip-rule="evenodd" d="M5.63159 0.800707C2.96356 0.800707 0.8007 2.96359 0.8007 5.63164C0.8007 8.29969 2.96356 10.4626 5.63159 10.4626C8.29962 10.4626 10.4625 8.29969 10.4625 5.63164C10.4625 2.96359 8.29962 0.800707 5.63159 0.800707ZM0 5.63164C0 2.52137 2.52135 0 5.63159 0C8.74183 0 11.2632 2.52137 11.2632 5.63164C11.2632 8.74191 8.74183 11.2633 5.63159 11.2633C2.52135 11.2633 0 8.74191 0 5.63164Z" fill="#999999"/>
<path fill-rule="evenodd" clip-rule="evenodd" d="M6.11969 4.54271L6.01602 9.04685L5.1152 9.02611L5.21887 4.52197L6.11969 4.54271Z" fill="#999999"/>
<path d="M5.69027 3.63185C6.06339 3.64044 6.37284 3.34493 6.38143 2.97181C6.39003 2.5987 6.09451 2.28927 5.72138 2.28068C5.34826 2.2721 5.03881 2.56761 5.03022 2.94072C5.02162 3.31384 5.31714 3.62327 5.69027 3.63185Z" fill="#999999"/>
</svg>
