<svg width="24" height="24" viewBox="0 0 24 24" fill="none" xmlns="http://www.w3.org/2000/svg">
<path fill-rule="evenodd" clip-rule="evenodd" d="M12 5.13695C8.20991 5.13695 5.13744 8.20942 5.13744 11.9995C5.13744 15.7896 8.20991 18.8621 12 18.8621C15.7901 18.8621 18.8626 15.7896 18.8626 11.9995C18.8626 8.20942 15.7901 5.13695 12 5.13695ZM4 11.9995C4 7.58123 7.58172 3.99951 12 3.99951C16.4183 3.99951 20 7.58123 20 11.9995C20 16.4178 16.4183 19.9995 12 19.9995C7.58172 19.9995 4 16.4178 4 11.9995Z" fill="white"/>
<path fill-rule="evenodd" clip-rule="evenodd" d="M12.6399 10.3989V16.7989H11.3599V10.3989H12.6399Z" fill="white"/>
<path d="M12 9.11971C12.5302 9.11971 12.96 8.6899 12.96 8.15971C12.96 7.62951 12.5302 7.19971 12 7.19971C11.4698 7.19971 11.04 7.62951 11.04 8.15971C11.04 8.6899 11.4698 9.11971 12 9.11971Z" fill="white"/>
</svg>
