<svg width="26" height="26" viewBox="0 0 26 26" fill="none" xmlns="http://www.w3.org/2000/svg">
<path d="M26 13C26 20.1797 20.1797 26 13 26C5.8203 26 0 20.1797 0 13C0 5.8203 5.8203 0 13 0C20.1797 0 26 5.8203 26 13Z" fill="#F58220" fill-opacity="0.1"/>
<path fill-rule="evenodd" clip-rule="evenodd" d="M19.316 5H21.9807V7.41101H21.4441V5.91178L16.7332 10.58L14.1682 8.26461L8.29996 13.9948L6.65397 12.2214L4.3708 14.4045L4 14.0167L6.67677 11.4573L8.31884 13.2265L14.1538 7.52878L16.716 9.84168L21.0605 5.53654H19.316V5Z" fill="#F58220"/>
<path fill-rule="evenodd" clip-rule="evenodd" d="M8.51979 20.2915H5.04104C4.84349 20.2915 4.68335 20.4517 4.68335 20.6492C4.68335 20.8468 4.84349 21.0069 5.04104 21.0069H8.51979C8.71734 21.0069 8.87748 20.8468 8.87748 20.6492C8.87748 20.4517 8.71734 20.2915 8.51979 20.2915ZM5.04104 19.9338C4.64594 19.9338 4.32565 20.2541 4.32565 20.6492C4.32565 21.0443 4.64594 21.3646 5.04104 21.3646H8.51979C8.91489 21.3646 9.23518 21.0443 9.23518 20.6492C9.23518 20.2541 8.91489 19.9338 8.51979 19.9338H5.04104Z" fill="#F58220"/>
<path fill-rule="evenodd" clip-rule="evenodd" d="M14.832 20.2915H11.4935C11.2959 20.2915 11.1358 20.4517 11.1358 20.6492C11.1358 20.8468 11.2959 21.0069 11.4935 21.0069H14.832C15.0295 21.0069 15.1897 20.8468 15.1897 20.6492C15.1897 20.4517 15.0295 20.2915 14.832 20.2915ZM11.4935 19.9338C11.0984 19.9338 10.7781 20.2541 10.7781 20.6492C10.7781 21.0443 11.0984 21.3646 11.4935 21.3646H14.832C15.2271 21.3646 15.5474 21.0443 15.5474 20.6492C15.5474 20.2541 15.2271 19.9338 14.832 19.9338H11.4935Z" fill="#F58220"/>
<path fill-rule="evenodd" clip-rule="evenodd" d="M14.832 18.9517H11.4935C11.2959 18.9517 11.1358 19.1118 11.1358 19.3094C11.1358 19.5069 11.2959 19.6671 11.4935 19.6671H14.832C15.0295 19.6671 15.1897 19.5069 15.1897 19.3094C15.1897 19.1118 15.0295 18.9517 14.832 18.9517ZM11.4935 18.594C11.0984 18.594 10.7781 18.9143 10.7781 19.3094C10.7781 19.7045 11.0984 20.0248 11.4935 20.0248H14.832C15.2271 20.0248 15.5474 19.7045 15.5474 19.3094C15.5474 18.9143 15.2271 18.594 14.832 18.594H11.4935Z" fill="#F58220"/>
<path fill-rule="evenodd" clip-rule="evenodd" d="M14.832 17.521H11.4935C11.2959 17.521 11.1358 17.6812 11.1358 17.8787C11.1358 18.0763 11.2959 18.2364 11.4935 18.2364H14.832C15.0295 18.2364 15.1897 18.0763 15.1897 17.8787C15.1897 17.6812 15.0295 17.521 14.832 17.521ZM11.4935 17.1633C11.0984 17.1633 10.7781 17.4836 10.7781 17.8787C10.7781 18.2738 11.0984 18.5941 11.4935 18.5941H14.832C15.2271 18.5941 15.5474 18.2738 15.5474 17.8787C15.5474 17.4836 15.2271 17.1633 14.832 17.1633H11.4935Z" fill="#F58220"/>
<path fill-rule="evenodd" clip-rule="evenodd" d="M21.2846 20.3477H17.9461C17.7486 20.3477 17.5884 20.5078 17.5884 20.7054C17.5884 20.9029 17.7486 21.0631 17.9461 21.0631H21.2846C21.4822 21.0631 21.6423 20.9029 21.6423 20.7054C21.6423 20.5078 21.4822 20.3477 21.2846 20.3477ZM17.9461 19.99C17.551 19.99 17.2307 20.3103 17.2307 20.7054C17.2307 21.1005 17.551 21.4208 17.9461 21.4208H21.2846C21.6797 21.4208 22 21.1005 22 20.7054C22 20.3103 21.6797 19.99 21.2846 19.99H17.9461Z" fill="#F58220"/>
<path fill-rule="evenodd" clip-rule="evenodd" d="M21.2846 18.9168H17.9461C17.7486 18.9168 17.5884 19.0769 17.5884 19.2745C17.5884 19.472 17.7486 19.6322 17.9461 19.6322H21.2846C21.4822 19.6322 21.6423 19.472 21.6423 19.2745C21.6423 19.0769 21.4822 18.9168 21.2846 18.9168ZM17.9461 18.5591C17.551 18.5591 17.2307 18.8794 17.2307 19.2745C17.2307 19.6696 17.551 19.9899 17.9461 19.9899H21.2846C21.6797 19.9899 22 19.6696 22 19.2745C22 18.8794 21.6797 18.5591 21.2846 18.5591H17.9461Z" fill="#F58220"/>
<path fill-rule="evenodd" clip-rule="evenodd" d="M21.2846 17.4861H17.9461C17.7486 17.4861 17.5884 17.6463 17.5884 17.8438C17.5884 18.0414 17.7486 18.2015 17.9461 18.2015H21.2846C21.4822 18.2015 21.6423 18.0414 21.6423 17.8438C21.6423 17.6463 21.4822 17.4861 21.2846 17.4861ZM17.9461 17.1284C17.551 17.1284 17.2307 17.4487 17.2307 17.8438C17.2307 18.2389 17.551 18.5592 17.9461 18.5592H21.2846C21.6797 18.5592 22 18.2389 22 17.8438C22 17.4487 21.6797 17.1284 21.2846 17.1284H17.9461Z" fill="#F58220"/>
<path fill-rule="evenodd" clip-rule="evenodd" d="M21.2846 16.0554H17.9461C17.7486 16.0554 17.5884 16.2156 17.5884 16.4131C17.5884 16.6107 17.7486 16.7708 17.9461 16.7708H21.2846C21.4822 16.7708 21.6423 16.6107 21.6423 16.4131C21.6423 16.2156 21.4822 16.0554 21.2846 16.0554ZM17.9461 15.6978C17.551 15.6978 17.2307 16.018 17.2307 16.4131C17.2307 16.8082 17.551 17.1285 17.9461 17.1285H21.2846C21.6797 17.1285 22 16.8082 22 16.4131C22 16.018 21.6797 15.6978 21.2846 15.6978H17.9461Z" fill="#F58220"/>
<path fill-rule="evenodd" clip-rule="evenodd" d="M21.2846 14.6245H17.9461C17.7486 14.6245 17.5884 14.7847 17.5884 14.9822C17.5884 15.1798 17.7486 15.3399 17.9461 15.3399H21.2846C21.4822 15.3399 21.6423 15.1798 21.6423 14.9822C21.6423 14.7847 21.4822 14.6245 21.2846 14.6245ZM17.9461 14.2668C17.551 14.2668 17.2307 14.5871 17.2307 14.9822C17.2307 15.3773 17.551 15.6976 17.9461 15.6976H21.2846C21.6797 15.6976 22 15.3773 22 14.9822C22 14.5871 21.6797 14.2668 21.2846 14.2668H17.9461Z" fill="#F58220"/>
<path fill-rule="evenodd" clip-rule="evenodd" d="M6.73017 19.7422C7.78315 19.7422 8.63676 18.8886 8.63676 17.8356C8.63676 16.7826 7.78315 15.929 6.73017 15.929C5.67719 15.929 4.82358 16.7826 4.82358 17.8356C4.82358 18.8886 5.67719 19.7422 6.73017 19.7422ZM6.73017 20.0999C7.9807 20.0999 8.99445 19.0861 8.99445 17.8356C8.99445 16.585 7.9807 15.5713 6.73017 15.5713C5.47964 15.5713 4.46588 16.585 4.46588 17.8356C4.46588 19.0861 5.47964 20.0999 6.73017 20.0999Z" fill="#F58220"/>
<path d="M6.59589 18.9277L6.0643 17.9905V17.7697H6.2415C6.34585 17.7697 6.43346 17.7468 6.50434 17.701C6.57522 17.6532 6.6205 17.5876 6.64019 17.504H6.0643V17.2831H6.63724C6.61952 17.2075 6.58309 17.1448 6.52797 17.0951C6.47284 17.0434 6.39605 17.0175 6.29761 17.0175H6.0643V16.7966H7.39623V17.0175H6.93257C7.00148 17.0931 7.04479 17.1817 7.06251 17.2831H7.39623V17.504H7.06842C7.04873 17.6513 6.99262 17.7667 6.90008 17.8502C6.80754 17.9318 6.68843 17.9875 6.54273 18.0174L7.12158 18.9277H6.59589Z" fill="#F58220"/>
<path fill-rule="evenodd" clip-rule="evenodd" d="M13.2459 16.9507C14.2988 16.9507 15.1524 16.0971 15.1524 15.0441C15.1524 13.9911 14.2988 13.1375 13.2459 13.1375C12.1929 13.1375 11.3393 13.9911 11.3393 15.0441C11.3393 16.0971 12.1929 16.9507 13.2459 16.9507ZM13.2459 17.3084C14.4964 17.3084 15.5101 16.2946 15.5101 15.0441C15.5101 13.7935 14.4964 12.7798 13.2459 12.7798C11.9953 12.7798 10.9816 13.7935 10.9816 15.0441C10.9816 16.2946 11.9953 17.3084 13.2459 17.3084Z" fill="#F58220"/>
<path d="M13.1114 16.1362L12.5798 15.199V14.9781H12.757C12.8614 14.9781 12.949 14.9553 13.0198 14.9095C13.0907 14.8617 13.136 14.7961 13.1557 14.7125H12.5798V14.4916H13.1527C13.135 14.416 13.0986 14.3533 13.0435 14.3036C12.9883 14.2519 12.9116 14.226 12.8131 14.226H12.5798V14.0051H13.9117V14.226H13.4481C13.517 14.3016 13.5603 14.3902 13.578 14.4916H13.9117V14.7125H13.5839C13.5642 14.8598 13.5081 14.9752 13.4156 15.0587C13.323 15.1403 13.2039 15.196 13.0582 15.2259L13.6371 16.1362H13.1114Z" fill="#F58220"/>
<path fill-rule="evenodd" clip-rule="evenodd" d="M19.6844 14.0891C20.7373 14.0891 21.591 13.2355 21.591 12.1825C21.591 11.1295 20.7373 10.2759 19.6844 10.2759C18.6314 10.2759 17.7778 11.1295 17.7778 12.1825C17.7778 13.2355 18.6314 14.0891 19.6844 14.0891ZM19.6844 14.4468C20.9349 14.4468 21.9486 13.433 21.9486 12.1825C21.9486 10.932 20.9349 9.91821 19.6844 9.91821C18.4338 9.91821 17.4201 10.932 17.4201 12.1825C17.4201 13.433 18.4338 14.4468 19.6844 14.4468Z" fill="#F58220"/>
<path d="M19.5499 13.2746L19.0183 12.3374V12.1166H19.1955C19.2999 12.1166 19.3875 12.0937 19.4584 12.0479C19.5293 12.0002 19.5745 11.9345 19.5942 11.8509H19.0183V11.6301H19.5913C19.5736 11.5545 19.5371 11.4918 19.482 11.442C19.4269 11.3903 19.3501 11.3644 19.2517 11.3644H19.0183V11.1436H20.3503V11.3644H19.8866C19.9555 11.44 19.9988 11.5286 20.0166 11.6301H20.3503V11.8509H20.0225C20.0028 11.9982 19.9467 12.1136 19.8541 12.1972C19.7616 12.2787 19.6425 12.3345 19.4968 12.3643L20.0756 13.2746H19.5499Z" fill="#F58220"/>
</svg>
