<svg width="26" height="26" viewBox="0 0 72 72" fill="none" xmlns="http://www.w3.org/2000/svg">
<path d="M72 36C72 55.8823 55.8823 72 36 72C16.1177 72 0 55.8823 0 36C0 16.1177 16.1177 0 36 0C55.8823 0 72 16.1177 72 36Z" fill="#043B73"/>
<path d="M17.5 26.25C17.5 25.3217 17.8687 24.4315 18.5251 23.7751C19.1815 23.1187 20.0717 22.75 21 22.75H49C49.9283 22.75 50.8185 23.1187 51.4749 23.7751C52.1313 24.4315 52.5 25.3217 52.5 26.25V43.75C52.5 44.6783 52.1313 45.5685 51.4749 46.2249C50.8185 46.8812 49.9283 47.25 49 47.25H21C20.0717 47.25 19.1815 46.8812 18.5251 46.2249C17.8687 45.5685 17.5 44.6783 17.5 43.75V26.25Z" stroke="white" stroke-width="2" stroke-linecap="round" stroke-linejoin="round"/>
<path d="M39.3498 29.895H37.2284C37.5593 30.4127 37.7734 31.0202 37.8707 31.7175H39.8364L39.3498 33.6021H37.8804C37.7377 34.7411 37.3095 35.6144 36.5959 36.2219C35.8823 36.8225 34.8735 37.1815 33.5695 37.2988L38.1042 42.9423V43.0769H35.3114L30.3582 36.9364L30.3484 35.3521H32.8104C33.537 35.3521 34.1112 35.1933 34.5329 34.8757C34.961 34.5513 35.2465 34.1267 35.3892 33.6021H30.1538L30.6501 31.7175H35.3503C35.0324 30.6474 34.1728 30.1124 32.7715 30.1124H30.1538L30.6793 28H39.8461L39.3498 29.895Z" fill="white"/>
</svg>
