<svg width="26" height="26" viewBox="0 0 26 26" fill="none" xmlns="http://www.w3.org/2000/svg">
<path d="M26 13C26 20.1797 20.1797 26 13 26C5.8203 26 0 20.1797 0 13C0 5.8203 5.8203 0 13 0C20.1797 0 26 5.8203 26 13Z" fill="#F58220" fill-opacity="0.1"/>
<path d="M11.3772 15.9058C9.0587 15.9058 6.74018 15.9059 4.42165 15.9057C4.08982 15.9057 4.00008 15.8169 4.00008 15.4885C3.99996 12.6522 3.99996 9.81587 4.00019 6.97957C4.00019 6.59194 4.07306 6.52014 4.46637 6.52014C9.09768 6.51996 13.729 6.52002 18.3603 6.52008C18.6795 6.52008 18.7715 6.6114 18.7715 6.9294C18.7717 9.78873 18.7717 12.6481 18.7715 15.5074C18.7715 15.8139 18.6778 15.9059 18.3674 15.9059C16.0373 15.9059 13.7072 15.9058 11.3772 15.9058ZM6.83777 15.3084C9.87635 15.3084 12.905 15.3084 15.9377 15.3084C16.0166 14.7206 16.2619 14.2217 16.6764 13.8133C17.0893 13.4063 17.5925 13.1709 18.1663 13.0949C18.172 13.0575 18.1784 13.0353 18.1784 13.013C18.1789 11.8279 18.1778 10.6428 18.1809 9.45772C18.1812 9.35215 18.1379 9.32735 18.0425 9.30836C17.0308 9.10684 16.355 8.51809 16.0292 7.53673C15.9844 7.40179 15.9612 7.25971 15.9281 7.1209C12.8944 7.1209 9.86633 7.1209 6.84053 7.1209C6.63607 8.41281 5.70366 9.13005 4.78144 9.29875C4.63783 9.32501 4.59451 9.36932 4.59527 9.51475C4.60125 10.6423 4.59838 11.7699 4.5992 12.8974C4.59926 12.9641 4.6074 13.0306 4.61145 13.0922C5.85922 13.3236 6.63637 14.0982 6.83777 15.3084ZM16.563 7.11768C16.5533 7.82483 17.5063 8.76651 18.1686 8.70713C18.1686 8.18104 18.1686 7.65461 18.1686 7.11768C17.6262 7.11768 17.0946 7.11768 16.563 7.11768ZM18.1686 15.3101C18.1686 14.7704 18.1686 14.2395 18.1686 13.708C17.4034 13.7528 16.5649 14.5919 16.5605 15.3101C17.0931 15.3101 17.6256 15.3101 18.1686 15.3101ZM4.60729 8.71006C5.30242 8.73556 6.2305 7.81023 6.21063 7.11861C5.67874 7.11861 5.14691 7.11861 4.60729 7.11861C4.60729 7.65689 4.60729 8.18362 4.60729 8.71006ZM4.61045 15.3078C5.15489 15.3078 5.69011 15.3078 6.22693 15.3078C6.105 14.4859 5.35922 13.7474 4.61045 13.709C4.61045 14.2399 4.61045 14.7703 4.61045 15.3078Z" fill="#F58220"/>
<path d="M21.4012 18.8917C21.4012 18.7967 21.4012 18.7233 21.4012 18.6499C21.4012 15.9289 21.4011 13.2079 21.4011 10.487C21.4011 10.2259 21.5045 10.0931 21.7074 10.0996C21.8578 10.1044 21.9567 10.1799 21.9849 10.3314C21.9964 10.3931 21.9994 10.4571 21.9994 10.52C22 13.3502 21.9998 16.1805 22 19.0108C22 19.4061 21.9303 19.4791 21.5417 19.4791C16.9166 19.4797 12.2915 19.4799 7.66642 19.4799C7.61472 19.4799 7.56267 19.4795 7.51132 19.4742C7.32867 19.4553 7.2275 19.3406 7.23576 19.1651C7.24338 19.0043 7.35341 18.9005 7.53195 18.8938C7.66407 18.8889 7.79655 18.8917 7.92885 18.8917C12.3469 18.8917 16.7648 18.8917 21.1828 18.8917C21.2502 18.8917 21.3176 18.8917 21.4012 18.8917Z" fill="#F58220"/>
<path d="M19.255 16.5101C19.255 16.4267 19.255 16.3587 19.255 16.2906C19.255 13.5518 19.2549 10.8129 19.2551 8.07407C19.2551 7.83058 19.3666 7.70643 19.5711 7.71845C19.7201 7.72718 19.8272 7.83017 19.8409 7.98058C19.8445 8.02056 19.8418 8.06106 19.8418 8.10133C19.8418 10.9668 19.8419 13.8322 19.8418 16.6977C19.8418 17.0138 19.7596 17.0973 19.4438 17.0973C14.7947 17.0974 10.1456 17.0973 5.49644 17.0967C5.43343 17.0967 5.36865 17.098 5.30775 17.0847C5.1571 17.0519 5.08301 16.9467 5.08401 16.7985C5.08501 16.6494 5.16355 16.5493 5.31473 16.5197C5.36502 16.5099 5.41766 16.5094 5.46924 16.5094C10.0033 16.5093 14.5374 16.5097 19.0714 16.51C19.1279 16.5101 19.1845 16.5101 19.255 16.5101Z" fill="#F58220"/>
<path d="M20.3253 17.7014C20.3253 17.6085 20.3253 17.5401 20.3253 17.4718C20.3253 14.7675 20.3253 12.0634 20.3255 9.35914C20.3255 9.2959 20.3222 9.23195 20.3299 9.16952C20.3502 9.00586 20.4807 8.89519 20.6371 8.90334C20.7903 8.91125 20.9041 9.02022 20.9152 9.17925C20.922 9.27661 20.9176 9.37479 20.9176 9.47257C20.9177 12.2688 20.9176 15.0651 20.9176 17.8614C20.9176 18.2102 20.8404 18.2884 20.495 18.2884C15.8518 18.2884 11.2087 18.2884 6.56545 18.2884C6.30361 18.2884 6.18849 18.2156 6.16299 18.0349C6.13913 17.8658 6.24318 17.7245 6.41158 17.7044C6.47401 17.6969 6.53802 17.7015 6.60127 17.7015C11.1121 17.7014 15.623 17.7014 20.1338 17.7014C20.1905 17.7014 20.2471 17.7014 20.3253 17.7014Z" fill="#F58220"/>
<path d="M12.8341 9.31348H12.1249C12.2355 9.48656 12.3071 9.68964 12.3396 9.92271H12.9967L12.8341 10.5527H12.3429C12.2952 10.9335 12.152 11.2254 11.9135 11.4285C11.6749 11.6293 11.3377 11.7493 10.9018 11.7885L12.4177 13.675V13.72H11.4841L9.82831 11.6673L9.82506 11.1377H10.6481C10.891 11.1377 11.0829 11.0846 11.2239 10.9785C11.367 10.87 11.4624 10.7281 11.5101 10.5527H9.76L9.9259 9.92271H11.4971C11.3908 9.56502 11.1035 9.38617 10.6351 9.38617H9.76L9.93566 8.68002H13L12.8341 9.31348Z" fill="#F58220"/>
</svg>
