<svg width="69" height="70" viewBox="0 0 69 70" fill="none" xmlns="http://www.w3.org/2000/svg">
<path d="M50.8759 13.3896C51.4703 11.7785 52.5184 10.5741 54.1608 9.96402C54.3954 9.88581 54.4267 9.72939 54.4267 9.5104C54.4111 9.05678 54.4423 8.6188 54.4111 8.16518C54.3954 7.85234 54.5049 7.77413 54.8178 7.75849C55.8501 7.7272 55.8501 7.71156 55.8501 6.66354C55.8345 4.44236 55.8345 2.22118 55.8188 0C55.944 0 56.0535 0 56.1786 0C56.163 1.98655 56.1473 3.9731 56.1317 5.95964C56.1317 6.14735 56.1317 6.3507 56.1317 6.5384C56.1317 6.91381 56.0222 7.35179 56.1786 7.63335C56.3663 7.96183 56.8512 7.7272 57.211 7.75849C57.4613 7.77413 57.5551 7.85234 57.5551 8.10261C57.5395 8.39981 57.5864 8.69701 57.5395 8.97857C57.43 9.65118 57.7272 9.94838 58.3216 10.2143C60.2456 11.1215 61.1684 12.717 61.3249 14.7974C60.1048 14.1874 58.8221 13.9528 57.4769 13.984C56.4915 13.812 55.506 13.812 54.5205 13.984C53.1753 14.0153 51.8457 14.0935 50.6882 14.8756C50.6257 14.3907 50.7977 13.8902 50.8759 13.3896Z" fill="#353F80"/>
<path d="M12.9757 0.0156419C12.9757 2.45581 12.9757 4.89598 12.96 7.33615C12.96 7.69592 13.0695 7.78977 13.4293 7.78977C14.3991 7.78977 14.4617 7.80541 14.3835 8.77522C14.3053 9.6199 14.6181 10.011 15.3689 10.3551C17.1052 11.1372 18.2627 13.155 18.1376 14.9226C17.9655 14.7662 17.7935 14.6097 17.5588 14.5315C16.4952 14.1718 15.4158 13.984 14.2896 13.9997C13.3042 13.8433 12.3187 13.8276 11.3333 14.0153C10.1445 13.984 8.98694 14.1561 7.89199 14.6567C7.75121 14.7192 7.5948 14.9069 7.53223 14.5784C7.54787 14.5002 7.54787 14.4064 7.56351 14.3282C7.59479 14.2969 7.59479 14.2656 7.57915 14.2187C7.92328 12.2008 9.03387 10.7931 10.9109 10.011C11.2238 9.88581 11.3176 9.72939 11.302 9.40091C11.2863 8.99421 11.3176 8.57188 11.2863 8.16518C11.2707 7.86798 11.3802 7.77413 11.6774 7.75849C12.7098 7.7272 12.7098 7.71156 12.7098 6.66354C12.7098 4.64571 12.7098 2.62787 12.7098 0.625684C12.7098 0.422337 12.788 0.187705 12.6316 0C12.7411 0.0156421 12.8662 0.0156419 12.9757 0.0156419Z" fill="#353F80"/>
<path d="M50.8756 13.3895C50.7974 13.8901 50.6253 14.375 50.6879 14.8912C50.6566 15.2197 50.8756 15.3761 51.1258 15.5012C51.9079 15.9079 52.7526 16.0018 53.5973 16.0956C53.8788 16.8465 54.4263 17.4565 54.7861 18.1604C55.3336 19.2553 55.8967 20.3503 56.0687 21.586C56.0218 21.6017 55.9749 21.6173 55.9123 21.6329C53.0655 21.5234 50.2186 21.5704 47.3717 21.6017C47.2935 21.6017 47.2153 21.6017 47.1215 21.6017C44.2902 21.586 41.459 21.586 38.6278 21.5704C38.2837 21.5704 38.1429 21.7268 38.096 22.0553C37.9395 23.2754 37.7988 24.4954 37.611 25.7155C37.2826 27.8116 37.1261 29.9389 36.7195 32.0193C36.6256 32.4729 36.4066 33.036 36.6882 33.5366C35.2491 33.5053 34.1229 32.4103 33.8569 30.7679C34.2949 30.4394 34.2949 30.0953 34.0447 29.6104C33.2156 27.9523 32.2927 26.3412 31.3542 24.7301C30.8849 23.9323 30.2436 23.3066 29.2582 23.1971C28.9297 22.8374 28.4604 23.0564 28.0694 22.9156C28.1163 22.3525 27.9912 21.7894 28.2101 21.2419C29.1487 21.5234 29.4928 21.3357 29.9621 20.2877C30.1185 19.9905 30.3062 19.709 30.2905 19.3492C30.2905 19.271 30.3062 19.1928 30.3062 19.1146C30.4 18.9112 30.6034 18.8174 30.7755 18.6922C30.9162 18.5984 31.0883 18.4419 30.9006 18.2699C30.4783 17.8632 30.4939 17.2844 30.3218 16.7839C30.3062 16.7057 30.3062 16.6275 30.2905 16.5492C30.5877 16.08 30.3375 15.642 30.1654 15.2197C30.9006 14.2499 30.6972 13.718 29.4772 13.5616C28.5856 13.4521 27.694 13.3426 26.7867 13.3739C25.3164 13.4208 23.7834 14.8755 23.8929 16.2364C24.0181 17.8788 24.722 19.3023 25.8482 20.5223C25.6761 21.2888 25.5197 22.0709 25.3476 22.8374C25.1599 22.853 24.9879 22.8843 24.8002 22.8999C24.6125 22.8687 24.4404 22.8843 24.3778 23.1033C24.065 23.1189 23.846 23.3066 23.627 23.51C23.1577 23.948 22.8293 24.4954 22.5946 25.0898C22.4069 25.1993 22.2192 25.1368 22.0159 25.1211C20.7019 25.0742 19.4036 25.0742 18.1053 25.215C16.2752 25.4183 14.9926 26.5446 14.711 28.2339C14.5702 29.0629 14.5859 29.9076 14.6328 30.7366C14.7579 32.5824 15.2741 34.3343 15.7121 36.1175C13.9602 36.1175 12.2083 36.1019 10.4563 36.1019C10.4407 35.7108 10.7692 35.4918 10.9569 35.1946C12.1457 33.2237 12.787 31.1277 12.7088 28.8127C12.5837 25.2463 13.5222 21.9458 15.3523 18.8956C15.978 17.8632 16.6976 16.8934 17.5266 16.0018C17.683 15.8297 17.902 15.7046 17.8864 15.423C17.9489 15.3604 18.0115 15.2979 18.0741 15.251C18.2774 15.2666 18.4025 15.1415 18.5277 15.0163C21.6874 11.9035 25.5197 10.0578 29.79 9.04104C31.2134 8.69691 32.6525 8.54049 34.1072 8.43099C37.5328 8.16508 40.8646 8.64998 44.1025 9.71365C46.2142 10.4019 48.1538 11.4499 49.9683 12.7169C50.2968 12.9359 50.5158 13.2644 50.8756 13.3895Z" fill="#CDE8F1"/>
<path d="M63.0927 63.2715C64.4849 63.4905 65.8301 63.8816 67.0971 64.5386C67.4881 64.7419 67.9105 64.9922 67.9261 65.5084C67.9574 66.0715 67.5194 66.3374 67.1127 66.5564C65.8457 67.229 64.4536 67.5731 63.0614 67.8703C59.9486 68.5273 56.8046 68.9027 53.6449 69.1843C51.4863 69.372 49.3277 69.5127 47.169 69.6535C40.615 70.0915 34.0453 70.0133 27.4913 69.9507C24.8008 69.9194 22.1104 69.7787 19.4199 69.6066C15.8692 69.372 12.3028 69.0748 8.78331 68.5586C6.37443 68.1988 3.96554 67.8234 1.6818 66.9318C1.25946 66.7754 0.83712 66.5877 0.492994 66.3061C-0.179617 65.7743 -0.163976 65.2425 0.539918 64.7419C1.33767 64.1788 2.24491 63.8972 3.1678 63.647C4.66944 63.2246 6.18672 62.9118 7.73529 62.7241C7.68836 63.3028 7.64144 63.8816 7.59451 64.476C7.57887 64.7419 7.56323 64.9922 7.93864 65.0235C8.28276 65.0547 8.45482 64.867 8.50175 64.5698C8.61125 63.8816 8.68946 63.1777 8.78331 62.4894C10.4257 62.3174 12.0682 62.1297 13.6949 61.9733C15.0402 61.8325 16.401 61.7073 17.7462 61.5822C17.7462 62.5677 17.7306 63.5687 17.7306 64.5542C17.7306 64.7263 17.6367 64.9609 17.9652 64.9765C18.3094 64.9922 18.2624 64.7575 18.2781 64.5542C18.2781 64.5229 18.2937 64.476 18.2937 64.4447C18.3406 64.5229 18.4188 64.6011 18.4501 64.6793C18.5753 65.0704 18.8881 65.1017 19.201 65.0078C19.5607 64.8983 19.373 64.6168 19.3574 64.3665C19.3261 63.428 19.0602 62.4894 19.0758 61.5509C20.0926 61.4414 21.1093 61.3789 22.126 61.3945C22.1886 62.4582 22.2668 63.5218 22.3294 64.5855C22.345 64.7888 22.3294 64.9765 22.6266 64.9609C22.9707 64.9453 22.8612 64.7106 22.8612 64.5386C22.8612 63.4436 22.8612 62.3643 22.8456 61.2694C24.4411 61.3006 26.0366 61.0817 27.6321 61.1442C27.6321 62.2235 27.6164 63.2872 27.6321 64.3665C27.6321 64.5698 27.46 64.9296 27.9136 64.9296C28.3359 64.914 28.1952 64.5698 28.1952 64.3509C28.2734 63.2872 28.3203 62.2079 28.3829 61.1286C28.8209 61.1129 29.2745 61.0817 29.7125 61.066C30.2443 61.066 30.8074 60.8001 31.3079 61.2224C31.261 61.4727 31.1359 61.6604 30.9482 61.8168C30.7761 62.0202 30.7292 62.2861 30.9325 62.4269C31.2923 62.6928 31.5895 63.0838 32.0901 63.1308C32.1526 63.6157 32.1996 64.1006 32.2621 64.5855C32.2778 64.7732 32.3403 64.914 32.575 64.914C32.8565 64.914 32.8252 64.7263 32.8252 64.5542C32.8096 64.257 32.8096 63.9754 32.7939 63.6782C32.966 63.7564 33.1537 63.819 33.3258 63.8972C34.3112 64.3196 35.2967 64.7419 36.4073 64.6324C36.8453 64.5855 37.1894 64.4291 37.1425 63.8972C37.1425 63.8347 37.1581 63.7721 37.1581 63.6939C37.1737 63.6782 37.1894 63.6626 37.1894 63.647C37.1737 63.6313 37.1425 63.6157 37.1112 63.6C36.4698 63.209 35.8285 62.8179 35.1872 62.4269C35.1559 62.2704 35.1559 62.0984 34.9213 62.1297C34.89 62.0045 34.9213 61.8481 34.7179 61.8168C34.6866 61.8168 34.671 61.8012 34.6554 61.7855C34.5615 61.6604 34.5302 61.4571 34.3269 61.4414C34.2956 61.3319 34.2799 61.2224 34.2487 61.0973C34.452 60.9565 34.7023 60.9878 34.9369 60.9878C36.5168 61.0034 38.0966 61.0191 39.6765 61.066C42.6328 61.1442 45.5892 61.2068 48.5455 61.4414C48.4517 62.3956 48.3735 63.3341 48.264 64.2883C48.2327 64.5855 48.0606 64.8827 48.5299 64.9453C48.9522 65.0078 49.1556 64.8045 49.2025 64.4134C49.3277 63.4436 49.4684 62.4894 49.5936 61.5196C51.5958 61.5822 53.5823 61.7855 55.5689 62.0045C55.7566 62.771 55.6471 63.5531 55.6784 64.3196C55.694 64.6637 55.7566 64.867 56.1633 64.867C58.2906 64.8514 60.4179 64.8514 62.5296 64.8514C62.8268 64.8514 62.9363 64.7263 62.9519 64.4291C62.9989 64.1162 62.905 63.6782 63.0927 63.2715Z" fill="#8DCFE3"/>
<path d="M8.1886 58.8297C7.50035 58.7046 6.9998 58.2197 6.5149 57.7973C4.38757 55.9046 2.97978 53.5583 2.55744 50.7427C2.26024 48.7562 2.74515 46.8635 3.7306 45.0646C4.90376 42.9686 6.46797 41.201 7.95397 39.3396C8.04782 39.2145 8.12604 39.0737 8.31374 39.105C8.86122 39.4022 9.45562 39.1989 10.0344 39.2301C10.3941 39.2614 10.5193 39.3709 10.4567 39.7307C10.3629 40.2625 10.3159 40.81 10.2534 41.3575C9.9718 43.8289 9.6746 46.316 9.39305 48.7875C9.14277 50.993 8.87686 53.1985 8.61094 55.4041C8.50145 56.546 8.34502 57.6878 8.1886 58.8297Z" fill="#CDE8F1"/>
<path d="M63.0931 63.2728C62.9054 63.6795 62.9993 64.1175 62.9836 64.5398C62.968 64.837 62.8741 64.9621 62.5613 64.9621C60.434 64.9621 58.3066 64.9621 56.195 64.9778C55.7883 64.9778 55.7257 64.7744 55.71 64.4303C55.6631 63.6638 55.7883 62.8817 55.6006 62.1153C55.5536 60.817 55.4911 59.5187 55.4754 58.2047C55.4754 57.7824 55.3659 57.5165 54.9592 57.4226C54.9749 57.0942 55.0062 56.7657 54.9749 56.4372C54.928 55.9836 55.1157 55.8741 55.538 55.8741C56.2575 55.8741 56.9771 55.9366 57.681 55.8271C57.7905 55.8428 57.8843 55.8584 57.9938 55.8741C58.291 55.8741 58.5882 55.8741 58.8854 55.8741C58.9949 55.8584 59.1044 55.8584 59.2139 55.8428C59.4485 55.8428 59.6832 55.8428 59.9021 55.8428C60.0273 55.8428 60.1368 55.8428 60.2619 55.8428C61.3569 55.8428 62.4362 55.8741 63.5311 55.8584C63.9222 55.8584 64.1255 55.9523 64.0786 56.3746C64.0473 56.6093 64.0629 56.8439 64.0786 57.0785C64.0786 57.3288 64.0786 57.5791 63.7188 57.5321C63.2965 57.4696 63.2808 57.7511 63.2652 58.0327C63.2183 59.769 63.0618 61.5209 63.0931 63.2728Z" fill="#D78756"/>
<path d="M8.18883 58.8303C8.3296 57.6884 8.50167 56.5622 8.62681 55.4203C8.89272 53.2148 9.143 51.0093 9.40891 48.8037C9.69047 46.3323 9.98767 43.8452 10.2692 41.3737C10.3318 40.8263 10.3944 40.2944 10.4726 39.7469C10.5351 39.3872 10.41 39.262 10.0502 39.2464C9.47148 39.2151 8.87708 39.4185 8.32961 39.1213C8.32961 39.0431 8.32961 38.9492 8.32961 38.871C8.39218 38.6989 8.37653 38.5112 8.34525 38.3235C8.34525 38.2453 8.34525 38.1827 8.34525 38.1045C8.59552 38.0889 8.8458 38.0732 9.11171 38.0732C11.4893 38.0732 13.8826 38.0732 16.2602 38.0732C16.5417 38.4174 16.573 38.8397 16.6043 39.2464C16.4635 39.262 16.3696 39.3403 16.4009 39.481C16.5417 40.138 16.4635 40.8263 16.7138 41.4676C16.8076 42.5312 16.6199 43.5949 16.5104 44.6429C16.4166 45.5345 16.4948 46.3166 17.3082 46.8485C17.3551 47.4116 17.3707 47.9747 17.4646 48.5222C17.6054 49.2886 17.5585 50.0864 17.7931 50.8528C17.7305 51.2283 17.9182 51.5567 17.9026 51.9322C17.84 53.3869 17.84 54.8416 17.8087 56.3119C17.7931 57.0471 17.8713 57.7823 17.7462 58.5175C17.402 57.9856 17.4959 57.36 17.402 56.7812C16.9015 53.2461 16.4166 49.711 15.916 46.1915C15.6188 44.0329 15.2903 41.8743 15.0088 39.7C14.9619 39.3872 14.868 39.2464 14.5395 39.2464C13.82 39.262 13.1005 39.262 12.3653 39.2464C12.0681 39.2464 11.9586 39.3559 11.9117 39.6531C11.5988 41.9368 11.286 44.2049 10.9731 46.4887C10.5977 49.1791 10.2223 51.8539 9.84689 54.5444C9.6279 56.1712 9.42455 57.7823 9.20556 59.4091C9.04914 60.4415 8.90836 61.4582 8.75194 62.4906C8.65809 63.1788 8.57988 63.8827 8.47039 64.571C8.42346 64.8838 8.2514 65.0559 7.90727 65.0246C7.53186 64.9933 7.5475 64.743 7.56314 64.4771C7.61007 63.8984 7.657 63.3196 7.70392 62.7252C7.96984 61.4426 8.09497 60.1286 8.18883 58.8303Z" fill="#C18979"/>
<path d="M58.7442 33.6928C59.6358 33.0045 60.4336 32.2224 61.466 31.5342C61.3252 32.8481 60.7621 33.9743 60.6995 35.2101C60.6056 35.5229 60.59 35.8358 60.6369 36.1642C60.4179 36.8056 60.4805 37.4469 60.6526 38.0882C60.5744 39.2301 60.7777 40.3407 60.9498 41.4669C61.3877 44.3764 60.7777 47.1137 59.6984 49.7885C59.5263 49.6477 59.5733 49.46 59.6045 49.3036C59.8861 47.7394 59.5733 46.2065 59.3073 44.6736C59.1666 43.9071 58.9319 43.1563 58.7755 42.4054C58.447 40.7787 58.4157 39.1519 58.7286 37.5251C58.7599 37.353 58.7442 37.1966 58.5409 37.1653C58.3688 37.1497 58.3375 37.3061 58.3063 37.4469C58.0247 38.8234 57.9778 40.1999 58.2124 41.5764C58.494 43.2501 59.0414 44.8613 59.1979 46.5506C59.2761 47.4735 59.3543 48.412 59.1509 49.3349C59.0101 47.8176 58.5722 46.3785 57.8683 45.0333C57.5085 44.1261 56.9767 43.3283 56.3041 42.6088C55.7097 41.5608 55.3342 40.4502 55.3186 39.2457C55.3655 38.8703 55.4281 38.4949 55.475 38.1195C55.5845 37.4313 56.0069 36.8525 56.2102 36.1955C56.961 35.2883 57.9152 34.5531 58.7442 33.6928Z" fill="#2F7F78"/>
<path d="M65.0789 42.0304C65.642 41.1388 65.7828 40.1377 65.8141 39.121C65.8297 38.5579 65.8141 38.0104 65.8141 37.416C66.1113 37.4786 66.1895 37.6819 66.2677 37.8384C67.0341 39.5433 67.9101 41.217 68.176 43.1097C68.5045 45.3778 67.8162 47.1923 65.7984 48.4124C65.2509 48.7409 64.6878 49.085 64.156 49.4135C62.5605 50.4146 61.3404 51.7442 60.6522 53.543C60.6209 53.6369 60.5583 53.7151 60.5114 53.7933C60.3237 53.6056 60.4175 53.4022 60.4644 53.1989C60.9494 50.79 62.2476 48.8817 63.9214 47.1454C64.6252 46.4259 65.2979 45.6594 65.8141 44.7834C66.3302 43.9075 66.8308 43.0159 66.7369 41.9366C66.7213 41.8114 66.7526 41.6237 66.5649 41.6237C66.3772 41.6237 66.3772 41.7958 66.3928 41.9366C66.4554 42.7813 66.0956 43.4852 65.7358 44.2047C65.1414 45.3466 64.2655 46.2694 63.4208 47.1923C62.232 48.4906 61.1527 49.8515 60.5739 51.5565C60.4019 52.0414 60.4175 52.6045 60.0108 52.9799C59.9795 52.3855 60.1203 51.8224 60.1829 51.2436C60.5583 48.2873 61.4499 45.5812 63.8744 43.5946C64.3593 43.1723 64.7973 42.6405 65.0789 42.0304Z" fill="#4C8143"/>
<path d="M58.7436 33.694C57.9146 34.5543 56.9604 35.2739 56.1783 36.1811C55.9124 36.1811 55.6308 36.1655 55.3649 36.1655C53.3315 36.1498 51.298 36.1498 49.2489 36.1342C49.3427 35.6024 49.1237 35.399 48.5919 35.4616C48.1383 35.5085 47.669 35.4616 47.1997 35.4772C46.8556 35.4929 46.7461 35.3677 46.84 35.0236C46.9651 34.6013 47.0433 34.1633 47.1372 33.7253C48.0131 33.7097 48.8891 33.7097 49.765 33.694C51.298 33.6627 52.8465 33.7566 54.3795 33.6471C54.9582 33.7722 54.9582 33.3655 55.0051 32.9901C55.099 32.2393 55.1616 31.4885 55.2711 30.7377C55.5213 29.0327 55.7716 27.3277 55.9437 25.6071C56.0219 24.825 56.1783 24.0428 56.3035 23.2607C56.7101 23.5736 56.6163 24.0585 56.6319 24.4652C56.6789 25.7322 56.6163 26.9992 56.6632 28.2662C56.7101 29.5958 56.8666 30.9097 57.4922 32.0985C57.8051 32.7086 58.2118 33.2561 58.7436 33.694Z" fill="#CDE8F1"/>
<path d="M65.079 42.0297C64.7974 42.6397 64.3751 43.1716 63.8589 43.5782C61.4344 45.5648 60.5428 48.2709 60.1674 51.2272C60.0892 51.806 59.9484 52.3691 59.9953 52.9635C59.964 53.1981 59.9484 53.4328 59.9171 53.6518C59.6355 53.6518 59.5417 53.9959 59.2601 54.0115C59.2445 52.5881 59.2445 51.1647 59.6981 49.7882C60.7774 47.1134 61.3875 44.376 60.9495 41.4666C60.7774 40.356 60.5741 39.2297 60.6523 38.0879C60.9808 38.0879 61.3092 38.0722 61.6377 38.0879C62.2947 38.1348 62.717 37.8532 62.8891 37.2119C63.7338 37.7125 63.9997 38.6041 64.3907 39.4175C64.7818 40.2465 64.8757 41.1537 65.079 42.0297Z" fill="#CDE8F1"/>
<path d="M16.2603 38.0578C13.8827 38.0578 11.4894 38.0578 9.11182 38.0578C8.86155 38.0578 8.61127 38.089 8.34535 38.089C7.62582 38.089 6.90628 38.089 6.18674 38.0734C5.49849 38.0578 5.0918 37.7136 5.0918 37.1349C5.0918 36.5405 5.49849 36.1807 6.1711 36.1807C7.61018 36.1651 9.04925 36.1651 10.504 36.1494C12.2559 36.1494 14.0078 36.1651 15.7597 36.1651C15.9161 36.7907 16.2446 37.3851 16.2603 38.0578Z" fill="#6C5F6A"/>
<path d="M7.51649 14.5784C7.57906 14.9069 7.73547 14.7192 7.87625 14.6566C8.9712 14.1561 10.1287 13.984 11.3175 14.0153C11.1298 14.6722 10.8952 15.3136 11.2393 15.9862C11.3488 16.2052 11.1455 16.2052 11.0203 16.1895C10.0036 16.0331 8.95556 16.0175 8.00139 15.5482C7.62598 15.3449 7.31314 15.0946 7.51649 14.5784Z" fill="#8DCFE3"/>
<path d="M59.9029 53.6528C59.9342 53.4182 59.9498 53.1836 59.9811 52.9646C60.3878 52.5735 60.3878 52.0104 60.5442 51.5411C61.1229 49.8361 62.2179 48.4909 63.3911 47.177C64.2357 46.2385 65.1117 45.3156 65.7061 44.1893C66.0815 43.4698 66.4413 42.7659 66.3631 41.9212C66.3474 41.7961 66.3474 41.6084 66.5351 41.6084C66.7228 41.6084 66.6915 41.7961 66.7072 41.9212C66.801 43.0005 66.3005 43.8921 65.7843 44.7681C65.2681 45.6441 64.5799 46.4105 63.8916 47.1301C62.2179 48.8663 60.9196 50.7747 60.4347 53.1836C60.3878 53.3869 60.2939 53.5903 60.4816 53.778C60.1688 54.4349 60.247 55.1388 60.2313 55.8427C60.1062 55.8427 59.9967 55.8427 59.8716 55.8427C59.9029 55.1075 59.9029 54.388 59.9029 53.6528Z" fill="#1B693A"/>
<path d="M57.4778 13.9988C58.823 13.9675 60.1213 14.2022 61.3257 14.8122C61.3727 15.2815 61.0442 15.4692 60.7001 15.61C59.7772 15.9854 58.7761 16.0323 57.8063 16.1887C57.6498 16.22 57.4465 16.1887 57.5873 15.9541C57.9627 15.2815 57.7124 14.6402 57.4778 13.9988Z" fill="#8DCFE3"/>
<path d="M18.0901 15.2826C18.0275 15.3451 17.965 15.4077 17.9024 15.4546C16.9013 15.9239 15.8064 16.0177 14.7427 16.1898C14.5863 16.2211 14.2891 16.2211 14.4455 15.9552C14.8053 15.2513 14.555 14.6412 14.2891 14.0156C15.4153 13.9999 16.4946 14.1876 17.5583 14.5474C17.7773 14.6256 17.965 14.782 18.137 14.9384C18.1057 15.0479 18.1057 15.1574 18.0901 15.2826Z" fill="#8DCFE3"/>
<path d="M53.5985 16.1126C52.7538 16.0188 51.9091 15.9249 51.127 15.5182C50.8767 15.3931 50.6577 15.2367 50.689 14.9082C51.8465 14.1261 53.1918 14.0479 54.5213 14.0166C54.2711 14.6266 54.0364 15.2367 54.3493 15.9093C54.4431 16.1126 54.3024 16.1909 54.1146 16.1752C53.9426 16.1596 53.7705 16.1283 53.5985 16.1126Z" fill="#8DCFE3"/>
<path d="M56.3039 23.2596C56.1787 24.0417 56.0223 24.8238 55.9441 25.6059C55.7564 27.3266 55.5218 29.0315 55.2715 30.7365C55.162 31.4874 55.0838 32.2382 55.0056 32.989C54.9586 33.3644 54.9586 33.7711 54.3799 33.646C54.5363 33.5052 54.552 33.3018 54.5832 33.1141C55.0369 29.6416 55.5061 26.169 55.9597 22.6809C56.0067 22.3524 56.1787 21.9926 55.9441 21.6641C55.991 21.6485 56.0379 21.6328 56.1005 21.6172C56.5072 21.6954 56.4759 22.0082 56.4134 22.2898C56.3039 22.6026 56.2882 22.9311 56.3039 23.2596Z" fill="#8DCFE3"/>
<path d="M62.8902 37.2131C62.7181 37.8544 62.2958 38.136 61.6388 38.0891C61.3103 38.0734 60.9818 38.0891 60.6533 38.0891C60.4969 37.4477 60.4343 36.8064 60.6377 36.1651C61.0287 36.1494 61.4198 36.1494 61.8108 36.1338C62.4678 36.1964 62.8432 36.5561 62.8902 37.2131Z" fill="#6C5F6A"/>
<path d="M61.81 36.1328C61.419 36.1485 61.0279 36.1485 60.6369 36.1641C60.6056 35.8513 60.6056 35.5228 60.6994 35.21C61.0749 35.5228 61.5598 35.6949 61.81 36.1328Z" fill="#CDE8F1"/>
<path d="M8.36056 38.3076C8.39184 38.4953 8.40748 38.6674 8.34491 38.8551C8.25106 38.6674 8.25106 38.4797 8.36056 38.3076Z" fill="#CDE8F1"/>
<path d="M7.56351 14.2344C7.57915 14.2657 7.57915 14.3126 7.54787 14.3439C7.53223 14.3126 7.53223 14.2969 7.53223 14.2657C7.53223 14.25 7.54787 14.2344 7.56351 14.2344Z" fill="#8DCFE3"/>
<path d="M16.2605 38.0579C16.2449 37.3853 15.9164 36.7909 15.76 36.1652C15.3064 34.3976 14.8058 32.6301 14.6807 30.7843C14.6181 29.9396 14.6181 29.1106 14.7589 28.2815C15.0561 26.5766 16.3231 25.466 18.1532 25.2626C19.4515 25.1218 20.7655 25.1062 22.0637 25.1688C22.2515 25.1688 22.4548 25.247 22.6425 25.1375C23.1587 25.2626 23.6749 25.3721 24.1911 25.5129C25.6301 25.9039 26.7564 26.6704 27.21 28.1564C27.5385 29.1888 27.4446 30.2212 27.2413 31.2692C26.8972 33.0993 26.1307 34.8043 25.5832 36.5719C25.3799 37.2445 25.114 37.9014 25.1922 38.621C25.1609 38.6835 25.114 38.7461 25.0827 38.8087C25.0357 39.2936 24.8324 39.7785 25.0514 40.2634C25.0514 40.7483 25.1765 41.1706 25.4268 41.593C25.7396 42.1092 26.0525 42.641 26.2871 43.1885C26.4435 43.5639 26.6312 43.6734 27.0223 43.6734C28.8055 43.6577 30.5731 43.689 32.3563 43.6577C33.1071 43.6421 33.7328 43.8298 34.2333 44.4086C34.3897 44.7214 34.3741 45.0812 34.4367 45.4253C34.4054 45.6286 34.3897 45.8163 34.3584 46.0197C34.202 46.223 34.0456 46.4264 33.9048 46.6297C33.5294 46.7705 33.1696 46.9426 32.7786 46.9895C32.4188 46.9895 32.0434 46.9895 31.6836 46.9895C30.4323 46.9895 29.1809 46.9895 27.9295 46.9895C24.5978 46.9895 21.266 46.9895 17.9499 46.9895C17.7465 46.9426 17.5588 46.8957 17.3555 46.8487C16.5421 46.3013 16.4639 45.5348 16.5577 44.6432C16.6672 43.5952 16.8706 42.5315 16.7611 41.4678C17.0426 40.717 16.9488 39.9662 16.6516 39.2467C16.5734 38.8087 16.5421 38.402 16.2605 38.0579Z" fill="#018D8E"/>
<path d="M47.1225 21.6328C47.2007 21.6328 47.279 21.6328 47.3728 21.6328C47.3259 22.2898 47.7013 22.3367 48.2488 22.3211C50.1571 22.2898 52.0811 22.3054 54.0051 22.3054C54.4274 22.3054 54.9436 22.1334 55.2564 22.3993C55.5849 22.6652 55.2564 23.1345 55.2251 23.5099C55.0844 24.9802 54.8967 26.4349 54.7246 27.9053C54.5525 29.3131 54.3492 30.7052 54.1928 32.113C54.1302 32.6449 54.0051 32.8951 53.395 32.8795C48.2488 32.8482 43.1025 32.8638 37.9719 32.8638C37.8311 32.8638 37.6903 32.8638 37.5652 32.8638C37.3775 32.8638 37.2993 32.77 37.3149 32.5666C37.3931 31.9097 37.4557 31.2527 37.5496 30.5957C37.7373 29.2036 37.925 27.8271 38.097 26.4506C38.2535 25.2461 38.4099 24.0261 38.535 22.806C38.5819 22.368 38.7697 22.2898 39.1763 22.2898C41.5383 22.3054 43.9159 22.2898 46.2779 22.3054C46.7941 22.3367 47.1695 22.2898 47.1225 21.6328Z" fill="#1A1734"/>
<path d="M25.1922 38.6049C25.1297 37.8853 25.3799 37.2127 25.5833 36.5558C26.1308 34.7882 26.8816 33.0832 27.2414 31.2531C27.4447 30.2051 27.5229 29.157 27.2101 28.1403C26.7408 26.6543 25.6146 25.8878 24.1911 25.4968C23.675 25.356 23.1588 25.2465 22.6426 25.1214C22.8772 24.5113 23.2057 23.9795 23.675 23.5415C23.8939 23.3382 24.1129 23.1505 24.4258 23.1348C24.6604 23.1661 24.895 23.1818 25.114 23.0723C25.552 23.0723 25.99 23.0723 26.4436 23.0723C27.3978 23.1348 28.3363 23.3225 29.3061 23.2443C30.2916 23.3538 30.9329 23.9795 31.4022 24.7773C32.3407 26.3728 33.2636 27.9839 34.0926 29.6576C34.3429 30.1425 34.3429 30.4866 33.9049 30.8151C33.6703 30.8777 33.5295 31.0654 33.3887 31.2374C32.6066 31.6285 31.8558 32.0665 31.0111 32.3011C30.8703 32.348 30.8234 32.4262 30.9485 32.5514C30.9798 32.9894 31.0111 33.4117 31.1988 33.8184C31.2457 34.4754 31.3865 35.1167 31.6994 35.6954C31.6994 35.8988 31.7619 36.0552 31.9183 36.1804C32.1999 36.9155 32.4502 37.6507 33.1854 38.0731C33.1697 38.3077 33.4982 38.3703 33.4669 38.6205C32.4971 39.4496 31.3552 39.9188 30.1039 40.1847C28.4302 40.5289 26.7564 40.4037 25.0827 40.2629C24.8638 39.778 25.0827 39.2931 25.114 38.8082C25.6928 39.2306 26.3498 39.2775 27.0224 39.1836C28.0235 39.0272 28.8369 38.4797 29.572 37.8384C30.0569 37.4161 30.4323 36.7278 31.2927 37.0876C30.839 36.6653 30.4949 36.6809 30.01 37.1345C29.3687 37.7446 28.7274 38.3546 27.8983 38.6987C26.9754 39.0429 26.0682 39.1993 25.1922 38.6049ZM28.0391 23.7762C27.7106 23.87 27.6168 24.1516 27.5229 24.4175C27.3196 24.9806 27.3509 25.575 27.4603 26.1538C27.9609 28.547 28.962 30.7056 30.3541 32.6922C30.3698 32.7235 30.448 32.7234 30.5106 32.7391C30.5262 32.4575 30.3385 32.2855 30.2134 32.0978C29.0871 30.4553 28.305 28.6565 27.8045 26.7169C27.5855 25.7314 27.4134 24.7303 28.0391 23.7762Z" fill="#37ACE0"/>
<path d="M47.122 21.632C47.169 22.289 46.7936 22.3359 46.2461 22.3203C43.8841 22.289 41.5065 22.3203 39.1446 22.3046C38.7379 22.3046 38.5502 22.3828 38.5032 22.8208C38.3938 24.0409 38.2217 25.2453 38.0653 26.4654C37.8932 27.8576 37.6899 29.2341 37.5178 30.6106C37.4396 31.2676 37.377 31.9245 37.2832 32.5815C37.2519 32.7848 37.3301 32.8787 37.5334 32.8787C37.6742 32.8787 37.7993 32.8787 37.9401 32.8787C43.0864 32.8787 48.2326 32.8631 53.3632 32.8943C53.9733 32.8943 54.1141 32.6597 54.161 32.1279C54.3018 30.7201 54.5208 29.3123 54.6928 27.9201C54.8649 26.4498 55.0526 24.9951 55.1934 23.5247C55.2247 23.1493 55.5531 22.68 55.2247 22.4141C54.8962 22.1482 54.3956 22.3203 53.9733 22.3203C52.0493 22.3046 50.141 22.289 48.217 22.3359C47.6695 22.3516 47.2941 22.3046 47.341 21.6477C50.1879 21.6164 53.0348 21.5695 55.8816 21.6789C56.1163 22.0074 55.9442 22.3672 55.8973 22.6957C55.4436 26.1682 54.9744 29.6564 54.5208 33.129C54.4895 33.3323 54.4738 33.52 54.3174 33.6608C52.7845 33.7547 51.2359 33.6764 49.703 33.7077C48.827 33.7234 47.9511 33.7234 47.0751 33.739C46.9187 33.739 46.7779 33.739 46.6215 33.739C43.3367 33.7234 40.0362 33.7234 36.7513 33.7077L36.767 33.7234C36.72 33.6764 36.6731 33.6452 36.6418 33.5982H36.6575C36.3759 33.0977 36.5949 32.5346 36.6888 32.0809C37.0955 29.9849 37.2519 27.8732 37.5804 25.7772C37.7681 24.5571 37.9088 23.337 38.0653 22.1169C38.1122 21.7884 38.253 21.632 38.5971 21.632C41.4596 21.6164 44.2908 21.6164 47.122 21.632Z" fill="#162868"/>
<path d="M30.3543 19.1461C30.3543 19.2243 30.3387 19.3025 30.3387 19.3807C30.1353 19.4746 29.8381 19.24 29.6974 19.5059C29.5566 19.7874 29.8069 20.0064 29.932 20.2411C29.9476 20.2723 29.9789 20.3036 30.0102 20.3349C29.5409 21.3829 29.1968 21.5706 28.2583 21.2891C28.1801 21.2265 28.1019 21.1796 28.0237 21.117C27.2572 20.6008 27.2728 19.9126 28.0549 19.4277C28.4773 19.1774 28.7432 18.2232 28.5242 17.8009C28.3991 17.5506 28.1801 17.4255 27.9142 17.4255C27.6639 17.4255 27.4605 17.5506 27.3354 17.7696C27.1477 18.0668 27.2259 18.3797 27.3354 18.6769C27.6639 19.5841 26.8974 20.6165 25.912 20.5695C24.7857 19.3651 24.0818 17.926 23.9567 16.2836C23.8472 14.9227 25.3801 13.468 26.8505 13.4211C27.7577 13.3898 28.6493 13.4837 29.5409 13.6088C30.761 13.7652 30.9644 14.2971 30.2292 15.2669C29.8851 15.5954 29.3063 15.7518 29.3376 16.3775C29.3532 16.7059 29.2437 16.9562 29.0717 17.2378C28.7588 17.754 28.665 18.3171 28.8996 18.9115C29.0404 19.2556 29.1968 19.5059 29.6348 19.2243C29.8225 19.0835 30.0884 19.0992 30.3543 19.1461Z" fill="#623221"/>
<path d="M31.6685 35.6948C31.3713 35.1004 31.2305 34.4747 31.168 33.8178C31.4339 33.8021 31.6529 33.9585 31.8719 34.0524C31.997 34.0993 32.1221 34.2401 32.2473 34.115C32.3881 33.9585 32.216 33.8334 32.1378 33.7083C31.8719 33.2859 31.5277 32.9105 31.3557 32.4256C31.7937 32.2223 32.2473 32.0502 32.654 31.8156C32.9199 31.6748 33.2953 31.6279 33.3579 31.2212C33.4986 31.0491 33.6394 30.877 33.8741 30.7988C34.14 32.4412 35.2506 33.5362 36.7053 33.5675H36.6896C36.7366 33.6144 36.7835 33.6457 36.8148 33.6926L36.7991 33.677C36.8461 33.7239 36.893 33.8021 36.9712 33.8334C38.2851 34.3809 39.646 34.7563 41.0069 35.1786C41.1789 35.2255 41.3979 35.1943 41.5856 35.163C42.4303 35.0066 43.2593 34.9596 44.0883 35.3038C44.5263 35.4915 45.0269 35.5697 45.4805 35.6948C45.4961 35.8512 45.4961 35.992 45.5118 36.1484C44.1196 36.1797 42.7431 36.1954 41.351 36.1328C40.9756 35.8512 40.3342 35.8512 39.9745 36.1328C38.551 36.1328 37.1433 36.1484 35.7198 36.1484C35.626 35.9607 35.4695 35.9451 35.2818 35.9294C34.0774 35.8512 32.873 35.773 31.6685 35.6948Z" fill="#E0B596"/>
<path d="M25.8951 20.5532C26.8805 20.6002 27.6627 19.5678 27.3185 18.6605C27.209 18.3633 27.1308 18.0661 27.3185 17.7533C27.4437 17.5343 27.647 17.4092 27.8973 17.4092C28.1632 17.4092 28.3822 17.55 28.5073 17.7846C28.7263 18.2069 28.4604 19.1611 28.0381 19.4114C27.256 19.8963 27.2403 20.5845 28.0068 21.1007C28.085 21.1476 28.1632 21.2102 28.2414 21.2728C28.0224 21.8203 28.1476 22.3834 28.1006 22.9465C27.866 22.9465 27.6314 22.9465 27.3967 22.9308C26.7241 22.8996 26.0515 22.8839 25.3789 22.8526C25.551 22.1018 25.723 21.3197 25.8951 20.5532Z" fill="#E0B596"/>
<path d="M30.3535 19.1458C30.1032 19.1146 29.8373 19.0833 29.6183 19.2241C29.196 19.49 29.0239 19.2553 28.8831 18.9112C28.6485 18.3168 28.7424 17.7537 29.0552 17.2375C29.2273 16.9559 29.3368 16.7057 29.3211 16.3772C29.2898 15.7515 29.8686 15.5951 30.2127 15.2666C30.3691 15.7046 30.6351 16.1269 30.3379 16.5962C30.025 16.5805 29.6809 16.4867 29.587 16.9403C29.8373 16.8152 30.1032 16.7995 30.3691 16.8152C30.5412 17.3157 30.5256 17.8945 30.9479 18.3012C31.1356 18.4732 30.9635 18.6297 30.8228 18.7235C30.6351 18.8486 30.4317 18.9269 30.3535 19.1458Z" fill="#E0B596"/>
<path d="M27.3966 22.9473C27.6312 22.9473 27.8658 22.9473 28.1005 22.9629C28.4915 23.1037 28.9608 22.9003 29.2893 23.2445C28.3195 23.3227 27.3809 23.135 26.4268 23.0724C26.7396 22.9473 27.0994 23.1193 27.3966 22.9473Z" fill="#353F80"/>
<path d="M29.994 20.3184C29.9627 20.2871 29.9314 20.2715 29.9158 20.2246C29.7906 19.9899 29.5404 19.771 29.6811 19.4894C29.8063 19.2391 30.1191 19.4581 30.3225 19.3643C30.3537 19.7397 30.1504 20.0212 29.994 20.3184Z" fill="#E0B596"/>
<path d="M27.3964 22.9474C27.0835 23.1351 26.7394 22.963 26.4265 23.0725C25.9886 23.0725 25.5506 23.0725 25.097 23.0725C25.0031 23.0256 24.9093 22.9786 24.8311 22.9317C25.0188 22.9161 25.1908 22.8848 25.3785 22.8691C26.0511 22.9004 26.7237 22.9161 27.3964 22.9474Z" fill="#162868"/>
<path d="M30.3534 16.8154C30.0875 16.7998 29.8216 16.8154 29.5713 16.9405C29.6495 16.4713 30.0093 16.5651 30.3221 16.5964C30.3378 16.659 30.3534 16.7372 30.3534 16.8154Z" fill="#623221"/>
<path d="M24.8318 22.9312C24.9256 22.9781 25.0038 23.0251 25.0977 23.072C24.8787 23.1971 24.6441 23.1658 24.4094 23.1345C24.4876 22.9156 24.6441 22.8999 24.8318 22.9312Z" fill="#353F80"/>
<path d="M48.5615 61.521C48.8274 60.5199 48.843 59.4875 48.9838 58.4708C49.0776 57.6574 49.1715 56.844 49.2654 56.0306C49.4687 54.2474 49.6721 52.4798 49.8754 50.6966C50.0944 48.7727 50.329 46.833 50.5637 44.9091C50.7514 43.3918 50.9391 41.8589 51.1111 40.3416C51.2519 39.0276 51.2832 39.231 50.2039 39.231C49.1089 39.2153 49.1089 39.231 49.0307 38.1047C51.1737 38.0422 53.3167 38.0578 55.4596 38.1047C55.4127 38.4802 55.3501 38.8556 55.3032 39.231C54.6932 39.231 54.0675 39.231 53.4574 39.2466C53.3167 39.1528 53.3167 38.8712 53.129 38.9025C52.9569 38.9338 52.9413 39.1684 52.8787 39.3248C52.1435 40.936 51.8307 42.6253 52.0809 44.3929C51.7212 45.8476 51.6273 47.3336 51.3927 48.804C51.0955 50.7592 50.8296 52.7145 50.5793 54.6697C50.4072 55.9055 50.2665 57.1255 50.11 58.3613C49.891 59.4406 49.7346 60.5199 49.6564 61.6148C49.5313 62.5846 49.3905 63.5388 49.2654 64.5086C49.2184 64.8997 48.9994 65.103 48.5927 65.0405C48.1235 64.9779 48.2799 64.665 48.3268 64.3835C48.3894 63.4137 48.4676 62.4595 48.5615 61.521Z" fill="#E0B596"/>
<path d="M17.9023 46.9883C21.234 46.9883 24.5658 46.9883 27.8819 46.9883C27.8819 47.1916 27.8663 47.4106 27.8663 47.614C26.2239 47.5983 24.5971 47.5827 22.9547 47.567C22.548 47.567 22.6731 47.8642 22.6731 48.0676C22.6888 49.6005 22.6888 51.1491 22.7201 52.682C22.7513 54.4965 22.7044 56.311 22.8295 58.1098C22.8295 59.1735 22.8452 60.2215 22.8452 61.2852C22.8452 62.3801 22.8608 63.4594 22.8608 64.5544C22.8608 64.7264 22.9703 64.9611 22.6262 64.9767C22.329 64.9923 22.329 64.8046 22.329 64.6013C22.2664 63.5376 22.1882 62.474 22.1256 61.4103C22.1726 60.4718 22.0474 59.5489 22.0005 58.6104C21.9223 57.1556 21.8597 55.6853 21.7815 54.2306C21.672 52.1658 21.5469 50.1011 21.453 48.0363C21.4374 47.6765 21.3279 47.567 20.9681 47.5827C20.4989 47.614 20.0296 47.614 19.5603 47.5827C19.2162 47.567 19.1224 47.6922 19.1224 48.0207C19.1067 48.7558 19.0442 49.5067 19.0129 50.2418C18.8877 53.2295 18.6218 56.2015 18.6062 59.1891C18.5749 59.2517 18.528 59.3299 18.5123 59.3925C18.4185 61.0818 18.3403 62.7712 18.2621 64.4449C18.2621 64.4762 18.2464 64.5231 18.2464 64.5544C18.2308 64.7577 18.2777 64.9923 17.9336 64.9767C17.6051 64.9611 17.6989 64.7264 17.6989 64.5544C17.6989 63.5689 17.6989 62.5678 17.7146 61.5824C17.7302 61.0192 17.7302 60.4561 17.7459 59.893C17.7459 59.6584 17.7459 59.4238 17.7459 59.1891C17.7459 59.1109 17.7459 59.0327 17.7302 58.9389C17.7302 58.7981 17.7146 58.6573 17.7146 58.5165C17.8397 57.7813 17.7615 57.0462 17.7771 56.311C17.8084 54.8563 17.8084 53.4015 17.871 51.9312C17.8866 51.5558 17.6989 51.2116 17.7615 50.8519C17.9492 50.6955 17.8554 50.4921 17.8554 50.32C17.9023 49.1938 17.9023 48.0832 17.9023 46.9883Z" fill="#1A1734"/>
<path d="M27.8664 47.614C27.8664 47.4106 27.8821 47.1916 27.8821 46.9883C29.1335 46.9883 30.3848 46.9883 31.6362 46.9883C31.6362 47.2698 31.6362 47.5358 31.6362 47.8173C31.777 49.4441 31.7926 51.0709 32.0116 52.682C32.0898 53.9334 32.1367 55.1691 32.2306 56.4205C32.2619 56.7959 32.0742 57.1869 32.3401 57.5467C32.4027 57.6875 32.4183 57.8283 32.4339 57.9847C32.4809 58.5165 32.3088 59.0953 32.6842 59.5802C32.4183 59.5645 32.4809 59.7522 32.4965 59.893C32.5278 60.2841 32.5591 60.6595 32.5904 61.0505C32.5121 61.7701 32.6999 62.474 32.7155 63.1935C32.7468 63.3656 32.7781 63.5533 32.8093 63.7253C32.825 64.0225 32.825 64.3041 32.8406 64.6013C32.8406 64.7734 32.8719 64.9611 32.5904 64.9611C32.3557 64.9611 32.2932 64.8203 32.2775 64.6326C32.2149 64.1477 32.168 63.6628 32.1055 63.1779C32.1055 63.0371 32.1055 62.9119 32.1055 62.7712C32.0742 62.1768 32.0429 61.5824 31.996 61.0036C31.9803 60.8628 31.9021 60.7533 31.777 60.6751C31.7144 59.0327 31.4641 57.4059 31.2764 55.7791C31.1982 54.9658 31.12 54.1367 31.0574 53.3233C30.9323 52.1502 30.8384 50.977 30.682 49.8195C30.6351 49.5379 30.7289 49.1782 30.4474 48.9592C30.6977 47.8799 30.4787 47.567 29.5089 47.5827C29.1804 47.5827 29.0709 47.6765 29.0709 48.005C29.0552 48.7246 28.9927 49.4441 28.9614 50.1636C28.9301 50.6329 28.8988 51.1022 28.8988 51.5558C28.8988 52.4787 28.5703 53.4015 28.8675 54.3244C28.6329 54.9188 28.7268 55.5445 28.6798 56.1546C28.6642 56.311 28.6485 56.4674 28.6485 56.6238C28.6485 56.6551 28.6485 56.702 28.6485 56.7333C28.586 58.2193 28.3983 59.6897 28.4296 61.1757C28.367 62.255 28.3201 63.3186 28.2418 64.3979C28.2262 64.6169 28.367 64.9611 27.9603 64.9767C27.5223 64.9924 27.6944 64.6326 27.6787 64.4136C27.6631 63.3343 27.6787 62.2706 27.6787 61.1913C27.6944 60.6438 27.6944 60.0964 27.71 59.5333C27.71 59.4238 27.71 59.3143 27.71 59.2048C27.9134 58.7042 27.7882 58.2037 27.7726 57.6875C27.7569 57.5623 27.7569 57.4372 27.7413 57.3121C27.7413 57.2339 27.7413 57.1557 27.7413 57.0774C27.7413 57.0462 27.7413 56.9992 27.7413 56.9679C27.7413 56.8115 27.7413 56.6551 27.7413 56.4987C27.7569 55.8886 27.7569 55.2786 27.7726 54.6686C27.8352 54.1837 27.8508 53.6987 27.8664 53.2295C27.8977 52.682 27.9916 52.0876 27.6787 51.5714C27.8352 51.3681 27.8039 51.1334 27.8195 50.8988C27.8195 49.7882 27.8352 48.6933 27.8664 47.614Z" fill="#353F80"/>
<path d="M32.7005 63.1784C32.6692 62.4588 32.4972 61.7549 32.5754 61.0354C32.9351 61.2231 33.2793 61.3013 33.5765 60.9416C33.7485 60.7382 33.9519 60.8008 34.1709 60.879C34.2021 60.9728 34.2491 61.0667 34.2804 61.1605C34.3116 61.27 34.3273 61.3795 34.3586 61.5047C34.2491 61.5516 34.1396 61.5985 34.0301 61.6455C33.7798 61.7237 33.4826 61.927 33.5765 62.1147C33.7172 62.365 33.8737 61.9114 34.0926 61.9583C34.1083 61.9583 34.1396 61.9114 34.1709 61.8801H34.1865C34.1865 61.9583 34.1865 62.0365 34.1865 62.1147C34.0926 62.2086 33.9675 62.2868 34.0301 62.4276C34.0926 62.5527 34.2178 62.4276 34.3116 62.4588C34.3742 62.5996 34.3586 62.8968 34.3898 62.8655C34.6401 62.6622 35.0937 62.9281 35.2189 62.4901C35.8602 62.8812 36.5015 63.2722 37.1429 63.6633C37.1429 63.6946 37.1585 63.7259 37.1898 63.7571C37.1898 63.8197 37.1741 63.8823 37.1741 63.9605C36.8613 64.289 36.4546 64.3203 36.0479 64.3046C35.3597 64.289 34.7183 64.0543 34.0926 63.8041C33.5921 63.6164 33.201 63.2566 32.7005 63.1784Z" fill="#623221"/>
<path d="M18.7781 59.2999C18.8563 60.0508 18.8563 60.8172 19.0753 61.5368C19.0597 62.4909 19.31 63.4138 19.3569 64.3523C19.3725 64.587 19.5602 64.8842 19.2005 64.9937C18.8876 65.0875 18.5748 65.0719 18.4496 64.6652C18.4183 64.5713 18.3558 64.5088 18.2932 64.4306C18.3714 62.7412 18.4496 61.0519 18.5435 59.3782C18.5435 59.3156 18.6061 59.2374 18.6373 59.1748C18.6686 59.2061 18.7312 59.253 18.7781 59.2999Z" fill="#C18979"/>
<path d="M32.6997 63.1787C33.2159 63.2569 33.607 63.601 34.0606 63.7888C34.7019 64.039 35.3276 64.2737 36.0158 64.2893C36.4225 64.3049 36.8292 64.258 37.1421 63.9452C37.189 64.477 36.8449 64.6334 36.4069 64.6804C35.2963 64.7898 34.3108 64.3519 33.3254 63.9452C33.1533 63.867 32.9656 63.8044 32.7936 63.7262C32.7623 63.5385 32.731 63.3664 32.6997 63.1787Z" fill="#E0B596"/>
<path d="M31.3085 61.2545C31.4649 61.0668 31.6213 60.8635 31.7777 60.6758C31.8872 60.754 31.9811 60.8478 31.9967 61.0043C32.028 61.5987 32.0749 62.1931 32.1062 62.7718C31.7308 62.4433 31.199 62.3338 30.9644 61.8489C31.1364 61.6925 31.2616 61.4892 31.3085 61.2545Z" fill="#623221"/>
<path d="M30.9491 61.8486C31.1838 62.3335 31.7312 62.443 32.091 62.7715C32.091 62.9123 32.091 63.0374 32.091 63.1782C31.5905 63.1313 31.2933 62.7402 30.9335 62.4743C30.7145 62.3179 30.7771 62.052 30.9491 61.8486Z" fill="#CDE8F1"/>
<path d="M34.1696 61.8793H34.154C34.107 61.8011 34.0601 61.7229 34.0288 61.6447C34.1383 61.5978 34.2478 61.5508 34.3573 61.5039C34.5763 61.5195 34.5919 61.7229 34.6858 61.848C34.5607 61.9732 34.7327 62.0983 34.6858 62.2234C34.4981 62.1922 34.3886 62.3173 34.2947 62.4581C34.2009 62.4268 34.0757 62.5519 34.0132 62.4268C33.9506 62.286 34.0757 62.1922 34.1696 62.1139C34.2478 62.0827 34.3886 62.1139 34.3886 61.9888C34.3886 61.8637 34.2478 61.895 34.1696 61.8793Z" fill="#CDE8F1"/>
<path d="M34.2961 62.4591C34.39 62.3183 34.4995 62.1932 34.6872 62.2245C34.7185 62.3027 34.6872 62.4278 34.828 62.4122C34.9375 62.3965 34.9375 62.287 34.9375 62.1932C35.1721 62.1619 35.1721 62.334 35.2034 62.4904C35.0782 62.9284 34.6246 62.6624 34.3744 62.8658C34.3431 62.8814 34.3744 62.5842 34.2961 62.4591Z" fill="#E0B596"/>
<path d="M34.9378 62.1927C34.9378 62.2866 34.9378 62.3804 34.8283 62.4117C34.6875 62.4274 34.7188 62.3022 34.6875 62.224C34.8596 62.1302 34.797 62.005 34.7501 61.8799C34.9378 61.9112 34.9065 62.0676 34.9378 62.1927Z" fill="#CDE8F1"/>
<path d="M34.7491 61.8799C34.8116 62.0051 34.8586 62.1302 34.6865 62.224C34.7178 62.0989 34.5614 61.9738 34.6865 61.8486C34.7021 61.8643 34.7178 61.8799 34.7491 61.8799Z" fill="#E0B596"/>
<path d="M37.1744 63.7569C37.1431 63.7413 37.1274 63.71 37.1274 63.6631C37.1587 63.6787 37.1744 63.6944 37.2057 63.71C37.2057 63.71 37.19 63.7413 37.1744 63.7569Z" fill="#E0B596"/>
<path d="M54.9587 57.3912C54.8805 57.2035 54.8179 57.094 54.552 57.2035C53.3476 57.7353 52.0806 58.0794 50.7666 58.2828C50.532 58.3141 50.313 58.3141 50.0784 58.3454C50.2348 57.1096 50.3912 55.8895 50.5476 54.6538C50.8135 52.6986 51.0638 50.7277 51.361 48.788C51.5957 47.3177 51.6895 45.8317 52.0493 44.377C52.3778 46.0819 53.2694 47.3802 54.6928 48.4126C56.4603 49.6953 57.4458 51.5098 57.6492 53.6997C57.7117 54.3879 57.6648 55.1074 57.6804 55.7957C56.9609 55.9052 56.2414 55.8426 55.5375 55.8426C55.1151 55.8426 54.9274 55.9521 54.9744 56.4057C55.0056 56.7342 54.9587 57.0627 54.9587 57.3912Z" fill="#CDE8F1"/>
<path d="M57.6813 55.8109C57.6813 55.1071 57.7282 54.4032 57.65 53.7149C57.4467 51.525 56.4456 49.7105 54.6936 48.4279C53.2702 47.3955 52.3786 46.0972 52.0501 44.3922C51.7999 42.6247 52.1127 40.9353 52.8479 39.3242C52.9104 39.1677 52.9261 38.9331 53.0981 38.9018C53.2859 38.8705 53.2859 39.1521 53.4266 39.246C53.4266 39.3398 53.411 39.4337 53.4266 39.5275C53.7238 41.4828 54.8188 42.9375 56.2735 44.1732C56.8053 44.7051 57.3372 45.2212 57.7908 45.8313C58.2757 46.8324 58.4008 47.9117 58.4008 49.0223C58.4008 50.0234 58.4477 51.0088 58.479 52.0099C58.4008 53.3082 58.0411 54.5752 57.9941 55.8735C57.9003 55.8422 57.7908 55.8266 57.6813 55.8109Z" fill="#1B693A"/>
<path d="M59.6822 49.7893C59.2285 51.1658 59.2442 52.5893 59.2442 54.0127C59.2285 54.6227 59.2129 55.2171 59.1973 55.8272C59.0878 55.8428 58.9783 55.8428 58.8688 55.8585C58.8531 55.1233 58.8531 54.3881 58.8375 53.6373C58.9313 52.1982 59.0095 50.7591 59.1034 49.3201C59.3067 48.3972 59.2442 47.4586 59.1503 46.5358C58.9939 44.8464 58.4464 43.2353 58.1649 41.5616C57.9302 40.1851 57.9772 38.8086 58.2587 37.4321C58.29 37.2913 58.3213 37.1349 58.4934 37.1505C58.6967 37.1661 58.7123 37.3382 58.6811 37.5103C58.3682 39.137 58.3839 40.7638 58.728 42.3906C58.8844 43.1571 59.119 43.8922 59.2598 44.6587C59.5414 46.1916 59.8542 47.7246 59.557 49.2888C59.557 49.4608 59.5257 49.6485 59.6822 49.7893Z" fill="#1B693A"/>
<path d="M58.8532 53.6366C58.8689 54.3717 58.8689 55.1069 58.8845 55.8577C58.5873 55.8577 58.2901 55.8577 57.9929 55.8577C58.0398 54.5594 58.3996 53.2924 58.4778 51.9941C58.5873 52.0567 58.603 52.1818 58.6342 52.2913C58.7907 52.7293 58.6655 53.2142 58.8532 53.6366Z" fill="#E0B596"/>
<path d="M17.7623 59.8781C17.6215 59.6747 17.4651 59.6434 17.2148 59.6903C15.9478 59.925 14.6808 60.1127 13.3981 60.1127C11.9591 60.1127 10.5825 59.8311 9.22168 59.3932C9.44067 57.7664 9.64402 56.1396 9.86301 54.5285C10.2384 51.838 10.6138 49.1632 10.9892 46.4728C11.3021 44.189 11.6306 41.9209 11.9278 39.6372C11.9747 39.34 12.0842 39.2305 12.3814 39.2305C13.1009 39.2461 13.8205 39.2461 14.5556 39.2305C14.8841 39.2305 14.978 39.3712 15.0249 39.6841C15.3221 41.8427 15.6349 44.0013 15.9321 46.1756C16.4327 49.7107 16.9176 53.2458 17.4181 56.7653C17.4964 57.344 17.4181 57.9697 17.7623 58.5016C17.7623 58.6423 17.7779 58.7831 17.7779 58.9239C17.6997 59.0021 17.6997 59.096 17.7936 59.1742C17.7623 59.4088 17.7623 59.6434 17.7623 59.8781Z" fill="#CDE8F1"/>
<path d="M17.9032 46.9885C17.9032 48.099 17.9032 49.2096 17.9032 50.3046C17.9032 50.4766 17.9971 50.6956 17.8094 50.8364C17.5747 50.0856 17.6217 49.2878 17.4809 48.5057C17.387 47.9583 17.3714 47.3951 17.3245 46.832C17.5122 46.8946 17.6999 46.9415 17.9032 46.9885Z" fill="#CDE8F1"/>
<path d="M16.6045 39.2305C16.9017 39.9656 16.9799 40.7008 16.714 41.4516C16.4793 40.8103 16.5419 40.1221 16.4011 39.4651C16.3855 39.3243 16.4793 39.2461 16.6045 39.2305Z" fill="#CDE8F1"/>
<path d="M55.4442 38.1047C53.3013 38.0578 51.1583 38.0578 49.0153 38.1047C48.8589 38.1047 48.7025 38.0891 48.5461 38.0891C43.4154 38.0891 38.2848 38.0891 33.1542 38.0734C32.419 37.6511 32.1688 36.9003 31.8872 36.1807C33.1699 36.1651 34.4525 36.1651 35.7352 36.1494C37.1586 36.1494 38.5664 36.1338 39.9898 36.1338C40.4434 36.1338 40.9127 36.1338 41.3663 36.1338C42.7585 36.1964 44.135 36.1807 45.5271 36.1494C46.7629 36.1494 48.0142 36.1338 49.25 36.1338C51.2834 36.1494 53.3169 36.1494 55.366 36.1651C55.6319 36.1651 55.9135 36.1807 56.1794 36.1807C55.9761 36.8377 55.5381 37.4008 55.4442 38.1047Z" fill="#6C5F6A"/>
<path d="M56.2884 44.1734C54.8337 42.9376 53.7231 41.4829 53.4415 39.5277C53.4259 39.4338 53.4415 39.34 53.4415 39.2461C54.0516 39.2461 54.6773 39.2461 55.2873 39.2305C55.3186 40.4506 55.694 41.5455 56.2727 42.5935C55.9755 43.1254 56.3666 43.6415 56.2884 44.1734Z" fill="#CDE8F1"/>
<path d="M58.8535 53.6374C58.6501 53.1994 58.7909 52.7145 58.6345 52.2765C58.6032 52.167 58.5875 52.0419 58.478 51.9793C58.4468 50.9782 58.3842 49.9928 58.3998 48.9917C58.3998 47.8811 58.2903 46.8174 57.7898 45.8007C57.8054 45.5348 57.8211 45.2688 57.8211 45.0029C58.525 46.3638 58.9629 47.7872 59.1037 49.3045C59.0255 50.7592 58.9473 52.1983 58.8535 53.6374Z" fill="#CDE8F1"/>
<path d="M57.8371 45.0173C57.8214 45.2832 57.8058 45.5492 57.8058 45.8151C57.3522 45.2207 56.8203 44.6888 56.2885 44.157C56.3667 43.6252 55.9757 43.109 56.2729 42.5771C56.9455 43.3123 57.4773 44.1101 57.8371 45.0173Z" fill="#E0B596"/>
<path d="M49.2492 36.1335C48.0135 36.1335 46.7621 36.1492 45.5264 36.1492C45.5108 35.9927 45.5108 35.852 45.4951 35.6955C45.5108 35.5704 45.5733 35.4453 45.6985 35.4609C46.4336 35.5861 46.418 35.0073 46.5275 34.5537C46.5901 34.2721 46.6213 33.9906 46.6683 33.6934C46.8247 33.6934 46.9655 33.6934 47.1219 33.6934C47.028 34.1313 46.9498 34.5693 46.8247 34.9917C46.7308 35.3358 46.8403 35.4609 47.1845 35.4453C47.6537 35.4296 48.123 35.4766 48.5766 35.4296C49.1241 35.3984 49.3274 35.6017 49.2492 36.1335Z" fill="#8DCFE3"/>
<path d="M32.6685 59.5649C32.2931 59.08 32.4652 58.5013 32.4183 57.9694C32.4026 57.813 32.387 57.6722 32.3244 57.5314C32.6372 56.6555 32.6216 55.7326 32.7937 54.8254C32.9657 54.622 32.9814 54.3717 33.0283 54.1215C33.3255 52.1975 33.6383 50.2735 33.9512 48.3495C34.0763 47.5674 34.2014 46.7853 34.3109 46.0032C34.3422 45.7999 34.3579 45.6122 34.3892 45.4088C34.7176 44.7831 34.8741 44.1105 35.0461 43.3753C34.7176 43.5161 34.8428 43.8759 34.5769 43.9541C34.3892 43.8759 34.4674 43.5474 34.2015 43.563C34.1702 43.5161 34.1232 43.4848 34.092 43.4379C34.0763 43.4223 34.0607 43.4223 34.045 43.4066C34.0607 43.4223 34.0763 43.4223 34.092 43.4379C34.1389 43.4692 34.1702 43.5161 34.2171 43.5474C34.2797 43.829 34.4361 44.1105 34.2015 44.3921C33.7165 43.8133 33.0909 43.6256 32.3244 43.6413C30.5412 43.6725 28.7736 43.6412 26.9904 43.6569C26.5994 43.6569 26.4117 43.5474 26.2553 43.172C26.0206 42.6245 25.7234 42.0927 25.3949 41.5765C25.1447 41.1542 25.0195 40.7318 25.0195 40.2469C26.6932 40.3877 28.3669 40.5128 30.0406 40.1687C31.292 39.9184 32.4339 39.4492 33.4037 38.6045C34.9992 39.1363 36.6103 39.6682 38.2058 40.2C38.7533 40.638 39.3321 41.0134 39.9734 41.3106C39.989 41.4201 39.9734 41.5609 40.0203 41.6547C40.5365 42.5932 40.5209 43.5943 40.3175 44.6111C40.0672 45.9094 39.5667 47.1451 39.1913 48.4121C38.941 49.2255 38.5656 50.0076 38.4561 50.8679C38.4717 50.8992 38.4561 50.9305 38.4405 50.9618C38.4248 50.9774 38.4092 50.9774 38.4092 50.993C38.4092 51.0243 38.4248 51.04 38.4405 51.0713C38.3935 51.2433 38.3466 51.4154 38.284 51.5718C37.6896 53.0578 37.0796 54.5282 36.4852 56.0142C35.8595 57.2186 35.2495 58.423 34.6238 59.6118C34.5299 59.7839 34.4987 60.0342 34.2171 60.0498C33.6853 59.8934 33.1534 59.8308 32.6685 59.5649Z" fill="#162868"/>
<path d="M32.0119 52.6668C31.7773 51.0556 31.7773 49.4289 31.6365 47.8021C32.0745 47.63 32.4186 47.3015 32.7471 46.973C33.1538 46.9261 33.5135 46.7541 33.8733 46.6133C33.9515 46.973 33.8733 47.3172 33.8107 47.6769C33.5917 49.1317 33.3727 50.5864 33.1381 52.0567C32.7783 52.2601 32.3873 52.4634 32.0119 52.6668Z" fill="#162868"/>
<path d="M33.1534 52.0564C33.3724 50.6017 33.5914 49.147 33.8261 47.6766C33.873 47.3169 33.9668 46.9727 33.8886 46.613C34.045 46.4096 34.2015 46.2063 34.3422 46.0029C34.2171 46.785 34.092 47.5671 33.9825 48.3492C33.6696 50.2732 33.3724 52.1972 33.0596 54.1212C33.0283 54.3715 32.997 54.6217 32.825 54.8251C32.7467 53.8866 33.0439 52.9793 33.1534 52.0564Z" fill="#1A1734"/>
<path d="M25.1918 38.605C26.0677 39.1994 26.975 39.043 27.8822 38.6676C28.7112 38.3234 29.3526 37.7134 29.9939 37.1033C30.4631 36.6497 30.8229 36.6341 31.2765 37.0564C30.4162 36.7123 30.0408 37.3849 29.5559 37.8072C28.8051 38.4642 28.0073 39.0117 27.0062 39.1525C26.3336 39.2463 25.6767 39.215 25.0979 38.777C25.1135 38.7301 25.1448 38.6676 25.1918 38.605Z" fill="#162868"/>
<path d="M34.2173 43.5627C34.4832 43.5471 34.405 43.8755 34.5927 43.9538C34.8586 43.8755 34.7178 43.5158 35.062 43.375C34.8899 44.1258 34.7491 44.7984 34.405 45.4085C34.3424 45.0643 34.3581 44.7202 34.2017 44.3917C34.4363 44.1258 34.2955 43.8443 34.2173 43.5627Z" fill="#1A1734"/>
<path d="M32.7471 46.9736C32.4186 47.3021 32.0901 47.6306 31.6365 47.8027C31.6365 47.5211 31.6365 47.2552 31.6365 46.9736C32.0119 46.9736 32.3716 46.9736 32.7471 46.9736Z" fill="#CDE8F1"/>
<path d="M36.4695 56.0147C37.0639 54.5287 37.674 53.0584 38.2684 51.5724C38.3309 51.416 38.3779 51.2439 38.4248 51.0718C38.4561 51.0406 38.4561 51.0093 38.4404 50.978C38.4717 50.9467 38.4717 50.9154 38.4561 50.8841C38.7063 50.7746 38.7063 50.4931 38.7689 50.2897C39.4102 48.2406 40.2862 46.2853 40.599 44.1424C40.7398 43.1413 40.6773 42.1558 39.9577 41.3268C39.5197 40.7324 38.9253 40.3413 38.1902 40.2162C36.5947 39.6844 34.9835 39.1525 33.388 38.6207C33.435 38.3704 33.0908 38.3079 33.1065 38.0732C38.2371 38.0732 43.3677 38.0732 48.4983 38.0889C48.6547 38.0889 48.8112 38.1045 48.9676 38.1045C49.0301 39.2308 49.0301 39.2308 50.1407 39.2308C51.22 39.2464 51.2044 39.0431 51.048 40.3413C50.8759 41.8743 50.6882 43.3916 50.5005 44.9088C50.2659 46.8328 50.0469 48.7724 49.8123 50.6964C49.6089 52.4796 49.4056 54.2472 49.2022 56.0304C49.1084 56.8438 49.0145 57.6572 48.9207 58.4706C46.7308 58.4706 44.6504 57.8762 42.5543 57.3756C40.865 56.9689 39.1913 56.5622 37.5019 56.1712C37.2047 56.0773 36.8137 56.1555 36.4695 56.0147Z" fill="#CDE8F1"/>
<path d="M28.0382 23.7764C27.3969 24.7462 27.5689 25.7316 27.8192 26.7327C28.3041 28.6567 29.0862 30.4555 30.2281 32.1136C30.3532 32.3013 30.541 32.4577 30.5253 32.7549C30.4627 32.7393 30.3845 32.7393 30.3689 32.708C28.9611 30.7215 27.96 28.5472 27.4751 26.1696C27.35 25.5909 27.3343 24.9965 27.5377 24.4333C27.6159 24.1518 27.7254 23.8702 28.0382 23.7764Z" fill="#162868"/>
<path d="M35.7347 36.1489C34.452 36.1646 33.1694 36.1646 31.8867 36.1802C31.7459 36.0551 31.6677 35.883 31.6677 35.6953C32.8722 35.7735 34.0923 35.8674 35.2967 35.9456C35.4844 35.9456 35.6408 35.9612 35.7347 36.1489Z" fill="#CDE8F1"/>
<path d="M31.3699 32.4258C31.5419 32.9107 31.8861 33.2861 32.152 33.7084C32.2302 33.8336 32.4022 33.9587 32.2615 34.1151C32.152 34.2403 32.0112 34.0995 31.886 34.0526C31.6514 33.9587 31.4481 33.8023 31.1822 33.8179C30.9944 33.4112 30.9632 32.9889 30.9319 32.5509C31.0727 32.504 31.2134 32.4571 31.3699 32.4258Z" fill="#CDE8F1"/>
<path d="M31.3707 32.4261C31.2143 32.473 31.0735 32.5043 30.9171 32.5512C30.792 32.4261 30.8545 32.3479 30.9797 32.301C31.8243 32.0507 32.5752 31.6127 33.3573 31.2373C33.2947 31.6284 32.9193 31.6753 32.6534 31.8317C32.2467 32.0507 31.793 32.2228 31.3707 32.4261Z" fill="#162868"/>
<path d="M46.668 33.7252C46.6211 34.0068 46.5898 34.304 46.5272 34.5856C46.4177 35.0392 46.4334 35.6023 45.6982 35.4928C45.5574 35.4772 45.5105 35.6023 45.4948 35.7274C45.0256 35.6023 44.5407 35.5241 44.1027 35.3364C43.2737 34.9923 42.4446 35.0392 41.6 35.1956C41.4123 35.2269 41.1933 35.2582 41.0212 35.2112C39.6603 34.7889 38.2995 34.3979 36.9855 33.866C36.923 33.8347 36.876 33.7722 36.8135 33.7096C40.0983 33.694 43.3832 33.7096 46.668 33.7252Z" fill="#CDE8F1"/>
<path d="M36.8136 33.7091C36.7667 33.6622 36.7198 33.6309 36.6885 33.584C36.7354 33.6153 36.7823 33.6622 36.8136 33.7091Z" fill="#CDE8F1"/>
<path d="M41.3655 36.134C40.9119 36.134 40.4426 36.134 39.989 36.134C40.3331 35.8525 40.9901 35.8525 41.3655 36.134Z" fill="#CDE8F1"/>
<path d="M32.6688 59.5644C33.1537 59.8303 33.6855 59.8929 34.2017 60.0493C33.967 60.3152 34.233 60.6124 34.1548 60.8783C33.9514 60.8001 33.7481 60.7376 33.5604 60.9409C33.2632 61.3007 32.919 61.2225 32.5593 61.0348C32.528 60.6437 32.4967 60.2683 32.4654 59.8772C32.4654 59.7365 32.4185 59.5488 32.6688 59.5644Z" fill="#E0B596"/>
<path d="M24.9731 57.2655C24.3317 57.7191 23.5653 57.8912 22.8301 58.1258C22.705 56.3113 22.7519 54.4968 22.7206 52.698C22.6893 51.1651 22.6893 49.6165 22.6737 48.0836C22.6737 47.8802 22.5485 47.583 22.9552 47.583C24.5977 47.5986 26.2244 47.6143 27.8669 47.6299C27.8356 48.7249 27.8199 49.8042 27.7886 50.8991C27.7886 51.1338 27.8043 51.3684 27.6479 51.5717C27.3194 51.9784 26.7719 52.2287 26.7563 52.8544C26.3339 52.9326 26.0054 53.1829 25.63 53.3549C25.1138 53.5739 24.6133 53.8086 24.0971 54.0276C23.7999 54.0432 23.753 54.2465 23.8156 54.4812C23.8938 54.7784 24.0345 55.0599 24.1284 55.3571C24.3474 55.9985 24.801 56.5616 24.9731 57.2655Z" fill="#CDE8F1"/>
<path d="M18.7787 59.2986C18.7318 59.2517 18.6692 59.2048 18.6223 59.1579C18.638 56.1702 18.9039 53.1982 19.029 50.2106C19.0603 49.4754 19.1229 48.7246 19.1385 47.9894C19.1541 47.6766 19.2324 47.5358 19.5765 47.5514C20.0457 47.5827 20.515 47.5827 20.9843 47.5514C21.3284 47.5358 21.4535 47.6296 21.4692 48.005C21.563 50.0698 21.6882 52.1346 21.7977 54.1993C21.8759 55.654 21.9384 57.1244 22.0167 58.5791C21.5474 58.407 21.172 58.7042 20.7496 58.8137C20.077 58.9858 19.4513 59.2517 18.7787 59.2986Z" fill="#CDE8F1"/>
<path d="M17.7617 59.1731C17.6678 59.0949 17.6678 59.0167 17.746 58.9229C17.7617 59.0011 17.7617 59.0949 17.7617 59.1731Z" fill="#C18979"/>
<path d="M24.0977 53.9968C24.6138 53.7778 25.1144 53.5432 25.6306 53.3242C25.6619 53.4337 25.7088 53.5432 25.7401 53.6527C25.9747 54.4974 26.0686 54.5756 26.9289 54.6225C27.1166 54.6382 27.1792 54.7789 27.3199 54.8571C27.273 55.0448 27.2261 55.2326 27.1792 55.4203C26.8507 55.608 26.3814 55.2169 26.0529 55.7487C26.4909 55.6549 26.8507 55.608 27.1479 55.8895C26.9602 56.1398 27.1166 56.2962 27.2886 56.4526C27.0384 56.4683 26.7881 56.4683 26.5535 56.4996C26.4909 56.5152 26.3658 56.5934 26.4596 56.7029C26.4753 56.7342 26.5691 56.7186 26.6317 56.7186C26.6473 56.7968 26.663 56.875 26.6786 56.9532C26.6004 57.0783 26.616 57.2035 26.7881 57.1409C27.1009 57.0314 27.3512 57.094 27.5858 57.2973C27.5233 57.4694 27.4607 57.6571 27.7579 57.6727C27.7736 58.1733 27.8987 58.6895 27.6953 59.19C27.0853 59.0336 26.6317 58.6425 26.2406 58.1733C25.2239 56.9219 24.5669 55.5141 24.0977 53.9968Z" fill="#623221"/>
<path d="M28.8355 54.3096C28.554 53.3867 28.8668 52.4638 28.8668 51.5409C28.8668 51.0873 28.8981 50.618 28.9294 50.1488C29.5081 49.8359 29.8836 49.2885 30.4154 48.9443C30.6969 49.1633 30.6187 49.5231 30.65 49.8047C30.8221 50.9622 30.9159 52.151 31.0254 53.3085C30.259 53.5275 29.602 54.0593 28.8355 54.3096Z" fill="#162868"/>
<path d="M28.8364 54.3097C29.6028 54.0594 30.2598 53.5432 31.0576 53.3242C31.1358 54.1376 31.214 54.9666 31.2766 55.78C30.385 55.7487 29.5246 56.0303 28.6487 56.1398C28.6956 55.5298 28.5861 54.8884 28.8364 54.3097Z" fill="#CDE8F1"/>
<path d="M33.1538 52.0576C33.06 52.9805 32.7628 53.8877 32.8253 54.8263C32.6533 55.7179 32.6689 56.6564 32.3561 57.5324C32.1058 57.1726 32.2779 56.7815 32.2466 56.4061C32.1527 55.1704 32.0902 53.919 32.0276 52.6677C32.3874 52.4643 32.7784 52.261 33.1538 52.0576Z" fill="#CDE8F1"/>
<path d="M30.432 48.9435C29.8846 49.2876 29.5092 49.8351 28.946 50.1479C28.993 49.4284 29.0399 48.7088 29.0555 47.9893C29.0555 47.6608 29.1807 47.567 29.4935 47.567C30.4633 47.5513 30.6823 47.8642 30.432 48.9435Z" fill="#CDE8F1"/>
<path d="M24.0971 53.9971C24.5664 55.5144 25.239 56.9221 26.2244 58.1579C26.5998 58.6271 27.0691 59.0182 27.6791 59.1746C27.6791 59.2841 27.6791 59.3936 27.6791 59.5031C26.5685 59.378 26.068 58.4707 25.4423 57.7355C25.3015 57.5635 25.239 57.3132 24.9731 57.2506C24.801 56.5624 24.3474 55.9836 24.1284 55.311C24.0345 55.0138 23.9094 54.7323 23.8155 54.4351C23.753 54.2161 23.7843 54.0127 24.0971 53.9971Z" fill="#E0B596"/>
<path d="M26.7563 52.8227C26.772 52.197 27.3195 51.9467 27.6479 51.54C27.9608 52.0562 27.8669 52.6663 27.8357 53.1981C27.82 53.6674 27.8044 54.1679 27.7418 54.6372C27.6792 54.5902 27.601 54.5277 27.5385 54.4808C27.2256 53.9646 26.9753 53.4014 26.7563 52.8227Z" fill="#162868"/>
<path d="M27.5376 54.4814C27.6002 54.5284 27.6784 54.5909 27.7409 54.6379C27.7253 55.2479 27.7253 55.858 27.7097 56.468C27.5689 56.468 27.4125 56.4524 27.2717 56.4524C27.0996 56.2959 26.9432 56.1395 27.1309 55.8892C27.1465 55.7328 27.1465 55.5764 27.1622 55.4043C27.2091 55.2166 27.256 55.0289 27.303 54.8412C27.4437 54.763 27.522 54.6535 27.5376 54.4814Z" fill="#CDE8F1"/>
<path d="M27.2871 56.4678C27.4279 56.4678 27.5843 56.4834 27.7251 56.4834C27.7251 56.6398 27.7251 56.7963 27.7251 56.9527C27.7094 56.9683 27.6938 56.984 27.6938 56.984C27.6938 57.0152 27.7094 57.0309 27.7251 57.0622C27.7251 57.1404 27.7251 57.2186 27.7251 57.2968C27.6781 57.2968 27.6312 57.2968 27.5843 57.3124C27.3496 57.1091 27.0994 57.0309 26.7865 57.156C26.6145 57.2186 26.5988 57.1091 26.677 56.9683C26.9273 56.9527 27.1776 56.937 27.4904 56.9058C27.1932 56.546 26.9117 56.5929 26.6301 56.7337C26.5675 56.7337 26.4893 56.7493 26.458 56.718C26.3798 56.6085 26.4893 56.5303 26.5519 56.5147C26.7865 56.4678 27.0368 56.4678 27.2871 56.4678Z" fill="#FEFEFE"/>
<path d="M27.5698 57.2979C27.6167 57.2979 27.6636 57.2979 27.7105 57.2822C27.7262 57.4074 27.7262 57.5325 27.7418 57.6576C27.4446 57.6576 27.5072 57.4856 27.5698 57.2979Z" fill="#CDE8F1"/>
<path d="M27.7098 57.0626C27.6941 57.0313 27.6785 57.0157 27.6785 56.9844C27.6785 56.9844 27.6941 56.9688 27.7098 56.9531C27.7098 56.9844 27.7098 57.0157 27.7098 57.0626Z" fill="#CDE8F1"/>
<path d="M28.6179 56.5928C28.6336 56.6241 28.6492 56.6397 28.6492 56.671C28.6492 56.671 28.6179 56.6866 28.6179 56.7023C28.6179 56.671 28.6179 56.6397 28.6179 56.5928Z" fill="#CDE8F1"/>
<path d="M34.014 61.6465C34.0609 61.7247 34.1078 61.8029 34.1391 61.8811C34.1078 61.9124 34.0766 61.9593 34.0609 61.9593C33.8419 61.9124 33.6855 62.366 33.5447 62.1157C33.4665 61.928 33.7637 61.7091 34.014 61.6465Z" fill="#E0B596"/>
<path d="M34.1702 61.8799C34.2484 61.8955 34.3892 61.8642 34.3892 61.9894C34.3892 62.1145 34.264 62.0832 34.1702 62.1145C34.1702 62.0363 34.1702 61.9581 34.1702 61.8799Z" fill="#E0B596"/>
<path d="M39.9733 41.3262C40.6772 42.1552 40.7554 43.125 40.6146 44.1418C40.3018 46.2847 39.4102 48.24 38.7845 50.2891C38.722 50.4924 38.722 50.7584 38.4717 50.8835C38.5812 50.0232 38.9566 49.2411 39.2069 48.4277C39.5979 47.1607 40.0828 45.925 40.3331 44.6267C40.5208 43.6099 40.5521 42.6088 40.0359 41.6703C39.9733 41.5608 39.989 41.4357 39.9733 41.3262Z" fill="#1A1734"/>
<path d="M38.2219 40.2148C38.9571 40.34 39.5515 40.7154 39.9895 41.3254C39.3482 41.0439 38.7694 40.6528 38.2219 40.2148Z" fill="#1A1734"/>
<path d="M38.441 50.9609C38.4566 50.9922 38.4566 51.0235 38.4253 51.0548C38.4097 51.0235 38.4097 51.0079 38.394 50.9766C38.394 50.9922 38.4253 50.9766 38.441 50.9609Z" fill="#1A1734"/>
<path d="M34.2177 43.5636C34.1707 43.5323 34.1395 43.4854 34.0925 43.4541C34.1395 43.4854 34.1864 43.5323 34.2177 43.5636Z" fill="#1A1734"/>
<path d="M34.1091 43.4549C34.0931 43.4389 34.077 43.4389 34.061 43.4229C34.077 43.4229 34.0931 43.4389 34.1091 43.4549Z" fill="#1A1734"/>
<path d="M27.539 54.4813C27.5233 54.6377 27.4451 54.7629 27.3043 54.8567C27.1636 54.7941 27.101 54.6377 26.9133 54.6221C26.053 54.5752 25.9591 54.4813 25.7245 53.6523C25.6932 53.5428 25.6463 53.4333 25.615 53.3238C25.9904 53.1674 26.3345 52.9015 26.7412 52.8232C26.9759 53.402 27.2261 53.9651 27.539 54.4813Z" fill="#E0B596"/>
<path d="M27.178 55.4365C27.1623 55.5929 27.1623 55.7494 27.1467 55.9214C26.8495 55.6399 26.4897 55.6868 26.0518 55.7806C26.3802 55.2175 26.8495 55.6242 27.178 55.4365Z" fill="#E0B596"/>
<path d="M26.5989 56.7346C26.8804 56.5938 27.162 56.5469 27.4592 56.9066C27.1307 56.9223 26.8961 56.9536 26.6458 56.9692C26.6458 56.891 26.6302 56.8128 26.5989 56.7346Z" fill="#6C5F6A"/>
<path d="M12.8817 17.1282C13.9357 17.1282 14.7901 16.2738 14.7901 15.2199C14.7901 14.1659 13.9357 13.3115 12.8817 13.3115C11.8278 13.3115 10.9734 14.1659 10.9734 15.2199C10.9734 16.2738 11.8278 17.1282 12.8817 17.1282Z" fill="#F9EE8A"/>
<path d="M56.0695 17.1282C57.1234 17.1282 57.9778 16.2738 57.9778 15.2199C57.9778 14.1659 57.1234 13.3115 56.0695 13.3115C55.0155 13.3115 54.1611 14.1659 54.1611 15.2199C54.1611 16.2738 55.0155 17.1282 56.0695 17.1282Z" fill="#F9EE8A"/>
</svg>
