<svg width="338" height="264" viewBox="0 0 338 264" fill="none" xmlns="http://www.w3.org/2000/svg">
<path opacity="0.2" d="M168.919 242.323C262.211 242.323 337.838 219.059 337.838 190.361C337.838 161.664 262.211 138.4 168.919 138.4C75.6277 138.4 0 161.664 0 190.361C0 219.059 75.6277 242.323 168.919 242.323Z" fill="#043B73"/>
<path fill-rule="evenodd" clip-rule="evenodd" d="M209.141 239.648C208.155 239.436 208.066 238.064 209.017 237.727L249.103 223.541C249.282 223.477 249.476 223.466 249.661 223.509L310.306 237.458C311.266 237.679 311.362 239.008 310.444 239.365L274.199 253.451C274.017 253.522 273.818 253.538 273.627 253.497L209.141 239.648Z" fill="#043B73" stroke="#768B9F" stroke-width="2"/>
<path d="M245.601 237.109L260.524 229.018" stroke="#768B9F" stroke-width="2" stroke-linecap="round"/>
<path d="M253.155 238.997L268.078 230.906" stroke="#768B9F" stroke-width="2" stroke-linecap="round"/>
<path fill-rule="evenodd" clip-rule="evenodd" d="M174.037 246.123C173.193 246.49 173.252 247.707 174.129 247.991L220.097 262.863C220.366 262.95 220.66 262.919 220.905 262.777L263.735 237.999C264.494 237.56 264.361 236.427 263.521 236.175L224.377 224.449C224.15 224.381 223.907 224.395 223.69 224.49L174.037 246.123Z" fill="#043B73" stroke="#768B9F" stroke-width="2"/>
<path d="M222.587 231.174L242.544 237.017" stroke="#768B9F" stroke-width="2" stroke-linecap="round"/>
<path d="M215.216 235.761L235.083 241.604" stroke="#768B9F" stroke-width="2" stroke-linecap="round"/>
<path d="M208.474 239.896L224.745 244.75" stroke="#768B9F" stroke-width="2" stroke-linecap="round"/>
<path d="M259.266 243.22L274.189 235.129" stroke="#768B9F" stroke-width="2" stroke-linecap="round"/>
<path fill-rule="evenodd" clip-rule="evenodd" d="M71.8275 80.955L71.1982 111.79L83.9638 115.026V153.143C83.4244 156.02 82.2558 156.56 81.9861 159.346C81.4467 163.302 81.3568 171.483 82.3457 174.719C82.5255 174.809 82.7951 174.809 82.885 175.079L215.306 203.487C222.407 204.565 231.847 196.924 238.14 193.867L281.651 171.842C283.628 160.335 280.122 152.334 280.122 141.007V61.1773C280.662 56.0531 283.449 57.5814 281.74 46.3441C270.233 44.636 233.105 36.0057 218.722 33.0391C197.506 28.6341 176.739 23.5997 155.253 19.5543C147.342 18.026 147.612 16.7675 140.42 19.824C130.801 23.9593 102.843 39.4219 89.5375 45.8946C82.5255 49.3107 81.5366 48.4117 81.8063 57.4016C82.076 66.8409 85.2224 55.244 84.2335 73.2237V75.2015L71.8275 80.955Z" fill="#768B9F"/>
<path fill-rule="evenodd" clip-rule="evenodd" d="M90.4385 50.4761C93.8546 52.5438 178.809 69.8942 189.057 71.7821C197.328 73.3103 205.329 75.2881 213.599 76.9962C221.241 78.5245 228.702 71.9619 234.815 69.3548C239.58 67.2871 271.943 50.8357 273.562 48.2287L150.221 21.8884C144.018 20.7197 144.018 21.8884 139.433 24.3157L119.925 34.3843C116.419 36.3621 113.452 37.4408 109.497 39.4186C104.822 41.8459 92.1465 47.8691 90.4385 50.4761Z" fill="white"/>
<path fill-rule="evenodd" clip-rule="evenodd" d="M277.337 59.8269L222.858 91.1116L223.398 177.504L277.247 151.883L277.337 59.8269Z" fill="white"/>
<path fill-rule="evenodd" clip-rule="evenodd" d="M74.7943 83.0217L74.2549 109.362L192.292 135.073L192.022 106.485C153.186 99.3833 113.72 90.8429 74.7943 83.0217Z" fill="#043B73"/>
<path fill-rule="evenodd" clip-rule="evenodd" d="M94.5763 117.901L94.3066 134.173C94.3066 143.522 98.442 141.185 119.928 146.219C145.369 152.242 172.339 157.367 197.78 163.57C200.746 164.289 209.467 167.076 212.343 165.457C213.063 161.772 212.973 146.848 212.703 142.533C212.433 137.948 210.725 137.859 206.5 136.96C202.814 136.151 199.668 134.712 196.072 135.341L195.083 138.937L94.5763 117.901Z" fill="#043B73"/>
<path fill-rule="evenodd" clip-rule="evenodd" d="M87.4717 68.0055L87.7414 73.3095C91.1575 74.658 91.3373 72.3206 94.304 71.6014C97.2706 70.7923 114.711 75.2873 118.577 76.0065C131.432 78.5236 211.711 94.7053 213.15 96.8629C214.229 101.538 213.779 120.237 213.419 125.81C210.543 127.069 203.8 129.406 202.452 131.923C205.329 133.901 211.262 134.89 215.217 135.609L215.487 170.13C210.363 170.4 99.3383 144.779 91.5171 142.981C90.4383 136.508 91.2474 126.799 91.1575 119.787C91.0676 116.191 90.7979 116.191 87.7414 115.831L87.4717 147.925C87.4717 153.139 88.1909 151.881 100.956 154.668L218.903 179.12L219.443 165.366C219.533 142.352 219.982 113.404 219.173 90.9296C216.116 89.2215 206.138 87.6034 202.452 86.8842C196.788 85.7155 191.125 84.367 185.551 83.2882L117.678 68.9944C112.014 67.7358 106.26 66.657 100.687 65.3984C89.9888 62.7914 87.5616 61.353 87.4717 68.0055Z" fill="white"/>
<path fill-rule="evenodd" clip-rule="evenodd" d="M85.9419 172.022C88.3691 174.179 214.227 200.34 216.654 199.621L216.924 182.989C216.205 182.54 216.295 182.54 215.306 182.09C214.587 181.821 213.598 181.641 212.879 181.461L199.034 178.584C184.83 175.887 90.9762 155.121 88.0994 155.391C84.5934 155.84 84.8631 159.166 84.8631 162.582C84.953 165.819 84.3237 169.954 85.9419 172.022Z" fill="#043B73"/>
<path fill-rule="evenodd" clip-rule="evenodd" d="M219.894 199.44L254.145 182.27C260.618 178.674 265.203 176.247 271.316 173.55C274.282 172.201 277.788 170.493 278.598 168.066C279.137 166.178 279.317 156.649 278.238 155.48C276.71 153.952 230.951 177.865 226.816 180.202C221.961 182.899 221.692 181.551 220.433 186.495C219.354 190.63 219.804 195.215 219.894 199.44Z" fill="#043B73"/>
<path opacity="0.5" fill-rule="evenodd" clip-rule="evenodd" d="M211.713 101.361L195.531 110.081L195.441 132.016L211.443 121.408L211.713 101.361Z" fill="#043B73"/>
<path fill-rule="evenodd" clip-rule="evenodd" d="M221.42 78.706V87.8756L279.225 55.692V48.7698L221.42 78.706Z" fill="#043B73"/>
<path fill-rule="evenodd" clip-rule="evenodd" d="M216.925 79.7863V87.6973L87.0215 60.6379L86.9316 52.2773L216.925 79.7863Z" fill="#043B73"/>
<path fill-rule="evenodd" clip-rule="evenodd" d="M194.269 107.472L194 104.326L191.123 103.696L204.878 96.9539L211.17 98.7518L194.269 107.472Z" fill="#043B73"/>
<path fill-rule="evenodd" clip-rule="evenodd" d="M82.4365 79.9645L94.3031 73.6716L99.697 74.5706L88.1001 81.2231L82.4365 79.9645Z" fill="#043B73"/>
<path fill-rule="evenodd" clip-rule="evenodd" d="M89.7188 82.2113L188.427 103.158L202.182 96.3254L102.215 75.5588L89.7188 82.2113Z" fill="white"/>
<path d="M172.909 121.098C175.104 120.974 176.765 118.759 176.618 116.15C176.471 113.541 174.572 111.527 172.376 111.65C170.181 111.774 168.521 113.989 168.668 116.598C168.815 119.207 170.713 121.222 172.909 121.098Z" fill="white" stroke="#043B73" stroke-opacity="0.5" stroke-width="4"/>
<path d="M92.784 104.035C94.7918 103.91 96.2995 101.875 96.1514 99.4887C96.0034 97.1026 94.2557 95.2693 92.2478 95.3938C90.24 95.5184 88.7323 97.5537 88.8804 99.9398C89.0284 102.326 90.7761 104.159 92.784 104.035Z" fill="white" stroke="#043B73" stroke-opacity="0.5" stroke-width="4"/>
<path d="M193.774 154.258C195.956 153.991 197.468 151.672 197.151 149.078C196.834 146.485 194.807 144.599 192.625 144.866C190.442 145.132 188.93 147.451 189.247 150.045C189.565 152.639 191.591 154.525 193.774 154.258Z" stroke="#819DB9" stroke-width="4"/>
<path d="M106.492 134.674C108.228 134.533 109.5 132.745 109.332 130.681C109.163 128.617 107.619 127.059 105.882 127.2C104.145 127.342 102.874 129.13 103.042 131.194C103.211 133.258 104.755 134.816 106.492 134.674Z" stroke="#819DB9" stroke-width="4"/>
<path d="M65.9157 8.74893C68.0566 8.64407 69.7093 6.86688 69.6071 4.77947C69.5048 2.69207 67.6864 1.0849 65.5454 1.18976C63.4045 1.29463 61.7518 3.07182 61.8541 5.15922C61.9563 7.24663 63.7748 8.85379 65.9157 8.74893Z" stroke="#043B73" stroke-width="2"/>
<path d="M68.8956 11.7323C70.8792 11.6351 72.4105 9.98856 72.3157 8.05454C72.221 6.12053 70.5362 4.63146 68.5526 4.72862C66.569 4.82578 65.0377 6.47237 65.1325 8.40638C65.2272 10.3404 66.912 11.8295 68.8956 11.7323Z" fill="#043B73"/>
<path d="M72.0591 15.1155C74.2566 15.0079 75.953 13.1837 75.848 11.0412C75.7431 8.89862 73.8766 7.24899 71.6791 7.35662C69.4816 7.46426 67.7853 9.2884 67.8902 11.4309C67.9952 13.5735 69.8616 15.2231 72.0591 15.1155Z" stroke="#043B73" stroke-width="2"/>
<path d="M79.1098 72.9536C76.4129 74.1223 19.687 45.6244 62.9281 14.0701" stroke="#043B73" stroke-width="2" stroke-dasharray="8 12"/>
</svg>
