<svg width="26" height="26" viewBox="0 0 26 26" fill="none" xmlns="http://www.w3.org/2000/svg">
<circle cx="13" cy="13" r="13" fill="#F5821F" fill-opacity="0.1"/>
<g clip-path="url(#clip0_2750_2120)">
<path d="M12.1667 10.4667C12.1667 12.3966 13.7368 13.9667 15.6667 13.9667C17.5966 13.9667 19.1667 12.3966 19.1667 10.4667C19.1667 8.53677 17.5966 6.96667 15.6667 6.96667C13.7368 6.96667 12.1667 8.53677 12.1667 10.4667ZM18.6333 10.4667C18.6333 12.1025 17.3025 13.4333 15.6667 13.4333C14.0308 13.4333 12.7 12.1025 12.7 10.4667C12.7 8.83083 14.0308 7.5 15.6667 7.5C17.3025 7.5 18.6333 8.83083 18.6333 10.4667ZM20 15.7333V19.1333C20 20.1626 19.1626 21 18.1333 21H7.86667C6.8374 21 6 20.1626 6 19.1333V6.06667C6 5.4785 6.4785 5 7.06667 5H15.7333C16.3215 5 16.8 5.4785 16.8 6.06667C16.8 6.21393 16.6806 6.33333 16.5333 6.33333C16.3861 6.33333 16.2667 6.21393 16.2667 6.06667C16.2667 5.7726 16.0274 5.53333 15.7333 5.53333H7.06667C6.7726 5.53333 6.53333 5.7726 6.53333 6.06667V19.1333C6.53333 19.8685 7.13147 20.4667 7.86667 20.4667H16.8287C16.4822 20.1276 16.2667 19.6553 16.2667 19.1333V14.9667C16.2667 14.8194 16.3861 14.7 16.5333 14.7C16.6806 14.7 16.8 14.8194 16.8 14.9667V19.1333C16.8 19.8685 17.3981 20.4667 18.1333 20.4667C18.8685 20.4667 19.4667 19.8685 19.4667 19.1333V15.7333C19.4667 15.4393 19.2274 15.2 18.9333 15.2H17.8C17.6527 15.2 17.5333 15.0806 17.5333 14.9333C17.5333 14.7861 17.6527 14.6667 17.8 14.6667H18.9333C19.5215 14.6667 20 15.1452 20 15.7333ZM8.33333 12.1667C8.33333 12.0194 8.45273 11.9 8.6 11.9H10.8667C11.0139 11.9 11.1333 12.0194 11.1333 12.1667C11.1333 12.3139 11.0139 12.4333 10.8667 12.4333H8.6C8.45273 12.4333 8.33333 12.3139 8.33333 12.1667ZM8.33333 9.16667C8.33333 9.0194 8.45273 8.9 8.6 8.9H10.8667C11.0139 8.9 11.1333 9.0194 11.1333 9.16667C11.1333 9.31393 11.0139 9.43333 10.8667 9.43333H8.6C8.45273 9.43333 8.33333 9.31393 8.33333 9.16667ZM14.4667 15.1667C14.4667 15.3139 14.3473 15.4333 14.2 15.4333H8.6C8.45273 15.4333 8.33333 15.3139 8.33333 15.1667C8.33333 15.0194 8.45273 14.9 8.6 14.9H14.2C14.3473 14.9 14.4667 15.0194 14.4667 15.1667ZM14.4667 17.9667C14.4667 18.1139 14.3473 18.2333 14.2 18.2333H8.6C8.45273 18.2333 8.33333 18.1139 8.33333 17.9667C8.33333 17.8194 8.45273 17.7 8.6 17.7H14.2C14.3473 17.7 14.4667 17.8194 14.4667 17.9667Z" fill="#F5821F"/>
<path d="M14.6513 10.0192H15.5963C15.5612 9.8374 15.4743 9.70581 15.3355 9.62446C15.1984 9.54152 15.0062 9.50005 14.7589 9.50005H14.6513V9.18662H16.6802V9.50005H15.7542C15.9106 9.62446 16.0031 9.79753 16.0318 10.0192H16.6802V10.3327H16.0414C15.9951 10.7936 15.6952 11.0632 15.1417 11.1414L16.0772 12.6846H15.5772L14.6513 11.0672V10.8519H14.7589C15.0365 10.8519 15.2406 10.812 15.3714 10.7322C15.5038 10.6525 15.5804 10.5193 15.6011 10.3327H14.6513V10.0192Z" fill="#F5821F"/>
</g>
<defs>
<clipPath id="clip0_2750_2120">
<rect width="16" height="16" fill="white" transform="translate(5 5)"/>
</clipPath>
</defs>
</svg>
