<svg width="33" height="32" viewBox="0 0 33 32" fill="none" xmlns="http://www.w3.org/2000/svg">
    <path d="M30.57 18.113c1.221-7.56-3.917-14.68-11.477-15.9C11.533.99 4.415 6.127 3.193 13.687c-1.222 7.56 3.916 14.679 11.476 15.9 7.56 1.223 14.678-3.916 15.9-11.475z" fill="url(#k2jwjelzra)"/>
    <path d="M20.611 26.727c5.78-2.254 8.638-8.765 6.385-14.545-2.253-5.78-8.765-8.637-14.544-6.384-5.78 2.253-8.638 8.765-6.385 14.544 2.253 5.78 8.765 8.638 14.544 6.385z" fill="url(#s9jjdy3fqb)"/>
    <path d="M19.991 14.953c-2.916-.526-4.082-2.63-4.171-4.031-.09-1.402-.627-2.417-1.642-1.91-1.015.508-1.255 3.42-.659 4.954-2.595-.387-5.015-.097-5.251 1.181 2.536 2.239 1.653 4.799.708 6.054 1.232.867 6.689 1.316 8.021 1.115 1.333-.201 2.44-2.068 3.652-2.018l2.425.1.217-5.177a22.453 22.453 0 0 1-3.3-.268z" fill="url(#fsbhkj7x8c)"/>
    <path d="M17.365 18.525c-1.363-.419-2.478-1.937-2.71-2.51.007 1.235 1.61 2.533 2.71 2.51zM10.611 21.735c1.848.24 3.099-.038 3.563-.697.465-.658.082-1.243-.445-1.615l-3.118 2.312z" fill="#F9E6E1" style="mix-blend-mode:multiply"/>
    <path d="M13.47 19.601c.615.148 1.08 1.236-.163 1.74-1.244.503-3.292.658-4.439-.171-.507-.368-.635-1.286.837-1.623a8.564 8.564 0 0 1 3.764.054z" fill="url(#pwmtuw9asd)"/>
    <path d="M9.294 20.074c1.2.329 3.606.596 4.555-.248.948-.844-.353-1.99-.353-1.99l-4.202 2.238z" fill="#F9E6E1" style="mix-blend-mode:multiply"/>
    <path d="M13.167 17.862c.616.148 1.351 1.51.104 2.018-1.247.508-4.585.364-4.922-.162-.337-.527-.349-1.48 1.123-1.813a8.521 8.521 0 0 1 3.695-.043z" fill="url(#yteg6kan9e)"/>
    <path d="M13.48 16.003c.83.817.702 1.584.477 1.902-.224.317-.914.93-4.074.492.205-.027 3.598-2.394 3.598-2.394z" fill="#F9E6E1" style="mix-blend-mode:multiply"/>
    <path d="M13.047 16.019c.666.159 1.503 1.766.112 2.169-1.266.364-4.845.345-5.209-.225-.364-.57-.387-1.588 1.212-1.936a8.571 8.571 0 0 1 3.885-.008z" fill="url(#6jkeerv5kf)"/>
    <path d="M13.725 14.628c.457.659.484 1.162.232 1.503-.251.34-3.098.589-4.512.201l4.28-1.704z" fill="#F9E6E1" style="mix-blend-mode:multiply"/>
    <path d="M12.543 13.792c1.197.174 2.138 2.049.694 2.366-1.302.287-4.57.357-4.934-.209-.365-.565-.554-1.638 1.03-1.998a7.688 7.688 0 0 1 3.21-.16z" fill="url(#qoairjlv3g)"/>
    <path d="M21.413 15.093c-.093.217-.535 4.919-.202 5.225.334.306 2.413.058 2.413.058s.442-4.834.314-5.178c-.128-.345-2.25-.225-2.525-.105z" fill="url(#0tg3rfi6th)"/>
    <path d="M22.226 14.787c-.105.252-.496 5.674-.085 6.038.41.364 2.92.135 2.92.135s.387-5.569.224-5.976c-.162-.406-2.734-.325-3.06-.197z" fill="url(#9wad70eifi)"/>
    <defs>
        <linearGradient id="k2jwjelzra" x1="11.8" y1="4.659" x2="22.381" y2="28.067" gradientUnits="userSpaceOnUse">
            <stop stop-color="#9571CB"/>
            <stop offset=".1" stop-color="#8A64C9"/>
            <stop offset=".32" stop-color="#744BC4"/>
            <stop offset=".53" stop-color="#673CC1"/>
            <stop offset=".69" stop-color="#6237C0"/>
        </linearGradient>
        <linearGradient id="s9jjdy3fqb" x1="12.44" y1="7.146" x2="20.643" y2="25.38" gradientUnits="userSpaceOnUse">
            <stop stop-color="#F5F0FF"/>
            <stop offset="1" stop-color="#D2C1F7"/>
        </linearGradient>
        <linearGradient id="fsbhkj7x8c" x1="16.99" y1="9.811" x2="14.954" y2="22.127" gradientUnits="userSpaceOnUse">
            <stop stop-color="#FFC085"/>
            <stop offset="1" stop-color="#FA976E"/>
        </linearGradient>
        <linearGradient id="pwmtuw9asd" x1="10.381" y1="22.031" x2="11.936" y2="19.443" gradientUnits="userSpaceOnUse">
            <stop stop-color="#FFC085"/>
            <stop offset="1" stop-color="#FA976E"/>
        </linearGradient>
        <linearGradient id="yteg6kan9e" x1="10.06" y1="20.713" x2="11.771" y2="17.867" gradientUnits="userSpaceOnUse">
            <stop stop-color="#FFC085"/>
            <stop offset="1" stop-color="#FA976E"/>
        </linearGradient>
        <linearGradient id="6jkeerv5kf" x1="9.783" y1="19.035" x2="11.587" y2="16.039" gradientUnits="userSpaceOnUse">
            <stop stop-color="#FFC085"/>
            <stop offset="1" stop-color="#FA976E"/>
        </linearGradient>
        <linearGradient id="qoairjlv3g" x1="8.438" y1="14.048" x2="13.67" y2="16.266" gradientUnits="userSpaceOnUse">
            <stop stop-color="#FFC085"/>
            <stop offset="1" stop-color="#FA976E"/>
        </linearGradient>
        <linearGradient id="0tg3rfi6th" x1="22.682" y1="15.299" x2="22.245" y2="21.044" gradientUnits="userSpaceOnUse">
            <stop stop-color="#F5F0FF"/>
            <stop offset="1" stop-color="#D2C1F7"/>
        </linearGradient>
        <linearGradient id="9wad70eifi" x1="23.769" y1="14.846" x2="23.469" y2="21.004" gradientUnits="userSpaceOnUse">
            <stop stop-color="#263681"/>
            <stop offset="1" stop-color="#1A1248"/>
        </linearGradient>
    </defs>
</svg>
