<svg id="Layer_1" data-name="Layer 1" xmlns="http://www.w3.org/2000/svg" viewBox="0 0 40 40"><defs><style>.cls-1{fill:none;stroke:#b7b7b7;stroke-linecap:round;stroke-linejoin:round;}.cls-2{fill:#b7b7b7;}</style></defs><circle class="cls-1" cx="20" cy="20" r="19.16"/><path class="cls-2" d="M18,24.52H17l6.93,7.22a1.36,1.36,0,0,1-1,2.3,1.37,1.37,0,0,1-1-.42l-8.2-8.54a1.94,1.94,0,0,1,1.4-3.28H18a4.76,4.76,0,0,0,4.71-4.08H13.2a1.36,1.36,0,0,1,0-2.72h9.06A4.77,4.77,0,0,0,18,12.28H13.2a1.36,1.36,0,0,1,0-2.72H26.8a1.36,1.36,0,0,1,0,2.72H23.73A7.38,7.38,0,0,1,25.15,15H26.8a1.36,1.36,0,0,1,0,2.72H25.41A7.5,7.5,0,0,1,18,24.52Z"/></svg>