<svg width="24" height="24" viewBox="0 0 24 24" fill="none" xmlns="http://www.w3.org/2000/svg">
<path d="M13.7908 4.67813C13.7801 5.98101 13.9631 5.9487 12.5095 5.9487C10.0545 5.93794 7.59947 5.9487 5.1337 5.95947C3.79853 5.95947 3.03403 6.72397 3.03403 8.05914C3.03403 11.2679 3.02326 14.4766 3.02326 17.6961C3.02326 19.0098 3.77699 19.7742 5.07986 19.785C8.33167 19.7958 11.5727 19.7958 14.8245 19.785C16.0951 19.785 16.8488 19.0097 16.8596 17.7284C16.8703 16.5978 16.8488 15.4672 16.8703 14.3366C16.8811 13.669 16.9457 13.6583 17.7533 13.6367C18.2917 13.626 18.4316 13.8521 18.4209 14.3474C18.3993 15.5318 18.4209 16.7163 18.4101 17.9007C18.3886 19.7958 16.8919 21.3355 14.9968 21.3463C11.6373 21.3678 8.2886 21.3463 4.92912 21.3571C4.37997 21.3571 3.88467 21.1525 3.35706 21.0448V21.0556C3.37859 20.9694 3.30322 20.9479 3.24938 20.9264C2.6787 20.5172 2.15109 20.0757 1.83883 19.4082C1.65578 19.0098 1.52657 18.6114 1.5158 18.1699C1.39736 14.7673 1.4512 11.3648 1.46196 7.96224C1.47273 5.83026 3.00173 4.38741 5.1337 4.38741C7.72868 4.38741 10.3344 4.38741 12.9294 4.38741C13.2417 4.38741 13.5862 4.3228 13.7908 4.67813Z" fill="#999999"/>
<path d="M22.986 2.90652C23.0829 4.14479 23.0075 5.38306 23.0291 6.62133C23.0398 7.4612 23.0183 8.31183 23.0398 9.1517C23.0506 9.5501 22.8891 9.85159 22.5338 10.0239C22.1677 10.1962 21.8769 10.0131 21.6185 9.76545C21.0801 9.23784 20.531 8.721 20.0249 8.16109C19.7019 7.80576 19.5081 7.79499 19.1528 8.15032C16.7839 10.5515 14.3935 12.9311 12.0139 15.3107C11.497 15.8276 11.4647 15.8276 10.9479 15.3107C10.6464 15.0093 10.3557 14.6862 10.0326 14.4063C9.63423 14.0617 9.6773 13.7925 10.0434 13.4372C12.1 11.4129 14.1351 9.35629 16.1701 7.32122C16.2994 7.19201 16.407 7.05203 16.5255 6.92282C16.7947 6.6644 17.0531 6.38444 17.3438 6.15832C17.6668 5.8999 17.5807 5.69532 17.333 5.45843C16.7839 4.92005 16.2455 4.37091 15.6856 3.8433C15.4272 3.59564 15.2226 3.32645 15.3626 2.94959C15.5133 2.54042 15.8363 2.40044 16.2563 2.40044C18.1944 2.41121 20.1326 2.41121 22.06 2.40044C22.4907 2.37891 22.7922 2.52965 22.986 2.90652Z" fill="#999999"/>
<path d="M3.25015 20.918C3.30399 20.9395 3.37936 20.961 3.35782 21.0472C3.27168 21.0472 3.15324 21.0687 3.25015 20.918Z" fill="#999999"/>
</svg>
