<svg width="14" height="14" viewBox="0 0 14 14" fill="none" xmlns="http://www.w3.org/2000/svg">
<path d="M7 0C3.1346 0 0 3.1346 0 7C0 10.8654 3.1346 14 7 14C10.8654 14 14 10.8654 14 7C14 3.1346 10.8654 0 7 0ZM4.96588 10.582H3.26106V5.45305H4.96588V10.582ZM4.11353 4.75269H4.10242C3.53033 4.75269 3.16034 4.35887 3.16034 3.86668C3.16034 3.36339 3.54166 2.98047 4.12485 2.98047C4.70804 2.98047 5.06693 3.36339 5.07803 3.86668C5.07803 4.35887 4.70804 4.75269 4.11353 4.75269ZM11.1131 10.582H9.40849V7.83815C9.40849 7.14857 9.16165 6.67828 8.54482 6.67828C8.07388 6.67828 7.7934 6.99551 7.67014 7.30174C7.62506 7.41133 7.61406 7.5645 7.61406 7.71777V10.582H5.90935C5.90935 10.582 5.93167 5.93423 5.90935 5.45305H7.61406V6.17926C7.84061 5.82977 8.24596 5.33267 9.15044 5.33267C10.2721 5.33267 11.1131 6.06572 11.1131 7.64108V10.582Z" fill="#0E76A8"/>
</svg>
