<svg width="26" height="26" viewBox="0 0 26 26" fill="none" xmlns="http://www.w3.org/2000/svg">
<path d="M26 13C26 20.1797 20.1797 26 13 26C5.8203 26 0 20.1797 0 13C0 5.8203 5.8203 0 13 0C20.1797 0 26 5.8203 26 13Z" fill="#F58220" fill-opacity="0.1"/>
<path d="M12.8089 14.3711C12.5026 14.3734 12.2059 14.4782 11.9662 14.6688C11.7264 14.8594 11.5573 15.1248 11.486 15.4227C11.4146 15.7206 11.4451 16.0338 11.5724 16.3123C11.6998 16.5909 11.9168 16.8187 12.1888 16.9596V18.5866H13.3266V17.0108C13.6204 16.8904 13.8632 16.6718 14.0138 16.3923C14.1643 16.1129 14.2132 15.7898 14.1521 15.4783C14.091 15.1668 13.9237 14.8861 13.6788 14.6842C13.4338 14.4823 13.1264 14.3716 12.8089 14.3711Z" fill="#F58220"/>
<path d="M17.3091 11.1909V8.75601C17.3335 7.52257 16.8684 6.32967 16.0154 5.43834C15.1625 4.54702 13.9912 4.02985 12.7579 4C11.5246 4.02985 10.3533 4.54702 9.50036 5.43834C8.64741 6.32967 8.18227 7.52257 8.2067 8.75601V11.1909H6.5V20.8622C6.5 21.164 6.61987 21.4534 6.83325 21.6667C7.04663 21.8801 7.33604 22 7.6378 22H17.878C18.1798 22 18.4692 21.8801 18.6825 21.6667C18.8959 21.4534 19.0158 21.164 19.0158 20.8622V11.1909H17.3091ZM9.3445 8.75601C9.31997 7.82428 9.66522 6.92073 10.3048 6.24276C10.9444 5.5648 11.8263 5.16754 12.7579 5.1378C13.6895 5.16754 14.5714 5.5648 15.211 6.24276C15.8506 6.92073 16.1958 7.82428 16.1713 8.75601V11.1909H9.3445V8.75601ZM7.6378 20.8622V12.3287H17.878V20.8622H7.6378Z" fill="#F58220"/>
</svg>
