<svg width="750" height="87" viewBox="0 0 648 87" fill="none" xmlns="http://www.w3.org/2000/svg">
    <rect width="648" height="86" rx="8" fill="#FFE3B9"/>
    <mask id="p74oa3quja" style="mask-type:alpha" maskUnits="userSpaceOnUse" x="536" y="2" width="112" height="85">
        <rect x="536" y="2" width="112" height="84.069" rx="8" fill="#58AED2"/>
    </mask>
    <g mask="url(#p74oa3quja)">
        <ellipse cx="611.628" cy="89.863" rx="57.085" ry="54.447" fill="#FFF0D9"/>
    </g>
    <path d="M244.992 35.376a.538.538 0 0 1 0-.752L250.474 29l-5.482-5.622a.538.538 0 0 1 .168-.866.51.51 0 0 1 .566.114l5.829 5.982a.56.56 0 0 1 0 .785l-5.829 5.981a.516.516 0 0 1-.566.115.516.516 0 0 1-.168-.114zM23.875 36V21.723h2.344V36h-2.344zm11.514-11.016c1.217 0 2.164.316 2.841.948.684.625 1.026 1.63 1.026 3.017V36H36.96v-6.621c0-.84-.173-1.468-.518-1.885-.345-.423-.878-.635-1.601-.635-1.048 0-1.777.323-2.188.967-.403.645-.605 1.579-.605 2.803V36h-2.295V25.19h1.787l.322 1.464h.127c.235-.377.524-.687.87-.927a3.89 3.89 0 0 1 1.171-.557 4.952 4.952 0 0 1 1.358-.186zM44.939 36l-4.11-10.81h2.43l2.227 6.347c.144.404.274.84.391 1.309.117.469.198.862.244 1.181h.078c.046-.332.134-.729.264-1.191.13-.469.264-.902.4-1.299l2.227-6.348h2.422L47.4 36h-2.46zm12.52-11.016c.963 0 1.79.199 2.48.596.69.397 1.221.96 1.592 1.69.371.729.557 1.601.557 2.617v1.23H54.87c.026 1.048.306 1.856.84 2.422.54.566 1.296.85 2.266.85.69 0 1.308-.065 1.855-.196a10.31 10.31 0 0 0 1.709-.595v1.865c-.54.254-1.09.44-1.65.556-.56.118-1.23.176-2.012.176-1.061 0-1.995-.205-2.803-.615a4.5 4.5 0 0 1-1.885-1.855c-.449-.82-.673-1.84-.673-3.057 0-1.211.205-2.24.615-3.086.41-.846.986-1.49 1.728-1.934.742-.442 1.608-.664 2.598-.664zm0 1.729c-.723 0-1.309.234-1.758.703-.443.469-.703 1.156-.781 2.06h4.922c-.007-.54-.098-1.018-.274-1.435a2.082 2.082 0 0 0-.78-.977c-.346-.234-.789-.351-1.329-.351zm14.482 6.201c0 .71-.172 1.309-.517 1.797-.345.488-.85.86-1.514 1.113-.657.248-1.465.371-2.422.371-.755 0-1.406-.055-1.953-.166a6.689 6.689 0 0 1-1.533-.488v-1.982c.514.24 1.09.449 1.729.625a6.95 6.95 0 0 0 1.826.263c.755 0 1.299-.117 1.63-.351.332-.241.499-.56.499-.957 0-.235-.069-.443-.206-.625-.13-.19-.377-.381-.742-.577-.358-.201-.885-.442-1.582-.722a13.184 13.184 0 0 1-1.728-.82c-.469-.274-.824-.603-1.065-.987-.24-.39-.361-.889-.361-1.494 0-.957.378-1.683 1.133-2.178.761-.501 1.767-.752 3.017-.752.664 0 1.29.069 1.875.205.593.13 1.172.323 1.739.577l-.723 1.728c-.488-.215-.98-.39-1.475-.527a5.283 5.283 0 0 0-1.494-.215c-.592 0-1.045.091-1.357.273-.306.183-.46.443-.46.782a.96.96 0 0 0 .225.644c.15.176.407.352.772.527.371.176.885.394 1.543.655.644.247 1.201.508 1.67.781.475.267.84.596 1.094.986.253.391.38.896.38 1.514zm6.504 1.426c.3 0 .596-.026.889-.078.293-.059.56-.127.8-.205v1.738c-.253.11-.582.205-.986.283a6.618 6.618 0 0 1-1.26.117c-.611 0-1.161-.1-1.65-.302-.488-.209-.875-.564-1.162-1.065-.286-.501-.43-1.195-.43-2.08v-5.81h-1.474v-1.026l1.582-.81.752-2.315h1.445v2.402h3.096v1.748H76.95v5.782c0 .547.137.953.41 1.22.274.267.635.4 1.084.4zm11.377-9.15V36h-2.295V25.19h2.295zm-1.133-4.141c.352 0 .655.094.909.283.26.189.39.514.39.977 0 .455-.13.78-.39.976a1.48 1.48 0 0 1-.909.283c-.364 0-.673-.094-.927-.283-.248-.195-.371-.52-.371-.976 0-.463.123-.788.37-.977.255-.189.564-.283.928-.283zm10.059 3.935c1.218 0 2.165.316 2.842.948.683.625 1.025 1.63 1.025 3.017V36h-2.295v-6.621c0-.84-.172-1.468-.517-1.885-.345-.423-.88-.635-1.602-.635-1.048 0-1.777.323-2.187.967-.404.645-.606 1.579-.606 2.803V36h-2.295V25.19H94.9l.323 1.464h.127c.234-.377.524-.687.869-.927a3.888 3.888 0 0 1 1.172-.557 4.951 4.951 0 0 1 1.357-.186zM111.258 36V21.723h2.344v12.285h6.064V36h-8.408zm20.068-10.81V36h-1.806l-.313-1.455h-.127c-.228.371-.518.68-.869.928-.352.24-.742.42-1.172.537-.43.123-.882.185-1.357.185-.814 0-1.511-.136-2.09-.41a2.904 2.904 0 0 1-1.319-1.289c-.306-.58-.459-1.328-.459-2.246v-7.06h2.305v6.63c0 .84.169 1.468.508 1.885.345.417.879.625 1.602.625.696 0 1.25-.143 1.66-.43.41-.286.7-.71.869-1.27.176-.559.263-1.246.263-2.06v-5.38h2.305zm15.508-.206c1.211 0 2.122.313 2.734.938.619.625.928 1.627.928 3.008V36h-2.295v-6.66c0-.82-.159-1.439-.478-1.856-.319-.416-.804-.625-1.455-.625-.912 0-1.569.293-1.973.88-.397.579-.596 1.422-.596 2.529V36h-2.295v-6.66c0-.547-.071-1.003-.215-1.367-.136-.371-.348-.648-.634-.83-.287-.19-.648-.284-1.084-.284-.632 0-1.136.144-1.514.43-.371.287-.638.71-.801 1.27-.163.553-.244 1.233-.244 2.04V36h-2.295V25.19h1.787l.323 1.454h.127a3.05 3.05 0 0 1 .82-.927c.332-.248.7-.43 1.103-.547a4.28 4.28 0 0 1 1.26-.186c.807 0 1.488.144 2.041.43.554.28.967.71 1.24 1.29h.176a3.112 3.112 0 0 1 1.416-1.3 4.532 4.532 0 0 1 1.924-.42zm12.412 0c1.283 0 2.311.47 3.086 1.407.781.937 1.172 2.33 1.172 4.18 0 1.223-.182 2.255-.547 3.095-.358.833-.863 1.465-1.514 1.895-.644.423-1.396.634-2.255.634-.547 0-1.023-.071-1.426-.215a3.55 3.55 0 0 1-1.035-.556 3.941 3.941 0 0 1-.723-.762h-.137c.033.26.062.55.088.87.033.312.049.598.049.859v4.404h-2.305V25.189h1.875l.322 1.495h.108c.202-.306.446-.59.732-.85.293-.26.645-.465 1.055-.615.417-.157.902-.235 1.455-.235zm-.615 1.875c-.632 0-1.139.127-1.524.381-.377.248-.654.622-.83 1.123-.169.502-.26 1.13-.273 1.885v.322c0 .801.081 1.481.244 2.041.169.554.446.977.83 1.27.391.286.918.43 1.582.43.56 0 1.022-.153 1.387-.46.371-.305.648-.742.83-1.308.182-.566.273-1.234.273-2.002 0-1.165-.208-2.07-.625-2.715-.41-.644-1.041-.967-1.894-.967zm14.795 6.055c0 .71-.173 1.309-.518 1.797-.345.488-.849.86-1.513 1.113-.658.248-1.465.371-2.422.371-.756 0-1.407-.055-1.953-.166a6.69 6.69 0 0 1-1.534-.488v-1.982c.515.24 1.091.449 1.729.625a6.945 6.945 0 0 0 1.826.263c.755 0 1.299-.117 1.631-.351.332-.241.498-.56.498-.957 0-.235-.068-.443-.205-.625-.13-.19-.378-.381-.742-.577-.358-.201-.886-.442-1.582-.722a13.174 13.174 0 0 1-1.729-.82c-.469-.274-.823-.603-1.064-.987-.241-.39-.362-.889-.362-1.494 0-.957.378-1.683 1.133-2.178.762-.501 1.768-.752 3.018-.752a8.23 8.23 0 0 1 1.875.205 8.92 8.92 0 0 1 1.738.577l-.723 1.728c-.488-.215-.979-.39-1.474-.527a5.29 5.29 0 0 0-1.494-.215c-.593 0-1.045.091-1.358.273-.306.183-.459.443-.459.782a.96.96 0 0 0 .225.644c.15.176.407.352.771.527.371.176.886.394 1.543.655.645.247 1.201.508 1.67.781.475.267.84.596 1.094.986.254.391.381.896.381 1.514zm11.904-7.725V36h-1.807l-.312-1.455h-.127c-.228.371-.518.68-.869.928-.352.24-.742.42-1.172.537-.43.123-.882.185-1.357.185-.814 0-1.511-.136-2.09-.41a2.904 2.904 0 0 1-1.319-1.289c-.306-.58-.459-1.328-.459-2.246v-7.06h2.305v6.63c0 .84.169 1.468.508 1.885.345.417.879.625 1.601.625.697 0 1.25-.143 1.661-.43.41-.286.699-.71.869-1.27.176-.559.263-1.246.263-2.06v-5.38h2.305zm15.508-.205c1.211 0 2.122.313 2.734.938.619.625.928 1.627.928 3.008V36h-2.295v-6.66c0-.82-.159-1.439-.478-1.856-.319-.416-.804-.625-1.456-.625-.911 0-1.569.293-1.972.88-.397.579-.596 1.422-.596 2.529V36h-2.295v-6.66c0-.547-.071-1.003-.215-1.367-.136-.371-.348-.648-.634-.83-.287-.19-.648-.284-1.084-.284-.632 0-1.136.144-1.514.43-.371.287-.638.71-.801 1.27-.163.553-.244 1.233-.244 2.04V36h-2.295V25.19h1.787l.322 1.454h.127c.222-.377.495-.686.821-.927.332-.248.7-.43 1.103-.547a4.28 4.28 0 0 1 1.26-.186c.807 0 1.488.144 2.041.43.553.28.967.71 1.24 1.29h.176a3.112 3.112 0 0 1 1.416-1.3 4.532 4.532 0 0 1 1.924-.42zM33.469 64.273c0 .88-.112 1.683-.336 2.407a5.239 5.239 0 0 1-1 1.86 4.39 4.39 0 0 1-1.633 1.194c-.651.282-1.406.422-2.266.422-.885 0-1.659-.14-2.32-.422a4.337 4.337 0 0 1-1.64-1.203 5.27 5.27 0 0 1-.977-1.867c-.214-.724-.32-1.526-.32-2.406 0-1.167.192-2.19.578-3.07.385-.88.968-1.566 1.75-2.055.786-.49 1.77-.735 2.953-.735 1.13 0 2.08.243 2.851.727.776.484 1.362 1.167 1.758 2.047.401.875.602 1.909.602 3.101zm-9.094 0c0 .97.138 1.808.414 2.516.276.708.698 1.255 1.266 1.64.573.386 1.3.579 2.18.579.885 0 1.609-.193 2.171-.578.568-.386.987-.933 1.258-1.64.27-.71.406-1.548.406-2.517 0-1.473-.31-2.625-.93-3.453-.614-.833-1.575-1.25-2.882-1.25-.886 0-1.615.19-2.188.57-.573.38-1 .922-1.28 1.626-.277.698-.415 1.534-.415 2.507zm15.5-2.992c1.016 0 1.784.25 2.305.75.52.495.78 1.292.78 2.39V70h-1.28v-5.492c0-.714-.164-1.248-.492-1.602-.323-.354-.82-.531-1.493-.531-.948 0-1.614.268-2 .805-.385.536-.578 1.315-.578 2.336V70H35.82v-8.563h1.047l.196 1.235h.07c.182-.302.414-.555.695-.758a3.03 3.03 0 0 1 .945-.469c.35-.11.717-.164 1.102-.164zm9.055 0c.729 0 1.354.162 1.875.485.52.323.919.776 1.195 1.359.276.578.414 1.255.414 2.031v.805H46.5c.016 1.005.266 1.77.75 2.297.484.526 1.167.789 2.047.789.542 0 1.02-.05 1.437-.149a7.922 7.922 0 0 0 1.297-.437v1.14a6.308 6.308 0 0 1-1.289.422 7.388 7.388 0 0 1-1.5.133c-.823 0-1.541-.166-2.156-.5a3.497 3.497 0 0 1-1.422-1.484c-.339-.651-.508-1.448-.508-2.39 0-.923.154-1.72.461-2.391.313-.677.75-1.198 1.313-1.563.567-.364 1.234-.547 2-.547zm-.016 1.063c-.693 0-1.245.226-1.656.68-.412.453-.656 1.085-.735 1.898h4.532c-.005-.51-.086-.958-.242-1.344a1.886 1.886 0 0 0-.696-.906c-.312-.219-.713-.328-1.203-.328zm12.625 6.75c.214 0 .432-.018.656-.055.224-.036.407-.08.547-.133v1.008a2.747 2.747 0 0 1-.633.172c-.265.047-.526.07-.78.07-.454 0-.865-.078-1.235-.234a1.912 1.912 0 0 1-.89-.813c-.22-.38-.329-.906-.329-1.578v-5.078h-1.219v-.633l1.227-.508.515-1.859h.782v1.984h2.508v1.016H60.18v5.04c0 .536.122.937.367 1.202.25.266.58.399.992.399zm4.234-7.656V70h-1.296v-8.563h1.296zm-.632-3.204c.213 0 .395.07.546.211.157.136.235.35.235.64 0 .287-.078.5-.234.642a.774.774 0 0 1-.547.21.794.794 0 0 1-.563-.21c-.146-.141-.219-.355-.219-.641 0-.292.073-.505.22-.64a.794.794 0 0 1 .562-.212zm12.68 3.047c.942 0 1.653.248 2.132.742.48.49.719 1.28.719 2.368V70H79.39v-5.547c0-.693-.151-1.21-.454-1.555-.296-.349-.74-.523-1.328-.523-.828 0-1.43.24-1.804.719-.375.479-.563 1.185-.563 2.117V70h-1.289v-5.547c0-.463-.068-.849-.203-1.156a1.381 1.381 0 0 0-.594-.688c-.26-.156-.59-.234-.992-.234-.568 0-1.023.117-1.367.352-.344.234-.594.583-.75 1.046-.151.459-.227 1.024-.227 1.696V70h-1.297v-8.563h1.047l.196 1.211h.07a2.58 2.58 0 0 1 .648-.75c.26-.203.553-.356.875-.46a3.338 3.338 0 0 1 1.032-.157c.65 0 1.195.123 1.632.367.443.24.764.607.961 1.102h.07a2.65 2.65 0 0 1 1.157-1.102 3.548 3.548 0 0 1 1.61-.367zm8.812 0c.729 0 1.354.162 1.875.485.52.323.92.776 1.195 1.359.276.578.414 1.255.414 2.031v.805h-5.914c.016 1.005.266 1.77.75 2.297.484.526 1.167.789 2.047.789.542 0 1.02-.05 1.438-.149a7.92 7.92 0 0 0 1.296-.437v1.14a6.31 6.31 0 0 1-1.289.422 7.388 7.388 0 0 1-1.5.133c-.823 0-1.541-.166-2.156-.5a3.496 3.496 0 0 1-1.422-1.484c-.338-.651-.508-1.448-.508-2.39 0-.923.154-1.72.461-2.391.313-.677.75-1.198 1.313-1.563.568-.364 1.234-.547 2-.547zm-.016 1.063c-.693 0-1.245.226-1.656.68-.412.453-.656 1.085-.734 1.898h4.53c-.004-.51-.085-.958-.241-1.344a1.886 1.886 0 0 0-.696-.906c-.312-.219-.713-.328-1.203-.328zm4.977 3.937v-1.156h3.875v1.156h-3.875zm7.18-4.844V70h-1.297v-8.563h1.296zm-.633-3.203c.213 0 .395.07.546.211.157.136.235.35.235.64 0 .287-.078.5-.234.642a.774.774 0 0 1-.547.21.794.794 0 0 1-.563-.21c-.146-.141-.219-.355-.219-.641 0-.292.073-.505.22-.64a.794.794 0 0 1 .562-.212zm7.437 3.047c1.016 0 1.784.25 2.305.75.521.495.781 1.292.781 2.39V70h-1.281v-5.492c0-.714-.164-1.248-.492-1.602-.323-.354-.821-.531-1.493-.531-.947 0-1.614.268-2 .805-.385.536-.578 1.315-.578 2.336V70h-1.297v-8.563h1.047l.196 1.235h.07c.182-.302.414-.555.695-.758a3.03 3.03 0 0 1 .946-.469 3.66 3.66 0 0 1 1.101-.164zM113.219 70l-3.25-8.563h1.39l1.883 5.18c.13.354.263.745.399 1.172.135.427.229.77.281 1.031h.055c.062-.26.166-.604.312-1.03.146-.433.279-.824.399-1.173l1.882-5.18h1.391L114.703 70h-1.484zm9.414-8.719c.729 0 1.354.162 1.875.485.521.323.919.776 1.195 1.359.276.578.414 1.255.414 2.031v.805h-5.914c.016 1.005.266 1.77.75 2.297.485.526 1.167.789 2.047.789.542 0 1.021-.05 1.438-.149a7.937 7.937 0 0 0 1.296-.437v1.14a6.306 6.306 0 0 1-1.289.422 7.389 7.389 0 0 1-1.5.133c-.823 0-1.541-.166-2.156-.5a3.502 3.502 0 0 1-1.422-1.484c-.338-.651-.508-1.448-.508-2.39 0-.923.154-1.72.461-2.391.313-.677.75-1.198 1.313-1.563.568-.364 1.234-.547 2-.547zm-.016 1.063c-.693 0-1.245.226-1.656.68-.412.453-.656 1.085-.734 1.898h4.531c-.005-.51-.086-.958-.242-1.344a1.884 1.884 0 0 0-.696-.906c-.312-.219-.713-.328-1.203-.328zm11.242 5.312c0 .547-.138 1.008-.414 1.383-.271.37-.661.648-1.172.836-.505.188-1.109.281-1.812.281a7.51 7.51 0 0 1-1.555-.14 4.5 4.5 0 0 1-1.148-.399v-1.195c.349.172.765.328 1.25.469.484.14.979.21 1.484.21.74 0 1.276-.12 1.61-.359.333-.24.5-.565.5-.976a.985.985 0 0 0-.204-.618c-.13-.182-.351-.356-.664-.523a9.802 9.802 0 0 0-1.296-.563 14.956 14.956 0 0 1-1.422-.617c-.396-.208-.704-.46-.922-.757-.214-.297-.321-.683-.321-1.157 0-.724.292-1.278.875-1.664.589-.39 1.36-.586 2.313-.586.516 0 .997.052 1.445.157.453.098.875.234 1.266.406l-.438 1.039a8.023 8.023 0 0 0-1.132-.383 4.859 4.859 0 0 0-1.227-.156c-.599 0-1.06.099-1.383.297-.318.198-.476.468-.476.812 0 .266.073.484.218.656.151.172.391.334.719.485.328.15.761.328 1.297.531.536.198 1 .404 1.391.617.39.209.69.464.898.766.214.297.32.68.32 1.148zm4.852 1.438c.213 0 .432-.018.656-.055.224-.036.406-.08.547-.133v1.008a2.745 2.745 0 0 1-.633.172c-.265.047-.526.07-.781.07-.453 0-.865-.078-1.234-.234a1.912 1.912 0 0 1-.891-.813c-.219-.38-.328-.906-.328-1.578v-5.078h-1.219v-.633l1.227-.508.515-1.859h.782v1.984h2.507v1.016h-2.507v5.04c0 .536.122.937.367 1.202.25.266.58.399.992.399zm12.234-7.813c.943 0 1.654.248 2.133.742.479.49.719 1.28.719 2.368V70h-1.281v-5.547c0-.693-.151-1.21-.454-1.555-.296-.349-.739-.523-1.328-.523-.828 0-1.429.24-1.804.719s-.563 1.185-.563 2.117V70h-1.289v-5.547c0-.463-.068-.849-.203-1.156a1.38 1.38 0 0 0-.594-.688c-.26-.156-.591-.234-.992-.234-.568 0-1.023.117-1.367.352-.344.234-.594.583-.75 1.046-.151.459-.227 1.024-.227 1.696V70h-1.297v-8.563h1.047l.196 1.211h.07c.172-.296.388-.546.648-.75.261-.203.552-.356.875-.46a3.341 3.341 0 0 1 1.032-.157c.651 0 1.195.123 1.632.367.443.24.763.607.961 1.102h.071a2.645 2.645 0 0 1 1.156-1.102 3.548 3.548 0 0 1 1.609-.367zm8.813 0c.729 0 1.354.162 1.875.485.521.323.919.776 1.195 1.359.276.578.414 1.255.414 2.031v.805h-5.914c.016 1.005.266 1.77.75 2.297.484.526 1.167.789 2.047.789.542 0 1.021-.05 1.437-.149a7.915 7.915 0 0 0 1.297-.437v1.14a6.306 6.306 0 0 1-1.289.422 7.389 7.389 0 0 1-1.5.133c-.823 0-1.541-.166-2.156-.5a3.502 3.502 0 0 1-1.422-1.484c-.338-.651-.508-1.448-.508-2.39 0-.923.154-1.72.461-2.391.313-.677.75-1.198 1.313-1.563.568-.364 1.234-.547 2-.547zm-.016 1.063c-.693 0-1.245.226-1.656.68-.412.453-.656 1.085-.734 1.898h4.531c-.005-.51-.086-.958-.242-1.344a1.884 1.884 0 0 0-.696-.906c-.312-.219-.713-.328-1.203-.328zm9.758-1.063c1.016 0 1.784.25 2.305.75.521.495.781 1.292.781 2.39V70h-1.281v-5.492c0-.714-.164-1.248-.493-1.602-.322-.354-.82-.531-1.492-.531-.948 0-1.614.268-2 .805-.385.536-.578 1.315-.578 2.336V70h-1.297v-8.563h1.047l.196 1.235h.07c.182-.302.414-.555.695-.758.281-.208.596-.364.945-.469.349-.11.717-.164 1.102-.164zm8.523 7.813c.214 0 .433-.018.657-.055.224-.036.406-.08.547-.133v1.008a2.745 2.745 0 0 1-.633.172c-.266.047-.526.07-.782.07-.453 0-.864-.078-1.234-.234a1.905 1.905 0 0 1-.89-.813c-.219-.38-.329-.906-.329-1.578v-5.078h-1.218v-.633l1.226-.508.516-1.859h.781v1.984h2.508v1.016h-2.508v5.04c0 .536.122.937.367 1.202.25.266.581.399.992.399zm4.422-.953.102.18c-.094.38-.214.786-.359 1.218-.141.432-.297.865-.469 1.297a22.12 22.12 0 0 1-.508 1.227h-.969c.11-.417.216-.857.32-1.32.105-.46.198-.912.282-1.36.088-.453.159-.867.211-1.242h1.39zm9.578.953c.214 0 .433-.018.657-.055.224-.036.406-.08.547-.133v1.008a2.745 2.745 0 0 1-.633.172c-.266.047-.526.07-.782.07-.453 0-.864-.078-1.234-.234a1.905 1.905 0 0 1-.89-.813c-.219-.38-.329-.906-.329-1.578v-5.078h-1.218v-.633l1.226-.508.516-1.859h.781v1.984h2.508v1.016h-2.508v5.04c0 .536.122.937.367 1.202.25.266.581.399.992.399zm10.321-3.39c0 .702-.091 1.33-.274 1.882a3.849 3.849 0 0 1-.789 1.398c-.343.38-.76.672-1.25.875-.484.198-1.034.297-1.648.297a4.093 4.093 0 0 1-1.578-.297 3.565 3.565 0 0 1-1.235-.875 4.04 4.04 0 0 1-.804-1.398c-.188-.552-.282-1.18-.282-1.883 0-.937.159-1.734.477-2.39.318-.662.771-1.165 1.359-1.508.594-.35 1.3-.524 2.118-.524.781 0 1.463.175 2.046.524.589.349 1.045.854 1.368 1.515.328.657.492 1.45.492 2.383zm-6.516 0c0 .687.091 1.283.274 1.788.182.505.463.896.843 1.172.381.276.87.414 1.469.414.594 0 1.081-.138 1.461-.414.385-.276.669-.667.852-1.172.182-.505.273-1.101.273-1.789 0-.682-.091-1.27-.273-1.766-.183-.5-.464-.885-.844-1.156-.38-.27-.873-.406-1.477-.406-.89 0-1.544.294-1.961.883-.411.588-.617 1.404-.617 2.445zm15.305 8.14c-1.125 0-1.992-.211-2.602-.633-.609-.417-.914-1.003-.914-1.758 0-.536.169-.995.508-1.375.344-.38.818-.633 1.422-.758a1.554 1.554 0 0 1-.578-.468 1.162 1.162 0 0 1-.235-.72c0-.312.086-.585.258-.82.177-.24.446-.468.805-.687a2.339 2.339 0 0 1-1.094-.922c-.276-.437-.414-.945-.414-1.523 0-.615.128-1.138.383-1.57a2.47 2.47 0 0 1 1.109-1c.485-.23 1.071-.344 1.758-.344.151 0 .302.007.453.023.156.01.305.029.446.055.14.02.263.047.367.078h2.937v.836l-1.578.195a2.776 2.776 0 0 1 .547 1.688c0 .854-.289 1.534-.867 2.039-.578.5-1.373.75-2.383.75-.24 0-.484-.021-.734-.063-.256.14-.451.297-.586.469a.952.952 0 0 0-.196.594c0 .166.05.3.149.398a.962.962 0 0 0 .445.219c.193.041.425.062.695.062h1.508c.932 0 1.646.196 2.141.586.5.39.75.961.75 1.711 0 .948-.386 1.675-1.156 2.18-.771.505-1.886.758-3.344.758zm.039-1.016c.708 0 1.294-.073 1.758-.219.468-.14.817-.346 1.047-.617.234-.265.351-.583.351-.953 0-.344-.078-.604-.234-.781-.156-.172-.386-.287-.688-.344a5.577 5.577 0 0 0-1.109-.094h-1.485c-.385 0-.721.06-1.007.18-.287.12-.508.297-.664.531-.151.235-.227.526-.227.875 0 .464.195.815.586 1.055.391.245.948.367 1.672.367zm.336-6.844c.62 0 1.086-.156 1.398-.468.313-.313.469-.769.469-1.368 0-.64-.159-1.12-.477-1.437-.317-.323-.786-.484-1.406-.484-.594 0-1.052.166-1.375.5-.318.328-.476.81-.476 1.445 0 .583.161 1.031.484 1.344.323.312.784.468 1.383.468zm9.219-4.703c.729 0 1.354.162 1.875.485.52.323.919.776 1.195 1.359.276.578.414 1.255.414 2.031v.805h-5.914c.015 1.005.265 1.77.75 2.297.484.526 1.167.789 2.047.789.541 0 1.021-.05 1.437-.149a7.915 7.915 0 0 0 1.297-.437v1.14a6.306 6.306 0 0 1-1.289.422 7.389 7.389 0 0 1-1.5.133c-.823 0-1.542-.166-2.156-.5a3.49 3.49 0 0 1-1.422-1.484c-.339-.651-.508-1.448-.508-2.39 0-.923.154-1.72.461-2.391.313-.677.75-1.198 1.313-1.563.567-.364 1.234-.547 2-.547zm-.016 1.063c-.693 0-1.245.226-1.656.68-.412.453-.657 1.085-.735 1.898h4.532c-.006-.51-.086-.958-.243-1.344a1.883 1.883 0 0 0-.695-.906c-.312-.219-.713-.328-1.203-.328zm8.469 6.75c.213 0 .432-.018.656-.055.224-.036.406-.08.547-.133v1.008a2.745 2.745 0 0 1-.633.172 4.49 4.49 0 0 1-.781.07c-.453 0-.865-.078-1.235-.234a1.915 1.915 0 0 1-.89-.813c-.219-.38-.328-.906-.328-1.578v-5.078h-1.219v-.633l1.226-.508.516-1.859h.781v1.984h2.508v1.016h-2.508v5.04c0 .536.123.937.368 1.202.25.266.58.399.992.399zm8.39-11.25v3.633c0 .208-.005.419-.015.632a6.278 6.278 0 0 1-.055.578h.086a2.54 2.54 0 0 1 .672-.757c.276-.209.588-.365.937-.47.349-.108.719-.163 1.11-.163.687 0 1.26.11 1.718.328.464.219.81.557 1.039 1.016.235.458.352 1.052.352 1.78V70h-1.281v-5.492c0-.714-.164-1.248-.492-1.602-.323-.354-.821-.531-1.493-.531-.635 0-1.143.122-1.523.367-.375.24-.646.594-.813 1.063-.161.468-.242 1.041-.242 1.718V70h-1.297V57.844h1.297zm9.813 3.593V70h-1.297v-8.563h1.297zm-.633-3.203c.214 0 .396.07.547.211.156.136.234.35.234.64 0 .287-.078.5-.234.642a.773.773 0 0 1-.547.21.793.793 0 0 1-.562-.21c-.146-.141-.219-.355-.219-.641 0-.292.073-.505.219-.64a.793.793 0 0 1 .562-.212zm5.773 15.61c-1.125 0-1.992-.211-2.601-.633-.61-.417-.914-1.003-.914-1.758 0-.536.169-.995.508-1.375.343-.38.817-.633 1.422-.758a1.564 1.564 0 0 1-.579-.468 1.167 1.167 0 0 1-.234-.72c0-.312.086-.585.258-.82.177-.24.445-.468.805-.687a2.339 2.339 0 0 1-1.094-.922c-.276-.437-.414-.945-.414-1.523 0-.615.127-1.138.382-1.57.256-.438.626-.771 1.11-1 .484-.23 1.07-.344 1.758-.344.151 0 .302.007.453.023.156.01.305.029.445.055.141.02.263.047.367.078h2.938v.836l-1.578.195a2.776 2.776 0 0 1 .547 1.688c0 .854-.29 1.534-.868 2.039-.578.5-1.372.75-2.382.75-.24 0-.485-.021-.735-.063a1.91 1.91 0 0 0-.586.469.958.958 0 0 0-.195.594c0 .166.049.3.148.398a.971.971 0 0 0 .446.219c.192.041.424.062.695.062h1.508c.932 0 1.646.196 2.14.586.5.39.75.961.75 1.711 0 .948-.385 1.675-1.156 2.18-.771.505-1.885.758-3.344.758zm.039-1.016c.709 0 1.295-.073 1.758-.219.469-.14.818-.346 1.047-.617a1.39 1.39 0 0 0 .352-.953c0-.344-.078-.604-.235-.781-.156-.172-.385-.287-.687-.344a5.577 5.577 0 0 0-1.109-.094h-1.485c-.385 0-.721.06-1.008.18-.286.12-.507.297-.664.531-.151.235-.226.526-.226.875 0 .464.195.815.586 1.055.39.245.948.367 1.671.367zm.336-6.844c.62 0 1.086-.156 1.399-.468.312-.313.469-.769.469-1.368 0-.64-.159-1.12-.477-1.437-.318-.323-.786-.484-1.406-.484-.594 0-1.052.166-1.375.5-.318.328-.477.81-.477 1.445 0 .583.162 1.031.485 1.344.323.312.783.468 1.382.468zm7.219-8.14v3.633c0 .208-.005.419-.015.632a6.278 6.278 0 0 1-.055.578h.086a2.54 2.54 0 0 1 .672-.757c.276-.209.588-.365.937-.47.349-.108.719-.163 1.11-.163.687 0 1.26.11 1.718.328.464.219.81.557 1.039 1.016.235.458.352 1.052.352 1.78V70h-1.281v-5.492c0-.714-.164-1.248-.492-1.602-.323-.354-.821-.531-1.493-.531-.635 0-1.143.122-1.523.367-.375.24-.646.594-.813 1.063-.161.468-.242 1.041-.242 1.718V70h-1.297V57.844h1.297zm11.813 3.437c.729 0 1.354.162 1.875.485.521.323.919.776 1.195 1.359.276.578.414 1.255.414 2.031v.805H269.5c.016 1.005.266 1.77.75 2.297.484.526 1.167.789 2.047.789.542 0 1.021-.05 1.437-.149a7.915 7.915 0 0 0 1.297-.437v1.14a6.306 6.306 0 0 1-1.289.422 7.389 7.389 0 0 1-1.5.133c-.823 0-1.541-.166-2.156-.5a3.502 3.502 0 0 1-1.422-1.484c-.338-.651-.508-1.448-.508-2.39 0-.923.154-1.72.461-2.391.313-.677.75-1.198 1.313-1.563.567-.364 1.234-.547 2-.547zm-.016 1.063c-.693 0-1.245.226-1.656.68-.412.453-.656 1.085-.735 1.898h4.532c-.006-.51-.086-.958-.243-1.344a1.883 1.883 0 0 0-.695-.906c-.312-.219-.713-.328-1.203-.328zm9.594-1.063c.172 0 .351.01.539.032.187.015.354.039.5.07l-.164 1.203a4.04 4.04 0 0 0-.953-.117c-.344 0-.67.07-.977.21a2.315 2.315 0 0 0-.797.594 2.763 2.763 0 0 0-.539.93c-.13.36-.195.76-.195 1.203V70h-1.305v-8.563h1.078l.141 1.579h.055c.177-.318.39-.607.64-.868.25-.265.539-.476.867-.632a2.588 2.588 0 0 1 1.11-.235zm10.703 0c.172 0 .351.01.539.032.188.015.354.039.5.07l-.164 1.203a4.04 4.04 0 0 0-.953-.117c-.344 0-.669.07-.977.21a2.325 2.325 0 0 0-.797.594 2.78 2.78 0 0 0-.539.93c-.13.36-.195.76-.195 1.203V70h-1.305v-8.563h1.078l.141 1.579h.055c.177-.318.39-.607.64-.868.25-.265.539-.476.868-.632a2.58 2.58 0 0 1 1.109-.235zm5.953 0c.729 0 1.354.162 1.875.485.521.323.919.776 1.195 1.359.276.578.414 1.255.414 2.031v.805h-5.914c.016 1.005.266 1.77.75 2.297.485.526 1.167.789 2.047.789.542 0 1.021-.05 1.438-.149a7.947 7.947 0 0 0 1.297-.437v1.14a6.326 6.326 0 0 1-1.289.422 7.389 7.389 0 0 1-1.5.133c-.823 0-1.542-.166-2.157-.5a3.502 3.502 0 0 1-1.422-1.484c-.338-.651-.507-1.448-.507-2.39 0-.923.153-1.72.461-2.391.312-.677.75-1.198 1.312-1.563.568-.364 1.234-.547 2-.547zm-.016 1.063c-.692 0-1.244.226-1.656.68-.411.453-.656 1.085-.734 1.898h4.531c-.005-.51-.086-.958-.242-1.344a1.889 1.889 0 0 0-.695-.906c-.313-.219-.714-.328-1.204-.328zm8.469 6.75c.214 0 .432-.018.656-.055.224-.036.407-.08.547-.133v1.008a2.749 2.749 0 0 1-.632.172c-.266.047-.527.07-.782.07-.453 0-.864-.078-1.234-.234a1.912 1.912 0 0 1-.891-.813c-.219-.38-.328-.906-.328-1.578v-5.078h-1.219v-.633l1.227-.508.516-1.859h.781v1.984h2.508v1.016h-2.508v5.04c0 .536.122.937.367 1.202.25.266.581.399.992.399zm10.008-7.656V70h-1.063l-.187-1.203h-.07a2.492 2.492 0 0 1-.688.75 2.984 2.984 0 0 1-.953.453 3.884 3.884 0 0 1-1.117.156c-.677 0-1.245-.11-1.703-.328a2.203 2.203 0 0 1-1.039-1.016c-.229-.458-.344-1.046-.344-1.765v-5.61h1.312v5.516c0 .714.162 1.248.485 1.602.323.349.815.523 1.476.523.636 0 1.141-.12 1.516-.36.38-.239.654-.59.82-1.054.167-.469.25-1.042.25-1.719v-4.507h1.305zm6.633-.157c.172 0 .351.01.539.032.187.015.354.039.5.07l-.164 1.203a4.04 4.04 0 0 0-.953-.117c-.344 0-.67.07-.977.21a2.315 2.315 0 0 0-.797.594 2.763 2.763 0 0 0-.539.93c-.13.36-.195.76-.195 1.203V70h-1.305v-8.563h1.078l.141 1.579h.055c.177-.318.39-.607.64-.868.25-.265.539-.476.867-.632a2.588 2.588 0 0 1 1.11-.235zm6.711 0c1.015 0 1.784.25 2.304.75.521.495.782 1.292.782 2.39V70h-1.282v-5.492c0-.714-.164-1.248-.492-1.602-.323-.354-.82-.531-1.492-.531-.948 0-1.615.268-2 .805-.385.536-.578 1.315-.578 2.336V70h-1.297v-8.563h1.047l.195 1.235h.071c.182-.302.414-.555.695-.758.281-.208.596-.364.945-.469.349-.11.716-.164 1.102-.164zm11.297 6.375c0 .547-.138 1.008-.414 1.383-.271.37-.662.648-1.172.836-.506.188-1.11.281-1.813.281a7.51 7.51 0 0 1-1.555-.14 4.5 4.5 0 0 1-1.148-.399v-1.195c.349.172.766.328 1.25.469.484.14.979.21 1.484.21.74 0 1.276-.12 1.61-.359.333-.24.5-.565.5-.976a.99.99 0 0 0-.203-.618c-.131-.182-.352-.356-.664-.523a9.884 9.884 0 0 0-1.297-.563 14.956 14.956 0 0 1-1.422-.617c-.396-.208-.703-.46-.922-.757-.214-.297-.32-.683-.32-1.157 0-.724.291-1.278.875-1.664.588-.39 1.359-.586 2.312-.586.516 0 .998.052 1.445.157.454.098.876.234 1.266.406l-.437 1.039a8.08 8.08 0 0 0-1.133-.383 4.859 4.859 0 0 0-1.227-.156c-.599 0-1.06.099-1.383.297-.317.198-.476.468-.476.812 0 .266.073.484.219.656.151.172.39.334.718.485.329.15.761.328 1.297.531.537.198 1 .404 1.391.617.391.209.69.464.898.766.214.297.321.68.321 1.148zm13.625-1.953c0 .703-.092 1.33-.274 1.883a3.849 3.849 0 0 1-.789 1.398c-.344.38-.76.672-1.25.875-.484.198-1.034.297-1.648.297a4.093 4.093 0 0 1-1.578-.297 3.565 3.565 0 0 1-1.235-.875 4.043 4.043 0 0 1-.805-1.398c-.187-.552-.281-1.18-.281-1.883 0-.937.159-1.734.477-2.39.318-.662.771-1.165 1.359-1.508.594-.35 1.3-.524 2.117-.524.782 0 1.464.175 2.047.524.589.349 1.045.854 1.367 1.515.329.657.493 1.45.493 2.383zm-6.516 0c0 .688.091 1.284.273 1.79.183.504.464.895.844 1.171.38.276.87.414 1.469.414.594 0 1.081-.138 1.461-.414.385-.276.669-.667.851-1.172.183-.505.274-1.101.274-1.789 0-.682-.091-1.27-.274-1.766-.182-.5-.463-.885-.843-1.156-.381-.27-.873-.406-1.477-.406-.891 0-1.544.294-1.961.883-.411.588-.617 1.404-.617 2.445zM359.016 70l-3.25-8.563h1.39l1.883 5.18c.13.354.263.745.399 1.172.135.427.229.77.281 1.031h.054c.063-.26.167-.604.313-1.03l.398-1.173 1.883-5.18h1.391L360.5 70h-1.484zm9.414-8.719c.729 0 1.354.162 1.875.485.521.323.919.776 1.195 1.359.276.578.414 1.255.414 2.031v.805H366c.016 1.005.266 1.77.75 2.297.484.526 1.167.789 2.047.789.542 0 1.021-.05 1.437-.149a7.915 7.915 0 0 0 1.297-.437v1.14a6.306 6.306 0 0 1-1.289.422 7.389 7.389 0 0 1-1.5.133c-.823 0-1.541-.166-2.156-.5a3.502 3.502 0 0 1-1.422-1.484c-.338-.651-.508-1.448-.508-2.39 0-.923.154-1.72.461-2.391.313-.677.75-1.198 1.313-1.563.567-.364 1.234-.547 2-.547zm-.016 1.063c-.693 0-1.245.226-1.656.68-.412.453-.656 1.085-.735 1.898h4.532c-.006-.51-.086-.958-.243-1.344a1.883 1.883 0 0 0-.695-.906c-.312-.219-.713-.328-1.203-.328zm9.594-1.063c.172 0 .351.01.539.032.187.015.354.039.5.07l-.164 1.203a4.04 4.04 0 0 0-.953-.117c-.344 0-.67.07-.977.21a2.315 2.315 0 0 0-.797.594 2.763 2.763 0 0 0-.539.93c-.13.36-.195.76-.195 1.203V70h-1.305v-8.563h1.078l.141 1.579h.055c.177-.318.39-.607.64-.868.25-.265.539-.476.867-.632a2.588 2.588 0 0 1 1.11-.235zm9.578 7.813c.213 0 .432-.018.656-.055.224-.036.406-.08.547-.133v1.008a2.745 2.745 0 0 1-.633.172c-.265.047-.526.07-.781.07-.453 0-.865-.078-1.234-.234a1.912 1.912 0 0 1-.891-.813c-.219-.38-.328-.906-.328-1.578v-5.078h-1.219v-.633l1.227-.508.515-1.859h.782v1.984h2.507v1.016h-2.507v5.04c0 .536.122.937.367 1.202.25.266.58.399.992.399zm4.234-7.656V70h-1.297v-8.563h1.297zm-.632-3.204c.213 0 .395.07.546.211.157.136.235.35.235.64 0 .287-.078.5-.235.642a.773.773 0 0 1-.546.21.795.795 0 0 1-.563-.21c-.146-.141-.219-.355-.219-.641 0-.292.073-.505.219-.64a.795.795 0 0 1 .563-.212zm12.679 3.047c.943 0 1.654.248 2.133.742.479.49.719 1.28.719 2.368V70h-1.281v-5.547c0-.693-.152-1.21-.454-1.555-.296-.349-.739-.523-1.328-.523-.828 0-1.429.24-1.804.719s-.563 1.185-.563 2.117V70H400v-5.547c0-.463-.068-.849-.203-1.156a1.38 1.38 0 0 0-.594-.688c-.26-.156-.591-.234-.992-.234-.568 0-1.023.117-1.367.352-.344.234-.594.583-.75 1.046-.151.459-.227 1.024-.227 1.696V70h-1.297v-8.563h1.047l.195 1.211h.071c.172-.296.388-.546.648-.75.261-.203.552-.356.875-.46a3.341 3.341 0 0 1 1.032-.157c.651 0 1.195.123 1.632.367.443.24.763.607.961 1.102h.071a2.645 2.645 0 0 1 1.156-1.102 3.545 3.545 0 0 1 1.609-.367zm8.813 0c.729 0 1.354.162 1.875.485.521.323.919.776 1.195 1.359.276.578.414 1.255.414 2.031v.805h-5.914c.016 1.005.266 1.77.75 2.297.484.526 1.167.789 2.047.789.542 0 1.021-.05 1.437-.149a7.915 7.915 0 0 0 1.297-.437v1.14a6.306 6.306 0 0 1-1.289.422 7.389 7.389 0 0 1-1.5.133c-.823 0-1.541-.166-2.156-.5a3.502 3.502 0 0 1-1.422-1.484c-.338-.651-.508-1.448-.508-2.39 0-.923.154-1.72.461-2.391.313-.677.75-1.198 1.313-1.563.567-.364 1.234-.547 2-.547zm-.016 1.063c-.693 0-1.245.226-1.656.68-.412.453-.656 1.085-.735 1.898h4.532c-.006-.51-.086-.958-.243-1.344a1.883 1.883 0 0 0-.695-.906c-.312-.219-.713-.328-1.203-.328zm5.508 6.843c0-.364.088-.622.266-.773a.944.944 0 0 1 .648-.234c.266 0 .49.078.672.234.182.151.273.409.273.773 0 .36-.091.623-.273.79a.976.976 0 0 1-.672.242.927.927 0 0 1-.648-.242c-.178-.167-.266-.43-.266-.79z" fill="#333"/>
    <g clip-path="url(#nucew3lk1b)">
        <path d="M623.556 57.407s-3.695-18.444-17.591-26.594h-9.932c-13.897 8.15-17.59 26.594-17.59 26.594-4.064 21.446 21.187 18.715 21.187 18.715h2.739s25.251 2.731 21.187-18.715z" fill="#E8C47B"/>
        <path d="M623.555 57.407s-3.694-18.444-17.59-26.594h-5.52c9.439 8.191 12.092 21.417 12.092 21.417 3.71 19.595-19.353 17.1-19.353 17.1h-2.5s-6.012.649-11.405-1.326c4.641 9.81 20.352 8.114 20.352 8.114h2.739s25.249 2.735 21.185-18.711z" fill="#DAB873"/>
        <path d="M585.953 18.822c-.516-.667-1.329-2.104-.445-2.771 1.154-.868 3.41.053 4.584.379 1.538.42 3.227.798 4.912.625 1.644-.168 3.516-1.069 4.973-1.652 1.458-.584 3.033-1.655 4.799-1.119 1.85.57 2.577 2.157 4.712 2.356 3.749.353 5.962-2.964 9.48-2.61 1.827.19 1.618 1.306.593 2.085l-13.596 14.709h-9.932l-10.08-12.002z" fill="#E8C47B"/>
        <path d="M597.071 30.813s-4.577 3.294-6.012 5.807c0 0 6.118-4.467 9.386-5.807h-3.374z" fill="#DAB873"/>
        <path d="M598.447 30.813s3.528 1.84 5.258 5.807c0 0-.223-3.347-2.061-5.807h-3.197zM605.452 39.092s3.096 5.726 4.777 11.973c0-.008.366-7.09-4.777-11.973z" fill="#DAB873"/>
        <path d="M609.554 39.82s3.096 5.726 4.777 11.974c0 0 .364-7.091-4.777-11.974z" fill="#E8C47B"/>
        <path d="M604.693 41.96s5.193-.835 9.921.367c0-.006-4.731-2.425-9.921-.366zM605.821 44.713s5.193-.836 9.92.366c.008 0-4.727-2.419-9.92-.366z" fill="#E8C47B"/>
        <path d="M605.821 44.713a29.357 29.357 0 0 1 4.139-.288 28.52 28.52 0 0 0-.233-.53c-1.34.05-2.662.326-3.906.818zM608.669 41.675a64.847 64.847 0 0 0-.271-.525c-1.272.07-2.523.344-3.705.812a28.906 28.906 0 0 1 3.976-.287zM591.819 16.843l6.628 12.215V16.031l-.384.156-.068.026c-.131.051-.259.103-.384.15h-.016c-.134.05-.267.099-.404.146l-.082.028-.318.105-.107.034a12.36 12.36 0 0 1-.366.108l-.031.01c-.13.035-.259.067-.384.098l-.106.023-.292.056-.112.021c-.127.021-.254.038-.385.051a10.801 10.801 0 0 1-3.189-.2zM590.091 16.425a15.357 15.357 0 0 1-.457-.136l5.498 8.306-4.021-7.908c-.346-.081-.677-.17-1.02-.262zM619.561 16.105c1.025-.77 1.234-1.895-.593-2.084-3.204-.323-5.327 2.4-8.516 2.62l-7.324 14.173h2.846l13.587-14.709zM604.001 27.316l5.429-10.688c-1.113-.12-1.842-.618-2.556-1.138l-2.873 11.826z" fill="#DAB873"/>
        <path d="M595.369 61.175c-5.927 0-10.749-4.642-10.749-10.345 0-5.704 4.822-10.344 10.749-10.344 5.928 0 10.75 4.64 10.75 10.344 0 5.703-4.822 10.345-10.75 10.345zm0-19.362c-5.193 0-9.403 4.045-9.403 9.017 0 4.971 4.218 9.018 9.403 9.018 5.186 0 9.404-4.047 9.404-9.018 0-4.972-4.218-9.017-9.404-9.017z" fill="#534741"/>
        <path d="m591.552 52.078 4.039 5.324h2.806l-4.435-5.449a5.668 5.668 0 0 0 2.595-2.316c.046-.082.084-.163.127-.246h2.5v-1.977h-1.923c.045-.392.056-.787.034-1.181h1.889v-1.977h-7.511v1.977h3.628c.036.394.022.79-.043 1.18h-3.585v1.978h2.558a4.828 4.828 0 0 1-2.142 1.137l-.537 1.55z" fill="#534741"/>
    </g>
    <defs>
        <clipPath id="nucew3lk1b">
            <path fill="#fff" transform="translate(578 14)" d="M0 0h46v62.235H0z"/>
        </clipPath>
    </defs>
</svg>
