<svg id="Layer_1" data-name="Layer 1" xmlns="http://www.w3.org/2000/svg" viewBox="0 0 590 185"><defs><style>.cls-1{fill:#f58220;}.cls-2{fill:#329bd1;}</style></defs><path class="cls-1" d="M132.07,94.11v42.26h18.47V94.11c0-19.85-17.64-32.12-34-32.12A36.27,36.27,0,0,0,91.69,72.3,36,36,0,0,0,66.77,62C50.23,62,32.52,74.91,32.52,94.11v33.81a9.24,9.24,0,1,0,18.47,0V94.11c0-7.81,8.33-13.64,15.78-13.64S82.3,85.69,82.3,94.11v33.81a9.24,9.24,0,1,0,18.47,0V94.11c0-7.81,8.34-13.64,15.79-13.64S132.07,85.69,132.07,94.11Z"/><path class="cls-1" d="M164.47,146.85a7.72,7.72,0,0,1-3-.58,7.82,7.82,0,0,1-4.24-10.19l4.86-11.79a7.79,7.79,0,1,1,14.42,5.91L171.68,142A7.79,7.79,0,0,1,164.47,146.85Z"/><path class="cls-2" d="M189.12,125.84a10,10,0,0,1-4.05-8.1,9.88,9.88,0,0,1,10-9.91,10.46,10.46,0,0,1,6.14,2c7.39,5.45,15.48,8.79,25,8.79,8.79,0,14.09-3.49,14.09-9.21v-.27c0-5.45-3.34-8.22-19.66-12.41-19.69-5-32.36-10.47-32.36-29.86v-.27c0-17.72,14.22-29.43,34.17-29.43a56.49,56.49,0,0,1,31,8.66,9.74,9.74,0,0,1,4.74,8.49,9.88,9.88,0,0,1-10,9.9,10.19,10.19,0,0,1-5.43-1.53c-7.11-4.19-13.81-6.55-20.5-6.55-8.23,0-12.55,3.76-12.55,8.5v.29c0,6.41,4.18,8.5,21.06,12.83,19.79,5.16,31,12.26,31,29.29v.28c0,19.39-14.78,30.26-35.85,30.26A63,63,0,0,1,189.12,125.84Z"/><path class="cls-2" d="M276.69,115V79.53H276a9.07,9.07,0,0,1,0-18.13h.7V52.05a10.6,10.6,0,1,1,21.2,0V61.4h9.35a9.07,9.07,0,0,1,0,18.13h-9.35v32c0,4.87,2.09,7.25,6.83,7.25.7,0,2.08-.15,2.52-.15a8.85,8.85,0,0,1,8.79,8.79,8.64,8.64,0,0,1-5.45,7.95,31.36,31.36,0,0,1-12.13,2.09C285.47,137.41,276.69,132.25,276.69,115Z"/><path class="cls-2" d="M321.16,99.19v-.27c0-21.49,17.3-38.92,40.59-38.92s40.31,17.16,40.31,38.64v.28c0,21.47-17.3,38.9-40.59,38.9S321.16,120.67,321.16,99.19Zm60,0v-.27c0-11-7.94-20.65-19.66-20.65-12.13,0-19.38,9.35-19.38,20.37v.28c0,11,7.94,20.64,19.66,20.64C373.89,119.56,381.13,110.21,381.13,99.19Z"/><path class="cls-2" d="M409.58,99.19v-.27c0-21.34,16.32-38.92,39.2-38.92,11.29,0,19.24,3.07,25.51,8.37a9.4,9.4,0,0,1,3.36,7.25A9.53,9.53,0,0,1,468,85.11,10,10,0,0,1,461.89,83a20.15,20.15,0,0,0-13.25-4.76c-10.61,0-18.14,9.35-18.14,20.37v.28c0,11.44,7.39,20.64,19,20.64a21.54,21.54,0,0,0,13.95-5.16,9.79,9.79,0,0,1,5.72-2A9,9,0,0,1,475,128.21c-6.28,5.72-14.23,9.61-26.51,9.61C426,137.82,409.58,120.54,409.58,99.19Z"/><path class="cls-2" d="M488.64,44.1a10.6,10.6,0,0,1,21.19,0V90.4l26.51-25.1c3.07-2.92,5.58-4.73,9.35-4.73A9.28,9.28,0,0,1,555,70.05c0,3.62-2,6.41-4.9,9.2L533.41,93.62l19.94,26.92c1.82,2.5,2.65,4.45,2.65,6.83a9.6,9.6,0,0,1-9.9,9.62c-4.18,0-6.69-1.4-9.2-4.88l-18.55-25.53-8.52,7.68v12.13a10.6,10.6,0,1,1-21.19,0Z"/></svg>