<svg id="Layer_1" data-name="Layer 1" xmlns="http://www.w3.org/2000/svg" viewBox="0 0 90.6 32"><defs><style>.cls-1{fill:#f58220;}.cls-2{fill:#1b3e71;}.cls-3{font-size:7.39px;fill:#1d427c;font-family:SpoqaHanSansNeo-Regular, Spoqa Han Sans Neo;}.cls-4,.cls-5,.cls-6,.cls-7{font-family:SpoqaHanSansNeo-Bold, Spoqa Han Sans Neo;font-weight:700;}.cls-4{letter-spacing:0em;}.cls-5{letter-spacing:-0.03em;}.cls-6{letter-spacing:0em;}.cls-7{letter-spacing:0.02em;}</style></defs><path class="cls-1" d="M18.46,12v8h3.05V12a5.87,5.87,0,0,0-5.62-6.09,5.64,5.64,0,0,0-4.12,2,5.59,5.59,0,0,0-4.12-2A6,6,0,0,0,2,12v6.4A1.65,1.65,0,0,0,3.51,20.1,1.65,1.65,0,0,0,5,18.35V12A2.71,2.71,0,0,1,7.65,9.36,2.59,2.59,0,0,1,10.22,12v6.4a1.65,1.65,0,0,0,1.53,1.75,1.65,1.65,0,0,0,1.53-1.75V12a2.71,2.71,0,0,1,2.61-2.59A2.58,2.58,0,0,1,18.46,12Z"/><path class="cls-1" d="M23.82,21.93a1.09,1.09,0,0,1-.49-.11,1.56,1.56,0,0,1-.7-1.93l.8-2.23a1.24,1.24,0,0,1,1.69-.81,1.57,1.57,0,0,1,.7,1.93L25,21A1.28,1.28,0,0,1,23.82,21.93Z"/><path class="cls-2" d="M27.9,18a2,2,0,0,1-.67-1.53,1.76,1.76,0,0,1,1.66-1.88,1.61,1.61,0,0,1,1,.37A6.24,6.24,0,0,0,34,16.58c1.45,0,2.33-.66,2.33-1.75v-.05c0-1-.55-1.55-3.25-2.35-3.26-.95-5.36-2-5.36-5.65v0a5.34,5.34,0,0,1,5.65-5.57,8.51,8.51,0,0,1,5.13,1.63,1.93,1.93,0,0,1,.78,1.61,1.76,1.76,0,0,1-1.66,1.88,1.61,1.61,0,0,1-.9-.29,6.16,6.16,0,0,0-3.39-1.24c-1.36,0-2.08.71-2.08,1.61v0c0,1.22.69,1.61,3.49,2.43,3.27,1,5.12,2.32,5.12,5.55v0c0,3.67-2.44,5.73-5.93,5.73A9.56,9.56,0,0,1,27.9,18Z"/><path class="cls-2" d="M42.39,15.89V9.18h-.11a1.61,1.61,0,0,1-1.5-1.71,1.62,1.62,0,0,1,1.5-1.72h.11V4A1.77,1.77,0,1,1,45.9,4V5.75h1.55A1.62,1.62,0,0,1,49,7.47a1.61,1.61,0,0,1-1.5,1.71H45.9v6.05c0,.93.35,1.38,1.13,1.38l.42,0a1.58,1.58,0,0,1,1.45,1.66,1.63,1.63,0,0,1-.9,1.51,4.6,4.6,0,0,1-2,.39C43.85,20.14,42.39,19.17,42.39,15.89Z"/><path class="cls-2" d="M49.75,12.91v-.05c0-4.07,2.87-7.37,6.72-7.37s6.67,3.24,6.67,7.31v.06c0,4.06-2.86,7.36-6.71,7.36S49.75,17,49.75,12.91Zm9.93,0v-.05c0-2.09-1.32-3.91-3.25-3.91s-3.21,1.77-3.21,3.85v.06c0,2.08,1.31,3.9,3.25,3.9S59.68,15,59.68,12.91Z"/><path class="cls-2" d="M64.39,12.91v-.05c0-4,2.7-7.37,6.48-7.37A5.74,5.74,0,0,1,75.1,7.07a1.89,1.89,0,0,1,.55,1.37,1.69,1.69,0,0,1-1.59,1.8,1.57,1.57,0,0,1-1-.39A3.07,3.07,0,0,0,70.85,9c-1.75,0-3,1.77-3,3.85v.06c0,2.16,1.22,3.9,3.14,3.9a3.34,3.34,0,0,0,2.31-1,1.49,1.49,0,0,1,1-.37,1.59,1.59,0,0,1,1.47,1.71,1.81,1.81,0,0,1-.51,1.27,5.62,5.62,0,0,1-4.38,1.82C67.11,20.22,64.39,17,64.39,12.91Z"/><path class="cls-2" d="M77.47,2.48a1.77,1.77,0,1,1,3.51,0v8.76l4.39-4.75a2.09,2.09,0,0,1,1.54-.9,1.67,1.67,0,0,1,1.55,1.8,2.51,2.51,0,0,1-.81,1.74l-2.77,2.72,3.3,5.1a2.28,2.28,0,0,1,.44,1.29A1.7,1.7,0,0,1,87,20.06a1.62,1.62,0,0,1-1.52-.92l-3.07-4.83L81,15.76v2.3a1.77,1.77,0,1,1-3.51,0Z"/><text class="cls-3" transform="translate(37.28 29.21)">by<tspan class="cls-4" x="8.41" y="0" xml:space="preserve"> Mi</tspan><tspan class="cls-5" x="18.43" y="0">r</tspan><tspan class="cls-6" x="21.43" y="0">ae </tspan><tspan class="cls-7" x="31.76" y="0">A</tspan><tspan class="cls-6" x="36.63" y="0">sset</tspan></text></svg>