<svg width="112" height="112" viewBox="0 0 112 112" fill="none" xmlns="http://www.w3.org/2000/svg">
<mask id="mask0_4689_3641" style="mask-type:alpha" maskUnits="userSpaceOnUse" x="0" y="0" width="112" height="112">
<rect width="112" height="112" fill="#D9D9D9"/>
</mask>
<g mask="url(#mask0_4689_3641)">
<path d="M94.2688 82.7311C109.032 62.148 104.314 33.4943 83.7311 18.7311C63.1481 3.96793 34.4943 8.68583 19.7311 29.2689C4.96793 49.8519 9.68584 78.5056 30.2689 93.2688C50.8519 108.032 79.5056 103.314 94.2688 82.7311Z" fill="#FFC200"/>
<path d="M57 24.1838C66.7276 24.1876 76.1029 27.8629 83.2872 34.4888C90.4715 41.1147 94.9466 50.2132 95.8346 60C95.9364 58.8177 96 57.6225 96 56.4017C96 45.9517 91.8911 35.9297 84.5772 28.5405C77.2632 21.1512 67.3434 17 57 17C46.6566 17 36.7368 21.1512 29.4228 28.5405C22.1089 35.9297 18 45.9517 18 56.4017C18 57.6225 18 58.8177 18.1654 60C19.0534 50.2132 23.5285 41.1147 30.7128 34.4888C37.8971 27.8629 47.2724 24.1876 57 24.1838Z" fill="#FFA100"/>
<path d="M57 18.2024C67 18.2289 76.5828 22.2137 83.6539 29.2858C90.725 36.3579 94.7093 45.942 94.7358 55.9434C94.7259 65.9557 90.749 75.5559 83.6761 82.6416C76.6032 89.7272 67.0109 93.7207 57 93.7473C46.9782 93.7373 37.3698 89.7512 30.2833 82.6637C23.1968 75.5763 19.2112 65.9665 19.2013 55.9434C19.2279 45.9311 23.2208 36.3375 30.3055 29.2637C37.3901 22.1898 46.9891 18.2123 57 18.2024ZM57 10C50.9598 9.99835 44.9784 11.1868 39.3975 13.4975C33.8166 15.8081 28.7455 19.1957 24.4738 23.4668C20.2022 27.7379 16.8137 32.8087 14.5018 38.3898C12.1899 43.9708 11 49.9527 11 55.9937C11 68.1953 15.8464 79.8972 24.4731 88.5251C33.0998 97.1529 44.8 102 57 102C63.0408 102 69.0225 100.81 74.6034 98.498C80.1844 96.1859 85.2554 92.7971 89.5269 88.5251C93.7984 84.253 97.1867 79.1813 99.4985 73.5995C101.81 68.0178 103 62.0353 103 55.9937C102.997 43.7943 98.1488 32.0956 89.5225 23.4705C80.8961 14.8454 69.1978 10 57 10Z" fill="#FFE450"/>
<path d="M58 18.0252V10C51.8285 9.99839 45.7171 11.1612 40.0148 13.4219C34.3126 15.6826 29.1313 18.997 24.7668 23.1758C20.4022 27.3546 16.94 32.316 14.5779 37.7764C12.2158 43.2369 11 49.0895 11 55H19.3795C19.3932 45.1955 23.4669 35.7965 30.707 28.8649C37.9472 21.9332 47.7626 18.0349 58 18.0252Z" fill="#FAF582"/>
<path d="M65.6745 80L48.0967 56.1305H53.6763C56.5332 56.1277 59.3035 55.1478 61.5292 53.3528C63.7548 51.5578 65.3024 49.0553 65.916 46.2592H68.458L71 40.9732H65.916C65.5597 39.2829 64.854 37.6862 63.8443 36.2859H68.4453L70.9873 31H45.5674L43.0254 36.2859H53.6636C55.135 36.2887 56.571 36.738 57.7826 37.5747C58.9941 38.4115 59.9243 39.5963 60.4507 40.9732H45.542L43 46.2592H60.3872C59.85 47.613 58.9194 48.7739 57.716 49.5915C56.5127 50.4091 55.092 50.8456 53.6382 50.8446H43V58.1557L59.0781 80H65.6745Z" fill="#FFE450"/>
<g style="mix-blend-mode:lighten" opacity="0.2">
<path d="M57.2709 10.0377C51.1951 10.0361 45.1785 11.2247 39.5647 13.5357C33.951 15.8468 28.85 19.2349 24.5532 23.5066C20.2564 27.7783 16.8479 32.85 14.5224 38.4319C12.1969 44.0138 11 49.9965 11 56.0385C10.9942 62.1437 12.216 68.1884 14.5934 73.8173C17.9113 74.5927 21.3072 74.9895 24.7155 75C36.4605 75 47.7244 70.3603 56.0293 62.1016C64.3343 53.8429 68.9999 42.6416 68.9999 30.9621C69.0131 23.8264 67.2758 16.7952 63.9389 10.4781C61.7264 10.1593 59.4938 9.99956 57.2582 10L57.2709 10.0377Z" fill="white"/>
</g>
</g>
</svg>
