<svg width="20" height="6" viewBox="0 0 20 6" fill="none" xmlns="http://www.w3.org/2000/svg">
<path d="M3.72109 3.27516C3.92685 2.60342 4.12656 1.92562 4.33232 1.25388C4.39889 1.02996 4.47151 0.80605 4.53202 0.582135C4.56228 0.461101 4.61675 0.400583 4.76199 0.400583C5.56687 0.406635 6.37175 0.406635 7.17663 0.400583C7.32188 0.400583 7.34608 0.455049 7.34608 0.582135C7.34003 2.07691 7.34003 3.57169 7.34608 5.06647C7.34608 5.20566 7.30372 5.24197 7.17058 5.24197C6.71065 5.23592 6.25677 5.22987 5.79684 5.24197C5.63344 5.24802 5.59713 5.18751 5.59713 5.03621C5.60318 4.00137 5.60318 2.96047 5.60318 1.92562C5.60318 1.82274 5.60318 1.71986 5.56687 1.60488C5.43373 2.0406 5.30059 2.48238 5.16746 2.9181C4.95565 3.62616 4.73778 4.32816 4.52597 5.03621C4.48361 5.18145 4.42915 5.24802 4.26575 5.23592C3.90264 5.22382 3.53954 5.22382 3.18249 5.23592C3.03119 5.24197 2.97673 5.18751 2.93437 5.04832C2.60757 3.959 2.27473 2.86969 1.94188 1.78038C1.92373 1.71986 1.89952 1.6654 1.84505 1.61093C1.84505 2.18585 1.84505 2.75471 1.84505 3.32962C1.84505 3.89243 1.839 4.45525 1.85111 5.01806C1.85716 5.20566 1.79664 5.24197 1.62114 5.23592C1.17936 5.22382 0.737587 5.22987 0.29581 5.23592C0.162672 5.23592 0.114258 5.19961 0.114258 5.06042C0.12031 3.56564 0.12031 2.07086 0.114258 0.576083C0.114258 0.418738 0.174776 0.394531 0.313966 0.394531C1.1128 0.400583 1.90557 0.400583 2.7044 0.394531C2.87385 0.394531 2.92226 0.4611 2.95857 0.60029C3.20064 1.4899 3.44876 2.3795 3.69083 3.26911C3.69083 3.27516 3.70899 3.27516 3.72109 3.27516Z" fill="#08377A"/>
<path d="M13.0777 2.44098C12.7811 2.44098 12.4846 2.44098 12.1881 2.44098C12.0912 2.44098 12.0368 2.43492 12.0004 2.31389C11.8431 1.73898 11.5405 1.51506 10.9596 1.52111C10.3302 1.52716 9.92471 1.80554 9.78552 2.3502C9.67053 2.79803 9.67053 3.25191 9.93681 3.65132C10.2273 4.08705 10.6812 4.15362 11.1532 4.11126C11.5587 4.07494 11.8431 3.86919 11.9762 3.47582C12.0065 3.379 12.0549 3.33663 12.1638 3.34269C12.7751 3.34874 13.3863 3.34874 13.9975 3.34269C14.1367 3.34269 14.173 3.379 14.1428 3.52424C13.9915 4.23229 13.586 4.74669 12.9324 5.01296C11.6616 5.53947 10.3544 5.53341 9.07746 5.04927C8.07893 4.67407 7.67346 3.79657 7.70372 2.73751C7.74608 1.35772 8.5207 0.564938 9.99733 0.347076C10.5178 0.268403 11.0382 0.2563 11.5587 0.310766C12.2486 0.383387 12.9324 0.504421 13.4892 0.982508C13.8886 1.32141 14.1004 1.75713 14.167 2.27153C14.1851 2.40467 14.1428 2.44098 14.0157 2.44098C13.701 2.44098 13.3863 2.44703 13.0777 2.44098C13.0777 2.44703 13.0777 2.44703 13.0777 2.44098Z" fill="#EA1E27"/>
<path d="M13.5674 5.24197C14.2633 4.42499 14.9169 3.65037 15.5766 2.88179C15.6915 2.74866 15.7036 2.66998 15.5826 2.52474C15.0501 1.88326 14.5357 1.22362 14.0092 0.570031C13.9728 0.527669 13.9426 0.485308 13.8821 0.400583C14.1241 0.400583 14.3238 0.400583 14.5296 0.400583C15.0016 0.400583 15.4797 0.406635 15.9518 0.394531C16.091 0.394531 16.1696 0.436894 16.2423 0.551877C16.4178 0.84236 16.5993 1.12074 16.799 1.44148C17.0169 1.13284 17.2226 0.848411 17.4163 0.557928C17.495 0.436893 17.5857 0.394531 17.731 0.394531C18.3906 0.400583 19.0442 0.400583 19.7341 0.400583C19.2136 1.11469 18.6448 1.75617 18.1062 2.42791C17.8823 2.70629 17.8823 2.70024 18.1001 2.96047C18.7235 3.70483 19.3407 4.44919 20.0004 5.24197C19.843 5.24197 19.722 5.24197 19.607 5.24197C19.0139 5.24197 18.4148 5.23592 17.8218 5.24197C17.6947 5.24197 17.616 5.19961 17.5494 5.09673C17.3134 4.72757 17.0653 4.35842 16.799 3.959C16.5509 4.31606 16.3088 4.6489 16.091 4.9999C15.976 5.18145 15.8428 5.25407 15.625 5.24802C14.9593 5.23592 14.2936 5.24197 13.5674 5.24197Z" fill="#08377A"/>
</svg>
