<svg width="28" height="28" viewBox="0 0 28 28" fill="none" xmlns="http://www.w3.org/2000/svg">
<circle cx="14" cy="14" r="13.5" stroke="#999999"/>
<path d="M7.31533 11.9051H8.34695V10.7188H7.18637C6.34044 10.7188 6.04298 11.5097 6 11.9051V20.5708C6 21.6024 6.79091 21.8775 7.18637 21.8861H17.1932C18.0804 21.8861 18.3537 21.1468 18.3795 20.7771V20.1324H17.1932V20.5708C17.1932 20.674 17.0728 20.6998 17.0126 20.6998H7.3927C7.24827 20.6998 7.19497 20.6138 7.18637 20.5708V12.0599C7.18637 11.9361 7.27234 11.9051 7.31533 11.9051Z" fill="#999999"/>
<path d="M10.1525 8.37109H15.4396C15.4396 8.45362 15.4911 8.73216 15.5169 8.86112L14.8206 9.53168H10.2556C10.1731 9.53168 10.1353 9.65203 10.1267 9.71221V18.1716C10.1267 18.2954 10.1954 18.3435 10.2298 18.3521H17.7865V16.8304C17.7865 16.2734 18.3367 16.0481 18.6118 16.0051H20.1335V10.9502C20.608 10.6613 21.1221 10.1592 21.3198 9.94433V16.2115C21.3198 16.4797 21.1307 16.7359 21.0361 16.8304L18.6118 19.2548C18.3848 19.4817 18.0702 19.5557 17.9412 19.5643H10.2298C9.13631 19.5643 8.9489 18.6358 8.99188 18.1716V9.4543C8.99188 8.629 9.7656 8.38829 10.1525 8.37109Z" fill="#999999"/>
<path fill-rule="evenodd" clip-rule="evenodd" d="M18.6886 10.1265C19.8281 10.1265 20.7519 9.20276 20.7519 8.06326C20.7519 6.92375 19.8281 6 18.6886 6C17.5491 6 16.6254 6.92375 16.6254 8.06326C16.6254 8.45492 16.7345 8.82109 16.924 9.13303L15.3615 10.6955L14.8199 11.753C14.8027 11.8131 14.8044 11.9283 14.9489 11.9077C15.0933 11.8871 15.8343 11.6412 16.1868 11.5208L17.7718 9.91215C18.048 10.0494 18.3593 10.1265 18.6886 10.1265Z" fill="#999999"/>
</svg>
