<svg width="234" height="107" viewBox="0 0 234 107" fill="none" xmlns="http://www.w3.org/2000/svg">
<path d="M101.637 42H96.019L82.3843 19.7769H82.2129C82.2637 20.5259 82.3081 21.3193 82.3462 22.1572C82.397 22.9951 82.4351 23.8584 82.4604 24.7471C82.4985 25.6357 82.5303 26.5371 82.5557 27.4512V42H78.4043V14.1592H83.9839L97.5996 36.23H97.7329C97.7075 35.5825 97.6758 34.8398 97.6377 34.002C97.5996 33.1641 97.5615 32.3008 97.5234 31.4121C97.498 30.5107 97.479 29.6411 97.4663 28.8032V14.1592H101.637V42ZM116.89 20.5195C118.769 20.5195 120.381 20.9067 121.727 21.6812C123.073 22.4556 124.107 23.5537 124.831 24.9756C125.555 26.3975 125.917 28.0986 125.917 30.0791V32.4785H111.844C111.895 34.5225 112.44 36.0967 113.481 37.2012C114.535 38.3057 116.008 38.8579 117.899 38.8579C119.245 38.8579 120.451 38.731 121.518 38.4771C122.597 38.2104 123.708 37.8232 124.85 37.3154V40.9526C123.796 41.4478 122.724 41.8096 121.632 42.0381C120.54 42.2666 119.232 42.3809 117.709 42.3809C115.64 42.3809 113.818 41.981 112.244 41.1812C110.682 40.3687 109.457 39.1626 108.568 37.563C107.692 35.9634 107.254 33.9766 107.254 31.6025C107.254 29.2412 107.654 27.2354 108.454 25.585C109.254 23.9346 110.377 22.6777 111.825 21.8145C113.272 20.9512 114.96 20.5195 116.89 20.5195ZM116.89 23.8901C115.481 23.8901 114.338 24.3472 113.462 25.2612C112.599 26.1753 112.091 27.5146 111.939 29.2793H121.537C121.524 28.2256 121.346 27.2925 121.003 26.48C120.673 25.6675 120.166 25.0327 119.48 24.5757C118.807 24.1187 117.944 23.8901 116.89 23.8901ZM138.809 38.7627C139.393 38.7627 139.97 38.7119 140.542 38.6104C141.113 38.4961 141.633 38.3628 142.103 38.2104V41.6001C141.608 41.8159 140.967 42 140.18 42.1523C139.393 42.3047 138.574 42.3809 137.723 42.3809C136.53 42.3809 135.457 42.1841 134.505 41.7905C133.553 41.3843 132.797 40.6924 132.239 39.7148C131.68 38.7373 131.401 37.3853 131.401 35.6587V24.3281H128.525V22.3286L131.61 20.748L133.077 16.2349H135.895V20.9194H141.932V24.3281H135.895V35.6016C135.895 36.668 136.162 37.4614 136.695 37.9819C137.228 38.5024 137.933 38.7627 138.809 38.7627ZM78.4043 67.1592H86.688C90.2808 67.1592 92.9912 67.6797 94.8193 68.7207C96.6475 69.7617 97.5615 71.5581 97.5615 74.1099C97.5615 75.1763 97.3711 76.1411 96.9902 77.0044C96.6221 77.855 96.0825 78.5596 95.3716 79.1182C94.6606 79.6641 93.7847 80.0322 92.7437 80.2227V80.4131C93.8228 80.6035 94.7812 80.9399 95.6191 81.4224C96.4697 81.9048 97.1362 82.5967 97.6187 83.498C98.1138 84.3994 98.3613 85.5674 98.3613 87.002C98.3613 88.7031 97.9551 90.1504 97.1426 91.3438C96.3428 92.5371 95.1938 93.4448 93.6958 94.0669C92.2104 94.689 90.4458 95 88.4019 95H78.4043V67.1592ZM82.9746 78.6421H87.3545C89.4238 78.6421 90.8584 78.3057 91.6582 77.6328C92.458 76.96 92.8579 75.9761 92.8579 74.6812C92.8579 73.3608 92.3818 72.4087 91.4297 71.8247C90.4902 71.2407 88.9922 70.9487 86.9355 70.9487H82.9746V78.6421ZM82.9746 82.3364V91.1724H87.7925C89.9253 91.1724 91.4233 90.7598 92.2866 89.9346C93.1499 89.1094 93.5815 87.9922 93.5815 86.583C93.5815 85.7197 93.3848 84.9707 92.9912 84.3359C92.6104 83.7012 91.9819 83.2124 91.106 82.8696C90.23 82.5142 89.0493 82.3364 87.564 82.3364H82.9746ZM111.92 73.5195C114.586 73.5195 116.598 74.1099 117.957 75.2905C119.328 76.4712 120.013 78.312 120.013 80.813V95H116.833L115.976 92.0103H115.824C115.227 92.772 114.611 93.4004 113.977 93.8955C113.342 94.3906 112.605 94.7588 111.768 95C110.942 95.2539 109.933 95.3809 108.74 95.3809C107.483 95.3809 106.359 95.1523 105.369 94.6953C104.379 94.2256 103.598 93.5146 103.027 92.5625C102.456 91.6104 102.17 90.4043 102.17 88.9443C102.17 86.7734 102.976 85.1421 104.588 84.0503C106.213 82.9585 108.664 82.3555 111.939 82.2412L115.595 82.1079V81.0034C115.595 79.5435 115.252 78.5024 114.567 77.8804C113.894 77.2583 112.942 76.9473 111.71 76.9473C110.657 76.9473 109.635 77.0996 108.645 77.4043C107.654 77.709 106.689 78.0835 105.75 78.5278L104.303 75.3667C105.331 74.8208 106.499 74.3765 107.807 74.0337C109.127 73.6909 110.498 73.5195 111.92 73.5195ZM115.576 84.9263L112.853 85.0215C110.619 85.0977 109.051 85.4785 108.149 86.1641C107.248 86.8496 106.797 87.7891 106.797 88.9824C106.797 90.0234 107.108 90.7852 107.73 91.2676C108.353 91.7373 109.171 91.9722 110.187 91.9722C111.736 91.9722 113.018 91.5342 114.034 90.6582C115.062 89.7695 115.576 88.4683 115.576 86.7544V84.9263ZM137.266 73.5195C139.64 73.5195 141.487 74.1353 142.808 75.3667C144.141 76.5854 144.807 78.5469 144.807 81.251V95H140.332V82.0889C140.332 80.4512 139.996 79.2261 139.323 78.4136C138.65 77.5884 137.609 77.1758 136.2 77.1758C134.156 77.1758 132.734 77.8042 131.934 79.061C131.147 80.3179 130.753 82.1396 130.753 84.5264V95H126.278V73.9194H129.763L130.392 76.7759H130.639C131.096 76.0396 131.661 75.4365 132.334 74.9668C133.02 74.4844 133.781 74.1226 134.619 73.8813C135.47 73.6401 136.352 73.5195 137.266 73.5195ZM155.547 65.3691V79.6895C155.547 80.3369 155.522 81.0479 155.471 81.8223C155.42 82.584 155.37 83.3013 155.319 83.9741H155.414C155.744 83.5298 156.138 83.0093 156.595 82.4126C157.064 81.8159 157.509 81.2954 157.928 80.8511L164.364 73.9194H169.506L161.07 82.9839L170.058 95H164.802L158.061 85.7451L155.547 87.897V95H151.072V65.3691H155.547ZM177.904 73.9194V95H173.429V73.9194H177.904ZM175.695 65.8452C176.38 65.8452 176.971 66.0293 177.466 66.3975C177.974 66.7656 178.228 67.4004 178.228 68.3018C178.228 69.1904 177.974 69.8252 177.466 70.2061C176.971 70.5742 176.38 70.7583 175.695 70.7583C174.984 70.7583 174.381 70.5742 173.886 70.2061C173.403 69.8252 173.162 69.1904 173.162 68.3018C173.162 67.4004 173.403 66.7656 173.886 66.3975C174.381 66.0293 174.984 65.8452 175.695 65.8452ZM195.309 73.5195C197.683 73.5195 199.53 74.1353 200.851 75.3667C202.184 76.5854 202.85 78.5469 202.85 81.251V95H198.375V82.0889C198.375 80.4512 198.039 79.2261 197.366 78.4136C196.693 77.5884 195.652 77.1758 194.243 77.1758C192.199 77.1758 190.777 77.8042 189.977 79.061C189.19 80.3179 188.796 82.1396 188.796 84.5264V95H184.321V73.9194H187.806L188.435 76.7759H188.682C189.139 76.0396 189.704 75.4365 190.377 74.9668C191.062 74.4844 191.824 74.1226 192.662 73.8813C193.513 73.6401 194.395 73.5195 195.309 73.5195ZM215.133 104.369C212.276 104.369 210.086 103.855 208.563 102.827C207.04 101.798 206.278 100.357 206.278 98.5039C206.278 97.209 206.684 96.1108 207.497 95.2095C208.309 94.3208 209.471 93.7051 210.981 93.3623C210.41 93.1084 209.915 92.7148 209.496 92.1816C209.09 91.6357 208.887 91.0327 208.887 90.3726C208.887 89.5854 209.109 88.9126 209.553 88.354C209.998 87.7954 210.664 87.2559 211.553 86.7354C210.448 86.2656 209.56 85.5039 208.887 84.4502C208.227 83.3838 207.896 82.1333 207.896 80.6987C207.896 79.1753 208.22 77.8804 208.868 76.814C209.515 75.7349 210.461 74.916 211.705 74.3574C212.949 73.7861 214.454 73.5005 216.218 73.5005C216.599 73.5005 217.012 73.5259 217.456 73.5767C217.913 73.6147 218.332 73.6655 218.713 73.729C219.106 73.7798 219.405 73.8369 219.608 73.9004H226.901V76.395L223.321 77.0615C223.664 77.5439 223.937 78.0962 224.14 78.7183C224.343 79.3276 224.445 79.9941 224.445 80.7178C224.445 82.9014 223.689 84.6216 222.179 85.8784C220.681 87.1226 218.611 87.7446 215.971 87.7446C215.336 87.7192 214.72 87.6685 214.124 87.5923C213.667 87.8716 213.317 88.1826 213.076 88.5254C212.835 88.8555 212.714 89.23 212.714 89.6489C212.714 89.9917 212.835 90.271 213.076 90.4868C213.317 90.6899 213.673 90.8423 214.143 90.9438C214.625 91.0454 215.209 91.0962 215.895 91.0962H219.532C221.842 91.0962 223.607 91.585 224.826 92.5625C226.044 93.54 226.654 94.9746 226.654 96.8662C226.654 99.2656 225.664 101.113 223.683 102.408C221.703 103.715 218.853 104.369 215.133 104.369ZM215.304 101.227C216.866 101.227 218.18 101.075 219.246 100.77C220.312 100.465 221.119 100.027 221.665 99.4561C222.21 98.8975 222.483 98.231 222.483 97.4565C222.483 96.771 222.312 96.2441 221.969 95.876C221.626 95.5078 221.112 95.2539 220.427 95.1143C219.741 94.9746 218.891 94.9048 217.875 94.9048H214.562C213.736 94.9048 213.006 95.0317 212.372 95.2856C211.737 95.5522 211.242 95.9331 210.886 96.4282C210.543 96.9233 210.372 97.52 210.372 98.2183C210.372 99.1831 210.797 99.9258 211.648 100.446C212.511 100.967 213.73 101.227 215.304 101.227ZM216.18 84.812C217.488 84.812 218.459 84.4565 219.094 83.7456C219.729 83.022 220.046 82.0063 220.046 80.6987C220.046 79.2769 219.716 78.2104 219.056 77.4995C218.408 76.7886 217.443 76.4331 216.161 76.4331C214.904 76.4331 213.946 76.7949 213.286 77.5186C212.638 78.2422 212.314 79.3149 212.314 80.7368C212.314 82.019 212.638 83.022 213.286 83.7456C213.946 84.4565 214.911 84.812 216.18 84.812Z" fill="#f58220"/>
<path d="M15.248 85V62.5H54.748V85C54.748 90.5228 50.2709 95 44.748 95H25.248C19.7252 95 15.248 90.5228 15.248 85Z" fill="#f58220"/>
<path d="M15.248 51V56H31.248V41H25.248C19.7252 41 15.248 45.4772 15.248 51Z" fill="#f58220"/>
<path d="M54.748 51V56H38.748V41H44.748C50.2709 41 54.748 45.4772 54.748 51Z" fill="#f58220"/>
<path fill-rule="evenodd" clip-rule="evenodd" d="M2.46848 9.01241C3.56629 9.13439 4.35736 10.1232 4.23538 11.221C3.99726 13.3641 3.9094 15.9075 4.11563 18.3675C4.324 20.8531 4.82137 23.111 5.65922 24.7763C6.4804 26.4083 7.51342 27.2757 8.79625 27.5112C10.1789 27.765 12.3717 27.3885 15.6833 25.3069C22.9786 20.7213 28.475 20.58 32.1919 23.5817C35.6065 26.3394 36.6584 31.1576 36.7473 34.4461C36.7772 35.5503 35.9063 36.4696 34.8021 36.4994C33.698 36.5293 32.7786 35.6584 32.7488 34.5543C32.6709 31.6761 31.7225 28.3443 29.6787 26.6936C27.937 25.287 24.5166 24.4791 17.812 28.6934C14.1236 31.0119 10.8789 31.9604 8.07399 31.4454C5.16931 30.9122 3.26484 28.917 2.08601 26.5741C0.923867 24.2643 0.358735 21.4348 0.129607 18.7016C-0.101671 15.9428 -0.00203034 13.1362 0.259849 10.7793C0.381828 9.6815 1.37067 8.89043 2.46848 9.01241Z" fill="#f58220"/>
</svg>
