<svg width="270" height="90" viewBox="0 0 270 90" fill="none" xmlns="http://www.w3.org/2000/svg">
    <path d="M40.27 35.536c-.285 1.739-3.617 25.592-3.903 27.813h7.521c.19-1.641 3.618-25.592 3.904-27.813H40.27zM102.06 35.536c-.286 1.739-3.618 25.592-3.904 27.813h17.708c.191-1.255.572-4.442.857-5.987h-10.758l.762-5.119h9.711c.19-1.159.571-4.056.761-5.6h-9.711l.762-5.023h10.472c.191-1.255.667-4.442.857-5.987H102.06v-.097zM17.993 51.47s6.283-14.678 6.855-15.934h9.52c0 1.932-1.238 25.785-1.238 27.813h-6.855l1.143-19.507s-7.712 18.252-8.188 19.507h-5.426l-2.476-19.507c-.19.869-2.76 13.906-4.189 19.507H.38c.667-2.51 5.904-26.364 6.38-27.813h9.14l2.094 15.935zM82.351 51.953l4.284-10.334 1.429 10.334H82.35zm6.474 5.697s.476 4.54.667 5.602h7.235c-.38-2.318-4.38-26.172-4.665-27.814h-9.14c-.57 1.16-10.948 25.11-12.186 27.814h7.331c.38-.966 2.285-5.602 2.285-5.602h8.473zM58.36 40.75h1.714c1.142 0 2.475.097 3.236 1.062.572.676.762 1.642.572 2.801 0 0-.19 2.125-1.619 2.8 0 0-.952.677-2.475.677H56.36l6.473 15.258h7.331l-5.522-11.685c3.332-.676 5.998-1.642 6.665-6.953.095-.677.095-1.256.095-1.932 0-1.931-.476-3.573-1.524-4.732-1.808-2.125-4.95-2.608-7.235-2.608H52.267c-.286 1.739-3.618 25.593-3.904 27.91h6.855c.19-1.642 3.142-22.598 3.142-22.598z" fill="#003F7E"/>
    <path d="M270 0c-4.38 18.542-20.184 28.586-29.514 33.994l-.381-.58c3.809-3.186 16.852-12.94 21.041-29.165L270 0z" fill="#F08300"/>
    <path d="m188.124 46.463-1.999-1.062c-.667-.387-2.19-1.256-2.19-2.704 0-.676.286-1.352.762-1.739.571-.58 1.618-.772 2.57-.58 1.333.194 2.761 1.063 4.38 2.512.761-1.545 2.285-4.443 2.761-5.408-1.904-1.546-3.713-2.415-6.379-2.898-3.332-.483-6.569.194-8.854 1.932-1.904 1.449-3.047 3.67-3.427 6.277 0 .483-.096.87-.096 1.256 0 1.448.286 2.704.952 3.766 4.094-.097 8.378-.29 12.758-.676-.381-.29-.762-.483-1.238-.676zM218.684 35.536c-.19 1.159-.666 4.829-.952 6.567 5.332-1.545 11.806-3.67 17.708-6.567h-16.756z" fill="#003F7E"/>
    <path d="M221.446 42.397c-.762.29-1.524.482-2.285.772-.191.097-.286.097-.476.193-.286.097-.667.193-.952.29-.191.097-.381.097-.476.193-1.048.29-2.19.676-3.333.966-.19.096-.476.096-.666.193-.286.097-.666.193-.952.29-.286.096-.476.096-.762.193-.285.096-.666.193-.952.29-.285.096-.571.193-.857.193-.571.096-1.047.29-1.618.386-.286.097-.571.193-.952.193-.095 0-.286.097-.381.097a446.745 446.745 0 0 1-9.901 2.028h-.286c-.666.096-1.237.193-1.904.29-.19 0-.285 0-.476.096l-1.999.29h-.191c-3.713.58-7.711 1.062-11.805 1.352h-.095c-.667.096-1.238.096-1.904.193h-.191c-.666.097-1.237.097-1.904.097h-.19c-.667 0-1.333.096-1.999.096h-.191c-.666 0-1.333.097-1.999.097h-.095c-3.523.193-7.046.29-10.759.29H157.563c-2.951 0-6.093-.194-9.235-.29h-.19c-4.76-.29-9.711-.676-14.757-1.256l5.808-5.601s3.427 1.062 8.092 1.835c-.857-5.408-1.713-10.14-1.809-10.816h-9.139c-.572 1.159-10.949 25.109-12.187 27.813h7.331c.381-.966 2.856-6.953 2.856-6.953h7.617s.761 5.794.952 6.953h7.235c-.19-.87-.856-5.118-1.713-9.947 5.141.29 10.377.386 15.137.29.286.386.381.869.381 1.352 0 .193 0 .29-.095.482-.095.676-.381 1.16-.952 1.449-.952.676-2.38.58-3.428.386-2.38-.386-4.189-2.22-5.712-3.67-.952 1.546-2.951 4.83-3.522 5.892 2.76 2.51 5.712 4.152 8.949 4.538 3.142.483 6.379-.193 8.759-2.028 1.999-1.545 3.332-3.766 3.713-6.47.095-.773.19-1.545.095-2.221 5.141-.193 9.425-.58 12.186-.773.857.676 1.333 1.449 1.333 2.415 0 .193 0 .29-.095.482a1.986 1.986 0 0 1-.952 1.449c-.952.676-2.381.58-3.428.386-2.38-.386-4.189-2.22-5.712-3.67-.952 1.546-2.951 4.83-3.523 5.892 2.761 2.51 5.713 4.152 8.95 4.538 3.237.483 6.378-.193 8.663-2.028 2.095-1.545 3.332-3.766 3.713-6.47.191-1.545.191-2.897-.19-4.056 1.142-.193 2.285-.386 3.332-.483-.857 5.794-1.618 11.3-1.714 12.361h17.708c.191-1.255.667-4.442.857-5.987h-10.472l.761-5.118h9.711c.191-1.063.476-3.477.762-5.119 1.333-.386 1.999-.676 1.999-.676s3.332-.966 7.521-2.607c-.571 4.345-2.475 17.673-2.761 19.508h7.617c.285-1.642 2.951-20.86 2.951-20.86h5.522c.19-1.16.666-5.022.952-6.76-2.761 1.641-8.188 4.152-15.994 6.76z" fill="#003F7E"/>
    <path d="M168.988 47.815a13.082 13.082 0 0 0-2.285-1.352l-2-1.062c-.666-.387-2.094-1.256-2.094-2.704 0-.676.286-1.352.762-1.739.666-.58 1.618-.772 2.57-.58 1.333.194 2.761 1.063 4.38 2.512.761-1.545 2.284-4.443 2.76-5.408-1.904-1.546-3.712-2.415-6.378-2.898-3.332-.483-6.569.194-8.854 1.932-1.904 1.449-3.142 3.67-3.428 6.277-.095.483-.095.87-.095 1.256 0 1.255.191 2.317.667 3.283h.476c3.427.29 8.092.483 13.519.483zM204.69 41.524h10.472c.191-1.256.667-4.443.857-5.988h-17.422l-1.524 10.816c2.38-.29 4.76-.676 7.141-1.062l.476-3.766zM29.8 76.577c-.667-.87-1.714-1.352-3.047-1.352-.666 0-1.238.096-1.714.386a5.03 5.03 0 0 0-1.333 1.159v-1.352H22.088V90h1.618V84.206c.667.966 1.714 1.449 3.047 1.449 1.333 0 2.285-.483 3.046-1.353.762-.965 1.048-2.22 1.048-3.862 0-1.739-.381-2.994-1.048-3.863zm-1.333 6.663c-.476.676-1.143 1.063-1.904 1.063-.953 0-1.714-.29-2.19-.87-.476-.58-.667-1.641-.667-2.993v-.29c0-1.159.19-2.125.667-2.608.476-.58 1.142-.869 2.094-.869.857 0 1.524.29 2 .966.476.676.666 1.545.666 2.8 0 1.16-.19 2.125-.666 2.801zM41.794 84.218c-.285 0-.57.097-.761.097-.476 0-.857-.193-1.143-.483-.285-.29-.38-.773-.38-1.352v-5.892h2.856v-1.255h-2.857v-2.317H37.891v2.317h-1.428v1.256h1.428v5.89c0 2.029.952 3.091 2.951 3.091.286 0 .667 0 .952-.096.286-.097.572-.097.667-.194v-1.255c-.19.097-.381.193-.667.193zM12.186 77.737c.666-.482 1.809-.869 1.809-.869.476-.193 1.142-.29 1.618-.29.762 0 1.238.194 1.524.58.285.386.476.966.476 1.642v.58l-1.714.096c-3.142.096-4.76 1.159-4.76 3.187 0 .966.285 1.642.857 2.22.57.484 1.332.773 2.284.773.762 0 1.333-.096 1.81-.29.475-.192.951-.385 1.427-1.061v1.158h1.524v-6.856c0-1.16-.286-2.028-.857-2.608-.571-.58-1.428-.772-2.666-.772-.571 0-1.333.193-1.904.29-.571.192-1.143.386-1.619.675v1.546h.19zm4.665 5.795c-.476.483-1.238.773-2.19.773-.571 0-1.047-.097-1.333-.387-.285-.29-.476-.676-.476-1.255 0-.676.286-1.16.762-1.545.476-.29 1.333-.483 2.475-.58l1.428-.096v.869c.096 1.062-.095 1.738-.666 2.22zM44.366 77.737c.666-.482 1.809-.869 1.809-.869.476-.193 1.142-.29 1.618-.29.762 0 1.238.194 1.523.58.286.386.476.966.476 1.642v.58l-1.713.096c-3.142.096-4.76 1.159-4.76 3.187 0 .966.285 1.642.856 2.22.571.484 1.333.773 2.285.773.762 0 1.333-.096 1.809-.29.476-.192.952-.385 1.428-1.061v1.158H51.22v-6.856c0-1.16-.285-2.028-.856-2.608-.572-.58-1.429-.772-2.666-.772-.572 0-1.333.193-1.904.29-.572.192-1.143.386-1.619.675v1.546h.19zm4.665 5.795c-.572.483-1.238.773-2.19.773-.571 0-1.047-.097-1.333-.387-.286-.29-.476-.676-.476-1.255 0-.676.286-1.16.762-1.545.476-.29 1.333-.483 2.475-.58l1.428-.096v.869c.095 1.062-.095 1.738-.666 2.22zM33.132 72.715c0-.387.095-.676.285-.773.19-.193.381-.29.667-.29.285 0 .476.097.666.29.19.193.286.386.286.773 0 .386-.095.58-.286.772-.19.193-.38.29-.666.29-.286 0-.476-.097-.667-.29-.19-.193-.285-.483-.285-.772zm1.714 12.747h-1.619V75.42h1.619v10.043zM55.885 85.465h-1.618V71.172h1.618v14.293zM6.379 73.391c.952 0 1.904.29 2.951.773.286.096.666.29.666.386v-1.738a8.665 8.665 0 0 0-3.617-.773c-1.333 0-2.476.29-3.428.87-.952.579-1.713 1.351-2.19 2.414A8.546 8.546 0 0 0 0 78.896c0 2.221.476 3.863 1.618 5.118 1.048 1.16 2.571 1.835 4.475 1.835.667 0 1.238 0 1.809-.097a23.22 23.22 0 0 0 2.094-.579v-1.448c-1.142.386-2.76.675-3.712.675-1.429 0-2.571-.482-3.333-1.448-.761-.966-1.142-2.221-1.142-3.96 0-1.641.38-2.993 1.238-3.96.856-1.158 1.904-1.64 3.332-1.64zM110.629 75.236c-1.332 0-2.38.483-3.237 1.449-.761.966-1.142 2.221-1.142 3.863s.381 2.897 1.238 3.766c.857.87 1.999 1.352 3.522 1.352a8.42 8.42 0 0 0 1.714-.193c.476-.096.952-.29 1.523-.483v-1.448c-.666.29-1.237.483-1.713.58-.477.096-.953.096-1.524.096-.952 0-1.713-.29-2.285-.87-.571-.579-.857-1.448-.857-2.607h6.76v-.966c0-1.352-.381-2.51-1.142-3.283-.667-.87-1.619-1.256-2.857-1.256zm-2.665 4.25c.095-.87.381-1.642.761-2.125.476-.483 1.048-.773 1.809-.773.762 0 1.333.29 1.714.773.381.483.666 1.159.666 2.125h-4.95zM120.244 84.305c-.476 0-.857-.193-1.143-.483-.285-.29-.381-.773-.381-1.352V76.58h2.857v-1.255h-2.857v-2.318H117.102v2.318h-1.428v1.255h1.428v5.891c0 2.028.952 3.09 2.856 3.09.286 0 .666 0 .952-.096.286-.097.571-.097.667-.193v-1.256c-.096.097-.381.097-.667.193-.19.097-.381.097-.666.097zM83.591 75.236c-.57 0-1.333.194-1.904.29-.571.193-1.142.386-1.618.676v1.545c.666-.483 1.809-.869 1.809-.869.476-.193 1.142-.29 1.618-.29.762 0 1.238.194 1.523.58.286.386.476.965.476 1.738v.58l-1.713.096c-3.142.097-4.76 1.159-4.76 3.187 0 .966.285 1.642.856 2.221.572.483 1.333.773 2.285.773.762 0 1.333-.097 1.81-.29.475-.193.951-.386 1.427-1.062v1.159h1.523V78.713c0-1.159-.285-2.028-.856-2.607-.381-.58-1.238-.87-2.476-.87zm1.904 6.181c0 .87-.285 1.642-.761 2.125-.476.483-1.238.772-2.095.772-.571 0-1.047-.096-1.333-.386-.285-.29-.476-.676-.476-1.255 0-.677.286-1.16.762-1.546.476-.29 1.333-.483 2.475-.58l1.428-.096v.966zM128.718 80.548c-.381-.29-1.047-.58-1.809-.87-1.142-.386-1.809-.772-2.094-.965-.286-.193-.476-.58-.476-.87 0-.386.19-.675.476-.868.381-.194.857-.29 1.523-.29.666 0 1.428.193 2.285.483.381.193 1.047.483 1.047.483v-1.739c-.952-.483-1.999-.676-3.142-.676-1.142 0-2.094.194-2.761.676-.666.483-.952 1.16-.952 1.932 0 .483.096.869.286 1.159.19.29.476.58.857.869.381.29 1.047.58 1.999.966.952.386 1.523.676 1.904.965.381.29.572.58.572.966 0 .483-.191.773-.572 1.062-.381.29-.952.387-1.809.387-1.047 0-2.094-.29-3.141-.773v1.545c.761.387 1.809.676 3.141.676 1.238 0 2.19-.29 2.952-.772.666-.483 1.047-1.256 1.047-2.222 0-.482-.095-.869-.286-1.158-.38-.387-.666-.676-1.047-.966zM91.587 77.253v-1.835H89.97v10.044h1.618v-4.443c0-1.062.19-1.738.286-1.931.095-.193.095-.29.19-.483.286-.483.667-.87 1.238-1.256a5.078 5.078 0 0 1 2.38-.579v-1.352c-3.046.096-4.094 1.835-4.094 1.835zM74.26 72.045l-4.093 11.01h-.095l-4.094-11.01h-2.38v13.424H65.216v-11.3l4.19 11.3h1.332l4.38-11.59v11.59h1.618V72.045H74.26zM101.108 79.574l3.998-4.153h-1.809l-4.38 4.54v-8.79h-1.523v14.294h1.524v-3.573l1.142-1.16 3.428 4.733h1.999l-4.379-5.891z" fill="#003F7E"/>
</svg>
