<svg width="28" height="27" viewBox="0 0 28 27" fill="none" xmlns="http://www.w3.org/2000/svg">
    <path d="M15.8 4.59h-2.137a.534.534 0 1 0 0 1.068H15.8a.534.534 0 1 0 0-1.068z" fill="#F6821F"/>
    <path d="M18.117 2.809H9.57a2.14 2.14 0 0 0-2.137 2.137v17.096a2.14 2.14 0 0 0 2.137 2.137h8.548a2.14 2.14 0 0 0 2.137-2.137V4.946a2.14 2.14 0 0 0-2.137-2.137zm1.069 19.233c0 .59-.479 1.068-1.069 1.068H9.57c-.59 0-1.068-.478-1.068-1.068V4.946c0-.59.478-1.069 1.068-1.069h8.548c.59 0 1.069.478 1.069 1.069v17.096z" fill="#F6821F"/>
    <path d="M13.841 22.399a1.069 1.069 0 1 0 0-2.137 1.069 1.069 0 0 0 0 2.137zM11.884 5.658a.534.534 0 1 0 0-1.068.534.534 0 0 0 0 1.068z" fill="#F6821F"/>
</svg>
