<svg width="23" height="23" viewBox="0 0 23 23" fill="none" xmlns="http://www.w3.org/2000/svg">
    <g clip-path="url(#v59qg6mowa)" fill="#F6821F">
        <path d="M18.018 11.583a.916.916 0 0 0-.916.917v7.333c0 .505-.411.917-.917.917H3.352a.917.917 0 0 1-.917-.917V7c0-.505.41-.917.917-.917h7.333a.916.916 0 1 0 0-1.833H3.352A2.753 2.753 0 0 0 .602 7v12.833a2.753 2.753 0 0 0 2.75 2.75h12.833a2.753 2.753 0 0 0 2.75-2.75V12.5a.916.916 0 0 0-.917-.917z"/>
        <path d="M9.197 10.749a.464.464 0 0 0-.126.233l-.648 3.242a.46.46 0 0 0 .54.539l3.24-.648a.455.455 0 0 0 .235-.126l7.253-7.253-3.24-3.24-7.254 7.253zM21.93 1.254a2.293 2.293 0 0 0-3.24 0l-1.268 1.269 3.24 3.24 1.269-1.268a2.273 2.273 0 0 0 .671-1.62c0-.612-.238-1.188-.671-1.62z"/>
    </g>
    <defs>
        <clipPath id="v59qg6mowa">
            <path fill="#fff" transform="translate(.602 .541)" d="M0 0h22v22H0z"/>
        </clipPath>
    </defs>
</svg>
