<svg id="Layer_1" data-name="Layer 1" xmlns="http://www.w3.org/2000/svg" viewBox="0 0 458.82 150"><defs><style>.cls-1{fill:#f58220;}.cls-2{fill:#1b3e71;}</style></defs><path class="cls-1" d="M91.45,61.75v41.37h15.81V61.75c0-19.44-15.1-31.46-29.09-31.46-7.66,0-15.59,3.72-21.28,10.1a29,29,0,0,0-21.32-10.1C21.41,30.29,6.26,43,6.26,61.75v33.1c0,5,3.52,9.05,7.89,9.05s7.91-4,7.91-9.05V61.75c0-7.65,7.13-13.36,13.51-13.36A13.35,13.35,0,0,1,48.85,61.75v33.1c0,5,3.54,9.05,7.9,9.05s7.92-4,7.92-9.05V61.75c0-7.65,7.13-13.36,13.5-13.36A13.35,13.35,0,0,1,91.45,61.75Z"/><path class="cls-1" d="M119.18,113.38a5.93,5.93,0,0,1-2.54-.56c-3.4-1.63-5-6.07-3.62-10l4.16-11.55c1.39-3.91,5.3-5.78,8.7-4.17s5,6.06,3.63,10l-4.16,11.57A6.73,6.73,0,0,1,119.18,113.38Z"/><path class="cls-2" d="M140.27,92.81a10.36,10.36,0,0,1-3.46-7.93c0-5.45,3.8-9.7,8.59-9.7a8.17,8.17,0,0,1,5.25,1.92C157,82.43,163.9,85.71,172,85.71c7.53,0,12.06-3.42,12.06-9v-.27c0-5.33-2.86-8-16.83-12.15C150.4,59.35,139.55,54,139.55,35v-.27C139.55,17.42,151.72,6,168.79,6a44,44,0,0,1,26.5,8.47,9.87,9.87,0,0,1,4.06,8.32c0,5.46-3.82,9.69-8.6,9.69a7.89,7.89,0,0,1-4.65-1.5c-6.09-4.1-11.82-6.41-17.54-6.41-7.05,0-10.74,3.68-10.74,8.33v.27c0,6.28,3.58,8.33,18,12.56,16.94,5.06,26.5,12,26.5,28.68v.28c0,19-12.65,29.63-30.69,29.63A49.45,49.45,0,0,1,140.27,92.81Z"/><path class="cls-2" d="M215.22,82.15V47.47h-.6c-4.3,0-7.76-4-7.76-8.87s3.46-8.88,7.76-8.88h.6V20.56c0-5.73,4.06-10.37,9.07-10.37s9.07,4.64,9.07,10.37v9.16h8c4.29,0,7.74,4,7.74,8.88s-3.45,8.87-7.74,8.87h-8V78.75c0,4.77,1.79,7.1,5.85,7.1.59,0,1.77-.14,2.15-.14,4,0,7.52,3.83,7.52,8.6a8.47,8.47,0,0,1-4.66,7.78,23.72,23.72,0,0,1-10.39,2C222.73,104.14,215.22,99.09,215.22,82.15Z"/><path class="cls-2" d="M253.27,66.72v-.26c0-21,14.81-38.11,34.73-38.11s34.5,16.8,34.5,37.83v.28c0,21-14.8,38.08-34.73,38.08S253.27,87.75,253.27,66.72Zm51.33,0v-.26c0-10.79-6.81-20.22-16.83-20.22-10.38,0-16.59,9.15-16.59,19.94v.28c0,10.79,6.8,20.2,16.82,20.2C298.4,86.66,304.6,77.51,304.6,66.72Z"/><path class="cls-2" d="M328.94,66.72v-.26c0-20.9,14-38.11,33.55-38.11,9.66,0,16.46,3,21.83,8.19a9.72,9.72,0,0,1,2.87,7.1c0,5.19-3.69,9.29-8.24,9.29a7.9,7.9,0,0,1-5.24-2c-3.24-2.88-6.57-4.65-11.34-4.65-9.08,0-15.52,9.15-15.52,19.94v.28c0,11.2,6.32,20.2,16.23,20.2,4.78,0,8.48-1.91,11.94-5a7.73,7.73,0,0,1,4.89-1.92c4.3,0,7.64,4,7.64,8.88a9.42,9.42,0,0,1-2.62,6.57c-5.38,5.6-12.18,9.4-22.69,9.4C343,104.54,328.94,87.62,328.94,66.72Z"/><path class="cls-2" d="M396.6,12.78c0-5.73,4-10.37,9.07-10.37s9.07,4.64,9.07,10.37V58.12l22.68-24.59c2.63-2.86,4.78-4.63,8-4.63,4.9,0,8,4.51,8,9.29,0,3.54-1.67,6.28-4.18,9L434.91,61.27,452,87.62a11.81,11.81,0,0,1,2.27,6.69c0,5.6-3.93,9.42-8.48,9.42-3.57,0-5.72-1.37-7.87-4.77L422,74l-7.29,7.52V93.35c0,5.74-4.06,10.38-9.07,10.38s-9.07-4.64-9.07-10.38Z"/><path class="cls-2" d="M219.84,122.31a6.65,6.65,0,0,1,5.56,2.48,10.92,10.92,0,0,1,2,6.93c0,3-.66,5.34-2,7a6.72,6.72,0,0,1-5.53,2.46,7.86,7.86,0,0,1-3.29-.66,5.73,5.73,0,0,1-2.36-2H214c-.34,1.33-.55,2.1-.61,2.31H211.2V115h3v6.28c0,1.25-.05,2.5-.16,3.75h.16A6.36,6.36,0,0,1,219.84,122.31Zm-.5,2.47a4.67,4.67,0,0,0-4,1.56q-1.2,1.56-1.2,5.28v.14q0,3.74,1.22,5.34a4.74,4.74,0,0,0,4,1.6,4.1,4.1,0,0,0,3.66-1.8,9.4,9.4,0,0,0,1.2-5.21,9,9,0,0,0-1.21-5.18A4.25,4.25,0,0,0,219.34,124.78Z"/><path class="cls-2" d="M228.94,122.61h3.21L236.08,133a33.59,33.59,0,0,1,1.53,5h.13c.1-.41.33-1.17.68-2.3s.66-2,.9-2.7l3.7-10.34h3.23l-7.86,20.76a10.25,10.25,0,0,1-2.72,4.33,6,6,0,0,1-3.91,1.31,10.88,10.88,0,0,1-2.47-.28v-2.38a8.25,8.25,0,0,0,2,.2,3.79,3.79,0,0,0,2.43-.79,5.51,5.51,0,0,0,1.62-2.43l.95-2.42Z"/><path class="cls-2" d="M268.42,140.84l-5.85-19h-.15c.21,3.88.32,6.46.32,7.76v11.29h-4.6V116.56h7l5.75,18.57h.1l6.09-18.57h7v24.28h-4.8V129.35c0-.54,0-1.17,0-1.88s.09-2.59.22-5.64h-.15l-6.26,19Z"/><path class="cls-2" d="M289.59,117.47c0-1.64.92-2.47,2.76-2.47s2.75.83,2.75,2.47a2.42,2.42,0,0,1-.69,1.84,2.86,2.86,0,0,1-2.06.66C290.51,120,289.59,119.14,289.59,117.47Zm5.28,23.37h-5.06V122.27h5.06Z"/><path class="cls-2" d="M310.55,121.93a8.22,8.22,0,0,1,1.71.15l-.38,4.74a5.89,5.89,0,0,0-1.5-.16,5.37,5.37,0,0,0-3.78,1.24,4.52,4.52,0,0,0-1.35,3.49v9.45h-5.07V122.27H304l.75,3.13H305a7,7,0,0,1,2.33-2.52A5.74,5.74,0,0,1,310.55,121.93Z"/><path class="cls-2" d="M327.09,140.84l-1-2.52H326a7.47,7.47,0,0,1-2.63,2.23,8.43,8.43,0,0,1-3.53.62,5.75,5.75,0,0,1-4.21-1.52,5.89,5.89,0,0,1-1.53-4.36,4.9,4.9,0,0,1,2.07-4.36,12,12,0,0,1,6.23-1.55l3.22-.1v-.81c0-1.88-1-2.82-2.89-2.82a13.13,13.13,0,0,0-5.23,1.34l-1.67-3.42a15,15,0,0,1,7.1-1.68,8.83,8.83,0,0,1,5.73,1.63,6,6,0,0,1,2,5v12.37Zm-1.5-8.6-2,.06a6.34,6.34,0,0,0-3.28.8,2.51,2.51,0,0,0-1.08,2.23c0,1.43.82,2.14,2.45,2.14a3.91,3.91,0,0,0,2.82-1,3.59,3.59,0,0,0,1-2.69Z"/><path class="cls-2" d="M344.24,141.17a9.59,9.59,0,0,1-7-2.47,9.39,9.39,0,0,1-2.52-7q0-4.66,2.33-7.22a8.35,8.35,0,0,1,6.46-2.54,8.14,8.14,0,0,1,6.12,2.24,8.44,8.44,0,0,1,2.2,6.19v2.46h-12a4.88,4.88,0,0,0,1.28,3.37,4.51,4.51,0,0,0,3.36,1.21,13.57,13.57,0,0,0,3.17-.35,15.89,15.89,0,0,0,3.12-1.11v3.92a12.24,12.24,0,0,1-2.84,1A17.7,17.7,0,0,1,344.24,141.17Zm-.71-15.64a3.23,3.23,0,0,0-2.53,1,4.8,4.8,0,0,0-1,2.9h7.11a4.27,4.27,0,0,0-1-2.9A3.33,3.33,0,0,0,343.53,125.53Z"/><path class="cls-2" d="M380,140.84l-1.76-5.78h-8.85l-1.76,5.78h-5.55l8.57-24.38H377l8.6,24.38Zm-3-10.1c-1.63-5.23-2.54-8.19-2.75-8.88s-.35-1.23-.44-1.63q-.54,2.13-3.14,10.51Z"/><path class="cls-2" d="M401.19,135.33a5.11,5.11,0,0,1-2,4.35q-2,1.48-5.93,1.49a19,19,0,0,1-3.46-.27,12.57,12.57,0,0,1-2.67-.81v-4.18a17.91,17.91,0,0,0,3.18,1.11,12.86,12.86,0,0,0,3.11.45q2.76,0,2.76-1.59a1.33,1.33,0,0,0-.37-1,5,5,0,0,0-1.26-.84c-.6-.32-1.39-.69-2.39-1.11a15.09,15.09,0,0,1-3.15-1.66,4.71,4.71,0,0,1-1.46-1.75,5.86,5.86,0,0,1-.45-2.43,4.42,4.42,0,0,1,1.91-3.83,9.38,9.38,0,0,1,5.44-1.35,15.34,15.34,0,0,1,6.53,1.46L399.46,127c-.93-.4-1.8-.72-2.61-1a8.27,8.27,0,0,0-2.47-.38c-1.5,0-2.24.4-2.24,1.21a1.43,1.43,0,0,0,.72,1.18,20.62,20.62,0,0,0,3.16,1.48,14.29,14.29,0,0,1,3.19,1.64,4.86,4.86,0,0,1,1.5,1.76A5.46,5.46,0,0,1,401.19,135.33Z"/><path class="cls-2" d="M418.09,135.33a5.12,5.12,0,0,1-2,4.35q-2,1.48-5.94,1.49a18.86,18.86,0,0,1-3.45-.27,12.57,12.57,0,0,1-2.67-.81v-4.18a17.91,17.91,0,0,0,3.18,1.11,12.72,12.72,0,0,0,3.11.45q2.76,0,2.76-1.59a1.37,1.37,0,0,0-.37-1,5,5,0,0,0-1.26-.84c-.6-.32-1.4-.69-2.39-1.11a15.09,15.09,0,0,1-3.15-1.66,4.62,4.62,0,0,1-1.46-1.75,5.7,5.7,0,0,1-.46-2.43,4.41,4.41,0,0,1,1.92-3.83,9.36,9.36,0,0,1,5.44-1.35,15.37,15.37,0,0,1,6.53,1.46L416.37,127c-.93-.4-1.8-.72-2.61-1a8.32,8.32,0,0,0-2.47-.38c-1.5,0-2.25.4-2.25,1.21a1.44,1.44,0,0,0,.73,1.18,20.14,20.14,0,0,0,3.16,1.48,14.52,14.52,0,0,1,3.19,1.64,4.93,4.93,0,0,1,1.49,1.76A5.46,5.46,0,0,1,418.09,135.33Z"/><path class="cls-2" d="M430.45,141.17a9.59,9.59,0,0,1-7-2.47,9.39,9.39,0,0,1-2.52-7q0-4.66,2.33-7.22a8.35,8.35,0,0,1,6.45-2.54,8.15,8.15,0,0,1,6.13,2.24,8.48,8.48,0,0,1,2.19,6.19v2.46h-12a4.88,4.88,0,0,0,1.28,3.37,4.48,4.48,0,0,0,3.35,1.21,13.6,13.6,0,0,0,3.18-.35,15.89,15.89,0,0,0,3.12-1.11v3.92a12.41,12.41,0,0,1-2.84,1A17.7,17.7,0,0,1,430.45,141.17Zm-.71-15.64a3.22,3.22,0,0,0-2.53,1,4.67,4.67,0,0,0-1,2.9h7.1a4.22,4.22,0,0,0-1-2.9A3.31,3.31,0,0,0,429.74,125.53Z"/><path class="cls-2" d="M450,137.14a11.21,11.21,0,0,0,3.19-.58v3.77a11.44,11.44,0,0,1-4.65.84,5.69,5.69,0,0,1-4.42-1.53,6.67,6.67,0,0,1-1.39-4.61v-9h-2.42v-2.15l2.79-1.69,1.46-3.92h3.24v4H453v3.81h-5.19v9a2,2,0,0,0,.6,1.59A2.37,2.37,0,0,0,450,137.14Z"/></svg>