<svg width="381" height="44" viewBox="0 0 381 44" fill="none" xmlns="http://www.w3.org/2000/svg">
<rect x="2" y="1" width="379" height="42" rx="4" fill="white"/>
<rect x="0.5" y="0.5" width="380" height="43" rx="3.5" fill="url(#paint0_linear_1054_563)" stroke="#F5821F"/>
<path d="M349.604 0H370L343.396 44H323L349.604 0Z" fill="#F5821F"/>
<g opacity="0.3" clip-path="url(#clip0_1054_563)">
<path d="M-4.35611 -6.49707H-20.7734L-11.9021 6.28604H4.51525L-4.35611 -6.49707Z" fill="#FF522D"/>
<path d="M12.0555 -6.49707H-4.35742L4.51394 6.28604H20.9268L12.0555 -6.49707Z" fill="#FFBED6"/>
<path d="M28.472 -6.49707H12.0547L20.926 6.28604H37.3389L28.472 -6.49707Z" fill="#FF817A"/>
<path d="M44.8856 -6.49707H28.4727L37.3396 6.28604H53.7569L44.8856 -6.49707Z" fill="#FF6F5F"/>
<path d="M61.3016 -6.49707H44.8887L53.76 6.28604H70.1729L61.3016 -6.49707Z" fill="#FF8B8C"/>
<path d="M77.7181 -6.49707H61.3008L70.1721 6.28604H86.5895L77.7181 -6.49707Z" fill="#FF9395"/>
<path d="M94.1297 -6.49707H77.7168L86.5882 6.28604H103.001L94.1297 -6.49707Z" fill="#FF8B8C"/>
<path d="M110.546 -6.49707H94.1289L103 6.28604H119.413L110.546 -6.49707Z" fill="#FF8B8C"/>
<path d="M126.958 -6.49707H110.545L119.412 6.28604H135.829L126.958 -6.49707Z" fill="#FFF8FF"/>
<path d="M143.376 -6.49707H126.963L135.834 6.28604H152.247L143.376 -6.49707Z" fill="#FFB1C0"/>
<path d="M159.79 -6.49707H143.373L152.244 6.28604H168.662L159.79 -6.49707Z" fill="#FFF8FF"/>
<path d="M176.204 -6.49707H159.791L168.662 6.28604H185.075L176.204 -6.49707Z" fill="#FFF8FF"/>
<path d="M192.616 -6.49707H176.203L185.074 6.28604H201.487L192.616 -6.49707Z" fill="#FFF8FF"/>
<path d="M209.031 -6.49707H192.613L201.485 6.28604H217.902L209.031 -6.49707Z" fill="#FFF8FF"/>
<path d="M217.903 6.28604H227.998V-2.81925L225.444 -6.49707H209.031L217.903 6.28604Z" fill="#FFF8FF"/>
<path d="M4.51694 6.28711H-11.9004L-3.02903 19.0747H13.3839L4.51694 6.28711Z" fill="#FF6752"/>
<path d="M20.9305 6.28711H4.51758L13.3845 19.0747H29.8019L20.9305 6.28711Z" fill="#FFF8FF"/>
<path d="M37.3406 6.28711H20.9277L29.7991 19.0747H46.212L37.3406 6.28711Z" fill="#FF776A"/>
<path d="M53.7572 6.28711H37.3398L46.2112 19.0747H62.6241L53.7572 6.28711Z" fill="#FF8686"/>
<path d="M70.1707 6.28711H53.7578L62.6248 19.0747H79.0421L70.1707 6.28711Z" fill="#FF6F5F"/>
<path d="M86.5853 6.28711H70.168L79.0393 19.0747H95.4522L86.5853 6.28711Z" fill="#FFB5C9"/>
<path d="M103.003 6.28711H86.5898L95.4568 19.0747H111.874L103.003 6.28711Z" fill="#FF9DA5"/>
<path d="M119.415 6.28711H103.002L111.873 19.0747H128.286L119.415 6.28711Z" fill="#FF9395"/>
<path d="M135.831 6.28711H119.414L128.285 19.0747H144.703L135.831 6.28711Z" fill="#FFCBE8"/>
<path d="M152.243 6.28711H135.83L144.701 19.0747H161.114L152.243 6.28711Z" fill="#FFF8FF"/>
<path d="M168.66 6.28711H152.242L161.114 19.0747H177.526L168.66 6.28711Z" fill="#FFF8FF"/>
<path d="M185.071 6.28711H168.658L177.525 19.0747H193.942L185.071 6.28711Z" fill="#FFF8FF"/>
<path d="M201.489 6.28711H185.076L193.948 19.0747H210.36L201.489 6.28711Z" fill="#FFF8FF"/>
<path d="M217.906 6.28711H201.488L210.36 19.0747H226.777L217.906 6.28711Z" fill="#FFF8FF"/>
<path d="M227.999 6.28711H217.904L226.776 19.0747H227.999V6.28711Z" fill="#FFF8FF"/>
<path d="M-3.03045 19.0752H-19.4434L-10.5764 31.8583H5.84092L-3.03045 19.0752Z" fill="#FF8581"/>
<path d="M13.3817 19.0752H-3.03125L5.84011 31.8583H22.253L13.3817 19.0752Z" fill="#FF8581"/>
<path d="M29.7962 19.0752H13.3789L22.2503 31.8583H38.6632L29.7962 19.0752Z" fill="#FF817A"/>
<path d="M46.2098 19.0752H29.7969L38.6638 31.8583H55.0811L46.2098 19.0752Z" fill="#FFABBA"/>
<path d="M62.6258 19.0752H46.2129L55.0842 31.8583H71.4972L62.6258 19.0752Z" fill="#FFE1FF"/>
<path d="M79.0423 19.0752H62.625L71.4964 31.8583H87.9137L79.0423 19.0752Z" fill="#FFDBFC"/>
<path d="M95.4559 19.0752H79.043L87.9143 31.8583H104.327L95.4559 19.0752Z" fill="#FFF5FF"/>
<path d="M111.87 19.0752H95.4531L104.324 31.8583H120.742L111.87 19.0752Z" fill="#FF979D"/>
<path d="M128.284 19.0752H111.871L120.742 31.8583H137.155L128.284 19.0752Z" fill="#FFBED6"/>
<path d="M144.704 19.0752H128.287L137.158 31.8583H153.571L144.704 19.0752Z" fill="#FFD1EE"/>
<path d="M161.118 19.0752H144.705L153.572 31.8583H169.989L161.118 19.0752Z" fill="#FFF8FF"/>
<path d="M177.528 19.0752H161.115L169.987 31.8583H186.399L177.528 19.0752Z" fill="#FFF8FF"/>
<path d="M193.945 19.0752H177.527L186.399 31.8583H202.812L193.945 19.0752Z" fill="#FFF8FF"/>
<path d="M210.356 19.0752H193.943L202.81 31.8583H219.228L210.356 19.0752Z" fill="#FFF8FF"/>
<path d="M219.233 31.8583H228.002V20.8382L226.779 19.0752H210.361L219.233 31.8583Z" fill="#FFF8FF"/>
<path d="M228.001 20.8382V19.0752H226.777L228.001 20.8382Z" fill="#FFF8FF"/>
<path d="M5.84311 31.8584H-10.5742L-1.70286 44.646H14.7145L5.84311 31.8584Z" fill="#FFB1C0"/>
<path d="M22.2547 31.8584H5.8418L14.7132 44.646H31.1261L22.2547 31.8584Z" fill="#FFB1C0"/>
<path d="M38.6668 31.8584H22.2539L31.1253 44.646H47.5382L38.6668 31.8584Z" fill="#FF9DA5"/>
<path d="M55.0814 31.8584H38.6641L47.5354 44.646H63.9528L55.0814 31.8584Z" fill="#FFF8FF"/>
<path d="M71.4949 31.8584H55.082L63.9534 44.646H80.3663L71.4949 31.8584Z" fill="#FF8581"/>
<path d="M87.9154 31.8584H71.498L80.3694 44.646H96.7823L87.9154 31.8584Z" fill="#FFF8FF"/>
<path d="M104.329 31.8584H87.916L96.783 44.646H113.2L104.329 31.8584Z" fill="#FFF8FF"/>
<path d="M120.743 31.8584H104.326L113.198 44.646H129.61L120.743 31.8584Z" fill="#FFF8FF"/>
<path d="M137.157 31.8584H120.744L129.611 44.646H146.028L137.157 31.8584Z" fill="#FFF8FF"/>
<path d="M153.569 31.8584H137.156L146.028 44.646H162.441L153.569 31.8584Z" fill="#FFF8FF"/>
<path d="M169.99 31.8584H153.572L162.444 44.646H178.857L169.99 31.8584Z" fill="#FFF8FF"/>
<path d="M186.403 31.8584H169.99L178.857 44.646H195.274L186.403 31.8584Z" fill="#FFF8FF"/>
<path d="M202.813 31.8584H186.4L195.272 44.646H211.685L202.813 31.8584Z" fill="#FFF8FF"/>
<path d="M211.684 44.646H228V44.4987L219.23 31.8584H202.812L211.684 44.646Z" fill="#FFF8FF"/>
<path d="M227.998 44.4987V31.8584H219.229L227.998 44.4987Z" fill="#FFF8FF"/>
<g style="mix-blend-mode:screen">
<g style="mix-blend-mode:screen">
<path d="M6.75079 44.646H-9.66211L-0.790752 31.8584H15.6222L6.75079 44.646Z" fill="#FF5F42"/>
</g>
<g style="mix-blend-mode:screen">
<path d="M23.1673 44.646H6.75L15.6214 31.8584H32.0343L23.1673 44.646Z" fill="#FFABBA"/>
</g>
<g style="mix-blend-mode:screen">
<path d="M39.5809 44.646H23.168L32.0349 31.8584H48.4522L39.5809 44.646Z" fill="#FFA2AE"/>
</g>
<g style="mix-blend-mode:screen">
<path d="M55.9955 44.646H39.5781L48.4495 31.8584H64.8624L55.9955 44.646Z" fill="#FF8686"/>
</g>
<g style="mix-blend-mode:screen">
<path d="M72.409 44.646H55.9961L64.863 31.8584H81.2804L72.409 44.646Z" fill="#FFD1EE"/>
</g>
<g style="mix-blend-mode:screen">
<path d="M88.825 44.646H72.4121L81.2835 31.8584H97.6964L88.825 44.646Z" fill="#FFDBFC"/>
</g>
<g style="mix-blend-mode:screen">
<path d="M105.237 44.646H88.8242L97.6956 31.8584H114.108L105.237 44.646Z" fill="#FFF8FF"/>
</g>
<g style="mix-blend-mode:screen">
<path d="M121.654 44.646H105.236L114.108 31.8584H130.525L121.654 44.646Z" fill="#FFB5C9"/>
</g>
<g style="mix-blend-mode:screen">
<path d="M138.07 44.646H121.652L130.524 31.8584H146.937L138.07 44.646Z" fill="#FF979D"/>
</g>
<g style="mix-blend-mode:screen">
<path d="M154.481 44.646H138.068L146.935 31.8584H163.348L154.481 44.646Z" fill="#FF481E"/>
</g>
<g style="mix-blend-mode:screen">
<path d="M170.899 44.646H154.486L163.353 31.8584H179.771L170.899 44.646Z" fill="#FF7E76"/>
</g>
<g style="mix-blend-mode:screen">
<path d="M187.309 44.646H170.896L179.768 31.8584H196.181L187.309 44.646Z" fill="#FFB5C9"/>
</g>
<g style="mix-blend-mode:screen">
<path d="M203.726 44.646H187.309L196.18 31.8584H212.597L203.726 44.646Z" fill="#FF7A70"/>
</g>
<g style="mix-blend-mode:screen">
<path d="M220.144 44.646L227.999 33.3224V31.8584H212.598L203.727 44.646H220.144Z" fill="#FF512A"/>
</g>
<g style="mix-blend-mode:screen">
<path d="M227.998 44.6468V33.3232L220.143 44.6468H227.998Z" fill="#FF3D0C"/>
</g>
<g style="mix-blend-mode:screen">
<path d="M-0.791664 31.8583H-17.209L-8.33762 19.0752H8.07971L-0.791664 31.8583Z" fill="#FF7A70"/>
</g>
<g style="mix-blend-mode:screen">
<path d="M15.6199 31.8583H-0.792969L8.0784 19.0752H24.4913L15.6199 31.8583Z" fill="#FF6349"/>
</g>
<g style="mix-blend-mode:screen">
<path d="M32.036 31.8583H15.623L24.4944 19.0752H40.9073L32.036 31.8583Z" fill="#FF776A"/>
</g>
<g style="mix-blend-mode:screen">
<path d="M48.4525 31.8583H32.0352L40.9065 19.0752H57.3238L48.4525 31.8583Z" fill="#FF7366"/>
</g>
<g style="mix-blend-mode:screen">
<path d="M64.8641 31.8583H48.4512L57.3225 19.0752H73.7354L64.8641 31.8583Z" fill="#FF8686"/>
</g>
<g style="mix-blend-mode:screen">
<path d="M81.2806 31.8583H64.8633L73.7346 19.0752H90.1475L81.2806 31.8583Z" fill="#FFA2AE"/>
</g>
<g style="mix-blend-mode:screen">
<path d="M97.6942 31.8583H81.2812L90.1482 19.0752H106.566L97.6942 31.8583Z" fill="#FFBED6"/>
</g>
<g style="mix-blend-mode:screen">
<path d="M114.11 31.8583H97.6973L106.569 19.0752H122.982L114.11 31.8583Z" fill="#FFF5FF"/>
</g>
<g style="mix-blend-mode:screen">
<path d="M130.527 31.8583H114.109L122.981 19.0752H139.398L130.527 31.8583Z" fill="#FFF8FF"/>
</g>
<g style="mix-blend-mode:screen">
<path d="M146.938 31.8583H130.525L139.397 19.0752H155.81L146.938 31.8583Z" fill="#FF7E76"/>
</g>
<g style="mix-blend-mode:screen">
<path d="M163.35 31.8583H146.938L155.809 19.0752H172.222L163.35 31.8583Z" fill="#FF6146"/>
</g>
<g style="mix-blend-mode:screen">
<path d="M179.767 31.8583H163.35L172.221 19.0752H188.638L179.767 31.8583Z" fill="#FF8B8C"/>
</g>
<g style="mix-blend-mode:screen">
<path d="M196.179 31.8583H179.766L188.637 19.0752H205.05L196.179 31.8583Z" fill="#FFEEFF"/>
</g>
<g style="mix-blend-mode:screen">
<path d="M212.601 31.8583H196.184L205.055 19.0752H221.468L212.601 31.8583Z" fill="#FFF8FF"/>
</g>
<g style="mix-blend-mode:screen">
<path d="M228.001 31.8583V19.0752H221.467L212.6 31.8583H228.001Z" fill="#FFABBA"/>
</g>
<g style="mix-blend-mode:screen">
<path d="M-8.33514 19.0747H-24.748L-15.8767 6.28711H0.536221L-8.33514 19.0747Z" fill="#FF4921"/>
</g>
<g style="mix-blend-mode:screen">
<path d="M8.08139 19.0747H-8.33594L0.535419 6.28711H16.9483L8.08139 19.0747Z" fill="#FF6146"/>
</g>
<g style="mix-blend-mode:screen">
<path d="M24.493 19.0747H8.08008L16.947 6.28711H33.3643L24.493 19.0747Z" fill="#FF6349"/>
</g>
<g style="mix-blend-mode:screen">
<path d="M40.9051 19.0747H24.4922L33.3635 6.28711H49.7764L40.9051 19.0747Z" fill="#FF817A"/>
</g>
<g style="mix-blend-mode:screen">
<path d="M57.3216 19.0747H40.9043L49.7757 6.28711H66.193L57.3216 19.0747Z" fill="#FFB5C9"/>
</g>
<g style="mix-blend-mode:screen">
<path d="M73.7391 19.0747H57.3262L66.1975 6.28711H82.6104L73.7391 19.0747Z" fill="#FF6752"/>
</g>
<g style="mix-blend-mode:screen">
<path d="M90.1512 19.0747H73.7383L82.6097 6.28711H99.0226L90.1512 19.0747Z" fill="#FFC5DC"/>
</g>
<g style="mix-blend-mode:screen">
<path d="M106.566 19.0747H90.1484L99.0198 6.28711H115.437L106.566 19.0747Z" fill="#FFC5DC"/>
</g>
<g style="mix-blend-mode:screen">
<path d="M122.979 19.0747H106.566L115.438 6.28711H131.851L122.979 19.0747Z" fill="#FFF8FF"/>
</g>
<g style="mix-blend-mode:screen">
<path d="M139.394 19.0747H122.977L131.848 6.28711H148.261L139.394 19.0747Z" fill="#FFE1FF"/>
</g>
<g style="mix-blend-mode:screen">
<path d="M155.807 19.0747H139.395L148.261 6.28711H164.679L155.807 19.0747Z" fill="#FFF5FF"/>
</g>
<g style="mix-blend-mode:screen">
<path d="M172.223 19.0747H155.811L164.682 6.28711H181.095L172.223 19.0747Z" fill="#FFC5DC"/>
</g>
<g style="mix-blend-mode:screen">
<path d="M188.64 19.0747H172.223L181.094 6.28711H197.511L188.64 19.0747Z" fill="#FFD1EE"/>
</g>
<g style="mix-blend-mode:screen">
<path d="M205.052 19.0747H188.639L197.51 6.28711H213.923L205.052 19.0747Z" fill="#FFF8FF"/>
</g>
<g style="mix-blend-mode:screen">
<path d="M221.464 19.0747L227.998 9.66142V6.28711H213.922L205.051 19.0747H221.464Z" fill="#FFDBFC"/>
</g>
<g style="mix-blend-mode:screen">
<path d="M228.003 19.0764V9.66309L221.469 19.0764H228.003Z" fill="#FFF8FF"/>
</g>
<g style="mix-blend-mode:screen">
<path d="M0.533997 6.28604H-15.8789L-7.01196 -6.49707H9.40537L0.533997 6.28604Z" fill="#FF6146"/>
</g>
<g style="mix-blend-mode:screen">
<path d="M16.9442 6.28604H0.53125L9.40262 -6.49707H25.8155L16.9442 6.28604Z" fill="#FF664E"/>
</g>
<g style="mix-blend-mode:screen">
<path d="M33.3665 6.28604H16.9492L25.8206 -6.49707H42.2379L33.3665 6.28604Z" fill="#FF5432"/>
</g>
<g style="mix-blend-mode:screen">
<path d="M49.7781 6.28604H33.3652L42.2366 -6.49707H58.6495L49.7781 6.28604Z" fill="#FF6F5F"/>
</g>
<g style="mix-blend-mode:screen">
<path d="M66.1947 6.28604H49.7773L58.6487 -6.49707H75.0616L66.1947 6.28604Z" fill="#FF979D"/>
</g>
<g style="mix-blend-mode:screen">
<path d="M82.6063 6.28604H66.1934L75.0603 -6.49707H91.4776L82.6063 6.28604Z" fill="#FF9395"/>
</g>
<g style="mix-blend-mode:screen">
<path d="M99.0184 6.28604H82.6055L91.4768 -6.49707H107.89L99.0184 6.28604Z" fill="#FF979D"/>
</g>
<g style="mix-blend-mode:screen">
<path d="M115.439 6.28604H99.0215L107.893 -6.49707H124.306L115.439 6.28604Z" fill="#FFF8FF"/>
</g>
<g style="mix-blend-mode:screen">
<path d="M131.852 6.28604H115.439L124.306 -6.49707H140.724L131.852 6.28604Z" fill="#FFB5C9"/>
</g>
<g style="mix-blend-mode:screen">
<path d="M148.264 6.28604H131.852L140.723 -6.49707H157.136L148.264 6.28604Z" fill="#FFF8FF"/>
</g>
<g style="mix-blend-mode:screen">
<path d="M164.679 6.28604H148.262L157.133 -6.49707H173.55L164.679 6.28604Z" fill="#FFF8FF"/>
</g>
<g style="mix-blend-mode:screen">
<path d="M181.093 6.28604H164.68L173.551 -6.49707H189.964L181.093 6.28604Z" fill="#FFDBFC"/>
</g>
<g style="mix-blend-mode:screen">
<path d="M197.513 6.28604H181.096L189.967 -6.49707H206.38L197.513 6.28604Z" fill="#FFF8FF"/>
</g>
<g style="mix-blend-mode:screen">
<path d="M213.927 6.28604H197.514L206.381 -6.49707H222.798L213.927 6.28604Z" fill="#FFF8FF"/>
</g>
<g style="mix-blend-mode:screen">
<path d="M228 6.28604V-6.49707H222.795L213.924 6.28604H228Z" fill="#FFCBE8"/>
</g>
</g>
<path style="mix-blend-mode:soft-light" d="M228 -147.137H-107V82.9996H228V-147.137Z" fill="url(#paint1_radial_1054_563)"/>
</g>
<path d="M31.626 27L28.748 18.6533H28.6865C28.7002 18.8402 28.7161 19.0954 28.7344 19.4189C28.7526 19.7425 28.7686 20.0889 28.7822 20.458C28.7959 20.8271 28.8027 21.1803 28.8027 21.5176V27H27.3125V17.0059H29.6162L32.3848 24.9834H32.4258L35.29 17.0059H37.5869V27H36.0215V21.4355C36.0215 21.1302 36.026 20.7998 36.0352 20.4443C36.0488 20.0889 36.0625 19.7516 36.0762 19.4326C36.0944 19.1136 36.1081 18.8584 36.1172 18.667H36.0625L33.0752 27H31.626ZM43.6846 27H42.0371V18.4004H39.1113V17.0059H46.6035V18.4004H43.6846V27ZM49.7617 27H48.1348V17.0059H53.7812V18.3867H49.7617V21.5039H53.5215V22.8779H49.7617V27ZM58.4844 23.165C58.4844 22.3994 58.5573 21.652 58.7031 20.9229C58.8535 20.1937 59.0814 19.4987 59.3867 18.8379C59.6921 18.1771 60.0771 17.5664 60.542 17.0059H61.9434C61.2917 17.8763 60.7995 18.8402 60.4668 19.8975C60.1387 20.9548 59.9746 22.0394 59.9746 23.1514C59.9746 23.876 60.0475 24.5938 60.1934 25.3047C60.3392 26.0156 60.5579 26.6992 60.8496 27.3555C61.1413 28.0163 61.5013 28.6361 61.9297 29.2148H60.542C60.0771 28.668 59.6921 28.071 59.3867 27.4238C59.0814 26.7767 58.8535 26.0931 58.7031 25.373C58.5573 24.653 58.4844 23.917 58.4844 23.165ZM66.5303 19.2891C67.2048 19.2891 67.7835 19.4281 68.2666 19.7061C68.7497 19.984 69.1211 20.3783 69.3809 20.8887C69.6406 21.3991 69.7705 22.0098 69.7705 22.7207V23.582H64.7188C64.737 24.3158 64.9329 24.8809 65.3066 25.2773C65.6849 25.6738 66.2135 25.8721 66.8926 25.8721C67.3757 25.8721 67.8086 25.8265 68.1914 25.7354C68.5788 25.6396 68.9775 25.5007 69.3877 25.3184V26.624C69.0094 26.8018 68.6243 26.9316 68.2324 27.0137C67.8405 27.0957 67.3711 27.1367 66.8242 27.1367C66.0814 27.1367 65.4274 26.9932 64.8623 26.7061C64.3018 26.4144 63.862 25.9814 63.543 25.4072C63.2285 24.833 63.0713 24.1198 63.0713 23.2676C63.0713 22.4199 63.2148 21.6999 63.502 21.1074C63.7891 20.515 64.1924 20.0638 64.7119 19.7539C65.2314 19.444 65.8376 19.2891 66.5303 19.2891ZM66.5303 20.499C66.0244 20.499 65.6143 20.6631 65.2998 20.9912C64.9899 21.3193 64.8076 21.8001 64.7529 22.4336H68.1982C68.1937 22.0553 68.1299 21.7204 68.0068 21.4287C67.8883 21.137 67.7061 20.9092 67.46 20.7451C67.2184 20.5811 66.9085 20.499 66.5303 20.499ZM76.0596 27L73.1816 18.6533H73.1201C73.1338 18.8402 73.1497 19.0954 73.168 19.4189C73.1862 19.7425 73.2021 20.0889 73.2158 20.458C73.2295 20.8271 73.2363 21.1803 73.2363 21.5176V27H71.7461V17.0059H74.0498L76.8184 24.9834H76.8594L79.7236 17.0059H82.0205V27H80.4551V21.4355C80.4551 21.1302 80.4596 20.7998 80.4688 20.4443C80.4824 20.0889 80.4961 19.7516 80.5098 19.4326C80.528 19.1136 80.5417 18.8584 80.5508 18.667H80.4961L77.5088 27H76.0596ZM87.4551 19.2891C88.4121 19.2891 89.1344 19.501 89.6221 19.9248C90.1143 20.3486 90.3604 21.0094 90.3604 21.9072V27H89.2188L88.9111 25.9268H88.8564C88.6423 26.2002 88.4212 26.4258 88.1934 26.6035C87.9655 26.7812 87.7012 26.9134 87.4004 27C87.1042 27.0911 86.7419 27.1367 86.3135 27.1367C85.8623 27.1367 85.459 27.0547 85.1035 26.8906C84.748 26.722 84.4678 26.4668 84.2627 26.125C84.0576 25.7832 83.9551 25.3503 83.9551 24.8262C83.9551 24.0469 84.2445 23.4613 84.8232 23.0693C85.4066 22.6774 86.2861 22.4609 87.4619 22.4199L88.7744 22.3721V21.9756C88.7744 21.4515 88.6514 21.0778 88.4053 20.8545C88.1637 20.6312 87.8219 20.5195 87.3799 20.5195C87.0016 20.5195 86.6348 20.5742 86.2793 20.6836C85.9238 20.793 85.5775 20.9274 85.2402 21.0869L84.7207 19.9521C85.0898 19.7562 85.5091 19.5967 85.9785 19.4736C86.4525 19.3506 86.9447 19.2891 87.4551 19.2891ZM88.7676 23.3838L87.79 23.418C86.988 23.4453 86.4251 23.582 86.1016 23.8281C85.778 24.0742 85.6162 24.4115 85.6162 24.8398C85.6162 25.2135 85.7279 25.487 85.9512 25.6602C86.1745 25.8288 86.4684 25.9131 86.833 25.9131C87.389 25.9131 87.8493 25.7559 88.2139 25.4414C88.583 25.1224 88.7676 24.6553 88.7676 24.04V23.3838ZM96.4443 19.2891C96.5719 19.2891 96.7109 19.2959 96.8613 19.3096C97.0117 19.3232 97.1416 19.3415 97.251 19.3643L97.1006 20.8682C97.0049 20.8408 96.8864 20.8203 96.7451 20.8066C96.6084 20.793 96.4854 20.7861 96.376 20.7861C96.0889 20.7861 95.8154 20.834 95.5557 20.9297C95.2959 21.0208 95.0658 21.1621 94.8652 21.3535C94.6647 21.5404 94.5075 21.7751 94.3936 22.0576C94.2796 22.3402 94.2227 22.6683 94.2227 23.042V27H92.6094V19.4326H93.8672L94.0859 20.7656H94.1611C94.3115 20.4967 94.4984 20.2507 94.7217 20.0273C94.945 19.804 95.2002 19.6263 95.4873 19.4941C95.779 19.3574 96.098 19.2891 96.4443 19.2891ZM100.812 30.3633C99.7871 30.3633 99.001 30.1787 98.4541 29.8096C97.9072 29.4404 97.6338 28.9232 97.6338 28.2578C97.6338 27.793 97.7796 27.3988 98.0713 27.0752C98.363 26.7562 98.7799 26.5352 99.3223 26.4121C99.1172 26.321 98.9395 26.1797 98.7891 25.9883C98.6432 25.7923 98.5703 25.5758 98.5703 25.3389C98.5703 25.0563 98.6501 24.8148 98.8096 24.6143C98.9691 24.4137 99.2083 24.2201 99.5273 24.0332C99.1309 23.8646 98.8118 23.5911 98.5703 23.2129C98.3333 22.8301 98.2148 22.3812 98.2148 21.8662C98.2148 21.3193 98.3311 20.8545 98.5635 20.4717C98.7959 20.0843 99.1354 19.7904 99.582 19.5898C100.029 19.3848 100.569 19.2822 101.202 19.2822C101.339 19.2822 101.487 19.2913 101.646 19.3096C101.811 19.3232 101.961 19.3415 102.098 19.3643C102.239 19.3825 102.346 19.403 102.419 19.4258H105.037V20.3213L103.752 20.5605C103.875 20.7337 103.973 20.932 104.046 21.1553C104.119 21.374 104.155 21.6133 104.155 21.873C104.155 22.6569 103.884 23.2744 103.342 23.7256C102.804 24.1722 102.061 24.3955 101.113 24.3955C100.885 24.3864 100.664 24.3682 100.45 24.3408C100.286 24.4411 100.161 24.5527 100.074 24.6758C99.9876 24.7943 99.9443 24.9287 99.9443 25.0791C99.9443 25.2021 99.9876 25.3024 100.074 25.3799C100.161 25.4528 100.288 25.5075 100.457 25.5439C100.63 25.5804 100.84 25.5986 101.086 25.5986H102.392C103.221 25.5986 103.854 25.7741 104.292 26.125C104.729 26.4759 104.948 26.9909 104.948 27.6699C104.948 28.5312 104.593 29.1943 103.882 29.6592C103.171 30.1286 102.148 30.3633 100.812 30.3633ZM100.874 29.2354C101.435 29.2354 101.906 29.1807 102.289 29.0713C102.672 28.9619 102.961 28.8047 103.157 28.5996C103.353 28.3991 103.451 28.1598 103.451 27.8818C103.451 27.6357 103.39 27.4466 103.267 27.3145C103.144 27.1823 102.959 27.0911 102.713 27.041C102.467 26.9909 102.161 26.9658 101.797 26.9658H100.607C100.311 26.9658 100.049 27.0114 99.8213 27.1025C99.5934 27.1982 99.4157 27.335 99.2881 27.5127C99.165 27.6904 99.1035 27.9046 99.1035 28.1553C99.1035 28.5016 99.2562 28.7682 99.5615 28.9551C99.8714 29.1419 100.309 29.2354 100.874 29.2354ZM101.188 23.3428C101.658 23.3428 102.007 23.2152 102.234 22.96C102.462 22.7002 102.576 22.3356 102.576 21.8662C102.576 21.3558 102.458 20.973 102.221 20.7178C101.988 20.4626 101.642 20.335 101.182 20.335C100.73 20.335 100.386 20.4648 100.149 20.7246C99.917 20.9844 99.8008 21.3695 99.8008 21.8799C99.8008 22.3402 99.917 22.7002 100.149 22.96C100.386 23.2152 100.733 23.3428 101.188 23.3428ZM108.024 19.4326V27H106.418V19.4326H108.024ZM107.231 16.5342C107.478 16.5342 107.689 16.6003 107.867 16.7324C108.049 16.8646 108.141 17.0924 108.141 17.416C108.141 17.735 108.049 17.9629 107.867 18.0996C107.689 18.2318 107.478 18.2979 107.231 18.2979C106.976 18.2979 106.76 18.2318 106.582 18.0996C106.409 17.9629 106.322 17.735 106.322 17.416C106.322 17.0924 106.409 16.8646 106.582 16.7324C106.76 16.6003 106.976 16.5342 107.231 16.5342ZM114.272 19.2891C115.125 19.2891 115.788 19.5101 116.262 19.9521C116.74 20.3896 116.979 21.0938 116.979 22.0645V27H115.373V22.3652C115.373 21.7773 115.252 21.3376 115.011 21.0459C114.769 20.7497 114.396 20.6016 113.89 20.6016C113.156 20.6016 112.646 20.8271 112.358 21.2783C112.076 21.7295 111.935 22.3835 111.935 23.2402V27H110.328V19.4326H111.579L111.805 20.458H111.894C112.058 20.1937 112.26 19.9772 112.502 19.8086C112.748 19.6354 113.021 19.5055 113.322 19.4189C113.628 19.3324 113.944 19.2891 114.272 19.2891ZM121.956 23.1582C121.956 23.9147 121.883 24.653 121.737 25.373C121.591 26.0931 121.366 26.7767 121.061 27.4238C120.76 28.071 120.372 28.668 119.898 29.2148H118.518C118.946 28.6361 119.306 28.0163 119.598 27.3555C119.889 26.6947 120.108 26.0088 120.254 25.2979C120.4 24.5869 120.473 23.8691 120.473 23.1445C120.473 22.4062 120.397 21.6771 120.247 20.957C120.101 20.237 119.882 19.5443 119.591 18.8789C119.299 18.209 118.937 17.5846 118.504 17.0059H119.898C120.372 17.5664 120.76 18.1771 121.061 18.8379C121.366 19.4987 121.591 20.1937 121.737 20.9229C121.883 21.6475 121.956 22.3926 121.956 23.1582ZM131.253 19.2891C132.105 19.2891 132.768 19.5101 133.242 19.9521C133.721 20.3896 133.96 21.0938 133.96 22.0645V27H132.354V22.3652C132.354 21.7773 132.233 21.3376 131.991 21.0459C131.75 20.7497 131.376 20.6016 130.87 20.6016C130.136 20.6016 129.626 20.8271 129.339 21.2783C129.056 21.7295 128.915 22.3835 128.915 23.2402V27H127.309V19.4326H128.56L128.785 20.458H128.874C129.038 20.1937 129.241 19.9772 129.482 19.8086C129.729 19.6354 130.002 19.5055 130.303 19.4189C130.608 19.3324 130.925 19.2891 131.253 19.2891ZM142.908 23.1992C142.908 23.8281 142.826 24.3864 142.662 24.874C142.498 25.3617 142.259 25.7741 141.944 26.1113C141.63 26.444 141.252 26.6992 140.81 26.877C140.368 27.0501 139.868 27.1367 139.312 27.1367C138.793 27.1367 138.317 27.0501 137.884 26.877C137.451 26.6992 137.075 26.444 136.756 26.1113C136.441 25.7741 136.198 25.3617 136.024 24.874C135.851 24.3864 135.765 23.8281 135.765 23.1992C135.765 22.3652 135.908 21.6589 136.195 21.0801C136.487 20.4967 136.902 20.0524 137.439 19.7471C137.977 19.4417 138.618 19.2891 139.36 19.2891C140.058 19.2891 140.673 19.4417 141.206 19.7471C141.739 20.0524 142.156 20.4967 142.457 21.0801C142.758 21.6634 142.908 22.3698 142.908 23.1992ZM137.419 23.1992C137.419 23.7507 137.485 24.2223 137.617 24.6143C137.754 25.0062 137.964 25.307 138.246 25.5166C138.529 25.7217 138.893 25.8242 139.34 25.8242C139.786 25.8242 140.151 25.7217 140.434 25.5166C140.716 25.307 140.924 25.0062 141.056 24.6143C141.188 24.2223 141.254 23.7507 141.254 23.1992C141.254 22.6478 141.188 22.1807 141.056 21.7979C140.924 21.4105 140.716 21.1165 140.434 20.916C140.151 20.7109 139.784 20.6084 139.333 20.6084C138.668 20.6084 138.182 20.8317 137.877 21.2783C137.572 21.7249 137.419 22.3652 137.419 23.1992ZM150.94 26.9932L149.983 23.4727C149.938 23.2995 149.883 23.0898 149.819 22.8438C149.756 22.5977 149.692 22.3447 149.628 22.085C149.564 21.8206 149.505 21.5768 149.45 21.3535C149.4 21.1302 149.361 20.957 149.334 20.834H149.279C149.257 20.957 149.22 21.1302 149.17 21.3535C149.12 21.5768 149.063 21.8206 148.999 22.085C148.935 22.3493 148.871 22.6068 148.808 22.8574C148.748 23.1081 148.694 23.3223 148.644 23.5L147.639 26.9932H145.875L143.756 19.4258H145.383L146.367 23.1855C146.431 23.4408 146.493 23.7165 146.552 24.0127C146.616 24.3089 146.67 24.5915 146.716 24.8604C146.761 25.1292 146.796 25.3503 146.818 25.5234H146.873C146.891 25.4004 146.916 25.2454 146.948 25.0586C146.98 24.8672 147.017 24.6689 147.058 24.4639C147.099 24.2542 147.14 24.0583 147.181 23.876C147.222 23.6891 147.26 23.5387 147.297 23.4248L148.459 19.4258H150.216L151.33 23.4248C151.38 23.598 151.435 23.8167 151.494 24.0811C151.553 24.3408 151.606 24.6029 151.651 24.8672C151.701 25.127 151.733 25.3434 151.747 25.5166H151.802C151.82 25.3617 151.852 25.152 151.897 24.8877C151.948 24.6188 152.005 24.334 152.068 24.0332C152.132 23.7279 152.198 23.4453 152.267 23.1855L153.271 19.4258H154.871L152.738 26.9932H150.94ZM162.773 19.2891C163.73 19.2891 164.453 19.501 164.94 19.9248C165.433 20.3486 165.679 21.0094 165.679 21.9072V27H164.537L164.229 25.9268H164.175C163.961 26.2002 163.74 26.4258 163.512 26.6035C163.284 26.7812 163.02 26.9134 162.719 27C162.423 27.0911 162.06 27.1367 161.632 27.1367C161.181 27.1367 160.777 27.0547 160.422 26.8906C160.066 26.722 159.786 26.4668 159.581 26.125C159.376 25.7832 159.273 25.3503 159.273 24.8262C159.273 24.0469 159.563 23.4613 160.142 23.0693C160.725 22.6774 161.604 22.4609 162.78 22.4199L164.093 22.3721V21.9756C164.093 21.4515 163.97 21.0778 163.724 20.8545C163.482 20.6312 163.14 20.5195 162.698 20.5195C162.32 20.5195 161.953 20.5742 161.598 20.6836C161.242 20.793 160.896 20.9274 160.559 21.0869L160.039 19.9521C160.408 19.7562 160.827 19.5967 161.297 19.4736C161.771 19.3506 162.263 19.2891 162.773 19.2891ZM164.086 23.3838L163.108 23.418C162.306 23.4453 161.743 23.582 161.42 23.8281C161.096 24.0742 160.935 24.4115 160.935 24.8398C160.935 25.2135 161.046 25.487 161.27 25.6602C161.493 25.8288 161.787 25.9131 162.151 25.9131C162.707 25.9131 163.168 25.7559 163.532 25.4414C163.901 25.1224 164.086 24.6553 164.086 24.04V23.3838ZM169.657 27L166.779 19.4326H168.481L170.04 23.876C170.14 24.1585 170.231 24.4639 170.313 24.792C170.396 25.1201 170.452 25.3958 170.484 25.6191H170.539C170.571 25.3867 170.632 25.1087 170.724 24.7852C170.815 24.457 170.908 24.154 171.004 23.876L172.562 19.4326H174.258L171.38 27H169.657ZM178.373 19.2891C179.33 19.2891 180.052 19.501 180.54 19.9248C181.032 20.3486 181.278 21.0094 181.278 21.9072V27H180.137L179.829 25.9268H179.774C179.56 26.2002 179.339 26.4258 179.111 26.6035C178.883 26.7812 178.619 26.9134 178.318 27C178.022 27.0911 177.66 27.1367 177.231 27.1367C176.78 27.1367 176.377 27.0547 176.021 26.8906C175.666 26.722 175.386 26.4668 175.181 26.125C174.976 25.7832 174.873 25.3503 174.873 24.8262C174.873 24.0469 175.162 23.4613 175.741 23.0693C176.325 22.6774 177.204 22.4609 178.38 22.4199L179.692 22.3721V21.9756C179.692 21.4515 179.569 21.0778 179.323 20.8545C179.082 20.6312 178.74 20.5195 178.298 20.5195C177.92 20.5195 177.553 20.5742 177.197 20.6836C176.842 20.793 176.495 20.9274 176.158 21.0869L175.639 19.9521C176.008 19.7562 176.427 19.5967 176.896 19.4736C177.37 19.3506 177.863 19.2891 178.373 19.2891ZM179.686 23.3838L178.708 23.418C177.906 23.4453 177.343 23.582 177.02 23.8281C176.696 24.0742 176.534 24.4115 176.534 24.8398C176.534 25.2135 176.646 25.487 176.869 25.6602C177.092 25.8288 177.386 25.9131 177.751 25.9131C178.307 25.9131 178.767 25.7559 179.132 25.4414C179.501 25.1224 179.686 24.6553 179.686 24.04V23.3838ZM185.134 19.4326V27H183.527V19.4326H185.134ZM184.341 16.5342C184.587 16.5342 184.799 16.6003 184.977 16.7324C185.159 16.8646 185.25 17.0924 185.25 17.416C185.25 17.735 185.159 17.9629 184.977 18.0996C184.799 18.2318 184.587 18.2979 184.341 18.2979C184.086 18.2979 183.869 18.2318 183.691 18.0996C183.518 17.9629 183.432 17.735 183.432 17.416C183.432 17.0924 183.518 16.8646 183.691 16.7324C183.869 16.6003 184.086 16.5342 184.341 16.5342ZM189.051 27H187.438V16.3633H189.051V27ZM194.314 19.2891C195.271 19.2891 195.994 19.501 196.481 19.9248C196.974 20.3486 197.22 21.0094 197.22 21.9072V27H196.078L195.771 25.9268H195.716C195.502 26.2002 195.281 26.4258 195.053 26.6035C194.825 26.7812 194.561 26.9134 194.26 27C193.964 27.0911 193.601 27.1367 193.173 27.1367C192.722 27.1367 192.318 27.0547 191.963 26.8906C191.607 26.722 191.327 26.4668 191.122 26.125C190.917 25.7832 190.814 25.3503 190.814 24.8262C190.814 24.0469 191.104 23.4613 191.683 23.0693C192.266 22.6774 193.146 22.4609 194.321 22.4199L195.634 22.3721V21.9756C195.634 21.4515 195.511 21.0778 195.265 20.8545C195.023 20.6312 194.681 20.5195 194.239 20.5195C193.861 20.5195 193.494 20.5742 193.139 20.6836C192.783 20.793 192.437 20.9274 192.1 21.0869L191.58 19.9521C191.949 19.7562 192.368 19.5967 192.838 19.4736C193.312 19.3506 193.804 19.2891 194.314 19.2891ZM195.627 23.3838L194.649 23.418C193.847 23.4453 193.285 23.582 192.961 23.8281C192.637 24.0742 192.476 24.4115 192.476 24.8398C192.476 25.2135 192.587 25.487 192.811 25.6602C193.034 25.8288 193.328 25.9131 193.692 25.9131C194.248 25.9131 194.709 25.7559 195.073 25.4414C195.442 25.1224 195.627 24.6553 195.627 24.04V23.3838ZM201.075 16.3633V18.9268C201.075 19.223 201.066 19.5146 201.048 19.8018C201.034 20.0843 201.021 20.3053 201.007 20.4648H201.075C201.28 20.1367 201.565 19.861 201.93 19.6377C202.299 19.4098 202.771 19.2959 203.345 19.2959C204.243 19.2959 204.965 19.6263 205.512 20.2871C206.059 20.9434 206.332 21.9163 206.332 23.2061C206.332 24.0628 206.207 24.7829 205.956 25.3662C205.705 25.9495 205.352 26.3916 204.896 26.6924C204.445 26.9886 203.914 27.1367 203.304 27.1367C202.729 27.1367 202.265 27.0319 201.909 26.8223C201.558 26.6081 201.283 26.3597 201.082 26.0771H200.966L200.672 27H199.469V16.3633H201.075ZM202.921 20.6016C202.465 20.6016 202.103 20.6927 201.834 20.875C201.57 21.0573 201.378 21.3307 201.26 21.6953C201.141 22.0553 201.08 22.5133 201.075 23.0693V23.2129C201.075 24.056 201.207 24.7008 201.472 25.1475C201.741 25.5941 202.228 25.8174 202.935 25.8174C203.495 25.8174 203.926 25.5918 204.227 25.1406C204.527 24.6849 204.678 24.0332 204.678 23.1855C204.678 22.3288 204.527 21.6839 204.227 21.251C203.93 20.818 203.495 20.6016 202.921 20.6016ZM209.805 27H208.191V16.3633H209.805V27ZM215.116 19.2891C215.791 19.2891 216.369 19.4281 216.853 19.7061C217.336 19.984 217.707 20.3783 217.967 20.8887C218.227 21.3991 218.356 22.0098 218.356 22.7207V23.582H213.305C213.323 24.3158 213.519 24.8809 213.893 25.2773C214.271 25.6738 214.799 25.8721 215.479 25.8721C215.962 25.8721 216.395 25.8265 216.777 25.7354C217.165 25.6396 217.563 25.5007 217.974 25.3184V26.624C217.595 26.8018 217.21 26.9316 216.818 27.0137C216.426 27.0957 215.957 27.1367 215.41 27.1367C214.667 27.1367 214.013 26.9932 213.448 26.7061C212.888 26.4144 212.448 25.9814 212.129 25.4072C211.814 24.833 211.657 24.1198 211.657 23.2676C211.657 22.4199 211.801 21.6999 212.088 21.1074C212.375 20.515 212.778 20.0638 213.298 19.7539C213.817 19.444 214.424 19.2891 215.116 19.2891ZM215.116 20.499C214.61 20.499 214.2 20.6631 213.886 20.9912C213.576 21.3193 213.394 21.8001 213.339 22.4336H216.784C216.78 22.0553 216.716 21.7204 216.593 21.4287C216.474 21.137 216.292 20.9092 216.046 20.7451C215.804 20.5811 215.494 20.499 215.116 20.499Z" fill="#043B73"/>
<path d="M246.485 21.7681C246.485 22.4793 246.399 23.1831 246.227 23.8794C246.062 24.5682 245.807 25.1934 245.463 25.7549C245.118 26.3089 244.684 26.7544 244.16 27.0913C243.644 27.4207 243.03 27.5854 242.318 27.5854C241.757 27.5854 241.259 27.4507 240.825 27.1812C240.398 26.9116 240.098 26.5635 239.926 26.1367H239.747C239.432 26.5186 239.02 26.8555 238.511 27.1475C238.002 27.4395 237.384 27.5854 236.658 27.5854C235.288 27.5854 234.232 27.1774 233.491 26.3613C232.75 25.5378 232.379 24.4596 232.379 23.127C232.379 22.0938 232.6 21.1841 233.042 20.3979C233.484 19.6043 234.113 18.9829 234.929 18.5337C235.745 18.0845 236.707 17.8599 237.815 17.8599C238.541 17.8599 239.286 17.9272 240.05 18.062C240.821 18.1893 241.424 18.3278 241.858 18.4775L241.633 23.1943C241.618 23.3516 241.607 23.5088 241.6 23.666C241.6 23.8232 241.6 23.9243 241.6 23.9692C241.6 24.6056 241.686 25.0286 241.858 25.2383C242.038 25.4404 242.236 25.5415 242.453 25.5415C242.798 25.5415 243.086 25.3693 243.318 25.0249C243.55 24.6805 243.726 24.2201 243.846 23.6436C243.965 23.0671 244.025 22.4344 244.025 21.7456C244.025 20.4653 243.763 19.376 243.239 18.4775C242.723 17.5716 242.011 16.8828 241.105 16.4111C240.207 15.932 239.185 15.6924 238.04 15.6924C236.834 15.6924 235.771 15.8833 234.85 16.2651C233.929 16.647 233.154 17.1823 232.525 17.8711C231.904 18.5599 231.432 19.3722 231.11 20.3081C230.796 21.244 230.639 22.266 230.639 23.374C230.639 24.7516 230.886 25.9196 231.38 26.8779C231.874 27.8363 232.6 28.5625 233.559 29.0566C234.524 29.5508 235.704 29.7979 237.096 29.7979C237.987 29.7979 238.912 29.7005 239.87 29.5059C240.836 29.3037 241.719 29.0529 242.521 28.7534V30.9209C241.787 31.2279 240.967 31.4712 240.061 31.6509C239.155 31.8381 238.197 31.9316 237.186 31.9316C235.284 31.9316 233.66 31.5947 232.312 30.9209C230.964 30.2471 229.931 29.2775 229.212 28.0122C228.501 26.7394 228.146 25.2158 228.146 23.4414C228.146 22.0488 228.374 20.7573 228.831 19.5669C229.295 18.369 229.957 17.3245 230.818 16.4336C231.679 15.5352 232.716 14.8351 233.929 14.3335C235.15 13.8319 236.512 13.5811 238.017 13.5811C239.657 13.5811 241.113 13.9142 242.386 14.5806C243.666 15.2394 244.669 16.179 245.396 17.3994C246.122 18.6198 246.485 20.076 246.485 21.7681ZM234.985 23.1719C234.985 24.0104 235.157 24.6169 235.501 24.9912C235.853 25.3581 236.325 25.5415 236.917 25.5415C237.688 25.5415 238.23 25.2607 238.545 24.6992C238.859 24.1377 239.043 23.404 239.095 22.498L239.241 20.0161C239.069 19.9787 238.874 19.9525 238.657 19.9375C238.44 19.915 238.204 19.9038 237.95 19.9038C237.223 19.9038 236.643 20.0648 236.209 20.3867C235.775 20.7012 235.46 21.1092 235.266 21.6108C235.078 22.105 234.985 22.6253 234.985 23.1719ZM250.191 30L256.356 16.501H248.259V13.5811H260.04V15.7598L253.83 30H250.191ZM262.118 28.394C262.118 27.6903 262.309 27.1961 262.69 26.9116C263.08 26.6271 263.548 26.4849 264.094 26.4849C264.626 26.4849 265.083 26.6271 265.464 26.9116C265.854 27.1961 266.048 27.6903 266.048 28.394C266.048 29.0679 265.854 29.5545 265.464 29.854C265.083 30.1535 264.626 30.3032 264.094 30.3032C263.548 30.3032 263.08 30.1535 262.69 29.854C262.309 29.5545 262.118 29.0679 262.118 28.394ZM279.693 20.5889C279.693 21.5322 279.622 22.4681 279.48 23.3965C279.345 24.3249 279.106 25.2008 278.761 26.0244C278.417 26.8405 277.934 27.5667 277.312 28.2031C276.691 28.832 275.901 29.3262 274.943 29.6855C273.985 30.0449 272.824 30.2246 271.461 30.2246C271.139 30.2246 270.761 30.2096 270.327 30.1797C269.893 30.1572 269.534 30.1198 269.249 30.0674V27.2822C269.549 27.3571 269.867 27.417 270.204 27.4619C270.541 27.4993 270.881 27.5181 271.226 27.5181C272.596 27.5181 273.651 27.3009 274.393 26.8667C275.141 26.4325 275.665 25.8298 275.965 25.0586C276.272 24.2874 276.448 23.3965 276.493 22.3857H276.358C276.141 22.7451 275.882 23.0708 275.583 23.3628C275.291 23.6473 274.917 23.8757 274.46 24.0479C274.003 24.2126 273.423 24.2949 272.719 24.2949C271.783 24.2949 270.967 24.0928 270.271 23.6885C269.582 23.2767 269.047 22.6852 268.665 21.9141C268.291 21.1354 268.104 20.1958 268.104 19.0952C268.104 17.9048 268.328 16.8866 268.777 16.0405C269.234 15.187 269.882 14.5319 270.72 14.0752C271.559 13.6185 272.547 13.3901 273.685 13.3901C274.524 13.3901 275.306 13.5361 276.032 13.8281C276.758 14.1126 277.395 14.5506 277.941 15.1421C278.495 15.7336 278.926 16.4823 279.233 17.3882C279.54 18.2941 279.693 19.361 279.693 20.5889ZM273.752 16.1753C273.079 16.1753 272.528 16.4074 272.102 16.8716C271.675 17.3358 271.461 18.062 271.461 19.0503C271.461 19.8439 271.645 20.4728 272.012 20.937C272.379 21.4012 272.936 21.6333 273.685 21.6333C274.202 21.6333 274.651 21.521 275.033 21.2964C275.415 21.0643 275.71 20.776 275.92 20.4316C276.137 20.0798 276.246 19.7204 276.246 19.3535C276.246 18.9717 276.193 18.5936 276.088 18.2192C275.984 17.8449 275.826 17.5042 275.617 17.1973C275.407 16.8903 275.145 16.6432 274.831 16.4561C274.524 16.2689 274.164 16.1753 273.752 16.1753ZM292.855 20.5889C292.855 21.5322 292.784 22.4681 292.642 23.3965C292.507 24.3249 292.268 25.2008 291.923 26.0244C291.579 26.8405 291.096 27.5667 290.475 28.2031C289.853 28.832 289.063 29.3262 288.105 29.6855C287.147 30.0449 285.986 30.2246 284.624 30.2246C284.302 30.2246 283.924 30.2096 283.489 30.1797C283.055 30.1572 282.696 30.1198 282.411 30.0674V27.2822C282.711 27.3571 283.029 27.417 283.366 27.4619C283.703 27.4993 284.043 27.5181 284.388 27.5181C285.758 27.5181 286.813 27.3009 287.555 26.8667C288.303 26.4325 288.827 25.8298 289.127 25.0586C289.434 24.2874 289.61 23.3965 289.655 22.3857H289.52C289.303 22.7451 289.045 23.0708 288.745 23.3628C288.453 23.6473 288.079 23.8757 287.622 24.0479C287.165 24.2126 286.585 24.2949 285.881 24.2949C284.945 24.2949 284.129 24.0928 283.433 23.6885C282.744 23.2767 282.209 22.6852 281.827 21.9141C281.453 21.1354 281.266 20.1958 281.266 19.0952C281.266 17.9048 281.49 16.8866 281.939 16.0405C282.396 15.187 283.044 14.5319 283.882 14.0752C284.721 13.6185 285.709 13.3901 286.847 13.3901C287.686 13.3901 288.468 13.5361 289.194 13.8281C289.921 14.1126 290.557 14.5506 291.104 15.1421C291.658 15.7336 292.088 16.4823 292.395 17.3882C292.702 18.2941 292.855 19.361 292.855 20.5889ZM286.915 16.1753C286.241 16.1753 285.69 16.4074 285.264 16.8716C284.837 17.3358 284.624 18.062 284.624 19.0503C284.624 19.8439 284.807 20.4728 285.174 20.937C285.541 21.4012 286.098 21.6333 286.847 21.6333C287.364 21.6333 287.813 21.521 288.195 21.2964C288.577 21.0643 288.872 20.776 289.082 20.4316C289.299 20.0798 289.408 19.7204 289.408 19.3535C289.408 18.9717 289.355 18.5936 289.25 18.2192C289.146 17.8449 288.988 17.5042 288.779 17.1973C288.569 16.8903 288.307 16.6432 287.993 16.4561C287.686 16.2689 287.326 16.1753 286.915 16.1753ZM298.269 13.3452C299.556 13.3452 300.533 13.7944 301.2 14.6929C301.866 15.5913 302.199 16.8529 302.199 18.4775C302.199 20.1022 301.885 21.3713 301.256 22.2847C300.627 23.1981 299.631 23.6548 298.269 23.6548C297.003 23.6548 296.041 23.1981 295.382 22.2847C294.723 21.3713 294.394 20.1022 294.394 18.4775C294.394 16.8529 294.701 15.5913 295.315 14.6929C295.936 13.7944 296.921 13.3452 298.269 13.3452ZM298.291 15.6924C297.924 15.6924 297.655 15.9245 297.482 16.3887C297.31 16.8529 297.224 17.5566 297.224 18.5C297.224 19.4434 297.31 20.1509 297.482 20.6226C297.655 21.0942 297.924 21.3301 298.291 21.3301C298.658 21.3301 298.927 21.098 299.1 20.6338C299.279 20.1621 299.369 19.4508 299.369 18.5C299.369 17.5566 299.279 16.8529 299.1 16.3887C298.927 15.9245 298.658 15.6924 298.291 15.6924ZM309.926 13.5811L300.818 30H298.123L307.23 13.5811H309.926ZM309.769 19.9038C311.056 19.9038 312.033 20.353 312.7 21.2515C313.366 22.1499 313.699 23.4115 313.699 25.0361C313.699 26.6533 313.385 27.9186 312.756 28.832C312.127 29.7454 311.131 30.2021 309.769 30.2021C308.503 30.2021 307.541 29.7454 306.882 28.832C306.223 27.9186 305.894 26.6533 305.894 25.0361C305.894 23.4115 306.201 22.1499 306.815 21.2515C307.436 20.353 308.421 19.9038 309.769 19.9038ZM309.791 22.251C309.424 22.251 309.155 22.4831 308.982 22.9473C308.81 23.4115 308.724 24.1152 308.724 25.0586C308.724 26.002 308.81 26.7095 308.982 27.1812C309.155 27.6528 309.424 27.8887 309.791 27.8887C310.158 27.8887 310.427 27.6566 310.6 27.1924C310.779 26.7207 310.869 26.0094 310.869 25.0586C310.869 24.1152 310.779 23.4115 310.6 22.9473C310.427 22.4831 310.158 22.251 309.791 22.251Z" fill="#F5821F"/>
<defs>
<linearGradient id="paint0_linear_1054_563" x1="82" y1="44" x2="392" y2="44" gradientUnits="userSpaceOnUse">
<stop stop-color="#FFDDBF"/>
<stop offset="1" stop-color="white" stop-opacity="0"/>
</linearGradient>
<radialGradient id="paint1_radial_1054_563" cx="0" cy="0" r="1" gradientUnits="userSpaceOnUse" gradientTransform="translate(65.3642 133.588) rotate(180) scale(301.516 304.612)">
<stop stop-color="#FFF8FF" stop-opacity="0"/>
<stop offset="0.05" stop-color="#FFF1EA" stop-opacity="0.08"/>
<stop offset="0.19" stop-color="#FFDCAD" stop-opacity="0.31"/>
<stop offset="0.34" stop-color="#FFCA78" stop-opacity="0.5"/>
<stop offset="0.49" stop-color="#FFBC4D" stop-opacity="0.66"/>
<stop offset="0.63" stop-color="#FFB12B" stop-opacity="0.79"/>
<stop offset="0.76" stop-color="#FFA913" stop-opacity="0.88"/>
<stop offset="0.89" stop-color="#FFA405" stop-opacity="0.93"/>
<stop offset="1" stop-color="#FFA200" stop-opacity="0.95"/>
</radialGradient>
<clipPath id="clip0_1054_563">
<rect width="228" height="44" fill="white"/>
</clipPath>
</defs>
</svg>
