<svg width="16" height="16" viewBox="0 0 16 16" fill="none" xmlns="http://www.w3.org/2000/svg">
<path d="M16 8C16 12.4183 12.4183 16 8 16C3.58172 16 0 12.4183 0 8C0 3.58172 3.58172 0 8 0C12.4183 0 16 3.58172 16 8Z" fill="#FEF3E9"/>
<rect x="2.7" y="10.9881" width="3.09144" height="1.5119" stroke="#F58220" stroke-width="0.6"/>
<rect x="5.61504" y="10.9881" width="3.09144" height="1.5119" stroke="#F58220" stroke-width="0.6"/>
<rect x="8.52959" y="10.9881" width="3.09144" height="1.5119" stroke="#F58220" stroke-width="0.6"/>
<rect x="5.63115" y="9.52031" width="3.09144" height="1.5119" stroke="#F58220" stroke-width="0.6"/>
<rect x="8.5457" y="9.52031" width="3.09144" height="1.5119" stroke="#F58220" stroke-width="0.6"/>
<rect x="8.52959" y="8.05645" width="3.09144" height="1.5119" stroke="#F58220" stroke-width="0.6"/>
<path d="M7.73416 5.68041L7.92562 5.78425C6.77112 7.39467 4.85165 7.96895 4.00586 8.04916L3.73418 8.07492V8.34782V8.83633V9.11555L4.01268 9.13556C7.23404 9.367 9.15301 7.73995 9.86491 6.66305L10.2928 6.87441L10.8094 7.12961L10.7222 6.56002L10.3232 3.95459L10.2524 3.49194L9.86158 3.74951L7.7121 5.16622L7.29409 5.44173L7.73416 5.68041Z" stroke="#F58220" stroke-width="0.6"/>
</svg>
