<svg width="26" height="26" viewBox="0 0 26 26" fill="none" xmlns="http://www.w3.org/2000/svg">
<path d="M25.67 13.835C25.67 20.3713 20.3713 25.67 13.835 25.67C7.29871 25.67 2 20.3713 2 13.835C2 7.29871 7.29871 2 13.835 2C20.3713 2 25.67 7.29871 25.67 13.835Z" fill="#043B73"/>
<path fill-rule="evenodd" clip-rule="evenodd" d="M9.23166 7.51067C10.1974 7.03805 11.7817 6.47925 13.5155 6.47925C15.2132 6.47925 16.7558 7.01483 17.7164 7.48115L17.7707 7.50752C18.0603 7.65076 18.2941 7.78613 18.4586 7.89593L17.0049 10.0209C20.3561 13.4469 22.9447 20.6449 13.5155 20.6449C4.08636 20.6449 6.6053 13.5776 9.98565 10.0209L8.54142 7.89593C8.65279 7.82312 8.79406 7.73852 8.96249 7.64879C9.04592 7.60393 9.13564 7.55789 9.23166 7.51106V7.51067ZM16.0707 9.99261L17.2343 8.29142C16.1521 8.36933 14.8645 8.62355 13.6249 8.98244C12.7395 9.23823 11.7557 9.19927 10.8447 9.03124C10.6151 8.98868 10.3871 8.93801 10.1612 8.87934L10.9167 9.99182C12.5361 10.5683 14.4509 10.5683 16.0707 9.99261V9.99261ZM10.4622 10.6624C12.357 11.3943 14.6343 11.3943 16.5291 10.6616C17.3201 11.4953 17.9817 12.4428 18.492 13.4725C19.0241 14.5579 19.3137 15.6428 19.2665 16.5778C19.2208 17.4801 18.8659 18.2511 18.0552 18.824C17.2103 19.421 15.7893 19.8578 13.5151 19.8578C11.2386 19.8578 9.81092 19.4285 8.95816 18.8382C8.14161 18.2723 7.78311 17.512 7.73234 16.6219C7.67922 15.6971 7.96255 14.6177 8.49263 13.5249C8.9983 12.4828 9.70389 11.4797 10.4622 10.6624V10.6624ZM10.0097 8.02028C10.3245 8.11394 10.6535 8.1954 10.9872 8.25718C11.8332 8.41301 12.6817 8.43584 13.4057 8.22609C14.2495 7.98028 15.1077 7.78695 15.9754 7.64722C15.2514 7.42921 14.4045 7.26629 13.5151 7.26629C12.1595 7.26629 10.8951 7.64447 10.0097 8.02028V8.02028Z" fill="white"/>
<path d="M13.6549 18.5208L11.6701 16.4548V15.8645H12.7031C12.9638 15.8645 13.1889 15.7796 13.3784 15.6098C13.5677 15.4402 13.682 15.23 13.7214 14.9791H11.375V14.3888H13.6328C13.5492 14.2166 13.425 14.0752 13.2603 13.9644C13.0955 13.8538 12.9097 13.7985 12.7031 13.7985H11.375V13.2083H14.9167V13.7985H13.9575C14.0263 13.8822 14.0878 13.9732 14.1419 14.0715C14.196 14.1699 14.2378 14.2757 14.2674 14.3888H14.9167V14.9791H14.319C14.2797 15.3972 14.1075 15.7476 13.8025 16.0304C13.4975 16.3133 13.1311 16.4548 12.7031 16.4548H12.4891L14.474 18.5208H13.6549Z" fill="white"/>
</svg>
