<svg width="20" height="19" viewBox="0 0 20 19" fill="none" xmlns="http://www.w3.org/2000/svg">
<path d="M14.0933 18.2682C12.3125 18.0425 11.2591 16.5627 12.1244 14.8447C12.8643 13.3774 13.717 11.9729 14.5196 10.5433C14.8582 9.92884 15.0589 10.4179 15.1843 10.6687C15.6608 11.5967 16.501 11.9604 17.429 12.1986C17.6923 12.2739 17.9557 12.2614 18.2316 12.1986C18.6203 12.1234 18.6956 12.3491 18.5451 12.6376C17.73 14.1424 16.9274 15.6347 16.0746 17.1145C15.6483 17.8418 14.9084 18.1428 14.0933 18.2682Z" fill="#BE9154"/>
<path d="M8.63872 18.1776C7.84868 18.1776 7.05863 18.1902 6.25605 18.1776C5.29044 18.1651 4.55056 17.5882 4.14926 16.5348C3.911 15.9078 4.19943 14.729 4.77628 14.2525C5.24028 13.8637 5.8046 13.638 6.41908 13.638C7.96155 13.6255 9.50401 13.638 11.0465 13.6505C11.6986 13.6505 11.7613 13.7383 11.4603 14.3403C10.8584 15.5191 10.9211 16.6602 11.5983 17.7763C11.824 18.1525 11.6735 18.1902 11.3349 18.1902C10.432 18.1651 9.52909 18.1776 8.63872 18.1776Z" fill="#BE9154"/>
<path d="M8.50086 2.41598C8.6388 2.96775 8.28767 3.50699 7.99924 3.97098C7.28444 5.14978 6.64488 6.3662 5.98024 7.57008C5.87992 7.74564 5.80468 7.98391 5.55387 7.97137C5.35322 7.95883 5.27798 7.75818 5.17766 7.59516C4.51301 6.50415 3.53487 6.00253 2.26829 6.05269C2.10526 6.06523 1.9297 6.12793 1.82937 5.93983C1.74159 5.78934 1.84191 5.66394 1.90462 5.53853C2.69466 4.12147 3.44708 2.67932 4.26221 1.28734C5.08987 -0.142265 6.69505 -0.355452 7.924 0.748103C8.21243 0.98637 8.5134 1.81404 8.50086 2.41598Z" fill="#BE9154"/>
<path d="M0.274414 9.26081C0.399818 8.09455 0.85127 7.34213 1.86704 7.00354C2.87027 6.66495 3.94875 7.02862 4.47545 7.94407C5.31565 9.37367 6.11824 10.8409 6.90828 12.2956C7.08385 12.6216 7.04623 12.9226 6.55715 12.9101C5.16517 12.885 4.09923 13.4117 3.48475 14.7159C3.33427 15.0294 3.10854 14.9291 2.9706 14.6657C2.10531 13.0104 1.24002 11.3425 0.374736 9.67464C0.299493 9.5367 0.299495 9.36113 0.274414 9.26081Z" fill="#BE9154"/>
<path d="M17.4795 11.4074C16.9026 11.307 16.2004 11.0061 15.7991 10.2787C15.009 8.86165 14.2441 7.4195 13.4666 6.00244C13.2534 5.60115 13.3412 5.43812 13.8051 5.43812C15.1721 5.41304 16.2004 4.79856 16.8399 3.58214C17.0657 3.16831 17.1785 3.4442 17.2914 3.64485C17.9059 4.73586 18.5078 5.82688 19.1223 6.91789C19.348 7.31918 19.5988 7.70793 19.7869 8.12177C20.5017 9.63915 19.3355 11.445 17.4795 11.4074Z" fill="#BE9154"/>
<path d="M11.6488 0.0680053C12.4263 0.0680053 13.1912 0.0554649 13.9687 0.0680053C15.3106 0.0930861 16.3013 1.0587 16.2887 2.32528C16.2762 3.6671 15.3106 4.63271 13.9186 4.58255C12.3761 4.51985 10.8336 4.57001 9.30372 4.53239C8.86481 4.51984 8.62654 4.51985 8.91497 3.95553C9.50437 2.83943 9.55453 1.68572 8.85226 0.569621C8.614 0.180869 8.72686 0.0429238 9.15323 0.0554642C9.9809 0.0680046 10.8211 0.0680053 11.6488 0.0680053Z" fill="#BE9154"/>
</svg>
