<svg width="122" height="34" viewBox="0 0 122 34" fill="none" xmlns="http://www.w3.org/2000/svg">
    <rect y=".56" width="31.927" height="31.927" rx="2" fill="#F6821F"/>
    <path d="M48.4 14h-2.5l-4.037-7.02h-.057c.017.291.031.586.044.882a615703.519 615703.519 0 0 1 .076 1.77V14h-1.758V4.72h2.482l4.03 6.95h.045a56.265 56.265 0 0 0-.032-.857l-.038-.85-.025-.85V4.72h1.77V14zm5.117-7.23c.656 0 1.221.127 1.695.38.474.25.84.614 1.098 1.093.258.478.387 1.062.387 1.752v.94h-4.576c.02.545.184.974.488 1.288.31.309.737.463 1.283.463.452 0 .867-.046 1.244-.14a6.33 6.33 0 0 0 1.161-.419v1.498c-.35.174-.719.3-1.104.381-.381.08-.844.121-1.39.121-.711 0-1.342-.131-1.892-.394a2.938 2.938 0 0 1-1.288-1.2c-.31-.537-.464-1.214-.464-2.03 0-.83.14-1.52.42-2.07.283-.554.676-.969 1.18-1.244.503-.28 1.09-.419 1.758-.419zm.013 1.377c-.377 0-.69.121-.94.362-.245.241-.387.62-.425 1.137h2.717a1.912 1.912 0 0 0-.159-.769 1.192 1.192 0 0 0-.444-.533c-.195-.13-.445-.197-.75-.197zm7.731 4.438c.212 0 .417-.022.616-.064.203-.042.404-.095.603-.159v1.441c-.207.093-.465.17-.774.229a4.922 4.922 0 0 1-1.003.095c-.424 0-.804-.068-1.143-.203a1.625 1.625 0 0 1-.793-.717c-.19-.343-.286-.82-.286-1.429V8.357h-.927v-.819l1.067-.647.558-1.498h1.238v1.51h1.987v1.454h-1.987v3.421c0 .271.076.474.228.61.157.13.362.197.616.197zM40.367 19.006h2.83c1.249 0 2.188.187 2.817.56.629.374.943 1.01.943 1.908 0 .387-.075.736-.226 1.046-.145.305-.36.558-.642.758-.283.2-.631.34-1.046.417v.069c.438.068.825.193 1.162.376.337.182.602.437.793.765.192.328.287.745.287 1.251 0 .616-.143 1.135-.43 1.559-.283.424-.684.745-1.204.964-.52.214-1.134.321-1.845.321h-3.439v-9.994zm1.162 4.286h1.914c.87 0 1.472-.144 1.805-.43.337-.288.506-.707.506-1.258 0-.57-.2-.98-.602-1.231-.396-.25-1.03-.376-1.9-.376h-1.723v3.295zm0 .977v3.74h2.078c.89 0 1.518-.173 1.887-.52.37-.35.554-.822.554-1.415 0-.378-.084-.702-.253-.97-.164-.27-.433-.474-.807-.616-.369-.146-.863-.218-1.483-.218h-1.976zM55.686 29l-1.23-3.172H50.45L49.227 29H48.05l3.91-10.035h1.046L56.89 29h-1.203zm-1.579-4.204-1.169-3.151a72.75 72.75 0 0 0-.136-.404l-.185-.58c-.064-.201-.116-.363-.157-.486-.046.187-.096.373-.15.56a15.099 15.099 0 0 1-.28.91l-1.19 3.15h3.267zM66.091 29h-1.34l-5.448-8.395h-.055l.048.766c.018.283.032.586.04.91.015.318.021.644.021.977V29h-1.08v-9.994h1.333l5.428 8.367h.048c-.01-.16-.02-.385-.034-.677-.014-.296-.028-.613-.041-.95-.01-.342-.014-.658-.014-.95v-5.79h1.094V29zm9.932 0H74.65l-3.602-4.86-1.066.957V29h-1.163v-9.994h1.163v4.983c.26-.296.526-.59.8-.882.273-.296.544-.594.813-.895l2.919-3.206h1.36l-3.979 4.334 4.13 5.66zm1.368 0v-9.994h1.162V29H77.39zm11.723 0h-1.34l-5.448-8.395h-.054l.047.766c.019.283.032.586.041.91.014.318.02.644.02.977V29H81.3v-9.994h1.334l5.427 8.367h.048l-.034-.677c-.014-.296-.027-.613-.04-.95a35.88 35.88 0 0 1-.014-.95v-5.79h1.093V29zm7-5.236h3.493v4.846a9.67 9.67 0 0 1-1.62.397c-.551.086-1.169.13-1.852.13-1.04 0-1.917-.208-2.632-.622a4.017 4.017 0 0 1-1.62-1.77c-.37-.771-.554-1.685-.554-2.742 0-1.035.203-1.937.609-2.707.41-.77 1-1.367 1.77-1.791.775-.428 1.704-.643 2.79-.643.555 0 1.081.053 1.578.158.502.1.966.243 1.395.43l-.445 1.012a8.188 8.188 0 0 0-1.223-.41 5.48 5.48 0 0 0-1.374-.171c-.816 0-1.516.168-2.099.506a3.368 3.368 0 0 0-1.333 1.428c-.305.616-.458 1.345-.458 2.188 0 .834.135 1.56.403 2.18A3.064 3.064 0 0 0 94.2 27.62c.57.342 1.304.513 2.201.513.452 0 .839-.025 1.163-.075.323-.055.617-.119.881-.192v-3.062h-2.33v-1.04z" fill="#043B73"/>
    <path d="M22.274 10.376V8.111H9.815v2.265h3.964c1.475 0 2.72.95 3.189 2.265H9.815v2.265h7.153a3.391 3.391 0 0 1-3.189 2.265H9.815v2.734l6.327 6.327h3.203l-6.796-6.796h1.23a5.67 5.67 0 0 0 5.548-4.53h2.947v-2.265h-2.947a5.587 5.587 0 0 0-1.047-2.265h3.994z" fill="#fff"/>
</svg>
