<svg width="203" height="117" viewBox="0 0 203 117" fill="none" xmlns="http://www.w3.org/2000/svg">
<path opacity="0.1" d="M0.615487 58.1076C-3.79897 24.9929 16.4836 16.9753 31.0953 14.6476C81.1012 2.43802 118.898 -8.89916 155.872 10.2539C183.507 24.5693 230.107 55.8211 182.542 93.755C135.393 131.357 9.66418 125.986 0.615487 58.1076Z" fill="#F27205"/>
<path opacity="0.2" d="M153.885 81.5127C149.705 79.3773 134.876 92.0623 127.984 98.6717H162.974H166.357C162.974 89.006 159.111 84.1818 153.885 81.5127Z" fill="#D59E6F"/>
<path d="M138.035 18.0753C136.955 19.8261 136.686 21.9054 139.385 23.9571H154.985C155.885 23.7292 157.595 22.8355 157.235 21.0846C156.875 19.3338 154.585 19.0784 153.485 19.1696C153.335 17.8017 152.735 14.9293 148.985 14.1086C145.985 13.452 143.435 15.9323 142.535 17.2545C141.485 16.7986 139.115 16.3244 138.035 18.0753Z" fill="white"/>
<path d="M60.6858 36.9812C59.8493 37.8845 60.4612 38.9571 62.5525 40.0155L67.7905 41.2583H71.1284L73.8152 40.0155C74.5123 39.8979 75.8369 39.4369 75.558 38.5337C75.2792 37.6305 73.5054 37.4987 72.6533 37.5458C72.5371 36.8401 72.0724 35.3583 69.1676 34.9349C66.8439 34.5962 64.8686 35.8757 64.1715 36.5578C63.3582 36.3226 61.5224 36.078 60.6858 36.9812Z" fill="white"/>
<path d="M48.3879 36.9233C47.8266 37.5528 48.2372 38.3004 49.6402 39.0381L53.1543 39.9042H55.3936L57.1962 39.0381C57.6639 38.9561 58.5525 38.6348 58.3654 38.0053C58.1783 37.3758 56.9883 37.2839 56.4167 37.3167C56.3387 36.8249 56.0269 35.7922 54.0782 35.4971C52.5192 35.261 51.1941 36.1528 50.7264 36.6282C50.1807 36.4642 48.9491 36.2937 48.3879 36.9233Z" fill="white"/>
<path d="M37.1391 37.9816C36.6626 37.6532 37.0112 37.2631 38.2024 36.8782L41.186 36.4263H43.0874L44.6178 36.8782C45.0149 36.921 45.7694 37.0886 45.6106 37.4171C45.4518 37.7455 44.4413 37.7934 43.956 37.7763C43.8898 38.0329 43.6251 38.5718 41.9705 38.7257C40.6468 38.8489 39.5217 38.3836 39.1246 38.1356C38.6613 38.2211 37.6156 38.3101 37.1391 37.9816Z" fill="white"/>
<path d="M130.778 60.9043C130.136 61.9402 129.976 63.1704 131.579 64.3844H140.84C141.374 64.2495 142.389 63.7208 142.175 62.6849C141.962 61.6489 140.602 61.4979 139.949 61.5518C139.86 60.7425 139.504 59.043 137.278 58.5574C135.497 58.169 133.983 59.6364 133.449 60.4187C132.826 60.149 131.419 59.8684 130.778 60.9043Z" fill="white"/>
<path d="M71.8373 67.3003C70.8756 68.8542 70.6353 70.6995 73.0394 72.5204H86.9304C87.7318 72.3181 89.2544 71.525 88.9339 69.9711C88.6133 68.4172 86.5742 68.1906 85.5947 68.2716C85.4611 67.0576 84.9269 64.5084 81.5877 63.78C78.9164 63.1973 76.6457 65.3985 75.8443 66.5719C74.9093 66.1673 72.799 65.7464 71.8373 67.3003Z" fill="white"/>
<path d="M115.992 81.8347C111.116 88.801 100.175 95.5907 95.314 98.1148L152.342 99.2513V95.8431C138.629 78.8058 122.086 73.1267 115.992 81.8347Z" fill="#C77C67" fill-opacity="0.2"/>
<rect x="35" y="97.3203" width="133" height="5.99273" rx="2.99637" fill="#FBE9D9"/>
<rect x="43.7993" y="97.3364" width="1.30572" height="3.98285" fill="#F58220"/>
<mask id="mask0_1713_2689" style="mask-type:alpha" maskUnits="userSpaceOnUse" x="39" y="80" width="11" height="19">
<ellipse cx="44.452" cy="89.1724" rx="8.96142" ry="5.00528" transform="rotate(90 44.452 89.1724)" fill="#C4C4C4"/>
</mask>
<g mask="url(#mask0_1713_2689)">
<rect x="44.6702" y="79.0151" width="5.65814" height="19.9143" fill="#D2813C"/>
<rect width="5.65814" height="19.9143" transform="matrix(-1 0 0 1 44.6702 79.0151)" fill="#DC995F"/>
</g>
<rect x="54.4001" y="96.3945" width="0.960816" height="2.93078" fill="#F58220"/>
<mask id="mask1_1713_2689" style="mask-type:alpha" maskUnits="userSpaceOnUse" x="51" y="83" width="8" height="14">
<ellipse cx="54.8813" cy="90.3911" rx="6.59425" ry="3.68313" transform="rotate(90 54.8813 90.3911)" fill="#C4C4C4"/>
</mask>
<g mask="url(#mask1_1713_2689)">
<rect x="55.0415" y="82.9175" width="4.16354" height="14.6539" fill="#D2813C"/>
<rect width="4.16354" height="14.6539" transform="matrix(-1 0 0 1 55.0415 82.9175)" fill="#DC995F"/>
</g>
<rect x="156.625" y="96.8477" width="0.812998" height="2.47989" fill="#F58220"/>
<mask id="mask2_1713_2689" style="mask-type:alpha" maskUnits="userSpaceOnUse" x="153" y="86" width="8" height="12">
<ellipse cx="157.031" cy="91.7599" rx="5.57975" ry="3.11649" transform="rotate(90 157.031 91.7599)" fill="#C4C4C4"/>
</mask>
<g mask="url(#mask2_1713_2689)">
<rect x="157.167" y="85.437" width="3.52299" height="12.3995" fill="#D2813C"/>
<rect width="3.52299" height="12.3995" transform="matrix(-1 0 0 1 157.167 85.437)" fill="#DC995F"/>
</g>
<rect x="146.546" y="96.5786" width="0.812998" height="2.47989" fill="#F58220"/>
<mask id="mask3_1713_2689" style="mask-type:alpha" maskUnits="userSpaceOnUse" x="143" y="85" width="8" height="13">
<ellipse cx="146.952" cy="91.4938" rx="5.57975" ry="3.11649" transform="rotate(90 146.952 91.4938)" fill="#C4C4C4"/>
</mask>
<g mask="url(#mask3_1713_2689)">
<rect x="147.088" y="85.1709" width="3.52299" height="12.3995" fill="#D2813C"/>
<rect width="3.52299" height="12.3995" transform="matrix(-1 0 0 1 147.088 85.1709)" fill="#DC995F"/>
</g>
<path d="M99.5095 54.3244V49.0019L119.095 45.9604L117.38 54.3244H99.5095Z" fill="#F7CCA8"/>
<path fill-rule="evenodd" clip-rule="evenodd" d="M130.843 37.5977H71.6577C71.916 30.9802 85.0661 25.6484 101.25 25.6484C117.434 25.6484 130.585 30.9802 130.843 37.5977Z" fill="#F7CCA8"/>
<path fill-rule="evenodd" clip-rule="evenodd" d="M130.839 37.5967H71.6543C71.9126 44.2141 85.0627 49.5459 101.247 49.5459C117.431 49.5459 130.581 44.2141 130.839 37.5967Z" fill="#FFA151"/>
<path d="M80.2731 24.0542H71.2192L74.812 32.4182H86.4527L80.2731 24.0542Z" fill="#FFA151"/>
<path d="M70.3484 51.5354L73.8385 41.9766H85.1466L78.8643 51.5354H70.3484Z" fill="#F7CCA8"/>
</svg>
