<svg width="70" height="32" viewBox="0 0 70 32" fill="none" xmlns="http://www.w3.org/2000/svg">
    <path fill="#fff" d="M9 6h52v18H9z"/>
    <path d="m69.714 28.98-8.011-13.24 7.93-12.7a1.968 1.968 0 0 0 .038-2.016 2.022 2.022 0 0 0-.747-.747A2.078 2.078 0 0 0 67.895 0H4.088a4.133 4.133 0 0 0-2.89 1.172A3.957 3.957 0 0 0 0 4v24c0 1.06.43 2.078 1.197 2.828A4.133 4.133 0 0 0 4.087 32h63.87c.36 0 .715-.094 1.027-.271.311-.177.57-.432.748-.74a1.966 1.966 0 0 0-.018-2.009zM21.48 22.36h-2.289l-6.662-8.68v8.7h-2.31V10h2.31l6.683 8.7V10H21.5l-.02 12.36zM34.418 12h-7.215v2.98h6.54v2h-6.54v3.22h7.215v2h-9.524V10h9.503l.02 2zM51.36 22.32h-2.31l-3.168-9.18-3.168 9.22h-2.289L36.34 10h2.493l2.698 8.86L44.637 10h2.493l2.984 8.86L52.832 10h2.514l-3.985 12.32z" fill="#F6821F"/>
</svg>
