<svg width="32" height="32" viewBox="0 0 32 32" fill="none" xmlns="http://www.w3.org/2000/svg">
<path d="M31.5937 17.0276C31.5937 25.0722 25.0722 31.5937 17.0276 31.5937C8.98291 31.5937 2.46143 25.0722 2.46143 17.0276C2.46143 8.98291 8.98291 2.46143 17.0276 2.46143C25.0722 2.46143 31.5937 8.98291 31.5937 17.0276Z" fill="#043B73"/>
<path d="M12.6055 10C11.713 10 10.918 10.602 10.6617 11.4875L9.73212 14.7033L8.42188 14.2441L8 15.5559L9.33053 16.0158L8.90798 17.5033C8.89177 17.5675 8.88471 17.6337 8.88702 17.7V23.3C8.88702 23.685 9.19126 24 9.5631 24H11.5913L11.8239 23.3H22.1761L22.4087 24H24.4369C24.8087 24 25.113 23.685 25.113 23.3V22.7092C25.1157 22.6742 25.1157 22.6357 25.113 22.6V17.7C25.1153 17.6337 25.1082 17.5675 25.092 17.5033L24.6695 16.0158L26 15.5566L25.5774 14.2434L24.2679 14.7033L23.3383 11.4875C23.2116 11.0563 22.9542 10.6787 22.6041 10.4108C22.254 10.1429 21.8299 9.99885 21.3945 10H12.6055ZM12.6055 11.4H21.3945C21.6954 11.4 21.9624 11.6051 22.0497 11.9033L22.9157 14.9H11.0843L11.9503 11.9033C12.0382 11.6023 12.3046 11.4 12.6055 11.4ZM10.6827 16.3H23.3173L23.7608 17.8316V21.9H10.2392V17.8309L10.6827 16.3ZM11.9294 17C11.6604 17 11.4025 17.1106 11.2123 17.3075C11.0221 17.5045 10.9153 17.7715 10.9153 18.05C10.9153 18.3285 11.0221 18.5956 11.2123 18.7925C11.4025 18.9894 11.6604 19.1 11.9294 19.1C12.1983 19.1 12.4563 18.9894 12.6465 18.7925C12.8367 18.5956 12.9435 18.3285 12.9435 18.05C12.9435 17.7715 12.8367 17.5045 12.6465 17.3075C12.4563 17.1106 12.1983 17 11.9294 17ZM22.0706 17C21.8017 17 21.5437 17.1106 21.3535 17.3075C21.1633 17.5045 21.0565 17.7715 21.0565 18.05C21.0565 18.3285 21.1633 18.5956 21.3535 18.7925C21.5437 18.9894 21.8017 19.1 22.0706 19.1C22.3396 19.1 22.5975 18.9894 22.7877 18.7925C22.9779 18.5956 23.0847 18.3285 23.0847 18.05C23.0847 17.7715 22.9779 17.5045 22.7877 17.3075C22.5975 17.1106 22.3396 17 22.0706 17ZM14.2957 19.1L13.4506 21.2H14.9082L15.2043 20.5H18.7957L19.0918 21.2H20.5494L19.7043 19.1H14.2957Z" fill="white"/>
</svg>
