<svg width="32" height="32" viewBox="0 0 32 32" fill="none" xmlns="http://www.w3.org/2000/svg">
<path d="M31.5937 17.0276C31.5937 25.0722 25.0722 31.5937 17.0276 31.5937C8.98291 31.5937 2.46143 25.0722 2.46143 17.0276C2.46143 8.98291 8.98291 2.46143 17.0276 2.46143C25.0722 2.46143 31.5937 8.98291 31.5937 17.0276Z" fill="#043B73"/>
<path d="M17.0006 12.4438C17.2529 12.4438 17.4948 12.3447 17.6731 12.1683C17.8515 11.9919 17.9517 11.7526 17.9517 11.5031C17.9517 11.2536 17.8515 11.0143 17.6731 10.8379C17.4948 10.6615 17.2529 10.5624 17.0006 10.5624C16.7484 10.5624 16.5065 10.6615 16.3281 10.8379C16.1498 11.0143 16.0496 11.2536 16.0496 11.5031C16.0496 11.7526 16.1498 11.9919 16.3281 12.1683C16.5065 12.3447 16.7484 12.4438 17.0006 12.4438ZM23.8468 20.8703V14.8433H23.9517C24.9707 14.8433 25.3894 13.5476 24.5565 12.9641L17.8815 8.27799C17.6242 8.09715 17.3163 8 17.0006 8C16.685 8 16.3771 8.09715 16.1198 8.27799L9.4425 12.9641C8.61184 13.5476 9.02831 14.8422 10.0472 14.8422H10.1545V20.8692C9.46875 21.3048 9.01348 22.0655 9.01348 22.9312V24.4357C9.01348 24.5853 9.07359 24.7289 9.18058 24.8347C9.28757 24.9405 9.43268 25 9.58399 25H24.4173C24.5686 25 24.7137 24.9405 24.8207 24.8347C24.9277 24.7289 24.9878 24.5853 24.9878 24.4357V22.9312C24.9878 22.0655 24.5337 21.3048 23.8468 20.8703ZM16.7793 9.19897C16.8435 9.15397 16.9202 9.1298 16.9989 9.1298C17.0776 9.1298 17.1544 9.15397 17.2186 9.19897L23.6528 13.7135H10.3462L16.7804 9.19897H16.7793ZM22.7035 14.8422V20.4922C22.6404 20.4876 22.5773 20.4853 22.5141 20.4854H20.4214V14.8433H22.7035V14.8422ZM11.2955 20.4922V14.8433H13.5776V20.4865H11.4849C11.421 20.4865 11.3571 20.4888 11.2944 20.4933L11.2955 20.4922ZM11.4861 21.6141H22.5163C23.2512 21.6141 23.8468 22.2032 23.8468 22.9312V23.8714H10.1545V22.9312C10.1545 22.2032 10.7513 21.6141 11.4861 21.6141ZM16.4301 20.4854H14.7186V14.8433H16.4301V20.4865V20.4854ZM17.5711 20.4854V14.8433H19.2827V20.4865H17.5711V20.4854Z" fill="white"/>
</svg>
