<svg width="28" height="28" viewBox="0 0 28 28" fill="none" xmlns="http://www.w3.org/2000/svg">
<path d="M8.55469 19.4041L18.6423 9.31641" stroke="#FF800D" stroke-width="1.28097" stroke-linecap="round" stroke-linejoin="round"/>
<path d="M9.99758 12.919C11.1914 12.919 12.1592 11.9512 12.1592 10.7573C12.1592 9.5635 11.1914 8.5957 9.99758 8.5957C8.80374 8.5957 7.83594 9.5635 7.83594 10.7573C7.83594 11.9512 8.80374 12.919 9.99758 12.919Z" stroke="#FF800D" stroke-width="1.28097" stroke-linecap="round" stroke-linejoin="round"/>
<path d="M17.2007 20.1241C18.3945 20.1241 19.3623 19.1563 19.3623 17.9624C19.3623 16.7686 18.3945 15.8008 17.2007 15.8008C16.0069 15.8008 15.0391 16.7686 15.0391 17.9624C15.0391 19.1563 16.0069 20.1241 17.2007 20.1241Z" stroke="#FF800D" stroke-width="1.28097" stroke-linecap="round" stroke-linejoin="round"/>
<circle cx="13.816" cy="14.1461" r="13.2367" stroke="#FF800D" stroke-width="0.853982"/>
</svg>
