<svg width="20" height="20" viewBox="0 0 20 20" fill="none" xmlns="http://www.w3.org/2000/svg">
<path d="M16.711 15.3245C16.659 15.2902 16.2675 15.0112 15.8756 14.1673C15.1558 12.6175 15.0047 10.4344 15.0047 8.87588C15.0047 8.86909 15.0046 8.86238 15.0043 8.85563C14.9965 6.79586 13.7841 5.02026 12.0493 4.22358V3.00517C12.0493 1.89951 11.1665 1 10.0815 1H9.91846C8.83345 1 7.95073 1.89951 7.95073 3.00517V4.22351C6.21004 5.02275 4.99527 6.80743 4.99527 8.87588C4.99527 10.4344 4.84418 12.6175 4.1244 14.1673C3.73249 15.0112 3.34107 15.2901 3.28903 15.3245C3.06987 15.4277 2.96181 15.6661 3.01223 15.9076C3.06313 16.1516 3.28727 16.3198 3.53203 16.3198H7.33144C7.35266 17.8013 8.5412 19 10 19C11.4588 19 12.6474 17.8013 12.6686 16.3198H16.468C16.7127 16.3198 16.9369 16.1516 16.9878 15.9076C17.0381 15.6661 16.9301 15.4277 16.711 15.3245V15.3245ZM8.98747 3.00517C8.98747 2.48201 9.40512 2.05641 9.91849 2.05641H10.0816C10.5949 2.05641 11.0126 2.48201 11.0126 3.00517V3.88116C10.6854 3.81236 10.3467 3.77615 9.99988 3.77615C9.65313 3.77615 9.31455 3.81232 8.9875 3.88105V3.00517H8.98747ZM10 17.9436C9.11284 17.9436 8.38919 17.2188 8.36814 16.3198H11.6319C11.6108 17.2187 10.8872 17.9436 10 17.9436V17.9436ZM12.0872 15.2633C12.0871 15.2633 4.71335 15.2633 4.71335 15.2633C4.80303 15.1211 4.89429 14.9602 4.985 14.7782C5.67973 13.3845 6.032 11.3987 6.032 8.87588C6.032 6.64637 7.81198 4.83256 9.99984 4.83256C12.1877 4.83256 13.9677 6.64637 13.9677 8.87764C13.9677 8.88414 13.9678 8.89061 13.968 8.89708C13.97 11.4098 14.3222 13.3885 15.015 14.7782C15.1057 14.9602 15.197 15.1211 15.2867 15.2633H12.0872Z" fill="#97144D"/>
</svg>
