<svg width="20" height="20" viewBox="0 0 20 20" fill="none" xmlns="http://www.w3.org/2000/svg">
<path d="M17.1469 16.8702C17.1469 16.8978 17.1359 16.9145 17.1082 16.9145C17.0528 16.9145 16.9975 16.9145 16.9477 16.9145C16.4384 16.7207 15.9402 16.5159 15.4255 16.3332C13.8645 15.7742 12.3146 15.193 10.7758 14.5841C10.3164 14.4014 9.89015 14.3737 9.40858 14.5619C7.62068 15.2649 5.81063 15.9236 4.01719 16.61C3.70722 16.7318 3.3585 16.7705 3.0928 17.003C3.04852 16.9919 3.03745 16.9643 3.05405 16.9255C3.25332 16.372 3.44152 15.8185 3.65186 15.2705C4.29949 13.5711 4.94713 11.8663 5.60029 10.1669C5.65011 10.0396 5.66118 9.92337 5.61136 9.79605C5.36781 9.1595 5.13533 8.52294 4.89177 7.88638C4.3161 6.36417 3.73489 4.84196 3.15369 3.31975C3.12048 3.23119 3.0928 3.14816 2.99316 3.10941C2.99316 3.00424 3.07619 2.99317 3.15369 2.97656C3.21458 3.06513 3.31421 3.09834 3.40831 3.13155C4.52091 3.5467 5.63904 3.96185 6.75163 4.37699C7.52658 4.66483 8.30152 4.94713 9.06539 5.26264C9.36983 5.38995 9.73516 5.40102 9.97318 5.67779C9.80159 5.85492 9.63553 6.03758 9.4584 6.21471C8.26277 7.41587 7.06715 8.62257 5.86599 9.8182C5.7276 9.95658 5.7276 10.0396 5.87152 10.1725C6.25346 10.5322 6.61879 10.9086 6.98965 11.2795C7.93065 12.215 8.87165 13.1504 9.80159 14.0859C10.0341 14.3239 10.0507 14.335 10.2998 14.0914C11.2629 13.1394 12.215 12.1873 13.1781 11.2408C13.5877 10.8367 13.9697 10.3939 14.4291 10.0396C14.4568 10.0784 14.49 10.1116 14.5011 10.1503C14.811 10.9529 15.121 11.7611 15.4255 12.5637C15.9126 13.8424 16.3886 15.121 16.8868 16.3941C16.9532 16.5657 16.9587 16.7761 17.1469 16.8702Z" fill="#F1B41B"/>
<path d="M3.08789 17.0072C3.35359 16.7747 3.70231 16.7304 4.01228 16.6142C5.80572 15.9223 7.61577 15.2691 9.40367 14.5661C9.88524 14.3779 10.3115 14.4056 10.7709 14.5883C12.3097 15.1972 13.8596 15.7784 15.4205 16.3374C15.9298 16.5201 16.4335 16.7249 16.9428 16.9186C16.9594 16.9518 16.976 16.9906 16.9926 17.0238C15.0663 17.8154 13.1455 18.6124 11.2192 19.404C10.8262 19.5645 10.4443 19.8523 10.0402 19.8357C9.64722 19.8191 9.27082 19.559 8.88335 19.404C6.95707 18.6014 5.02525 17.8043 3.08789 17.0072Z" fill="#E22028"/>
<path d="M2.99383 3.11328C3.08793 3.15203 3.12114 3.23506 3.15435 3.32362C3.73002 4.84583 4.31123 6.36804 4.89244 7.89025C5.13599 8.52681 5.36847 9.16337 5.61203 9.79993C5.66184 9.93277 5.65077 10.049 5.60096 10.1708C4.94779 11.8701 4.29462 13.5695 3.65253 15.2743C3.44219 15.8223 3.24845 16.3759 3.05472 16.9294C2.95508 16.8906 2.93847 16.791 2.90526 16.708C2.00301 14.5492 1.10629 12.396 0.1985 10.2428C0.126542 10.0656 0.126542 9.92724 0.1985 9.75011C1.06754 7.6799 1.93105 5.6097 2.79456 3.5395C2.85544 3.39005 2.9274 3.25166 2.99383 3.11328Z" fill="#E22028"/>
<path d="M17.1479 16.8688C16.9597 16.7692 16.9541 16.5644 16.8932 16.4039C16.4006 15.1308 15.919 13.8466 15.4319 12.5734C15.1275 11.7653 14.8175 10.9627 14.5075 10.1601C14.4909 10.1213 14.4577 10.0881 14.4356 10.0493C14.4245 10.0217 14.4134 9.98846 14.4023 9.96078C14.5961 9.70062 14.657 9.37958 14.7732 9.08621C15.3821 7.50311 15.9854 5.91448 16.5999 4.33138C16.7604 3.91623 16.8656 3.47341 17.098 3.08594C17.4191 3.645 17.6184 4.25942 17.873 4.8517C18.5594 6.45694 19.2236 8.07325 19.8989 9.68955C19.9653 9.84454 20.0484 9.98292 19.9653 10.1822C19.0132 12.4074 18.0833 14.6381 17.1479 16.8688Z" fill="#E76F25"/>
<path d="M9.97965 5.68768C9.74163 5.41091 9.3763 5.39984 9.07186 5.27253C8.30799 4.95702 7.53304 4.67472 6.7581 4.38688C5.64551 3.97174 4.52738 3.55659 3.41478 3.14144C3.32068 3.10823 3.22104 3.07502 3.16016 2.98645C4.16205 2.56577 5.16394 2.14509 6.16583 1.72994C7.38913 1.22623 8.61796 0.728049 9.8468 0.224337C9.97965 0.168984 10.0959 0.135772 10.2398 0.19666C12.4096 1.09338 14.585 1.97903 16.7549 2.87575C16.849 2.91449 16.932 2.96985 17.0206 3.01966C16.9873 3.06948 16.932 3.08055 16.8822 3.10269C15.1773 3.74479 13.4724 4.38135 11.7731 5.02898C11.2085 5.24486 10.6273 5.41645 10.0793 5.68768C10.0461 5.67661 10.0129 5.68214 9.97965 5.68768Z" fill="#E76F25"/>
<path d="M10.085 5.67583C10.6274 5.4046 11.2086 5.233 11.7788 5.01713C13.4781 4.3695 15.183 3.73294 16.8878 3.09084C16.9377 3.0687 16.993 3.05763 17.0262 3.00781C17.065 3.01888 17.0982 3.03549 17.1037 3.07977C16.8768 3.46724 16.7661 3.91007 16.6055 4.32521C15.9911 5.90831 15.3878 7.49694 14.7789 9.08004C14.6627 9.37341 14.6073 9.69446 14.408 9.95462C12.9633 8.53204 11.5241 7.10394 10.085 5.67583Z" fill="#3A2E7B"/>
<path d="M16.9932 17.0192C16.9766 16.986 16.96 16.9473 16.9434 16.9141C16.9987 16.9141 17.0541 16.9141 17.1039 16.9141C17.0983 16.9805 17.0707 17.0303 16.9932 17.0192Z" fill="#E76F25"/>
<path d="M10.0852 5.67578C11.5244 7.10389 12.9636 8.532 14.4083 9.96011C14.4194 9.98778 14.4304 10.021 14.4415 10.0487C13.9821 10.4029 13.6001 10.8458 13.1905 11.2498C12.2274 12.1964 11.2698 13.154 10.3122 14.1005C10.0631 14.3441 10.052 14.333 9.814 14.095C8.87854 13.154 7.93754 12.224 7.00207 11.2886C6.6312 10.9177 6.26588 10.5413 5.88394 10.1815C5.74556 10.0487 5.74002 9.96564 5.8784 9.82726C7.07956 8.63163 8.27519 7.42494 9.47081 6.22378C9.64794 6.04665 9.814 5.86398 9.9856 5.68685C10.0133 5.68132 10.0465 5.67578 10.0852 5.67578Z" fill="#FEFEFE"/>
</svg>
