<svg width="64" height="64" viewBox="0 0 64 64" fill="none" xmlns="http://www.w3.org/2000/svg">
    <path d="M56.306 47.61c0 14.377-18.874 5.918-31.08 5.918-12.205 0-15.074-4.53-15.074-18.907 0-14.377 9.895-19.237 22.1-19.237 12.206 0 24.054 17.848 24.054 32.225z" fill="#127CDD" fill-opacity=".1"/>
    <path d="M28.68 13.27 10.049 45.537a3.833 3.833 0 0 0 3.32 5.75h37.258a3.833 3.833 0 0 0 3.32-5.75L35.318 13.27a3.833 3.833 0 0 0-6.638 0z" fill="#FFB400"/>
    <path d="M32.242 23.222h-.486c-1.196 0-2.166.97-2.166 2.166v10.356c0 1.196.97 2.166 2.166 2.166h.486c1.197 0 2.167-.97 2.167-2.166V25.388c0-1.196-.97-2.166-2.167-2.166zM32 46.123a2.41 2.41 0 1 0 0-4.818 2.41 2.41 0 0 0 0 4.818z" fill="#FCF4D9"/>
</svg>
