<svg width="141" height="102" viewBox="0 0 141 102" fill="none" xmlns="http://www.w3.org/2000/svg">
    <path d="M66.218 27.282c.064 0 .128.021.192.021H80.3c.043 0 .086 0 .15-.02.192 0 .362.02.554.02 2.833 0 5.667.022 8.522 0 .682 0 1.214.191 1.427.892-.042.106-.021.17.107.17 0 1.465-.043 2.909.021 4.373-.021.15-.043.298-.043.468v17.26c0 .424 0 .87.15 1.274-.32.212-.17.552-.17.806-.022 2.315 0 4.629 0 6.943v.17c-.15.127-.086.318-.086.488v36.835c0 .17-.064.34.085.488-.085.722-.575 1.104-1.406 1.104H51.453c-.958 0-1.448-.51-1.448-1.486v-3.992c.191-.276.064-.53 0-.806.213-.467-.022-.913-.043-1.36.021-1.634.021-3.269.043-4.903 0-1.21-.022-2.42-.022-3.63v-.659c.022-.955.043-1.91-.02-2.866.063-.573.042-1.125.02-1.698V56.049c0-.127-.02-.254-.02-.36 0-.128.02-.255.02-.361v-14.31c0-.148-.02-.276-.02-.424 0-.255 0-.489.02-.743.022-.319-.042-.425-.383-.276-.511.233-1.044.424-1.555.615-1.15.446-2.323.87-3.473 1.317-.043-.87.49-1.402 1.15-1.869.299-.212.618-.403.938-.594.362-.212.703-.467.916-.807.213-.34.49-.573.852-.7.469-.15.959-.276 1.385-.531.34-.382.128-.807.15-1.232.063-1.677.042-3.354 0-5.052.042-.383.063-.744 0-1.126-.022-.424-.108-.828.042-1.252.277-.87.895-1.062 1.683-1.062.106.021.213.043.32.043H62.66c1.172 0 2.365-.021 3.558-.043zM88.162 89c.17-.127.107-.319.107-.467 0-19.341 0-38.682.021-58.023 0-.446-.106-.573-.554-.573-11.526.021-23.073.021-34.6.021-.149 0-.276-.021-.404.064-.235.149-.128.36-.128.552v57.704c0 .191-.107.403.106.552.064.064.107.128.17.191.107.17.278.106.427.106h34.45c.128-.02.299.043.405-.127zm-19.835 4.543c-.021 1.147.938 2.144 2.11 2.187 1.214.043 2.215-.934 2.258-2.123.021-1.189-.959-2.187-2.173-2.208-1.194-.042-2.174.934-2.195 2.144z" fill="#593840"/>
    <path d="M28.827 61.548c.021-.042.021-.106.043-.148.234-.043.468-.064.66-.149 1.62-.658 3.217-1.337 4.815-2.017.554.722 1.065 1.486 1.428 2.336.106.255.149.552.02.764-.148.233-.447.17-.68.085a7.848 7.848 0 0 0-.683-.149c-.873-.233-1.747-.467-2.663-.424-.767.042-1.257.615-1.129 1.38.15.828.682 1.38 1.342 1.826 1.001.721 2.13 1.252 3.217 1.846.362.192.746.319 1.044.616-1.214 2.038-.405 3.673 1.982 4.013.745.106 1.512.085 2.28.106 0 .658-.235.913-.874.934-.213 0-.448.021-.66-.021-1.492-.234-2.75.233-3.836 1.231-1.129 1.04-1.044 2.144.235 3.057 1.619 1.147 3.28 2.23 4.942 3.312.128.085.299.128.299.319-.043.17-.085.36-.128.53-.021.043-.043.107-.085.15-.192.105-.235.296-.235.509-.042.063-.106.148-.149.212.022-.043.022-.043-.021 0 0 .021-.021.021-.021.042-.022.064-.022.107-.043.17-.043.022-.085.043-.106.064-.363-.021-.746-.064-1.108.021-.022.021-.043.021-.043.043-.085-.022-.15-.043-.234-.064-.235-.234-.512-.149-.767-.064-.107 0-.213-.021-.32-.021-.213-.234-.469-.149-.703-.064-.064 0-.15-.02-.213-.02-.767-.128-1.534-.51-2.322-.107-.15.085-.299.042-.448 0-.404-.127-.81-.319-1.257-.297-.575-.85-1.15-1.678-1.725-2.527-.17-.233-.277-.403-.618-.17-.362.234-.192.425-.064.637.34.531.703 1.062 1.044 1.571-.299.085-.575.276-.469.574.234.722.383 1.486.895 2.102-.384 1.167-.938 2.25-1.406 3.396-.128.319-.277.382-.597.255-.405-.148-.767-.233-1.214.064-1.257.849-2.557 1.635-3.857 2.441-1.725 1.083-3.45 2.166-5.177 3.227-.32.191-.32.34-.064.595.235.212.427.488.64.743-.192.021-.384.021-.576.148-.511.361-1.044.68-1.576.998-.384-.318-.682-.743-1.044-1.104-.405-.424-.575-1.04-1.108-1.359-.064-.466-.447-.806-.511-1.273-.064-.297-.086-.616-.17-.892-.597-1.826-.938-3.715-1.215-5.605-.043-.318.021-.68-.192-.955 0-.382 0-.743.021-1.125.022-.043.086-.064.086-.106.213-1.38.703-2.654 1.342-3.907.788-1.55 1.81-2.93 3.09-4.097.915-.828 1.98-1.444 3.046-2.038 1.278-.701 2.556-1.402 3.664-2.378 1.257-1.104 2.13-2.463 2.77-3.97.703-1.741 1.108-3.503 1.406-5.265z" fill="#A0B3D3"/>
    <path d="M131.327 92.82c-.298 1.103-.724 2.144-1.129 3.205a44.654 44.654 0 0 1-.98 2.335c-.171.361-.064.425.298.425h6.626c.746 0 .831.085.831.828 0 .361-.021.722 0 1.062.021.424-.149.636-.597.615-.213-.021-.426 0-.66 0H.79c-.682 0-.788-.106-.788-.764 0-.425.021-.828 0-1.253-.022-.34.149-.467.468-.488h10.59a.292.292 0 0 1 .063.085c-.213.51-.128.658.384.658h7.499c.298 0 .447-.085.426-.382.767-.043 1.534-.064 2.301-.106.085.276.32.19.511.19h7.479c.149 0 .32.065.426-.084.298-.043.617-.085.916-.085h68.582c.063.191.191.255.383.255 1.108 0 2.237 0 3.345.021.213 0 .404-.021.49-.276h6.434c1.385.064 2.748.17 4.133 0h14.104c.128 0 .32.021.32-.17 0-.17-.192-.106-.299-.106h-2.705c-.107 0-.277.064-.32-.085-.043-.148.128-.19.234-.255 1.939-1.358 3.622-2.972 5.007-4.883.149-.254.213-.615.554-.743zM91.04 32.76c-.065-1.465-.022-2.909-.022-4.374.064-.127 0-.148-.107-.17-.213-.721-.745-.891-1.427-.891-2.834.021-5.667 0-8.522 0-.192 0-.362-.021-.554-.021.256-.404.703-.616 1.065-.87 1.15-.829 2.301-1.678 3.643-2.188.576-.212 1.15-.403 1.747-.467 2.088-.19 4.027.234 5.838 1.38 1.832 1.168 3.196 2.74 4.346 4.544.128.212.299.382.405.615.107.255.405.149.575.128.767-.17 1.556-.191 2.344-.297 1.129-.128 2.258-.064 3.387.042.98.085 1.961.297 2.898.573 1.001.276 1.917.722 2.834 1.21 1.065.574 1.981 1.295 2.833 2.123 1.129 1.126 2.003 2.42 2.706 3.843.639 1.253 1.044 2.59 1.449 3.949-.064.064-.107.149-.192.191-.661.573-1.321 1.168-1.981 1.74-.171.128-.363.256-.533.383-.597.425-1.193.913-1.811 1.295-1.3.764-2.557 1.571-3.92 2.25-.128.064-.256.15-.277.34-.213 1.486.682 2.484 2.173 2.4l-.128.381c-.234.701.085 1.529.682 1.699.66 1.91 1.321 3.821 1.981 5.753-.213 0-.277-.127-.362-.19-1.342-1.105-2.663-2.23-4.005-3.355-.064-.064-.107-.213-.256-.085-.128-.234-.298-.319-.575-.382-.448-.106-.895-.191-1.279-.446-.021-.382.022-.764-.063-1.146-.086-.383-.086-.765.447-.828.788.02 1.108-.277 1.236-1.02.191-1.104-.086-2.144-.363-3.184-.085-.34-.085-.743-.404-.998 0-.064-.022-.127-.022-.191.256-1.253.533-2.505.789-3.758-.256.106-.384.255-.512.404-.404.551-.958.891-1.598 1.103-1.171.404-2.322.871-3.494 1.296-.277.106-.362.212-.234.488.384.87.746 1.762 1.129 2.654-.042.53.171.976.533 1.337.234.234.234.446.213.7-.128.829-.085 1.657-.171 2.485-.276-.021-.511-.255-.83-.17-.384-.127-.767-.276-1.151-.403 0-.191-.021-.361-.106-.531-.746-1.614-1.087-3.312-1.108-5.074-.022-1.19-.128-2.378-.043-3.567.107-1.635-.043-3.27-.256-4.904-.234-1.868-.703-3.673-1.363-5.456-.213-.595-.533-1.168-.767-1.784-.298-.722-.341-.764-1.087-.594-1.171.276-2.322.594-3.451 1.019-.746.297-1.577.53-2.28 1.019z" fill="#CAD7E6"/>
    <path d="M131.327 92.82c-.341.128-.405.49-.576.744-1.385 1.91-3.068 3.524-5.006 4.883-.086.064-.277.085-.235.255.043.148.213.085.32.085h2.706c.106 0 .298-.064.298.106 0 .19-.192.17-.32.17H114.41c.064-.361-.128-.616-.319-.87-.341-.468-.725-.914-1.087-1.36.064-.127.043-.233.021-.36-.149-.828-.319-1.678-.468-2.506-.192-1.146-.384-2.314-.576-3.46.192-.234.469-.276.725-.361 1.065-.382 2.109-.807 3.11-1.338.767-.403 1.534-.828 2.237-1.358.128.891.426 1.698.98 2.462a4.625 4.625 0 0 0 7.5-.127c1.065-1.465 1.214-3.12.383-4.734-.809-1.593-2.151-2.484-3.984-2.548 0-.085 0-.17.022-.234a20.942 20.942 0 0 0 1.917-3.609 24.266 24.266 0 0 0 1.577-4.989c.149-.021.255.043.383.127 1.619.913 2.898 2.187 3.92 3.716.852 1.274 1.513 2.654 2.024 4.118.448 1.317.405 2.59.235 3.928a30.12 30.12 0 0 1-.533 2.76c-.128.573-.256 1.168-.405 1.741-.17.658-.447 1.274-.49 1.953.043.297-.213.51-.255.807z" fill="#A0B3D3"/>
    <path d="M46.617 39.066c-.32.19-.639.382-.937.594-.64.467-1.172.998-1.15 1.868v.191c.106.701.383.828 1.022.489.235-.128.448-.319.746-.276.149.127.085.318.085.488-.043 2.166.107 4.31-.256 6.475-.234 1.317-.532 2.57-1.193 3.737-.554.977-1.278 1.805-2.194 2.441-.17-.127-.213-.318-.234-.488-.086-.573-.384-1.061-.618-1.571-.618-1.444-1.598-2.675-2.727-3.758-.682-.637-1.492-1.104-2.386-1.316-1.3-.297-2.557-.149-3.665.722-.043-.404-.426-.382-.66-.489-.96-.403-1.94-.743-2.983-.806.106-1.083.106-2.166.32-3.27.17-1.019.404-2.017.639-2.993.32-1.295.852-2.527 1.49-3.694.661-1.21 1.45-2.314 2.43-3.291.085-.085.149-.149.277-.17.021.043.064.106.085.149.32-.234.724-.128 1.065-.17 1.555-.255 3.11-.191 4.666-.085.447.021.895.127 1.342.021-.32.998-.639 1.996-1.001 2.973-.107.275-.085.467.106.658-.17.212-.34.446-.49.658-.213-.064-.362-.319-.617-.276-.831.127-1.598-.149-2.344-.446-.533-.212-1.065-.361-1.64-.255-.341.064-.704.085-.853.488-.298.064-.383.319-.532.531-.043.064-.086.191 0 .191.362.021.51.383.788.531.682.34 1.363.68 1.981 1.104 1.002.7 2.152 1.189 3.153 1.89.554.382.746.276.874-.404.021-.063 0-.127 0-.19.256-.553.49-1.126.788-1.678.17-.319.15-.51-.17-.658a.906.906 0 0 1 .234-.446c.15.149.256.17.384-.042.81-1.38 1.64-2.74 2.471-4.098.341.255.724.255 1.13.318.255.043.319-.042.404-.212.17.595.34 1.21.511 1.805-.042.382-.042.764-.17 1.125-.128.51-.15 1.062-.17 1.635z" fill="#E5EAF3"/>
    <path d="M47.001 36.263c-.17-.594-.34-1.21-.511-1.804-.15-.595-.299-1.21-.47-1.805-.106-.361-.19-.743-.297-1.104-.362-1.401-.874-2.739-1.108-4.161-.043-.234-.17-.361-.405-.382.15-.255.106-.51.043-.786-.363-1.316-.725-2.611-1.087-3.927-.043-.17-.17-.383.192-.34h9.758c.191 0 .404-.021.596-.021 1.257.106 2.514.042 3.792.042h3.814c.128 0 .256 0 .384.021-.022.595-.277 1.126-.448 1.678-.042.17-.085.318-.128.488-.404.764-.745 1.57-1.342 2.208-.596.637-1.3.998-2.173.955-.767-.042-1.513-.064-2.28-.127-1.15-.085-2.28-.191-3.43-.276-.064 0-.128-.021-.17-.021-.064 0-.128-.022-.192-.022-.597-.063-1.193-.19-1.811-.148-.533-.213-1.108-.191-1.662-.298-.298-.063-.255.192-.234.383.064.552.277 1.061.298 1.634 0 .17.107.319.32.319-.32.616.021 1.189.106 1.762-.021.318.086.616.15.913.234 1.465.468 2.93.788 4.373 0 .191.021.361.021.552-.49 0-1.001.022-1.491.022-.341-.128-.703-.022-1.023-.128z" fill="#49124A"/>
    <path d="M28.827 61.549c-.299 1.783-.703 3.545-1.406 5.201-.64 1.508-1.513 2.866-2.77 3.97-1.108.977-2.386 1.678-3.665 2.378-1.086.595-2.151 1.21-3.046 2.038a13.87 13.87 0 0 0-3.09 4.098c-.617 1.231-1.107 2.526-1.342 3.906 0 .043-.064.064-.085.106-.192-.53-.107-1.104-.15-1.634-.106-1.338.065-2.675.214-4.013.128-1.02.32-2.038.618-3.015.234-.828.554-1.635.895-2.42.895-2.06 2.258-3.779 3.898-5.265 1.194-1.104 2.578-1.953 4.049-2.654 1.768-.85 3.558-1.656 5.326-2.463.17-.106.383-.17.554-.233z" fill="#CAD7E6"/>
    <path d="M15.768 40.53c1.044-.02 2.088-.063 3.132-.063.852 0 1.086.297 1.086 1.146v10.042c0 .87-.277 1.125-1.15 1.125h-3.452a.918.918 0 0 0-.66.255c-.426.425-.788.913-1.3 1.253-.021-.043-.085-.128-.064-.149.235-.318.192-.552-.127-.785-.107-.064-.086-.191.042-.255.384-.191.362-.53.362-.87 0-.595.086-.637.64-.468.063.022.149.022.234.022.128 0 .298.063.405-.064.106-.149-.043-.255-.128-.361-.128-.149-.085-.319-.085-.488-.064-.87.106-1.762-.448-2.548-.042-.064-.021-.191-.021-.276.128 0 .192-.064.192-.191.127 0 .191-.064.191-.191.32-.446.81-.743 1.108-1.21.043-.043.064-.085.107-.128V46.2c.383-.255.32-1.274-.085-1.486 0-.085-.022-.149-.107-.191.213-.467-.128-.595-.447-.764-.192-.107-.66-.107-.15-.446.043-.022.043-.128.022-.17-.256-.34-.043-.616.064-.934.085-.234.064-.489 0-.722-.085-.276-.235-.51.255-.552.086-.021.299-.191.384-.403z" fill="#EE6C80"/>
    <path d="M14.17 48.046c0 .085-.021.212.021.276.554.785.384 1.677.448 2.548.021.17-.043.34.085.488.085.106.235.19.128.36-.085.128-.256.064-.405.064-.085 0-.149 0-.234-.02-.554-.17-.64-.128-.64.466 0 .34.022.7-.362.87-.127.064-.149.192-.042.255.32.234.362.468.128.786-.022.021.042.106.064.149a.66.66 0 0 1-.47.446h-.042l.022.02c-.213.425-.299.447-.618.15-.575-.574-1.13-1.126-1.705-1.72-.255-.255-.511-.404-.894-.404-1.13.021-2.28 0-3.41 0-.809 0-1.107-.297-1.107-1.083V41.465c0-.636.383-1.019 1.001-.997 3.09.085 6.179.02 9.29.042.084 0 .191.021.276.021-.085.213-.298.404-.447.404-.49.042-.32.297-.256.552.064.233.085.51 0 .722-.106.318-.32.594-.064.934.022.042 0 .148-.021.17-.511.34-.043.34.149.445.32.17.66.298.447.765-1-.977-1.49-1.062-2.77-.446-.191.085-.319.063-.468-.043-.405-.318-.895-.34-1.385-.297-.639.085-1.172.361-1.427.998-.298.68-.341 1.38.192 1.953.852.913 1.768 1.762 2.663 2.654.17.17.277.17.447.021.533-.424.895-.955 1.406-1.316zm-5.497-5.499v-.891c0-.489-.404-.977-.894-.956-.512.021-1.023-.021-1.513 0-.469.021-.959.467-.959.87v10c0 .446.512.956.959.956h1.726c.128 0 .34.02.34-.064-.042-.404.341-.637.341-1.02v-3.82c0-.234-.063-.447-.276-.468-.299-.042-.277-.212-.277-.424-.022-.595.32-1.147.191-1.741-.085-.404-.17-.786.299-1.02.106-.063.085-.233.085-.339-.022-.36-.022-.722-.022-1.083zm.554 4.161c-.02-.106.043-.318-.127-.297-.235.021-.32.255-.341.489 0 .106.021.233.17.212.235-.043.341-.17.298-.404z" fill="#F27E6B"/>
    <path d="M117.99 61.633c.149 0 .298.021.447.106.639.36 1.3.7 1.982.934.788.276 1.512.68 2.258.998 1.64.722 3.196 1.613 4.581 2.76.127.106.362.064.362.297-.107.021-.149.043-.149.17.042 1.019-.171 2.017-.277 3.015-.107 1.189-.405 2.356-.618 3.524a5.246 5.246 0 0 1-1.428-.7c-.404-.298-.894-.468-1.342-.701 0-.297-.021-.616-.021-.913 0-.297-.128-.51-.469-.489a1.124 1.124 0 0 0-.746 0h-.745c0-.02 0-.042-.022-.063-.17-.446-.553-.764-.852-1.104-.532-.616-1.001-1.274-1.321-1.975-.618-1.4-1.171-2.866-1.385-4.394-.042-.319-.17-.616-.255-.913-.021-.17 0-.361 0-.552z" fill="#E5EAF3"/>
    <path d="M53.946 2.868c-.32-.51-.597-1.04-.746-1.635-.042-.149-.106-.297.085-.403 1.087-.574 2.238-.998 3.495-.765 1.3.255 2.3 1.465 2.428 2.845.022.255.064.489.043.743-.085.934.49 1.423 1.236 1.741.49.212 1.022.382 1.534.573.49.191.958.446 1.406.722 1.598 1.04 2.066 3.78.064 5.117a6.44 6.44 0 0 1-1.94.891c-.276-.424-.17-.934-.255-1.38-.213-1.125-.362-2.271-.895-3.29-.02-.085-.042-.149-.127-.17 0-.106-.043-.191-.17-.191h-.022a.463.463 0 0 0-.085-.106c-.022-.106-.086-.149-.192-.149-.043-.021-.064-.042-.107-.064h-.575c-.49-.106-.959.085-1.449.064-.085-.382-.17-.743-.234-1.125a.064.064 0 0 0 0-.085c-.021-.234-.043-.446-.064-.68 0-.297 0-.551.448-.573.383-.02.575-.34.575-.722 0-.382-.192-.658-.575-.743-.256-.063-.427-.02-.448.34-.021.573-.128 1.147-.17 1.699-.192.042-.32-.043-.47-.15-.468-.296-.51-.806-.638-1.273-.064-.212-.085-.318-.341-.297-.788 0-1.364-.361-1.811-.934z" fill="#791328"/>
    <path d="M126.575 73.48c.213-1.168.512-2.336.618-3.525.086-.998.299-1.996.277-3.015 0-.127.064-.148.149-.17.831.531 1.428 1.317 2.046 2.06 1.15 1.38 1.981 2.93 2.599 4.607.575 1.507.873 3.078 1.044 4.67.106.977.234 1.933.17 2.91-.064.785-.064 1.57-.085 2.356 0 .615.043 1.231.085 1.847.064.998-.064 1.995-.277 2.993-.255 1.253-.724 2.442-1.321 3.588-.042.106-.085.191-.213.212.043-.679.32-1.316.49-1.953.15-.573.277-1.167.405-1.74.192-.914.405-1.826.533-2.76.17-1.317.213-2.59-.235-3.928-.511-1.465-1.171-2.845-2.024-4.119-1.022-1.529-2.3-2.802-3.92-3.715-.127-.064-.234-.149-.383-.128-.021-.063 0-.127.042-.19z" fill="#CAD7E6"/>
    <path d="M127.087 39.554c1.065-.637 2.109-1.274 3.174-1.91.788-.468 1.555-.956 2.365-1.402.32-.191.533-.403.447-.807-.127-.658.171-1.083.703-1.507 2.344-1.783 4.645-3.63 6.967-5.456a.434.434 0 0 1 .171-.085c.149.382.064.764.042 1.125-.021 1.571-.085 3.12-.085 4.692 0 .382-.149.467-.49.51-1.598.127-3.196.275-4.794.382-.383.02-.511.17-.34.53.149.319.234.68.383.998.107.255.021.34-.234.425-2.216.7-4.453 1.422-6.669 2.123l-1.598.51c0-.043-.021-.086-.042-.128z" fill="#F38427"/>
    <path d="M53.606 18.28c.32-.254.724-.17 1.086-.275.213-.064.362-.128.49-.298.064.255.256.17.405.149.277-.042.554-.127.83-.17.342-.042.47-.212.47-.552-.064-1.189.02-2.399-.086-3.588-.085-1.04 0-2.102-.02-3.163-.044-1.062.447-1.72 1.405-2.102h.32c.98-.021 1.342.361 1.47 1.316.106.87.085 1.763.085 2.633 0 1.061-.021 2.144-.064 3.206-.042 1.082-.192 2.186-.192 3.27 0 .424-.127.466-.447.466-.618-.02-1.236.064-1.832.191-.938.085-1.875.149-2.813.234.022-.17-.106-.276-.213-.34-.426-.212-.639-.594-.894-.976z" fill="#FBCA84"/>
    <path d="M29.51 47.303c1.043.063 2.023.403 2.982.806.234.107.618.085.66.489-.128.085-.255.19-.362.276-1.534 1.125-1.917 2.484-1.598 4.33.277 1.53 1.13 2.782 1.939 4.056.405.658.83 1.295 1.257 1.932-1.598.68-3.217 1.358-4.815 2.017-.213.085-.447.106-.66.148-.064-.51.106-.976.191-1.465.15-.934.17-1.868.235-2.802.17-2.166.255-4.331.17-6.475-.085-1.083.021-2.187 0-3.312z" fill="#CAD7E6"/>
    <path d="M117.99 61.634c0 .19 0 .382-.021.552-.746 1.613-1.683 3.078-3.068 4.203-1.619 1.338-3.494 1.996-5.603 2.038.021-.382.042-.764.085-1.146.192-1.932.426-3.864.618-5.817.042-.361.149-.34.383-.17.725.488 1.47.913 2.301 1.189 1.939.637 3.153.276 4.304-1.232.319-.063.554.234.852.213.064.063.107.127.149.17z" fill="#A0B3D3"/>
    <path d="M117.861 61.465c-.319.021-.533-.276-.852-.212a2.413 2.413 0 0 0-.107-1.72c-1.193-2.675-2.727-5.18-4.175-7.706-.064-.128-.15-.255-.32-.213.043-.637-.107-1.167-.746-1.465-.17-.085-.383.021-.511-.17.234-.19.533-.276.831-.382 1.278-.403 2.578-.552 3.899-.743.468 0 .916-.021 1.385-.021v.021c0 1.911-.064 3.8 0 5.711.063 1.91.234 3.843.447 5.754.021.403.17.764.149 1.146z" fill="#CAD7E6"/>
    <path d="M57.526 19.363a8.798 8.798 0 0 1 1.832-.19c.32 0 .447-.043.447-.468 0-1.083.15-2.187.192-3.27.043-1.06.064-2.144.064-3.205 0-.87.021-1.762-.085-2.633-.128-.976-.511-1.337-1.47-1.316h-.32c-.106-.255.533-.467.022-.743.298-.212.639-.127.916-.255h.575c.043.021.064.043.106.064.107 0 .17.064.192.149 0 .063.022.106.085.106h.022c-.043.148.021.19.17.19 0 .086.021.17.128.17.554 1.04.682 2.166.895 3.291.085.467-.021.956.256 1.38-.064 1.04.106 2.06.149 3.1.085 1.953.149 3.885.106 5.838 0 .064-.042.106-.064.17-.895 0-1.81-.021-2.706-.021-.362-.17-.766-.064-1.129-.064-.34 0-.383-.17-.404-.467-.086-.573.127-1.189.02-1.826z" fill="#F38427"/>
    <path d="M44.23 27.007c.235.021.362.148.405.382.234 1.422.746 2.781 1.108 4.161.106.361.192.743.298 1.104-.469.488-.746 1.104-1.065 1.677a418.465 418.465 0 0 0-2.471 4.098c-.128.212-.235.212-.384.042-.384-.36-.746-.743-1.172-1.061-.192-.191-.213-.382-.106-.658.362-.977.66-1.975 1.001-2.973.256-.743.511-1.465.767-2.208.15-.467.405-.891.384-1.4.191-.064.17-.256.213-.383.298-.85.575-1.698.873-2.548.021-.063.021-.19.15-.233z" fill="#593840"/>
    <path d="M116.712 41.698c.575-.616 1.193-1.231 1.64-1.953.213-.319.362-.106.554.042 1.705 1.571 2.727 3.546 3.238 5.775.235 1.04.192 2.08.214 3.142 0 .467-.32.34-.554.297-1.3-.17-2.6-.17-3.899-.17-.213 0-.426.022-.661.022v-.022a1.17 1.17 0 0 1-.191-.913c.127-.742.021-1.464-.043-2.186-.128-1.295-.32-2.59-.405-3.885 0-.022.021-.043.043-.043.085.064.191.106.234 0 .043-.085-.085-.085-.17-.106zm5.177 5.88a10.805 10.805 0 0 0-1.108-4.394 8.851 8.851 0 0 0-1.981-2.611c-.107-.085-.213-.234-.363-.149-.127.064-.085.234-.085.34 0 .297.043.594.064.87.149 2.42 1.023 4.522 2.876 6.157.149.128.277.425.512.319.191-.085.042-.361.085-.531z" fill="#EE6C80"/>
    <path d="M8.78 84.647c.788 0 1.577.022 2.386 0 .405 0 .597.128.597.574a122.02 122.02 0 0 0 0 3.948c0 .404-.17.531-.533.51h-.234c-.789-.106-1.492.043-2.024.722-.192.233-.362.233-.554-.021-.448-.637-1.087-.807-1.832-.7-.17.02-.341.02-.512 0-.277-.043-.426-.17-.426-.49.021-1.316.021-2.632 0-3.948 0-.446.213-.573.597-.573.873-.022 1.704-.022 2.535-.022zm1.193 2.145c0-.616-.298-.87-.916-.743-.213.042-.405.063-.618-.022-.533-.212-1.001.128-1.001.701 0 .255.128.446.277.616.81 1.04 1.022 1.04 1.939.127.213-.191.383-.403.32-.68z" fill="#CAD7E6"/>
    <path d="M122.656 38.64c.255-.594.724-1.04 1.065-1.57.085-.128.192-.234.277-.361.554-.765.554-.658.043-1.295-.32-.404-.32-.743-.086-1.168.789-1.507 1.534-3.036 2.301-4.565.15-.297.256-.403.597-.276 1.001.404 2.024.786 3.047 1.168.34.128.298.255.042.446-1.278.998-2.556 2.017-3.835 3.015-.277.212-.277.382.022.573.255.17.49.382.767.53.426.234.298.404-.022.595-.532.361-1.044.743-1.555 1.104-.916.616-1.79 1.21-2.663 1.805z" fill="#F38427"/>
    <path d="M48.812 20.68c1.065 0 2.152.022 3.217 0 .298 0 .405.064.405.383-.021.658 0 .658-.66.658H41.78c-.362 0-.596-.064-.49-.467.107-.34-.277-.425-.362-.68-.32-.955-.682-1.89-1.044-2.823l-1.47-4.013c-.106-.297-.085-.425.234-.53.618-.213.618-.234.831.36.81 2.208 1.662 4.416 2.408 6.645.149.446.32.489.703.489 1.32-.022 2.642 0 3.963 0 .02.34.255.276.468.254.618-.127 1.193-.233 1.79-.276z" fill="#593840"/>
    <path d="M59.103 7.306c-.277.148-.618.042-.916.255.51.276-.128.467-.022.743-.959.382-1.449 1.04-1.406 2.101.043 1.062-.043 2.123.021 3.164.085 1.189.022 2.399.085 3.588.022.36-.127.51-.468.552-.277.042-.554.106-.831.17-.15.02-.341.106-.405-.15.107-.572.192-1.167.32-1.74.085-.403-.043-.68-.32-.955-.34-.361-.682-.701-.959-1.126-.32-.488-.404-.976-.17-1.528.682-1.55 1.64-2.93 2.748-4.246l.085-.085c.235-.255.618-.319.789-.68.49.022.98-.17 1.449-.063z" fill="#F06533"/>
    <path d="M26.484 27.58c-2.194.468-3.962-1.507-4.026-3.248-.064-1.89 1.47-3.864 3.813-3.673.043 0 .085.043.128.064-.17.127-.17.149-.106.17.617.106.426.616.447.976 0 .107.298.276 0 .404-.618.318-.426 1.061 0 1.486.064.064.234.085.192.233-.043.15-.192.128-.32.15-.17.02-.383-.107-.468.148-.576.085-1.172.042-1.748.021-.596 0-.66.064-.468.637.021.064.064.127.106.212.448.87 1.193 1.21 2.11 1.232.063.254.276.17.426.17.32 0 .362.105.255.403-.149.467-.49.51-.873.615h.532zm-1.171-4.437.02-.02c.214-.256.214-.447-.127-.553-.426-.064-.596.127-.533.53.043.15.128.192.277.17h.15c.106.043.191 0 .213-.127z" fill="#F38427"/>
    <path d="M42.974 30.191c.021.51-.234.934-.383 1.402-.235.743-.512 1.486-.767 2.208-.448.106-.895 0-1.343-.022-1.555-.106-3.11-.148-4.666.085-.362.064-.745-.063-1.065.17-.021-.042-.064-.106-.085-.148.746-.871 1.705-1.465 2.706-2.039 1.406-.785 2.961-1.231 4.538-1.55.32-.063.703-.063 1.065-.106z" fill="#CAD7E6"/>
    <path d="M104.951 19.47c.362.02.32.318.341.552v5.817c-.021.297-.192.445-.49.445-.49 0-1.001 0-1.491-.02-.575-.043-.597-.404-.554-.85.021-.403 0-.807 0-1.21 0-.361.021-.722-.171-1.062.554-.785.533-1.252-.127-1.825.021-.319.404-.213.554-.425-.086-.064-.15-.085-.214-.127-.553-.34-.553-.404-.063-.807.063-.064.106-.106.085-.191-.043-.085-.128-.128-.235-.128-.298 0-.575 0-.937-.19 1.15.02 2.237.02 3.302.02z" fill="#EE6C80"/>
    <path d="M97.793 26.264h-.299c-.404-.233-.34-.658-.34-.976-.043-1.741-.022-3.503-.022-5.244 0-.212.085-.404.277-.425.767-.042 1.513-.063 2.28 0 .149.021.341.128.106.297-.234.192-.106.298.064.425.107.064.299.191.213.297-.17.213-.191.531-.468.68-.235.106-.256.297-.213.51-.064 0-.15 0-.15.084 0 .021.086.064.128.085v.552c-.127.128-.085.255-.021.382.15.382.405.722.66 1.062.171.212.192.488-.085.488-.66-.021-.532.382-.532.764 0 .191-.022.383 0 .552.02.298-.086.404-.405.404-.405 0-.81-.106-1.193.063z" fill="#F5875F"/>
    <path d="M51.923 26.878c1.15.106 2.28.191 3.43.276.767.064 1.513.085 2.28.128.873.042 1.576-.319 2.173-.956.618-.637.938-1.444 1.342-2.208.831.064 1.45.573 2.13.956.938.51 1.684 1.316 2.621 1.804.15.085.213.255.299.404-1.194 0-2.386.02-3.6.02H51.943c-.106 0-.213-.02-.32-.042-.063-.233.256-.212.3-.382z" fill="#CAD7E6"/>
    <path d="M116.605 41.867c.086 1.295.277 2.59.405 3.885.064.722.171 1.465.043 2.187-.064.319 0 .637.192.913-.469 0-.917.021-1.385.021-.171-.148-.384-.106-.576-.085-.234 0-.511.128-.66.043-.256-.17.17-.361.085-.616-.021-.085 0-.191 0-.276v-2.463c0-.594.128-1.21-.383-1.677.66-.573 1.321-1.146 1.981-1.74l.192-.192c.021.021.064 0 .106 0z" fill="#EE6C80"/>
    <path d="M11.123 98.872a.292.292 0 0 1-.063-.085c.02-.149 0-.297.213-.382a285.361 285.361 0 0 0 4.516-1.89c.298-.127.554-.17.81 0 .554.425 1.193.659 1.875.807.277.064.575.106.83.276-.042.425.086.85-.02 1.274h-8.16z" fill="#593840"/>
    <path d="M26.142 24.29c.085-.255.32-.127.469-.149.128-.02.277 0 .32-.148.042-.149-.107-.17-.192-.234-.448-.424-.64-1.168 0-1.486.277-.148 0-.297 0-.403-.021-.34.191-.87-.448-.977-.064-.021-.064-.042.107-.17.128-.042.234-.021.362.043.021 0 .043 0 .064.021.128.021.256.042.383.085h-.02c.063.042.148.064.212.106h-.021c.064.021.128.064.192.085l.042.021c1.257.658 1.875 1.699 1.875 3.079 0 1.38-.596 2.483-1.896 3.1-.34.17-.682.36-1.087.339h-.532c.383-.106.724-.17.873-.616.085-.297.043-.403-.255-.403-.15 0-.363.085-.427-.17 1.258-.297 1.811-.85 2.024-1.996-.02-.02-.02-.042-.042-.063a32.539 32.539 0 0 0-2.003-.064zm.831-1.783c-.277.02-.447.127-.447.382 0 .233.149.36.383.36.256.022.384-.148.384-.36.021-.212-.107-.361-.32-.382z" fill="#F06533"/>
    <path d="M57.675 7.369c-.149.34-.553.403-.788.679v-.319c-.043-.721-.085-.743-.767-.53-.575.19-1.108.085-1.576-.255a.89.89 0 0 1-.405-.637c-.17-1.125-.213-2.272-.213-3.397.447.573 1.044.913 1.768.913.256 0 .277.106.34.297.129.467.171.977.64 1.274.15.085.277.191.469.149h.192c.02.233.042.446.063.68l-.02.02c0 .022.02.043.042.064.085.318.17.68.255 1.062z" fill="#FBCA84"/>
    <path d="M126.406 44.542c.511-.021 1.023-.085 1.513-.085.362 0 .554-.127.618-.467.064-.34.213-.51.596-.573 1.065-.191 2.131-.446 3.196-.7.234-.043.383-.043.447.212.192.615.405 1.231.618 1.847.128.36-.085.382-.362.318-.874-.212-1.768-.382-2.642-.616-.383-.106-.618-.063-.554.404 0 .085-.021.19 0 .276.043.34-.064.403-.383.297a127.993 127.993 0 0 0-3.047-.87v-.043z" fill="#F38427"/>
    <path d="M97.793 26.263c.383-.17.788-.064 1.193-.064.298 0 .426-.106.404-.403-.02-.191 0-.382 0-.552 0-.36-.127-.785.533-.764.277.021.256-.255.085-.489a4.473 4.473 0 0 1-.66-1.061c-.043-.127-.085-.276.021-.382.064.127.107.276.192.36.469.49.959.956 1.427 1.444.171.17.277.064.384-.042l1.214-1.146c.171.34.171.7.171 1.061 0 .403.021.807 0 1.21-.043.446 0 .807.554.85-.533-.064-.959.148-1.3.509-.043-.212.213-.276.256-.467-.448.063-.512.19-.299.51-.681.891-.745.933-1.47.127-.554-.616-1.171-.722-1.896-.68-.277 0-.532-.02-.81-.02z" fill="#F27E6B"/>
    <path d="M19.305 97.577c-.235-.17-.533-.212-.831-.276-.682-.148-1.321-.382-1.875-.806 0-.064.021-.149.021-.213.49-.02.767-.36 1.023-.721.532-.34 1.065-.637 1.576-.998.192-.128.363-.128.576-.149a30.314 30.314 0 0 1 1.534 1.762c-.086.212-.235.34-.405.489-.384.318-.895.467-1.236.849-.128 0-.255.042-.383.063z" fill="#FBCA84"/>
    <path d="M57.525 19.364c.106.637-.107 1.253-.064 1.89.021.276.064.446.405.467.383 0 .767-.085 1.129.064H56.14v.127h1.342v.042c-1.257 0-2.514.064-3.792-.042.255-.722.639-1.401.81-2.166.063-.042.127-.106.17-.148.98-.085 1.917-.149 2.855-.234z" fill="#F06533"/>
    <path d="M11.464 68.66c0 1.784-1.193 2.888-3.132 2.846-1.257-.022-2.599-1.168-2.577-2.972.02-1.296 1.214-2.845 3.131-2.718 1.47.106 2.6 1.253 2.578 2.845zm-5.22-.042c0 1.36 1.002 2.378 2.344 2.442 1.278.064 2.535-1.104 2.514-2.4-.021-1.21-1.108-2.42-2.322-2.377-1.513.043-2.535.955-2.535 2.335z" fill="#D2DAE9"/>
    <path d="M75.124 18.727c1.406-.19 2.919 1.125 2.94 2.866.022 1.508-1.385 2.824-2.855 2.824-1.64 0-2.897-1.486-2.961-2.824-.043-1.486 1.555-3.078 2.876-2.866zm.085 5.223c1.321 0 2.323-.998 2.365-2.272a2.466 2.466 0 0 0-2.471-2.569c-1.236.021-2.344 1.104-2.344 2.442 0 1.252 1.002 2.441 2.45 2.399z" fill="#CAD7E6"/>
    <path d="M126.235 54.755c1.726 0 2.876 1.38 2.834 2.93-.043 1.656-1.215 2.823-3.004 2.802-1.449-.021-2.749-1.104-2.77-2.887 0-1.593 1.428-2.951 2.94-2.845zm-.064 5.222c1.407 0 2.45-.997 2.45-2.335 0-1.316-1.086-2.356-2.386-2.441-1.235-.085-2.514 1.231-2.471 2.356.042 1.423 1.001 2.42 2.407 2.42z" fill="#D2DAE9"/>
    <path d="M99.39 21.805c-.042-.212 0-.382.213-.51.256-.127.299-.467.469-.679.107-.127-.085-.233-.213-.297-.192-.127-.298-.234-.064-.425.235-.17.043-.297-.106-.297a13.622 13.622 0 0 0-2.28 0c-.192.021-.277.212-.277.425 0 1.74-.021 3.503.021 5.244 0 .34-.064.764.341.976-.49.043-.511-.318-.511-.637-.021-1.061 0-2.102 0-3.163v-2.42c0-.425.213-.637.618-.637h7.116c.064 0 .149.042.213.063h-3.324c.341.17.639.192.938.192.106 0 .191.042.234.127.043.085-.021.149-.085.191-.49.403-.469.467.064.807.064.042.127.085.213.127-.149.212-.533.085-.554.425a1.263 1.263 0 0 0-1.002-.021c-.127.042-.234.148-.383.063-.639-.34-1.172-.085-1.64.446z" fill="#F27E6B"/>
    <path d="M48.811 20.68c-.596.021-1.171.149-1.768.255-.213.043-.447.085-.469-.255.022-.403.192-.68.576-.849.617-.276 1.214-.616 1.81-.913.47-.233.96-.191 1.45-.17h.085c.085-.085.191-.085.277 0 .085.234.362.234.51.425.235.297.427.68.896.68-1.023.233-2.046.466-3.047.7-.085.042-.234.021-.32.127z" fill="#FBCA84"/>
    <path d="M52.2 19.873c-.469 0-.66-.382-.895-.68-.15-.19-.426-.19-.511-.424.959 0 1.875-.297 2.812-.467.234.382.469.764.895.976.106.064.234.17.213.34a1.217 1.217 0 0 0-.17.149c-.533-.17-1.002.085-1.513.127-.277 0-.554.064-.831-.021z" fill="#FBCA84"/>
    <path d="M13.424 84.35c.213.298.149.638.191.956.277 1.89.618 3.779 1.215 5.605.085.297.106.594.17.891-.255-.127-.34-.382-.469-.615-.894-1.911-1.3-3.928-1.3-6.05.022-.256.065-.532.193-.786zM17.664 95.56c-.256.36-.511.7-1.023.721-.404-1.04-.894-2.08-1.129-3.184.533.318.725.934 1.108 1.358.341.361.64.786 1.044 1.104z" fill="#CAD7E6"/>
    <path d="M57.505 21.912h-1.342v-.128h2.855c.895 0 1.81.021 2.706.021v.17c-.128 0-.256 0-.384-.021-.064-.021-.106-.064-.17-.064-1.215.022-2.45.022-3.665.022z" fill="#FBCA84"/>
    <path d="M116.712 41.698c.085.021.213.021.17.149-.042.085-.149.042-.234 0 .021-.043.043-.106.064-.149z" fill="#A0B3D3"/>
    <path d="M26.825 20.787c-.021 0-.043-.022-.064-.022.021-.02.043-.042.064.022zM27.592 21.063l-.021-.021.02-.022v.043zM122.634 38.662l.022-.021-.022.021z" fill="#F38427"/>
    <path d="M50.517 18.747h-.085c.042-.02.063-.02.085 0z" fill="#F5875F"/>
    <path d="m56.887 8.025-.086.086c0-.043.022-.086.086-.086z" fill="#FBCA84"/>
    <path d="M52.86 89c-.063-.064-.106-.128-.17-.192 0-.149.021-.318.021-.467V30c.128-.085.256-.064.405-.064 11.526 0 23.074 0 34.6-.021.447 0 .554.127.554.573-.022 19.341 0 38.682-.022 58.023 0 .17.085.34-.106.467-.128 0-.256-.021-.362-.021h-34.6a1.451 1.451 0 0 1-.32.042zm3.367-7.707a5.05 5.05 0 0 0 1.214-1.21c.021 0 .021-.022.021-.043.022-.043.064-.085.085-.127.171-.022.299-.107.341-.298.022-.02.043-.042.022-.084.128-.022.213-.086.255-.213a.375.375 0 0 0 .107-.085c.192-.021.405-.042.596-.042h25.119c.533 0 .767-.234.746-.722-.021-2.208-.043-4.395-.021-6.603 0-.7-.064-.828-.767-.828H61.85c-.17 0-.34.022-.511.043-1.513-.106-3.026 0-4.56-.043-.703-.02-.788.064-.788.765v8.831c0 .128-.042.276.086.404h-.043V81.25c-.021.043 0 .085.043.085.085.021.106-.021.149-.042zm2.79-39.234c1.002.064 2.003.042 2.983 0 .128 0 .256.021.362.021H73.59c.128 0 .256-.021.362-.021.064 0 .128.021.192.021h9.95c.511 0 .618-.149.618-.764v-6.56c0-.68-.107-.786-.767-.786H68.626c-.724 0-1.427.021-2.152.021a39.535 39.535 0 0 0-3.174 0 140.567 140.567 0 0 0-5.987 0c-.405.022-.852-.17-1.214.17-.15.149-.085.361-.085.53V43.8c0 .148-.064.297.085.467.532-.552 1.129-1.02 1.598-1.614.042-.042.085-.063.106-.106l.085-.085c.043-.042.064-.085.107-.106.021-.021.043-.064.085-.085.107-.021.17-.085.213-.19l.448-.065c.106.085.191.085.277.043zm23.926 20.614c.405.531.916.977 1.45 1.444.02-.127.042-.17.042-.212.106-3.885.021-7.75.042-11.634 0-.425-.191-.595-.639-.595H56.354c-.426 0-.596.17-.596.573v9.023c0 .213-.021.446.277.51.17.17.383.106.575.106 4.24 0 8.5.021 12.74 0 1.258 0 2.515.064 3.772-.042.191.02.404.042.596.042 2.408 0 4.815.021 7.223 0 .724 0 1.406-.021 1.853.658.022.043.085.043.128.064 0 .042 0 .042.021.063zm-23.18-14.712c0-1.083-.959-2.017-2.066-2.017-1.3-.021-2.067 1.04-2.088 2.187-.022 1.083.98 1.974 2.109 1.974 1.15-.021 2.045-.955 2.045-2.144zm-2.109 35.115c-1.087-.085-2.088.87-2.045 2.038.042 1.125.724 2.06 2.109 2.038 1.15-.021 2.045-.913 2.045-2.08-.021-1.147-.916-2.017-2.109-1.996zM84.882 67.79c0-1.125-.916-2.038-2.088-2.038-1.129 0-2.13.955-2.088 2.06.043 1.23.874 2.059 2.067 2.08 1.214 0 2.067-.87 2.11-2.102zM34.367 59.214a99.19 99.19 0 0 1-1.257-1.932c-.81-1.273-1.662-2.547-1.938-4.055-.32-1.847.063-3.184 1.597-4.33.128-.086.256-.192.363-.277 1.086-.87 2.364-1.019 3.664-.721a5.11 5.11 0 0 1 2.386 1.316c1.15 1.082 2.11 2.314 2.727 3.758.213.51.533.997.618 1.57.021.17.064.361.234.489l.192 2.335v.17c-.021 0-.042.021-.042.021 0 .022.021.043.021.064 0 .36.043.722.213 1.04.192.383.49.552.916.361.874-.34 1.492-1.04 2.11-1.677 1.022-1.104 2.109-1.974 3.75-1.656 0 .127.02.255.02.361v21.124c-.085 0-.149-.042-.17-.127-.724-1.847-1.577-3.63-2.408-5.435a133.533 133.533 0 0 0-2.407-4.968c-.916-1.826-1.811-3.652-2.834-5.435-.404-.722-.788-1.444-1.171-2.166a.378.378 0 0 0 0 .34c1.065 2.357 2.151 4.692 3.217 7.049.468 1.04 1.001 2.059 1.406 3.142-.49-.51-1.15-.68-1.79-.892a.525.525 0 0 0-.213-.34 37.932 37.932 0 0 0-2.834-2.017c-.063-.042-.17-.148-.32 0 .512.553 1.045 1.083 1.556 1.635.064.064.235.106.085.234-1.107-.361-2.237-.722-3.344-1.104-.895-.319-1.726-.297-2.472.36-.298-.275-.682-.424-1.044-.615-1.086-.594-2.216-1.125-3.217-1.847-.64-.467-1.172-1.02-1.342-1.826-.15-.764.34-1.337 1.129-1.38.916-.042 1.79.191 2.663.425.235.064.448.106.682.148.256.064.533.128.682-.084.127-.213.085-.51-.022-.765-.34-.807-.852-1.57-1.406-2.293z" fill="#FDFDFC"/>
    <path d="M91.04 32.76c.702-.489 1.512-.722 2.3-1.04 1.13-.425 2.28-.765 3.451-1.02.746-.17.81-.127 1.087.595.234.594.554 1.167.767 1.783a26.606 26.606 0 0 1 1.364 5.456c.213 1.635.362 3.27.255 4.904-.085 1.19.022 2.378.043 3.567.042 1.762.362 3.46 1.108 5.074.085.17.106.361.106.53a1.314 1.314 0 0 0-.852.107c-2.493.998-4.985 1.974-7.478 2.972-.298.128-.384.043-.49-.212-.511-1.231-1.044-2.441-1.555-3.673-.15-.424-.15-.85-.15-1.274V33.27c0-.191.043-.34.043-.51z" fill="#A0B3D3"/>
    <path d="M21.329 96.155c-.469-.615-1.002-1.189-1.534-1.762-.213-.255-.405-.51-.64-.743-.255-.255-.255-.403.065-.594 1.725-1.062 3.451-2.145 5.177-3.227 1.278-.807 2.599-1.593 3.856-2.442.447-.297.81-.212 1.214-.064.32.128.47.043.597-.254.469-1.126 1.023-2.23 1.406-3.397.17 0 .277.127.384.212.255.213.49.573.788.637.682.17 1.342.488 2.045.573-.042.552.298.7.767.722.15 0 .298.043.448.064.234.212.553.297.767.573-.086.085-.277.085-.277.234.127.106.234-.022.32.02-.193.34.276.447.276.701-.021.468.107.935-.106 1.38-.15.276-.043.489.234.531.596.085 1.065.51 1.683.552.298.021.575.191.874.255.681.17 1.32.424 2.002.53.554.17 1.13.34 1.683.51.107.637.086 1.295.064 1.932-.021.467.128.637.597.53.298-.063.596-.19.895-.233.916-.148 1.81-.445 2.727-.488.17 0 .34-.064.426-.233h.234c.234.063.469.063.618-.192.362.085.682-.19 1.044-.148.064.276.192.53 0 .807-.128.254-.15.53-.17.806-.256 1.678-.98 3.036-2.621 3.716-1.257.51-2.535.403-3.792.063-2.046-.53-3.942-1.465-5.88-2.314a610.853 610.853 0 0 1-5.476-2.378c-.256-.106-.384-.063-.469.213-.277.764-.596 1.486-.916 2.229-.064.17-.106.382-.383.255-.852-.361-1.662-.765-2.578-.977-.107-.064-.192-.17-.32-.19-.405-.086-.405-.298-.256-.595.128-.255.214-.531.32-.786-.106-.064-.149-.021-.213 0-1.704.998-3.43 1.974-5.134 2.972-.256.149-.49.361-.746 0z" fill="#2961A1"/>
    <path d="M30.234 95.729c.255.127.298-.085.383-.255.299-.743.618-1.486.916-2.23.107-.275.213-.339.469-.212 1.811.786 3.643 1.571 5.475 2.378 1.94.828 3.835 1.762 5.88 2.314 1.258.34 2.536.446 3.793-.063 1.662-.68 2.386-2.038 2.62-3.716.043-.276.064-.552.171-.806v3.99c0 .956.49 1.487 1.449 1.487h38.157c.831 0 1.321-.403 1.407-1.104 0-.149.02-.276.02-.425v-6.645c0-.19-.042-.382.043-.552.086 0 .17-.02.235 0 1.065.361 2.194.552 3.302.765 1.577.297 3.175.53 4.772.7 0 .191.022.361.022.552v4.67c0 .234 0 .468.34.49-.02.679.043 1.358-.042 2.037H31.065c-.32 0-.618.064-.917.085-.063-.19.064-.403-.106-.573 0-.319-.021-.637-.021-.977 0-.19-.043-.36-.256-.424.15-.51.426-.977.469-1.486z" fill="#A0B3D3"/>
    <path d="M91.145 51.782c.533 1.232 1.066 2.442 1.556 3.673.106.276.191.34.49.212 2.492-.997 4.985-1.974 7.478-2.972.277-.106.554-.148.852-.106.383.127.767.276 1.15.403-.383 2.463-.745 4.926-1.129 7.389-.447 2.93-.895 5.838-1.342 8.768-1.065.233-2.152.467-3.196.806-.596.128-1.172.255-1.768.425-.405.106-.49.064-.384-.36.426-1.848.81-3.716 1.215-5.563.32-1.38.618-2.739.937-4.119.192-.85.384-1.698.575-2.59-.255.042-.362.191-.51.297-1.237.85-2.472 1.656-3.942 2.06-.746.212-1.492.233-1.982-.531-.042-.064-.106-.043-.17-.043 0-2.314-.021-4.628 0-6.942.021-.255-.128-.594.17-.807z" fill="#49124A"/>
    <path d="M49.962 92.311c-.362-.042-.682.234-1.044.149-.213.02-.469-.064-.618.19h-.234c-.064-.105-.15-.084-.256-.063-1.214.361-2.493.467-3.728.786-.363.106-.554 0-.533-.425.021-.594 0-1.21 0-1.805l.064-4.267v-1.295c0-.255-.128-.255-.298-.106.042-.297.042-.573-.32-.7-.362-.128-.554-.32-.213-.68.107-.127.107-.297.064-.446a1.49 1.49 0 0 1 .043-.807c.106-.297-.17-.828-.405-.934.021-.233.32-.34.298-.594.043-.021.107-.021.128-.043.49-.785 1.065-1.528.895-2.547-.022-.17.064-.383.021-.552-.085-.531.15-.892.554-1.168.192-.085.32-.234.469-.361.255-.212.447-.552.83-.616.022.022.043.022.064.043.022.064.043.064.107.064.32.127.554.382.852.552 1.598.934 2.429 2.314 2.514 4.14l-.042.02.021.022c-.021.106-.021.233-.043.34-.042.297-.085.615.064.891-.042.7.085 1.38.128 2.06.043.615.021 1.23.213 1.825-.106.319-.043.637 0 .956.15 1.316.277 2.632.341 3.97.043.488.277.934.064 1.401z" fill="#F06533"/>
    <path d="m42.953 57.367-.192-2.336a6.9 6.9 0 0 0 2.194-2.441c.64-1.168.96-2.42 1.194-3.737.383-2.144.213-4.31.255-6.475 0-.17.064-.34-.085-.489.81-.424 1.662-.679 2.493-1.04.362-.148.724-.255 1.108-.276 0 .149.02.276.02.425v14.31c0 .127-.02.254-.02.36-1.641-.318-2.727.573-3.75 1.656-.618.658-1.236 1.337-2.11 1.677.022-.17-.063-.276-.17-.403a90.686 90.686 0 0 1-.937-1.231z" fill="#D2DAE9"/>
    <path d="M90.996 59.532c.064 0 .128-.02.17.043.49.764 1.236.743 1.982.53 1.449-.403 2.706-1.21 3.941-2.059.15-.106.277-.255.512-.297-.192.892-.384 1.74-.576 2.59-.298 1.38-.617 2.739-.937 4.119-.511-.064-.916-.361-1.342-.616-1.257-.722-2.535-1.444-3.729-2.271-.106-.616 0-1.253-.063-1.869.02-.063.02-.127.042-.17z" fill="#A0B3D3"/>
    <path d="M49.216 80.847c-.085-1.847-.916-3.206-2.514-4.14-.298-.17-.533-.425-.852-.552-.043-.021-.064-.042-.107-.064-.021-.02-.042-.02-.064-.042-.149-.552-.277-1.104-.426-1.656-.042-.149-.085-.297.043-.403.298-.298.298-.701.383-1.062.362-.255.448-.68.575-1.061.086-.043.086-.085.022-.15.021-.105.021-.211.042-.318.17.022.214.149.277.276.938 2.123 1.96 4.204 2.855 6.348.128.297.128.68.49.85.064.955.043 1.91.022 2.866-.277-.128-.618-.192-.767-.531.021-.106.02-.234.042-.34-.021.021-.021-.021-.021-.021zM68.328 93.543c.021-1.21 1.001-2.166 2.173-2.166 1.215.021 2.216 1.019 2.173 2.208-.021 1.21-1.044 2.165-2.258 2.123-1.172-.021-2.13-1.02-2.088-2.165z" fill="#FDFDFC"/>
    <path d="M49.92 78.872c-.363-.17-.363-.573-.49-.849-.895-2.144-1.918-4.225-2.855-6.348-.065-.127-.107-.254-.278-.276-.042-.68-.276-1.295-.724-1.804-.405-1.062-.916-2.102-1.406-3.142-1.065-2.357-2.152-4.692-3.217-7.049a.375.375 0 0 1 0-.34c.383.722.767 1.465 1.172 2.166 1.022 1.762 1.917 3.61 2.833 5.435.831 1.656 1.64 3.29 2.408 4.968.81 1.804 1.683 3.588 2.407 5.435.043.085.085.106.17.127.022.552.043 1.125-.02 1.677z" fill="#A0B3D3"/>
    <path d="M52.711 30v58.341c0 .149-.021.319-.021.467-.213-.148-.107-.382-.107-.552V30.552c0-.17-.106-.403.128-.552z" fill="#49124A"/>
    <path d="M51.922 26.879c-.042.17-.362.149-.277.403-.788 0-1.427.213-1.683 1.062-.128.424-.042.828-.042 1.252a.65.65 0 0 0-.47.404c-.148.51-.49.552-.915.446-.085-.595-.426-1.147-.107-1.762.469-.659.916-1.317 1.3-2.017.618-.043 1.214.085 1.81.148.065.085.129.107.193.021a.622.622 0 0 0 .191.043zM49.92 40.595c-.384 0-.746.106-1.108.276-.83.36-1.704.616-2.493 1.04-.298-.042-.511.149-.745.276-.64.361-.916.213-1.023-.488v-.191c1.15-.446 2.322-.87 3.473-1.316a47.408 47.408 0 0 0 1.555-.616c.34-.149.405-.043.384.276-.022.255-.022.51-.043.743z" fill="#FDFDFC"/>
    <path d="M49.493 35.776c-.32-1.444-.554-2.909-.788-4.374.042-.021.106-.042.106-.064.341-.785.341-.785 1.13-.594.042 1.677.063 3.354 0 5.053-.171-.021-.32-.021-.448-.021z" fill="#A0B3D3"/>
    <path d="M90.975 59.702c.064.616-.042 1.253.064 1.868-.021.149-.043.276-.043.425v27.111c0 .255.022.531.043.786-.085.17-.043.36-.043.552v6.645c0 .148-.02.276-.02.424-.15-.148-.086-.318-.086-.488V60.19c0-.17-.064-.36.085-.488zM52.86 89c.106 0 .212-.022.319-.022h34.6c.127 0 .255 0 .362.022-.107.17-.277.106-.427.106h-34.45c-.107 0-.277.064-.405-.106z" fill="#49124A"/>
    <path d="M47.001 36.262c.341.106.682 0 1.023.063 0 .446.256.807.384 1.21-.384.128-.64.362-.853.701a2.57 2.57 0 0 1-.916.807c.021-.552.043-1.125.213-1.656.086-.361.086-.743.15-1.125z" fill="#D2DAE9"/>
    <path d="M49.579 86.006c-.192-.594-.15-1.21-.213-1.826-.064-.679-.17-1.38-.128-2.059.234.106.426.255.703.297 0 1.21.021 2.42.021 3.63-.127-.02-.255-.02-.383-.042z" fill="#E5EAF3"/>
    <path d="M48.407 37.538c-.128-.403-.405-.764-.383-1.21.49 0 1-.021 1.49-.021.235.17.256.424.278.679-.426.297-.916.403-1.385.552z" fill="#FBCA84"/>
    <path d="M49.58 86.006c.127 0 .255.021.361.021-.02 1.635-.02 3.27-.042 4.904a62.365 62.365 0 0 0-.341-3.97c-.021-.297-.085-.615.021-.955z" fill="#A0B3D3"/>
    <path d="M49.94 30.721c-.767-.212-.767-.212-1.129.595-.021.042-.085.042-.106.063-.064-.297-.15-.594-.15-.913.427.107.768.064.917-.445.042-.17.234-.361.468-.404.043.361.022.743 0 1.104z" fill="#CAD7E6"/>
    <path d="M49.942 82.417c-.256-.02-.47-.17-.703-.297-.15-.297-.107-.594-.064-.892.149.34.49.383.767.531v.658z" fill="#A0B3D3"/>
    <path d="M49.792 37.006c-.042-.255-.064-.51-.277-.68 0-.19 0-.36-.021-.552h.447c-.02.404.192.85-.149 1.232z" fill="#D2DAE9"/>
    <path d="M90.911 28.217c.107.021.17.064.107.17-.128 0-.128-.064-.107-.17z" fill="#A0B3D3"/>
    <path d="M40.631 80.423c0-.191-.17-.234-.298-.319-1.662-1.082-3.324-2.144-4.943-3.312-1.278-.913-1.364-1.995-.234-3.057 1.086-.998 2.343-1.465 3.834-1.231.214.042.427.021.661.021.64-.021.873-.276.873-.934a1.14 1.14 0 0 1 .597-.021c-.021.254.213.446.15.7-.214.828 0 1.656.02 2.484 0 .255.107.382.427.297.362-.106.767-.148 1.129-.212.149-.021.34-.042.255.234-.127.36-.788.679-1.15.573-.17-.064-.256-.297-.49-.255h.021c0-.021 0-.021-.021-.042h-.021s0 .02.02.042c.257.87.64 1.125 1.492.934.128-.021.277-.064.405-.085.021.043.021.085.043.128-.107.127-.213.276-.341.36-.916.722-1.47 1.678-1.854 2.74h.022l-.192.382c-.064.02-.107.084-.107.17l.022-.022c-.022.085-.064.149-.086.234-.106.085-.17.148-.234.19z" fill="#FDFDFC"/>
    <path d="M41.12 71.59a1.14 1.14 0 0 0-.596.021c-.767-.021-1.513 0-2.28-.106-2.386-.34-3.174-1.975-1.981-4.013.745-.658 1.576-.658 2.471-.36 1.108.381 2.237.742 3.345 1.103.575.17 1.108.404 1.705.489.639.212 1.3.382 1.79.891.447.531.681 1.126.724 1.805-.022.106-.022.212-.043.318 0 .043-.021.106-.021.149-.128.382-.213.807-.576 1.061.022-.382-.064-.679-.532-.679-.277 0-.32-.17-.277-.403.064-.319.085-.658.064-1.04-1.236.467-2.536.551-3.793.764z" fill="#791328"/>
    <path d="M42.485 81.93c.255.085.511.616.404.934-.085.276-.127.531-.042.807.042.149.042.319-.064.446-.34.36-.128.552.213.68.383.127.362.403.32.7-.022.17-.15.234-.277.297.106-.382-.256-.382-.448-.594-.042.318-.021.594-.34.7.149.064.255.128.361.17-.468.234-.553.68-.575 1.147 0 .148-.021.276-.042.403-.128.722-.085 1.465-.32 2.187-.575-.213-1.001-.637-1.491-.977.064-.68.32-1.316.447-1.974.064-.34-.042-.446-.362-.467a42.433 42.433 0 0 1-2.301-.276c-.703-.085-1.406-.149-2.11-.234-.148-.021-.297-.064-.447-.064-.468-.02-.81-.17-.767-.721-.02-.425.022-.87-.063-1.274-.065-.361.042-.786-.341-1.104-.214-.191-.086-.489 0-.743.085-.213.298-.17.468-.191.554-.043 1.108.19 1.662.063.064 0 .15.022.213.022.213.17.469.084.703.063.107 0 .213.021.32.021.234.192.511.085.767.064.085.021.149.043.234.064.15.34.511.212.767.297-.298.807-.149.934.511 1.04.15.022.299.085.448.106.746.17 1.193.043 1.427-.382.192-.34.384-.7.554-1.061.107 0 .15-.064.17-.149z" fill="#F38427"/>
    <path d="M36.412 81.909c-.554.127-1.108-.128-1.662-.064-.192.021-.384-.042-.469.191-.106.255-.234.552 0 .743.384.319.277.722.341 1.104.085.425.043.85.064 1.274-.703-.064-1.364-.403-2.045-.573-.299-.064-.512-.425-.789-.637-.106-.106-.213-.234-.383-.212-.511-.616-.66-1.38-.895-2.102-.106-.297.17-.489.469-.573.234.19.426.424.618.679.106.127.213.34.383.297.192-.064.362-.233.341-.488.447-.021.852.17 1.257.297.15.043.277.085.447 0 .789-.446 1.556-.064 2.323.064z" fill="#FBCA84"/>
    <path d="M42.399 82.143c-.192.36-.363.7-.554 1.061-.256.446-.682.552-1.428.383-.149-.043-.298-.085-.447-.107-.66-.085-.788-.212-.511-1.04-.278-.085-.618.043-.768-.297 0-.021.022-.043.043-.043.362.043.746.085 1.108-.02a.359.359 0 0 1 .107-.043c.106-.022.106-.106.106-.191.043-.064.107-.149.15-.213a.54.54 0 0 0 .233-.51c.022-.042.043-.105.086-.148.362-.127.32-.424.32-.7.02-.085.063-.149.084-.234v.021c0-.063.043-.127.107-.17.256-.02.15-.233.192-.382h-.021c.127.021.191-.063.255-.17.107-.233.235-.467.362-.7.064-.106.107-.276.256-.191.128.064.021.212-.043.276-.213.233-.17.488-.149.743.085.722-.021 1.465.043 2.208 0 .446.128.467.469.467z" fill="#F06533"/>
    <path d="M32.407 81.504c.021.255-.15.425-.341.489-.17.042-.277-.17-.384-.297-.191-.234-.383-.467-.617-.68-.341-.53-.704-1.04-1.044-1.57-.128-.213-.299-.404.063-.638.341-.212.47-.063.618.17.533.85 1.13 1.677 1.705 2.526z" fill="#FDFDFC"/>
    <path d="M40.822 80.273c0 .276.021.595-.32.701.043-.191.086-.36.128-.552.064-.042.128-.106.192-.149z" fill="#791328"/>
    <path d="M38.436 82.078c-.256.021-.533.106-.767-.064.256-.085.533-.148.767.064zM37.328 81.993c-.234.021-.49.128-.703-.063.256-.085.49-.17.703.063z" fill="#FBCA84"/>
    <path d="M40.418 81.123a.54.54 0 0 1-.235.51c0-.213.043-.404.235-.51z" fill="#791328"/>
    <path d="M39.821 82.078c-.362.106-.745.063-1.108.02.363-.084.725-.042 1.108-.02z" fill="#FBCA84"/>
    <path d="M40.034 81.824c0 .085 0 .17-.107.191.022-.063.022-.106.043-.17 0-.02.021-.02.021-.042.043-.021.064-.021.043.021z" fill="#791328"/>
    <path d="M110.298 99.062h-6.434c-.405-.764-.98-1.422-1.577-2.06.086-.169.064-.36.064-.551.022-1.614.022-3.248.022-4.862.319-.148.681-.085 1.001-.085 1.896.021 3.771-.085 5.625-.467.362 1.316.532 2.675.852 3.991.149.595.106 1.232.426 1.784.021.764.021 1.507.021 2.25zM21.329 96.153c.255.361.511.149.745 0 1.726-.998 3.43-1.974 5.135-2.972.043-.021.107-.064.213 0-.107.255-.192.53-.32.786-.149.297-.149.51.256.594.107.021.213.127.32.191-.192.446-.384.913-.576 1.359-.149.042-.298.042-.447.106-1.555.637-3.09 1.295-4.623 1.932-.213.085-.277.212-.256.425-.149.148.064.318-.021.467-.767.042-1.534.063-2.301.106 0-.085-.021-.17-.021-.255.49-.212 1-.042 1.49-.106.086 0 .214.021.235-.085.043-.106-.085-.149-.149-.212-.426-.34-.873-.68-1.3-1.02.341-.381.853-.53 1.236-.849.15-.127.299-.254.384-.467z" fill="#A0B3D3"/>
    <path d="M102.289 97.026c.596.637 1.171 1.274 1.576 2.06-.085.233-.277.276-.49.276-1.108 0-2.237-.021-3.345-.021-.192 0-.32-.064-.383-.255.085-.68.021-1.359.042-2.038.874 0 1.747-.022 2.6-.022zM110.299 99.063v-2.229h2.727c.362.446.725.913 1.087 1.359.192.255.383.53.319.87-1.384.17-2.748.064-4.133 0z" fill="#593840"/>
    <path d="M21.733 99.064c.107-.149-.128-.319.021-.467.746 0 1.492.02 2.238.02 2.024 0 4.026-.02 6.05-.02.17.17.043.403.107.573-.128.148-.299.085-.426.085h-7.478c-.192 0-.448.085-.512-.191zM19.41 98.892c0 .085.022.17.022.255.021.319-.128.382-.426.382h-7.5c-.511 0-.596-.148-.383-.658h8.18c.022 0 .065 0 .107.021z" fill="#FDFDFC"/>
    <path d="M112.387 51.633c.171-.042.256.085.32.213 1.449 2.526 2.983 5.031 4.176 7.706.255.574.277 1.126.106 1.72-1.15 1.507-2.365 1.868-4.303 1.231a8.45 8.45 0 0 1-2.301-1.189c-.235-.17-.363-.19-.384.17-.192 1.932-.405 3.864-.618 5.817a21.03 21.03 0 0 0-.085 1.147 4016.5 4016.5 0 0 0-.383 3.44c-.022.105.063.275-.086.318-.128.042-.213-.107-.298-.17-.234-.149-.383-.446-.703-.467v.02c.043-.063-.021-.084-.064-.084-.064-.17-.213-.255-.341-.36-.383-.32-.831-.553-1.15-.977.532-5.18 1.065-10.34 1.598-15.52.149-.127.191.042.255.085 1.342 1.104 2.663 2.23 4.006 3.354.085.085.149.191.362.191-.661-1.931-1.321-3.842-1.982-5.753.554-.403 1.279-.51 1.875-.892z" fill="#49124A"/>
    <path d="M107.848 54.648c-.532 5.18-1.065 10.34-1.598 15.52-.341.084-.639-.043-.958-.107a1002.75 1002.75 0 0 1-3.281-.573 16.272 16.272 0 0 0-1.769-.34c.448-2.93.895-5.838 1.342-8.768.384-2.462.746-4.925 1.13-7.388.298-.085.532.149.83.17.81.276 1.598.637 2.493.658.384.255.852.34 1.279.446.234.064.426.149.532.382z" fill="#FDFDFC"/>
    <path d="M114.326 43.821c.49.467.362 1.104.384 1.678v2.462c0 .085-.022.191 0 .276.085.234-.341.446-.086.616.15.106.448-.043.661-.043.192 0 .405-.063.575.085-1.299.191-2.62.34-3.899.743-.298.085-.575.192-.831.383-.426.084-.83.212-1.193.445-1.491.085-2.386-.913-2.173-2.399.022-.19.149-.254.277-.34 1.364-.657 2.621-1.464 3.92-2.25.639-.382 1.215-.849 1.811-1.295.213-.106.384-.233.554-.36z" fill="#EE6C80"/>
    <path d="M105.996 53.82c-.895-.02-1.683-.382-2.493-.658.085-.828.043-1.655.17-2.483.043-.255.022-.489-.213-.701-.362-.361-.596-.786-.532-1.338.042-.063.106-.19.149-.212.745-.106.511-.573.362-1.019-.021-.064-.043-.149-.085-.212-.149-.297-.022-.361.255-.404a96.55 96.55 0 0 0 2.451-.297c.042.085.149.17.127.234-.17.828.022 1.677-.127 2.505.063.255.127.51.063.764-.106.446-.063.892-.085 1.316-.021.255.064.404.277.51-.532.064-.532.446-.447.828.149.425.128.785.128 1.168z" fill="#FBCA84"/>
    <path d="M106.102 46.518c-.809.106-1.64.191-2.45.297-.277.022-.405.106-.256.404.043.063.043.148.086.212.149.446.383.892-.363 1.019-.063 0-.106.127-.149.212a70.073 70.073 0 0 0-1.129-2.654c-.128-.297-.064-.403.235-.488 1.171-.424 2.322-.892 3.494-1.295.66-.212 1.193-.552 1.597-1.104.107-.17.256-.297.512-.403-.256 1.252-.533 2.505-.788 3.757-.299-.02-.554-.042-.789.043z" fill="#791328"/>
    <path d="M109.958 50.445c.362-.234.767-.361 1.193-.446.128.191.341.085.511.17.639.297.767.828.746 1.465-.597.382-1.321.488-1.896.913-.597-.17-.916-.998-.682-1.699.021-.148.085-.276.128-.403zM106.379 51.867c-.213-.106-.298-.254-.277-.51.022-.445 0-.89.085-1.315.064-.255 0-.51-.063-.765.426-.02.809-.106.809-.658 0-.233.043-.467 0-.68-.106-.424-.064-.848-.064-1.273.341.255.32.658.405.998.277 1.04.554 2.08.362 3.184-.149.722-.469 1.04-1.257 1.02zm0-2.038c0 .446.171.743.49.956.085.063.192 0 .235-.064.234-.297.085-.616 0-.913a.164.164 0 0 0-.043-.085c-.085-.19-.192-.382-.426-.34-.277.043-.234.298-.256.446z" fill="#FBCA84"/>
    <path d="M106.868 46.645c0 .424-.042.85.064 1.274.064.212 0 .446 0 .68 0 .551-.383.636-.809.657.128-.828-.043-1.677.128-2.505.021-.064-.086-.148-.128-.233.234-.107.49-.064.724-.085 0 .084 0 .148.021.212z" fill="#FBCA84"/>
    <path d="M107.806 71.591c.319.021.468.319.703.467.106.064.191.212.298.17.149-.042.085-.212.085-.318l.384-3.44c2.109-.042 3.963-.7 5.603-2.038 1.385-1.125 2.322-2.611 3.068-4.204.085.298.213.616.256.913.234 1.55.767 2.994 1.384 4.395.32.7.789 1.38 1.321 1.974.299.34.682.659.853 1.105h-3.452c-.532 0-.618.106-.618.615v3.673c0 .743.043.807.789.764.767-.042 1.491 0 1.96.722.021.021.085.021.127.043.235.233.384.02.469-.128.426-.594 1.002-.785 1.705-.68.17.022.341 0 .511 0 .362.022.49-.126.49-.487-.021-1.02 0-2.038.021-3.058.448.234.938.404 1.342.701.448.319.938.53 1.428.7-.021.064-.064.128-.085.192a27.133 27.133 0 0 1-1.577 4.989 23.443 23.443 0 0 1-1.917 3.609c-.043.064-.022.149-.022.234-1.342-.085-2.514.34-3.472 1.295-1.002.997-1.47 2.229-1.407 3.651-.703.51-1.47.934-2.237 1.359a21.11 21.11 0 0 1-3.11 1.338c-.256.084-.533.148-.725.36-.191-.53-.234-1.082-.34-1.634-.256-1.338-.597-2.675-.789-4.013-.128-.87-.277-1.74-.447-2.59-.149-.743-.384-1.486-.533-2.23-.298-1.4-.703-2.78-1.044-4.182-.277-1.104-.618-2.186-.895-3.29-.063-.319-.319-.637-.127-.977z" fill="#D2DAE9"/>
    <path d="M107.807 71.59c-.191.34.064.658.149.956.277 1.104.618 2.186.895 3.29.341 1.402.746 2.76 1.044 4.183.149.743.384 1.486.533 2.229.17.85.319 1.72.447 2.59.192 1.359.554 2.675.789 4.013.106.552.149 1.104.34 1.634.192 1.147.384 2.314.576 3.46.149.829.298 1.678.468 2.506.022.128.043.255-.021.361H110.3c-.32-.552-.298-1.189-.426-1.783-.32-1.317-.49-2.675-.852-3.992-.022-.148-.022-.318-.043-.467-.469-2.293-.916-4.585-1.406-6.857-.17-.764-.213-1.571-.597-2.293-1.044-1.932-2.066-3.885-3.11-5.817-.192-.34-.32-.743-.639-1.083-.171.319-.022.616-.192.85.021-.17-.064-.277-.192-.404-.17-.17-.17-.446-.021-.594.426-.361.49-.807.49-1.317V71.57c0-.255-.043-.446-.277-.594-.298-.213-.298-.595.021-.828.086-.064.149-.107.128-.213-.021-.106-.106-.148-.213-.17-.149-.02-.298.043-.405-.02-.191-.107-.554.084-.575-.32 1.087.192 2.194.404 3.281.574.32.064.618.191.959.106.298.404.767.658 1.15.977.128.106.277.19.341.36l-.064.064c.064.085.107.085.149.085z" fill="#F06533"/>
    <path d="M118.075 87.429c-.064-1.423.404-2.654 1.406-3.652.937-.955 2.109-1.359 3.473-1.295 1.832.064 3.174.955 3.984 2.548.831 1.635.681 3.27-.384 4.734-1.96 2.739-5.752 2.484-7.499.127-.576-.764-.853-1.57-.98-2.462zm5.219-.064c-1.044 0-2.066 0-3.11-.021-.277 0-.362.148-.298.382.319 1.38 1.704 2.569 3.238 2.25 1.193-.063 2.344-1.125 2.493-2.293.021-.233-.022-.36-.277-.34-.682 0-1.364 0-2.046.022zm1.215-2.017c-.021-.276-.192-.424-.511-.424-.32 0-.469.17-.491.488-.021.382.235.488.533.488.32 0 .448-.19.469-.552zm-2.514.085c0-.318-.128-.488-.469-.51-.362-.02-.511.17-.511.51 0 .319.192.488.49.488.298-.02.49-.148.49-.488z" fill="#FDFDFC"/>
    <path d="M34.985 37.6c.15-.403.533-.425.852-.488.576-.106 1.108.063 1.64.255.768.297 1.514.552 2.344.445.277-.042.405.213.618.276.49.298.959.574 1.449.87.32.15.34.34.17.659-.298.53-.532 1.104-.788 1.656-.021 0-.064 0-.085-.021-2.045-1.274-4.133-2.442-6.2-3.652z" fill="#593840"/>
    <path d="M34.984 37.6c2.067 1.21 4.176 2.378 6.2 3.652.022.021.064.021.085.021v.191c-.127.68-.32.786-.873.404-1.002-.7-2.152-1.189-3.153-1.89-.618-.445-1.3-.785-1.982-1.104-.298-.148-.426-.488-.788-.53-.085 0-.043-.128 0-.191.107-.234.213-.489.511-.552z" fill="#FDFDFC"/>
    <path d="M44.955 34.351c.341-.573.597-1.189 1.066-1.677.149.594.298 1.21.468 1.804-.085.17-.17.255-.404.213-.384-.085-.789-.106-1.13-.34z" fill="#CAD7E6"/>
    <path d="M41.887 38.96c-.49-.297-.958-.573-1.448-.87.17-.213.34-.446.49-.658.426.318.788.7 1.171 1.061-.106.127-.17.297-.213.467z" fill="#FBCA84"/>
    <path d="M49.728 26.687c-.383.701-.83 1.36-1.3 2.017-.212 0-.319-.148-.319-.318 0-.552-.234-1.083-.298-1.635-.021-.17-.043-.425.234-.382.575.106 1.15.106 1.683.318z" fill="#593840"/>
    <path d="M57.505 21.912h3.664c.064 0 .107.043.17.064h-3.813c0-.043-.021-.064-.021-.064z" fill="#EE6C80"/>
    <path d="M51.731 26.86c-.064.084-.128.063-.192-.022a.59.59 0 0 1 .192.021z" fill="#CAD7E6"/>
    <path d="M14.17 48.046c-.511.361-.873.892-1.342 1.295-.192.17-.298.149-.447-.02-.895-.893-1.812-1.742-2.664-2.655-.532-.573-.468-1.252-.191-1.953.277-.637.788-.913 1.427-.998.49-.063.959-.021 1.385.297.149.107.277.128.469.043 1.278-.616 1.768-.53 2.77.446 0 .085.02.148.106.19.17.49.213.977.085 1.487v.127c-.043.043-.064.085-.107.128-.298.467-.788.764-1.107 1.21-.086.042-.17.085-.192.191-.107.042-.17.106-.192.212z" fill="#FDFDFC"/>
    <path d="M15.768 46.199c.127-.51.063-.998-.086-1.486.405.212.47 1.21.086 1.486zM14.17 48.046c0-.128.063-.17.191-.191 0 .127-.064.19-.192.19zM14.361 47.855c.022-.106.086-.148.192-.19 0 .126-.064.19-.192.19zM15.683 44.713a.223.223 0 0 1-.107-.191c.085.042.107.106.107.19zM15.66 46.454c.043-.043.064-.085.107-.128a.562.562 0 0 0-.107.128z" fill="#F27E6B"/>
    <path d="M8.673 42.547v1.062c0 .127.042.297-.086.34-.468.233-.383.615-.298 1.019.128.594-.213 1.146-.192 1.74 0 .213 0 .383.277.425.235.042.277.255.277.467v3.822c0 .36-.383.615-.34 1.019 0 .084-.214.063-.342.063H6.244c-.448 0-.959-.51-.959-.955v-10c0-.403.49-.87.959-.87.511-.021 1.001.021 1.512 0 .49-.021.895.467.895.955.022.319.022.616.022.913zM9.227 46.708c.021.233-.064.36-.298.403-.15.022-.17-.085-.17-.212.02-.234.106-.446.34-.488.17-.022.107.19.128.297z" fill="#F5875F"/>
    <path d="m12.934 54.735-.021-.022c.021 0 .021 0 .021.022.022 0 0 0 0 0zM123.784 72.079c0 1.019-.021 2.038-.021 3.057 0 .36-.128.51-.49.488-.17 0-.341.021-.511 0-.703-.085-1.279.085-1.705.68-.106.148-.255.36-.468.127.255-.212.468-.403.532-.764.022-.191.192-.255.405-.255.32.021.362-.234.234-.404-.277-.34-.362-.742-.532-1.103.17-.192.362-.383.532-.574.469-.53.427-.913-.149-1.358 0-.064 0-.128.022-.192.191-.636.191-.658-.427-.955-.063-.021-.106-.042-.063-.148.213-.085.447-.022.681-.043h1.492c.341-.021.468.17.468.488-.021.34 0 .637 0 .956z" fill="#EE6C80"/>
    <path d="M121.227 73.925c.171.361.256.765.533 1.105.128.148.085.403-.234.403-.192 0-.363.063-.405.255-.064.34-.277.552-.533.764-.042-.021-.106 0-.128-.043-.468-.721-1.193-.764-1.96-.721-.745.042-.788-.043-.788-.765V71.25c0-.53.085-.615.618-.615h3.451c0 .021 0 .042.022.063-.235.022-.469-.042-.682.043-.043.085.021.127.064.148.618.298.618.319.426.956-.021.064-.021.127-.021.191-.49-.043-.959.127-1.471 0-.255-.064-.532.127-.639.425-.106.297-.085.573.128.806.192.213.384.404.575.595.533.446.533.446 1.044.064zm-3.345-.764v1.847c0 .234.064.425.277.467.512.085 1.066.085 1.492-.148.319-.17.17-.659.17-.998 0-.064-.021-.127 0-.191.085-.276-.021-.446-.234-.616-.639-.53-.618-1.21.064-1.74.191-.15.191-.277.085-.468-.17-.318-.384-.573-.81-.467-.106.021-.255 0-.362-.021-.469-.085-.682.064-.682.53-.021.595 0 1.21 0 1.805zM123.295 70.678h-.746a1.12 1.12 0 0 1 .746 0zM57.355 5.5h-.191c.064-.574.149-1.126.17-1.699.021-.34.192-.403.447-.34.384.085.576.361.576.743 0 .383-.192.722-.575.722-.427.022-.427.255-.427.574z" fill="#F27E6B"/>
    <path d="M60.253 7.837c-.128 0-.192-.064-.17-.191.106 0 .148.084.17.19z" fill="#F06533"/>
    <path d="M60.36 8.006c-.107-.021-.128-.085-.128-.17.106.021.127.106.127.17zM60.062 7.624c-.064-.021-.086-.042-.086-.106.022.042.064.085.086.106zM59.784 7.37c-.043-.022-.064-.043-.107-.064.043.021.064.042.107.064z" fill="#F06533"/>
    <path d="M57.419 6.243c-.022-.02-.022-.042-.043-.063l.021-.022c.043.043.043.064.022.085z" fill="#F27E6B"/>
    <path d="M121.889 47.579c-.043.17.106.467-.086.552-.234.106-.362-.17-.511-.319-1.853-1.634-2.727-3.736-2.876-6.157l-.064-.87c0-.106-.043-.276.085-.34.149-.085.256.064.362.149a8.497 8.497 0 0 1 1.982 2.611c.682 1.359 1.044 2.824 1.108 4.374z" fill="#49124A"/>
    <path d="M9.973 86.791c.064.276-.128.489-.32.7-.916.914-1.13.914-1.939-.127-.149-.17-.277-.36-.277-.615 0-.573.469-.913 1.002-.7.213.084.404.063.618.02.617-.148.937.106.916.722zM26.143 24.29c.66.021 1.32.021 1.96.043.021.02.021.042.042.063-.191 1.147-.767 1.699-2.024 1.996-.937-.043-1.683-.382-2.109-1.232-.042-.063-.085-.127-.106-.212-.192-.573-.15-.637.468-.637.597 0 1.172.043 1.769-.021zM24.652 23.1c-.064-.424.106-.594.532-.53.043.19.086.382.128.552l-.021.02c-.107-.042-.192.022-.213.128h-.15c-.02-.148-.149-.17-.276-.17z" fill="#FDFDFC"/>
    <path d="M25.333 23.121c-.042-.19-.085-.382-.128-.552.341.107.341.298.128.552zM24.653 23.1c.128 0 .255.02.277.17-.128.02-.235-.022-.277-.17zM25.1 23.27c.043-.106.107-.148.213-.127-.021.127-.106.17-.213.127z" fill="#FBCA84"/>
    <path d="M99.39 21.804c.469-.53 1.001-.785 1.683-.403.149.085.277-.021.384-.064.34-.127.66-.148 1.001.021.66.574.682 1.04.128 1.826l-1.215 1.147c-.106.106-.213.212-.383.042-.469-.488-.959-.955-1.428-1.443-.085-.085-.127-.234-.191-.361v-.552c0-.085.021-.149.021-.213z" fill="#FDFDFC"/>
    <path d="M99.39 21.805c0 .063-.02.127-.02.17-.043-.022-.129-.064-.129-.085 0-.085.086-.085.15-.085z" fill="#F27E6B"/>
    <path d="M19.411 98.892c-.043 0-.064-.02-.107-.02.107-.425-.02-.85.022-1.275.128-.042.255-.063.383-.106.426.34.874.68 1.3 1.02.064.063.17.084.15.212-.044.106-.15.085-.235.085-.512.042-1.023-.128-1.513.084z" fill="#CAD7E6"/>
    <path d="M26.974 22.506c.212 0 .34.17.319.382 0 .212-.128.382-.383.36-.235-.02-.384-.127-.384-.36 0-.255.17-.36.448-.382z" fill="#E5EAF3"/>
    <path d="M28.146 24.397c-.02-.021-.02-.043-.042-.064.021 0 .043.043.043.064z" fill="#F38427"/>
    <path d="M101.948 26.815c-.213-.318-.149-.446.298-.51-.042.192-.298.255-.255.468 0 .042 0 .042-.043.042z" fill="#EE6C80"/>
    <path d="M6.244 68.619c0-1.402 1.023-2.293 2.535-2.336 1.193-.042 2.301 1.168 2.323 2.378.02 1.295-1.215 2.463-2.514 2.4-1.343-.065-2.365-1.062-2.344-2.442zm2.152.934c.064.19-.17.594.213.615.405 0 .192-.403.234-.636v-.043c0-.594 0-.573.618-.594.234 0 .64.17.64-.213 0-.424-.427-.233-.683-.233-.596-.021-.575-.021-.596-.616 0-.233.17-.637-.213-.637-.405-.021-.235.404-.235.637-.02.637 0 .616-.617.637-.235 0-.64-.149-.66.212 0 .404.404.234.638.234.66 0 .66-.021.66.637zM75.209 23.95c-1.449.042-2.45-1.147-2.472-2.378 0-1.338 1.108-2.42 2.344-2.442a2.466 2.466 0 0 1 2.471 2.57c-.021 1.23-1.022 2.25-2.343 2.25zm1.448-2.442c0-.17-.149-.17-.255-.17-.32-.021-.725.149-.938-.085-.213-.212-.042-.615-.085-.934-.021-.127 0-.255-.192-.276-.149 0-.213.106-.255.234-.022.063-.022.148-.022.233-.042.807-.042.807-.852.828h-.042c-.15 0-.32 0-.32.234 0 .233.15.233.32.233.277.021.617-.106.81.064.212.212.063.552.084.85.022.169.022.318.256.296.192 0 .213-.127.213-.276.021-.297-.128-.637.085-.849.213-.212.554-.064.853-.064.191-.02.298-.127.34-.318zM126.172 59.977c-1.406 0-2.365-.998-2.407-2.42-.043-1.125 1.235-2.463 2.471-2.357 1.3.085 2.386 1.125 2.386 2.442 0 1.337-1.044 2.335-2.45 2.335zm.661-2.569c-.533.17-.469-.233-.448-.552 0-.127.064-.233.064-.36 0-.192-.085-.362-.277-.362-.256-.02-.128.213-.149.34-.021.085 0 .191 0 .276 0 .658-.171.786-.831.658-.192-.042-.405-.085-.447.17-.022.276.213.255.404.255.853.042.853.042.874.87v.085c0 .128.021.276.17.297.192.022.192-.148.213-.297.022-.297-.127-.68.086-.891.213-.213.596-.043.894-.085.15-.022.299-.043.299-.213 0-.19-.192-.233-.341-.212-.171.021-.32.106-.511.021z" fill="#FDFDFC"/>
    <path d="M73.121 61.868c-1.257.085-2.514.043-3.771.043H56.61c-.192 0-.405.085-.576-.106-.234-.68-.192-1.36-.192-2.06v-7.112c.022-.573.214-.764.789-.764H68.775c.127 0 .383-.106.383.127 0 .191-.234.149-.383.149-.703 0-1.406.021-2.11 0-.404-.021-.788-.106-1.193-.085-.127 0-.298 0-.298.148 0 .192.192.128.298.128h.746c.15 0 .277.021.341.17.106.276.32.297.554.297.256 0 .511.064.788.085.107.021.213.042.15.17-.342.615.17.488.447.488 1.683.021 3.366 0 5.05 0 .148 0 .361-.085.447.149-.192 0-.363.02-.555.02H57.846c-.149 0-.277 0-.426.022-.085 0-.15.064-.128.149 0 .063.064.106.128.106.15 0 .277.021.426.021h4.197c2.493 0 4.986.021 7.457.021-.085.276-.298.149-.469.17-.32.043-.66-.064-1.044.127.448.128.831.043 1.194.085.17.022.404-.106.468.085s-.128.361-.255.51c-.128.148-.299.127-.47.148-.297.022-.617-.042-.915.107.681.106 1.363.063 2.045.17 1.15.17 2.322.106 3.494.106.15 0 .32-.064.384.17-.192 0-.363.02-.554.02H57.824c-.17 0-.469-.105-.49.128 0 .297.32.17.49.17 3.43 0 6.839 0 10.269.021.426 0 .83.021 1.257.021-.085.213-.256.128-.405.128-.873.021-.873.021-.916.892v.467c-.362 0-.746.02-1.13.02h-9.203c-.15 0-.383-.084-.383.128-.022.234.234.149.362.149h5.539c2.6 0 5.198.021 7.798.021-.064.021-.15.085-.213.085-.789-.064-1.577.148-2.365.106-.17 0-.341.021-.511.064-.15.064-.192.106-.107.255.277.488.234.573-.34.594-.278 0-.555-.085-.938.17.83.021 1.534.021 2.215.19-.17 0-.34.022-.51.022-3.538 0-7.074 0-10.61.021a.065.065 0 0 0-.086 0h-.17c-.192.064-.256.128-.043.255l.042.021c.512.107 1.044.085 1.556 0 3.046 0 6.093-.02 9.14 0 1.534 0 3.068.022 4.623.022-.085.233-.298.127-.447.127h-3.836c-.234 0-.468-.021-.34.34.064.212-.107.212-.256.212h-.895c-.149 0-.298.042-.298.233 0 .192.17.15.298.15.767-.043 1.513.127 2.258.19.107 0 .256-.042.256.106 0 .17-.149.17-.277.17-.639.043-1.3.064-1.939.106-.127 0-.276-.042-.404.128.34.106.681.042.98.063 1.576.128 3.132.298 4.708.192a.58.58 0 0 1 .618.17zm-6.157-3.588c.064 0 .128 0 .128-.084 0-.085-.064-.085-.128-.085s-.128 0-.128.085c0 .084.064.084.128.084zM66.496 34.013c.724 0 1.427-.02 2.151-.02h15.319c.66 0 .767.105.767.785v6.56c0 .594-.107.764-.618.764h-9.95c-.063 0-.127-.021-.191-.021.064-.212.255-.149.383-.149.299-.02.64.064.874-.063.788-.383 1.64-.17 2.45-.404.277-.085.511-.127.64-.446-.576-.127-1.194.128-1.684-.318.511-.403 1.065-.488 1.832-.319.448.086.895.064 1.47 0-.17-.084-.213-.127-.234-.127-1.577.085-3.132-.255-4.687-.276-3.835-.042-7.649-.021-11.484-.021h-4.943v-.106H82.772c.171 0 .47.064.47-.149 0-.297-.32-.17-.49-.17-1.705-.02-3.388 0-5.092 0-3.793 0-7.564 0-11.356-.02.064-.107.192-.107.298-.107 1.044.064 2.067-.149 3.11-.085.384.021.661-.233 1.023-.297-.17-.064-.34-.064-.51-.064-.107 0-.214-.042-.257-.17-.042-.148.086-.148.17-.212.171-.149.427-.106.597-.297-.234-.043-.447-.043-.681-.064-.17-.021-.384.106-.49-.149 1.768 0 3.536-.02 5.326-.02h7.925c.128 0 .363.084.363-.15 0-.17-.235-.127-.362-.127h-2.387c-1.704 0-3.387-.021-5.092-.021.15-.255.405-.255.64-.255h1.81c.15 0 .363.043.363-.17 0-.19-.213-.085-.341-.106-.192-.021-.405-.021-.597-.042-.128-.021-.213-.128-.192-.276.022-.149.15-.149.256-.149h.511c.426-.021.874.064 1.321-.042-.064-.17-.17-.128-.234-.128-1.385-.042-2.77.064-4.176-.085-.639-.063-1.3 0-1.96-.02-.149 0-.362.063-.405-.192.17 0 .341-.021.512-.021 3.26 0 6.54 0 9.8-.021.192 0 .533.127.533-.17 0-.234-.341-.128-.512-.128h-15.83c-2.77 0-5.539.022-8.308.022.085-.17.234-.128.362-.128h7.478c1.875.085 3.75-.148 5.646-.085h.192c.106 0 .191-.042.191-.148 0-.128-.128-.107-.213-.128h-.937c-.277 0-.49-.382-.384-.594.256-.488.192-.595-.383-.595h-3.6c-.107-.106-.32-.02-.384-.276z" fill="#EE6C80"/>
    <path d="M82.943 62.675c-.022-.021-.022-.021-.022-.043-.191-.721-.49-.955-1.235-.976-1.513-.043-3.047.106-4.56-.085-.149-.021-.34.021-.34-.212 0-.276-.192-.255-.384-.276-.234 0-.469.042-.682-.064-.064-.042-.128-.085-.128-.17.022-.085.086-.106.17-.127.256-.022.533 0 .79-.043.276-.042.51-.17.361-.53-.106-.298.086-.361.32-.361 1.449.042 2.897-.107 4.325.085a.785.785 0 0 0 .532-.15c.128-.084.086-.169-.064-.211a.648.648 0 0 0-.149-.107c-.042-.02-.085-.02-.127-.042 0-.021-.022-.042-.022-.064-.149-.085-.34-.063-.49-.063H75.38c-.042-.022-.106-.085-.149-.085-.767.106-1.513-.149-2.258-.276-.405-.085-.426-.404-.448-.658-.02-.298.277-.192.427-.17.617.042 1.193-.128 1.81-.106.66.042 1.321.127 1.982.084.149 0 .362.085.426-.17h1.875c.682.192 1.385.043 2.066.086.235 0 .49.106.725-.085.085-.043.192-.085.149-.192-.064-.148-.213-.106-.341-.106-1.13-.02-2.237-.02-3.366-.042-.235-.297-.554-.085-.81-.149-.149-.02-.383.064-.426-.063-.128-.319-.362-.255-.596-.319-.426-.106-.831-.042-1.257-.063-.384-.022-.448-.361-.47-.595-.02-.276.278-.149.427-.149 2.045-.02 4.07 0 6.115-.02.17 0 .383.105.49-.128.064-.021.127-.021.191-.043.064.085.15.064.17-.042.043-.127 0-.255-.17-.255 0-.212-.17-.255-.32-.276-.148 0-.127.127-.148.234H78.49c-.043-.191-.192-.17-.32-.17-.767 0-1.512.042-2.28-.085-.127-.021-.34.085-.319-.127 0-.17.213-.15.34-.15h2.004c.106 0 .277.086.34-.127-.063-.02-.106-.042-.149-.042-.404-.064-.958.212-1.107-.488-.022-.128-.256-.085-.384-.085h-2.237c-.107 0-.256.063-.298-.128.149-.106.298-.063.447-.063h3.451c.15 0 .363.085.427-.149a8.76 8.76 0 0 1 1.491 0c.021.127.128.17.234.17h1.3c.106 0 .213-.021.234-.149.107-.063.277 0 .341-.148.043-.106-.085-.149-.149-.191-.085-.213-.213-.191-.362-.064v.042a5.844 5.844 0 0 1-1.492 0c-.063-.19-.212-.148-.34-.148-1.705.063-3.41-.127-5.114-.106-.149 0-.32.063-.468-.085.149-.149.32-.085.468-.085h2.43c.148 0 .319 0 .297-.213-.02-.148-.17-.17-.298-.17h-1.023c-.106 0-.298 0-.276-.084.106-.361-.192-.488-.427-.68.277-.084.49-.148.725-.17.937-.02 1.853-.02 2.79-.063 1.684-.085 3.367-.021 5.029-.021.426 0 .618.148.618.615-.022 3.525 0 7.028-.022 10.552 0 .19.128.51-.106.573-.17.042-.384-.212-.511-.403-.022-.043-.064-.064-.086-.107-.17-.318-.426-.424-.745-.424z" fill="#F5875F"/>
    <path d="M61.36 71.102c.17-.021.341-.042.512-.042h22.093c.703 0 .767.106.767.828 0 2.207.022 4.394.022 6.602 0 .467-.214.7-.746.722H58.889c-.192 0-.405.021-.597.042v-.084c.022 0 .064-.022.086-.022.021-.02.064-.042.085-.063h5.05c4.857 0 9.693.042 14.55-.106.129 0 .363.084.363-.15 0-.211-.192-.296-.384-.318-.191 0-.404-.02-.596 0-.341.022-.469-.106-.469-.445 0-.383.064-.743.107-1.104 1.853 0 3.728-.022 5.582-.043.191 0 .532.085.532-.106 0-.276-.34-.149-.532-.149-1.918-.02-3.857-.02-5.774-.02.213-.32.511-.298.81-.234.191.042.362.106.553-.022-.127-.17-.276-.212-.426-.19-.681.063-1.342-.298-2.024-.192-.106.022-.255-.021-.255-.148-.022-.17.149-.128.234-.128.66.043 1.321-.148 2.003-.106.128 0 .277.043.447-.148-1.086-.128-2.088-.15-3.068-.192-3.366-.127-6.754-.042-10.12-.042h-5.923c-.17 0-.383.085-.51-.106H82.985c.127 0 .297.021.297-.149.022-.212-.17-.17-.298-.17h-1.448c-4.006 0-7.99 0-11.995-.02.106-.15.255-.107.383-.107.767.042 1.513-.149 2.28-.106.106 0 .298.042.298-.128s-.17-.127-.298-.148c-.341-.043-.725.127-1.002-.085-.362-.255-.724-.297-1.129-.297-.128 0-.277.063-.447-.191h4.218c-.128-.17-.213-.17-.277-.17-.724.042-1.448-.149-2.173-.106-.128 0-.298.042-.34-.149.17 0 .34-.021.51-.021H82.73c.149 0 .276 0 .426-.022.085 0 .17-.042.17-.127 0-.085-.085-.127-.17-.127-.15 0-.32-.022-.47-.022h-6.305c-.767 0-1.556-.02-2.323-.02.043-.128.128-.15.256-.15.852.064 1.704-.127 2.557-.105.49.02.958 0 1.448 0 .213 0 .47 0 .15-.276-.15-.128-.107-.234.02-.34.193-.149.427-.234.683-.234.17 0 .383.106.596-.19-.575.084-1.044-.17-1.534-.15-.745.022-1.47-.212-2.216-.042-.064.021-.191-.042-.255-.085-.213-.17-.448-.17-.703-.17H61.446c-.086-.042-.086-.085-.086-.127z" fill="#EE6C80"/>
    <path d="M66.41 35.753h-7.478c-.128 0-.298-.042-.362.128-.17.233 0 .276.17.34.15.17.341.105.533.105 2.258-.02 4.516 0 6.775.191.085 0 .192-.02.192.15-.277.084-.554.042-.81.042-.298 0-.469.042-.34.403.106.297-.022.467-.384.446-.235-.021-.47 0-.703 0a34.252 34.252 0 0 1-5.114 0c-.191-.021-.405-.106-.554.127-.085.149-.149.34-.02.425.212.127.49.19.68-.064a7.77 7.77 0 0 1 1.407 0c.021.106.106.17.192.149 1.001-.128 1.981.297 2.983.19.234-.02.468 0 .703 0 .085 0 .234-.063.255.192-.767-.085-1.47.19-2.215.276.362.19.745 0 1.171.19-.383.15-.767 0-1.044.256-.021.02-.128-.022-.17-.043-.256-.19-.49-.17-.767.021-.17.128-.405.15-.618.15h-2.344c-.17 0-.383-.043-.383.211 0 .17.064.383.34.34h4.944c-.15.319-.448.276-.725.276-.745.021-1.491.064-2.3.234.191.233.383.233.596.233.66.043 1.32-.17 2.002-.106.171.021.384-.021.384.212 0 .234-.234.149-.362.149-.298.021-.597.021-.874.042-.085 0-.213.064-.191.213.02.106.127.106.234.106h.83c.129 0 .342-.021.342.148 0 .191-.192.213-.341.213-.256.02-.49 0-.746 0-.234 0-.34.106-.34.34-1.002.042-2.003.063-2.983 0-.086-.213-.17-.213-.277 0-.15.02-.299.042-.448.063-.149-.021-.213.043-.213.191-.021.021-.042.064-.085.085-.043.042-.064.085-.107.106-.02.022-.042.043-.085.085-.042.043-.085.064-.106.106-.47.595-1.066 1.062-1.598 1.614-.15-.149-.085-.319-.085-.467v-9.108c0-.17-.064-.382.085-.53.255 0 .511.02.767 0 .17 0 .383.105.447-.17 2.003-.043 3.984-.043 5.987 0 .213.403.17.445-.277.445h-.703c-.128 0-.32-.042-.32.17 0 .255.192.191.341.191h.554c.298 0 .66-.106.788.361.022.127.17.106.277.106.703 0 1.385.17 2.088.085.363-.021.469.085.405.382zM61.36 71.228h2.046c.15.34.064.531-.362.468-.17-.022-.341 0-.511 0-.17 0-.427-.064-.448.106-.043.19-.128.488.021.637.405.446-.02.34-.234.36h-2.706c-.149 0-.362-.084-.426.15-.064.02-.128.02-.192.042-.127 0-.255-.022-.276.17 0 .148.106.233.213.254.149.043.298.043.468.043h5.518c.17 0 .47-.106.47.127 0 .276-.32.149-.491.149-.66.02-1.342 0-2.003.02-.128 0-.383-.126-.383.17 0 .213.064.425.383.383.235-.021.47-.021.703 0 .128 0 .32.042.299.212-.022.149-.17.149-.299.149-1.427-.043-2.855.106-4.282-.085-.17-.021-.362.021-.469.148-.17.17-.234.362.128.383.021 0 .043 0 .043.02.128.192.34.107.511.107h5.923c.021.297-.128.382-.405.382s-.554-.042-.81.212c.299.107.555.043.81.064.15 0 .341 0 .362.191.022.234-.191.234-.362.276-.618.106-1.257.085-1.896.106-.256 0-.49.043-.746.043-1.001.042-2.002.17-2.982-.064-.192-.042-.363 0-.405.213-.064.254.106.275.277.275.575 0 1.172.022 1.747.043-.022.212.042.36.298.34.469-.043.916 0 1.3.318.064.043.17.043.255.064 1.023.064 1.023.064 1.023 1.125v.276h-5.05c-.02.021-.063.042-.085.064-.02 0-.063.02-.085.02-.085.022-.085.086-.106.17-.15 0-.277 0-.256.213-.085-.021-.15-.021-.192.064-.127 0-.191.063-.191.19 0 .043.02.065.02.107-.042 0-.063-.021-.106-.021-.277-.022-.426.085-.468.382v.085c-.086 0-.15.021-.17.106 0 .127-.065.234-.193.276-.213-.021-.298.064-.277.276-.02.042-.063.064-.085.106h-.149v-.042h.043v-8.832c0-.743.49-1.062 1.15-.956.085.022.192.064.277.043a13.114 13.114 0 0 1 3.026.021c.234-.042.532.043.788-.148z" fill="#F5875F"/>
    <path d="M62.022 42.06c0-.234.106-.34.34-.34h.746c.15 0 .363-.021.341-.212 0-.17-.192-.15-.34-.15h-.832c-.085 0-.191 0-.234-.105-.043-.149.085-.212.192-.212.298-.022.596-.022.873-.043.128-.021.363.085.363-.149 0-.233-.214-.19-.384-.212-.66-.064-1.321.127-2.003.106-.192-.021-.405 0-.596-.233.788-.17 1.534-.191 2.3-.234.278 0 .555.021.725-.276 3.835 0 7.649-.042 11.484.021 1.555.022 3.11.361 4.687.276.042 0 .064.043.234.128-.575.085-1.023.085-1.47 0-.767-.149-1.342-.064-1.832.318.49.446 1.108.213 1.683.319-.128.318-.341.36-.64.446-.809.233-1.661.02-2.45.403-.234.127-.575.042-.873.064-.149 0-.32-.064-.383.148-.128 0-.256.022-.363.022H62.363a.677.677 0 0 0-.341-.086zM82.944 62.673c.32 0 .575.106.682.446.021.042.064.063.085.106.128.191.341.446.511.403.235-.063.107-.382.107-.573 0-3.524 0-7.027.021-10.551 0-.489-.191-.637-.618-.616-1.683 0-3.366-.064-5.028.021-.937.043-1.853.043-2.79.064-.235 0-.448.085-.725.17.234.19.533.318.426.679-.021.106.17.085.277.085h1.023c.128 0 .277.021.298.17.021.19-.15.212-.298.212h-2.43c-.148 0-.297-.064-.468.085.15.149.32.085.469.085 1.704-.043 3.409.17 5.113.106.128 0 .298-.042.341.149-2.003.042-3.984.042-5.987 0-.085-.234-.298-.128-.447-.128h-5.05c-.276 0-.788.149-.447-.488.064-.127-.042-.149-.149-.17-.256-.021-.511-.085-.788-.085-.256 0-.469-.021-.554-.297-.064-.149-.192-.17-.341-.17h-.746c-.106 0-.298.064-.298-.127 0-.149.17-.149.298-.149.405-.021.81.064 1.193.085.703.021 1.407 0 2.11 0 .149 0 .383.043.383-.149 0-.233-.234-.127-.383-.127H56.59c-.576 0-.746.17-.789.764V59.786c0 .7-.021 1.38.192 2.059-.298-.064-.277-.319-.277-.51v-9.023c0-.403.192-.573.597-.573h27.483c.448 0 .64.17.64.595-.022 3.885.063 7.749-.043 11.634 0 .042-.021.085-.043.212-.49-.53-.98-.976-1.406-1.507z" fill="#F27E6B"/>
    <path d="M82.027 59.51c.15.043.213.128.064.213a.785.785 0 0 1-.533.149c-1.448-.191-2.876-.022-4.325-.085-.234 0-.426.063-.32.36.15.362-.084.489-.361.531-.256.043-.533.022-.789.043-.085 0-.149.021-.17.127-.021.085.043.128.128.17.213.127.447.064.682.064.191 0 .383-.021.383.276 0 .233.192.19.34.212 1.514.191 3.048.042 4.56.085.746.021 1.044.255 1.236.977-.043-.022-.107-.022-.128-.064-.447-.68-1.13-.658-1.853-.658-2.408.021-4.815 0-7.223 0-.192 0-.405-.021-.596-.043-.17-.19-.405-.233-.618-.212-1.577.106-3.154-.064-4.709-.191-.32-.021-.639.042-.98-.064.128-.17.277-.127.405-.127.64-.043 1.3-.064 1.939-.106.128 0 .277 0 .277-.17 0-.149-.17-.106-.256-.106-.746-.064-1.491-.234-2.258-.191-.107 0-.277.042-.298-.149 0-.17.149-.212.298-.233h.895c.149 0 .32 0 .255-.213-.128-.382.107-.34.341-.34h3.835c.15 0 .362.085.447-.127.192 0 .363-.021.554-.021h8.629c.021-.043.085-.085.15-.106zm-6.136 1.763c-.149.021-.362-.043-.383.17-.022.17.17.212.298.19.17 0 .405-.02.426-.19.043-.213-.192-.149-.34-.17zM66.41 35.753c.085-.297-.022-.403-.341-.382-.703.064-1.385-.085-2.088-.085-.107 0-.256.021-.277-.106-.107-.467-.469-.34-.788-.36h-.554c-.15 0-.341.041-.341-.192 0-.212.191-.17.32-.17h.702c.448 0 .49-.063.277-.446a39.626 39.626 0 0 1 3.175 0c.064.255.277.17.426.17h3.6c.555 0 .64.106.384.595-.106.212.128.594.383.594.32.021.618 0 .938 0 .085 0 .213-.021.213.127 0 .107-.106.15-.192.15h-.192c-1.896-.022-3.77.19-5.645.105z" fill="#F27E6B"/>
    <path d="M59.764 47.962c0 1.19-.895 2.123-2.046 2.123-1.129 0-2.13-.891-2.109-1.974.021-1.147.788-2.208 2.088-2.187 1.087.021 2.045.956 2.067 2.038zm-.66 1.125c.063-.297.276-.445.297-.679.192-1.316-.724-2.25-1.96-2.123-1.065.106-1.853 1.38-1.427 2.357.064.148.149.36.32.254.255-.148.404-.467.66-.636.15-.107 0-.255-.021-.383-.043-.34.085-.573.362-.743a.641.641 0 0 1 .745.022c.256.19.363.467.256.785-.042.149-.085.255.085.36.277.15.426.447.682.786zm-1.386.659c.107 0 .213 0 .32-.022.277-.042.618-.106.682-.382.064-.34-.17-.615-.47-.785-.148-.085-.361-.128-.532-.149-.468-.042-1.193.51-1.086.85.128.424.575.445.959.466a.271.271 0 0 0 .127.022zm.022-1.593c.213-.042.34-.212.34-.445 0-.255-.149-.404-.404-.383-.213.022-.448.106-.426.383.02.276.191.424.49.445zM57.654 83.076c1.193 0 2.087.85 2.109 2.017 0 1.168-.895 2.06-2.045 2.08-1.385.022-2.088-.912-2.11-2.037-.042-1.21.959-2.166 2.046-2.06zm1.768 2.124c0-.85-.34-1.38-1.023-1.699-.618-.297-1.491-.127-1.981.36-.511.532-.66 1.402-.341 2.018.043.085.15.318.234.148.213-.403.831-.53.66-1.189-.106-.403.278-.742.704-.742.34-.022.767.34.66.679-.149.488.128.7.426.934.128.106.15.403.32.34.213-.064.256-.34.298-.552.043-.106.022-.255.043-.297zm-1.768 1.677c.32-.022.639-.106.916-.255.213-.106.213-.276.128-.425-.192-.318-.448-.594-.874-.637-.426-.042-.81.064-1.065.425-.298.403-.235.594.255.764.213.064.426.149.64.128zm.447-2.038c-.021-.234-.17-.383-.426-.383-.234 0-.426.106-.426.34 0 .255.128.446.447.425.213-.043.405-.106.405-.383zM84.882 67.791c-.042 1.231-.916 2.102-2.109 2.102-1.193-.021-2.002-.85-2.066-2.08-.043-1.105.958-2.06 2.088-2.06 1.171 0 2.087.913 2.087 2.038zm-3.813.021c-.043.276.042.552.191.807.086.17.171.212.299.021.064-.106.149-.233.255-.318.256-.213.427-.404.32-.807-.106-.382.277-.722.66-.743.363-.021.767.318.682.658-.106.467.085.764.426.977.15.085.107.382.299.34.234-.064.255-.34.32-.531.042-.17.106-.34.084-.51-.127-1.04-.767-1.677-1.81-1.698-1.023.02-1.769.828-1.726 1.804zm1.704 1.762c.32.022.597-.084.895-.233.234-.106.256-.276.17-.488-.255-.574-1.107-.828-1.619-.468-.255.17-.49.404-.447.701.042.319.383.361.639.425.106.042.234.042.362.063zm.043-1.677c.255-.021.426-.127.405-.403 0-.234-.17-.361-.405-.361-.277-.021-.405.17-.405.403 0 .213.128.361.405.361z" fill="#A0B3D3"/>
    <path d="M61.361 71.23c-.255.19-.554.106-.81.085a13.096 13.096 0 0 0-3.025-.022c-.085 0-.17-.042-.277-.042-.66-.106-1.15.233-1.15.955v8.832c-.128-.106-.085-.254-.085-.403v-8.832c0-.7.064-.785.788-.764 1.513.042 3.025-.064 4.56.042v.149z" fill="#F27E6B"/>
    <path d="M56.588 80.741c.127-.064.191-.148.191-.276.064 0 .15-.021.17-.106v-.085c.15-.064.3-.127.47-.191-.341.467-.746.87-1.215 1.21v-.17c.021-.042.064-.063.085-.106a.632.632 0 0 0 .299-.276z" fill="#EE6C80"/>
    <path d="M57.334 34.012c-.064.276-.298.149-.447.17-.256.021-.511 0-.767 0 .362-.34.81-.149 1.214-.17zM57.441 80.083c-.149.063-.298.127-.469.19.022-.275.192-.381.47-.381 0 .042.02.085.02.148 0 .021 0 .043-.02.043z" fill="#F27E6B"/>
    <path d="M57.547 79.913c0-.042-.021-.063-.021-.106.106 0 .192-.063.192-.19h.17c-.021.19-.149.275-.34.296z" fill="#EE6C80"/>
    <path d="M58.74 42.059c.106-.213.191-.191.277 0-.086.042-.17.042-.277 0zM58.101 42.293c0-.149.064-.213.213-.191-.042.106-.106.17-.213.19zM57.91 79.53c-.022-.212.127-.212.255-.212-.042.128-.128.191-.255.213zM58.186 79.317c0-.063.022-.148.107-.17v.085c-.043.043-.085.064-.107.085zM57.888 79.617h-.17c.042-.086.127-.086.212-.064 0 .021 0 .043-.042.064zM56.226 81.102v.17h-.149v-.17h.15z" fill="#F27E6B"/>
    <path d="M56.077 81.27h.15l-.086.086c-.064.021-.085-.022-.064-.085z" fill="#EE6C80"/>
    <path d="M57.717 42.675c.043-.043.085-.064.107-.107-.022.043-.064.064-.107.107z" fill="#F27E6B"/>
    <path d="M57.461 80.04c0-.042-.021-.085-.021-.148.043 0 .064.02.107.02-.022.043-.064.086-.086.128z" fill="#EE6C80"/>
    <path d="M57.91 42.505c.042-.043.063-.085.106-.107l-.107.107z" fill="#F27E6B"/>
    <path d="M43.805 68.704c-.596-.085-1.129-.319-1.704-.489.128-.148-.021-.17-.085-.233-.511-.552-1.044-1.083-1.555-1.635.149-.149.234-.042.32 0 .958.637 1.917 1.295 2.833 2.017.085.085.17.191.191.34zM42.953 57.366c.32.425.618.85.938 1.253.106.127.192.233.17.403-.426.212-.724.021-.916-.36-.17-.32-.213-.68-.213-1.041v-.106c.021-.021.021-.085.021-.149z" fill="#A0B3D3"/>
    <path d="M42.953 57.557v.106c-.021-.021-.021-.042-.021-.064-.021-.042 0-.042.021-.042z" fill="#D2DAE9"/>
    <path d="M41.697 89.828c.234-.701.191-1.465.32-2.187.02-.128.042-.276.042-.404.021-.467.085-.912.575-1.146.17-.042.277-.191.405-.276.128-.064.256-.127.277-.297.17-.128.298-.149.298.106v1.295l-.064 4.267h-.213c-.554-.17-1.129-.34-1.683-.51.021-.296.15-.572.043-.848z" fill="#FDFDFC"/>
    <path d="M41.696 89.828c.086.276-.021.552-.042.828-.682-.085-1.343-.361-2.003-.531-.298-.064-.575-.234-.873-.255-.618-.042-1.087-.467-1.684-.552-.277-.042-.383-.254-.234-.53.234-.446.085-.913.107-1.38.02-.255-.448-.361-.277-.701-.107-.043-.213.085-.32-.021 0-.17.192-.149.277-.234.682.467 1.342.956 2.024 1.38.533.319.916.828 1.534.998.49.36.916.785 1.491.998z" fill="#49124A"/>
    <path d="M40.204 88.851c-.618-.17-1.002-.679-1.534-.997-.703-.425-1.364-.913-2.024-1.38-.192-.255-.511-.361-.767-.574.703.085 1.406.149 2.11.234.766.085 1.533.191 2.3.276.32.021.426.127.362.467-.128.658-.383 1.295-.447 1.974z" fill="#A0B3D3"/>
    <path d="M27.08 96.112c.192-.446.384-.913.576-1.36.894.213 1.725.595 2.578.978-.043.53-.32.976-.49 1.464-.96-.17-1.875-.445-2.664-1.082z" fill="#FBCA84"/>
    <path d="M43.358 91.165h.213c0 .594.022 1.21 0 1.805-.021.424.17.51.533.424 1.236-.318 2.493-.446 3.728-.785.085-.021.192-.043.256.063-.085.17-.256.234-.426.234-.938.042-1.811.34-2.727.488-.299.043-.597.17-.895.234-.469.106-.618-.064-.597-.531 0-.658.022-1.295-.085-1.932zM48.3 92.652c.15-.255.384-.19.618-.19-.149.254-.362.254-.618.19z" fill="#593840"/>
    <path d="M91.04 89.87a9.705 9.705 0 0 1-.044-.785V61.973c0-.148.022-.276.043-.424 1.193.828 2.471 1.55 3.728 2.272.427.233.831.552 1.343.615-.405 1.847-.789 3.715-1.215 5.563-.106.445 0 .488.384.36.575-.17 1.172-.276 1.768-.424 0 .106 0 .212.021.318.576 2.93 1.13 5.86 1.726 8.79.341 1.698.66 3.396.597 5.159-.064 2.377-.022 4.734-.043 7.112-1.598-.191-3.196-.403-4.772-.7-1.108-.213-2.216-.404-3.303-.765-.063 0-.149.021-.234.021z" fill="#D2DAE9"/>
    <path d="M99.327 91.335c0-2.378-.021-4.734.043-7.112.042-1.762-.256-3.44-.597-5.159-.596-2.93-1.15-5.86-1.726-8.79-.02-.106 0-.212-.02-.318 1.043-.34 2.108-.573 3.195-.807.596.085 1.193.192 1.768.34 0 .403.384.234.575.319.107.063.277.02.405.02.107 0 .171.064.213.17.043.107-.042.15-.128.213-.319.234-.319.616-.021.828.213.148.277.34.277.594v1.487c0 .488-.064.955-.49 1.316-.17.127-.149.424.021.594.107.128.192.234.192.404-.085.976-.149 1.932-.234 2.908-.149 1.699-.448 3.376-.469 5.074-.043 2.57-.021 5.138 0 7.707 0 .17-.064.34.064.488 0 1.614-.021 3.248-.021 4.862 0 .191.042.382-.064.552-.874 0-1.726.021-2.6.021-.34 0-.34-.233-.34-.488v-4.67c0-.17-.022-.362-.043-.553z" fill="#F38427"/>
    <path d="M27.08 96.111c.788.616 1.705.913 2.663 1.062.213.064.256.233.256.424 0 .319.021.637.021.977-2.024 0-4.026.021-6.05.021-.746 0-1.492 0-2.237-.02-.022-.213.042-.34.255-.426 1.556-.636 3.09-1.295 4.623-1.931.17-.043.32-.064.47-.107z" fill="#593840"/>
    <path d="M41.12 71.59c1.28-.19 2.557-.297 3.793-.785.043.382 0 .7-.064 1.04-.042.234 0 .403.277.403.469.022.554.298.533.68-.085.382-.064.764-.384 1.061-.106.106-.064.255-.042.404.149.552.298 1.104.426 1.656-.384.063-.575.382-.831.615-.15.128-.277.276-.469.361-.256-.255-.511.085-.767.021-.17-.19.043-.51-.255-.637-.022-.042-.022-.084-.043-.127 0-.021.021-.021.021-.042 0 .02-.021.02-.021.042-.128.021-.277.064-.405.085-.852.17-1.236-.064-1.47-.934.213-.043.298.191.469.255.362.106 1.023-.213 1.15-.573.086-.276-.106-.255-.255-.234-.384.064-.767.106-1.13.212-.32.085-.404-.042-.426-.297-.021-.828-.234-1.656-.021-2.484.107-.276-.107-.488-.085-.722z" fill="#FBCA84"/>
    <path d="M43.358 76.389c.298.127.085.467.255.637-.32.19-.383.51-.426.849a190.29 190.29 0 0 1-.426 3.44c.043.254-.256.36-.298.594-.021.063-.064.127-.085.212-.32 0-.469-.021-.512-.467-.064-.743.043-1.465-.042-2.208-.022-.255-.064-.53.149-.743.064-.064.17-.213.043-.276-.15-.085-.192.085-.256.19-.128.234-.234.468-.362.701-.043.107-.107.192-.256.17.383-1.061.937-2.017 1.853-2.738.15-.085.256-.234.363-.361z" fill="#791328"/>
    <path d="M42.783 81.335c.149-1.146.298-2.292.426-3.439.043-.36.106-.658.426-.849.256.064.511-.276.767-.021-.405.297-.64.637-.554 1.168.022.17-.042.382-.021.551.149 1.02-.405 1.763-.895 2.548-.043.021-.107.021-.15.042z" fill="#E5EAF3"/>
    <path d="M45.745 76.09c.042.022.064.043.106.065a.117.117 0 0 1-.106-.064z" fill="#FBCA84"/>
    <path d="M49.216 80.846v.042l-.021-.021.021-.021zM46.254 71.866c0-.042.022-.106.022-.148.063.063.042.106-.022.148z" fill="#A0B3D3"/>
    <path d="M41.185 79.51c-.043.15.085.362-.192.383l.192-.382z" fill="#791328"/>
    <path d="M41.42 75.413v-.021h.02s0 .02.022.042c-.022-.021-.022-.021-.043-.021z" fill="#FBCA84"/>
    <path d="M43.06 85.794c-.128.106-.235.254-.405.276-.107-.064-.213-.106-.362-.17.298-.128.298-.382.34-.7.171.212.533.212.427.594z" fill="#F06533"/>
    <path d="M102.374 91.612c-.128-.149-.064-.319-.064-.489 0-2.568-.043-5.137 0-7.706.021-1.699.319-3.376.469-5.074.085-.977.17-1.932.234-2.909.17-.233.021-.552.192-.849.319.318.468.722.639 1.083 1.044 1.932 2.066 3.885 3.11 5.817.384.722.427 1.507.597 2.293.49 2.293.937 4.585 1.406 6.857.021.149.021.297.043.467-1.854.382-3.729.489-5.625.467-.319-.042-.682-.106-1.001.043zM107.806 71.59c-.043 0-.086-.022-.128-.022l.064-.064c.042.021.085.021.064.085z" fill="#D2DAE9"/>
    <path d="M106.378 49.828c0-.148-.021-.403.256-.446.234-.042.341.17.426.34a.164.164 0 0 1 .043.085c.085.297.234.616 0 .913-.064.085-.149.127-.235.064-.319-.213-.49-.51-.49-.956z" fill="#E5EAF3"/>
    <path d="M123.125 89.976c-1.534.319-2.918-.87-3.238-2.25-.064-.234.021-.382.298-.382 1.044.021 2.067.021 3.111.021-.064.53.17 1.104-.256 1.592-.085.106.021.191.171.255.426.127.426.212.106.53a2.261 2.261 0 0 0-.192.234z" fill="#F27E6B"/>
    <path d="M123.125 89.976a1.07 1.07 0 0 1 .213-.233c.319-.319.319-.382-.107-.531-.149-.042-.256-.149-.17-.255.426-.488.191-1.061.255-1.592.682 0 1.364 0 2.046-.021.277 0 .319.127.277.34-.171 1.167-1.321 2.229-2.514 2.292z" fill="#EE6C80"/>
    <path d="M124.51 85.348c0 .361-.149.574-.469.552-.298 0-.554-.106-.532-.488.021-.318.17-.488.49-.488.298 0 .49.148.511.424zM121.973 85.433c.021.34-.192.467-.49.489-.32 0-.49-.17-.49-.489 0-.318.17-.51.511-.51.341.022.469.192.469.51z" fill="#F27E6B"/>
    <path d="M121.229 73.926c-.511.383-.511.383-.98-.106-.192-.19-.405-.382-.575-.594-.213-.234-.256-.51-.128-.807.106-.297.383-.51.639-.424.511.127.98-.043 1.47 0 .575.445.597.827.149 1.358a4.863 4.863 0 0 0-.575.573z" fill="#FDFDFC"/>
    <path d="M117.883 73.162v-1.805c0-.467.213-.615.682-.53.128.02.256.063.362.02.426-.105.639.15.81.468.106.19.106.318-.085.467-.661.53-.682 1.21-.064 1.74.213.192.319.34.234.616-.021.064 0 .128 0 .191-.021.34.128.828-.17.998-.448.234-.98.234-1.492.149-.234-.043-.298-.255-.277-.467v-1.847z" fill="#F5875F"/>
    <path d="M8.396 69.553c0-.659 0-.637-.64-.659-.234 0-.639.17-.639-.233 0-.382.426-.212.66-.212.619-.022.597 0 .619-.637 0-.234-.17-.637.234-.637.383 0 .213.424.213.637.021.615 0 .594.596.615.235.022.682-.19.682.234 0 .382-.426.212-.639.212-.618.021-.618 0-.618.595v.042c-.064.234.15.637-.234.637-.405 0-.17-.403-.235-.594zM76.659 21.508c-.043.19-.15.297-.363.297-.298 0-.639-.128-.852.064-.213.212-.043.552-.085.849-.021.148-.021.276-.213.276-.234 0-.234-.128-.256-.297-.021-.298.128-.637-.085-.85-.192-.17-.533-.042-.81-.063-.17 0-.32-.022-.32-.234 0-.233.171-.212.32-.233h.043c.788-.022.788-.022.852-.828 0-.085 0-.15.022-.234.042-.127.085-.233.255-.233.17 0 .17.127.192.276.021.318-.128.721.085.934.213.212.618.063.938.085.127.02.276.02.276.19z" fill="#D2DAE9"/>
    <path d="M126.832 57.408c.192.085.341 0 .49-.021.149-.022.341.021.341.212 0 .17-.149.212-.299.212-.298.022-.681-.127-.894.085-.213.213-.043.595-.086.892-.021.149-.021.297-.213.297-.149-.021-.17-.17-.17-.297v-.085c-.043-.85-.043-.85-.874-.87-.191 0-.426.02-.404-.255.021-.255.255-.213.447-.17.682.127.831 0 .831-.658 0-.085-.021-.191 0-.276.021-.127-.107-.361.149-.34.192 0 .277.191.277.361 0 .128-.064.234-.064.361.021.319-.064.722.469.552z" fill="#CAD7E6"/>
    <path d="M81.728 56.008c-.106.233-.32.127-.49.127-2.045 0-4.07 0-6.114.021-.15 0-.47-.148-.426.149.02.233.085.573.468.594.426.021.831-.042 1.257.064.235.064.49 0 .597.318.042.149.277.043.426.064.277.064.596-.148.81.149-.15 0-.278.02-.427.02h-6.924c-.98 0-1.96-.02-2.919-.02v-.467c.022-.87.022-.87.916-.892.15 0 .32.064.405-.127.15 0 .277-.022.426-.022h8.011c1.321 0 2.642.022 3.984.022zM78.363 54.032c-.064.255-.277.149-.426.149h-3.452c-.149 0-.298-.043-.447.064.043.19.192.127.298.127h2.237c.128 0 .362-.043.384.085.149.7.703.424 1.108.488.042 0 .085.021.149.043-.064.212-.235.127-.341.127H75.87c-.149 0-.34-.021-.34.149 0 .212.212.106.319.127.745.127 1.513.085 2.28.085.127 0 .298-.021.32.17-1.535.02-3.048.042-4.582 0-.042-.234-.234-.17-.383-.17-1.172 0-2.322.063-3.494-.106-.682-.085-1.364-.043-2.045-.17.298-.149.617-.085.916-.106.17 0 .34 0 .468-.149.128-.148.32-.318.256-.51-.064-.19-.298-.063-.469-.084-.362-.043-.724.042-1.193-.085.405-.191.746-.085 1.044-.128.17-.02.384.107.469-.17 1.513 0 3.047-.02 4.56-.02 1.49.063 2.918.084 4.367.084zM77.148 57.834c-.064.255-.256.17-.426.17-.66.042-1.321-.043-1.982-.085-.596-.042-1.193.149-1.81.106-.15-.021-.448-.127-.427.17.022.255.043.594.448.658.745.127 1.47.382 2.258.276.043 0 .106.043.15.085h-4.645c-.17 0-.341-.064-.49.085h-1.492c-.681-.17-1.385-.17-2.216-.191.384-.255.66-.149.938-.17.575-.021.64-.106.34-.595-.084-.17-.042-.212.107-.254.17-.064.32-.085.512-.064.788.043 1.576-.148 2.365-.106.063 0 .127-.043.213-.085h6.157z" fill="#F27E6B"/>
    <path d="M77.148 57.833H70.97c-2.6 0-5.199-.021-7.798-.021h-5.54c-.127 0-.383.085-.362-.149.021-.212.256-.127.384-.127h9.204c.383 0 .745-.021 1.129-.021.98 0 1.96.02 2.919.02h6.924c.149 0 .277-.02.426-.02 1.129 0 2.237.02 3.366.042.107 0 .277-.042.341.106.043.106-.064.149-.15.191h-2.79c-.618-.02-1.257-.02-1.875-.02zM78.362 54.033c-1.449 0-2.876-.021-4.325-.021-1.513 0-3.047.021-4.56.021-2.492 0-4.985-.021-7.456-.021h-4.197c-.15 0-.277 0-.426-.021-.064 0-.128-.043-.128-.107 0-.084.064-.148.128-.148.149-.021.277-.021.426-.021h15.595c.192 0 .362-.022.554-.022 2.003.043 3.984.043 5.987 0 .49.043 1.001.064 1.491 0l.043.022.043-.022c.106 0 .191.022.298.022.064.042.17.084.149.19-.043.17-.234.107-.341.15a12.278 12.278 0 0 0-1.768 0 7.23 7.23 0 0 0-1.513-.022zM73.867 55.667c1.534.043 3.046.043 4.58 0h2.983c.15 0 .298.021.469.021 0 .085 0 .191.021.276-.064.022-.128.022-.192.043-1.342 0-2.663-.021-4.005-.021h-8.01c-.15 0-.278.02-.427.02-.426 0-.83-.02-1.257-.02-3.43 0-6.839 0-10.27-.022-.17 0-.49.128-.49-.17 0-.212.32-.127.49-.127h15.554c.191.021.383 0 .554 0z" fill="#E5EAF3"/>
    <path d="M68.732 59.299h1.491c.17 0 .341.021.511.021H81.6c.043.042.085.064.128.021.043.021.085.021.128.043 0 .063-.021.148-.021.212h-8.63c-.19 0-.361.021-.553.021-1.534 0-3.068-.02-4.623-.02h-9.14a9.502 9.502 0 0 0-1.556 0l-.042-.022c.021-.085.021-.17.043-.255h.255c3.537 0 7.073 0 10.61-.021.213.021.362.021.533 0z" fill="#FDFDFC"/>
    <path d="M57.356 59.616c.511-.02 1.044-.042 1.555 0-.511.086-1.044.107-1.555 0z" fill="#FBCA84"/>
    <path d="M66.964 58.28c-.064 0-.127 0-.127-.086 0-.085.063-.085.127-.085s.128 0 .128.085-.064.085-.128.085z" fill="#F27E6B"/>
    <path d="M57.355 59.34c-.021.086-.021.17-.042.256-.214-.107-.15-.191.042-.255zM57.611 59.341h-.085c.043-.021.064-.021.085 0z" fill="#FBCA84"/>
    <path d="M59.017 38.048c-.213.255-.469.191-.682.064-.128-.085-.064-.276.021-.425.128-.233.362-.148.554-.127a34.25 34.25 0 0 0 5.113 0c.235-.021.47-.021.704 0 .34.021.468-.149.383-.446-.128-.382.043-.424.34-.403.278 0 .555.042.81-.043 0-.17-.106-.127-.191-.148-2.259-.191-4.517-.213-6.775-.191-.17 0-.384.084-.533-.107.852 0 1.704-.02 2.557-.02 3.685 0 7.393 0 11.078.02.043.255.256.191.405.191.66 0 1.321-.063 1.96.022 1.385.148 2.77.042 4.176.085.085 0 .192-.043.234.127-.447.106-.873.021-1.32.043h-.512c-.106 0-.234 0-.255.148-.022.149.063.255.191.276.192.043.405.021.597.043.128.02.34-.085.34.106 0 .212-.212.17-.362.17h-1.81c-.235 0-.49 0-.64.254-.191 0-.404.022-.596.022H58.846c-.106 0-.234 0-.234.148 0 .127.128.106.213.127.042.022.128.043.192.064z" fill="#F27E6B"/>
    <path d="M58.57 39.957c-.277.043-.34-.17-.34-.34 0-.254.212-.212.383-.212h2.343c.235 0 .448-.021.618-.148.256-.192.49-.213.767-.022.043.043.15.064.17.043.278-.255.64-.106 1.045-.255-.426-.212-.831-.021-1.172-.191.745-.085 1.449-.361 2.216-.276-.022-.234-.15-.17-.256-.191-.234 0-.469-.021-.703 0-1.002.106-1.981-.319-2.983-.191-.106.021-.17-.043-.192-.149 1.385 0 2.749-.021 4.134-.021 1.683 0 3.345.021 5.028.021.085.255.32.128.49.149.213.021.447 0 .681.063-.17.191-.426.15-.596.298-.085.063-.213.063-.17.212.042.127.127.17.255.17.17 0 .341 0 .511.063-.362.064-.66.319-1.022.298-1.044-.043-2.067.148-3.11.085-.107 0-.214 0-.3.106-2.407 0-4.814.021-7.243.021-.128 0-.256-.021-.362 0-.192.042-.277.127-.128.319-.064.063-.064.106-.064.148z" fill="#F27E6B"/>
    <path d="M58.57 39.852c-.15-.192-.043-.276.127-.319.128-.021.256 0 .363 0 2.407 0 4.815-.021 7.243-.021 3.793 0 7.564.021 11.356.021h5.092c.17 0 .49-.127.49.17 0 .212-.298.148-.469.148H58.57zM72.376 36.22c-3.686 0-7.393-.021-11.079-.021-.852 0-1.704 0-2.556.02-.171-.063-.341-.105-.17-.339 2.769 0 5.538-.021 8.308-.021h15.83c.192 0 .511-.106.511.127 0 .298-.34.17-.532.17-3.26.022-6.541 0-9.8.022-.171.042-.342.042-.512.042zM69.584 38.025c-1.683 0-3.345-.021-5.028-.021-1.385 0-2.749.021-4.133.021a7.789 7.789 0 0 0-1.407 0c-.085-.021-.149-.021-.234-.042-.085-.021-.213 0-.213-.128-.021-.17.128-.148.234-.148h15.958c.192 0 .405-.022.597-.022 1.704 0 3.387.022 5.091.022h2.387c.127 0 .34-.064.362.127.021.234-.213.149-.362.149H74.91c-1.79.021-3.558.042-5.326.042z" fill="#E5EAF3"/>
    <path d="M81.623 59.341H70.757c-.17 0-.34-.02-.511-.02.149-.15.32-.086.49-.086H81.24c.17 0 .34-.042.49.064a.163.163 0 0 0-.107.042z" fill="#EE6C80"/>
    <path d="M79.854 54.033a12.309 12.309 0 0 1 1.768 0c-.021.127-.128.148-.234.148h-1.3c-.106.022-.213-.02-.234-.148zM79.022 57.834h2.791c-.213.17-.49.085-.724.085-.682-.042-1.385.107-2.067-.085zM81.9 55.688c-.15 0-.299-.022-.47-.022 0-.106 0-.255.15-.233.17 0 .32.063.32.255zM81.92 55.987c0-.085 0-.191-.021-.276.17 0 .213.106.17.255 0 .063-.085.085-.149.02zM81.814 53.694c-.107 0-.192-.021-.298-.021-.022-.022-.043-.043-.064-.043.149-.127.277-.148.362.064z" fill="#F27E6B"/>
    <path d="M81.857 59.615c0-.064.021-.149.021-.213a.644.644 0 0 0 .15.106.464.464 0 0 0-.171.107zM81.622 59.341c.042-.02.064-.02.106-.042 0 .021.022.042.022.064-.043.021-.086 0-.128-.022z" fill="#FBCA84"/>
    <path d="M81.452 53.652c.021 0 .043.022.064.043l-.043.021-.043-.021c.022 0 .022-.043.022-.043z" fill="#EE6C80"/>
    <path d="M63.513 79.043v-.276c0-1.062 0-1.062-1.023-1.126-.085 0-.213 0-.256-.063-.383-.319-.83-.361-1.3-.319-.255.022-.32-.127-.298-.34.15 0 .32-.02.469-.02h10.844c1.705 0 3.41.02 5.114.02-.043.362-.107.722-.107 1.105 0 .34.15.467.469.445.192-.02.405 0 .596 0 .213 0 .405.085.384.319 0 .234-.235.149-.362.149-4.837.17-9.694.106-14.53.106zM58.74 72.97c.085-.234.277-.149.426-.149h2.706c.213 0 .639.106.234-.36-.15-.17-.064-.447-.021-.638.042-.19.298-.106.447-.106.17 0 .341-.021.511 0 .405.043.49-.127.363-.467h11.568c.256 0 .49.021.703.17.064.042.17.106.256.085.746-.17 1.47.064 2.216.042.469-.021.937.234 1.534.149-.213.297-.426.19-.597.19a.87.87 0 0 0-.682.234c-.127.107-.191.213-.02.34.319.276.063.276-.15.276-.49 0-.959.021-1.449 0-.852-.042-1.704.17-2.556.106-.107 0-.213.022-.256.149-1.726 0-3.451.021-5.177.021-3.345-.021-6.69-.042-10.056-.042zM58.57 76.644c.064-.234.234-.276.404-.213.98.255 1.982.106 2.983.064.234 0 .49-.043.746-.043.639 0 1.278.022 1.896-.106.17-.02.383-.042.362-.276-.021-.212-.213-.19-.362-.19-.256-.022-.511.042-.81-.064.256-.255.533-.234.81-.213.277 0 .426-.085.405-.382 3.366 0 6.754-.064 10.12.043.98.042 2.002.063 3.068.19-.17.17-.32.15-.448.15-.66-.064-1.32.148-2.002.105-.086 0-.256-.042-.235.128.022.127.15.148.256.148.682-.106 1.342.255 2.024.192.15-.022.298.02.426.19-.192.128-.362.064-.554.022-.298-.064-.618-.085-.81.233-.191 0-.404.022-.596.022H58.57zM58.527 75.115c-.362-.021-.298-.212-.128-.382a.55.55 0 0 1 .469-.149c1.427.191 2.855.043 4.282.085.128 0 .299 0 .299-.148.02-.192-.17-.213-.299-.213a3.893 3.893 0 0 0-.703 0c-.32.043-.383-.17-.383-.382 0-.297.234-.17.383-.17.66-.021 1.342 0 2.003-.021.17 0 .49.149.49-.149 0-.212-.298-.127-.469-.127h-5.518c-.149 0-.32 0-.469-.043-.127-.02-.234-.106-.213-.254.022-.191.15-.17.277-.17-.042.382.256.276.448.276h7.137c1.62 0 3.238.021 4.836.021.043.191.213.149.341.149.724-.064 1.449.148 2.173.106.064 0 .15 0 .277.17h-4.218c.17.255.32.19.447.19.405-.02.788.022 1.13.298.276.212.66.043 1 .085.107.021.299-.043.299.149 0 .17-.17.148-.298.127-.767-.064-1.513.127-2.28.106-.128 0-.277-.042-.383.106-1.236 0-2.472.021-3.729.021H58.89c-.17 0-.447-.063-.362.319zm9.822-1.274c.34.106.66.128.98-.021-.32-.085-.66-.106-.98.021z" fill="#F27E6B"/>
    <path d="M58.528 75.115c-.064-.382.192-.318.405-.318h6.839c1.235 0 2.471 0 3.728-.022 4.005 0 7.99 0 11.995.022h1.449c.127 0 .32-.022.298.17 0 .17-.17.148-.298.148H58.528zM70.99 73.31c-1.62 0-3.238-.02-4.836-.02h-7.138c-.191 0-.468.084-.447-.277.064-.021.128-.021.192-.042 3.345 0 6.71.02 10.056.02 1.726 0 3.451-.02 5.177-.02.767 0 1.555.02 2.322.02h6.307c.149 0 .32 0 .468.022.086 0 .17.043.17.127 0 .085-.084.128-.17.128-.149 0-.277.021-.426.021H71.501c-.17 0-.34.021-.511.021z" fill="#E5EAF3"/>
    <path d="M58.57 76.644h17.683c.192 0 .405-.022.597-.022 1.918 0 3.856.022 5.774.022.191 0 .532-.128.532.148 0 .191-.34.106-.532.106-1.854.022-3.729.022-5.582.043-1.705 0-3.41-.021-5.114-.021H61.084c-.149 0-.32.02-.469.02-.575-.02-1.171-.02-1.747-.042-.191.022-.362 0-.298-.254z" fill="#FDFDFC"/>
    <path d="M58.378 79.128c.022-.02.064-.042.086-.064-.022.022-.064.043-.086.064zM56.587 80.74a.581.581 0 0 1-.277.277c-.02-.213.086-.319.277-.276zM57.718 79.616c0 .128-.064.17-.192.191 0-.127.064-.19.192-.19zM56.972 80.358c-.043.086-.107.086-.17.107.02-.085.085-.107.17-.107z" fill="#F27E6B"/>
    <path d="M75.89 61.272c.15.02.384-.022.341.17-.021.17-.255.17-.426.19-.128 0-.32-.042-.298-.19.042-.213.234-.15.383-.17z" fill="#F5875F"/>
    <path d="M59.103 49.086c-.256-.34-.405-.637-.703-.806-.17-.107-.128-.213-.085-.361.106-.319 0-.595-.256-.786a.642.642 0 0 0-.746-.021c-.277.17-.405.424-.362.743.021.127.17.297.021.382-.277.17-.404.467-.66.637-.17.106-.256-.106-.32-.255-.426-.976.363-2.25 1.428-2.356 1.257-.128 2.152.806 1.96 2.123 0 .254-.213.403-.277.7z" fill="#FDFDFC"/>
    <path d="M57.718 49.745h-.149c-.383-.022-.83-.064-.959-.468-.106-.36.618-.891 1.087-.849.192.021.383.043.532.149.299.17.533.446.47.785-.065.297-.405.34-.682.383h-.299z" fill="#FDFDFC"/>
    <path d="M57.74 48.152c-.32-.021-.47-.17-.49-.446-.022-.276.191-.36.425-.382.256-.021.427.128.405.382 0 .213-.106.404-.34.446z" fill="#E5EAF3"/>
    <path d="M59.422 85.197c0 .043.021.191-.021.319-.043.212-.107.467-.299.552-.17.063-.191-.234-.32-.34-.276-.233-.574-.446-.425-.934.106-.34-.299-.7-.66-.68-.427.022-.81.34-.704.744.17.658-.469.785-.66 1.188-.085.17-.192-.063-.235-.148-.34-.616-.191-1.486.341-2.017.49-.488 1.364-.658 1.982-.36.66.318 1 .827 1 1.676z" fill="#FDFDFC"/>
    <path d="M57.654 86.876c-.235.02-.427-.064-.64-.149-.49-.17-.553-.36-.255-.764.255-.361.639-.467 1.065-.425.405.043.66.319.873.637.086.149.086.319-.127.425-.277.17-.576.254-.916.276z" fill="#FDFDFC"/>
    <path d="M58.101 84.837c0 .276-.17.361-.405.382-.298.022-.426-.17-.447-.424 0-.234.191-.34.426-.34.256 0 .405.127.426.382z" fill="#E5EAF3"/>
    <path d="M81.068 67.813c-.043-.977.703-1.784 1.726-1.784 1.044.022 1.683.658 1.81 1.699.022.17-.042.34-.085.51-.064.212-.085.488-.32.53-.191.043-.17-.255-.297-.34-.341-.233-.533-.51-.427-.976.086-.34-.32-.658-.681-.658-.384.02-.767.36-.66.743.106.403-.065.594-.32.806a1.203 1.203 0 0 0-.256.319c-.128.19-.213.148-.298-.021-.15-.276-.235-.552-.192-.828z" fill="#FDFDFC"/>
    <path d="M82.772 69.573c-.127-.021-.255-.021-.362-.064-.277-.064-.596-.106-.639-.424-.042-.319.213-.531.448-.701.51-.361 1.363-.106 1.619.467.106.212.085.382-.17.488-.299.149-.576.255-.896.234z" fill="#FDFDFC"/>
    <path d="M82.815 67.896c-.256.021-.383-.148-.405-.36 0-.234.128-.404.405-.404.234 0 .383.127.405.36 0 .277-.17.383-.405.404z" fill="#E5EAF3"/>
    <path d="M43.337 76.261c0-.02.021-.02.021-.042-.02.021-.02.021-.02.042z" fill="#FDFDFC"/>
    <path d="M68.349 73.84c.34-.127.66-.106.98-.021-.32.149-.66.127-.98.021z" fill="#EE6C80"/>
</svg>
