<svg fill="none" height="341" viewBox="0 0 591 341" width="591" xmlns="http://www.w3.org/2000/svg">
    <path
        d="M1.79189 169.504C-11.0601 73.0965 47.9891 49.7546 90.5287 42.9781C236.112 7.43187 346.151 -25.5744 453.795 30.1864C534.25 71.8633 669.918 162.848 531.44 273.286C394.175 382.756 28.1356 367.12 1.79189 169.504Z"
        fill="#F27205" opacity="0.1" />
    <path
        d="M448.01 237.644C435.838 231.427 392.666 268.357 372.602 287.599H474.468H484.318C474.468 259.459 463.223 245.415 448.01 237.644Z"
        fill="#D59E6F" opacity="0.2" />
    <path
        d="M401.865 52.9582C398.721 58.0556 397.936 64.1089 405.796 70.0823H451.212C453.832 69.4186 458.811 66.8169 457.762 61.7195C456.714 56.6221 450.047 55.8787 446.845 56.1442C446.408 52.1619 444.662 43.7994 433.744 41.41C425.01 39.4984 417.586 46.7194 414.966 50.5688C411.909 49.2413 405.01 47.8608 401.865 52.9582Z"
        fill="white" />
    <path
        d="M176.676 108.001C174.24 110.631 176.022 113.754 182.11 116.835L197.36 120.453H207.078L214.9 116.835C216.929 116.493 220.786 115.151 219.974 112.521C219.162 109.892 213.998 109.508 211.517 109.645C211.179 107.591 209.826 103.277 201.369 102.044C194.604 101.058 188.853 104.783 186.824 106.769C184.456 106.084 179.111 105.372 176.676 108.001Z"
        fill="white" />
    <path
        d="M140.868 107.834C139.234 109.667 140.43 111.843 144.514 113.991L154.745 116.513H161.264L166.512 113.991C167.874 113.753 170.461 112.817 169.916 110.984C169.372 109.152 165.907 108.884 164.243 108.98C164.016 107.548 163.108 104.541 157.435 103.682C152.896 102.995 149.038 105.591 147.677 106.975C146.088 106.498 142.502 106.001 140.868 107.834Z"
        fill="white" />
    <path
        d="M108.123 110.911C106.736 109.955 107.751 108.819 111.219 107.699L119.905 106.383H125.441L129.896 107.699C131.052 107.823 133.249 108.311 132.786 109.268C132.324 110.224 129.382 110.363 127.969 110.313C127.777 111.06 127.006 112.629 122.189 113.077C118.335 113.436 115.06 112.081 113.904 111.359C112.555 111.608 109.51 111.867 108.123 110.911Z"
        fill="white" />
    <path
        d="M380.731 177.645C378.865 180.661 378.398 184.242 383.064 187.776H410.025C411.581 187.384 414.536 185.844 413.914 182.828C413.291 179.812 409.334 179.373 407.433 179.53C407.173 177.174 406.136 172.226 399.656 170.812C394.471 169.681 390.064 173.953 388.508 176.231C386.694 175.446 382.598 174.629 380.731 177.645Z"
        fill="white" />
    <path
        d="M209.143 196.27C206.343 200.794 205.643 206.166 212.642 211.467H253.084C255.417 210.878 259.85 208.569 258.916 204.045C257.983 199.521 252.047 198.862 249.195 199.097C248.806 195.563 247.251 188.141 237.529 186.021C229.752 184.324 223.141 190.733 220.808 194.149C218.086 192.971 211.942 191.746 209.143 196.27Z"
        fill="white" />
    <path
        d="M337.691 238.582C323.496 258.863 291.643 278.63 277.49 285.978L443.516 289.287V279.365C403.594 229.764 355.434 213.23 337.691 238.582Z"
        fill="#C77C67" fill-opacity="0.2" />
    <rect fill="#FBE9D9" height="17.4468" rx="8.72341" width="387.207" x="101.895" y="283.666" />
    <rect fill="#F58220" height="11.5954" width="3.80139" x="127.516" y="283.711" />
    <mask style="mask-type:alpha" height="54" id="mask0_1557_1830" maskUnits="userSpaceOnUse"
        width="30" x="114" y="233">
        <ellipse cx="129.41" cy="259.941" fill="#C4C4C4" rx="26.0897" ry="14.572"
            transform="rotate(90 129.41 259.941)" />
    </mask>
    <g mask="url(#mask0_1557_1830)">
        <rect fill="#D2813C" height="57.977" width="16.4727" x="130.045" y="230.371" />
        <rect fill="#DC995F" height="57.977" transform="matrix(-1 0 0 1 130.045 230.371)"
            width="16.4727" />
    </g>
    <rect fill="#F58220" height="8.53247" width="2.79725" x="158.377" y="280.971" />
    <mask style="mask-type:alpha" height="39" id="mask1_1557_1830" maskUnits="userSpaceOnUse"
        width="22" x="149" y="244">
        <ellipse cx="159.781" cy="263.495" fill="#C4C4C4" rx="19.1981" ry="10.7228"
            transform="rotate(90 159.781 263.495)" />
    </mask>
    <g mask="url(#mask1_1557_1830)">
        <rect fill="#D2813C" height="42.6623" width="12.1214" x="160.246" y="241.738" />
        <rect fill="#DC995F" height="42.6623" transform="matrix(-1 0 0 1 160.246 241.738)"
            width="12.1214" />
    </g>
    <rect fill="#F58220" height="7.21978" width="2.36691" x="455.984" y="282.293" />
    <mask style="mask-type:alpha" height="33" id="mask2_1557_1830" maskUnits="userSpaceOnUse"
        width="19" x="448" y="251">
        <ellipse cx="457.163" cy="267.481" fill="#C4C4C4" rx="16.2445" ry="9.07314"
            transform="rotate(90 457.163 267.481)" />
    </mask>
    <g mask="url(#mask2_1557_1830)">
        <rect fill="#D2813C" height="36.0989" width="10.2566" x="457.559" y="249.074" />
        <rect fill="#DC995F" height="36.0989" transform="matrix(-1 0 0 1 457.559 249.074)"
            width="10.2566" />
    </g>
    <rect fill="#F58220" height="7.21978" width="2.36691" x="426.645" y="281.506" />
    <mask style="mask-type:alpha" height="33" id="mask3_1557_1830" maskUnits="userSpaceOnUse"
        width="19" x="418" y="250">
        <ellipse cx="427.825" cy="266.702" fill="#C4C4C4" rx="16.2445" ry="9.07314"
            transform="rotate(90 427.825 266.702)" />
    </mask>
    <g mask="url(#mask3_1557_1830)">
        <rect fill="#D2813C" height="36.0989" width="10.2566" x="428.221" y="248.295" />
        <rect fill="#DC995F" height="36.0989" transform="matrix(-1 0 0 1 428.221 248.295)"
            width="10.2566" />
    </g>
    <path d="M289.699 158.493V142.997L346.72 134.143L341.726 158.493H289.699Z" fill="#F7CCA8" />
    <path clip-rule="evenodd"
        d="M380.921 109.792H208.613C209.365 90.5264 247.65 75.0039 294.767 75.0039C341.884 75.0039 380.169 90.5264 380.921 109.792Z"
        fill="#F7CCA8" fill-rule="evenodd" />
    <path clip-rule="evenodd"
        d="M380.917 109.794H208.609C209.362 129.06 247.646 144.582 294.763 144.582C341.88 144.582 380.165 129.06 380.917 109.794Z"
        fill="#FFA151" fill-rule="evenodd" />
    <path d="M233.699 70.3652H207.34L217.8 94.7156H251.689L233.699 70.3652Z" fill="#FFA151" />
    <path d="M204.803 150.37L214.964 122.541H247.885L229.595 150.37H204.803Z" fill="#F7CCA8" />
</svg>
