<svg width="340" height="273" viewBox="0 0 340 273" fill="none" xmlns="http://www.w3.org/2000/svg">
<path d="M292.134 210.057C300.821 200.465 299.517 183.965 285.622 184.544C283.21 176.583 279.833 167.175 261.016 171.701" stroke="#F58220" stroke-width="4"/>
<path fill-rule="evenodd" clip-rule="evenodd" d="M283.48 155.023C281.582 153.124 278.095 150.421 273.949 148.622C269.797 146.822 265.223 146.027 260.954 147.534L259.623 143.762C265.197 141.794 270.875 142.93 275.54 144.953C279.8 146.8 283.416 149.47 285.689 151.596C291.683 151.542 296.711 152.329 300.902 153.706L298.854 157.254C295.09 156.125 290.506 155.487 284.938 155.608L284.084 155.627L283.48 155.023ZM309.834 163.664C314.242 168.243 315.567 173.804 315.461 177.432L315.4 179.491H317.46C322.149 179.491 325.588 180.739 328.131 182.651C330.692 184.577 332.486 187.283 333.684 190.417C336.103 196.745 335.958 204.488 335.03 209.707L338.969 210.407C339.971 204.771 340.188 196.231 337.42 188.989C336.025 185.338 333.839 181.939 330.535 179.454C327.62 177.262 323.944 175.865 319.409 175.556C319.075 171.172 317.233 165.571 312.694 160.868C312.438 160.603 312.174 160.341 311.901 160.083L309.834 163.664Z" fill="#F58220"/>
<path fill-rule="evenodd" clip-rule="evenodd" d="M167.625 39.9964C168.957 39.1324 170.673 39.1397 172.001 40.0159L199.889 58.4222L201.893 54.9519L174.204 36.6774C171.552 34.9271 168.116 34.9099 165.448 36.6404C133.982 57.0478 78.8971 92.8892 63.4276 103.37C60.1568 105.586 59.5628 109.877 61.8198 112.98C64.0713 116.076 68.3423 116.887 71.5718 114.832L169.827 52.3057L268.229 114.925C271.377 116.929 275.554 116.001 277.557 112.852C279.537 109.741 278.657 105.616 275.579 103.585L208.905 59.5799L206.901 63.0502L273.375 106.923C274.631 107.752 274.991 109.435 274.183 110.705C273.365 111.989 271.661 112.368 270.376 111.55L170.901 48.2477L169.827 47.5644L168.753 48.2477L69.4243 111.457C67.9772 112.378 66.0636 112.015 65.0548 110.627C64.0607 109.26 64.3658 107.566 65.6712 106.681C81.0983 96.2295 136.139 60.4166 167.625 39.9964Z" fill="#F58220"/>
<rect x="101.627" y="136.609" width="59.6856" height="72.7122" fill="#FDC697" stroke="#F58220" stroke-width="4"/>
<line x1="133.469" y1="134.609" x2="133.469" y2="211.321" stroke="#F58220" stroke-width="4"/>
<line x1="99.627" y1="148.53" x2="163.313" y2="148.53" stroke="#F58220" stroke-width="4"/>
<rect x="154.627" y="167.899" width="4.3422" height="11.5792" fill="#F58220"/>
<rect x="-2" y="2" width="59.6856" height="72.7122" transform="matrix(-1 0 0 1 236.027 134.609)" fill="#FDC697" stroke="#F58220" stroke-width="4"/>
<line y1="-2" x2="76.7122" y2="-2" transform="matrix(0 1 1 0 208.184 134.609)" stroke="#F58220" stroke-width="4"/>
<line y1="-2" x2="63.6856" y2="-2" transform="matrix(-1 0 0 1 240.027 150.53)" stroke="#F58220" stroke-width="4"/>
<rect width="4.3422" height="11.5792" transform="matrix(-1 0 0 1 185.027 167.899)" fill="#F58220"/>
<circle cx="169.828" cy="123.753" r="4.5133" stroke="#F58220" stroke-width="4"/>
<line x1="4.09961" y1="209.321" x2="338.449" y2="209.321" stroke="#F58220" stroke-width="4"/>
<circle cx="110.484" cy="251.124" r="10.8555" fill="#FDC697"/>
<circle cx="215.421" cy="261.979" r="7.237" fill="#FDC697"/>
<circle cx="309.503" cy="88.2912" r="7.237" fill="#FDC697"/>
<circle cx="116.997" cy="17.3688" r="7.237" fill="#FDC697"/>
<circle cx="152.46" cy="5.0659" r="5.0659" fill="#FDC697"/>
<circle cx="49.6948" cy="135.332" r="5.0659" fill="#FDC697"/>
<circle cx="65.6146" cy="65.8568" r="3.6185" fill="#FDC697"/>
<circle cx="19.2982" cy="151.253" r="3.6185" fill="#FDC697"/>
<circle cx="55.4836" cy="193.228" r="2.1711" fill="#FDC697"/>
<circle cx="42.4582" cy="233.755" r="2.1711" fill="#FDC697"/>
<circle cx="196.606" cy="237.374" r="2.8948" fill="#FDC697"/>
<circle cx="273.317" cy="228.689" r="2.8948" fill="#FDC697"/>
<circle cx="292.133" cy="137.503" r="2.8948" fill="#FDC697"/>
<circle cx="225.551" cy="24.6057" r="2.8948" fill="#FDC697"/>
<circle cx="129.3" cy="269.941" r="2.1711" fill="#FDC697"/>
<path fill-rule="evenodd" clip-rule="evenodd" d="M56.1736 155.562C58.072 153.664 61.5585 150.96 65.705 149.162C69.8572 147.361 74.4313 146.567 78.6996 148.073L80.0309 144.301C74.4568 142.334 68.7785 143.469 64.1136 145.492C59.8534 147.34 56.2383 150.009 53.9644 152.136C49.8208 152.098 46.1386 152.463 42.8753 153.147L44.8874 156.83C47.7626 156.321 51.0229 156.067 54.7159 156.148L55.5697 156.166L56.1736 155.562ZM32.9602 161.517L31.0315 157.985C29.4918 159.033 28.1401 160.185 26.96 161.407C22.4209 166.111 20.5789 171.712 20.2448 176.095C15.7103 176.405 12.034 177.802 9.11907 179.994C5.81498 182.478 3.62905 185.878 2.23355 189.529C-0.534333 196.77 -0.316763 205.311 0.685209 210.947L4.62346 210.247C3.69556 205.027 3.55128 197.285 5.96992 190.957C7.16768 187.823 8.96211 185.116 11.523 183.191C14.0662 181.278 17.5052 180.03 22.1942 180.03H24.2541L24.1934 177.971C24.0863 174.339 25.4155 168.768 29.8382 164.185C30.7364 163.255 31.7712 162.355 32.9602 161.517Z" fill="#F58220"/>
<path fill-rule="evenodd" clip-rule="evenodd" d="M51.7612 173.313C46.9426 176.818 43.9536 181.557 42.4776 185.435C39.299 185.556 36.6982 186.508 34.6471 188.12C32.3075 189.959 30.8611 192.515 30.0037 195.208C28.3079 200.532 28.7631 206.852 29.6453 211.011L33.5583 210.181C32.7519 206.38 32.411 200.83 33.8151 196.421C34.5075 194.247 35.585 192.47 37.1188 191.265C38.625 190.081 40.7484 189.308 43.8214 189.436L45.3695 189.501L45.8188 188.018C46.8165 184.725 49.3428 180.189 53.6978 176.858L51.7612 173.313ZM65.7691 172.436C69.2955 172.206 73.3658 172.671 78.0392 174.147L79.2437 170.333C73.3311 168.466 68.1573 168.044 63.6854 168.621L65.7691 172.436Z" fill="#F58220"/>
<path fill-rule="evenodd" clip-rule="evenodd" d="M214.183 107.108H81.918H77.918V111.108V207.321V211.321H81.918H257.738H261.738V207.321V111.108V107.108H257.738H226.897V111.108H257.738V207.321H81.918V111.108H214.183V107.108Z" fill="#F58220"/>
</svg>
