<svg width="16" height="16" viewBox="0 0 16 16" fill="none" xmlns="http://www.w3.org/2000/svg">
    <g clip-path="url(#m2mr5l2iua)" fill="#F58220" stroke="#F9F9F9" stroke-width=".2">
        <path d="m14.77 3.69-.027.292-.157-.247C13.198 1.555 10.79.1 8 .1c-3 0-5.646 1.713-6.96 4.285l-.089-.046.09.046a.525.525 0 0 0 .934.477l.09.046-.09-.046C3.118 2.626 5.411 1.15 8 1.15a6.76 6.76 0 0 1 5.708 3.153l-.142.135-.891-.637a.525.525 0 0 0-.61.855l2.702 1.93.003-2.896zm0 0 .082-.908a.525.525 0 0 1 .571-.475M14.77 3.69l.653-1.383m0 0a.525.525 0 0 1 .475.57l-.303 3.33a.526.526 0 0 1-.828.379l.656-4.28zM2.435 11.563l-.143.135A6.76 6.76 0 0 0 8 14.85c2.589 0 4.883-1.476 6.025-3.713a.525.525 0 1 1 .935.478c-1.314 2.572-3.959 4.285-6.96 4.285-2.79 0-5.198-1.456-6.585-3.635l-.158-.247-.026.291-.083.909a.525.525 0 1 1-1.046-.095l.304-3.33a.526.526 0 0 1 .828-.38l2.702 1.93a.525.525 0 0 1-.61.855l-.891-.636zM.003 13.114z"/>
    </g>
    <defs>
        <clipPath id="m2mr5l2iua">
            <path fill="#fff" d="M0 0h16v16H0z"/>
        </clipPath>
    </defs>
</svg>
