<svg width="16" height="16" viewBox="0 0 16 16" fill="none" xmlns="http://www.w3.org/2000/svg">
<g clip-path="url(#clip0_882_15507)">
<path d="M14.7674 10.0512C14.5473 10.0512 14.3689 10.2296 14.3689 10.4497V13.9878C14.3681 14.6478 13.8334 15.1826 13.1734 15.1833H1.99241C1.33243 15.1826 0.797744 14.6478 0.796966 13.9878V3.60374C0.797744 2.94391 1.33243 2.40907 1.99241 2.40829H5.53051C5.75061 2.40829 5.92899 2.22991 5.92899 2.00981C5.92899 1.78987 5.75061 1.61133 5.53051 1.61133H1.99241C0.89254 1.61257 0.00124526 2.50387 0 3.60374V13.988C0.00124526 15.0878 0.89254 15.9791 1.99241 15.9804H13.1734C14.2733 15.9791 15.1646 15.0878 15.1659 13.988V10.4497C15.1659 10.2296 14.9875 10.0512 14.7674 10.0512V10.0512Z" fill="#F58220"/>
<path d="M15.0074 0.585774C14.3071 -0.114529 13.1717 -0.114529 12.4714 0.585774L5.36223 7.69496C5.31351 7.74368 5.27833 7.80407 5.25997 7.87038L4.32509 11.2455C4.28664 11.3839 4.32571 11.5321 4.4272 11.6337C4.52884 11.7352 4.67703 11.7743 4.81541 11.736L8.19053 10.8009C8.25684 10.7826 8.31723 10.7474 8.36595 10.6987L15.475 3.58934C16.1742 2.88857 16.1742 1.75414 15.475 1.05337L15.0074 0.585774ZM6.23049 7.95397L12.0488 2.1355L13.9253 4.01195L8.10678 9.83042L6.23049 7.95397ZM5.85567 8.70611L7.3548 10.2054L5.28114 10.7799L5.85567 8.70611ZM14.9115 3.02586L14.4889 3.44847L12.6123 1.57186L13.0351 1.14925C13.424 0.760266 14.0548 0.760266 14.4438 1.14925L14.9115 1.61685C15.2999 2.0063 15.2999 2.63656 14.9115 3.02586V3.02586Z" fill="#F58220"/>
</g>
<defs>
<clipPath id="clip0_882_15507">
<rect width="16" height="16" fill="white"/>
</clipPath>
</defs>
</svg>
