<svg width="203" height="117" viewBox="0 0 203 117" fill="none" xmlns="http://www.w3.org/2000/svg">
<path opacity="0.1" d="M0.615487 58.1076C-3.79897 24.9929 16.4836 16.9753 31.0953 14.6476C81.1012 2.43802 118.898 -8.89916 155.872 10.2539C183.507 24.5693 230.107 55.8211 182.542 93.755C135.393 131.357 9.66418 125.986 0.615487 58.1076Z" fill="#00B9F1"/>
<rect x="34" y="88.4297" width="135.708" height="5.57212" rx="2.78606" fill="#D6EBFF"/>
<path d="M112.407 68.2891L115.696 77.0136H113.837L110.404 69.1472L112.407 68.2891Z" fill="#F2F2F2"/>
<path d="M143.014 69.4301C152.74 70.4599 155.266 73.1964 155.314 74.436V79.2989L156.029 80.014C156.029 82.3024 154.79 83.2559 154.17 83.4466H152.168C152.406 81.4919 151.624 77.4967 146.59 77.1535C141.555 76.8102 140.106 81.2059 140.01 83.4466H114.409C114.552 81.3012 113.088 77.3729 108.688 77.1535C103.772 76.9083 102.538 81.3966 102.538 83.4466H100.392V78.5837L102.538 76.4384H128.568V60.5625H139.581L143.014 69.4301Z" fill="#A2C2EA"/>
<path d="M139.009 61.707L141.298 69.0013L131 68.4292V61.707H139.009Z" fill="#DCDCDD"/>
<path d="M153.455 79.4453H155.314L156.029 80.0174C156.029 82.1914 154.885 83.2117 154.313 83.45H153.455V79.4453Z" fill="#439EF2"/>
<path d="M106.542 57.8464L121.989 66.714L120.988 72.5778L105.684 59.7055L104.111 60.2776C103.062 59.7532 100.85 58.533 100.392 57.8464C99.8203 56.9883 99.9633 54.9859 102.395 55.415C104.34 55.7583 105.97 57.179 106.542 57.8464Z" fill="#A4CEF4"/>
<path d="M123.926 57.6953H127.647V76.3889H119.918L123.926 57.6953Z" fill="#6FB6F8"/>
<circle r="5.29195" transform="matrix(-1 0 0 1 146.16 83.163)" fill="#BECAD6"/>
<circle r="3.00354" transform="matrix(-1 0 0 1 146.161 83.1637)" fill="#829599"/>
<circle r="2.43144" transform="matrix(-1 0 0 1 146.16 83.1619)" fill="#C4C4C4"/>
<circle r="1.57328" transform="matrix(-1 0 0 1 146.16 83.1631)" fill="#829599"/>
<circle r="5.29195" transform="matrix(-1 0 0 1 108.401 83.163)" fill="#BECAD6"/>
<circle r="3.00354" transform="matrix(-1 0 0 1 108.402 83.1637)" fill="#829599"/>
<circle r="2.43144" transform="matrix(-1 0 0 1 108.402 83.1619)" fill="#C4C4C4"/>
<circle r="1.57328" transform="matrix(-1 0 0 1 108.401 83.1631)" fill="#829599"/>
<rect width="4.00472" height="4.86287" rx="2.00236" transform="matrix(-1 0 0 1 137.436 55.5586)" fill="#A2C2EA"/>
<rect width="5.14892" height="0.858154" transform="matrix(-1 0 0 1 138.008 59.5625)" fill="#1F88E8"/>
<rect width="1.43026" height="4.00472" transform="matrix(-1 0 0 1 155.457 75.0117)" fill="#F2F2F2"/>
<rect width="1.14421" height="3.14656" transform="matrix(-1 0 0 1 132.859 70.4297)" fill="#F2F2F2"/>
<circle r="1.00118" transform="matrix(-1 0 0 1 103.253 57.9895)" fill="#F2F2F2"/>
<rect width="0.669124" height="15.7328" transform="matrix(-0.973303 -0.229523 -0.229523 0.973303 102.252 58.8555)" fill="#BEE0FF"/>
<path d="M109.403 62.7097L111.691 68.5738L110.976 68.8598L108.259 61.8516L109.403 62.7097Z" fill="#BEE0FF"/>
<rect width="0.858154" height="3.14656" transform="matrix(-1 0 0 1 101.364 78.543)" fill="#F2F2F2"/>
<path d="M49.9226 81.2973L50.385 83.8363C50.385 83.8363 51.4548 85.1154 52.0308 85.2404L61.7415 83.4718L62.4143 83.1194L62.8572 83.7758L87.0911 79.3621L87.1513 79.3274L88.1761 78.7493L96.6119 78.3176C96.6119 78.3176 96.8705 78.2578 97.2358 78.1406C98.2603 77.8129 100.12 77.0351 99.4343 75.8699C99.4343 75.8699 99.4404 73.4232 98.7529 72.1283C98.7529 72.1283 98.2704 70.2365 96.501 69.8677C94.7303 69.5008 89.6394 69.0918 86.8944 69.1797C86.8944 69.1797 84.4036 68.8963 83.2084 68.1472C83.2084 68.1472 80.5819 66.8408 77.499 66.109C75.8377 65.7158 74.1192 65.6182 72.4186 65.7663C69.1279 66.0518 62.0104 66.8647 57.7346 68.7814C54.1023 70.4113 51.973 73.0181 50.9075 74.6957C50.3224 75.6169 50.1126 76.7186 50.3082 77.7925L50.4836 78.7559L50.3751 79.9264C50.3735 79.9266 49.7846 80.5395 49.9226 81.2973Z" fill="#4B8BE7"/>
<path d="M87.0492 78.8783C87.0768 79.0302 87.1106 79.1809 87.1515 79.3272L88.1763 78.7491L96.6121 78.3174C96.6121 78.3174 96.8707 78.2577 97.2361 78.1404C97.2493 77.7782 97.2233 77.4089 97.1557 77.0376C96.6475 74.2471 93.9726 72.3965 91.1821 72.9047C88.3916 73.4129 86.5409 76.0878 87.0492 78.8783Z" fill="white"/>
<path d="M92.854 82.0897C90.5732 82.5051 88.3875 80.9929 87.9721 78.7121C87.5567 76.4313 89.069 74.2457 91.3497 73.8303C93.6305 73.4149 95.8162 74.9271 96.2316 77.2079C96.647 79.4887 95.1348 81.6744 92.854 82.0897Z" fill="#BECAD6"/>
<path d="M62.5508 83.32L62.4139 83.1167L61.7411 83.4691L52.4461 85.1619C51.9484 82.3774 53.7962 79.7126 56.5805 79.2055C59.3664 78.6981 62.035 80.5404 62.5508 83.32Z" fill="white"/>
<path d="M58.2544 88.3905C55.9736 88.8059 53.7879 87.2937 53.3725 85.0129C52.9571 82.7321 54.4693 80.5464 56.7501 80.131C59.0309 79.7156 61.2166 81.2279 61.632 83.5086C62.0474 85.7894 60.5352 87.9751 58.2544 88.3905Z" fill="#BECAD6"/>
<path d="M69.5899 67.2764C70.4528 67.1493 71.0011 67.0796 71.0122 67.0792L71.0431 67.0751L71.0738 67.0695C71.1592 67.0508 71.2451 67.0352 71.331 67.0195C75.0757 66.3375 79.2117 67.8824 81.3446 68.8634C82.308 69.306 83.1334 70.0259 83.6962 70.906L71.5891 72.1268L69.5899 67.2764Z" fill="#DCDCDD"/>
<path d="M58.5778 70.0526C59.6693 69.3181 62.4415 68.5184 66.3964 67.7981C66.8597 67.7138 67.31 67.6365 67.7345 67.5655L69.0551 72.3795L57.057 73.5899C56.9784 73.376 56.9079 73.1717 56.85 72.9841L56.8457 72.969L56.8398 72.9543C56.5837 72.2528 57.7146 70.8216 58.5778 70.0526Z" fill="#DCDCDD"/>
<path d="M97.7547 71.5359C97.7547 71.5359 95.7633 69.9222 93.9487 70.4016C93.5072 70.5185 92.2771 71.3622 94.5776 72.1146C95.2972 72.3496 96.6239 72.3236 97.6069 72.1604C98.4035 72.0264 97.7547 71.5359 97.7547 71.5359Z" fill="#F2F2F2"/>
<path d="M50.4825 78.7545L50.307 77.7911C50.2313 77.3754 50.2345 76.9579 50.2783 76.5458C50.9259 76.3423 51.7483 76.1497 52.0675 76.3705C52.4919 76.6641 52.731 77.9773 52.4374 78.4016C52.1915 78.7571 51.1729 78.8554 50.472 78.88L50.4825 78.7545Z" fill="#F2F2F2"/>
<path d="M92.6039 80.7187C91.0813 80.996 89.6223 79.9865 89.345 78.464C89.0677 76.9415 90.0772 75.4825 91.5997 75.2052C93.1222 74.9279 94.5812 75.9374 94.8585 77.4599C95.1358 78.9824 94.1264 80.4414 92.6039 80.7187Z" fill="#9EADBD"/>
<path d="M92.5116 80.2083C91.2696 80.4345 90.0793 79.611 89.8531 78.3689C89.6269 77.1269 90.4504 75.9366 91.6924 75.7104C92.9345 75.4842 94.1248 76.3077 94.351 77.5497C94.5772 78.7918 93.7537 79.9821 92.5116 80.2083Z" fill="#939799"/>
<path d="M92.3978 79.5785C91.504 79.7413 90.6474 79.1487 90.4846 78.2549C90.3218 77.361 90.9145 76.5044 91.8083 76.3416C92.7022 76.1788 93.5587 76.7715 93.7215 77.6653C93.8843 78.5592 93.2917 79.4158 92.3978 79.5785Z" fill="#CBD6E0"/>
<path d="M58.0052 87.0156C56.4827 87.2928 55.0237 86.2834 54.7464 84.7609C54.4691 83.2384 55.4786 81.7794 57.0011 81.5021C58.5236 81.2248 59.9826 82.2342 60.2599 83.7567C60.5372 85.2792 59.5277 86.7383 58.0052 87.0156Z" fill="#9EADBD"/>
<path d="M57.912 86.5091C56.67 86.7353 55.4797 85.9118 55.2535 84.6697C55.0273 83.4276 55.8508 82.2374 57.0928 82.0112C58.3349 81.7849 59.5252 82.6085 59.7514 83.8505C59.9776 85.0926 59.1541 86.2829 57.912 86.5091Z" fill="#939799"/>
<path d="M57.7972 85.8754C56.9034 86.0382 56.0468 85.4456 55.884 84.5517C55.7212 83.6579 56.3139 82.8013 57.2077 82.6385C58.1016 82.4757 58.9581 83.0684 59.1209 83.9622C59.2837 84.8561 58.6911 85.7126 57.7972 85.8754Z" fill="#CBD6E0"/>
<path d="M80.8646 71.1886L78.3167 71.445L74.2226 66.8842C75.3724 66.9664 76.4898 67.1925 77.5321 67.4765L80.8646 71.1886Z" fill="#F2F2F2"/>
<path d="M77.419 71.5396L76.0899 71.6739L71.8605 66.9618C72.3145 66.9045 72.7698 66.8723 73.2274 66.8697L77.419 71.5396Z" fill="#F2F2F2"/>
<path d="M68.3625 72.4544L65.8146 72.7108L62.2214 68.707C62.9114 68.5275 63.6807 68.3478 64.5205 68.1726L68.3625 72.4544Z" fill="#F2F2F2"/>
<path d="M64.9181 72.8003L63.589 72.9346L60.306 69.2768C60.6488 69.1574 61.0185 69.0377 61.4344 68.9192L64.9181 72.8003Z" fill="#F2F2F2"/>
<path d="M42.9866 26.7892C41.9824 28.4172 41.7315 30.3505 44.2418 32.2583H58.7468C59.5836 32.0463 61.1736 31.2154 60.8388 29.5874C60.5041 27.9594 58.3748 27.722 57.3521 27.8068C57.2126 26.5349 56.6547 23.8641 53.1679 23.101C50.3785 22.4905 48.0075 24.7967 47.1707 26.0261C46.1944 25.6021 43.9908 25.1612 42.9866 26.7892Z" fill="white"/>
<path d="M78.104 41.9568C77.5079 42.92 77.3589 44.0638 78.8491 45.1926H87.4598C87.9566 45.0672 88.9004 44.5755 88.7017 43.6123C88.503 42.6491 87.239 42.5086 86.6319 42.5588C86.5491 41.8063 86.2179 40.2261 84.148 39.7746C82.4921 39.4134 81.0846 40.7779 80.5878 41.5053C80.0083 41.2544 78.7001 40.9936 78.104 41.9568Z" fill="white"/>
<path d="M106.538 26.3629C105.644 27.8077 105.42 29.5235 107.656 31.2166H120.572C121.317 31.0285 122.732 30.2911 122.434 28.8462C122.136 27.4014 120.24 27.1907 119.33 27.266C119.205 26.1372 118.709 23.7669 115.604 23.0896C113.12 22.5478 111.009 24.5945 110.264 25.6856C109.394 25.3094 107.432 24.9181 106.538 26.3629Z" fill="white"/>
<path d="M149.137 40.2027C148.243 41.6476 148.02 43.3633 150.255 45.0564H163.171C163.916 44.8683 165.332 44.1309 165.034 42.6861C164.736 41.2412 162.84 41.0305 161.929 41.1058C161.805 39.977 161.308 37.6067 158.203 36.9295C155.72 36.3877 153.608 38.4344 152.863 39.5255C151.994 39.1492 150.032 38.7579 149.137 40.2027Z" fill="white"/>
</svg>
