<svg width="16" height="16" viewBox="0 0 16 16" fill="none" xmlns="http://www.w3.org/2000/svg">
    <g clip-path="url(#t2dbh6xfka)" fill="#F58220">
        <path d="m15.72 14.191-2.48-2.48c.345-.596.541-1.287.541-2.024a4.049 4.049 0 0 0-1.126-2.804V3.375a.312.312 0 0 0-.091-.221L9.502.092A.312.312 0 0 0 9.28 0V0H.969A.939.939 0 0 0 .03.938v14.124c0 .518.42.938.938.938h10.749c.517 0 .938-.42.938-.938v-.94l1.566 1.568c.207.206.478.31.75.31a1.061 1.061 0 0 0 .75-1.808zM9.72 13.125A3.441 3.441 0 0 1 6.28 9.687 3.441 3.441 0 0 1 9.72 6.25a3.441 3.441 0 0 1 3.437 3.438 3.441 3.441 0 0 1-3.437 3.437zM9.593 1.067l1.995 1.995H9.906a.313.313 0 0 1-.313-.312V1.067zm2.438 13.995c0 .173-.14.313-.313.313H.968a.313.313 0 0 1-.312-.313V.938c0-.173.14-.313.313-.313h8V2.75c0 .517.42.937.937.937h2.124V6.35a4.039 4.039 0 0 0-2.311-.724 4.067 4.067 0 0 0-3.864 5.316H2.036a.313.313 0 0 0 0 .625h3.99a.31.31 0 0 0 .085-.012A4.067 4.067 0 0 0 9.72 13.75c.736 0 1.427-.197 2.023-.54l.288.288v1.565zm3.248.186a.435.435 0 0 1-.615 0l-2.398-2.398c.226-.183.432-.389.615-.615l2.398 2.398c.17.17.17.445 0 .615z"/>
        <path d="M4.848 8.775H2.035a.313.313 0 0 0 0 .625h2.813a.312.312 0 1 0 0-.625zM5.033 6.607H2.035a.313.313 0 0 0 0 .625h2.998a.313.313 0 0 0 0-.625zM4.684 13.107H2.035a.313.313 0 0 0 0 .625h2.65a.313.313 0 0 0 0-.625zM6.983 4.441h-4.67a.313.313 0 0 0 0 .625h4.67a.313.313 0 0 0 0-.625zM2.313 2.9h5.995a.312.312 0 1 0 0-.625H2.313a.313.313 0 0 0 0 .625z"/>
    </g>
    <defs>
        <clipPath id="t2dbh6xfka">
            <path fill="#fff" d="M0 0h16v16H0z"/>
        </clipPath>
    </defs>
</svg>
