<svg width="16" height="16" viewBox="0 0 16 16" fill="none" xmlns="http://www.w3.org/2000/svg">
    <path d="M11.188 2.096v.05h1.497c.831.01 1.51.664 1.55 1.494v10.912c0 .805-.732 1.398-1.55 1.398h-9.37c-.817 0-1.55-.593-1.55-1.397V3.64c.04-.83.72-1.485 1.55-1.494h1.497V1.45c0-.085.042-.147.108-.189a.497.497 0 0 1 .261-.066h1.14l.012-.033A1.683 1.683 0 0 1 7.979.051h.002c.744 0 1.39.371 1.648 1.11l.012.033H10.8c.098 0 .198.023.272.067.072.043.116.105.116.188v.647zm-5.664-.24h-.05V3.48h5.052V1.856H9.392a.369.369 0 0 1-.333-.302v-.001c-.11-.511-.554-.881-1.076-.897H7.98a1.155 1.155 0 0 0-1.095.896v.002a.37.37 0 0 1-.316.302H5.524zm8.05 12.697V3.634a.907.907 0 0 0-.888-.827h-1.498v1.018a.369.369 0 0 1-.385.316H5.179a.35.35 0 0 1-.367-.315V2.808H3.314a.907.907 0 0 0-.887.827v10.917a.67.67 0 0 0 .281.54c.167.127.387.196.607.196h9.37c.22 0 .44-.07.607-.196a.67.67 0 0 0 .281-.54z" fill="#F58220" stroke="#F9F9F9" stroke-width=".1"/>
    <path d="m6.5 8.55.002.002a.312.312 0 0 1 0 .46H6.5l-1.486 1.41v.001a.33.33 0 0 1-.233.1.293.293 0 0 1-.228-.098l-.002-.002-.78-.8a.35.35 0 0 1-.001-.482.331.331 0 0 1 .462.018l.514.534.035.036.036-.035 1.218-1.161a.33.33 0 0 1 .463.017zM4.782 9.658l-.514-.533 1.733-.629-1.219 1.162zm1.752-.61a.362.362 0 0 0 .022-.51l-2.04 1.92a.343.343 0 0 0 .266.114.381.381 0 0 0 .267-.114l1.485-1.41zM7.62 9.384H12a.33.33 0 1 1 0 .662H7.62a.33.33 0 1 1 0-.662zM6.5 5.503l.002.002a.312.312 0 0 1 0 .46H6.5l-1.486 1.41v.001a.33.33 0 0 1-.233.1.293.293 0 0 1-.228-.098l-.002-.002-.78-.8a.35.35 0 0 1-.001-.481.33.33 0 0 1 .462.017l.514.534.035.036.036-.035 1.218-1.161a.33.33 0 0 1 .463.017zM4.782 6.61l-.514-.533 1.733-.629-1.219 1.162zm1.752-.61a.362.362 0 0 0 .022-.51l-2.04 1.92a.343.343 0 0 0 .266.114.38.38 0 0 0 .267-.114l1.485-1.41zM7.62 6.337H12A.33.33 0 1 1 12 7H7.62a.33.33 0 1 1 0-.662zM6.5 11.597l.002.002a.312.312 0 0 1 0 .46H6.5l-1.486 1.41a.33.33 0 0 1-.233.1.292.292 0 0 1-.228-.098l-.002-.001-.78-.8a.35.35 0 0 1-.001-.482.33.33 0 0 1 .462.018l.514.534.035.035.036-.034 1.218-1.161a.33.33 0 0 1 .463.017zm-1.717 1.108-.514-.533 1.733-.629-1.219 1.162zm1.752-.61a.362.362 0 0 0 .022-.51l-2.04 1.92a.343.343 0 0 0 .266.114.38.38 0 0 0 .267-.114l1.485-1.41zM7.62 12.43H12a.33.33 0 1 1 0 .663H7.62a.33.33 0 1 1 0-.662z" fill="#F58220" stroke="#F9F9F9" stroke-width=".1"/>
</svg>
