<svg width="203" height="117" viewBox="0 0 203 117" fill="none" xmlns="http://www.w3.org/2000/svg">
<path opacity="0.1" d="M0.615487 58.1076C-3.79897 24.9929 16.4836 16.9753 31.0953 14.6476C81.1012 2.43802 118.898 -8.89916 155.872 10.2539C183.507 24.5693 230.107 55.8211 182.542 93.755C135.393 131.357 9.66418 125.986 0.615487 58.1076Z" fill="#00B9F1"/>
<path d="M153.886 81.5127C149.705 79.3773 134.876 92.0623 127.984 98.6717H162.974H166.357C162.974 89.006 159.112 84.1818 153.886 81.5127Z" fill="#E5DBDC"/>
<path d="M138.035 18.0753C136.955 19.8261 136.685 21.9054 139.385 23.9571H154.985C155.885 23.7292 157.595 22.8355 157.235 21.0846C156.875 19.3338 154.585 19.0784 153.485 19.1696C153.335 17.8017 152.735 14.9293 148.985 14.1086C145.985 13.452 143.435 15.9323 142.535 17.2545C141.485 16.7986 139.115 16.3244 138.035 18.0753Z" fill="white"/>
<path d="M60.6858 36.9812C59.8493 37.8845 60.4612 38.9571 62.5525 40.0155L67.7905 41.2583H71.1284L73.8152 40.0155C74.5123 39.8979 75.8369 39.4369 75.558 38.5337C75.2792 37.6305 73.5054 37.4987 72.6533 37.5458C72.5371 36.8401 72.0724 35.3583 69.1676 34.9349C66.8439 34.5962 64.8686 35.8757 64.1715 36.5578C63.3582 36.3226 61.5224 36.078 60.6858 36.9812Z" fill="white"/>
<path d="M48.3881 36.9223C47.8269 37.5518 48.2374 38.2994 49.6404 39.0371L53.1545 39.9033H55.3939L57.1964 39.0371C57.6641 38.9551 58.5527 38.6338 58.3657 38.0043C58.1786 37.3748 56.9886 37.283 56.4169 37.3158C56.339 36.8239 56.0272 35.7912 54.0784 35.4961C52.5194 35.26 51.1943 36.1518 50.7266 36.6272C50.181 36.4633 48.9493 36.2928 48.3881 36.9223Z" fill="white"/>
<path d="M37.1396 37.9816C36.6631 37.6532 37.0116 37.2631 38.2029 36.8782L41.1865 36.4263H43.0879L44.6183 36.8782C45.0154 36.921 45.7699 37.0886 45.6111 37.4171C45.4522 37.7455 44.4418 37.7934 43.9565 37.7763C43.8903 38.0329 43.6256 38.5718 41.971 38.7257C40.6473 38.8489 39.5222 38.3836 39.1251 38.1356C38.6618 38.2211 37.6161 38.3101 37.1396 37.9816Z" fill="white"/>
<path d="M130.778 60.9033C130.137 61.9393 129.976 63.1695 131.579 64.3834H140.84C141.374 64.2485 142.389 63.7198 142.175 62.6839C141.962 61.648 140.602 61.4969 139.949 61.5508C139.86 60.7415 139.504 59.042 137.278 58.5565C135.497 58.168 133.983 59.6355 133.449 60.4178C132.826 60.148 131.419 59.8674 130.778 60.9033Z" fill="white"/>
<path d="M71.837 67.3003C70.8754 68.8542 70.6351 70.6995 73.0391 72.5204H86.9301C87.7315 72.3181 89.2542 71.525 88.9336 69.9711C88.6131 68.4172 86.574 68.1906 85.5945 68.2716C85.4609 67.0576 84.9266 64.5084 81.5875 63.78C78.9161 63.1973 76.6455 65.3985 75.8441 66.5719C74.9091 66.1673 72.7987 65.7464 71.837 67.3003Z" fill="white"/>
<path d="M115.991 81.8342C111.116 88.8005 100.175 95.5902 95.3135 98.1143L152.341 99.2508V95.8426C138.628 78.8053 122.086 73.1262 115.991 81.8342Z" fill="#AD624E" fill-opacity="0.2"/>
<rect x="35" y="97.3203" width="133" height="5.99273" rx="2.99637" fill="#D6EBFF"/>
<rect x="43.7988" y="97.3359" width="1.30572" height="3.98285" fill="#127CDD"/>
<mask id="mask0" mask-type="alpha" maskUnits="userSpaceOnUse" x="39" y="80" width="11" height="19">
<ellipse cx="44.4518" cy="89.1724" rx="8.96142" ry="5.00528" transform="rotate(90 44.4518 89.1724)" fill="#C4C4C4"/>
</mask>
<g mask="url(#mask0)">
<rect x="44.6699" y="79.0156" width="5.65814" height="19.9143" fill="#39B1CB"/>
<rect width="5.65814" height="19.9143" transform="matrix(-1 0 0 1 44.6699 79.0156)" fill="#5DC1D7"/>
</g>
<rect x="54.4004" y="96.3945" width="0.960816" height="2.93078" fill="#127CDD"/>
<mask id="mask1" mask-type="alpha" maskUnits="userSpaceOnUse" x="51" y="83" width="8" height="14">
<ellipse cx="54.8813" cy="90.3911" rx="6.59425" ry="3.68313" transform="rotate(90 54.8813 90.3911)" fill="#C4C4C4"/>
</mask>
<g mask="url(#mask1)">
<rect x="55.042" y="82.918" width="4.16354" height="14.6539" fill="#39B1CB"/>
<rect width="4.16354" height="14.6539" transform="matrix(-1 0 0 1 55.042 82.918)" fill="#5DC1D7"/>
</g>
<rect x="156.625" y="96.8477" width="0.812998" height="2.47989" fill="#127CDD"/>
<mask id="mask2" mask-type="alpha" maskUnits="userSpaceOnUse" x="153" y="86" width="8" height="12">
<ellipse cx="157.032" cy="91.7594" rx="5.57975" ry="3.11649" transform="rotate(90 157.032 91.7594)" fill="#C4C4C4"/>
</mask>
<g mask="url(#mask2)">
<rect x="157.167" y="85.4375" width="3.52299" height="12.3995" fill="#39B1CB"/>
<rect width="3.52299" height="12.3995" transform="matrix(-1 0 0 1 157.167 85.4375)" fill="#5DC1D7"/>
</g>
<rect x="146.546" y="96.5781" width="0.812998" height="2.47989" fill="#127CDD"/>
<mask id="mask3" mask-type="alpha" maskUnits="userSpaceOnUse" x="143" y="85" width="8" height="13">
<ellipse cx="146.953" cy="91.4938" rx="5.57975" ry="3.11649" transform="rotate(90 146.953 91.4938)" fill="#C4C4C4"/>
</mask>
<g mask="url(#mask3)">
<rect x="147.088" y="85.1719" width="3.52299" height="12.3995" fill="#39B1CB"/>
<rect width="3.52299" height="12.3995" transform="matrix(-1 0 0 1 147.088 85.1719)" fill="#5DC1D7"/>
</g>
<path d="M99.5098 54.3249V49.0024L119.096 45.9609L117.38 54.3249H99.5098Z" fill="#A4CEF4"/>
<path fill-rule="evenodd" clip-rule="evenodd" d="M130.843 37.5977H71.6582C71.9165 30.9802 85.0666 25.6484 101.251 25.6484C117.435 25.6484 130.585 30.9802 130.843 37.5977Z" fill="#A4CEF4"/>
<path fill-rule="evenodd" clip-rule="evenodd" d="M130.839 37.5977H71.6543C71.9126 44.2151 85.0627 49.5469 101.247 49.5469C117.431 49.5469 130.581 44.2151 130.839 37.5977Z" fill="#6FB6F8"/>
<path d="M80.2736 24.0547H71.2197L74.8125 32.4187H86.4532L80.2736 24.0547Z" fill="#6FB6F8"/>
<path d="M70.3486 51.5354L73.8388 41.9766H85.1468L78.8646 51.5354H70.3486Z" fill="#A4CEF4"/>
</svg>
