<svg width="16" height="16" viewBox="0 0 16 16" fill="none" xmlns="http://www.w3.org/2000/svg">
<path d="M10.2064 5.21534C10.2834 5.13847 10.3876 5.09529 10.4964 5.09529C10.6051 5.09529 10.7094 5.13847 10.7863 5.21534L11.4736 5.90264L12.0023 1.88634L7.98595 2.41495L8.67326 3.10232C8.71134 3.14039 8.74155 3.18559 8.76215 3.23534C8.78276 3.28509 8.79337 3.33841 8.79337 3.39226C8.79337 3.44611 8.78276 3.49943 8.76215 3.54918C8.74155 3.59892 8.71134 3.64412 8.67326 3.6822L5.5856 6.76986L6.46251 7.64674C6.53896 7.72373 6.58179 7.82788 6.5816 7.93638C6.58141 8.04489 6.53823 8.14889 6.46151 8.22562C6.38479 8.30234 6.28079 8.34554 6.17229 8.34573C6.06379 8.34593 5.95963 8.30312 5.88263 8.22667L4.71579 7.05983C4.63888 6.98292 4.59568 6.87862 4.59568 6.76986C4.59568 6.6611 4.63888 6.55679 4.71579 6.47989L7.80347 3.39224L6.81814 2.40684C6.76404 2.35272 6.72615 2.28454 6.70878 2.21002C6.69141 2.13549 6.69523 2.05759 6.71983 1.98512C6.74443 1.91266 6.78882 1.84852 6.84797 1.79997C6.90713 1.75142 6.97869 1.72039 7.05456 1.7104L12.425 1.00351C12.4874 0.995298 12.5508 1.00154 12.6103 1.02176C12.6699 1.04197 12.724 1.07562 12.7685 1.12009C12.813 1.16456 12.8466 1.21867 12.8668 1.27823C12.887 1.33778 12.8933 1.40119 12.8851 1.46355L12.1782 6.83404C12.1682 6.90992 12.1372 6.9815 12.0886 7.04067C12.0401 7.09984 11.976 7.14424 11.9035 7.16885C11.831 7.19346 11.7531 7.19729 11.6786 7.17991C11.604 7.16253 11.5358 7.12464 11.4817 7.07052L10.4964 6.08516L5.7954 10.7843C5.71849 10.8611 5.6142 10.9043 5.50546 10.9043C5.39672 10.9043 5.29244 10.8611 5.21552 10.7843L4.52824 10.097L3.99956 14.1133L8.0159 13.5846L7.32859 12.8973C7.25169 12.8204 7.20849 12.7161 7.20849 12.6074C7.20849 12.4986 7.25169 12.3943 7.32859 12.3174L10.4163 9.22975L9.53878 8.35218C9.50057 8.31414 9.47023 8.26893 9.44951 8.21914C9.4288 8.16936 9.4181 8.11598 9.41804 8.06205C9.41798 8.00813 9.42856 7.95472 9.44917 7.9049C9.46978 7.85507 9.50001 7.80979 9.53815 7.77166C9.57628 7.73354 9.62156 7.7033 9.67139 7.6827C9.72122 7.6621 9.77462 7.65152 9.82855 7.65159C9.88247 7.65165 9.93585 7.66235 9.98563 7.68308C10.0354 7.7038 10.0806 7.73414 10.1187 7.77236L11.2861 8.93983C11.3242 8.9779 11.3544 9.02311 11.375 9.07285C11.3956 9.1226 11.4062 9.17592 11.4062 9.22977C11.4062 9.28362 11.3956 9.33694 11.375 9.38669C11.3544 9.43643 11.3242 9.48163 11.2861 9.51971L8.1984 12.6074L9.18375 13.5926C9.23786 13.6468 9.27575 13.7149 9.29313 13.7895C9.31051 13.864 9.30668 13.9419 9.28208 14.0144C9.25748 14.0869 9.21309 14.151 9.15393 14.1996C9.09477 14.2481 9.0232 14.2792 8.94732 14.2891L3.57682 14.9961C3.51447 15.0043 3.45106 14.9981 3.3915 14.9779C3.33195 14.9576 3.27784 14.924 3.23337 14.8795C3.1889 14.835 3.15525 14.7809 3.13504 14.7214C3.11482 14.6618 3.10858 14.5984 3.11679 14.5361L3.82367 9.16557C3.83365 9.08968 3.86467 9.01811 3.91321 8.95894C3.96176 8.89977 4.0259 8.85537 4.09837 8.83076C4.17084 8.80615 4.24875 8.80232 4.32329 8.8197C4.39783 8.83707 4.46601 8.87496 4.52013 8.92908L5.50545 9.91442L10.2064 5.21534Z" fill="#F58220"/>
</svg>
