<svg width="16" height="16" viewBox="0 0 16 16" fill="none" xmlns="http://www.w3.org/2000/svg">
<g clip-path="url(#clip0_1142_12199)">
<path d="M15.7208 14.191L13.2407 11.7108C13.5845 11.1147 13.7814 10.4237 13.7814 9.6875C13.7814 8.60095 13.3525 7.61279 12.6554 6.88306V3.37463C12.6552 3.37463 12.6549 3.37463 12.6547 3.37463C12.6547 3.29333 12.6237 3.2135 12.564 3.15369L9.50183 0.0915527C9.44202 0.0317383 9.36206 0.000854494 9.28076 0.000854494C9.28076 0.000488281 9.28076 0.000366213 9.28088 0H0.96875C0.451782 0 0.03125 0.420532 0.03125 0.9375V15.0625C0.03125 15.5795 0.451782 16 0.96875 16H11.718C12.2349 16 12.6555 15.5795 12.6555 15.0625V14.1228L14.2223 15.6897C14.4288 15.8962 14.7002 15.9995 14.9717 15.9995C15.243 15.9995 15.5144 15.8962 15.7209 15.6897C16.134 15.2765 16.134 14.6042 15.7208 14.191V14.191ZM9.71887 13.125C7.82349 13.125 6.28137 11.5829 6.28137 9.6875C6.28137 7.79211 7.82349 6.25 9.71887 6.25C11.6143 6.25 13.1564 7.79211 13.1564 9.6875C13.1564 11.5829 11.6143 13.125 9.71887 13.125ZM9.59338 1.06702L11.5885 3.06226H9.90588C9.73352 3.06226 9.59338 2.922 9.59338 2.74976V1.06702ZM12.0305 15.0625C12.0305 15.2349 11.8903 15.375 11.718 15.375H0.96875C0.796387 15.375 0.65625 15.2349 0.65625 15.0625V0.9375C0.65625 0.765137 0.796387 0.625 0.96875 0.625H8.96838V2.74963C8.96838 3.2666 9.38892 3.68713 9.90588 3.68713H12.0304V6.34875C11.3739 5.8927 10.5771 5.625 9.71887 5.625C7.47876 5.625 5.65637 7.44739 5.65637 9.6875C5.65637 10.1249 5.7262 10.5464 5.85474 10.9415H2.03601C1.86353 10.9415 1.72351 11.0814 1.72351 11.254C1.72351 11.4265 1.86353 11.5665 2.03601 11.5665H6.02649C6.05591 11.5665 6.08447 11.5621 6.11145 11.5544C6.7887 12.8577 8.15149 13.75 9.71887 13.75C10.455 13.75 11.146 13.5531 11.7421 13.2094L12.0305 13.4978V15.0625ZM15.2789 15.2477C15.1095 15.4172 14.8337 15.4172 14.6643 15.2477L12.2662 12.8496C12.4923 12.6671 12.6984 12.4611 12.8809 12.235L15.2789 14.6329C15.4485 14.8025 15.4485 15.0782 15.2789 15.2477V15.2477Z" fill="#F6821F"/>
<path d="M4.84753 8.7749H2.03516C1.86267 8.7749 1.72266 8.91479 1.72266 9.0874C1.72266 9.26001 1.86267 9.3999 2.03516 9.3999H4.84753C5.02014 9.3999 5.16003 9.26001 5.16003 9.0874C5.16003 8.91479 5.02014 8.7749 4.84753 8.7749Z" fill="#F6821F"/>
<path d="M5.03271 6.6084H2.03516C1.86267 6.6084 1.72266 6.74829 1.72266 6.9209C1.72266 7.09338 1.86267 7.2334 2.03516 7.2334H5.03271C5.20532 7.2334 5.34521 7.09338 5.34521 6.9209C5.34521 6.74829 5.20532 6.6084 5.03271 6.6084Z" fill="#F6821F"/>
<path d="M4.68445 13.1084H2.03516C1.86267 13.1084 1.72266 13.2483 1.72266 13.4209C1.72266 13.5934 1.86267 13.7334 2.03516 13.7334H4.68445C4.85693 13.7334 4.99695 13.5934 4.99695 13.4209C4.99695 13.2483 4.85706 13.1084 4.68445 13.1084Z" fill="#F6821F"/>
<path d="M6.98315 4.44141H2.3125C2.14001 4.44141 2 4.5813 2 4.75391C2 4.92639 2.14001 5.06641 2.3125 5.06641H6.98315C7.15576 5.06641 7.29565 4.92639 7.29565 4.75391C7.29565 4.5813 7.15576 4.44141 6.98315 4.44141Z" fill="#F6821F"/>
<path d="M2.3125 2.8999H8.30774C8.48035 2.8999 8.62024 2.76001 8.62024 2.5874C8.62024 2.41479 8.48035 2.2749 8.30774 2.2749H2.3125C2.14001 2.2749 2 2.41479 2 2.5874C2 2.76001 2.14001 2.8999 2.3125 2.8999Z" fill="#F6821F"/>
</g>
<defs>
<clipPath id="clip0_1142_12199">
<rect width="16" height="16" fill="white"/>
</clipPath>
</defs>
</svg>
