<svg width="20" height="20" viewBox="0 0 20 20" fill="none" xmlns="http://www.w3.org/2000/svg">
<path d="M17.7034 0.805083C16.6282 -0.268361 14.887 -0.268361 13.8118 0.805083L12.8376 1.78468L2.46763 12.1501L2.44559 12.1723C2.44025 12.1777 2.44025 12.1833 2.43457 12.1833C2.42355 12.1999 2.40702 12.2162 2.39618 12.2328C2.39618 12.2383 2.39049 12.2383 2.39049 12.2438C2.37948 12.2603 2.37414 12.2713 2.36295 12.2879C2.35761 12.2934 2.35761 12.2987 2.3521 12.3044C2.34659 12.3209 2.34108 12.3319 2.3354 12.3485C2.3354 12.3538 2.33006 12.3538 2.33006 12.3595L0.0292797 19.2789C-0.0382131 19.4758 0.0130952 19.694 0.161338 19.8402C0.265505 19.943 0.406 20.0005 0.552177 20C0.611922 19.999 0.67115 19.9897 0.728312 19.9724L7.64167 17.6659C7.64701 17.6659 7.64701 17.6659 7.65269 17.6606C7.67008 17.6554 7.68678 17.648 7.70211 17.6384C7.70641 17.6379 7.7102 17.636 7.7133 17.633C7.72966 17.622 7.75169 17.6108 7.76822 17.5998C7.78458 17.589 7.80128 17.5724 7.81781 17.5614C7.82332 17.5557 7.82866 17.5557 7.82866 17.5504C7.83434 17.5449 7.84536 17.5395 7.85087 17.5284L19.195 6.18315C20.2683 5.10781 20.2683 3.36644 19.195 2.29127L17.7034 0.805083ZM7.46554 16.3723L3.63463 12.5412L13.2229 2.95197L17.0538 6.78307L7.46554 16.3723ZM3.09504 13.5595L6.44178 16.9064L1.41633 18.5798L3.09504 13.5595ZM18.419 5.41242L17.8355 6.00149L14.0044 2.17005L14.5936 1.58115C15.2381 0.937154 16.2826 0.937154 16.9273 1.58115L18.4243 3.07836C19.064 3.7258 19.0616 4.76808 18.419 5.41242Z" fill="#F58220"/>
</svg>
