<svg width="122" height="99" viewBox="0 0 122 99" fill="none" xmlns="http://www.w3.org/2000/svg">
    <g clip-path="url(#h869riho8a)">
        <path d="M49.729 11.462 17.942 65.398a10.812 10.812 0 0 0-.127 10.777 10.833 10.833 0 0 0 9.253 5.546c17.513.347 43.747.812 61.94 1.138a11.533 11.533 0 0 0 10.18-5.72 11.503 11.503 0 0 0-.054-11.668L66.969 11.428a9.995 9.995 0 0 0-8.631-4.913 10.003 10.003 0 0 0-8.61 4.946z" fill="#E8505B"/>
        <path opacity=".5" d="M50.544 15.436c.063-.19.154-.368.27-.53.105-.166.225-.386.395-.619l.668-.791c.26-.279.603-.556.961-.878.425-.316.873-.597 1.342-.842a8.732 8.732 0 0 1 3.807-1.03 9.1 9.1 0 0 1 7.118 2.803l.515.56c.155.197.298.411.44.625.305.418.585.853.839 1.303l7.272 12.007 18.82 31.363 2.68 4.481a10.882 10.882 0 0 1 1.522 5.429 11.043 11.043 0 0 1-3.279 8.023 11.065 11.065 0 0 1-8.064 3.195l-5.754-.106-11.763-.204-23.184-.443-11.03-.219-2.689-.053-1.33-.03-1.412-.124a10.173 10.173 0 0 1-5.031-2.279 10.53 10.53 0 0 1-3.64-9.588c.1-.43.152-.864.277-1.27.124-.408.277-.821.438-1.214l.569-1.132c.194-.362.403-.693.604-1.034.79-1.356 1.578-2.693 2.364-4.011l8.72-14.613c5.335-8.924 9.675-16.138 12.699-21.101a462.54 462.54 0 0 0 3.508-5.702c.38-.683.818-1.333 1.306-1.944a12.556 12.556 0 0 1-1.06 2.086c-.756 1.354-1.858 3.322-3.281 5.842-2.876 5.056-7.13 12.338-12.305 21.337-2.62 4.496-5.48 9.423-8.562 14.707l-2.365 4.02c-.201.341-.413.691-.594 1.026l-.498 1.009c-.136.35-.246.711-.374 1.071s-.145.733-.237 1.107a9.23 9.23 0 0 0 3.233 8.366 8.894 8.894 0 0 0 4.384 1.957l1.222.148 1.33.03 2.69.044 11.024.18 23.301.335 11.761.223 5.754.105a9.667 9.667 0 0 0 5.056-1.264 9.782 9.782 0 0 0 4.876-8.538 9.523 9.523 0 0 0-1.304-4.746l-2.65-4.496-18.552-31.48a5237.735 5237.735 0 0 1-7.09-12.118c-.257-.444-.512-.897-.785-1.277-.136-.195-.262-.397-.399-.583l-.464-.516a8.727 8.727 0 0 0-2.063-1.657 8.94 8.94 0 0 0-4.487-1.106 8.622 8.622 0 0 0-3.634.845c-.455.23-.895.49-1.315.78-.355.294-.705.543-.982.819l-.688.714c-.187.221-.323.42-.445.574-.27.287-.43.446-.456.424z" fill="#fff"/>
        <path opacity=".5" d="m52.957 28.938.955 23.148a3.725 3.725 0 0 0 3.444 3.589 3.731 3.731 0 0 0 4.03-3.265l3.07-23.178a2.95 2.95 0 0 0-1.693-3.063 2.957 2.957 0 0 0-1.21-.272l-5.63-.044a2.96 2.96 0 0 0-2.78 1.912 2.949 2.949 0 0 0-.186 1.173zM62.86 67.872a5.643 5.643 0 0 1-5.036 3.746 5.657 5.657 0 0 1-5.393-3.215 5.64 5.64 0 0 1 3.722-7.896 5.658 5.658 0 0 1 3.277.157 5.66 5.66 0 0 1 3.205 2.897 5.648 5.648 0 0 1 .225 4.31z" fill="#fff"/>
        <path d="M6.46 83.899c-.222-.2-.415-.429-.576-.68a7.931 7.931 0 0 1-.6-.86c-.212-.345-.475-.733-.701-1.192a19.908 19.908 0 0 1-1.4-3.332 22.885 22.885 0 0 1-.875-4.337 22.154 22.154 0 0 1 .067-4.43c.142-1.197.399-2.379.765-3.528.136-.5.325-.9.468-1.304a7.06 7.06 0 0 1 .435-.951c.11-.277.259-.537.44-.773.093.012-.48 1.171-1.016 3.123a23.165 23.165 0 0 0-.647 3.478 24.282 24.282 0 0 0-.027 4.34c.144 1.438.419 2.859.82 4.247a21.805 21.805 0 0 0 1.28 3.307c.878 1.823 1.639 2.835 1.566 2.892zM14.382 86.04a3.97 3.97 0 0 1-.736-.596 8.666 8.666 0 0 1-.778-.789c-.337-.356-.655-.73-.954-1.119a20.08 20.08 0 0 1-2.042-3.23 21.932 21.932 0 0 1-1.608-4.408 22.332 22.332 0 0 1-.583-4.649 18.738 18.738 0 0 1 .339-3.806c.082-.484.193-.962.333-1.432.091-.359.203-.712.335-1.058.091-.31.219-.61.38-.892.102.013-.381 1.286-.703 3.405a21.835 21.835 0 0 0-.235 3.725c.056 1.532.258 3.055.605 4.548a24.467 24.467 0 0 0 1.542 4.325 21.754 21.754 0 0 0 1.92 3.225c1.251 1.774 2.25 2.683 2.185 2.75zM101.674 86.616c-.078-.056.8-1.254 1.883-3.375a30.823 30.823 0 0 0 1.64-3.845c.553-1.61.979-3.263 1.274-4.94.271-1.683.417-3.384.437-5.088a31.13 31.13 0 0 0-.283-4.172c-.316-2.356-.754-3.788-.654-3.832.157.31.275.64.351.98.284.907.501 1.833.65 2.772.236 1.395.363 2.806.382 4.22a28.571 28.571 0 0 1-1.731 10.187 27.039 27.039 0 0 1-1.753 3.85 20.153 20.153 0 0 1-1.562 2.428 4.452 4.452 0 0 1-.634.815zM109.338 85.61c-.083-.01.632-1.03 1.464-2.777a21.867 21.867 0 0 0 1.236-3.153c.388-1.327.669-2.683.839-4.055.147-1.374.176-2.757.087-4.136a23.537 23.537 0 0 0-.486-3.352c-.43-1.882-.896-2.998-.807-3.034.167.232.298.488.387.76.311.708.561 1.441.749 2.192.302 1.111.504 2.247.603 3.394.116 1.41.099 2.828-.052 4.234a23.63 23.63 0 0 1-.895 4.133 19.787 19.787 0 0 1-1.324 3.18 15.128 15.128 0 0 1-1.225 1.972c-.156.244-.35.46-.576.643z" fill="#E8505B"/>
    </g>
    <defs>
        <clipPath id="h869riho8a">
            <path fill="#fff" transform="rotate(6.903 -.389 88.662)" d="M0 0h110.973v84.284H0z"/>
        </clipPath>
    </defs>
</svg>
