<svg width="168" height="168" viewBox="0 0 168 168" fill="none" xmlns="http://www.w3.org/2000/svg">
<path d="M118.944 120.456H113.344C113.344 112.673 110.252 105.21 104.749 99.7066C99.2459 94.2036 91.7822 91.112 83.9997 91.112C76.2171 91.112 68.7534 94.2036 63.2503 99.7066C57.7473 105.21 54.6557 112.673 54.6557 120.456H49.0557C49.0557 111.188 52.7373 102.3 59.2905 95.7468C65.8438 89.1936 74.7319 85.512 83.9997 85.512C93.2674 85.512 102.156 89.1936 108.709 95.7468C115.262 102.3 118.944 111.188 118.944 120.456Z" fill="#1A4071"/>
<path d="M84.0001 77.1119C80.489 77.1119 77.0569 76.0708 74.1376 74.1202C71.2183 72.1696 68.9429 69.3971 67.5993 66.1533C66.2557 62.9096 65.9042 59.3402 66.5892 55.8967C67.2741 52.4531 68.9648 49.29 71.4475 46.8074C73.9302 44.3247 77.0933 42.634 80.5368 41.949C83.9804 41.2641 87.5497 41.6156 90.7935 42.9592C94.0372 44.3028 96.8097 46.5781 98.7603 49.4974C100.711 52.4167 101.752 55.8489 101.752 59.3599C101.752 64.068 99.8818 68.5833 96.5526 71.9125C93.2235 75.2416 88.7082 77.1119 84.0001 77.1119ZM84.0001 48.0479C81.7849 48.0479 79.6195 48.7048 77.7777 49.9355C75.9358 51.1661 74.5003 52.9153 73.6526 54.9619C72.8049 57.0084 72.5831 59.2603 73.0153 61.4329C73.4474 63.6055 74.5141 65.6012 76.0805 67.1675C77.6468 68.7339 79.6425 69.8006 81.815 70.2327C83.9876 70.6649 86.2396 70.4431 88.2861 69.5954C90.3326 68.7477 92.0818 67.3121 93.3125 65.4703C94.5432 63.6285 95.2001 61.4631 95.2001 59.2479C95.2001 56.2775 94.0201 53.4287 91.9197 51.3283C89.8192 49.2279 86.9705 48.0479 84.0001 48.0479Z" fill="#1A4071"/>
<path d="M84 161C68.7709 161 53.8837 156.484 41.2211 148.023C28.5585 139.562 18.6893 127.537 12.8613 113.467C7.03336 99.3967 5.50851 83.9146 8.47957 68.9781C11.4506 54.0415 18.7842 40.3215 29.5528 29.5528C40.3215 18.7842 54.0415 11.4506 68.9781 8.47957C83.9146 5.50851 99.3967 7.03336 113.467 12.8613C127.537 18.6893 139.562 28.5585 148.023 41.2211C156.484 53.8837 161 68.7709 161 84C160.985 104.417 152.868 123.994 138.431 138.431C123.994 152.868 104.417 160.985 84 161ZM84 12.656C69.8761 12.656 56.0694 16.845 44.3265 24.693C32.5836 32.541 23.4321 43.6955 18.0297 56.7454C12.6272 69.7953 11.2166 84.1543 13.9761 98.0061C16.7356 111.858 23.5414 124.58 33.5324 134.563C43.5235 144.546 56.251 151.342 70.1049 154.091C83.9589 156.84 98.3168 155.418 111.362 150.005C124.408 144.592 135.555 135.432 143.394 123.683C151.233 111.934 155.411 98.124 155.4 84C155.385 65.0733 147.856 46.9268 134.468 33.5488C121.079 20.1708 102.927 12.656 84 12.656Z" fill="#1A4071"/>
</svg>
