<svg width="373" height="68" viewBox="0 0 373 68" fill="none" xmlns="http://www.w3.org/2000/svg">
<rect width="373" height="68" rx="4" fill="#F08200" fill-opacity="0.34"/>
<path d="M73.124 31H70.4307L66.083 23.4395H66.0215C66.0397 23.7539 66.0557 24.0706 66.0693 24.3896C66.083 24.7087 66.0967 25.0277 66.1104 25.3467C66.124 25.6611 66.1377 25.9779 66.1514 26.2969V31H64.2578V21.0059H66.9307L71.2715 28.4912H71.3193C71.3102 28.1813 71.2988 27.8737 71.2852 27.5684C71.2715 27.263 71.2578 26.9577 71.2441 26.6523C71.235 26.347 71.2259 26.0417 71.2168 25.7363V21.0059H73.124V31ZM78.6338 23.2139C79.3402 23.2139 79.9486 23.3506 80.459 23.624C80.9694 23.8929 81.3636 24.2848 81.6416 24.7998C81.9196 25.3148 82.0586 25.9437 82.0586 26.6865V27.6982H77.1299C77.1527 28.2861 77.3281 28.7487 77.6562 29.0859C77.9889 29.4186 78.4492 29.585 79.0371 29.585C79.5247 29.585 79.9714 29.5348 80.377 29.4346C80.7826 29.3343 81.1995 29.1839 81.6279 28.9834V30.5967C81.2497 30.7835 80.8532 30.9202 80.4385 31.0068C80.0283 31.0934 79.5293 31.1367 78.9414 31.1367C78.1758 31.1367 77.4967 30.9954 76.9043 30.7129C76.3164 30.4303 75.8538 29.9997 75.5166 29.4209C75.1839 28.8421 75.0176 28.113 75.0176 27.2334C75.0176 26.3402 75.168 25.5973 75.4688 25.0049C75.7741 24.4079 76.1979 23.9613 76.7402 23.665C77.2826 23.3643 77.9137 23.2139 78.6338 23.2139ZM78.6475 24.6973C78.2419 24.6973 77.9046 24.8271 77.6357 25.0869C77.3714 25.3467 77.2188 25.7546 77.1777 26.3105H80.1035C80.099 26.0007 80.042 25.7249 79.9326 25.4834C79.8278 25.2419 79.6683 25.0505 79.4541 24.9092C79.2445 24.7679 78.9756 24.6973 78.6475 24.6973ZM85.5723 31L82.6602 23.3574H84.8408L86.3174 27.7119C86.3994 27.9671 86.4632 28.236 86.5088 28.5186C86.5589 28.8011 86.5931 29.054 86.6113 29.2773H86.666C86.6797 29.0358 86.7116 28.7783 86.7617 28.5049C86.8164 28.2314 86.887 27.9671 86.9736 27.7119L88.4434 23.3574H90.624L87.7119 31H85.5723ZM94.876 23.2139C95.5824 23.2139 96.1908 23.3506 96.7012 23.624C97.2116 23.8929 97.6058 24.2848 97.8838 24.7998C98.1618 25.3148 98.3008 25.9437 98.3008 26.6865V27.6982H93.3721C93.3949 28.2861 93.5703 28.7487 93.8984 29.0859C94.2311 29.4186 94.6914 29.585 95.2793 29.585C95.7669 29.585 96.2135 29.5348 96.6191 29.4346C97.0247 29.3343 97.4417 29.1839 97.8701 28.9834V30.5967C97.4919 30.7835 97.0954 30.9202 96.6807 31.0068C96.2705 31.0934 95.7715 31.1367 95.1836 31.1367C94.418 31.1367 93.7389 30.9954 93.1465 30.7129C92.5586 30.4303 92.096 29.9997 91.7588 29.4209C91.4261 28.8421 91.2598 28.113 91.2598 27.2334C91.2598 26.3402 91.4102 25.5973 91.7109 25.0049C92.0163 24.4079 92.4401 23.9613 92.9824 23.665C93.5247 23.3643 94.1559 23.2139 94.876 23.2139ZM94.8896 24.6973C94.484 24.6973 94.1468 24.8271 93.8779 25.0869C93.6136 25.3467 93.4609 25.7546 93.4199 26.3105H96.3457C96.3411 26.0007 96.2842 25.7249 96.1748 25.4834C96.07 25.2419 95.9105 25.0505 95.6963 24.9092C95.4867 24.7679 95.2178 24.6973 94.8896 24.6973ZM104.262 23.2139C104.367 23.2139 104.487 23.2207 104.624 23.2344C104.765 23.2435 104.879 23.2572 104.966 23.2754L104.809 25.2305C104.74 25.2077 104.642 25.1917 104.515 25.1826C104.392 25.1689 104.285 25.1621 104.193 25.1621C103.924 25.1621 103.662 25.1963 103.407 25.2646C103.157 25.333 102.931 25.4447 102.73 25.5996C102.53 25.75 102.37 25.9505 102.252 26.2012C102.138 26.4473 102.081 26.7503 102.081 27.1104V31H99.9961V23.3574H101.575L101.883 24.6426H101.985C102.136 24.3828 102.323 24.1458 102.546 23.9316C102.774 23.7129 103.031 23.5397 103.318 23.4121C103.61 23.2799 103.924 23.2139 104.262 23.2139ZM113.347 21.0059C114.636 21.0059 115.577 21.2839 116.17 21.8398C116.762 22.3913 117.059 23.1523 117.059 24.123C117.059 24.5605 116.993 24.9798 116.86 25.3809C116.728 25.7773 116.512 26.1305 116.211 26.4404C115.915 26.7503 115.518 26.9964 115.021 27.1787C114.525 27.3564 113.912 27.4453 113.183 27.4453H112.273V31H110.154V21.0059H113.347ZM113.237 22.7422H112.273V25.709H112.971C113.367 25.709 113.711 25.6566 114.003 25.5518C114.295 25.4469 114.52 25.2829 114.68 25.0596C114.839 24.8363 114.919 24.5492 114.919 24.1982C114.919 23.7061 114.782 23.3415 114.509 23.1045C114.235 22.863 113.812 22.7422 113.237 22.7422ZM121.912 23.2002C122.938 23.2002 123.724 23.4235 124.271 23.8701C124.817 24.3167 125.091 24.9958 125.091 25.9072V31H123.635L123.231 29.9609H123.177C122.958 30.2344 122.735 30.4577 122.507 30.6309C122.279 30.804 122.017 30.9316 121.721 31.0137C121.424 31.0957 121.064 31.1367 120.641 31.1367C120.189 31.1367 119.784 31.0501 119.424 30.877C119.068 30.7038 118.788 30.4395 118.583 30.084C118.378 29.724 118.275 29.2682 118.275 28.7168C118.275 27.9056 118.56 27.3086 119.13 26.9258C119.7 26.5384 120.554 26.3242 121.693 26.2832L123.02 26.2422V25.9072C123.02 25.5062 122.915 25.2122 122.705 25.0254C122.495 24.8385 122.204 24.7451 121.83 24.7451C121.461 24.7451 121.099 24.7975 120.743 24.9023C120.388 25.0072 120.032 25.1393 119.677 25.2988L118.986 23.8906C119.392 23.6764 119.845 23.5078 120.347 23.3848C120.853 23.2617 121.374 23.2002 121.912 23.2002ZM123.02 27.459L122.213 27.4863C121.538 27.5046 121.069 27.6253 120.805 27.8486C120.545 28.0719 120.415 28.3659 120.415 28.7305C120.415 29.0495 120.508 29.2773 120.695 29.4141C120.882 29.5462 121.126 29.6123 121.427 29.6123C121.873 29.6123 122.249 29.4801 122.555 29.2158C122.865 28.9515 123.02 28.5755 123.02 28.0879V27.459ZM126.15 23.3574H128.434L129.876 27.6572C129.922 27.7939 129.96 27.9329 129.992 28.0742C130.024 28.2155 130.051 28.3613 130.074 28.5117C130.097 28.6621 130.115 28.8193 130.129 28.9834H130.17C130.197 28.7373 130.234 28.5072 130.279 28.293C130.329 28.0788 130.391 27.8669 130.464 27.6572L131.879 23.3574H134.114L130.881 31.9775C130.685 32.5062 130.43 32.946 130.115 33.2969C129.801 33.6523 129.438 33.9189 129.028 34.0967C128.623 34.2744 128.176 34.3633 127.688 34.3633C127.451 34.3633 127.246 34.3496 127.073 34.3223C126.9 34.2995 126.752 34.2744 126.629 34.2471V32.5928C126.725 32.6156 126.845 32.6361 126.991 32.6543C127.137 32.6725 127.29 32.6816 127.449 32.6816C127.741 32.6816 127.992 32.6201 128.201 32.4971C128.411 32.374 128.586 32.2077 128.728 31.998C128.869 31.793 128.98 31.5674 129.062 31.3213L129.186 30.9453L126.15 23.3574ZM139.016 21.0059H142.126C143.457 21.0059 144.464 21.1927 145.147 21.5664C145.831 21.9401 146.173 22.5964 146.173 23.5352C146.173 23.9134 146.111 24.2552 145.988 24.5605C145.87 24.8659 145.697 25.1165 145.469 25.3125C145.241 25.5085 144.963 25.6361 144.635 25.6953V25.7637C144.967 25.832 145.268 25.9505 145.537 26.1191C145.806 26.2832 146.02 26.5247 146.18 26.8438C146.344 27.1582 146.426 27.5775 146.426 28.1016C146.426 28.7077 146.278 29.2272 145.981 29.6602C145.685 30.0931 145.261 30.4258 144.71 30.6582C144.163 30.8861 143.511 31 142.755 31H139.016V21.0059ZM141.135 24.9639H142.365C142.98 24.9639 143.407 24.8682 143.644 24.6768C143.881 24.4808 143.999 24.1937 143.999 23.8154C143.999 23.4326 143.858 23.1592 143.575 22.9951C143.297 22.8265 142.855 22.7422 142.249 22.7422H141.135V24.9639ZM141.135 26.6455V29.25H142.516C143.154 29.25 143.598 29.127 143.849 28.8809C144.099 28.6348 144.225 28.3044 144.225 27.8896C144.225 27.6436 144.17 27.4271 144.061 27.2402C143.951 27.0534 143.767 26.9076 143.507 26.8027C143.252 26.6979 142.898 26.6455 142.447 26.6455H141.135ZM152.523 23.2139C152.628 23.2139 152.749 23.2207 152.886 23.2344C153.027 23.2435 153.141 23.2572 153.228 23.2754L153.07 25.2305C153.002 25.2077 152.904 25.1917 152.776 25.1826C152.653 25.1689 152.546 25.1621 152.455 25.1621C152.186 25.1621 151.924 25.1963 151.669 25.2646C151.418 25.333 151.193 25.4447 150.992 25.5996C150.792 25.75 150.632 25.9505 150.514 26.2012C150.4 26.4473 150.343 26.7503 150.343 27.1104V31H148.258V23.3574H149.837L150.145 24.6426H150.247C150.397 24.3828 150.584 24.1458 150.808 23.9316C151.035 23.7129 151.293 23.5397 151.58 23.4121C151.872 23.2799 152.186 23.2139 152.523 23.2139ZM161.561 27.165C161.561 27.8031 161.474 28.3682 161.301 28.8604C161.132 29.3525 160.884 29.7695 160.556 30.1113C160.232 30.4486 159.84 30.7038 159.38 30.877C158.924 31.0501 158.409 31.1367 157.835 31.1367C157.297 31.1367 156.803 31.0501 156.352 30.877C155.905 30.7038 155.515 30.4486 155.183 30.1113C154.854 29.7695 154.599 29.3525 154.417 28.8604C154.239 28.3682 154.15 27.8031 154.15 27.165C154.15 26.3174 154.301 25.5996 154.602 25.0117C154.902 24.4238 155.331 23.9772 155.887 23.6719C156.443 23.3665 157.106 23.2139 157.876 23.2139C158.591 23.2139 159.225 23.3665 159.776 23.6719C160.332 23.9772 160.768 24.4238 161.082 25.0117C161.401 25.5996 161.561 26.3174 161.561 27.165ZM156.276 27.165C156.276 27.6663 156.331 28.0879 156.44 28.4297C156.55 28.7715 156.721 29.029 156.953 29.2021C157.186 29.3753 157.489 29.4619 157.862 29.4619C158.231 29.4619 158.53 29.3753 158.758 29.2021C158.99 29.029 159.159 28.7715 159.264 28.4297C159.373 28.0879 159.428 27.6663 159.428 27.165C159.428 26.6592 159.373 26.2399 159.264 25.9072C159.159 25.57 158.99 25.3171 158.758 25.1484C158.525 24.9798 158.222 24.8955 157.849 24.8955C157.297 24.8955 156.896 25.0846 156.646 25.4629C156.399 25.8411 156.276 26.4085 156.276 27.165ZM165.368 20.3633V25.1211C165.368 25.4082 165.357 25.6953 165.334 25.9824C165.311 26.2695 165.286 26.5566 165.259 26.8438H165.286C165.427 26.6432 165.571 26.445 165.717 26.249C165.867 26.0531 166.027 25.8639 166.195 25.6816L168.335 23.3574H170.687L167.651 26.6729L170.871 31H168.465L166.264 27.9033L165.368 28.6211V31H163.283V20.3633H165.368ZM175.116 23.2139C175.823 23.2139 176.431 23.3506 176.941 23.624C177.452 23.8929 177.846 24.2848 178.124 24.7998C178.402 25.3148 178.541 25.9437 178.541 26.6865V27.6982H173.612C173.635 28.2861 173.811 28.7487 174.139 29.0859C174.471 29.4186 174.932 29.585 175.52 29.585C176.007 29.585 176.454 29.5348 176.859 29.4346C177.265 29.3343 177.682 29.1839 178.11 28.9834V30.5967C177.732 30.7835 177.336 30.9202 176.921 31.0068C176.511 31.0934 176.012 31.1367 175.424 31.1367C174.658 31.1367 173.979 30.9954 173.387 30.7129C172.799 30.4303 172.336 29.9997 171.999 29.4209C171.666 28.8421 171.5 28.113 171.5 27.2334C171.5 26.3402 171.65 25.5973 171.951 25.0049C172.257 24.4079 172.68 23.9613 173.223 23.665C173.765 23.3643 174.396 23.2139 175.116 23.2139ZM175.13 24.6973C174.724 24.6973 174.387 24.8271 174.118 25.0869C173.854 25.3467 173.701 25.7546 173.66 26.3105H176.586C176.581 26.0007 176.524 25.7249 176.415 25.4834C176.31 25.2419 176.151 25.0505 175.937 24.9092C175.727 24.7679 175.458 24.6973 175.13 24.6973ZM184.502 23.2139C184.607 23.2139 184.728 23.2207 184.864 23.2344C185.006 23.2435 185.119 23.2572 185.206 23.2754L185.049 25.2305C184.98 25.2077 184.882 25.1917 184.755 25.1826C184.632 25.1689 184.525 25.1621 184.434 25.1621C184.165 25.1621 183.903 25.1963 183.647 25.2646C183.397 25.333 183.171 25.4447 182.971 25.5996C182.77 25.75 182.611 25.9505 182.492 26.2012C182.378 26.4473 182.321 26.7503 182.321 27.1104V31H180.236V23.3574H181.815L182.123 24.6426H182.226C182.376 24.3828 182.563 24.1458 182.786 23.9316C183.014 23.7129 183.271 23.5397 183.559 23.4121C183.85 23.2799 184.165 23.2139 184.502 23.2139ZM189.725 23.2002C190.75 23.2002 191.536 23.4235 192.083 23.8701C192.63 24.3167 192.903 24.9958 192.903 25.9072V31H191.447L191.044 29.9609H190.989C190.771 30.2344 190.547 30.4577 190.319 30.6309C190.091 30.804 189.829 30.9316 189.533 31.0137C189.237 31.0957 188.877 31.1367 188.453 31.1367C188.002 31.1367 187.596 31.0501 187.236 30.877C186.881 30.7038 186.601 30.4395 186.396 30.084C186.19 29.724 186.088 29.2682 186.088 28.7168C186.088 27.9056 186.373 27.3086 186.942 26.9258C187.512 26.5384 188.367 26.3242 189.506 26.2832L190.832 26.2422V25.9072C190.832 25.5062 190.727 25.2122 190.518 25.0254C190.308 24.8385 190.016 24.7451 189.643 24.7451C189.273 24.7451 188.911 24.7975 188.556 24.9023C188.2 25.0072 187.845 25.1393 187.489 25.2988L186.799 23.8906C187.204 23.6764 187.658 23.5078 188.159 23.3848C188.665 23.2617 189.187 23.2002 189.725 23.2002ZM190.832 27.459L190.025 27.4863C189.351 27.5046 188.882 27.6253 188.617 27.8486C188.357 28.0719 188.228 28.3659 188.228 28.7305C188.228 29.0495 188.321 29.2773 188.508 29.4141C188.695 29.5462 188.938 29.6123 189.239 29.6123C189.686 29.6123 190.062 29.4801 190.367 29.2158C190.677 28.9515 190.832 28.5755 190.832 28.0879V27.459ZM197.292 34.3633C196.226 34.3633 195.41 34.1764 194.845 33.8027C194.284 33.4336 194.004 32.9141 194.004 32.2441C194.004 31.7839 194.147 31.3988 194.435 31.0889C194.722 30.779 195.143 30.5579 195.699 30.4258C195.485 30.3346 195.298 30.1865 195.139 29.9814C194.979 29.7718 194.899 29.5508 194.899 29.3184C194.899 29.0267 194.984 28.7852 195.152 28.5938C195.321 28.3978 195.565 28.2064 195.884 28.0195C195.483 27.8464 195.164 27.5684 194.927 27.1855C194.694 26.8027 194.578 26.3516 194.578 25.832C194.578 25.276 194.699 24.8044 194.94 24.417C195.187 24.0251 195.542 23.7266 196.007 23.5215C196.476 23.3164 197.046 23.2139 197.716 23.2139C197.857 23.2139 198.021 23.223 198.208 23.2412C198.395 23.2594 198.566 23.2799 198.721 23.3027C198.88 23.3255 198.987 23.3438 199.042 23.3574H201.708V24.417L200.512 24.7246C200.621 24.8932 200.703 25.0732 200.758 25.2646C200.812 25.4561 200.84 25.6589 200.84 25.873C200.84 26.6934 200.553 27.3337 199.979 27.7939C199.409 28.2497 198.616 28.4775 197.6 28.4775C197.358 28.4639 197.13 28.4456 196.916 28.4229C196.811 28.5049 196.731 28.5915 196.677 28.6826C196.622 28.7738 196.595 28.8695 196.595 28.9697C196.595 29.07 196.636 29.1543 196.718 29.2227C196.804 29.2865 196.932 29.3366 197.101 29.373C197.274 29.4049 197.488 29.4209 197.743 29.4209H199.042C199.881 29.4209 200.519 29.6009 200.956 29.9609C201.398 30.321 201.619 30.8496 201.619 31.5469C201.619 32.4401 201.245 33.1328 200.498 33.625C199.755 34.1172 198.687 34.3633 197.292 34.3633ZM197.381 33.0029C197.878 33.0029 198.304 32.9551 198.659 32.8594C199.019 32.7682 199.295 32.6361 199.486 32.4629C199.678 32.2943 199.773 32.0915 199.773 31.8545C199.773 31.6631 199.716 31.5104 199.603 31.3965C199.493 31.2871 199.325 31.2096 199.097 31.1641C198.873 31.1185 198.586 31.0957 198.235 31.0957H197.155C196.9 31.0957 196.67 31.1367 196.465 31.2188C196.264 31.3008 196.105 31.4147 195.986 31.5605C195.868 31.7109 195.809 31.8841 195.809 32.0801C195.809 32.3672 195.945 32.5928 196.219 32.7568C196.497 32.9209 196.884 33.0029 197.381 33.0029ZM197.716 27.2061C198.108 27.2061 198.395 27.0853 198.577 26.8438C198.759 26.6022 198.851 26.2741 198.851 25.8594C198.851 25.3991 198.755 25.055 198.563 24.8271C198.377 24.5947 198.094 24.4785 197.716 24.4785C197.333 24.4785 197.046 24.5947 196.854 24.8271C196.663 25.055 196.567 25.3991 196.567 25.8594C196.567 26.2741 196.661 26.6022 196.848 26.8438C197.039 27.0853 197.328 27.2061 197.716 27.2061ZM206.124 23.2139C206.83 23.2139 207.439 23.3506 207.949 23.624C208.46 23.8929 208.854 24.2848 209.132 24.7998C209.41 25.3148 209.549 25.9437 209.549 26.6865V27.6982H204.62C204.643 28.2861 204.818 28.7487 205.146 29.0859C205.479 29.4186 205.939 29.585 206.527 29.585C207.015 29.585 207.462 29.5348 207.867 29.4346C208.273 29.3343 208.69 29.1839 209.118 28.9834V30.5967C208.74 30.7835 208.343 30.9202 207.929 31.0068C207.519 31.0934 207.02 31.1367 206.432 31.1367C205.666 31.1367 204.987 30.9954 204.395 30.7129C203.807 30.4303 203.344 29.9997 203.007 29.4209C202.674 28.8421 202.508 28.113 202.508 27.2334C202.508 26.3402 202.658 25.5973 202.959 25.0049C203.264 24.4079 203.688 23.9613 204.23 23.665C204.773 23.3643 205.404 23.2139 206.124 23.2139ZM206.138 24.6973C205.732 24.6973 205.395 24.8271 205.126 25.0869C204.862 25.3467 204.709 25.7546 204.668 26.3105H207.594C207.589 26.0007 207.532 25.7249 207.423 25.4834C207.318 25.2419 207.159 25.0505 206.944 24.9092C206.735 24.7679 206.466 24.6973 206.138 24.6973ZM218.128 20.8623C218.666 20.8623 219.144 20.9466 219.563 21.1152C219.983 21.2839 220.313 21.5299 220.555 21.8535C220.801 22.1771 220.924 22.5713 220.924 23.0361C220.924 23.6787 220.732 24.2188 220.35 24.6562C219.971 25.0938 219.497 25.4766 218.928 25.8047L220.869 27.6982C221.061 27.3838 221.222 27.0511 221.354 26.7002C221.491 26.3493 221.61 25.9961 221.71 25.6406H223.884C223.743 26.1647 223.535 26.7253 223.262 27.3223C222.993 27.9147 222.649 28.473 222.229 28.9971L224.287 31H221.71L220.924 30.2275C220.655 30.4144 220.366 30.5762 220.056 30.7129C219.75 30.8496 219.422 30.9544 219.071 31.0273C218.725 31.1003 218.358 31.1367 217.971 31.1367C217.214 31.1367 216.565 31.0182 216.022 30.7812C215.48 30.5443 215.065 30.2139 214.778 29.79C214.491 29.3617 214.348 28.8649 214.348 28.2998C214.348 27.8258 214.421 27.4202 214.566 27.083C214.712 26.7412 214.922 26.4427 215.195 26.1875C215.469 25.9277 215.797 25.6885 216.18 25.4697C215.938 25.1872 215.744 24.9229 215.599 24.6768C215.457 24.4307 215.355 24.1868 215.291 23.9453C215.232 23.6992 215.202 23.4417 215.202 23.1729C215.202 22.6989 215.325 22.291 215.571 21.9492C215.822 21.6029 216.166 21.3363 216.604 21.1494C217.046 20.958 217.554 20.8623 218.128 20.8623ZM217.396 26.7139C217.223 26.846 217.071 26.9827 216.938 27.124C216.811 27.2653 216.713 27.4157 216.645 27.5752C216.576 27.7347 216.542 27.9102 216.542 28.1016C216.542 28.5026 216.692 28.8171 216.993 29.0449C217.294 29.2728 217.668 29.3867 218.114 29.3867C218.415 29.3867 218.695 29.3503 218.955 29.2773C219.215 29.2044 219.452 29.1019 219.666 28.9697L217.396 26.7139ZM218.114 22.4756C217.882 22.4756 217.659 22.5348 217.444 22.6533C217.235 22.7718 217.13 22.9928 217.13 23.3164C217.13 23.5443 217.189 23.7676 217.308 23.9863C217.426 24.2005 217.583 24.4193 217.779 24.6426C218.171 24.4284 218.472 24.2142 218.682 24C218.891 23.7812 218.996 23.5329 218.996 23.2549C218.996 22.9769 218.9 22.7786 218.709 22.6602C218.522 22.5371 218.324 22.4756 218.114 22.4756ZM70.376 48L69.6514 45.6211H66.0078L65.2832 48H63L66.5273 37.9648H69.1182L72.6592 48H70.376ZM69.1455 43.8438L68.4209 41.5195C68.3753 41.3646 68.3138 41.1663 68.2363 40.9248C68.1634 40.6787 68.0882 40.4303 68.0107 40.1797C67.9378 39.9245 67.8786 39.7035 67.833 39.5166C67.7874 39.7035 67.7236 39.9359 67.6416 40.2139C67.5641 40.4873 67.4889 40.7471 67.416 40.9932C67.3431 41.2393 67.2907 41.4147 67.2588 41.5195L66.541 43.8438H69.1455ZM78.1553 48L75.749 40.1592H75.6875C75.6966 40.346 75.7103 40.6286 75.7285 41.0068C75.7513 41.3805 75.7718 41.7793 75.79 42.2031C75.8083 42.627 75.8174 43.0098 75.8174 43.3516V48H73.9238V38.0059H76.8086L79.1738 45.6484H79.2148L81.7236 38.0059H84.6084V48H82.6328V43.2695C82.6328 42.9551 82.6374 42.5928 82.6465 42.1826C82.6602 41.7725 82.6761 41.3828 82.6943 41.0137C82.7126 40.64 82.7262 40.3597 82.7354 40.1729H82.6738L80.0967 48H78.1553ZM91.376 39.626C90.9704 39.626 90.6104 39.7057 90.2959 39.8652C89.986 40.0202 89.724 40.2458 89.5098 40.542C89.3001 40.8382 89.1406 41.196 89.0312 41.6152C88.9219 42.0345 88.8672 42.5062 88.8672 43.0303C88.8672 43.7367 88.9538 44.3405 89.127 44.8418C89.3047 45.3385 89.5781 45.7191 89.9473 45.9834C90.3164 46.2432 90.7926 46.373 91.376 46.373C91.7816 46.373 92.1872 46.3275 92.5928 46.2363C93.0029 46.1452 93.4473 46.0153 93.9258 45.8467V47.624C93.4837 47.8063 93.0485 47.9362 92.6201 48.0137C92.1917 48.0957 91.7109 48.1367 91.1777 48.1367C90.1478 48.1367 89.3001 47.9248 88.6348 47.501C87.974 47.0726 87.484 46.4756 87.165 45.71C86.846 44.9398 86.6865 44.042 86.6865 43.0166C86.6865 42.2601 86.7891 41.5674 86.9941 40.9385C87.1992 40.3096 87.5 39.765 87.8965 39.3047C88.293 38.8444 88.7829 38.4889 89.3662 38.2383C89.9495 37.9876 90.6195 37.8623 91.376 37.8623C91.8727 37.8623 92.3695 37.9261 92.8662 38.0537C93.3675 38.1768 93.846 38.3477 94.3018 38.5664L93.6182 40.2891C93.2445 40.1113 92.8685 39.9564 92.4902 39.8242C92.112 39.6921 91.7406 39.626 91.376 39.626ZM102.683 40.2139C103.389 40.2139 103.997 40.3506 104.508 40.624C105.018 40.8929 105.412 41.2848 105.69 41.7998C105.968 42.3148 106.107 42.9437 106.107 43.6865V44.6982H101.179C101.201 45.2861 101.377 45.7487 101.705 46.0859C102.038 46.4186 102.498 46.585 103.086 46.585C103.574 46.585 104.02 46.5348 104.426 46.4346C104.831 46.3343 105.248 46.1839 105.677 45.9834V47.5967C105.299 47.7835 104.902 47.9202 104.487 48.0068C104.077 48.0934 103.578 48.1367 102.99 48.1367C102.225 48.1367 101.546 47.9954 100.953 47.7129C100.365 47.4303 99.9027 46.9997 99.5654 46.4209C99.2327 45.8421 99.0664 45.113 99.0664 44.2334C99.0664 43.3402 99.2168 42.5973 99.5176 42.0049C99.8229 41.4079 100.247 40.9613 100.789 40.665C101.331 40.3643 101.963 40.2139 102.683 40.2139ZM102.696 41.6973C102.291 41.6973 101.953 41.8271 101.685 42.0869C101.42 42.3467 101.268 42.7546 101.227 43.3105H104.152C104.148 43.0007 104.091 42.7249 103.981 42.4834C103.877 42.2419 103.717 42.0505 103.503 41.9092C103.293 41.7679 103.024 41.6973 102.696 41.6973ZM109.621 48L106.709 40.3574H108.89L110.366 44.7119C110.448 44.9671 110.512 45.236 110.558 45.5186C110.608 45.8011 110.642 46.054 110.66 46.2773H110.715C110.729 46.0358 110.76 45.7783 110.811 45.5049C110.865 45.2314 110.936 44.9671 111.022 44.7119L112.492 40.3574H114.673L111.761 48H109.621ZM118.925 40.2139C119.631 40.2139 120.24 40.3506 120.75 40.624C121.26 40.8929 121.655 41.2848 121.933 41.7998C122.211 42.3148 122.35 42.9437 122.35 43.6865V44.6982H117.421C117.444 45.2861 117.619 45.7487 117.947 46.0859C118.28 46.4186 118.74 46.585 119.328 46.585C119.816 46.585 120.262 46.5348 120.668 46.4346C121.074 46.3343 121.491 46.1839 121.919 45.9834V47.5967C121.541 47.7835 121.144 47.9202 120.729 48.0068C120.319 48.0934 119.82 48.1367 119.232 48.1367C118.467 48.1367 117.788 47.9954 117.195 47.7129C116.607 47.4303 116.145 46.9997 115.808 46.4209C115.475 45.8421 115.309 45.113 115.309 44.2334C115.309 43.3402 115.459 42.5973 115.76 42.0049C116.065 41.4079 116.489 40.9613 117.031 40.665C117.574 40.3643 118.205 40.2139 118.925 40.2139ZM118.938 41.6973C118.533 41.6973 118.196 41.8271 117.927 42.0869C117.662 42.3467 117.51 42.7546 117.469 43.3105H120.395C120.39 43.0007 120.333 42.7249 120.224 42.4834C120.119 42.2419 119.959 42.0505 119.745 41.9092C119.535 41.7679 119.267 41.6973 118.938 41.6973ZM128.311 40.2139C128.415 40.2139 128.536 40.2207 128.673 40.2344C128.814 40.2435 128.928 40.2572 129.015 40.2754L128.857 42.2305C128.789 42.2077 128.691 42.1917 128.563 42.1826C128.44 42.1689 128.333 42.1621 128.242 42.1621C127.973 42.1621 127.711 42.1963 127.456 42.2646C127.205 42.333 126.98 42.4447 126.779 42.5996C126.579 42.75 126.419 42.9505 126.301 43.2012C126.187 43.4473 126.13 43.7503 126.13 44.1104V48H124.045V40.3574H125.624L125.932 41.6426H126.034C126.185 41.3828 126.371 41.1458 126.595 40.9316C126.823 40.7129 127.08 40.5397 127.367 40.4121C127.659 40.2799 127.973 40.2139 128.311 40.2139ZM137.17 40.2002C138.195 40.2002 138.981 40.4235 139.528 40.8701C140.075 41.3167 140.349 41.9958 140.349 42.9072V48H138.893L138.489 46.9609H138.435C138.216 47.2344 137.993 47.4577 137.765 47.6309C137.537 47.804 137.275 47.9316 136.979 48.0137C136.682 48.0957 136.322 48.1367 135.898 48.1367C135.447 48.1367 135.042 48.0501 134.682 47.877C134.326 47.7038 134.046 47.4395 133.841 47.084C133.636 46.724 133.533 46.2682 133.533 45.7168C133.533 44.9056 133.818 44.3086 134.388 43.9258C134.957 43.5384 135.812 43.3242 136.951 43.2832L138.277 43.2422V42.9072C138.277 42.5062 138.173 42.2122 137.963 42.0254C137.753 41.8385 137.462 41.7451 137.088 41.7451C136.719 41.7451 136.356 41.7975 136.001 41.9023C135.646 42.0072 135.29 42.1393 134.935 42.2988L134.244 40.8906C134.65 40.6764 135.103 40.5078 135.604 40.3848C136.11 40.2617 136.632 40.2002 137.17 40.2002ZM138.277 44.459L137.471 44.4863C136.796 44.5046 136.327 44.6253 136.062 44.8486C135.803 45.0719 135.673 45.3659 135.673 45.7305C135.673 46.0495 135.766 46.2773 135.953 46.4141C136.14 46.5462 136.384 46.6123 136.685 46.6123C137.131 46.6123 137.507 46.4801 137.812 46.2158C138.122 45.9515 138.277 45.5755 138.277 45.0879V44.459ZM144.737 51.3633C143.671 51.3633 142.855 51.1764 142.29 50.8027C141.729 50.4336 141.449 49.9141 141.449 49.2441C141.449 48.7839 141.593 48.3988 141.88 48.0889C142.167 47.779 142.589 47.5579 143.145 47.4258C142.93 47.3346 142.743 47.1865 142.584 46.9814C142.424 46.7718 142.345 46.5508 142.345 46.3184C142.345 46.0267 142.429 45.7852 142.598 45.5938C142.766 45.3978 143.01 45.2064 143.329 45.0195C142.928 44.8464 142.609 44.5684 142.372 44.1855C142.14 43.8027 142.023 43.3516 142.023 42.832C142.023 42.276 142.144 41.8044 142.386 41.417C142.632 41.0251 142.987 40.7266 143.452 40.5215C143.922 40.3164 144.491 40.2139 145.161 40.2139C145.302 40.2139 145.466 40.223 145.653 40.2412C145.84 40.2594 146.011 40.2799 146.166 40.3027C146.326 40.3255 146.433 40.3438 146.487 40.3574H149.153V41.417L147.957 41.7246C148.066 41.8932 148.148 42.0732 148.203 42.2646C148.258 42.4561 148.285 42.6589 148.285 42.873C148.285 43.6934 147.998 44.3337 147.424 44.7939C146.854 45.2497 146.061 45.4775 145.045 45.4775C144.803 45.4639 144.576 45.4456 144.361 45.4229C144.257 45.5049 144.177 45.5915 144.122 45.6826C144.067 45.7738 144.04 45.8695 144.04 45.9697C144.04 46.07 144.081 46.1543 144.163 46.2227C144.25 46.2865 144.377 46.3366 144.546 46.373C144.719 46.4049 144.933 46.4209 145.188 46.4209H146.487C147.326 46.4209 147.964 46.6009 148.401 46.9609C148.843 47.321 149.064 47.8496 149.064 48.5469C149.064 49.4401 148.691 50.1328 147.943 50.625C147.201 51.1172 146.132 51.3633 144.737 51.3633ZM144.826 50.0029C145.323 50.0029 145.749 49.9551 146.104 49.8594C146.465 49.7682 146.74 49.6361 146.932 49.4629C147.123 49.2943 147.219 49.0915 147.219 48.8545C147.219 48.6631 147.162 48.5104 147.048 48.3965C146.938 48.2871 146.77 48.2096 146.542 48.1641C146.319 48.1185 146.032 48.0957 145.681 48.0957H144.601C144.345 48.0957 144.115 48.1367 143.91 48.2188C143.71 48.3008 143.55 48.4147 143.432 48.5605C143.313 48.7109 143.254 48.8841 143.254 49.0801C143.254 49.3672 143.391 49.5928 143.664 49.7568C143.942 49.9209 144.329 50.0029 144.826 50.0029ZM145.161 44.2061C145.553 44.2061 145.84 44.0853 146.022 43.8438C146.205 43.6022 146.296 43.2741 146.296 42.8594C146.296 42.3991 146.2 42.055 146.009 41.8271C145.822 41.5947 145.539 41.4785 145.161 41.4785C144.778 41.4785 144.491 41.5947 144.3 41.8271C144.108 42.055 144.013 42.3991 144.013 42.8594C144.013 43.2741 144.106 43.6022 144.293 43.8438C144.484 44.0853 144.774 44.2061 145.161 44.2061ZM153.549 40.2002C154.574 40.2002 155.36 40.4235 155.907 40.8701C156.454 41.3167 156.728 41.9958 156.728 42.9072V48H155.271L154.868 46.9609H154.813C154.595 47.2344 154.371 47.4577 154.144 47.6309C153.916 47.804 153.654 47.9316 153.357 48.0137C153.061 48.0957 152.701 48.1367 152.277 48.1367C151.826 48.1367 151.421 48.0501 151.061 47.877C150.705 47.7038 150.425 47.4395 150.22 47.084C150.015 46.724 149.912 46.2682 149.912 45.7168C149.912 44.9056 150.197 44.3086 150.767 43.9258C151.336 43.5384 152.191 43.3242 153.33 43.2832L154.656 43.2422V42.9072C154.656 42.5062 154.551 42.2122 154.342 42.0254C154.132 41.8385 153.84 41.7451 153.467 41.7451C153.098 41.7451 152.735 41.7975 152.38 41.9023C152.024 42.0072 151.669 42.1393 151.313 42.2988L150.623 40.8906C151.029 40.6764 151.482 40.5078 151.983 40.3848C152.489 40.2617 153.011 40.2002 153.549 40.2002ZM154.656 44.459L153.85 44.4863C153.175 44.5046 152.706 44.6253 152.441 44.8486C152.182 45.0719 152.052 45.3659 152.052 45.7305C152.052 46.0495 152.145 46.2773 152.332 46.4141C152.519 46.5462 152.763 46.6123 153.063 46.6123C153.51 46.6123 153.886 46.4801 154.191 46.2158C154.501 45.9515 154.656 45.5755 154.656 45.0879V44.459ZM160.966 40.3574V48H158.881V40.3574H160.966ZM159.927 37.3633C160.237 37.3633 160.503 37.4362 160.727 37.582C160.95 37.7233 161.062 37.9899 161.062 38.3818C161.062 38.7692 160.95 39.0381 160.727 39.1885C160.503 39.3343 160.237 39.4072 159.927 39.4072C159.612 39.4072 159.343 39.3343 159.12 39.1885C158.901 39.0381 158.792 38.7692 158.792 38.3818C158.792 37.9899 158.901 37.7233 159.12 37.582C159.343 37.4362 159.612 37.3633 159.927 37.3633ZM167.501 40.2139C168.317 40.2139 168.973 40.4372 169.47 40.8838C169.966 41.3258 170.215 42.0368 170.215 43.0166V48H168.13V43.5361C168.13 42.9893 168.03 42.5768 167.829 42.2988C167.633 42.0208 167.323 41.8818 166.899 41.8818C166.261 41.8818 165.826 42.0983 165.594 42.5312C165.361 42.9642 165.245 43.5885 165.245 44.4043V48H163.16V40.3574H164.753L165.033 41.335H165.149C165.313 41.0706 165.516 40.8564 165.758 40.6924C166.004 40.5283 166.275 40.4076 166.571 40.3301C166.872 40.2526 167.182 40.2139 167.501 40.2139Z" fill="black"/>
<rect x="249" y="19" width="107.762" height="31" rx="4" fill="#F08200"/>
<path d="M269.051 30.4336V35.9766C269.051 36.5664 268.92 37.0996 268.658 37.5762C268.4 38.0488 268.008 38.4238 267.48 38.7012C266.957 38.9785 266.297 39.1172 265.5 39.1172C264.367 39.1172 263.504 38.8281 262.91 38.25C262.316 37.6719 262.02 36.9062 262.02 35.9531V30.4336H263.83V35.6777C263.83 36.3848 263.975 36.8809 264.264 37.166C264.553 37.4512 264.98 37.5938 265.547 37.5938C265.945 37.5938 266.268 37.5254 266.514 37.3887C266.764 37.252 266.947 37.041 267.064 36.7559C267.182 36.4707 267.24 36.1074 267.24 35.666V30.4336H269.051ZM274.652 32.3262C275.391 32.3262 275.986 32.6133 276.439 33.1875C276.896 33.7617 277.125 34.6035 277.125 35.7129C277.125 36.4551 277.018 37.0801 276.803 37.5879C276.588 38.0918 276.291 38.4727 275.912 38.7305C275.533 38.9883 275.098 39.1172 274.605 39.1172C274.289 39.1172 274.018 39.0781 273.791 39C273.564 38.918 273.371 38.8145 273.211 38.6895C273.051 38.5605 272.912 38.4238 272.795 38.2793H272.701C272.732 38.4355 272.756 38.5957 272.771 38.7598C272.787 38.9238 272.795 39.084 272.795 39.2402V41.8828H271.008V32.4492H272.461L272.713 33.2988H272.795C272.912 33.123 273.055 32.9609 273.223 32.8125C273.391 32.6641 273.592 32.5469 273.826 32.4609C274.064 32.3711 274.34 32.3262 274.652 32.3262ZM274.078 33.7559C273.766 33.7559 273.518 33.8203 273.334 33.9492C273.15 34.0781 273.016 34.2715 272.93 34.5293C272.848 34.7871 272.803 35.1133 272.795 35.5078V35.7012C272.795 36.123 272.834 36.4805 272.912 36.7734C272.994 37.0664 273.129 37.2891 273.316 37.4414C273.508 37.5938 273.77 37.6699 274.102 37.6699C274.375 37.6699 274.6 37.5938 274.775 37.4414C274.951 37.2891 275.082 37.0664 275.168 36.7734C275.258 36.4766 275.303 36.1152 275.303 35.6895C275.303 35.0488 275.203 34.5664 275.004 34.2422C274.805 33.918 274.496 33.7559 274.078 33.7559ZM280.518 41.8828C279.604 41.8828 278.904 41.7227 278.42 41.4023C277.939 41.0859 277.699 40.6406 277.699 40.0664C277.699 39.6719 277.822 39.3418 278.068 39.0762C278.314 38.8105 278.676 38.6211 279.152 38.5078C278.969 38.4297 278.809 38.3027 278.672 38.127C278.535 37.9473 278.467 37.7578 278.467 37.5586C278.467 37.3086 278.539 37.1016 278.684 36.9375C278.828 36.7695 279.037 36.6055 279.311 36.4453C278.967 36.2969 278.693 36.0586 278.49 35.7305C278.291 35.4023 278.191 35.0156 278.191 34.5703C278.191 34.0938 278.295 33.6895 278.502 33.3574C278.713 33.0215 279.018 32.7656 279.416 32.5898C279.818 32.4141 280.307 32.3262 280.881 32.3262C281.002 32.3262 281.143 32.334 281.303 32.3496C281.463 32.3652 281.609 32.3828 281.742 32.4023C281.879 32.4219 281.971 32.4375 282.018 32.4492H284.303V33.3574L283.277 33.6211C283.371 33.7656 283.441 33.9199 283.488 34.084C283.535 34.248 283.559 34.4219 283.559 34.6055C283.559 35.3086 283.312 35.8574 282.82 36.252C282.332 36.6426 281.652 36.8379 280.781 36.8379C280.574 36.8262 280.379 36.8105 280.195 36.791C280.105 36.8613 280.037 36.9355 279.99 37.0137C279.943 37.0918 279.92 37.1738 279.92 37.2598C279.92 37.3457 279.955 37.418 280.025 37.4766C280.1 37.5312 280.209 37.5742 280.354 37.6055C280.502 37.6328 280.686 37.6465 280.904 37.6465H282.018C282.736 37.6465 283.283 37.8008 283.658 38.1094C284.037 38.418 284.227 38.8711 284.227 39.4688C284.227 40.2344 283.906 40.8281 283.266 41.25C282.629 41.6719 281.713 41.8828 280.518 41.8828ZM280.594 40.7168C281.02 40.7168 281.385 40.6758 281.689 40.5938C281.998 40.5156 282.234 40.4023 282.398 40.2539C282.562 40.1094 282.645 39.9355 282.645 39.7324C282.645 39.5684 282.596 39.4375 282.498 39.3398C282.404 39.2461 282.26 39.1797 282.064 39.1406C281.873 39.1016 281.627 39.082 281.326 39.082H280.4C280.182 39.082 279.984 39.1172 279.809 39.1875C279.637 39.2578 279.5 39.3555 279.398 39.4805C279.297 39.6094 279.246 39.7578 279.246 39.9258C279.246 40.1719 279.363 40.3652 279.598 40.5059C279.836 40.6465 280.168 40.7168 280.594 40.7168ZM280.881 35.748C281.217 35.748 281.463 35.6445 281.619 35.4375C281.775 35.2305 281.854 34.9492 281.854 34.5938C281.854 34.1992 281.771 33.9043 281.607 33.709C281.447 33.5098 281.205 33.4102 280.881 33.4102C280.553 33.4102 280.307 33.5098 280.143 33.709C279.979 33.9043 279.896 34.1992 279.896 34.5938C279.896 34.9492 279.977 35.2305 280.137 35.4375C280.301 35.6445 280.549 35.748 280.881 35.748ZM289.043 32.3262C289.133 32.3262 289.236 32.332 289.354 32.3438C289.475 32.3516 289.572 32.3633 289.646 32.3789L289.512 34.0547C289.453 34.0352 289.369 34.0215 289.26 34.0137C289.154 34.002 289.062 33.9961 288.984 33.9961C288.754 33.9961 288.529 34.0254 288.311 34.084C288.096 34.1426 287.902 34.2383 287.73 34.3711C287.559 34.5 287.422 34.6719 287.32 34.8867C287.223 35.0977 287.174 35.3574 287.174 35.666V39H285.387V32.4492H286.74L287.004 33.5508H287.092C287.221 33.3281 287.381 33.125 287.572 32.9414C287.768 32.7539 287.988 32.6055 288.234 32.4961C288.484 32.3828 288.754 32.3262 289.043 32.3262ZM293.52 32.3145C294.398 32.3145 295.072 32.5059 295.541 32.8887C296.01 33.2715 296.244 33.8535 296.244 34.6348V39H294.996L294.65 38.1094H294.604C294.416 38.3438 294.225 38.5352 294.029 38.6836C293.834 38.832 293.609 38.9414 293.355 39.0117C293.102 39.082 292.793 39.1172 292.43 39.1172C292.043 39.1172 291.695 39.043 291.387 38.8945C291.082 38.7461 290.842 38.5195 290.666 38.2148C290.49 37.9062 290.402 37.5156 290.402 37.043C290.402 36.3477 290.646 35.8359 291.135 35.5078C291.623 35.1758 292.355 34.9922 293.332 34.957L294.469 34.9219V34.6348C294.469 34.291 294.379 34.0391 294.199 33.8789C294.02 33.7188 293.77 33.6387 293.449 33.6387C293.133 33.6387 292.822 33.6836 292.518 33.7734C292.213 33.8633 291.908 33.9766 291.604 34.1133L291.012 32.9062C291.359 32.7227 291.748 32.5781 292.178 32.4727C292.611 32.3672 293.059 32.3145 293.52 32.3145ZM294.469 35.9648L293.777 35.9883C293.199 36.0039 292.797 36.1074 292.57 36.2988C292.348 36.4902 292.236 36.7422 292.236 37.0547C292.236 37.3281 292.316 37.5234 292.477 37.6406C292.637 37.7539 292.846 37.8105 293.104 37.8105C293.486 37.8105 293.809 37.6973 294.07 37.4707C294.336 37.2441 294.469 36.9219 294.469 36.5039V35.9648ZM300.164 39.1172C299.434 39.1172 298.838 38.832 298.377 38.2617C297.92 37.6875 297.691 36.8457 297.691 35.7363C297.691 34.6152 297.924 33.7676 298.389 33.1934C298.854 32.6152 299.461 32.3262 300.211 32.3262C300.523 32.3262 300.799 32.3691 301.037 32.4551C301.275 32.541 301.48 32.6562 301.652 32.8008C301.828 32.9453 301.977 33.1074 302.098 33.2871H302.156C302.133 33.1621 302.104 32.9785 302.068 32.7363C302.037 32.4902 302.021 32.2383 302.021 31.9805V29.8828H303.814V39H302.443L302.098 38.1504H302.021C301.908 38.3301 301.766 38.4941 301.594 38.6426C301.426 38.7871 301.225 38.9023 300.99 38.9883C300.756 39.0742 300.48 39.1172 300.164 39.1172ZM300.791 37.6934C301.279 37.6934 301.623 37.5488 301.822 37.2598C302.025 36.9668 302.133 36.5273 302.145 35.9414V35.748C302.145 35.1113 302.047 34.625 301.852 34.2891C301.656 33.9492 301.293 33.7793 300.762 33.7793C300.367 33.7793 300.059 33.9492 299.836 34.2891C299.613 34.6289 299.502 35.1191 299.502 35.7598C299.502 36.4004 299.613 36.8828 299.836 37.207C300.062 37.5312 300.381 37.6934 300.791 37.6934ZM308.385 32.3262C308.99 32.3262 309.512 32.4434 309.949 32.6777C310.387 32.9082 310.725 33.2441 310.963 33.6855C311.201 34.127 311.32 34.666 311.32 35.3027V36.1699H307.096C307.115 36.6738 307.266 37.0703 307.547 37.3594C307.832 37.6445 308.227 37.7871 308.73 37.7871C309.148 37.7871 309.531 37.7441 309.879 37.6582C310.227 37.5723 310.584 37.4434 310.951 37.2715V38.6543C310.627 38.8145 310.287 38.9316 309.932 39.0059C309.58 39.0801 309.152 39.1172 308.648 39.1172C307.992 39.1172 307.41 38.9961 306.902 38.7539C306.398 38.5117 306.002 38.1426 305.713 37.6465C305.428 37.1504 305.285 36.5254 305.285 35.7715C305.285 35.0059 305.414 34.3691 305.672 33.8613C305.934 33.3496 306.297 32.9668 306.762 32.7129C307.227 32.4551 307.768 32.3262 308.385 32.3262ZM308.396 33.5977C308.049 33.5977 307.76 33.709 307.529 33.9316C307.303 34.1543 307.172 34.5039 307.137 34.9805H309.645C309.641 34.7148 309.592 34.4785 309.498 34.2715C309.408 34.0645 309.271 33.9004 309.088 33.7793C308.908 33.6582 308.678 33.5977 308.396 33.5977ZM323.631 39H321.322L317.596 32.5195H317.543C317.559 32.7891 317.572 33.0605 317.584 33.334C317.596 33.6074 317.607 33.8809 317.619 34.1543C317.631 34.4238 317.643 34.6953 317.654 34.9688V39H316.031V30.4336H318.322L322.043 36.8496H322.084C322.076 36.584 322.066 36.3203 322.055 36.0586C322.043 35.7969 322.031 35.5352 322.02 35.2734C322.012 35.0117 322.004 34.75 321.996 34.4883V30.4336H323.631V39ZM331.605 35.7129C331.605 36.2598 331.531 36.7441 331.383 37.166C331.238 37.5879 331.025 37.9453 330.744 38.2383C330.467 38.5273 330.131 38.7461 329.736 38.8945C329.346 39.043 328.904 39.1172 328.412 39.1172C327.951 39.1172 327.527 39.043 327.141 38.8945C326.758 38.7461 326.424 38.5273 326.139 38.2383C325.857 37.9453 325.639 37.5879 325.482 37.166C325.33 36.7441 325.254 36.2598 325.254 35.7129C325.254 34.9863 325.383 34.3711 325.641 33.8672C325.898 33.3633 326.266 32.9805 326.742 32.7188C327.219 32.457 327.787 32.3262 328.447 32.3262C329.061 32.3262 329.604 32.457 330.076 32.7188C330.553 32.9805 330.926 33.3633 331.195 33.8672C331.469 34.3711 331.605 34.9863 331.605 35.7129ZM327.076 35.7129C327.076 36.1426 327.123 36.5039 327.217 36.7969C327.311 37.0898 327.457 37.3105 327.656 37.459C327.855 37.6074 328.115 37.6816 328.436 37.6816C328.752 37.6816 329.008 37.6074 329.203 37.459C329.402 37.3105 329.547 37.0898 329.637 36.7969C329.73 36.5039 329.777 36.1426 329.777 35.7129C329.777 35.2793 329.73 34.9199 329.637 34.6348C329.547 34.3457 329.402 34.1289 329.203 33.9844C329.004 33.8398 328.744 33.7676 328.424 33.7676C327.951 33.7676 327.607 33.9297 327.393 34.2539C327.182 34.5781 327.076 35.0645 327.076 35.7129ZM338.467 39L337.963 36.709C337.936 36.5723 337.891 36.3711 337.828 36.1055C337.766 35.8359 337.697 35.5488 337.623 35.2441C337.553 34.9355 337.486 34.6504 337.424 34.3887C337.365 34.127 337.322 33.9355 337.295 33.8145H337.242C337.215 33.9355 337.172 34.127 337.113 34.3887C337.055 34.6504 336.988 34.9355 336.914 35.2441C336.844 35.5527 336.777 35.8438 336.715 36.1172C336.652 36.3867 336.605 36.5918 336.574 36.7324L336.047 39H334.125L332.262 32.4492H334.043L334.799 35.3496C334.85 35.5527 334.898 35.7949 334.945 36.0762C334.992 36.3535 335.033 36.623 335.068 36.8848C335.107 37.1426 335.137 37.3477 335.156 37.5H335.203C335.211 37.3867 335.227 37.2363 335.25 37.0488C335.277 36.8613 335.307 36.668 335.338 36.4688C335.373 36.2656 335.404 36.084 335.432 35.9238C335.463 35.7598 335.486 35.6484 335.502 35.5898L336.311 32.4492H338.279L339.047 35.5898C339.074 35.7031 339.109 35.8828 339.152 36.1289C339.199 36.375 339.24 36.6289 339.275 36.8906C339.311 37.1484 339.33 37.3516 339.334 37.5H339.381C339.396 37.3672 339.424 37.1699 339.463 36.9082C339.502 36.6465 339.547 36.373 339.598 36.0879C339.652 35.7988 339.707 35.5527 339.762 35.3496L340.547 32.4492H342.299L340.412 39H338.467Z" fill="white"/>
<path fill-rule="evenodd" clip-rule="evenodd" d="M15 33.5C15 24.9398 21.9398 18 30.5 18C39.0602 18 46 24.9398 46 33.5C46 42.0602 39.0602 49 30.5 49C21.9398 49 15 42.0602 15 33.5ZM24.8636 25.0455C24.4899 25.0455 24.1315 25.1939 23.8673 25.4582C23.603 25.7224 23.4545 26.0808 23.4545 26.4545C23.4545 26.8283 23.603 27.1867 23.8673 27.4509C24.1315 27.7152 24.4899 27.8636 24.8636 27.8636H29.0909C29.57 27.8636 30.3196 28.0186 30.9086 28.4442C31.1764 28.6358 31.4328 28.8965 31.6202 29.2727H24.8594C24.4857 29.2727 24.1273 29.4212 23.863 29.6854C23.5988 29.9497 23.4503 30.3081 23.4503 30.6818C23.4503 31.0555 23.5988 31.4139 23.863 31.6782C24.1273 31.9425 24.4857 32.0909 24.8594 32.0909H31.6202C31.4559 32.4217 31.2118 32.7065 30.91 32.9195C30.3738 33.2873 29.7411 33.4891 29.0909 33.5H24.8594C24.5673 33.4999 24.2824 33.5905 24.0441 33.7593C23.8058 33.9282 23.6259 34.1669 23.5292 34.4425C23.4324 34.7181 23.4238 35.0169 23.5043 35.2977C23.5848 35.5784 23.7506 35.8272 23.9787 36.0096L31.0284 41.646C31.1729 41.7616 31.3388 41.8477 31.5166 41.8992C31.6944 41.9508 31.8806 41.9668 32.0645 41.9464C32.2485 41.9259 32.4266 41.8695 32.5888 41.7802C32.751 41.691 32.8939 41.5707 33.0096 41.4261C33.1252 41.2816 33.2113 41.1157 33.2628 40.938C33.3144 40.7602 33.3304 40.574 33.31 40.39C33.2896 40.206 33.2331 40.0279 33.1439 39.8657C33.0546 39.7036 32.9343 39.5606 32.7898 39.445L28.8767 36.3182H29.0881C30.0195 36.3182 31.3835 36.0505 32.5545 35.2064C33.5975 34.4596 34.321 33.3472 34.5807 32.0909H36.1364C36.5101 32.0909 36.8685 31.9425 37.1327 31.6782C37.397 31.4139 37.5455 31.0555 37.5455 30.6818C37.5455 30.3081 37.397 29.9497 37.1327 29.6854C36.8685 29.4212 36.5101 29.2727 36.1364 29.2727H34.5807C34.4752 28.7811 34.3011 28.3068 34.0636 27.8636H36.1364C36.5101 27.8636 36.8685 27.7152 37.1327 27.4509C37.397 27.1867 37.5455 26.8283 37.5455 26.4545C37.5455 26.0808 37.397 25.7224 37.1327 25.4582C36.8685 25.1939 36.5101 25.0455 36.1364 25.0455H24.8636Z" fill="#F08200"/>
<rect y="10" width="5" height="47" rx="2.5" fill="#F08200"/>
</svg>
