<svg width="20" height="20" viewBox="0 0 20 20" fill="none" xmlns="http://www.w3.org/2000/svg">
<path d="M10 20C15.5228 20 20 15.5228 20 10C20 4.47715 15.5228 0 10 0C4.47715 0 0 4.47715 0 10C0 15.5228 4.47715 20 10 20Z" fill="#97144D"/>
<path d="M6.5789 4.75146C6.44917 4.9229 6.37695 5.13379 6.37695 5.35947V14.2921C6.37695 14.5018 6.43948 14.6987 6.5524 14.8632L11.4128 9.79353L6.5789 4.75146Z" fill="white"/>
<path d="M11.8575 9.32896L13.4343 7.68433L7.89176 4.48441C7.6512 4.34549 7.3752 4.31256 7.11768 4.38494L11.8575 9.32896Z" fill="white"/>
<path d="M11.8575 10.2568L7.06982 15.2508C7.17305 15.2854 7.27988 15.3029 7.38678 15.3029C7.56022 15.3029 7.73375 15.2573 7.89181 15.166L13.4742 11.943L11.8575 10.2568Z" fill="white"/>
<path d="M15.6278 8.95071L14.0074 8.01514L12.3027 9.79309L14.0472 11.6128L15.6278 10.7002C15.9441 10.5176 16.1329 10.1905 16.1329 9.82544C16.1329 9.46025 15.9441 9.13327 15.6278 8.95071Z" fill="white"/>
</svg>
