<svg width="27" height="28" viewBox="0 0 27 28" fill="none" xmlns="http://www.w3.org/2000/svg">
<path fill-rule="evenodd" clip-rule="evenodd" d="M13.5 27.5C15.2728 27.5 17.0283 27.1508 18.6662 26.4724C20.3041 25.7939 21.7923 24.7995 23.0459 23.5459C24.2995 22.2923 25.2939 20.8041 25.9724 19.1662C26.6508 17.5283 27 15.7728 27 14C27 12.2272 26.6508 10.4717 25.9724 8.83377C25.2939 7.19588 24.2995 5.70765 23.0459 4.45406C21.7923 3.20047 20.3041 2.20606 18.6662 1.52763C17.0283 0.849188 15.2728 0.5 13.5 0.5C9.91958 0.5 6.4858 1.92232 3.95406 4.45406C1.42232 6.9858 0 10.4196 0 14C0 17.5804 1.42232 21.0142 3.95406 23.5459C6.4858 26.0777 9.91958 27.5 13.5 27.5ZM11.6745 7.985L20.1405 12.689C20.3742 12.8189 20.569 13.009 20.7045 13.2395C20.8401 13.47 20.9116 13.7326 20.9116 14C20.9116 14.2674 20.8401 14.53 20.7045 14.7605C20.569 14.991 20.3742 15.1811 20.1405 15.311L11.6745 20.015C11.4004 20.1674 11.0912 20.2455 10.7776 20.2416C10.464 20.2377 10.1568 20.1519 9.8866 19.9927C9.61635 19.8336 9.39238 19.6066 9.23687 19.3342C9.08135 19.0619 8.9997 18.7536 9 18.44V9.56C8.9997 9.24637 9.08135 8.93811 9.23687 8.66576C9.39238 8.3934 9.61635 8.16641 9.8866 8.00726C10.1568 7.84811 10.464 7.76234 10.7776 7.75843C11.0912 7.75453 11.4004 7.83263 11.6745 7.985Z" fill="#FF800D"/>
</svg>
