<svg width="426" height="83" viewBox="0 0 426 83" fill="none" xmlns="http://www.w3.org/2000/svg">
    <rect x="33.25" y=".25" width="392.5" height="80.5" rx="9.75" fill="#FFF5EE" stroke="#F5821F" stroke-width=".5"/>
    <path d="M213.312 58.337h-8.982v-1.89l3.226-3.26a47.692 47.692 0 0 0 1.564-1.67c.399-.452.686-.862.861-1.23.182-.37.273-.765.273-1.187 0-.51-.144-.891-.431-1.143-.281-.258-.659-.387-1.134-.387-.498 0-.981.115-1.45.343a7.512 7.512 0 0 0-1.468.976l-1.476-1.75c.369-.316.759-.615 1.169-.896a5.45 5.45 0 0 1 1.441-.677c.551-.175 1.21-.263 1.978-.263.844 0 1.567.152 2.171.457.609.305 1.078.72 1.406 1.248.328.521.492 1.113.492 1.775a4.42 4.42 0 0 1-.422 1.943c-.281.586-.691 1.166-1.23 1.74a35.49 35.49 0 0 1-1.934 1.907l-1.652 1.556v.123h5.598v2.285zm4.5-2.092.132.202c-.105.422-.243.876-.413 1.363-.164.486-.345.972-.545 1.459-.193.486-.389.949-.589 1.388h-1.933c.117-.474.231-.972.343-1.494.111-.521.214-1.034.307-1.538.1-.504.179-.964.238-1.38h2.46zm10.864-4.333c0 1.037-.082 1.963-.246 2.778-.159.814-.416 1.505-.774 2.074a3.52 3.52 0 0 1-1.388 1.3c-.575.3-1.272.449-2.092.449-1.031 0-1.878-.261-2.54-.782-.662-.528-1.152-1.284-1.468-2.268-.316-.99-.475-2.174-.475-3.55 0-1.39.144-2.576.431-3.56.293-.99.768-1.75 1.424-2.277.656-.527 1.532-.79 2.628-.79 1.025 0 1.869.263 2.531.79.668.522 1.163 1.277 1.485 2.268.323.984.484 2.174.484 3.568zm-6.284 0c0 .979.052 1.796.158 2.452.111.65.296 1.14.554 1.468.257.328.615.492 1.072.492.451 0 .805-.16 1.063-.483.264-.328.451-.818.563-1.468.111-.656.167-1.476.167-2.46 0-.98-.056-1.797-.167-2.453-.112-.656-.299-1.148-.563-1.477-.258-.334-.612-.5-1.063-.5-.457 0-.815.166-1.072.5-.258.329-.443.82-.554 1.477-.106.656-.158 1.474-.158 2.452zm16.585 0c0 1.037-.082 1.963-.247 2.778-.158.814-.416 1.505-.773 2.074a3.523 3.523 0 0 1-1.389 1.3c-.574.3-1.271.449-2.091.449-1.032 0-1.878-.261-2.54-.782-.663-.528-1.152-1.284-1.468-2.268-.317-.99-.475-2.174-.475-3.55 0-1.39.144-2.576.431-3.56.293-.99.767-1.75 1.424-2.277.656-.527 1.532-.79 2.628-.79 1.025 0 1.869.263 2.531.79.668.522 1.163 1.277 1.485 2.268.322.984.484 2.174.484 3.568zm-6.285 0c0 .979.053 1.796.159 2.452.111.65.295 1.14.553 1.468.258.328.616.492 1.073.492.451 0 .805-.16 1.063-.483.264-.328.451-.818.563-1.468.111-.656.167-1.476.167-2.46 0-.98-.056-1.797-.167-2.453-.112-.656-.299-1.148-.563-1.477-.258-.334-.612-.5-1.063-.5-.457 0-.815.166-1.073.5-.258.329-.442.82-.553 1.477-.106.656-.159 1.474-.159 2.452zm10.855 4.333.132.202c-.106.422-.243.876-.413 1.363-.164.486-.346.972-.545 1.459-.194.486-.39.949-.589 1.388h-1.934c.117-.474.232-.972.343-1.494a62.07 62.07 0 0 0 .308-1.538c.099-.504.178-.964.237-1.38h2.461zm10.863-4.333c0 1.037-.082 1.963-.246 2.778-.158.814-.416 1.505-.773 2.074a3.53 3.53 0 0 1-1.389 1.3c-.574.3-1.272.449-2.092.449-1.031 0-1.878-.261-2.54-.782-.662-.528-1.151-1.284-1.468-2.268-.316-.99-.474-2.174-.474-3.55 0-1.39.143-2.576.43-3.56.293-.99.768-1.75 1.424-2.277.656-.527 1.532-.79 2.628-.79 1.026 0 1.869.263 2.531.79.668.522 1.163 1.277 1.486 2.268.322.984.483 2.174.483 3.568zm-6.284 0c0 .979.053 1.796.158 2.452.112.65.296 1.14.554 1.468.258.328.615.492 1.072.492.451 0 .806-.16 1.064-.483.263-.328.451-.818.562-1.468.111-.656.167-1.476.167-2.46 0-.98-.056-1.797-.167-2.453-.111-.656-.299-1.148-.562-1.477-.258-.334-.613-.5-1.064-.5-.457 0-.814.166-1.072.5-.258.329-.442.82-.554 1.477-.105.656-.158 1.474-.158 2.452zm16.585 0c0 1.037-.082 1.963-.246 2.778-.158.814-.416 1.505-.774 2.074a3.52 3.52 0 0 1-1.388 1.3c-.574.3-1.272.449-2.092.449-1.031 0-1.878-.261-2.54-.782-.662-.528-1.151-1.284-1.468-2.268-.316-.99-.474-2.174-.474-3.55 0-1.39.143-2.576.43-3.56.293-.99.768-1.75 1.424-2.277.656-.527 1.532-.79 2.628-.79 1.025 0 1.869.263 2.531.79.668.522 1.163 1.277 1.486 2.268.322.984.483 2.174.483 3.568zm-6.284 0c0 .979.052 1.796.158 2.452.111.65.296 1.14.554 1.468.257.328.615.492 1.072.492.451 0 .806-.16 1.063-.483.264-.328.452-.818.563-1.468.111-.656.167-1.476.167-2.46 0-.98-.056-1.797-.167-2.453-.111-.656-.299-1.148-.563-1.477-.257-.334-.612-.5-1.063-.5-.457 0-.815.166-1.072.5-.258.329-.443.82-.554 1.477-.106.656-.158 1.474-.158 2.452zm16.585 0c0 1.037-.082 1.963-.246 2.778-.159.814-.416 1.505-.774 2.074a3.52 3.52 0 0 1-1.388 1.3c-.575.3-1.272.449-2.092.449-1.032 0-1.878-.261-2.54-.782-.662-.528-1.152-1.284-1.468-2.268-.316-.99-.475-2.174-.475-3.55 0-1.39.144-2.576.431-3.56.293-.99.768-1.75 1.424-2.277.656-.527 1.532-.79 2.628-.79 1.025 0 1.869.263 2.531.79.668.522 1.163 1.277 1.485 2.268.323.984.484 2.174.484 3.568zm-6.284 0c0 .979.052 1.796.158 2.452.111.65.296 1.14.553 1.468.258.328.616.492 1.073.492.451 0 .805-.16 1.063-.483.264-.328.451-.818.563-1.468.111-.656.167-1.476.167-2.46 0-.98-.056-1.797-.167-2.453-.112-.656-.299-1.148-.563-1.477-.258-.334-.612-.5-1.063-.5-.457 0-.815.166-1.073.5-.257.329-.442.82-.553 1.477-.106.656-.158 1.474-.158 2.452zM194.86 58.837l-3.78-6.6v-.88h.44c.707 0 1.3-.067 1.78-.2.493-.133.88-.353 1.16-.66.28-.307.447-.727.5-1.26h-3.88v-1.28h3.86c-.093-.493-.28-.893-.56-1.2-.28-.32-.66-.553-1.14-.7-.467-.147-1.04-.22-1.72-.22h-.44v-1.28h8.28v1.28h-3.78c.307.253.56.553.76.9.2.347.327.753.38 1.22h2.64v1.28h-2.6c-.093.973-.467 1.733-1.12 2.28-.64.533-1.493.873-2.56 1.02l3.82 6.3h-2.04z" fill="#F5821F"/>
    <path d="M81.978 23.006c1.29 0 2.231.253 2.824.759.597.501.895 1.221.895 2.16 0 .424-.07.827-.212 1.21-.136.378-.36.713-.67 1.005-.31.287-.717.515-1.223.683-.501.164-1.117.246-1.846.246H80.53V33h-1.162v-9.994h2.611zm-.109.991h-1.34v4.074h1.087c.638 0 1.17-.068 1.593-.205.428-.136.75-.357.964-.663.214-.31.321-.72.321-1.23 0-.666-.212-1.16-.636-1.484-.423-.328-1.087-.492-1.989-.492zM88.76 33h-1.14V22.363h1.14V33zm5.285-7.629c.638 0 1.185.141 1.64.424.456.282.805.679 1.047 1.19.241.505.362 1.098.362 1.777v.704h-5.175c.014.88.232 1.55.656 2.01.424.46 1.021.69 1.791.69.474 0 .894-.043 1.258-.13a6.937 6.937 0 0 0 1.135-.383v.998a5.525 5.525 0 0 1-1.128.37c-.37.077-.807.116-1.313.116-.72 0-1.349-.146-1.886-.438a3.06 3.06 0 0 1-1.245-1.299c-.296-.57-.444-1.266-.444-2.091 0-.807.135-1.504.403-2.092.274-.593.657-1.048 1.149-1.367.497-.32 1.08-.479 1.75-.479zm-.014.93c-.606 0-1.089.198-1.449.595-.36.396-.574.95-.642 1.66h3.964a3.201 3.201 0 0 0-.212-1.175 1.651 1.651 0 0 0-.608-.793c-.273-.192-.624-.287-1.053-.287zm7.657 6.836c-.948 0-1.7-.324-2.256-.971-.552-.647-.828-1.609-.828-2.885 0-1.29.283-2.262.848-2.919.565-.66 1.317-.99 2.256-.99.397 0 .743.052 1.039.156a2.576 2.576 0 0 1 1.306 1.019h.082a11.296 11.296 0 0 1-.055-.581 8.587 8.587 0 0 1-.027-.602v-3h1.135V33h-.916l-.171-1.066h-.048a2.64 2.64 0 0 1-.54.608 2.491 2.491 0 0 1-.773.438 3.158 3.158 0 0 1-1.052.157zm.177-.944c.802 0 1.37-.227 1.702-.683.333-.456.499-1.133.499-2.03v-.206c0-.952-.159-1.684-.478-2.194-.315-.51-.889-.765-1.723-.765-.697 0-1.219.268-1.565.806-.347.533-.52 1.263-.52 2.188 0 .92.171 1.631.513 2.132.346.502.87.752 1.572.752zm7.821 4.17c-.985 0-1.744-.184-2.277-.553-.533-.365-.8-.878-.8-1.538 0-.47.149-.871.445-1.204.301-.332.715-.553 1.244-.663a1.361 1.361 0 0 1-.506-.41 1.018 1.018 0 0 1-.205-.629c0-.273.075-.512.226-.718.154-.21.389-.41.704-.601a2.046 2.046 0 0 1-.957-.807c-.242-.383-.363-.827-.363-1.333 0-.538.112-.995.335-1.374.224-.383.547-.674.971-.875.424-.2.936-.3 1.538-.3.132 0 .264.006.397.02.136.009.266.025.389.048a2.3 2.3 0 0 1 .321.068h2.571v.732l-1.381.17a2.429 2.429 0 0 1 .478 1.477c0 .747-.253 1.342-.758 1.784-.506.438-1.201.657-2.085.657-.21 0-.424-.019-.643-.055-.223.123-.394.26-.513.41a.836.836 0 0 0-.17.52c0 .145.043.262.129.348.092.087.221.15.39.192.169.036.371.054.608.054h1.32c.816 0 1.44.171 1.873.513.437.342.656.84.656 1.497 0 .83-.337 1.465-1.012 1.907-.674.442-1.649.663-2.925.663zm.034-.888c.62 0 1.132-.064 1.538-.192.41-.123.715-.303.916-.54.205-.232.307-.51.307-.834 0-.3-.068-.529-.205-.683-.136-.15-.337-.251-.601-.301a4.88 4.88 0 0 0-.971-.082h-1.299c-.337 0-.631.052-.882.157-.25.105-.444.26-.581.465-.132.205-.198.46-.198.765 0 .406.171.714.513.923.342.215.829.322 1.463.322zm.294-5.989c.542 0 .95-.136 1.223-.41.274-.273.41-.672.41-1.196 0-.56-.139-.98-.417-1.258-.278-.282-.688-.424-1.23-.424-.52 0-.921.146-1.203.438-.278.287-.417.708-.417 1.264 0 .51.141.903.424 1.176.282.274.686.41 1.21.41zm8.066-4.115c.638 0 1.185.141 1.641.424.455.282.804.679 1.046 1.19.241.505.362 1.098.362 1.777v.704h-5.175c.014.88.233 1.55.656 2.01.424.46 1.021.69 1.791.69a5.47 5.47 0 0 0 1.258-.13 6.93 6.93 0 0 0 1.135-.383v.998a5.516 5.516 0 0 1-1.128.37 6.465 6.465 0 0 1-1.312.116c-.721 0-1.349-.146-1.887-.438a3.059 3.059 0 0 1-1.244-1.299c-.297-.57-.445-1.266-.445-2.091 0-.807.135-1.504.404-2.092.273-.593.656-1.048 1.148-1.367.497-.32 1.08-.479 1.75-.479zm-.014.93c-.606 0-1.089.198-1.449.595-.36.396-.574.95-.642 1.66h3.964a3.206 3.206 0 0 0-.211-1.175 1.653 1.653 0 0 0-.609-.793c-.273-.192-.624-.287-1.053-.287zm7.445-.793h1.217l1.654 4.348c.096.255.184.5.266.738.082.232.155.455.219.67.064.214.114.421.151.622h.047c.064-.228.155-.527.274-.896.118-.373.246-.754.383-1.141l1.565-4.341h1.224l-3.261 8.593c-.173.46-.376.86-.608 1.203a2.403 2.403 0 0 1-.834.786c-.328.187-.725.28-1.19.28-.214 0-.403-.014-.567-.04a3.502 3.502 0 0 1-.424-.083v-.91a3.918 3.918 0 0 0 .813.09c.283 0 .527-.055.732-.164.21-.105.39-.26.54-.465a3.2 3.2 0 0 0 .39-.732l.41-1.052-3.001-7.506zm14.656 3.732a5.26 5.26 0 0 1-.239 1.648c-.16.483-.39.89-.691 1.223-.3.333-.665.588-1.093.766a3.79 3.79 0 0 1-1.443.26c-.501 0-.961-.087-1.381-.26a3.13 3.13 0 0 1-1.08-.766 3.538 3.538 0 0 1-.704-1.223c-.164-.483-.246-1.033-.246-1.648 0-.82.139-1.517.417-2.092.278-.578.675-1.018 1.19-1.319.519-.305 1.137-.458 1.852-.458.684 0 1.281.153 1.791.458a3.05 3.05 0 0 1 1.196 1.326c.287.575.431 1.27.431 2.085zm-5.701 0c0 .602.08 1.124.239 1.566.16.442.406.784.738 1.025.333.242.761.362 1.286.362.519 0 .945-.12 1.278-.362.337-.241.585-.583.745-1.025.159-.442.239-.964.239-1.566 0-.597-.08-1.112-.239-1.545-.16-.437-.406-.774-.738-1.011-.333-.237-.764-.356-1.292-.356-.78 0-1.352.258-1.716.773-.36.515-.54 1.228-.54 2.14zm13.849-3.732V33h-.929l-.164-1.053h-.062c-.155.26-.355.479-.601.656a2.61 2.61 0 0 1-.834.397 3.411 3.411 0 0 1-.978.137c-.592 0-1.089-.096-1.49-.287a1.931 1.931 0 0 1-.909-.89c-.201-.4-.301-.915-.301-1.544v-4.908h1.148v4.826c0 .624.142 1.091.424 1.401.283.306.713.458 1.292.458.556 0 .998-.104 1.326-.314a1.75 1.75 0 0 0 .718-.923c.146-.41.219-.911.219-1.504v-3.944h1.141zm5.804-.137c.151 0 .308.01.472.027.164.014.31.035.437.062l-.143 1.053a3.55 3.55 0 0 0-.834-.102c-.301 0-.586.06-.855.184a2.033 2.033 0 0 0-.697.52c-.2.223-.358.494-.472.813a3.072 3.072 0 0 0-.171 1.052V33h-1.141v-7.492h.943l.123 1.38h.048c.155-.277.342-.53.561-.758.218-.232.471-.417.758-.554.292-.137.616-.205.971-.205zm7.096-3.008v3.179c0 .182-.005.367-.014.554-.009.182-.025.35-.048.506h.076c.154-.265.35-.486.587-.663a2.57 2.57 0 0 1 .821-.41c.305-.096.629-.144.97-.144.602 0 1.103.095 1.504.287.406.191.709.488.91.889.205.4.307.92.307 1.558V33h-1.121v-4.806c0-.624-.144-1.091-.431-1.401-.282-.31-.717-.465-1.305-.465-.556 0-1.001.107-1.333.321-.328.21-.565.52-.711.93-.141.41-.212.912-.212 1.504V33h-1.135V22.363h1.135zm13.911 6.877a5.26 5.26 0 0 1-.239 1.648c-.16.483-.39.89-.691 1.223-.3.333-.665.588-1.093.766a3.79 3.79 0 0 1-1.443.26c-.501 0-.961-.087-1.381-.26a3.13 3.13 0 0 1-1.08-.766 3.538 3.538 0 0 1-.704-1.223c-.164-.483-.246-1.033-.246-1.648 0-.82.139-1.517.417-2.092.278-.578.675-1.018 1.189-1.319.52-.305 1.138-.458 1.853-.458.684 0 1.281.153 1.791.458a3.05 3.05 0 0 1 1.196 1.326c.287.575.431 1.27.431 2.085zm-5.701 0c0 .602.08 1.124.239 1.566.16.442.406.784.738 1.025.333.242.761.362 1.286.362.519 0 .945-.12 1.278-.362.337-.241.585-.583.745-1.025.159-.442.239-.964.239-1.566 0-.597-.08-1.112-.239-1.545-.16-.437-.406-.774-.738-1.011-.333-.237-.764-.356-1.292-.356-.78 0-1.352.258-1.716.773-.36.515-.54 1.228-.54 2.14zm8.805 3.76h-1.142V22.363h1.142V33zm5.065.137c-.948 0-1.7-.324-2.256-.971-.551-.647-.827-1.609-.827-2.885 0-1.29.282-2.262.848-2.919.565-.66 1.317-.99 2.255-.99.397 0 .743.052 1.04.156a2.576 2.576 0 0 1 1.305 1.019h.082a11.5 11.5 0 0 1-.054-.581 8.096 8.096 0 0 1-.028-.602v-3h1.135V33h-.916l-.171-1.066h-.048a2.593 2.593 0 0 1-1.312 1.046 3.165 3.165 0 0 1-1.053.157zm.178-.944c.802 0 1.369-.227 1.702-.683.333-.456.499-1.133.499-2.03v-.206c0-.952-.16-1.684-.479-2.194-.314-.51-.888-.765-1.722-.765-.698 0-1.219.268-1.566.806-.346.533-.519 1.263-.519 2.188 0 .92.171 1.631.512 2.132.347.502.871.752 1.573.752zm6.863-6.685V33H189.2v-7.492h1.135zm-.554-2.803c.187 0 .347.062.479.185.136.118.205.305.205.56 0 .25-.069.438-.205.56a.678.678 0 0 1-.479.185.694.694 0 0 1-.492-.184c-.128-.123-.191-.31-.191-.56 0-.256.063-.443.191-.561a.694.694 0 0 1 .492-.185zm6.508 2.666c.889 0 1.561.219 2.017.656.455.433.683 1.13.683 2.092V33h-1.121v-4.806c0-.624-.143-1.091-.43-1.401-.283-.31-.718-.465-1.306-.465-.83 0-1.413.235-1.75.704-.337.47-.506 1.15-.506 2.044V33h-1.135v-7.492h.916l.171 1.08h.062c.159-.264.362-.486.608-.663.246-.183.522-.32.827-.41a3.21 3.21 0 0 1 .964-.144zm7.13 10.992c-.984 0-1.743-.184-2.276-.553-.534-.365-.8-.878-.8-1.538 0-.47.148-.871.444-1.204.301-.332.716-.553 1.244-.663a1.37 1.37 0 0 1-.506-.41 1.025 1.025 0 0 1-.205-.629c0-.273.076-.512.226-.718.155-.21.39-.41.704-.601a2.046 2.046 0 0 1-.957-.807c-.242-.383-.362-.827-.362-1.333 0-.538.111-.995.335-1.374.223-.383.546-.674.97-.875.424-.2.937-.3 1.538-.3.133 0 .265.006.397.02.137.009.267.025.39.048a2.3 2.3 0 0 1 .321.068h2.57v.732l-1.381.17a2.428 2.428 0 0 1 .479 1.477c0 .747-.253 1.342-.759 1.784-.506.438-1.201.657-2.085.657-.21 0-.424-.019-.643-.055-.223.123-.394.26-.512.41a.837.837 0 0 0-.171.52.47.47 0 0 0 .13.348c.091.087.221.15.389.192.169.036.372.054.609.054h1.319c.816 0 1.44.171 1.873.513.438.342.656.84.656 1.497 0 .83-.337 1.465-1.011 1.907-.675.442-1.65.663-2.926.663zm.034-.888c.62 0 1.133-.064 1.538-.192.41-.123.716-.303.916-.54.205-.232.308-.51.308-.834 0-.3-.069-.529-.205-.683-.137-.15-.337-.251-.602-.301a4.877 4.877 0 0 0-.97-.082h-1.299a2.27 2.27 0 0 0-.882.157c-.251.105-.445.26-.581.465-.132.205-.198.46-.198.765 0 .406.17.714.512.923.342.215.83.322 1.463.322zm.294-5.989c.542 0 .95-.136 1.224-.41.273-.273.41-.672.41-1.196 0-.56-.139-.98-.417-1.258-.278-.282-.688-.424-1.231-.424-.519 0-.92.146-1.203.438-.278.287-.417.708-.417 1.264 0 .51.142.903.424 1.176.283.274.686.41 1.21.41zm10.028 1.463c0 .479-.12.882-.362 1.21-.237.324-.579.568-1.025.732-.442.164-.971.246-1.586.246a6.58 6.58 0 0 1-1.361-.123 3.944 3.944 0 0 1-1.004-.349v-1.046c.305.15.669.287 1.093.41a4.64 4.64 0 0 0 1.299.185c.647 0 1.117-.105 1.408-.315a.997.997 0 0 0 .438-.854.861.861 0 0 0-.178-.54c-.114-.16-.308-.312-.581-.458a8.599 8.599 0 0 0-1.135-.492 13.151 13.151 0 0 1-1.244-.54 2.33 2.33 0 0 1-.807-.663c-.186-.26-.28-.597-.28-1.012 0-.634.255-1.119.766-1.456.515-.342 1.189-.513 2.023-.513.451 0 .873.046 1.265.137.396.086.766.205 1.107.355l-.382.91a7.027 7.027 0 0 0-.992-.335 4.25 4.25 0 0 0-1.073-.137c-.524 0-.927.086-1.21.26-.278.173-.417.41-.417.71 0 .233.064.424.192.575.132.15.341.291.628.424.288.132.666.287 1.135.464.47.174.875.354 1.217.54.342.183.604.406.786.67.187.26.28.595.28 1.005zm7.882 1.258a3.567 3.567 0 0 0 1.053-.164v.882c-.132.059-.317.11-.554.15-.232.041-.46.062-.683.062-.397 0-.757-.069-1.08-.205a1.672 1.672 0 0 1-.78-.711c-.191-.333-.287-.793-.287-1.381v-4.444h-1.066v-.553l1.073-.445.451-1.627h.684v1.737h2.194v.889h-2.194v4.409c0 .47.107.82.321 1.052.219.233.508.349.868.349zm9.031-2.967c0 .616-.08 1.165-.24 1.648-.159.483-.389.89-.69 1.223a3.013 3.013 0 0 1-1.094.766c-.424.173-.905.26-1.442.26-.502 0-.962-.087-1.381-.26a3.11 3.11 0 0 1-1.08-.766 3.523 3.523 0 0 1-.704-1.223c-.164-.483-.246-1.033-.246-1.648 0-.82.139-1.517.417-2.092.278-.578.674-1.018 1.189-1.319.52-.305 1.137-.458 1.853-.458.683 0 1.28.153 1.791.458.515.305.913.747 1.196 1.326.287.575.431 1.27.431 2.085zm-5.702 0c0 .602.08 1.124.24 1.566.159.442.405.784.738 1.025.333.242.761.362 1.285.362.52 0 .946-.12 1.278-.362.338-.241.586-.583.745-1.025.16-.442.24-.964.24-1.566 0-.597-.08-1.112-.24-1.545-.159-.437-.405-.774-.738-1.011-.333-.237-.763-.356-1.292-.356-.779 0-1.351.258-1.716.773-.36.515-.54 1.228-.54 2.14zM80.331 48.508V56h-1.135v-7.492h1.135zm-.554-2.803c.187 0 .347.062.479.185.137.118.205.305.205.56 0 .25-.068.438-.205.56a.677.677 0 0 1-.479.185.694.694 0 0 1-.492-.184c-.127-.123-.191-.31-.191-.56 0-.256.064-.443.191-.561a.695.695 0 0 1 .492-.185zm6.508 2.666c.889 0 1.561.219 2.017.656.455.433.683 1.13.683 2.092V56h-1.12v-4.806c0-.624-.144-1.091-.431-1.401-.283-.31-.718-.465-1.306-.465-.83 0-1.413.235-1.75.704-.337.47-.506 1.15-.506 2.044V56h-1.135v-7.492h.916l.171 1.08h.062a2.23 2.23 0 0 1 .608-.663c.246-.182.522-.32.827-.41.306-.096.627-.144.964-.144zm8.04 7.766c-.675 0-1.27-.14-1.785-.417-.515-.278-.916-.702-1.203-1.272-.287-.57-.43-1.287-.43-2.153 0-.907.15-1.648.45-2.222.306-.578.725-1.007 1.258-1.285s1.14-.417 1.819-.417c.373 0 .733.039 1.08.116.35.073.638.167.861.28l-.342.95a5.867 5.867 0 0 0-.793-.245 3.498 3.498 0 0 0-.834-.11c-.52 0-.952.112-1.299.335-.341.224-.599.552-.772.985-.169.433-.253.966-.253 1.6 0 .605.082 1.123.246 1.551.169.428.417.757.745.984.333.224.748.335 1.244.335.397 0 .755-.04 1.074-.123.319-.086.608-.187.868-.3v1.011c-.25.128-.531.226-.841.294-.305.069-.67.103-1.094.103zm7.115-7.766c.151 0 .308.01.472.027.164.014.31.035.438.062l-.144 1.053a3.538 3.538 0 0 0-.834-.102c-.301 0-.586.06-.854.184a2.023 2.023 0 0 0-.698.52 2.42 2.42 0 0 0-.471.813c-.114.314-.171.665-.171 1.053V56h-1.142v-7.492h.944l.123 1.38h.047c.155-.277.342-.53.56-.758.22-.233.473-.417.76-.554.291-.136.615-.205.97-.205zm5.209 0c.638 0 1.185.141 1.641.424.456.282.804.679 1.046 1.19.241.505.362 1.098.362 1.777v.704h-5.175c.014.88.233 1.55.657 2.01.424.46 1.021.69 1.791.69.474 0 .893-.043 1.258-.13a6.952 6.952 0 0 0 1.134-.383v.998a5.516 5.516 0 0 1-1.128.37 6.459 6.459 0 0 1-1.312.116c-.72 0-1.349-.146-1.887-.438a3.059 3.059 0 0 1-1.244-1.299c-.296-.57-.444-1.267-.444-2.091 0-.807.134-1.504.403-2.092.273-.593.656-1.048 1.148-1.367.497-.32 1.08-.479 1.75-.479zm-.013.93c-.606 0-1.089.198-1.449.594-.361.397-.575.95-.643 1.662h3.965a3.205 3.205 0 0 0-.212-1.176 1.647 1.647 0 0 0-.609-.793c-.273-.191-.624-.287-1.052-.287zm7.793-.916c.893 0 1.556.2 1.989.601.433.401.649 1.042.649 1.921V56h-.827l-.219-1.107h-.054c-.21.273-.429.503-.656.69a2.449 2.449 0 0 1-.793.417c-.297.091-.661.137-1.094.137-.456 0-.862-.08-1.217-.24a1.894 1.894 0 0 1-.834-.724c-.2-.324-.301-.734-.301-1.23 0-.748.296-1.322.889-1.723.592-.401 1.495-.62 2.707-.657l1.292-.054v-.458c0-.647-.139-1.1-.417-1.36-.278-.26-.67-.39-1.176-.39a3.65 3.65 0 0 0-1.121.17 7.703 7.703 0 0 0-1.012.404l-.348-.861a6.228 6.228 0 0 1 1.162-.445 5.078 5.078 0 0 1 1.381-.184zm1.517 3.924-1.141.047c-.935.037-1.593.19-1.976.459-.383.268-.574.649-.574 1.141 0 .428.13.745.39.95.259.205.603.308 1.032.308.665 0 1.21-.185 1.634-.554.423-.369.635-.923.635-1.661v-.69zm8.306 1.64c0 .479-.121.882-.362 1.21-.237.324-.579.568-1.026.732-.442.164-.97.246-1.586.246a6.57 6.57 0 0 1-1.36-.123 3.938 3.938 0 0 1-1.005-.349v-1.046c.305.15.67.287 1.094.41a4.64 4.64 0 0 0 1.299.185c.647 0 1.116-.105 1.408-.315a.996.996 0 0 0 .437-.854.866.866 0 0 0-.177-.54c-.114-.16-.308-.312-.581-.458a8.659 8.659 0 0 0-1.135-.492 13.039 13.039 0 0 1-1.244-.54 2.312 2.312 0 0 1-.807-.663c-.187-.26-.28-.597-.28-1.012 0-.634.255-1.119.765-1.456.515-.342 1.19-.513 2.024-.513.451 0 .873.046 1.264.137.397.086.766.205 1.108.355l-.383.91a7.013 7.013 0 0 0-.991-.336 4.256 4.256 0 0 0-1.073-.136c-.524 0-.928.086-1.21.26-.278.173-.417.41-.417.71 0 .233.063.424.191.575.132.15.342.291.629.424.287.132.665.287 1.135.464.469.174.875.354 1.217.54.341.183.603.406.786.67.187.26.28.595.28 1.005zm4.71-5.578c.638 0 1.185.141 1.641.424.455.282.804.679 1.045 1.19.242.505.363 1.098.363 1.777v.704h-5.175c.014.88.232 1.55.656 2.01.424.46 1.021.69 1.791.69.474 0 .893-.043 1.258-.13a6.93 6.93 0 0 0 1.135-.383v.998a5.516 5.516 0 0 1-1.128.37 6.469 6.469 0 0 1-1.313.116c-.72 0-1.349-.146-1.886-.438a3.061 3.061 0 0 1-1.245-1.299c-.296-.57-.444-1.267-.444-2.091 0-.807.135-1.504.403-2.092.274-.593.657-1.048 1.149-1.367.497-.32 1.08-.479 1.75-.479zm-.014.93c-.606 0-1.089.198-1.449.594-.36.397-.574.95-.643 1.662h3.965a3.185 3.185 0 0 0-.212-1.176 1.652 1.652 0 0 0-.608-.793c-.273-.191-.624-.287-1.053-.287zm16.762-.93c.825 0 1.447.217 1.866.65.419.428.629 1.118.629 2.07V56h-1.121v-4.853c0-.607-.132-1.06-.396-1.36-.26-.306-.648-.459-1.163-.459-.724 0-1.251.21-1.579.629-.328.42-.492 1.037-.492 1.853V56h-1.128v-4.853c0-.406-.059-.743-.178-1.012a1.206 1.206 0 0 0-.519-.602c-.228-.136-.517-.205-.868-.205-.497 0-.896.103-1.197.308-.3.205-.519.51-.656.916-.132.4-.198.895-.198 1.483V56h-1.135v-7.492h.916l.171 1.06h.062c.15-.26.339-.48.567-.657.228-.178.483-.312.766-.403.282-.091.583-.137.902-.137.57 0 1.046.107 1.429.321.387.21.667.531.841.964h.061a2.315 2.315 0 0 1 1.012-.964 3.103 3.103 0 0 1 1.408-.32zm7.629.014c.893 0 1.556.2 1.989.601.433.401.65 1.042.65 1.921V56h-.828l-.218-1.107h-.055c-.21.273-.428.503-.656.69a2.439 2.439 0 0 1-.793.417c-.296.091-.661.137-1.094.137-.456 0-.861-.08-1.217-.24a1.894 1.894 0 0 1-.834-.724c-.2-.324-.301-.734-.301-1.23 0-.748.297-1.322.889-1.723.593-.401 1.495-.62 2.707-.657l1.292-.054v-.458c0-.647-.139-1.1-.417-1.36-.278-.26-.67-.39-1.176-.39a3.65 3.65 0 0 0-1.121.17 7.689 7.689 0 0 0-1.011.404l-.349-.861a6.255 6.255 0 0 1 1.162-.445 5.083 5.083 0 0 1 1.381-.184zm1.517 3.924-1.141.047c-.934.037-1.593.19-1.976.459-.383.268-.574.649-.574 1.141 0 .428.13.745.39.95.259.205.604.308 1.032.308.665 0 1.21-.185 1.634-.554.424-.369.635-.923.635-1.661v-.69zm6.864-3.938c.15 0 .307.01.471.027.164.014.31.035.438.062l-.144 1.053a3.525 3.525 0 0 0-.834-.102c-.3 0-.585.06-.854.184a2.023 2.023 0 0 0-.697.52 2.412 2.412 0 0 0-.472.813 3.072 3.072 0 0 0-.171 1.053V56h-1.142v-7.492h.944l.123 1.38h.048c.155-.277.341-.53.56-.758.219-.233.472-.417.759-.554a2.26 2.26 0 0 1 .971-.205zm4.416 10.992c-.985 0-1.743-.184-2.277-.553-.533-.365-.799-.878-.799-1.538 0-.47.148-.871.444-1.204.301-.332.715-.553 1.244-.663a1.361 1.361 0 0 1-.506-.41 1.018 1.018 0 0 1-.205-.629c0-.273.075-.513.226-.718.155-.21.389-.41.704-.601a2.046 2.046 0 0 1-.957-.807c-.242-.383-.363-.827-.363-1.333 0-.537.112-.995.335-1.374.224-.383.547-.674.971-.875.424-.2.937-.3 1.538-.3.132 0 .265.006.397.02.136.009.266.025.389.048.123.018.23.04.322.068h2.57v.732l-1.381.17a2.428 2.428 0 0 1 .479 1.476c0 .748-.253 1.343-.759 1.785-.506.438-1.201.657-2.085.657-.21 0-.424-.019-.643-.055-.223.123-.394.26-.512.41a.837.837 0 0 0-.171.52.47.47 0 0 0 .13.348c.091.087.221.15.389.191.169.037.372.055.609.055h1.319c.816 0 1.44.171 1.873.513.437.342.656.84.656 1.497 0 .83-.337 1.465-1.011 1.907-.675.442-1.65.663-2.926.663zm.034-.888c.62 0 1.132-.064 1.538-.192.41-.123.716-.303.916-.54.205-.232.308-.51.308-.834 0-.3-.069-.529-.205-.683-.137-.15-.338-.251-.602-.301a4.88 4.88 0 0 0-.971-.082h-1.299c-.337 0-.631.052-.881.157-.251.105-.445.26-.581.465-.133.205-.199.46-.199.765 0 .406.171.714.513.923.342.215.829.322 1.463.322zm.294-5.989c.542 0 .95-.136 1.224-.41.273-.273.41-.672.41-1.196 0-.56-.139-.98-.417-1.258-.278-.282-.688-.424-1.231-.424-.519 0-.92.146-1.203.438-.278.287-.417.708-.417 1.264 0 .51.141.903.424 1.176.282.274.686.41 1.21.41zm6.316-3.978V56h-1.134v-7.492h1.134zm-.553-2.803c.186 0 .346.062.478.185.137.118.205.305.205.56 0 .25-.068.438-.205.56a.677.677 0 0 1-.478.185.698.698 0 0 1-.493-.184c-.127-.123-.191-.31-.191-.56 0-.256.064-.443.191-.561a.698.698 0 0 1 .493-.185zm6.507 2.666c.889 0 1.561.219 2.017.656.456.433.684 1.13.684 2.092V56h-1.122v-4.806c0-.624-.143-1.091-.43-1.401-.283-.31-.718-.465-1.306-.465-.829 0-1.413.235-1.75.704-.337.47-.506 1.15-.506 2.044V56h-1.134v-7.492h.916l.17 1.08h.062c.159-.264.362-.486.608-.663.246-.182.522-.32.828-.41.305-.096.626-.144.963-.144z" fill="#333"/>
    <rect x="306" y="24" width="107.062" height="31.493" rx="15.747" fill="#043B73"/>
    <path d="M322.986 36.434c1.106 0 1.912.226 2.42.68.508.452.762 1.087.762 1.904 0 .37-.059.724-.176 1.06a2.253 2.253 0 0 1-.562.885c-.262.254-.608.455-1.037.603-.426.149-.952.223-1.577.223h-.914V45h-1.406v-8.566h2.49zm-.093 1.166h-.991v3.017h.768c.441 0 .816-.05 1.125-.152.309-.106.543-.272.703-.498.16-.227.24-.526.24-.897 0-.496-.15-.865-.451-1.107-.297-.242-.762-.363-1.394-.363zm6.228 7.4h-1.383v-9.117h1.383V45zm4.553-6.61c.578 0 1.074.12 1.488.358.414.238.733.576.955 1.014.223.437.334.96.334 1.57v.738h-4.33c.016.63.184 1.114.504 1.453.324.34.777.51 1.359.51.414 0 .786-.039 1.114-.117a6.194 6.194 0 0 0 1.025-.357v1.119a4.473 4.473 0 0 1-.99.334c-.336.07-.738.105-1.207.105-.637 0-1.197-.123-1.682-.369a2.706 2.706 0 0 1-1.131-1.113c-.269-.492-.404-1.104-.404-1.834 0-.727.123-1.344.369-1.852a2.662 2.662 0 0 1 1.037-1.16c.446-.266.965-.398 1.559-.398zm0 1.038c-.434 0-.785.14-1.055.422-.265.28-.422.693-.469 1.236h2.954a2.263 2.263 0 0 0-.165-.861 1.244 1.244 0 0 0-.468-.586c-.207-.141-.473-.211-.797-.211zm6.51 5.69c-.774 0-1.395-.282-1.864-.845-.465-.566-.697-1.4-.697-2.502 0-1.113.236-1.955.709-2.525.477-.57 1.104-.855 1.881-.855.328 0 .615.044.861.134.246.086.457.203.633.352.18.148.332.314.457.498h.065c-.02-.121-.043-.295-.071-.522a6.473 6.473 0 0 1-.035-.638v-2.332h1.383V45h-1.078l-.246-.885h-.059a2.075 2.075 0 0 1-1.078.867c-.242.09-.529.135-.861.135zm.386-1.12c.59 0 1.006-.17 1.248-.51.243-.34.368-.85.375-1.529v-.182c0-.726-.117-1.283-.351-1.67-.235-.39-.662-.585-1.283-.585-.497 0-.875.2-1.137.603-.258.398-.387.955-.387 1.67s.129 1.262.387 1.64c.262.375.644.563 1.148.563zm6.762 3.885c-.879 0-1.553-.158-2.021-.475-.469-.316-.704-.76-.704-1.33 0-.398.125-.736.375-1.014.25-.273.608-.462 1.073-.568a1.194 1.194 0 0 1-.457-.363.912.912 0 0 1-.188-.557.97.97 0 0 1 .205-.62c.137-.173.342-.339.615-.499a1.79 1.79 0 0 1-.82-.703c-.203-.328-.305-.713-.305-1.154 0-.47.1-.868.299-1.196.2-.332.491-.584.873-.756.383-.175.846-.263 1.389-.263.117 0 .244.008.381.023.141.012.269.027.387.047.121.016.212.033.275.053h2.244v.767l-1.101.206a1.91 1.91 0 0 1 .345 1.124c0 .672-.232 1.202-.697 1.588-.461.383-1.098.575-1.91.575a6.607 6.607 0 0 1-.569-.047c-.14.086-.248.181-.322.287a.572.572 0 0 0-.111.345.33.33 0 0 0 .111.258c.074.063.184.11.328.141.149.031.328.047.539.047h1.12c.71 0 1.253.15 1.628.451.375.3.563.742.563 1.324 0 .739-.305 1.307-.914 1.705-.609.403-1.486.604-2.631.604zm.053-.967c.48 0 .885-.047 1.213-.14.328-.094.576-.23.744-.405a.85.85 0 0 0 .252-.615c0-.211-.053-.373-.158-.486-.106-.114-.264-.192-.475-.235a4.02 4.02 0 0 0-.785-.064h-1.02c-.254 0-.478.039-.674.117-.195.082-.347.2-.457.352a.947.947 0 0 0-.158.55.76.76 0 0 0 .393.686c.265.16.64.24 1.125.24zm.269-5.05c.403 0 .701-.11.897-.329.195-.222.293-.535.293-.937 0-.438-.102-.766-.305-.985-.199-.218-.496-.328-.891-.328-.386 0-.681.111-.884.334-.2.223-.299.553-.299.99 0 .395.099.704.299.926.203.219.5.328.89.328zm7.067-3.475c.578 0 1.074.119 1.488.357.414.238.732.576.955 1.014.223.437.334.96.334 1.57v.738h-4.33c.016.63.184 1.114.504 1.453.324.34.777.51 1.359.51.414 0 .785-.039 1.114-.117a6.194 6.194 0 0 0 1.025-.357v1.119a4.473 4.473 0 0 1-.99.334c-.336.07-.739.105-1.207.105-.637 0-1.198-.123-1.682-.369a2.706 2.706 0 0 1-1.131-1.113c-.269-.492-.404-1.104-.404-1.834 0-.727.123-1.344.369-1.852a2.662 2.662 0 0 1 1.037-1.16c.445-.266.965-.398 1.559-.398zm0 1.037c-.434 0-.785.14-1.055.422-.266.28-.422.693-.469 1.236h2.953a2.263 2.263 0 0 0-.164-.861 1.244 1.244 0 0 0-.468-.586c-.207-.141-.473-.211-.797-.211zM369.457 45h-1.728l-4.196-6.838h-.053c.016.23.03.475.041.733.016.257.028.523.036.796.011.274.021.551.029.832V45h-1.277v-8.566h1.716l4.19 6.79h.041l-.029-.685-.036-.797a83.117 83.117 0 0 1-.017-.802v-4.506h1.283V45zm7.852-3.258c0 .54-.071 1.018-.211 1.436a2.875 2.875 0 0 1-.616 1.06 2.703 2.703 0 0 1-.972.657 3.495 3.495 0 0 1-1.283.222c-.446 0-.854-.074-1.225-.222a2.8 2.8 0 0 1-.967-.657 3.025 3.025 0 0 1-.627-1.06 4.289 4.289 0 0 1-.222-1.436c0-.715.123-1.32.369-1.816.25-.5.605-.881 1.066-1.143.461-.261 1.01-.392 1.647-.392.597 0 1.125.13 1.582.392.457.262.814.643 1.072 1.143.258.5.387 1.105.387 1.816zm-4.705 0c0 .473.056.877.169 1.213.118.336.297.594.539.773.243.176.555.264.938.264.383 0 .695-.088.938-.264.242-.18.419-.437.533-.773.113-.336.17-.74.17-1.213 0-.472-.057-.873-.17-1.201-.114-.332-.291-.584-.533-.756-.243-.176-.557-.263-.944-.263-.57 0-.986.19-1.248.574-.262.383-.392.931-.392 1.646zm11.589 3.252-.82-3.017-.141-.54a78.283 78.283 0 0 1-.316-1.277l-.1-.445h-.046c-.02.105-.051.254-.094.445a40.725 40.725 0 0 1-.311 1.289c-.051.215-.097.399-.14.551l-.862 2.994h-1.511l-1.817-6.486h1.395l.843 3.222c.055.22.108.456.159.71a17.703 17.703 0 0 1 .228 1.294h.047a24.562 24.562 0 0 1 .158-.908c.035-.18.071-.348.106-.504.035-.16.068-.289.099-.387l.996-3.427h1.506l.955 3.427a12.566 12.566 0 0 1 .276 1.236c.043.224.07.41.082.557h.047c.015-.132.043-.312.082-.538.043-.231.091-.475.146-.733.055-.262.111-.504.17-.727l.861-3.222h1.371l-1.828 6.486h-1.541zM396.401 34.728a.75.75 0 0 0-.494 1.328l4.59 3.932-4.59 3.93a.753.753 0 0 0 .118 1.28.754.754 0 0 0 .857-.145l5.254-4.495a.751.751 0 0 0 0-1.142l-5.254-4.5a.751.751 0 0 0-.481-.188z" fill="#fff"/>
    <path d="M33 7a33 33 0 0 1 0 66V7z" fill="#F5821F"/>
    <path d="m47.576 53-6.048-10.56v-1.408h.704c1.13 0 2.08-.107 2.848-.32.79-.213 1.408-.565 1.856-1.056.448-.49.715-1.163.8-2.016h-6.208v-2.048h6.176c-.15-.79-.448-1.43-.896-1.92-.448-.512-1.056-.885-1.824-1.12-.747-.235-1.664-.352-2.752-.352h-.704v-2.048h13.248V32.2h-6.048c.49.405.896.885 1.216 1.44.32.555.523 1.205.608 1.952h4.224v2.048h-4.16c-.15 1.557-.747 2.773-1.792 3.648-1.024.853-2.39 1.397-4.096 1.632L50.84 53h-3.264z" fill="#fff"/>
</svg>
