<svg width="108" height="32" viewBox="0 0 108 32" fill="none" xmlns="http://www.w3.org/2000/svg">
    <rect width="107.062" height="31.493" rx="15.747" fill="#043B73"/>
    <path d="M16.986 12.434c1.106 0 1.912.226 2.42.68.508.452.762 1.087.762 1.904 0 .37-.059.724-.176 1.06a2.25 2.25 0 0 1-.562.885c-.262.254-.608.455-1.037.603-.426.149-.952.223-1.577.223h-.914V21h-1.406v-8.566h2.49zm-.093 1.166h-.99v3.017h.767c.441 0 .816-.05 1.125-.152.308-.106.543-.272.703-.498.16-.227.24-.526.24-.897 0-.496-.15-.865-.45-1.107-.298-.242-.763-.363-1.395-.363zM23.12 21h-1.383v-9.117h1.383V21zm4.553-6.61c.578 0 1.074.12 1.488.358.414.238.733.576.955 1.014.223.437.334.96.334 1.57v.738h-4.33c.016.63.184 1.114.504 1.453.324.34.777.51 1.36.51.413 0 .785-.039 1.113-.117a6.181 6.181 0 0 0 1.025-.357v1.119a4.478 4.478 0 0 1-.99.334c-.336.07-.738.105-1.207.105-.637 0-1.197-.123-1.682-.369a2.7 2.7 0 0 1-1.13-1.113c-.27-.492-.405-1.104-.405-1.834 0-.727.123-1.344.37-1.852a2.661 2.661 0 0 1 1.036-1.16c.446-.266.965-.398 1.559-.398zm0 1.038c-.434 0-.785.14-1.055.422-.265.28-.422.693-.469 1.236h2.954a2.273 2.273 0 0 0-.165-.861 1.25 1.25 0 0 0-.468-.586c-.207-.141-.473-.211-.797-.211zm6.51 5.69c-.774 0-1.395-.282-1.864-.845-.465-.566-.697-1.4-.697-2.502 0-1.113.236-1.955.709-2.525.477-.57 1.103-.855 1.88-.855.329 0 .616.044.862.134.246.086.457.204.633.352.18.148.332.314.457.498h.064c-.019-.121-.043-.295-.07-.521a6.356 6.356 0 0 1-.035-.64v-2.331h1.383V21h-1.078l-.246-.885h-.059a2.07 2.07 0 0 1-1.078.867c-.242.09-.53.135-.861.135zm.386-1.12c.59 0 1.006-.17 1.248-.51.242-.34.367-.85.375-1.529v-.182c0-.726-.117-1.283-.351-1.67-.235-.39-.662-.585-1.283-.585-.496 0-.875.2-1.137.603-.258.398-.387.955-.387 1.67s.13 1.262.387 1.64c.262.376.644.563 1.148.563zm6.762 3.885c-.879 0-1.553-.158-2.022-.475-.468-.316-.703-.76-.703-1.33 0-.398.125-.736.375-1.014.25-.273.608-.462 1.073-.568a1.195 1.195 0 0 1-.457-.363.911.911 0 0 1-.188-.557c0-.242.069-.449.205-.62.137-.173.342-.339.615-.499a1.787 1.787 0 0 1-.82-.703c-.203-.328-.304-.713-.304-1.154 0-.47.1-.868.298-1.196.2-.332.49-.584.873-.756.383-.175.846-.263 1.389-.263.117 0 .244.008.38.023.142.012.27.027.388.047.12.016.213.033.275.053h2.244v.767l-1.101.205a1.936 1.936 0 0 1 .346 1.125c0 .672-.233 1.202-.698 1.588-.46.383-1.098.575-1.91.575a6.567 6.567 0 0 1-.569-.047c-.14.086-.248.181-.322.287a.571.571 0 0 0-.111.346.33.33 0 0 0 .111.257c.074.063.184.11.328.141.149.031.328.047.54.047h1.118c.712 0 1.255.15 1.63.451.375.3.562.742.562 1.324 0 .738-.305 1.307-.914 1.705-.61.403-1.486.604-2.631.604zm.053-.967c.48 0 .885-.047 1.213-.14.328-.094.576-.23.744-.405a.85.85 0 0 0 .252-.615c0-.211-.053-.373-.159-.486-.105-.114-.263-.192-.474-.235a4.017 4.017 0 0 0-.785-.064h-1.02c-.254 0-.478.039-.674.117-.195.082-.347.2-.457.351a.943.943 0 0 0-.158.551c0 .297.131.526.393.686.265.16.64.24 1.125.24zm.27-5.05c.402 0 .7-.11.896-.329.195-.223.293-.535.293-.937 0-.438-.102-.766-.305-.985-.2-.219-.496-.328-.89-.328-.387 0-.682.111-.885.334-.2.223-.3.553-.3.99 0 .395.1.703.3.926.203.219.5.328.89.328zm7.066-3.475c.578 0 1.074.119 1.488.357.414.238.732.576.955 1.014.223.437.334.96.334 1.57v.738h-4.33c.016.63.184 1.114.504 1.453.324.34.777.51 1.36.51.413 0 .784-.039 1.113-.117a6.179 6.179 0 0 0 1.025-.357v1.119a4.48 4.48 0 0 1-.99.334c-.336.07-.739.105-1.207.105-.637 0-1.198-.123-1.682-.369a2.7 2.7 0 0 1-1.13-1.113c-.27-.492-.405-1.104-.405-1.834 0-.727.123-1.344.369-1.852a2.661 2.661 0 0 1 1.037-1.16c.445-.266.965-.398 1.559-.398zm0 1.037c-.434 0-.785.14-1.055.422-.266.28-.422.693-.469 1.236h2.953a2.27 2.27 0 0 0-.164-.861 1.249 1.249 0 0 0-.468-.586c-.208-.141-.473-.211-.797-.211zM63.457 21h-1.729l-4.195-6.838h-.053c.016.23.03.475.042.732.015.258.027.524.035.797.011.274.021.551.029.832V21h-1.277v-8.566h1.716l4.19 6.79h.04c-.007-.199-.017-.427-.028-.685l-.036-.797a61.915 61.915 0 0 1-.017-.803v-4.505h1.283V21zm7.852-3.258c0 .54-.07 1.018-.211 1.436-.141.418-.346.771-.616 1.06a2.71 2.71 0 0 1-.972.657 3.494 3.494 0 0 1-1.283.222c-.446 0-.854-.074-1.225-.223a2.793 2.793 0 0 1-.967-.656 3.007 3.007 0 0 1-.627-1.06 4.278 4.278 0 0 1-.222-1.436c0-.715.123-1.32.369-1.816.25-.5.605-.881 1.066-1.143.461-.261 1.01-.392 1.647-.392.597 0 1.125.13 1.582.392.457.262.814.643 1.072 1.143.258.5.387 1.105.387 1.816zm-4.706 0c0 .473.057.877.17 1.213.118.336.297.594.54.774.242.175.554.263.937.263s.695-.088.938-.264c.242-.18.42-.437.533-.773.113-.336.17-.74.17-1.213 0-.473-.057-.873-.17-1.201-.114-.332-.291-.584-.534-.756-.242-.176-.556-.264-.943-.264-.57 0-.986.192-1.248.575-.262.383-.392.931-.392 1.646zm11.59 3.252-.82-3.017a50.284 50.284 0 0 1-.305-1.19c-.054-.227-.105-.435-.152-.627l-.1-.445h-.047c-.019.105-.05.254-.093.445a40.763 40.763 0 0 1-.31 1.29c-.052.214-.098.398-.141.55l-.862 2.994h-1.511l-1.817-6.486h1.395l.843 3.223c.055.218.108.454.159.708a16.789 16.789 0 0 1 .228 1.295h.047a19.125 19.125 0 0 1 .158-.908c.035-.18.07-.348.106-.504.035-.16.068-.289.1-.386l.995-3.428h1.506l.955 3.428a12.764 12.764 0 0 1 .275 1.236c.044.223.071.408.083.556h.047c.015-.132.043-.312.082-.539.043-.23.092-.474.146-.732.055-.262.112-.504.17-.727l.861-3.222h1.371l-1.828 6.486h-1.54zM90.401 10.728a.75.75 0 0 0-.494 1.328l4.59 3.932-4.59 3.93a.75.75 0 1 0 .975 1.135l5.254-4.495a.75.75 0 0 0 0-1.142l-5.254-4.5a.75.75 0 0 0-.48-.188z" fill="#fff"/>
</svg>
