<svg width="20" height="20" viewBox="0 0 20 20" fill="none" xmlns="http://www.w3.org/2000/svg">
<path d="M4.75008 8.25019H15.2503C15.3161 8.25019 15.3661 8.2321 15.424 8.17409C15.4825 8.11561 15.5005 8.06548 15.5005 8.00023C15.5005 7.93512 15.4826 7.88501 15.4241 7.82631C15.424 7.8262 15.4239 7.8261 15.4238 7.82599L10.1741 2.57629C10.1741 2.57626 10.174 2.57622 10.174 2.57619C10.1158 2.51803 10.0658 2.5 10.0002 2.5C9.93474 2.5 9.88467 2.518 9.82627 2.57625C9.82621 2.57631 9.82615 2.57637 9.82609 2.57643L4.57619 7.82633C4.51807 7.88445 4.5 7.93445 4.5 8.00023C4.5 8.06587 4.51801 8.11578 4.57599 8.1738L4.75008 8.25019ZM4.75008 8.25019C4.68455 8.25019 4.63455 8.23224 4.57614 8.17395L4.75008 8.25019Z" fill="#BEC1D1" stroke="#BEC1D1"/>
<mask id="path-2-inside-1" fill="white">
<path d="M15.2503 11.7505H4.75008C4.54682 11.7505 4.3711 11.8247 4.22264 11.973C4.07417 12.1215 4 12.2972 4 12.5003C4 12.7035 4.07417 12.8793 4.22264 13.0277L9.47278 18.2778C9.62141 18.4262 9.79713 18.5006 10.0002 18.5006C10.2033 18.5006 10.3792 18.4262 10.5275 18.2778L15.7777 13.0277C15.926 12.8793 16.0005 12.7035 16.0005 12.5003C16.0005 12.2972 15.926 12.1215 15.7777 11.973C15.6293 11.8245 15.4535 11.7505 15.2503 11.7505Z"/>
</mask>
<path d="M15.2503 11.7505H4.75008C4.54682 11.7505 4.3711 11.8247 4.22264 11.973C4.07417 12.1215 4 12.2972 4 12.5003C4 12.7035 4.07417 12.8793 4.22264 13.0277L9.47278 18.2778C9.62141 18.4262 9.79713 18.5006 10.0002 18.5006C10.2033 18.5006 10.3792 18.4262 10.5275 18.2778L15.7777 13.0277C15.926 12.8793 16.0005 12.7035 16.0005 12.5003C16.0005 12.2972 15.926 12.1215 15.7777 11.973C15.6293 11.8245 15.4535 11.7505 15.2503 11.7505Z" fill="#BEC1D1"/>
<path d="M4.22264 11.973L3.51592 11.2655L3.51553 11.2659L4.22264 11.973ZM4.22264 13.0277L4.92974 12.3206L4.92955 12.3204L4.22264 13.0277ZM9.47278 18.2778L8.76568 18.9849L8.76606 18.9853L9.47278 18.2778ZM10.5275 18.2778L9.82045 17.5706L9.82015 17.5709L10.5275 18.2778ZM15.7777 13.0277L16.4848 13.7348L16.4849 13.7347L15.7777 13.0277ZM15.7777 11.973L16.4852 11.2662L16.485 11.266L15.7777 11.973ZM15.2503 10.7505H4.75008V12.7505H15.2503V10.7505ZM4.75008 10.7505C4.27194 10.7505 3.8448 10.937 3.51592 11.2655L4.92935 12.6805C4.92159 12.6882 4.89691 12.7096 4.8546 12.7275C4.81163 12.7456 4.77324 12.7505 4.75008 12.7505V10.7505ZM3.51553 11.2659C3.1865 11.5949 3 12.0223 3 12.5003H5C5 12.5235 4.99509 12.562 4.97691 12.6051C4.959 12.6475 4.93756 12.6723 4.92974 12.6801L3.51553 11.2659ZM3 12.5003C3 12.9782 3.18635 13.4058 3.51573 13.735L4.92955 12.3204C4.93757 12.3284 4.95904 12.3533 4.97694 12.3957C4.9951 12.4387 5 12.4771 5 12.5003H3ZM3.51554 13.7348L8.76568 18.9849L10.1799 17.5706L4.92974 12.3206L3.51554 13.7348ZM8.76606 18.9853C9.09459 19.3134 9.52154 19.5006 10.0002 19.5006V17.5006C10.0238 17.5006 10.0624 17.5055 10.1053 17.5237C10.1476 17.5415 10.172 17.5628 10.1795 17.5703L8.76606 18.9853ZM10.0002 19.5006C10.4785 19.5006 10.9061 19.3137 11.235 18.9846L9.82015 17.5709C9.8281 17.563 9.85287 17.5416 9.8952 17.5237C9.93818 17.5055 9.97671 17.5006 10.0002 17.5006V19.5006ZM11.2347 18.9849L16.4848 13.7348L15.0706 12.3205L9.82045 17.5706L11.2347 18.9849ZM16.4849 13.7347C16.8132 13.4063 17.0005 12.979 17.0005 12.5003H15.0005C15.0005 12.4766 15.0055 12.4381 15.0236 12.3952C15.0414 12.353 15.0627 12.3284 15.0705 12.3206L16.4849 13.7347ZM17.0005 12.5003C17.0005 12.0214 16.8131 11.5945 16.4852 11.2662L15.0702 12.6797C15.0627 12.6722 15.0414 12.6477 15.0236 12.6055C15.0055 12.5626 15.0005 12.524 15.0005 12.5003H17.0005ZM16.485 11.266C16.1555 10.9363 15.7276 10.7505 15.2503 10.7505V12.7505C15.2274 12.7505 15.1891 12.7456 15.146 12.7275C15.1036 12.7096 15.0786 12.6881 15.0704 12.6799L16.485 11.266Z" fill="#BEC1D1" mask="url(#path-2-inside-1)"/>
</svg>
