<svg width="446" height="261" viewBox="0 0 446 261" fill="none" xmlns="http://www.w3.org/2000/svg">
<path d="M396.455 86C396.002 89.1707 391.171 94.4553 388 94.4553C391.171 95.5122 395.398 101.854 395.398 101.854C395.398 101.854 400.154 94.4553 403.325 94.4553C400.683 93.3984 395.927 89.6992 396.455 86Z" fill="#FFD1AA"/>
<path d="M430.805 165.797C432.919 165.268 438.203 159.455 438.203 158.398C438.203 159.455 443.488 165.268 445.602 165.797C443.488 165.797 438.732 170.553 438.203 173.724C437.675 172.138 432.919 166.325 430.805 165.797Z" fill="#FFD1AA"/>
<path d="M395.927 187.992C395.927 189.683 391.699 195.39 388.528 195.919C390.642 196.447 395.927 199.618 395.927 202.789C397.188 199.847 400.366 194.862 403.325 194.862C399.098 194.333 396.455 190.634 395.927 187.992Z" fill="#FFD1AA"/>
<path d="M396.455 86C396.002 89.1707 391.171 94.4553 388 94.4553C391.171 95.5122 395.398 101.854 395.398 101.854C395.398 101.854 400.154 94.4553 403.325 94.4553C400.683 93.3984 395.927 89.6992 396.455 86Z" stroke="#F58220" stroke-width="2"/>
<path d="M430.805 165.797C432.919 165.268 438.203 159.455 438.203 158.398C438.203 159.455 443.488 165.268 445.602 165.797C443.488 165.797 438.732 170.553 438.203 173.724C437.675 172.138 432.919 166.325 430.805 165.797Z" stroke="#F58220" stroke-width="2"/>
<path d="M395.927 187.992C395.927 189.683 391.699 195.39 388.528 195.919C390.642 196.447 395.927 199.618 395.927 202.789C397.188 199.847 400.366 194.862 403.325 194.862C399.098 194.333 396.455 190.634 395.927 187.992Z" stroke="#F58220" stroke-width="2"/>
<path d="M305.008 48.8954H212C214.642 30.9278 227.854 39.9116 234.195 36.2122C260.089 6.61889 276.472 36.2118 281.228 34.6268C301.943 35.0496 305.713 44.3153 305.008 48.8954Z" fill="#FFE6D0" stroke="#F58220"/>
<path d="M142.912 61.0629C121.351 53.4541 116.666 66.3474 117.018 73.7458H186.774C188.042 64.0224 180.961 56.3069 177.262 53.6646C154.538 39.396 147.14 62.5548 142.912 61.0629Z" fill="#FFE6D0" stroke="#F58220"/>
<g opacity="0.6">
<path d="M89.3095 104.105H233.578V68.1704H323.944L358.822 104.105V233.049H293.293V259.471H89.3095H35.9355V205.04H51.2608V185.488C53.5507 175.975 64.3664 158.853 89.3095 166.463V126.829V104.105Z" fill="white"/>
<path d="M233.578 104.105H89.3095V126.829M233.578 104.105V68.1704H323.944M233.578 104.105V126.829M89.3095 259.471H293.293M89.3095 259.471V205.04M89.3095 259.471H35.9355V205.04H51.2608M323.944 259.471H293.293M293.293 259.471V233.049H233.578M233.578 233.049H358.822M233.578 233.049V126.829M358.822 233.049C358.822 233.049 358.822 154.461 358.822 104.105M358.822 233.049V104.105M358.822 104.105C345.201 104.105 323.944 104.105 323.944 104.105V68.1704M358.822 104.105C345.201 90.0719 323.944 68.1704 323.944 68.1704M233.578 126.829H89.3095M89.3095 126.829C89.3095 126.829 89.3095 150.985 89.3095 166.463M89.3095 205.04V185.488M89.3095 205.04H66.586M89.3095 185.488C86.6673 173.862 69.2282 175.447 66.586 185.488V205.04M89.3095 185.488C89.3095 185.488 89.3095 173.893 89.3095 166.463M66.586 205.04H51.2608M51.2608 205.04V185.488C53.5507 175.975 64.3664 158.853 89.3095 166.463M332.927 259.471H342.44M370.976 126.829H412.196M370.976 150.081H439.147M370.976 172.276H412.196M350.895 259.471H361.464" stroke="#F58220" stroke-width="2"/>
</g>
<path d="M323.943 104.105H358.821L323.943 68.1704V104.105Z" fill="#FDC697" stroke="#F58220" stroke-width="2"/>
<path d="M88 203.5H68V185.5C72 176 84 177.5 88 184V203.5Z" fill="#FDE6D2"/>
<path d="M112.033 233.049V153.252H142.155L154.31 163.821H206.627V183.374H226.18L206.627 233.049H112.033Z" fill="#FFE1C7"/>
<path d="M112.033 233.049V153.252H142.155L154.31 163.821H206.627V183.374M112.033 233.049L129.472 183.374H206.627M112.033 233.049H206.627L226.18 183.374H206.627" stroke="#F58220" stroke-width="3"/>
<path d="M258.945 104.634H304.921" stroke="#F58220" stroke-width="3"/>
<path opacity="0.9" d="M258.945 125.772H329.758" stroke="#F58220" stroke-width="3"/>
<path d="M258.945 150.082H298.945" stroke="#F58220" stroke-opacity="0.6" stroke-width="3"/>
<path d="M258.945 171.22H318.945" stroke="#F58220" stroke-opacity="0.6" stroke-width="3"/>
<path d="M258.945 194.471H329.758" stroke="#F58220" stroke-width="3"/>
<path d="M36.9941 219.837H49.6771" stroke="#F58220" stroke-width="3"/>
<path d="M36.9941 232.521H49.6771" stroke="#F58220" stroke-width="3"/>
<path d="M36.9941 246.26H48.6202" stroke="#F58220" stroke-width="3"/>
<circle cx="105.163" cy="115.732" r="5.36992" fill="#FDC697" stroke="#F58220" stroke-width="3"/>
<circle cx="124.186" cy="115.732" r="5.36992" stroke="#F58220" stroke-width="3"/>
<circle cx="143.212" cy="115.732" r="5.36992" fill="#FDC697" stroke="#F58220" stroke-width="3"/>
</svg>
