<svg width="26" height="26" viewBox="0 0 26 26" fill="none" xmlns="http://www.w3.org/2000/svg">
    <circle cx="13" cy="13" r="13" fill="#F5821F" fill-opacity=".1"/>
    <mask id="igv74po7ea" fill="#fff">
        <path d="M18.59 21H8.41a.404.404 0 0 1-.41-.398V8.844c0-.46.205-.898.563-1.2L12.41 4.39a1.674 1.674 0 0 1 2.146-.004l3.877 3.256c.36.302.567.742.567 1.205v11.754c0 .22-.183.398-.41.398z"/>
        <path d="M14.232 6.112a.778.778 0 0 1-.788.766.778.778 0 0 1-.789-.766c0-.423.353-.766.789-.766.435 0 .788.343.788.766z"/>
    </mask>
    <path d="M12.077 9.807a.245.245 0 0 0-.346 0l-1.557 1.557a.245.245 0 1 0 .346.346l1.384-1.384 1.384 1.384a.245.245 0 0 0 .346-.346l-1.557-1.557zm-.418 8.274a.245.245 0 0 0 .49 0h-.49zm3.076.137c.095.095.25.095.346 0l1.556-1.557a.245.245 0 1 0-.346-.346l-1.383 1.384-1.384-1.384a.245.245 0 1 0-.346.346l1.557 1.557zm.417-8.274a.245.245 0 1 0-.49 0h.49zm-3.492.036v8.1h.489v-8.1h-.49zm3.492 8.065V9.944h-.49v8.1h.49zm3.28-10.402-.314.375.315-.375zm-3.876-3.256.315-.374-.315.374zm-2.146.004.316.374-.316-.374zM8.563 7.643l.316.374-.316-.374zM8.41 21.49h10.18v-.978H8.41v.978zm11.08-.887V8.848h-.98v11.754h.98zm-.743-13.334L14.87 4.013l-.629.75 3.877 3.255.63-.75zm-6.653-3.25L8.247 7.268l.632.748 3.847-3.252-.632-.748zM7.51 8.843v11.758h.978V8.844h-.978zm.736-1.575a2.063 2.063 0 0 0-.736 1.575h.978c0-.314.14-.616.39-.827l-.632-.748zm6.623-3.256c-.799-.671-1.98-.67-2.776.004l.632.748a1.185 1.185 0 0 1 1.515-.003l.63-.75zm4.62 4.835c0-.61-.274-1.186-.743-1.58l-.629.75c.252.21.393.514.393.83h.978zm-.9 12.641a.893.893 0 0 0 .9-.887h-.98c0-.064.05-.091.08-.091v.978zm-10.18-.978c.03 0 .08.027.08.09h-.98c0 .504.416.888.9.888v-.978zm5.333-14.4c0 .14-.12.278-.3.278v.978c.693 0 1.279-.549 1.279-1.255h-.98zm-.3.278a.289.289 0 0 1-.298-.277h-.979c0 .706.585 1.255 1.278 1.255V6.39zm-.298-.277c0-.14.12-.277.299-.277v-.979c-.693 0-1.278.55-1.278 1.256h.979zm.299-.277c.178 0 .299.137.299.277h.979c0-.707-.586-1.256-1.278-1.256v.979z" fill="#F5821F" mask="url(#igv74po7ea)"/>
</svg>
