<svg width="291" height="265" viewBox="0 0 291 265" fill="none" xmlns="http://www.w3.org/2000/svg">
<path fill-rule="evenodd" clip-rule="evenodd" d="M91.6016 72.6104C91.6016 62.6692 99.6604 54.6104 109.602 54.6104H179.197L218.305 93.7184V213.458C218.305 223.399 210.246 231.458 200.305 231.458H109.602C99.6604 231.458 91.6016 223.399 91.6016 213.458V110.255H87.6016V213.458C87.6016 225.608 97.4513 235.458 109.602 235.458H200.305C212.455 235.458 222.305 225.608 222.305 213.458V92.8899V92.0615L221.719 91.4757L181.439 51.1961L180.854 50.6104H180.025H109.602C97.4513 50.6104 87.6016 60.4601 87.6016 72.6104V99.3892H91.6016V72.6104Z" fill="#043B73"/>
<path d="M180.143 52.5615V72.6994C180.143 83.7451 189.097 92.6994 200.143 92.6994H220.28" stroke="#043B73" stroke-width="4"/>
<circle cx="115.084" cy="115.084" r="4.57626" stroke="#043B73" stroke-width="4"/>
<line x1="131.879" y1="108.152" x2="185.422" y2="108.152" stroke="#043B73" stroke-width="4" stroke-linecap="round"/>
<line x1="131.879" y1="118.016" x2="147.608" y2="118.016" stroke="#043B73" stroke-width="4" stroke-linecap="round"/>
<circle cx="115.084" cy="147.966" r="4.57626" stroke="#043B73" stroke-width="4"/>
<line x1="131.879" y1="141.034" x2="185.422" y2="141.034" stroke="#043B73" stroke-width="4" stroke-linecap="round"/>
<line x1="131.879" y1="150.898" x2="147.608" y2="150.898" stroke="#043B73" stroke-width="4" stroke-linecap="round"/>
<circle cx="115.084" cy="177.559" r="4.57626" stroke="#043B73" stroke-width="4"/>
<line x1="131.879" y1="170.627" x2="185.422" y2="170.627" stroke="#043B73" stroke-width="4" stroke-linecap="round"/>
<line x1="131.879" y1="180.491" x2="147.608" y2="180.491" stroke="#043B73" stroke-width="4" stroke-linecap="round"/>
<circle cx="217.017" cy="185.78" r="30.8813" fill="#043B73" stroke="#043B73" stroke-width="4"/>
<path d="M218.477 193.385H215.612L214.22 167.695H219.869L218.477 193.385ZM213.729 200.589C213.729 198.39 214.82 197.29 217.003 197.29C218.059 197.29 218.868 197.573 219.432 198.139C220.014 198.705 220.305 199.522 220.305 200.589C220.305 201.624 220.014 202.433 219.432 203.015C218.85 203.581 218.04 203.864 217.003 203.864C216.058 203.864 215.275 203.614 214.657 203.112C214.038 202.595 213.729 201.754 213.729 200.589Z" fill="#C6C6C6"/>
<circle cx="65.7628" cy="251.542" r="6.57626" fill="#043B73" fill-opacity="0.5"/>
<circle cx="77.2716" cy="31.2369" r="8.22033" fill="#043B73" fill-opacity="0.5"/>
<circle cx="103.577" cy="23.0172" r="4.9322" fill="#043B73" fill-opacity="0.5"/>
<circle cx="191.533" cy="9.04236" r="9.04236" fill="#043B73" fill-opacity="0.5"/>
<circle cx="237.567" cy="78.0931" r="9.04236" fill="#043B73" fill-opacity="0.5"/>
<circle cx="245.788" cy="56.7205" r="4.11016" fill="#043B73" fill-opacity="0.5"/>
<circle cx="251.541" cy="126.593" r="3.28813" fill="#043B73" fill-opacity="0.5"/>
<circle cx="287.712" cy="157.83" r="3.28813" fill="#043B73" fill-opacity="0.5"/>
<circle cx="264.694" cy="254.83" r="3.28813" fill="#043B73" fill-opacity="0.5"/>
<circle cx="175.915" cy="261.406" r="3.28813" fill="#043B73" fill-opacity="0.5"/>
<circle cx="3.28813" cy="169.339" r="3.28813" fill="#043B73" fill-opacity="0.5"/>
<circle cx="36.169" cy="80.5596" r="3.28813" fill="#043B73" fill-opacity="0.5"/>
<circle cx="23.0176" cy="215.373" r="3.28813" fill="#043B73" fill-opacity="0.5"/>
<circle cx="209.618" cy="27.1268" r="4.11016" fill="#043B73" fill-opacity="0.5"/>
</svg>
