<svg width="51" height="45" viewBox="0 0 51 45" fill="none" xmlns="http://www.w3.org/2000/svg">
    <path d="M1 8.022v31.597A3.53 3.53 0 0 0 2.017 42.1a3.453 3.453 0 0 0 2.455 1.029H46.14c.92 0 1.804-.37 2.455-1.029a3.53 3.53 0 0 0 1.017-2.482V11.532c0-.93-.366-1.824-1.017-2.482a3.453 3.453 0 0 0-2.455-1.028H9.68M1 8.022V4.51a3.53 3.53 0 0 1 1.017-2.483A3.453 3.453 0 0 1 4.472 1H32.25c.92 0 1.804.37 2.455 1.028a3.531 3.531 0 0 1 1.017 2.483v3.51H9.681M1 8.022h8.68" stroke="#043B72" stroke-width="2"/>
    <path d="M27.227 19.52a4.043 4.043 0 0 0-3.658-2.314h-5.208V14.89H32.25v2.315h-3.774a6.346 6.346 0 0 1 1.216 2.314h2.558v2.315h-2.338a6.37 6.37 0 0 1-6.343 5.787h-.845l7.79 8.102h-3.206l-7.79-8.102v-2.315h4.051a4.043 4.043 0 0 0 4.005-3.472H18.36V19.52h8.866z" fill="#043B72"/>
</svg>
