<svg width="26" height="26" viewBox="0 0 26 26" fill="none" xmlns="http://www.w3.org/2000/svg">
<circle cx="13" cy="13" r="13" fill="#F08200" fill-opacity="0.1"/>
<path d="M6 9.02222V18.1222C6 18.3904 6.10536 18.6476 6.29289 18.8372C6.48043 19.0268 6.73478 19.1333 7 19.1333H19C19.2652 19.1333 19.5196 19.0268 19.7071 18.8372C19.8946 18.6476 20 18.3904 20 18.1222V10.0333C20 9.76517 19.8946 9.50799 19.7071 9.31837C19.5196 9.12875 19.2652 9.02222 19 9.02222H8.5M6 9.02222V8.01111C6 7.74295 6.10536 7.48577 6.29289 7.29615C6.48043 7.10653 6.73478 7 7 7H15C15.2652 7 15.5196 7.10653 15.7071 7.29615C15.8946 7.48577 16 7.74295 16 8.01111V9.02222H8.5M6 9.02222H8.5" stroke="#F58220"/>
<path d="M13.5533 12.3333C13.3667 11.94 12.9667 11.6667 12.5 11.6667H11V11H15V11.6667H13.9133C14.0733 11.86 14.1933 12.0867 14.2633 12.3333H15V13H14.3267C14.2433 13.9333 13.4567 14.6667 12.5 14.6667H12.2567L14.5 17H13.5767L11.3333 14.6667V14H12.5C13.0867 14 13.5733 13.5667 13.6533 13H11V12.3333H13.5533Z" fill="#FF7518"/>
</svg>
