<svg width="27" height="25" viewBox="0 0 27 25" fill="none" xmlns="http://www.w3.org/2000/svg">
    <path d="M9.4 16.8v-.4a.4.4 0 0 0-.26.704l.26-.304zm-.4-6h8.8V10H9v.8zm.4 6.4h2.4v-.8H9.4v.8zm2.4-7.2H9.4v.8h2.4V10zm-2.66 7.104 5.6 4.8.52-.608-5.6-4.8-.52.608zM15.4 13.6a3.6 3.6 0 0 0-3.6-3.6v.8a2.8 2.8 0 0 1 2.8 2.8h.8zm-3.6 3.6a3.6 3.6 0 0 0 3.6-3.6h-.8a2.8 2.8 0 0 1-2.8 2.8v.8zM9 14h8.8v-.8H9v.8z" fill="#043B73"/>
    <path d="M1 22V6.5h25V22c0 1.6-1 2.333-1.5 2.5H3c-1.6-.4-2-1.833-2-2.5z" stroke="#043B73"/>
    <mask id="r0wskhtfaa" fill="#fff">
        <path d="M7 7c0-1.857.685-3.637 1.904-4.95C10.123.737 11.776 0 13.5 0c1.724 0 3.377.737 4.596 2.05C19.316 3.363 20 5.143 20 7H7z"/>
    </mask>
    <path d="M7 7c0-1.857.685-3.637 1.904-4.95C10.123.737 11.776 0 13.5 0c1.724 0 3.377.737 4.596 2.05C19.316 3.363 20 5.143 20 7H7z" stroke="#043B73" stroke-width="2" mask="url(#r0wskhtfaa)"/>
</svg>
