<svg width="22" height="22" viewBox="0 0 22 22" fill="none" xmlns="http://www.w3.org/2000/svg">
<circle cx="11" cy="11" r="10.5" stroke="#F08200"/>
<g clip-path="url(#clip0_244_57)">
<path d="M15.4523 6.79381C15.0956 6.45202 14.7021 6.27884 14.2821 6.27884C13.6254 6.27884 13.1463 6.70312 13.0151 6.8331C12.8307 7.01577 6.53757 13.3111 6.53757 13.3111C6.49633 13.3526 6.46655 13.404 6.45115 13.4604C6.30923 13.9849 5.59832 16.3119 5.59126 16.3353C5.55477 16.4545 5.58734 16.5843 5.67524 16.6722C5.73725 16.734 5.82124 16.7688 5.90881 16.7688C5.9427 16.7688 5.9769 16.7637 6.01029 16.7527C6.03435 16.7449 8.43635 15.9685 8.83165 15.8505C8.88381 15.8348 8.93134 15.8066 8.97013 15.7683C9.21993 15.5215 15.0894 9.71732 15.479 9.31497C15.882 8.89969 16.0822 8.46722 16.0745 8.02984C16.0664 7.59802 15.8571 7.18225 15.4523 6.79381V6.79381ZM12.9109 7.88006C13.0777 7.92049 13.471 8.05257 13.8727 8.45788C14.2787 8.86743 14.3885 9.33559 14.409 9.44215C13.1217 10.7227 10.1586 13.6544 8.99049 14.8099C8.88262 14.5586 8.70829 14.256 8.42788 13.9734C8.08545 13.6284 7.73694 13.4334 7.46816 13.3238C8.62414 12.1676 11.6431 9.14735 12.9109 7.88006V7.88006ZM7.02359 13.8763C7.20348 13.9241 7.57718 14.0628 7.9581 14.4468C8.25143 14.7426 8.38991 15.0688 8.45211 15.2677C7.99706 15.4141 7.00067 15.758 6.36752 15.9621C6.55511 15.3448 6.872 14.3835 7.02359 13.8763ZM15.0038 8.84712C14.9832 8.86818 14.9625 8.88919 14.9418 8.91014C14.8383 8.64364 14.6568 8.30121 14.3425 7.98431C14.0213 7.66053 13.6956 7.4695 13.4345 7.35656C13.4568 7.33446 13.474 7.3171 13.4807 7.31056C13.5182 7.27356 13.8581 6.94864 14.2819 6.94864C14.5258 6.94864 14.7653 7.05995 14.9942 7.27929C15.2654 7.5394 15.4052 7.79607 15.4098 8.04242C15.4142 8.29385 15.2777 8.56459 15.0038 8.84712V8.84712Z" fill="#F08200"/>
</g>
<defs>
<clipPath id="clip0_244_57">
<rect width="10.4762" height="10.4762" fill="white" transform="translate(5.5873 6.28571)"/>
</clipPath>
</defs>
</svg>
