<svg width="27" height="26" viewBox="0 0 27 26" fill="none" xmlns="http://www.w3.org/2000/svg">
    <path fill-rule="evenodd" clip-rule="evenodd" d="M8.378 3.666c1.684-.946 3.554-1.121 4.776-.993a.51.51 0 1 1-.106 1.014c-1.056-.11-2.706.045-4.171.868-1.435.805-2.723 2.263-3.11 4.836v4.906l-.006.04c-.113.696-.418 1.812-.965 2.955-.537 1.12-1.325 2.304-2.435 3.133a1.82 1.82 0 0 0-.225.4c-.064.165-.073.283-.058.355.01.045.033.107.159.174.148.078.429.155.928.155H21.22c.305-.054.639-.19.808-.374a.364.364 0 0 0 .11-.25c.002-.1-.034-.276-.212-.542-.212-.315-.483-.603-.81-.952a68.465 68.465 0 0 1-.15-.159c-.386-.411-.815-.89-1.197-1.505-.776-1.25-1.313-2.998-1.108-5.866a.51.51 0 0 1 1.017.072c-.193 2.697.316 4.222.958 5.257.326.526.699.944 1.074 1.345l.143.153c.322.342.657.697.919 1.086.256.38.392.759.385 1.13-.007.38-.164.689-.38.922-.402.437-1.025.632-1.435.697l-.04.006H3.165c-.582 0-1.051-.086-1.405-.274-.375-.198-.604-.504-.68-.867-.07-.337.003-.668.106-.933.105-.27.26-.517.412-.711l.044-.056.057-.042c.956-.695 1.672-1.74 2.177-2.795.494-1.03.768-2.03.872-2.638V9.316l.006-.036c.426-2.916 1.914-4.654 3.624-5.614z" fill="#666"/>
    <path fill-rule="evenodd" clip-rule="evenodd" d="M20.229 9.155a4.068 4.068 0 1 0 0-8.135 4.068 4.068 0 0 0 0 8.135zm0 1.02a5.087 5.087 0 1 0 0-10.175 5.087 5.087 0 0 0 0 10.175zM9.186 22.019a2.961 2.961 0 1 0 5.923 0h1.02a3.981 3.981 0 1 1-7.963 0h1.02z" fill="#666"/>
</svg>
