<svg width="22" height="22" viewBox="0 0 22 22" fill="none" xmlns="http://www.w3.org/2000/svg">
<path d="M15.1228 8.43334L13.1559 6.46663C12.5385 5.84555 11.6982 5.49751 10.8226 5.50001H6.21274C5.92825 5.50037 5.6477 5.56679 5.39293 5.69355L4.57116 6.10462C4.40644 6.18751 4.22347 6.22708 4.03924 6.21974L3.66666 6.20667V5.50001H0V13.5667H3.66666V12.4667H4.29007L4.5119 12.6133C5.13261 13.0254 5.85538 13.2582 6.6 13.2854V17.9667H22V8.43334H15.1228ZM2.93333 12.8333H0.733333V6.23335H2.93333V12.8333ZM4.91777 12.0031L4.50993 11.7333H3.66666V6.94036L4.01238 6.95271C4.31943 6.96364 4.62415 6.89757 4.89897 6.76061L5.72003 6.34954C5.87293 6.27309 6.04176 6.23335 6.21274 6.23335H10.8226C11.5036 6.23138 12.1573 6.50208 12.6375 6.98494L14.0859 8.43334H11.0602L10.1702 7.54353L9.65185 8.06184L12.242 10.6521C12.5297 10.9386 12.5306 11.4041 12.2441 11.692C11.9575 11.9797 11.492 11.9806 11.2043 11.6941L9.04098 9.53084L8.78424 9.75087C8.07544 10.3528 7.03935 10.3682 6.31282 9.7874L6.10031 9.61516L5.63821 10.1849L5.85306 10.3591C6.07775 10.5386 6.33001 10.6808 6.6 10.78V12.5517C5.99987 12.525 5.41818 12.3354 4.91777 12.0031V12.0031ZM10.1336 11.6599L10.6869 12.2133C11.2612 12.7791 12.1832 12.78 12.7585 12.2151C12.2203 13.0485 12.4326 14.1577 13.2406 14.7333C14.0486 15.3089 15.1663 15.1472 15.7781 14.3664C16.3899 13.5855 16.2794 12.4615 15.5271 11.8148C14.775 11.1681 13.647 11.2274 12.9669 11.9493C13.2174 11.5559 13.2621 11.0657 13.087 10.6333H17.9971C18.1548 11.5559 18.8774 12.2785 19.8 12.4362V13.9638C18.8774 14.1215 18.1548 14.8441 17.9971 15.7667H10.6029C10.4452 14.8441 9.72257 14.1215 8.8 13.9638V12.4362C9.32403 12.348 9.79794 12.0721 10.1336 11.6599V11.6599ZM13.2 13.2C13.2 12.5925 13.6925 12.1 14.3 12.1C14.9075 12.1 15.4 12.5925 15.4 13.2C15.4 13.8075 14.9075 14.3 14.3 14.3C13.6925 14.3 13.2 13.8075 13.2 13.2ZM21.2667 17.2333H7.33333V10.9336C7.91466 10.9773 8.4942 10.829 8.98333 10.512L9.60888 11.1375C9.3337 11.5113 8.89757 11.7324 8.43333 11.7333H8.06666V14.6667H8.43333C9.24329 14.6667 9.89999 15.3234 9.89999 16.1333V16.5H18.7V16.1333C18.7 15.3234 19.3567 14.6667 20.1667 14.6667H20.5333V11.7333H20.1667C19.3567 11.7333 18.7 11.0766 18.7 10.2667V9.90001H12.5268L11.7935 9.16668H21.2667V17.2333Z" fill="#F6821F"/>
</svg>
