<svg width="25" height="24" viewBox="0 0 25 24" fill="none" xmlns="http://www.w3.org/2000/svg">
<path d="M13.358 4.59264C11.2786 4.58722 9.27892 5.36378 7.78385 6.75732V4.5926C7.78385 4.26531 7.50871 4 7.16928 4C6.82986 4 6.55475 4.26531 6.55475 4.5926V8.14815C6.55468 8.40333 6.72403 8.62989 6.97512 8.71051L10.6625 9.89568C10.9849 9.99912 11.3332 9.83089 11.4405 9.51999C11.5478 9.20909 11.3733 8.87319 11.0509 8.76978L8.32838 7.89631C10.8433 5.25552 15.1022 5.08059 17.8409 7.50562C20.5796 9.93065 20.761 14.0373 18.2461 16.6781C15.7312 19.3189 11.4722 19.4939 8.73356 17.0688C7.05452 15.5821 6.26974 13.3771 6.64819 11.2095C6.70772 10.8872 6.48511 10.5795 6.15098 10.5221C5.81685 10.4647 5.4977 10.6794 5.43814 11.0015C5.43749 11.0051 5.43688 11.0086 5.4363 11.0121C5.36274 11.4365 5.32572 11.866 5.32568 12.2962C5.33069 16.5489 8.90464 19.9951 13.3149 20C17.7272 20.0115 21.3137 16.5717 21.3257 12.3171C21.3375 8.06249 17.7703 4.60413 13.358 4.59264Z" fill="#2B2D42"/>
</svg>
