<svg width="16" height="16" viewBox="0 0 16 16" fill="none" xmlns="http://www.w3.org/2000/svg">
<g clip-path="url(#clip0_1142_12208)">
<path d="M14.7697 3.69033L14.7431 3.98206L14.5858 3.73496C13.1981 1.55564 10.7901 0.1 8.0004 0.1C4.99931 0.1 2.35388 1.81276 1.04039 4.38467L0.961603 4.34443L1.04039 4.38467C0.908513 4.64289 1.01094 4.95912 1.26916 5.09101C1.52745 5.22289 1.84362 5.12048 1.97549 4.86224L2.05684 4.90378L1.97549 4.86224C3.11752 2.62607 5.41144 1.15 8.0004 1.15C10.36 1.15 12.4889 2.37876 13.7084 4.30297L13.5658 4.43788L12.6747 3.80141M14.7697 3.69033L12.6747 3.80141M14.7697 3.69033L14.8525 2.78192C14.8789 2.49316 15.1343 2.28042 15.423 2.30674C15.7118 2.33307 15.9245 2.58848 15.8982 2.87726L15.5947 6.20633C15.5583 6.60618 15.0991 6.82274 14.7667 6.58586M14.7697 3.69033L14.7667 6.58586M12.6747 3.80141C12.4387 3.63291 12.1108 3.68757 11.9423 3.92349C11.7738 4.15946 11.8285 4.48732 12.0644 4.65585L14.7667 6.58582M12.6747 3.80141L14.7667 6.58582M14.7667 6.58582C14.7667 6.58583 14.7667 6.58584 14.7667 6.58586M14.7667 6.58582L14.7667 6.58586" fill="#F6821F" stroke="#F9F9F9" stroke-width="0.2"/>
<path d="M2.43455 11.5619L2.29197 11.6968C3.51143 13.621 5.64039 14.8498 7.99997 14.8498C10.5889 14.8498 12.8828 13.3737 14.0249 11.1376C14.1567 10.8793 14.4729 10.7769 14.7312 10.9088C14.9894 11.0407 15.0918 11.3569 14.96 11.6151L15.049 11.6606L14.96 11.6151C13.6465 14.187 11.0011 15.8998 7.99997 15.8998C5.21022 15.8998 2.80227 14.4442 1.4146 12.2648L1.25726 12.0177L1.23066 12.3094L1.14785 13.2178C1.12155 13.5063 0.866498 13.7193 0.57736 13.693C0.288636 13.6667 0.0758807 13.4113 0.102209 13.1225L0.102209 13.1225L0.405678 9.79347L0.405679 9.79346C0.442404 9.39001 0.905046 9.17918 1.23362 9.41392L1.23363 9.41392L3.93597 11.344C4.1719 11.5125 4.22656 11.8403 4.05806 12.0763C3.88954 12.3122 3.56167 12.3669 3.3257 12.1984L2.43455 11.5619ZM0.00263179 13.1135L0.00263618 13.1135L0.00263179 13.1135Z" fill="#F6821F" stroke="#F9F9F9" stroke-width="0.2"/>
</g>
<defs>
<clipPath id="clip0_1142_12208">
<rect width="16" height="16" fill="white"/>
</clipPath>
</defs>
</svg>
