<svg width="26" height="26" viewBox="0 0 26 26" fill="none" xmlns="http://www.w3.org/2000/svg">
    <circle cx="13" cy="13" r="13" fill="#F5821F" fill-opacity=".1"/>
    <g clip-path="url(#9jrz6d4sba)" fill="#F5821F">
        <path d="M16.92 12.585v.045l.044.005a3.925 3.925 0 0 1 3.486 3.895 3.924 3.924 0 0 1-3.92 3.92H5.94a.39.39 0 0 1-.39-.39V5.94a.39.39 0 0 1 .39-.39h6.825a.39.39 0 0 1 .275.114l3.766 3.766a.389.389 0 0 1 .114.275v2.88zm-3.68-5.62-.086-.085v2.436h2.436l-.085-.086-2.266-2.265zM6.329 19.621v.05h7.855l-.11-.089a3.914 3.914 0 0 1-1.463-3.052 3.925 3.925 0 0 1 3.485-3.895l.045-.005V10.095h-3.376a.39.39 0 0 1-.39-.39V6.329H6.33V19.62zm7.06-3.09a3.144 3.144 0 0 0 3.141 3.14 3.144 3.144 0 0 0 3.141-3.14 3.144 3.144 0 0 0-3.14-3.141 3.144 3.144 0 0 0-3.141 3.14z" stroke="#fff" stroke-width=".1"/>
        <path d="M17.707 16.09h-.737v-.736a.44.44 0 0 0-.88 0v.737h-.736a.44.44 0 1 0 0 .879h.737v.737a.44.44 0 0 0 .879 0v-.737h.737a.44.44 0 0 0 0-.88z"/>
    </g>
    <defs>
        <clipPath id="9jrz6d4sba">
            <path fill="#fff" transform="translate(5.5 5.5)" d="M0 0h15v15H0z"/>
        </clipPath>
    </defs>
</svg>
