<svg width="9" height="16" viewBox="0 0 9 16" fill="none" xmlns="http://www.w3.org/2000/svg">
<path d="M0.523909 0.346035C0.407785 0.464923 0.342773 0.62452 0.342773 0.79071C0.342773 0.9569 0.407785 1.1165 0.523909 1.23538L7.01163 7.89085L0.523909 14.545C0.407785 14.6639 0.342773 14.8235 0.342773 14.9897C0.342773 15.1559 0.407785 15.3155 0.523909 15.4343C0.580354 15.4923 0.64784 15.5384 0.722384 15.5699C0.796929 15.6013 0.87702 15.6175 0.957932 15.6175C1.03884 15.6175 1.11894 15.6013 1.19348 15.5699C1.26803 15.5384 1.33551 15.4923 1.39196 15.4343L8.29106 8.3555C8.41224 8.23118 8.48005 8.06445 8.48005 7.89085C8.48005 7.71725 8.41224 7.55052 8.29106 7.42621L1.39196 0.347367C1.33551 0.289395 1.26803 0.243318 1.19348 0.211856C1.11894 0.180394 1.03884 0.164185 0.957932 0.164185C0.87702 0.164185 0.796929 0.180394 0.722384 0.211856C0.64784 0.243318 0.580354 0.289395 0.523909 0.347367V0.346035Z" fill="#F6821F"/>
</svg>
