<svg width="275" height="275" viewBox="0 0 275 275" fill="none" xmlns="http://www.w3.org/2000/svg">
    <circle opacity=".5" cx="137.5" cy="137.5" r="137.5" fill="#127CDD" fill-opacity=".1"/>
    <path d="M203.1 176.929V80.8a6.617 6.617 0 0 0-6.6-6.6H57.9a6.62 6.62 0 0 0-6.6 6.6v161.7a6.618 6.618 0 0 0 6.6 6.6h88.341l56.859-72.171z" fill="#043B73"/>
    <path d="M144.591 235.9H67.8a3.3 3.3 0 0 1-3.3-3.3V90.7a3.3 3.3 0 0 1 3.3-3.3h118.8a3.298 3.298 0 0 1 3.3 3.3v82.896L144.591 235.9z" fill="#fff"/>
    <path d="M100.8 107.2H84.3a6.6 6.6 0 0 0-6.6 6.6v16.5a6.6 6.6 0 0 0 6.6 6.6h16.5a6.6 6.6 0 0 0 6.6-6.6v-16.5a6.6 6.6 0 0 0-6.6-6.6zM100.8 150.1H84.3a6.6 6.6 0 0 0-6.6 6.6v16.5a6.6 6.6 0 0 0 6.6 6.6h16.5a6.6 6.6 0 0 0 6.6-6.6v-16.5a6.6 6.6 0 0 0-6.6-6.6zM100.8 193H84.3a6.6 6.6 0 0 0-6.6 6.6v16.5a6.6 6.6 0 0 0 6.6 6.6h16.5a6.6 6.6 0 0 0 6.6-6.6v-16.5a6.6 6.6 0 0 0-6.6-6.6z" fill="#6AC579"/>
    <path d="m205.71 179.949 34.558 52.852a14.822 14.822 0 0 1-12.51 22.899h-69.115a14.824 14.824 0 0 1-14.895-15.387 14.821 14.821 0 0 1 2.384-7.512l34.558-52.852a14.961 14.961 0 0 1 12.51-6.75 14.974 14.974 0 0 1 12.51 6.75z" fill="#FF800D"/>
    <path d="M150.3 74.2v13.2a3.303 3.303 0 0 1-3.3 3.3h-39.6a3.3 3.3 0 0 1-3.3-3.3V74.2a3.3 3.3 0 0 1 3.3-3.3h4.917a17.986 17.986 0 0 1 14.883-6.6 17.984 17.984 0 0 1 14.883 6.6H147a3.302 3.302 0 0 1 3.3 3.3z" fill="#D4E6E7"/>
    <path d="M94.2 127a3.299 3.299 0 0 1-2.333-.967l-3.3-3.3a3.3 3.3 0 0 1 4.666-4.666l.967.967 14.167-14.167a3.297 3.297 0 0 1 4.626.04 3.298 3.298 0 0 1 .04 4.626l-16.5 16.5A3.3 3.3 0 0 1 94.2 127zM94.2 169.9a3.299 3.299 0 0 1-2.333-.967l-3.3-3.3a3.301 3.301 0 0 1 2.345-5.593 3.304 3.304 0 0 1 2.321.927l.967.967 14.167-14.167a3.303 3.303 0 0 1 2.321-.927 3.303 3.303 0 0 1 3.271 3.272 3.3 3.3 0 0 1-.926 2.321l-16.5 16.5a3.3 3.3 0 0 1-2.333.967zM94.2 212.8a3.299 3.299 0 0 1-2.333-.967l-3.3-3.3a3.3 3.3 0 0 1 4.666-4.666l.967.967 14.167-14.167a3.297 3.297 0 0 1 4.626.04 3.298 3.298 0 0 1 .04 4.626l-16.5 16.5a3.3 3.3 0 0 1-2.333.967z" fill="#55A060"/>
    <path d="M143.7 117.1h-19.8a3.3 3.3 0 0 1 0-6.6h19.8a3.302 3.302 0 0 1 2.334 5.633 3.302 3.302 0 0 1-2.334.967zM173.4 133.6h-49.5a3.3 3.3 0 0 1 0-6.6h49.5a3.302 3.302 0 0 1 2.334 5.633 3.302 3.302 0 0 1-2.334.967zM143.7 160h-19.8a3.3 3.3 0 0 1 0-6.6h19.8c.875 0 1.715.348 2.334.966a3.305 3.305 0 0 1 0 4.667 3.302 3.302 0 0 1-2.334.967zM166.8 176.5h-42.9a3.3 3.3 0 0 1 0-6.6h42.9c.875 0 1.715.348 2.334.966a3.305 3.305 0 0 1 0 4.667 3.302 3.302 0 0 1-2.334.967zM143.7 202.9h-19.8a3.3 3.3 0 0 1 0-6.6h19.8a3.3 3.3 0 1 1 0 6.6zM140.4 219.4h-16.5a3.3 3.3 0 0 1 0-6.6h16.5a3.3 3.3 0 1 1 0 6.6z" fill="#AAC7C8"/>
    <path d="M193.2 226a3.302 3.302 0 0 1-3.3-3.3v-33c0-.875.348-1.715.966-2.334a3.305 3.305 0 0 1 4.667 0c.619.619.967 1.459.967 2.334v33a3.3 3.3 0 0 1-3.3 3.3zM193.2 242.5a3.305 3.305 0 0 1-2.334-.966 3.305 3.305 0 0 1-.966-2.334v-3.3a3.303 3.303 0 0 1 3.3-3.3 3.3 3.3 0 0 1 3.3 3.3v3.3a3.302 3.302 0 0 1-3.3 3.3z" fill="#fff"/>
</svg>
