<svg id="Layer_1" data-name="Layer 1" xmlns="http://www.w3.org/2000/svg" viewBox="0 0 20 20"><defs><style>.cls-1{fill:#ef8322;fill-rule:evenodd;}</style></defs><path class="cls-1" d="M0,10A10,10,0,1,1,10,20,10,10,0,0,1,0,10ZM6.36,4.55a.9.9,0,0,0-.64.26.91.91,0,0,0,0,1.29.9.9,0,0,0,.64.26H9.09a2.09,2.09,0,0,1,1.17.38,1.34,1.34,0,0,1,.46.53H6.36a.91.91,0,0,0-.64,1.55.87.87,0,0,0,.64.27h4.36a1.4,1.4,0,0,1-.46.54A2.19,2.19,0,0,1,9.09,10H6.36a.93.93,0,0,0-.53.17,1,1,0,0,0-.33.44.86.86,0,0,0,0,.55,1,1,0,0,0,.3.46l4.55,3.64a.88.88,0,0,0,.32.16,1,1,0,0,0,.35,0,.85.85,0,0,0,.34-.11,1,1,0,0,0,.27-.23.92.92,0,0,0,.16-.31.71.71,0,0,0,0-.35,1,1,0,0,0-.1-.34.87.87,0,0,0-.23-.27L9,11.82h.14a3.94,3.94,0,0,0,2.24-.72,3.26,3.26,0,0,0,1.3-2h1a.87.87,0,0,0,.64-.27.91.91,0,0,0-.64-1.55h-1a3.82,3.82,0,0,0-.33-.91h1.34a.9.9,0,0,0,.64-.26.91.91,0,0,0,0-1.29.9.9,0,0,0-.64-.26Z"/></svg>