<svg width="23" height="23" viewBox="0 0 23 23" fill="none" xmlns="http://www.w3.org/2000/svg">
    <circle cx="11.5" cy="11.749" r="10.617" fill="#FFF5ED" stroke="#F5821F" stroke-width=".5"/>
    <path d="M8.283 9.543H11.3c-.112-.58-.39-1-.833-1.26-.438-.266-1.052-.398-1.841-.398h-.344v-1h6.48v1h-2.958c.5.397.795.95.887 1.658h2.07v1h-2.04c-.148 1.473-1.105 2.334-2.873 2.584l2.988 4.928H11.24L8.283 12.89v-.688h.344c.886 0 1.538-.127 1.956-.382.423-.255.667-.68.733-1.276H8.283V9.543z" fill="#F5821F"/>
</svg>
