<svg width="66" height="66" viewBox="0 0 66 66" fill="none" xmlns="http://www.w3.org/2000/svg">
    <path d="M33 0a33 33 0 0 1 0 66V0z" fill="#F5821F"/>
    <path d="m47.576 46-6.048-10.56v-1.408h.704c1.13 0 2.08-.107 2.848-.32.79-.213 1.408-.565 1.856-1.056.448-.49.715-1.163.8-2.016h-6.208v-2.048h6.176c-.15-.79-.448-1.43-.896-1.92-.448-.512-1.056-.885-1.824-1.12-.747-.235-1.664-.352-2.752-.352h-.704v-2.048h13.248V25.2h-6.048c.49.405.896.885 1.216 1.44.32.555.523 1.205.608 1.952h4.224v2.048h-4.16c-.15 1.557-.747 2.773-1.792 3.648-1.024.853-2.39 1.397-4.096 1.632L50.84 46h-3.264z" fill="#fff"/>
</svg>
