<svg width="41" height="40" viewBox="0 0 41 40" fill="none" xmlns="http://www.w3.org/2000/svg">
    <path d="M32.548 28.326c4.61-6.426 3.137-15.372-3.29-19.98-6.425-4.61-15.371-3.137-19.98 3.29-4.609 6.425-3.136 15.37 3.29 19.98 6.426 4.609 15.371 3.136 19.98-3.29z" fill="#FFC200"/>
    <path d="M20.916 10.163A12.008 12.008 0 0 1 32.87 21.076 12.005 12.005 0 1 0 8.912 19.98c0 .371 0 .735.05 1.096a12.009 12.009 0 0 1 11.954-10.913z" fill="#FFA100"/>
    <path d="M20.916 8.217a11.777 11.777 0 0 1 11.747 11.746A11.778 11.778 0 0 1 20.916 31.73 11.778 11.778 0 0 1 9.15 19.964 11.778 11.778 0 0 1 20.916 8.216zm0-2.553a14.314 14.314 0 0 0-10.125 24.44 14.319 14.319 0 0 0 24.444-10.125A14.32 14.32 0 0 0 20.916 5.664z" fill="#FFE450"/>
    <path d="M20.916 8.217V5.664A14.314 14.314 0 0 0 6.598 19.98H9.15A11.777 11.777 0 0 1 20.916 8.217z" fill="#FAF582"/>
    <path d="m23.587 28.154-5.415-7.34h1.718a3.868 3.868 0 0 0 3.771-3.035h.783l.783-1.625h-1.566a3.802 3.802 0 0 0-.638-1.441h1.417l.783-1.625h-7.83l-.784 1.625h3.278a2.244 2.244 0 0 1 2.09 1.44h-4.592l-.783 1.626h5.356a2.236 2.236 0 0 1-2.08 1.41h-3.276v2.247l4.953 6.71 2.032.008z" fill="#000" style="mix-blend-mode:overlay" opacity=".25"/>
    <path d="m23.587 27.23-5.415-7.337h1.718a3.864 3.864 0 0 0 3.771-3.034h.783l.783-1.625h-1.566a3.8 3.8 0 0 0-.638-1.441h1.417l.783-1.625h-7.83l-.784 1.625h3.278a2.243 2.243 0 0 1 2.09 1.44h-4.592l-.783 1.626h5.356a2.235 2.235 0 0 1-2.08 1.41h-3.276v2.247l4.953 6.715h2.032z" fill="#FFE450"/>
    <path d="M20.916 5.665A14.315 14.315 0 0 0 7.71 25.512c1.026.241 2.077.365 3.132.368a13.704 13.704 0 0 0 13.704-13.704 13.652 13.652 0 0 0-1.566-6.374c-.685-.1-1.376-.15-2.068-.149l.004.012z" fill="#fff" style="mix-blend-mode:lighten" opacity=".2"/>
</svg>
