<svg width="26" height="26" viewBox="0 0 26 26" fill="none" xmlns="http://www.w3.org/2000/svg">
<path d="M25.67 13.835C25.67 20.3713 20.3713 25.67 13.835 25.67C7.29871 25.67 2 20.3713 2 13.835C2 7.29871 7.29871 2 13.835 2C20.3713 2 25.67 7.29871 25.67 13.835Z" fill="#043B73"/>
<path d="M14.5063 19.5L10.5833 15.4167V14.25H12.625C13.1403 14.25 13.5852 14.0822 13.9597 13.7466C14.3338 13.4114 14.5597 12.9958 14.6375 12.5H10V11.3333H14.4625C14.2972 10.9931 14.0518 10.7134 13.7263 10.4945C13.4004 10.2759 13.0333 10.1667 12.625 10.1667H10V9H17V10.1667H15.1042C15.2403 10.3319 15.3618 10.5118 15.4687 10.7063C15.5757 10.9007 15.6583 11.1097 15.7167 11.3333H17V12.5H15.8188C15.741 13.3264 15.4007 14.019 14.7979 14.5778C14.1951 15.1371 13.4708 15.4167 12.625 15.4167H12.2021L16.125 19.5H14.5063Z" fill="white"/>
</svg>
