<svg width="172" height="172" viewBox="0 0 172 172" fill="none" xmlns="http://www.w3.org/2000/svg">
<path d="M93.2238 69.2013C91.9828 66.601 90.0331 64.4037 87.599 62.862C85.1648 61.3204 82.345 60.4971 79.4638 60.4866H59.9131V51.6H112.086V60.2573H97.9251C100.011 62.8247 101.552 65.7898 102.454 68.972H112.086V77.6866H103.2C102.643 83.6278 99.8899 89.1475 95.4789 93.1662C91.0678 97.1849 85.3162 99.4134 79.3491 99.416H76.1958L105.436 129.803H93.3958L64.1558 99.416V90.9306H79.3491C83.0051 90.9289 86.5389 89.6138 89.3066 87.225C92.0743 84.8361 93.8917 81.5325 94.4277 77.916H60.0278V69.2013H93.2238Z" fill="#1B3F71"/>
<path d="M86.0005 166.783C70.0232 166.783 54.4047 162.045 41.12 153.168C27.8354 144.292 17.4813 131.675 11.367 116.914C5.25278 102.153 3.65301 85.9104 6.77003 70.2401C9.88704 54.5698 17.5808 40.1757 28.8785 28.878C40.1762 17.5804 54.5703 9.88656 70.2406 6.76954C85.9109 3.65252 102.154 5.25229 116.915 11.3665C131.676 17.4808 144.292 27.8349 153.169 41.1195C162.045 54.4042 166.783 70.0227 166.783 86C166.768 107.42 158.252 127.959 143.106 143.105C127.959 158.252 107.421 166.767 86.0005 166.783ZM86.0005 9.51732C70.8736 9.51732 56.0865 14.003 43.509 22.407C30.9315 30.811 21.1285 42.756 15.3397 56.7313C9.55091 70.7067 8.0363 86.0848 10.9874 100.921C13.9385 115.757 21.2228 129.385 31.9191 140.081C42.6154 150.778 56.2433 158.062 71.0795 161.013C85.9156 163.964 101.294 162.45 115.269 156.661C129.245 150.872 141.189 141.069 149.593 128.491C157.998 115.914 162.483 101.127 162.483 86C162.453 65.7248 154.385 46.2888 140.048 31.9521C125.712 17.6154 106.276 9.54765 86.0005 9.51732Z" fill="#1A4071"/>
<path d="M86 167.471C69.8866 167.471 54.1351 162.693 40.7373 153.74C27.3395 144.788 16.8972 132.064 10.7309 117.177C4.5646 102.291 2.95121 85.9096 6.09477 70.1059C9.23833 54.3021 16.9977 39.7854 28.3915 28.3915C39.7854 16.9977 54.3021 9.23833 70.1059 6.09477C85.9096 2.95121 102.291 4.5646 117.177 10.7309C132.064 16.8972 144.788 27.3395 153.74 40.7373C162.693 54.1351 167.471 69.8866 167.471 86C167.455 107.603 158.867 128.316 143.592 143.592C128.316 158.867 107.603 167.455 86 167.471ZM86 5.73333C70.1248 5.73333 54.606 10.4409 41.4062 19.2607C28.2064 28.0805 17.9185 40.6165 11.8433 55.2833C5.76808 69.9501 4.17853 86.089 7.27564 101.659C10.3727 117.229 18.0174 131.532 29.2429 142.757C40.4684 153.983 54.7705 161.627 70.3408 164.724C85.911 167.821 102.05 166.232 116.717 160.157C131.384 154.082 143.919 143.794 152.739 130.594C161.559 117.394 166.267 101.875 166.267 86C166.267 64.712 157.81 44.2958 142.757 29.2429C127.704 14.19 107.288 5.73333 86 5.73333ZM86 162.941C70.7273 162.941 55.7981 158.409 43.1025 149.92C30.407 141.43 20.516 129.364 14.6819 115.249C8.84786 101.135 7.33307 85.6067 10.3294 70.6309C13.3256 55.655 20.6982 41.9049 31.5137 31.1216C42.3292 20.3383 56.1011 13.0067 71.0858 10.055C86.0705 7.10326 101.594 8.66425 115.691 14.5403C129.788 20.4163 141.825 30.3432 150.277 43.064C158.729 55.7848 163.216 70.7274 163.171 86C163.14 106.458 155 126.069 140.534 140.534C126.069 155 106.458 163.14 86 163.171V162.941ZM86 10.2627C71.0206 10.2627 56.3775 14.7046 43.9226 23.0267C31.4677 31.3488 21.7602 43.1774 16.0278 57.0166C10.2954 70.8558 8.7956 86.084 11.7179 100.776C14.6403 115.467 21.8536 128.962 32.4456 139.554C43.0377 150.146 56.5328 157.36 71.2244 160.282C85.916 163.204 101.144 161.705 114.983 155.972C128.823 150.24 140.651 140.532 148.973 128.077C157.295 115.622 161.737 100.979 161.737 86C161.707 65.9225 153.718 46.6761 139.521 32.4791C125.324 18.2822 106.077 10.293 86 10.2627Z" fill="#1A4071"/>
</svg>
