<svg width="18" height="18" viewBox="0 0 18 18" fill="none" xmlns="http://www.w3.org/2000/svg">
<circle opacity="0.1" cx="9" cy="9" r="9" transform="rotate(-90 9 9)" fill="#FB462E"/>
<path d="M11.3352 10.8998C11.3352 11.5826 11.0876 12.115 10.5923 12.4971C10.097 12.8791 9.42482 13.0702 8.57577 13.0702C7.65596 13.0702 6.94841 12.9517 6.45312 12.7146V11.8444C6.77152 11.9788 7.11822 12.0849 7.49322 12.1628C7.86822 12.2406 8.23968 12.2795 8.60761 12.2795C9.20902 12.2795 9.66185 12.1663 9.9661 11.9399C10.2703 11.7099 10.4225 11.3915 10.4225 10.9847C10.4225 10.7158 10.3676 10.4965 10.258 10.3267C10.1518 10.1533 9.9714 9.99412 9.71669 9.84908C9.46551 9.70403 9.08166 9.53953 8.56515 9.35556C7.84346 9.09731 7.32695 8.79129 7.01563 8.43752C6.70784 8.08375 6.55395 7.62207 6.55395 7.0525C6.55395 6.45462 6.7786 5.97879 7.22789 5.62502C7.67718 5.27125 8.27152 5.09436 9.01091 5.09436C9.78213 5.09436 10.4915 5.23587 11.1389 5.51889L10.8576 6.30427C10.2173 6.0354 9.59463 5.90096 8.98968 5.90096C8.51209 5.90096 8.13886 6.00356 7.86999 6.20875C7.60112 6.41394 7.46669 6.69872 7.46669 7.06311C7.46669 7.33198 7.51621 7.55309 7.61527 7.72644C7.71433 7.89625 7.8806 8.05368 8.11409 8.19872C8.35112 8.34023 8.71197 8.49766 9.19664 8.67101C10.0103 8.96111 10.5693 9.27243 10.8735 9.60497C11.1813 9.93752 11.3352 10.3691 11.3352 10.8998Z" fill="#FB462E"/>
</svg>
