<svg width="21" height="21" viewBox="0 0 21 21" fill="none" xmlns="http://www.w3.org/2000/svg">
<path d="M21 10.5C21 16.299 16.299 21 10.5 21C4.70101 21 0 16.299 0 10.5C0 4.70101 4.70101 0 10.5 0C16.299 0 21 4.70101 21 10.5Z" fill="#F58220" fill-opacity="0.1"/>
<path d="M15.1231 5.36435C14.5022 4.74444 13.4967 4.74444 12.8757 5.36435L12.3131 5.93007L6.32447 11.9161L6.31174 11.9289C6.30866 11.932 6.30866 11.9353 6.30538 11.9353C6.29902 11.9448 6.28947 11.9543 6.28321 11.9638C6.28321 11.967 6.27992 11.967 6.27992 11.9702C6.27356 11.9797 6.27048 11.9861 6.26402 11.9957C6.26093 11.9988 6.26093 12.0019 6.25775 12.0052C6.25457 12.0148 6.25139 12.0211 6.24811 12.0307C6.24811 12.0337 6.24502 12.0337 6.24502 12.037L4.91632 16.033C4.87735 16.1467 4.90698 16.2727 4.99259 16.3571C5.05274 16.4165 5.13388 16.4497 5.2183 16.4494C5.2528 16.4488 5.287 16.4434 5.32001 16.4335L9.31248 15.1015C9.31556 15.1015 9.31556 15.1015 9.31884 15.0984C9.32889 15.0954 9.33853 15.0912 9.34738 15.0856C9.34987 15.0853 9.35206 15.0842 9.35385 15.0825C9.36329 15.0761 9.37602 15.0697 9.38556 15.0633C9.39501 15.057 9.40465 15.0475 9.4142 15.0411C9.41738 15.0378 9.42046 15.0378 9.42046 15.0348C9.42375 15.0316 9.43011 15.0285 9.43329 15.022L15.9845 8.47018C16.6044 7.84918 16.6044 6.84353 15.9845 6.22262L15.1231 5.36435ZM9.21076 14.3544L6.99842 12.1419L12.5356 6.60418L14.748 8.81664L9.21076 14.3544ZM6.6868 12.73L8.61954 14.6629L5.71734 15.6292L6.6868 12.73ZM15.5364 8.02509L15.1994 8.36527L12.987 6.15262L13.3272 5.81253C13.6994 5.44062 14.3026 5.44062 14.6749 5.81253L15.5395 6.67717C15.9089 7.05106 15.9075 7.65298 15.5364 8.02509Z" fill="#F58220"/>
</svg>
