<svg width="20" height="20" viewBox="0 0 20 20" fill="none" xmlns="http://www.w3.org/2000/svg">
<path d="M17.4536 4.17259C17.4536 5.48014 16.3937 6.54014 15.0862 6.54014C13.7786 6.54014 12.7188 5.48014 12.7188 4.17259C12.7188 2.86517 13.7786 1.80518 15.0862 1.80518C16.3937 1.80518 17.4536 2.86517 17.4536 4.17259Z" fill="#BEC1D1"/>
<path d="M15.0861 7.08643C13.4791 7.08643 12.1724 5.77954 12.1724 4.17254C12.1724 2.56568 13.4791 1.25879 15.0861 1.25879C16.6931 1.25879 17.9999 2.56568 17.9999 4.17254C17.9999 5.77954 16.6931 7.08643 15.0861 7.08643ZM15.0861 2.35146C14.0816 2.35146 13.265 3.16883 13.265 4.17254C13.265 5.17638 14.0816 5.99375 15.0861 5.99375C16.0906 5.99375 16.9072 5.17638 16.9072 4.17254C16.9072 3.16883 16.0906 2.35146 15.0861 2.35146Z" fill="#BEC1D1"/>
<path d="M17.4536 15.828C17.4536 17.1354 16.3937 18.1954 15.0862 18.1954C13.7786 18.1954 12.7188 17.1354 12.7188 15.828C12.7188 14.5204 13.7786 13.4604 15.0862 13.4604C16.3937 13.4604 17.4536 14.5204 17.4536 15.828Z" fill="#BEC1D1"/>
<path d="M15.0861 18.7417C13.4791 18.7417 12.1724 17.4348 12.1724 15.8279C12.1724 14.2209 13.4791 12.9141 15.0861 12.9141C16.6931 12.9141 17.9999 14.2209 17.9999 15.8279C17.9999 17.4348 16.6931 18.7417 15.0861 18.7417ZM15.0861 14.0067C14.0816 14.0067 13.265 14.8241 13.265 15.8279C13.265 16.8317 14.0816 17.649 15.0861 17.649C16.0906 17.649 16.9072 16.8317 16.9072 15.8279C16.9072 14.8241 16.0906 14.0067 15.0861 14.0067Z" fill="#BEC1D1"/>
<path d="M7.25547 9.99974C7.25547 11.3073 6.19548 12.3672 4.88792 12.3672C3.5805 12.3672 2.52051 11.3073 2.52051 9.99974C2.52051 8.69219 3.5805 7.63232 4.88792 7.63232C6.19548 7.63232 7.25547 8.69219 7.25547 9.99974Z" fill="#BEC1D1"/>
<path d="M4.88787 12.9134C3.28101 12.9134 1.97412 11.6067 1.97412 9.99969C1.97412 8.39269 3.28101 7.08594 4.88787 7.08594C6.49487 7.08594 7.80176 8.39269 7.80176 9.99969C7.80176 11.6067 6.49487 12.9134 4.88787 12.9134ZM4.88787 8.17861C3.88337 8.17861 3.06679 8.99585 3.06679 9.99969C3.06679 11.0035 3.88337 11.8208 4.88787 11.8208C5.89251 11.8208 6.70908 11.0035 6.70908 9.99969C6.70908 8.99585 5.89251 8.17861 4.88787 8.17861Z" fill="#BEC1D1"/>
<path d="M6.60808 9.65019C6.35452 9.65019 6.1083 9.51827 5.97425 9.28232C5.77537 8.93339 5.89782 8.48829 6.24675 8.28861L13.0059 4.43518C13.3549 4.23484 13.8 4.35728 13.9996 4.70755C14.1985 5.05648 14.0761 5.50158 13.7271 5.70125L6.96782 9.55469C6.85417 9.61951 6.73039 9.65019 6.60808 9.65019Z" fill="#BEC1D1"/>
<path d="M13.3663 15.6608C13.2439 15.6608 13.1201 15.6301 13.0065 15.5653L6.24714 11.7118C5.89821 11.513 5.77589 11.0679 5.97477 10.7181C6.17284 10.3685 6.61861 10.2454 6.96834 10.4458L13.7277 14.2992C14.0766 14.4981 14.1989 14.9432 14 15.2929C13.8653 15.5289 13.6191 15.6608 13.3663 15.6608Z" fill="#BEC1D1"/>
</svg>
