<svg width="750" height="87" viewBox="0 0 648 87" fill="none" xmlns="http://www.w3.org/2000/svg">
    <rect width="648" height="86" rx="8" fill="#C9E5FF"/>
    <mask id="yn8jepp52a" style="mask-type:alpha" maskUnits="userSpaceOnUse" x="536" y="2" width="112" height="85">
        <rect x="536" y="2" width="112" height="84.069" rx="8" fill="#58AED2"/>
    </mask>
    <g mask="url(#yn8jepp52a)">
        <ellipse cx="611.628" cy="89.863" rx="57.085" ry="54.447" fill="#E9F3FD"/>
    </g>
    <path d="M154.992 37.376a.538.538 0 0 1 0-.752L160.474 31l-5.482-5.622a.538.538 0 0 1 .168-.866.51.51 0 0 1 .565.114l5.83 5.982a.56.56 0 0 1 0 .785l-5.83 5.981a.502.502 0 0 1-.366.155.51.51 0 0 1-.367-.155v.002zM26.117 34.113c0 .847-.208 1.576-.625 2.188-.41.612-1.002 1.08-1.777 1.406-.768.326-1.686.488-2.754.488-.52 0-1.019-.029-1.494-.088a10.31 10.31 0 0 1-1.348-.254 7.322 7.322 0 0 1-1.142-.42v-2.206c.579.254 1.227.485 1.943.693a8.028 8.028 0 0 0 2.187.303c.606 0 1.107-.078 1.504-.235.404-.163.703-.39.899-.683.195-.3.293-.648.293-1.045 0-.423-.114-.782-.342-1.075-.228-.292-.573-.56-1.035-.8a17.301 17.301 0 0 0-1.719-.791 11.682 11.682 0 0 1-1.348-.645c-.423-.24-.8-.524-1.132-.85a3.67 3.67 0 0 1-.791-1.152c-.19-.449-.284-.976-.284-1.582 0-.807.192-1.497.576-2.07.391-.573.938-1.012 1.641-1.318.71-.306 1.537-.46 2.48-.46.75 0 1.452.079 2.11.235a10.8 10.8 0 0 1 1.953.664l-.742 1.885a13.197 13.197 0 0 0-1.71-.576 6.603 6.603 0 0 0-1.679-.215c-.494 0-.915.075-1.26.224-.345.15-.608.362-.79.635-.176.267-.264.586-.264.957 0 .417.1.768.303 1.055.208.28.527.537.957.771.436.235.996.495 1.68.782.787.325 1.454.667 2.001 1.025.554.358.977.788 1.27 1.289.293.495.44 1.117.44 1.865zm6.543 2.227c.3 0 .596-.026.889-.078.293-.059.56-.127.8-.205v1.738c-.253.11-.582.205-.986.283a6.62 6.62 0 0 1-1.26.117c-.612 0-1.162-.1-1.65-.302-.488-.209-.875-.564-1.162-1.065-.286-.501-.43-1.195-.43-2.08v-5.81h-1.474v-1.026l1.582-.81.752-2.315h1.445v2.402h3.096v1.748h-3.096v5.782c0 .547.137.953.41 1.22.274.267.635.4 1.084.4zm8.125-9.356c1.367 0 2.4.303 3.096.909.703.605 1.054 1.55 1.054 2.832V38h-1.63l-.44-1.533h-.078c-.306.39-.622.713-.947.967a3.308 3.308 0 0 1-1.133.566c-.423.13-.94.195-1.553.195-.644 0-1.22-.117-1.728-.351a2.747 2.747 0 0 1-1.201-1.094c-.293-.488-.44-1.107-.44-1.855 0-1.114.414-1.95 1.24-2.51.834-.56 2.09-.87 3.77-.928l1.875-.068v-.567c0-.748-.176-1.282-.527-1.601-.346-.32-.834-.479-1.465-.479-.54 0-1.065.078-1.572.235-.508.156-1.003.348-1.485.576l-.742-1.621a8.327 8.327 0 0 1 1.797-.684 8.364 8.364 0 0 1 2.11-.264zm1.875 5.85-1.396.049c-1.146.039-1.95.234-2.412.586-.463.351-.694.833-.694 1.445 0 .534.16.925.479 1.172.319.24.739.361 1.26.361.794 0 1.451-.224 1.972-.674.528-.455.791-1.123.791-2.002v-.937zm10.967-5.85a6.59 6.59 0 0 1 1.152.108l-.215 2.148a2.914 2.914 0 0 0-.507-.088 5.36 5.36 0 0 0-.528-.029c-.41 0-.8.068-1.172.205-.37.13-.7.332-.986.606a2.761 2.761 0 0 0-.674 1.005c-.163.404-.244.873-.244 1.407V38h-2.305V27.19h1.797l.313 1.904h.107c.215-.384.482-.736.801-1.055a3.755 3.755 0 0 1 1.094-.762 3.18 3.18 0 0 1 1.367-.293zm7.178 9.356c.3 0 .595-.026.888-.078a7.13 7.13 0 0 0 .801-.205v1.738c-.254.11-.583.205-.986.283a6.62 6.62 0 0 1-1.26.117c-.612 0-1.162-.1-1.65-.302-.489-.209-.876-.564-1.163-1.065-.286-.501-.43-1.195-.43-2.08v-5.81h-1.474v-1.026l1.582-.81.752-2.315h1.445v2.402h3.096v1.748H59.31v5.782c0 .547.137.953.41 1.22.274.267.636.4 1.085.4zm13.32-9.356c1.367 0 2.4.303 3.096.909.703.605 1.054 1.55 1.054 2.832V38h-1.63l-.44-1.533h-.078a5.58 5.58 0 0 1-.947.967 3.308 3.308 0 0 1-1.133.566c-.423.13-.94.195-1.553.195-.644 0-1.22-.117-1.728-.351a2.747 2.747 0 0 1-1.202-1.094c-.292-.488-.439-1.107-.439-1.855 0-1.114.413-1.95 1.24-2.51.834-.56 2.09-.87 3.77-.928l1.875-.068v-.567c0-.748-.176-1.282-.528-1.601-.345-.32-.833-.479-1.464-.479-.54 0-1.065.078-1.573.235-.507.156-1.002.348-1.484.576l-.742-1.621a8.328 8.328 0 0 1 1.797-.684 8.364 8.364 0 0 1 2.109-.264zM76 32.834l-1.397.049c-1.145.039-1.95.234-2.412.586-.462.351-.693.833-.693 1.445 0 .534.16.925.479 1.172.319.24.739.361 1.26.361.794 0 1.451-.224 1.972-.674.527-.455.791-1.123.791-2.002v-.937zm11.123-5.85c1.218 0 2.165.316 2.842.948.683.625 1.025 1.63 1.025 3.017V38h-2.295v-6.621c0-.84-.172-1.468-.517-1.885-.345-.423-.88-.635-1.602-.635-1.048 0-1.777.323-2.187.967-.404.645-.606 1.579-.606 2.803V38h-2.295V27.19h1.787l.323 1.464h.127c.234-.377.524-.687.869-.927a3.888 3.888 0 0 1 1.172-.557 4.951 4.951 0 0 1 1.357-.186zm20.752 7.13c0 .846-.208 1.575-.625 2.187-.41.612-1.003 1.08-1.777 1.406-.769.326-1.687.488-2.754.488-.521 0-1.019-.029-1.494-.088a10.286 10.286 0 0 1-1.348-.254 7.32 7.32 0 0 1-1.143-.42v-2.206c.58.254 1.228.485 1.944.693a8.024 8.024 0 0 0 2.187.303c.606 0 1.107-.078 1.504-.235.404-.163.703-.39.899-.683.195-.3.293-.648.293-1.045 0-.423-.114-.782-.342-1.075-.228-.292-.573-.56-1.035-.8a17.35 17.35 0 0 0-1.719-.791 11.688 11.688 0 0 1-1.348-.645 5.476 5.476 0 0 1-1.133-.85 3.669 3.669 0 0 1-.79-1.152c-.19-.449-.284-.976-.284-1.582 0-.807.192-1.497.576-2.07.391-.573.938-1.012 1.641-1.318.71-.306 1.536-.46 2.48-.46.749 0 1.452.079 2.11.235.664.156 1.315.378 1.953.664l-.742 1.885a13.223 13.223 0 0 0-1.709-.576 6.606 6.606 0 0 0-1.68-.215c-.495 0-.915.075-1.26.224-.345.15-.608.362-.791.635-.176.267-.263.586-.263.957 0 .417.101.768.302 1.055.209.28.528.537.957.771.437.235.996.495 1.68.782.788.325 1.455.667 2.002 1.025.553.358.977.788 1.27 1.289.293.495.439 1.117.439 1.865zM110.629 38V23.723h2.344V38h-2.344zm10.264-14.277c1.842 0 3.186.377 4.033 1.133.846.755 1.269 1.813 1.269 3.173a5.31 5.31 0 0 1-.293 1.768 3.742 3.742 0 0 1-.937 1.474c-.436.424-1.013.759-1.729 1.006-.709.248-1.585.371-2.627.371h-1.523V38h-2.344V23.723h4.151zm-.157 1.943h-1.65v5.03h1.279c.736 0 1.361-.085 1.875-.255.515-.175.905-.452 1.172-.83.267-.377.4-.875.4-1.494 0-.827-.25-1.442-.751-1.846-.495-.403-1.27-.605-2.325-.605z" fill="#333"/>
    <g clip-path="url(#dcmff2m3db)">
        <path d="M591.427 49.923c0 3.622 7.641 6.563 17.06 6.563 9.42 0 17.061-2.94 17.061-6.563V46.82h-34.121v3.103z" fill="#FF931E"/>
        <path d="M606.869 48.43v8.038c.535 0 1.079.032 1.626.032v-8.07h-1.626zM603.58 48.43v7.776c.88.103 1.793.175 2.729.222V48.43h-2.729zM602.905 56.126v-9.28h-11.478v3.09c0 2.861 4.796 5.297 11.478 6.19zM614.573 48.43v7.637c.187-.027.373-.051.556-.083V48.43h-.556zM612.451 56.306l.556-.056v-7.82h-.556v7.876zM609.761 48.43v8.05l.794-.032V48.43h-.794z" fill="#D17918"/>
        <path d="M608.495 53.383c-9.427 0-17.061-2.936-17.061-6.563 0-3.626 7.642-6.562 17.061-6.562 9.42 0 17.061 2.936 17.061 6.562 0 3.627-7.638 6.563-17.061 6.563z" fill="#FF931E"/>
        <path style="mix-blend-mode:multiply" opacity=".4" d="M618.108 52.246c-.484 0-.972.023-1.468.023-9.423 0-17.061-2.936-17.061-6.562 0-2.254 2.952-4.241 7.452-5.424-8.729.286-15.601 3.103-15.601 6.539 0 3.626 7.642 6.562 17.061 6.562a38.558 38.558 0 0 0 9.617-1.138z" fill="url(#wxkc0xd0hc)"/>
        <path d="M625.548 47.022c-.281-3.527-7.804-6.348-17.061-6.348-9.256 0-16.775 2.833-17.06 6.348.277 3.531 7.804 6.348 17.06 6.348 9.257 0 16.78-2.817 17.061-6.348zm-17.061 5.555c-7.661 0-13.886-2.38-13.886-5.34s6.233-5.345 13.886-5.345c7.654 0 13.887 2.38 13.887 5.344 0 2.964-6.221 5.333-13.879 5.333l-.008.008z" fill="#D17918"/>
        <path d="m606.948 45.906-6.602 1.9v1.318l6.745-2.083a6.862 6.862 0 0 0 2.869 1.218l.305.06v1.19h2.452v-.9c.532.023 1.032.023 1.464 0v.884h2.448v-3.527h-2.448v1.702c-.488.018-.977.012-1.464-.02v-1.682h-2.452v1.19a3.07 3.07 0 0 1-1.416-1.008l-1.901-.242z" fill="#D17918"/>
        <path d="M622.385 46.82c0 2.944-6.233 5.345-13.886 5.345-7.654 0-13.887-2.4-13.887-5.345 0-2.944 6.233-5.344 13.887-5.344 7.653 0 13.886 2.38 13.886 5.344zm3.175 0c0-3.626-7.642-6.562-17.061-6.562-9.42 0-17.061 2.936-17.061 6.562 0 3.627 7.641 6.563 17.061 6.563 9.419 0 17.061-2.936 17.061-6.563z" fill="#FFC022"/>
        <path d="M596.438 46.822c0-2.555 5.407-4.638 12.057-4.638s12.054 2.083 12.054 4.638c0 2.555-5.408 4.638-12.054 4.638s-12.057-2.083-12.057-4.638zm23.583 0c0-2.444-5.158-4.432-11.526-4.432-6.368 0-11.53 1.984-11.53 4.432 0 2.448 5.158 4.432 11.53 4.432 6.372 0 11.526-1.988 11.526-4.432z" fill="#FFC022"/>
        <path d="m606.948 45.027-6.602 1.897v1.317l6.745-2.083a6.81 6.81 0 0 0 2.869 1.218l.305.064v1.19h2.452v-.905c.532.024 1.032.028 1.464 0v.89h2.448v-3.532h-2.448v1.706c-.397 0-.92 0-1.464-.02v-1.686h-2.452v1.19a3.042 3.042 0 0 1-1.416-1.008l-1.901-.238z" fill="#FFC022"/>
        <path d="M591.427 43.356c0 3.627 7.641 6.567 17.06 6.567 9.42 0 17.061-2.94 17.061-6.567v-3.098h-34.121v3.098z" fill="#FF931E"/>
        <path d="M606.869 41.85v8.042c.535.02 1.079.032 1.626.032V41.85h-1.626zM603.58 41.85v7.792c.88.103 1.793.179 2.729.226V41.85h-2.729zM602.905 49.558V40.27h-11.478v3.086c0 2.873 4.796 5.313 11.478 6.202zM614.573 41.85v7.641l.556-.083v-7.539l-.556-.02zM612.451 49.741l.556-.051v-7.84h-.556v7.891zM609.761 41.85v8.05l.794-.028V41.85h-.794z" fill="#D17918"/>
        <path d="M608.495 46.82c-9.427 0-17.061-2.94-17.061-6.562 0-3.623 7.642-6.567 17.061-6.567s17.061 2.94 17.061 6.567c0 3.626-7.638 6.562-17.061 6.562z" fill="#FF931E"/>
        <path style="mix-blend-mode:multiply" opacity=".4" d="M618.108 45.677c-.484 0-.972.028-1.468.028-9.423 0-17.061-2.94-17.061-6.563 0-2.253 2.952-4.24 7.452-5.423-8.729.285-15.601 3.102-15.601 6.538 0 3.623 7.642 6.563 17.061 6.563a38.356 38.356 0 0 0 9.617-1.143z" fill="url(#pbgzxbb73d)"/>
        <path d="M625.548 40.462c-.281-3.532-7.804-6.349-17.061-6.349-9.256 0-16.775 2.83-17.06 6.349.277 3.53 7.804 6.348 17.06 6.348 9.257 0 16.78-2.817 17.061-6.349zm-17.061 5.554c-7.661 0-13.886-2.38-13.886-5.344 0-2.964 6.233-5.34 13.886-5.34 7.654 0 13.887 2.38 13.887 5.34s-6.221 5.336-13.879 5.336l-.008.008z" fill="#D17918"/>
        <path d="m606.948 39.346-6.602 1.896v1.322l6.745-2.084a6.86 6.86 0 0 0 2.869 1.219l.305.059v1.19h2.452v-.904c.532.024 1.032.028 1.464.02v.884h2.448v-3.53h-2.448v1.705c-.488.019-.977.012-1.464-.02v-1.686h-2.452v1.19a3.06 3.06 0 0 1-1.416-1.003l-1.901-.258z" fill="#D17918"/>
        <path d="M622.385 40.258c0 2.944-6.233 5.34-13.886 5.34-7.654 0-13.887-2.38-13.887-5.34s6.233-5.345 13.887-5.345c7.653 0 13.886 2.381 13.886 5.345zm3.175 0c0-3.627-7.642-6.567-17.061-6.567-9.42 0-17.061 2.94-17.061 6.567 0 3.626 7.641 6.562 17.061 6.562 9.419 0 17.061-2.94 17.061-6.562z" fill="#FFC022"/>
        <path d="M596.438 40.26c0-2.56 5.407-4.639 12.057-4.639s12.054 2.08 12.054 4.638c0 2.56-5.408 4.635-12.054 4.635s-12.057-2.08-12.057-4.635zm23.583 0c0-2.445-5.158-4.437-11.526-4.437-6.368 0-11.53 1.984-11.53 4.436s5.158 4.432 11.53 4.432c6.372 0 11.526-1.988 11.526-4.432z" fill="#FFC022"/>
        <path d="m606.948 38.463-6.602 1.896v1.326l6.745-2.083a6.862 6.862 0 0 0 2.869 1.218l.305.06v1.19h2.452v-.905c.532.024 1.032.024 1.464 0v.889h2.448V38.51h-2.448v1.703c-.488.018-.977.011-1.464-.02V38.51h-2.452v1.19a3.094 3.094 0 0 1-1.416-1.008l-1.901-.23z" fill="#FFC022"/>
        <path d="M591.427 36.794c0 3.623 7.641 6.563 17.06 6.563 9.42 0 17.061-2.94 17.061-6.563v-3.103h-34.121v3.103z" fill="#FF931E"/>
        <path d="M606.869 35.287v8.043c.535 0 1.079.027 1.626.027v-8.07h-1.626zM603.58 35.287v7.793c.88.103 1.793.178 2.729.222v-8.015h-2.729zM602.905 42.997V33.71h-11.478v3.087c0 2.872 4.796 5.309 11.478 6.201zM614.573 35.287v7.642l.556-.084v-7.558h-.556zM612.451 43.179l.556-.056v-7.836h-.556v7.892zM609.761 35.287v8.05l.794-.027v-8.023h-.794z" fill="#D17918"/>
        <path d="M608.495 40.26c-9.427 0-17.061-2.94-17.061-6.567 0-3.626 7.642-6.562 17.061-6.562s17.061 2.94 17.061 6.562c0 3.623-7.638 6.567-17.061 6.567z" fill="#FF931E"/>
        <path style="mix-blend-mode:multiply" opacity=".4" d="M618.108 39.115c-.484 0-.972.027-1.468.027-9.423 0-17.061-2.94-17.061-6.566 0-2.254 2.952-4.241 7.452-5.42-8.729.286-15.601 3.103-15.601 6.535 0 3.626 7.642 6.566 17.061 6.566a38.543 38.543 0 0 0 9.617-1.142z" fill="url(#cuh0evy2ge)"/>
        <path d="M625.548 33.899c-.281-3.531-7.804-6.348-17.061-6.348-9.256 0-16.775 2.829-17.06 6.348.277 3.527 7.804 6.348 17.06 6.348 9.257 0 16.78-2.82 17.061-6.348zm-17.061 5.555c-7.661 0-13.886-2.38-13.886-5.345 0-2.964 6.233-5.344 13.886-5.344 7.654 0 13.887 2.38 13.887 5.344 0 2.964-6.221 5.337-13.879 5.337l-.008.008z" fill="#D17918"/>
        <path d="m606.948 32.783-6.602 1.897v1.317l6.745-2.083a6.862 6.862 0 0 0 2.869 1.218c.103.024.202.044.305.06v1.19h2.452v-.905c.532.024 1.032.028 1.464 0v.889h2.448v-3.531h-2.448v1.71c-.397 0-.92 0-1.464-.02v-1.686h-2.452v1.19a3.042 3.042 0 0 1-1.416-1.008l-1.901-.238z" fill="#D17918"/>
        <path d="M622.385 33.693c0 2.948-6.233 5.345-13.886 5.345-7.654 0-13.887-2.38-13.887-5.345 0-2.963 6.233-5.34 13.887-5.34 7.653 0 13.886 2.38 13.886 5.34zm3.175 0c0-3.622-7.642-6.562-17.061-6.562-9.42 0-17.061 2.94-17.061 6.562 0 3.623 7.641 6.567 17.061 6.567 9.419 0 17.061-2.94 17.061-6.567z" fill="#FFC022"/>
        <path d="M596.438 33.69c0-2.554 5.407-4.633 12.057-4.633s12.054 2.079 12.054 4.634-5.408 4.638-12.054 4.638-12.057-2.079-12.057-4.638zm23.583 0c0-2.443-5.158-4.431-11.526-4.431-6.368 0-11.53 1.984-11.53 4.432 0 2.448 5.158 4.436 11.53 4.436 6.372 0 11.526-1.996 11.526-4.436z" fill="#FFC022"/>
        <path d="m606.948 31.898-6.602 1.9v1.318l6.745-2.083a6.862 6.862 0 0 0 2.869 1.218l.305.06v1.19h2.452v-.916c.532 0 1.032.023 1.464 0v.884h2.448v-3.53h-2.448v1.705c-.488.025-.976.025-1.464 0v-1.686h-2.452v1.19a3.094 3.094 0 0 1-1.416-1.008l-1.901-.242z" fill="#FFC022"/>
        <path d="M591.427 30.234c0 3.622 7.641 6.562 17.06 6.562 9.42 0 17.061-2.94 17.061-6.562V27.13h-34.121v3.103z" fill="#FF931E"/>
        <path d="M606.869 28.725v8.038c.535.02 1.079.032 1.626.032v-8.07h-1.626zM603.58 28.725v7.804c.88.103 1.793.175 2.729.222v-8.014l-2.729-.012zM602.905 36.433V27.14h-11.478v3.09c0 2.869 4.796 5.31 11.478 6.202zM614.573 28.725v7.637c.187-.023.373-.051.556-.083V28.74l-.556-.015zM612.451 36.616l.556-.055v-7.836h-.556v7.891zM609.761 28.725v8.05l.794-.032v-8.018h-.794z" fill="#D17918"/>
        <path d="M608.495 33.691c-9.427 0-17.061-2.936-17.061-6.562 0-3.627 7.642-6.563 17.061-6.563s17.061 2.937 17.061 6.563-7.638 6.562-17.061 6.562z" fill="#FF931E"/>
        <path style="mix-blend-mode:multiply" opacity=".4" d="M618.108 32.56c-.484 0-.972.024-1.468.024-9.423 0-17.061-2.936-17.061-6.563 0-2.253 2.952-4.241 7.452-5.423-8.729.285-15.601 3.102-15.601 6.538 0 3.627 7.642 6.563 17.061 6.563a38.553 38.553 0 0 0 9.617-1.139z" fill="url(#09kr6nh1cf)"/>
        <path d="M625.548 27.33c-.281-3.527-7.804-6.348-17.061-6.348-9.256 0-16.775 2.833-17.06 6.349.277 3.53 7.804 6.348 17.06 6.348 9.257 0 16.78-2.817 17.061-6.348zm-17.061 5.555c-7.661 0-13.886-2.38-13.886-5.34s6.233-5.345 13.886-5.345c7.654 0 13.887 2.381 13.887 5.345s-6.221 5.332-13.879 5.332l-.008.008z" fill="#D17918"/>
        <path d="m606.948 26.21-6.602 1.901v1.318l6.745-2.083a6.862 6.862 0 0 0 2.869 1.218l.305.06v1.19h2.452v-.905c.532.024 1.032.024 1.464 0v.889h2.448v-3.531h-2.448v1.702c-.488.018-.977.011-1.464-.02v-1.683h-2.452v1.19a3.07 3.07 0 0 1-1.416-1.007l-1.901-.238z" fill="#D17918"/>
        <path d="M622.385 27.129c0 2.948-6.233 5.344-13.886 5.344-7.654 0-13.887-2.38-13.887-5.344 0-2.964 6.233-5.34 13.887-5.34 7.653 0 13.886 2.38 13.886 5.34zm3.175 0c0-3.627-7.642-6.563-17.061-6.563-9.42 0-17.061 2.937-17.061 6.563s7.641 6.562 17.061 6.562c9.419 0 17.061-2.936 17.061-6.562z" fill="#FFC022"/>
        <path d="M596.438 27.128c0-2.555 5.408-4.638 12.057-4.638 6.65 0 12.054 2.083 12.054 4.638 0 2.556-5.408 4.639-12.054 4.639s-12.057-2.083-12.057-4.639zm23.583 0c0-2.444-5.158-4.431-11.526-4.431-6.368 0-11.53 1.983-11.53 4.431s5.158 4.432 11.53 4.432c6.372 0 11.526-1.987 11.526-4.432z" fill="#FFC022"/>
        <path d="m606.948 25.336-6.602 1.897v1.32l6.745-2.086a6.81 6.81 0 0 0 2.869 1.218l.305.063v1.19h2.452v-.904c.532.024 1.032.028 1.464 0v.889h2.448v-3.531h-2.448v1.706c-.397 0-.92 0-1.464-.02v-1.686h-2.452v1.19a3.042 3.042 0 0 1-1.416-1.008l-1.901-.238z" fill="#FFC022"/>
        <path d="M591.427 23.665c0 3.627 7.641 6.567 17.06 6.567 9.42 0 17.061-2.94 17.061-6.567v-3.099h-34.121v3.1z" fill="#FF931E"/>
        <path d="M606.869 22.156V30.2c.535.02 1.079.031 1.626.031v-8.074h-1.626zM603.58 22.156v7.797c.88.099 1.793.174 2.729.222v-8.019h-2.729zM602.905 29.866v-9.288h-11.478v3.087c0 2.873 4.796 5.325 11.478 6.201zM614.573 22.156v7.626l.556-.083v-7.543h-.556zM612.451 30.048l.556-.052v-7.84h-.556v7.892zM609.761 22.156v8.05c.27 0 .54 0 .794-.027v-8.023h-.794z" fill="#D17918"/>
        <path d="M608.495 27.129c-9.427 0-17.061-2.94-17.061-6.563 0-3.622 7.642-6.566 17.061-6.566 9.42 0 17.061 2.94 17.061 6.567 0 3.626-7.638 6.562-17.061 6.562z" fill="#FF931E"/>
        <path style="mix-blend-mode:multiply" opacity=".4" d="M618.108 25.986c-.484 0-.972.028-1.468.028-9.423 0-17.061-2.94-17.061-6.563 0-2.253 2.952-4.241 7.452-5.424-8.729.286-15.601 3.103-15.601 6.539 0 3.623 7.642 6.563 17.061 6.563a38.356 38.356 0 0 0 9.617-1.143z" fill="url(#tctavskvgg)"/>
        <path d="M625.548 20.768c-.281-3.531-7.804-6.348-17.061-6.348-9.256 0-16.775 2.829-17.06 6.348.277 3.531 7.804 6.348 17.06 6.348 9.257 0 16.78-2.817 17.061-6.348zm-17.061 5.555c-7.661 0-13.886-2.38-13.886-5.345 0-2.963 6.233-5.34 13.886-5.34 7.654 0 13.887 2.38 13.887 5.34s-6.221 5.337-13.879 5.337l-.008.008z" fill="#D17918"/>
        <path d="m606.948 19.654-6.602 1.897v1.321l6.745-2.083a6.86 6.86 0 0 0 2.869 1.218l.305.06v1.19h2.452v-.905c.532.024 1.032.028 1.464 0v.885h2.448v-3.531h-2.448v1.706c-.488.018-.977.012-1.464-.02v-1.686h-2.452v1.19a3.06 3.06 0 0 1-1.416-1.004l-1.901-.238z" fill="#D17918"/>
        <path d="M622.385 20.567c0 2.944-6.233 5.34-13.886 5.34-7.654 0-13.887-2.38-13.887-5.34s6.233-5.345 13.887-5.345c7.653 0 13.886 2.38 13.886 5.345zm3.175 0c0-3.627-7.642-6.567-17.061-6.567-9.42 0-17.061 2.94-17.061 6.567 0 3.626 7.641 6.562 17.061 6.562 9.419 0 17.061-2.94 17.061-6.563z" fill="#FFC022"/>
        <path d="M596.438 20.566c0-2.56 5.407-4.638 12.057-4.638s12.054 2.079 12.054 4.638c0 2.56-5.408 4.634-12.054 4.634s-12.057-2.079-12.057-4.634zm23.583 0c0-2.444-5.158-4.436-11.526-4.436-6.368 0-11.53 1.984-11.53 4.436s5.158 4.432 11.53 4.432c6.372 0 11.526-1.988 11.526-4.432z" fill="#FFC022"/>
        <path d="m606.948 18.773-6.602 1.885v1.317l6.745-2.083a6.862 6.862 0 0 0 2.869 1.218l.305.06v1.19h2.452v-.908c.532.023 1.032.023 1.464 0v.888h2.448v-3.53h-2.448v1.701h-1.464v-1.686h-2.452v1.19a3.07 3.07 0 0 1-1.416-1.008l-1.901-.234z" fill="#FFC022"/>
        <path d="M576 69.759c0 3.626 7.642 6.563 17.061 6.563s17.061-2.937 17.061-6.563v-3.103H576v3.103z" fill="#FF931E"/>
        <path d="M591.442 68.27v8.042c.536 0 1.079.028 1.627.028v-8.07h-1.627zM588.153 68.27v7.792c.881.103 1.793.179 2.73.222V68.27h-2.73zM587.478 75.958v-9.276H576v3.087c0 2.864 4.797 5.3 11.478 6.189zM599.148 68.27v7.641l.555-.083v-7.559h-.555zM597.024 76.141l.556-.055v-7.817h-.556v7.872zM594.334 68.27v8.05l.794-.028V68.27h-.794z" fill="#D17918"/>
        <path d="M593.069 73.223c-9.427 0-17.061-2.94-17.061-6.567 0-3.626 7.642-6.562 17.061-6.562s17.061 2.94 17.061 6.562c0 3.623-7.638 6.567-17.061 6.567z" fill="#FF931E"/>
        <path style="mix-blend-mode:multiply" opacity=".4" d="M602.683 72.078c-.484 0-.972.027-1.468.027-9.423 0-17.061-2.94-17.061-6.566 0-2.254 2.952-4.238 7.451-5.42-8.729.286-15.601 3.103-15.601 6.535 0 3.626 7.642 6.566 17.061 6.566a38.55 38.55 0 0 0 9.618-1.142z" fill="url(#7mmkerx52h)"/>
        <path d="M610.122 66.862c-.282-3.531-7.805-6.348-17.061-6.348-9.257 0-16.775 2.829-17.061 6.348.278 3.531 7.804 6.348 17.061 6.348 9.256 0 16.779-2.817 17.061-6.348zm-17.061 5.555c-7.662 0-13.887-2.381-13.887-5.345s6.233-5.34 13.887-5.34c7.654 0 13.887 2.38 13.887 5.34s-6.222 5.337-13.879 5.337l-.008.008z" fill="#D17918"/>
        <path d="m591.522 65.746-6.59 1.897v1.317l6.745-2.083a6.811 6.811 0 0 0 2.868 1.218l.306.06v1.19h2.452v-.917a13.82 13.82 0 0 0 1.464 0v.889h2.432v-3.531h-2.448v1.706c-.397 0-.92 0-1.464-.02v-1.686h-2.436v1.19a3.045 3.045 0 0 1-1.417-1.008l-1.912-.222z" fill="#D17918"/>
        <path d="M606.96 66.656c0 2.948-6.233 5.345-13.887 5.345-7.653 0-13.887-2.38-13.887-5.345 0-2.964 6.234-5.34 13.887-5.34 7.654 0 13.887 2.38 13.887 5.34zm3.174 0c0-3.622-7.642-6.562-17.061-6.562s-17.061 2.94-17.061 6.562c0 3.623 7.642 6.567 17.061 6.567s17.061-2.94 17.061-6.567z" fill="#FFC022"/>
        <path d="M581.011 66.654c0-2.555 5.408-4.634 12.058-4.634 6.65 0 12.054 2.079 12.054 4.634s-5.408 4.638-12.054 4.638-12.058-2.08-12.058-4.638zm23.584 0c0-2.444-5.158-4.432-11.506-4.432s-11.506 1.984-11.506 4.432c0 2.448 5.158 4.436 11.506 4.436s11.506-1.988 11.506-4.436z" fill="#FFC022"/>
        <path d="m591.522 64.861-6.59 1.9v1.318l6.745-2.083a6.856 6.856 0 0 0 2.868 1.218l.306.06v1.19h2.452v-.905c.531.02 1.031.024 1.464 0v.89h2.432v-3.532h-2.448v1.702c-.488.018-.977.012-1.464-.02v-1.682h-2.436v1.19a3.102 3.102 0 0 1-1.417-1.008l-1.912-.238z" fill="#FFC022"/>
        <path d="M576 63.196c0 3.623 7.642 6.563 17.061 6.563s17.061-2.94 17.061-6.563v-3.102H576v3.102z" fill="#FF931E"/>
        <path d="M591.442 61.688v8.038c.536.02 1.079.032 1.627.032v-8.07h-1.627zM588.153 61.688v7.792a41.78 41.78 0 0 0 2.73.222v-8.014h-2.73zM587.478 69.396v-9.293H576v3.091c0 2.869 4.797 5.309 11.478 6.202zM599.148 61.688v7.637c.186-.024.373-.051.555-.083v-7.539l-.555-.016zM597.024 69.58l.556-.056v-7.837h-.556v7.892zM594.334 61.688v8.05l.794-.032v-8.019h-.794z" fill="#D17918"/>
        <path d="M593.069 66.654c-9.427 0-17.061-2.936-17.061-6.562 0-3.627 7.642-6.563 17.061-6.563s17.061 2.936 17.061 6.563c0 3.626-7.638 6.562-17.061 6.562z" fill="#FF931E"/>
        <path style="mix-blend-mode:multiply" opacity=".4" d="M602.683 65.515c-.484 0-.972.024-1.468.024-9.423 0-17.061-2.936-17.061-6.563 0-2.253 2.952-4.24 7.451-5.423-8.729.285-15.601 3.102-15.601 6.538 0 3.627 7.642 6.563 17.061 6.563a38.566 38.566 0 0 0 9.618-1.139z" fill="url(#wd32n0706i)"/>
        <path d="M610.122 60.294c-.282-3.528-7.805-6.349-17.061-6.349-9.257 0-16.775 2.833-17.061 6.349.278 3.53 7.804 6.348 17.061 6.348 9.256 0 16.779-2.817 17.061-6.348zm-17.061 5.554c-7.662 0-13.887-2.38-13.887-5.34s6.233-5.333 13.895-5.333c7.661 0 13.887 2.38 13.887 5.345 0 2.964-6.23 5.32-13.887 5.32l-.008.008z" fill="#D17918"/>
        <path d="m591.522 59.184-6.59 1.896v1.317l6.745-2.063a6.858 6.858 0 0 0 2.868 1.218l.306.06v1.19h2.452v-.904a14.98 14.98 0 0 0 1.464 0v.888h2.432v-3.531h-2.448v1.702c-.488.025-.976.025-1.464 0v-1.682h-2.436v1.19a3.068 3.068 0 0 1-1.417-1.008l-1.912-.273z" fill="#D17918"/>
        <path d="M606.96 60.092c0 2.948-6.233 5.344-13.887 5.344-7.653 0-13.887-2.38-13.887-5.344 0-2.964 6.234-5.34 13.887-5.34 7.654 0 13.887 2.38 13.887 5.34zm3.174 0c0-3.627-7.642-6.563-17.061-6.563s-17.061 2.936-17.061 6.563c0 3.626 7.642 6.562 17.061 6.562s17.061-2.936 17.061-6.562z" fill="#FFC022"/>
        <path d="M581.011 60.091c0-2.555 5.408-4.634 12.058-4.634 6.649 0 12.053 2.08 12.053 4.634 0 2.555-5.407 4.638-12.053 4.638-6.646 0-12.058-2.083-12.058-4.638zm23.584 0c0-2.444-5.158-4.432-11.506-4.432-6.349 0-11.507 1.984-11.507 4.432 0 2.448 5.158 4.432 11.507 4.432 6.348 0 11.506-1.988 11.506-4.432z" fill="#FFC022"/>
        <path d="m591.522 58.299-6.59 1.896v1.33l6.745-2.087a6.804 6.804 0 0 0 2.868 1.222l.306.06v1.19h2.452v-.905c.531.024 1.031.027 1.464.02v.884h2.432V58.35h-2.448v1.706c-.397 0-.921 0-1.464-.02V58.35h-2.436v1.19a3.068 3.068 0 0 1-1.417-1.003l-1.912-.238z" fill="#FFC022"/>
        <path d="M576 56.628c0 3.627 7.642 6.566 17.061 6.566s17.061-2.94 17.061-6.566v-3.099H576v3.099z" fill="#FF931E"/>
        <path d="M591.442 55.12v8.042c.536.02 1.079.031 1.627.031V55.12h-1.627zM588.153 55.12v7.796c.881.099 1.793.174 2.73.222v-8.019h-2.73zM587.478 62.83V53.54H576v3.087c0 2.872 4.797 5.313 11.478 6.201zM599.148 55.12v7.64l.555-.082v-7.559h-.555zM597.024 63.01l.556-.05v-7.84h-.556v7.89zM594.334 55.12v8.05c.27 0 .54 0 .794-.028v-8.023h-.794z" fill="#D17918"/>
        <path d="M593.069 60.092c-9.427 0-17.061-2.94-17.061-6.563 0-3.622 7.642-6.562 17.061-6.562s17.061 2.936 17.061 6.562c0 3.627-7.638 6.563-17.061 6.563z" fill="#FF931E"/>
        <path style="mix-blend-mode:multiply" opacity=".4" d="M602.683 58.955c-.484 0-.972.023-1.468.023-9.423 0-17.061-2.94-17.061-6.562 0-2.254 2.952-4.241 7.451-5.424-8.729.286-15.601 3.103-15.601 6.539 0 3.622 7.642 6.562 17.061 6.562a38.566 38.566 0 0 0 9.618-1.138z" fill="url(#w326mizhwj)"/>
        <path d="M610.122 53.731c-.282-3.531-7.805-6.348-17.061-6.348-9.257 0-16.775 2.829-17.061 6.348.278 3.531 7.804 6.348 17.061 6.348 9.256 0 16.779-2.817 17.061-6.348zm-17.061 5.555c-7.662 0-13.887-2.38-13.887-5.345 0-2.964 6.233-5.34 13.887-5.34 7.654 0 13.887 2.38 13.887 5.34s-6.222 5.337-13.879 5.337l-.008.008z" fill="#D17918"/>
        <path d="m591.522 52.617-6.59 1.897v1.321l6.745-2.083a6.857 6.857 0 0 0 2.868 1.218l.306.06v1.19h2.452v-.905c.531.024 1.031.028 1.464.02v.885h2.432v-3.543h-2.448v1.706c-.488.018-.977.012-1.464-.02v-1.686h-2.436v1.19a3.102 3.102 0 0 1-1.417-1.008l-1.912-.242z" fill="#D17918"/>
        <path d="M606.96 53.53c0 2.943-6.233 5.34-13.887 5.34-7.653 0-13.887-2.38-13.887-5.34s6.234-5.345 13.887-5.345c7.654 0 13.887 2.38 13.887 5.344zm3.174 0c0-3.627-7.642-6.563-17.061-6.563s-17.061 2.936-17.061 6.562c0 3.627 7.642 6.563 17.061 6.563s17.061-2.94 17.061-6.563z" fill="#FFC022"/>
        <path d="M581.011 53.529c0-2.56 5.408-4.638 12.058-4.638 6.65 0 12.053 2.079 12.053 4.638 0 2.559-5.407 4.634-12.053 4.634-6.646 0-12.058-2.079-12.058-4.634zm23.584 0c0-2.444-5.158-4.436-11.506-4.436-6.349 0-11.507 1.984-11.507 4.436s5.158 4.432 11.507 4.432c6.348 0 11.506-1.992 11.506-4.432z" fill="#FFC022"/>
        <path d="m591.522 51.736-6.59 1.897v1.317l6.745-2.083a6.858 6.858 0 0 0 2.868 1.218l.306.06v1.19h2.452v-.905a14.98 14.98 0 0 0 1.464 0v.89h2.432v-3.532h-2.448v1.706h-1.464v-1.686h-2.436v1.19a3.068 3.068 0 0 1-1.417-1.008l-1.912-.254z" fill="#FFC022"/>
        <path d="M576 50.066c0 3.626 7.642 6.562 17.061 6.562s17.061-2.936 17.061-6.563v-3.098H576v3.099z" fill="#FF931E"/>
        <path d="M591.442 48.559V56.6c.536 0 1.079.028 1.627.028v-8.07h-1.627zM588.153 48.559v7.808c.881.103 1.793.178 2.73.222v-8.014l-2.73-.016zM587.478 56.267v-9.289H576v3.087c0 2.873 4.797 5.313 11.478 6.202zM599.148 48.559V56.2l.555-.083v-7.558h-.555zM597.024 56.45l.556-.055v-7.836h-.556v7.891zM594.334 48.559v8.05l.794-.028V48.56h-.794z" fill="#D17918"/>
        <path d="M593.069 53.53c-9.427 0-17.061-2.94-17.061-6.563 0-3.623 7.641-6.567 17.061-6.567 9.419 0 17.061 2.94 17.061 6.567 0 3.626-7.638 6.562-17.061 6.562z" fill="#FF931E"/>
        <path style="mix-blend-mode:multiply" opacity=".4" d="M602.683 52.398c-.484 0-.972.028-1.468.028-9.423 0-17.061-2.94-17.061-6.567 0-2.253 2.952-4.237 7.451-5.42-8.729.286-15.601 3.103-15.601 6.54 0 3.622 7.642 6.562 17.061 6.562a38.55 38.55 0 0 0 9.618-1.143z" fill="url(#yzu04oszxk)"/>
        <path d="M610.122 47.169c-.282-3.532-7.805-6.349-17.061-6.349-9.257 0-16.775 2.83-17.061 6.349.278 3.53 7.804 6.348 17.061 6.348 9.256 0 16.779-2.817 17.061-6.348zm-17.061 5.554c-7.662 0-13.887-2.38-13.887-5.344 0-2.964 6.233-5.34 13.887-5.34 7.654 0 13.887 2.38 13.887 5.34s-6.222 5.336-13.879 5.336l-.008.008z" fill="#D17918"/>
        <path d="m591.522 46.05-6.59 1.901v1.318l6.745-2.084a6.812 6.812 0 0 0 2.868 1.219l.306.06v1.19h2.452v-.905a13.82 13.82 0 0 0 1.464 0v.889h2.432v-3.532h-2.448v1.706c-.397 0-.92 0-1.464-.02v-1.686h-2.436v1.19a3.044 3.044 0 0 1-1.417-1.007l-1.912-.238z" fill="#D17918"/>
        <path d="M606.96 46.967c0 2.944-6.233 5.34-13.887 5.34-7.653 0-13.887-2.38-13.887-5.34s6.234-5.345 13.887-5.345c7.654 0 13.887 2.381 13.887 5.345zm3.174 0c0-3.627-7.642-6.567-17.061-6.567s-17.061 2.94-17.061 6.567c0 3.626 7.642 6.562 17.061 6.562s17.061-2.94 17.061-6.562z" fill="#FFC022"/>
        <path d="M581.011 46.968c0-2.559 5.408-4.638 12.058-4.638 6.65 0 12.053 2.08 12.053 4.638 0 2.56-5.407 4.638-12.053 4.638-6.646 0-12.058-2.083-12.058-4.638zm23.584 0c0-2.448-5.158-4.436-11.506-4.436-6.349 0-11.507 1.984-11.507 4.436s5.158 4.432 11.507 4.432c6.348 0 11.506-1.988 11.506-4.432z" fill="#FFC022"/>
        <path d="m591.522 45.168-6.59 1.9v1.318l6.745-2.083a6.858 6.858 0 0 0 2.868 1.218l.306.06v1.19h2.452v-.905c.531.02 1.031.024 1.464 0v.889h2.432v-3.532h-2.448v1.703c-.488.018-.977.011-1.464-.02v-1.682h-2.436v1.19a3.102 3.102 0 0 1-1.417-1.008l-1.912-.238z" fill="#FFC022"/>
        <path d="M576 43.503c0 3.623 7.642 6.563 17.061 6.563s17.061-2.94 17.061-6.563V40.4H576v3.103z" fill="#FF931E"/>
        <path d="M591.442 41.996v8.023c.536 0 1.079.031 1.627.031v-8.054h-1.627zM588.153 41.996v7.793a41.85 41.85 0 0 0 2.73.222v-8.015h-2.73zM587.478 49.706v-9.292H576v3.09c0 2.87 4.797 5.326 11.478 6.202zM599.148 41.996v7.626c.186-.024.373-.052.555-.083V42l-.555-.004zM597.024 49.888l.556-.056v-7.836h-.556v7.892zM594.334 41.996v8.05l.794-.031v-8.019h-.794z" fill="#D17918"/>
        <path d="M593.069 46.967c-9.427 0-17.061-2.94-17.061-6.567 0-3.626 7.642-6.562 17.061-6.562s17.061 2.936 17.061 6.562c0 3.627-7.638 6.567-17.061 6.567z" fill="#FF931E"/>
        <path style="mix-blend-mode:multiply" opacity=".4" d="M602.683 45.824c-.484 0-.972.024-1.468.024-9.423 0-17.061-2.937-17.061-6.563 0-2.253 2.952-4.241 7.451-5.424-8.729.286-15.601 3.103-15.601 6.539 0 3.627 7.642 6.567 17.061 6.567a38.555 38.555 0 0 0 9.618-1.143z" fill="url(#7bsf0qebll)"/>
        <path d="M610.122 40.604c-.282-3.527-7.805-6.348-17.061-6.348-9.257 0-16.775 2.833-17.061 6.348.278 3.531 7.804 6.348 17.061 6.348 9.256 0 16.779-2.817 17.061-6.348zm-17.061 5.555c-7.662 0-13.887-2.38-13.887-5.34s6.233-5.345 13.887-5.345c7.654 0 13.887 2.38 13.887 5.344 0 2.964-6.222 5.333-13.879 5.333l-.008.008z" fill="#D17918"/>
        <path d="m591.522 39.492-6.59 1.897v1.317l6.745-2.083a6.856 6.856 0 0 0 2.868 1.218l.306.06v1.19h2.452v-.905a14.98 14.98 0 0 0 1.464 0v.889h2.432v-3.531h-2.448v1.702c-.488.025-.976.025-1.464 0v-1.682h-2.436v1.19a3.073 3.073 0 0 1-1.417-1.008l-1.912-.254z" fill="#D17918"/>
        <path d="M606.96 40.4c0 2.948-6.233 5.345-13.887 5.345-7.653 0-13.887-2.38-13.887-5.345 0-2.963 6.234-5.34 13.887-5.34 7.654 0 13.887 2.38 13.887 5.34zm3.174 0c0-3.626-7.642-6.562-17.061-6.562s-17.061 2.936-17.061 6.562c0 3.627 7.642 6.567 17.061 6.567s17.061-2.94 17.061-6.567z" fill="#FFC022"/>
        <path d="M581.011 40.402c0-2.555 5.408-4.634 12.058-4.634 6.649 0 12.053 2.079 12.053 4.634s-5.407 4.638-12.053 4.638c-6.646 0-12.058-2.083-12.058-4.638zm23.584 0c0-2.444-5.158-4.432-11.506-4.432-6.349 0-11.507 1.984-11.507 4.432 0 2.448 5.158 4.432 11.507 4.432 6.348 0 11.506-1.988 11.506-4.432z" fill="#FFC022"/>
        <path d="m591.522 38.607-6.59 1.889v1.321l6.745-2.087a6.81 6.81 0 0 0 2.868 1.222l.306.06v1.19h2.452v-.912c.531.023 1.031.027 1.464.02v.884h2.432v-3.531h-2.448v1.706c-.397 0-.92 0-1.464-.02v-1.686h-2.436v1.19a3.068 3.068 0 0 1-1.417-1.004l-1.912-.242z" fill="#FFC022"/>
        <path d="M599.702 75.809c6.13-.996 10.431-3.333 10.431-6.05v-3.103a2.96 2.96 0 0 0-.603-1.73 2.96 2.96 0 0 0 .603-1.73v-3.103a2.966 2.966 0 0 0-.603-1.742c.379-.5.59-1.106.603-1.733v-3.1a2.972 2.972 0 0 0-.603-1.733 2.96 2.96 0 0 0 .603-1.73v-.036c-3.499-1.23-10.034 4.047-15.025 12.3-3.075 5.079-4.881 10.15-5.182 13.887l.956.055c.714.036 1.444.056 2.186.056s1.389 0 2.067-.048a40.799 40.799 0 0 0 4.238-.416l.329-.044z" fill="#CCC" style="mix-blend-mode:multiply" opacity=".6"/>
        <path d="M619.418 81.95c-3.369 1.337-8.915-4.686-12.387-13.446-3.472-8.76-3.571-16.95-.187-18.287l2.885-1.143 12.573 31.741-2.884 1.135z" fill="#FF931E"/>
        <path d="m615.133 67.041-7.475 2.96a46.742 46.742 0 0 1-.627-1.496l7.503-2.976.599 1.512zM616.343 70.098l-7.244 2.868a38.702 38.702 0 0 1-1.191-2.452l7.451-2.951.984 2.535zM609.427 73.567l8.634-3.424 4.23 10.673-2.873 1.134c-2.666 1.06-6.713-2.503-9.991-8.383zM612.308 59.877l-7.102 2.813a27.023 27.023 0 0 1-.127-.547l7.027-2.778.202.512zM605.738 64.758a26.821 26.821 0 0 1-.151-.536l7.285-2.888.206.516-7.34 2.908zM614.066 64.353l-7.483 2.964a24.766 24.766 0 0 1-.27-.765l7.455-2.952.298.753z" fill="#D17918"/>
        <path d="M609.927 67.36c3.476 8.76 9.023 14.784 12.391 13.447 3.369-1.337 3.285-9.523-.186-18.283-3.472-8.76-9.031-14.784-12.403-13.45-3.373 1.333-3.289 9.522.198 18.286z" fill="#FF931E"/>
        <path style="mix-blend-mode:multiply" opacity=".4" d="M607.432 58.002c.163.452.334.912.516 1.373 3.472 8.76 9.019 14.783 12.391 13.446 2.095-.83 2.853-4.305 2.297-8.923 2.952 8.229 2.861 15.644-.333 16.91-3.368 1.349-8.915-4.686-12.375-13.446a38.65 38.65 0 0 1-2.496-9.36z" fill="url(#ylr77a36bm)"/>
        <path d="M609.928 67.36c3.408 8.598 8.812 14.55 12.196 13.51 3.174-1.563 3.039-9.598-.369-18.196-3.408-8.597-8.828-14.553-12.224-13.513-3.174 1.563-3.023 9.585.397 18.2zm.607-15.184c2.737-1.087 7.261 3.825 10.086 10.947 2.824 7.122 2.888 13.8.15 14.883-2.737 1.083-7.272-3.825-10.101-10.927-2.829-7.102-2.889-13.816-.151-14.903h.016z" fill="#D17918"/>
        <path d="m617.431 66.045.67 6.837-1.226.488-.551-7.05a6.85 6.85 0 0 1-2.191-2.219 9.682 9.682 0 0 1-.17-.262l-1.091.433-.905-2.278.841-.333c-.218-.488-.397-.952-.555-1.357l-.825.33-.901-2.282 3.281-1.297.901 2.277-1.587.627c.139.397.325.861.559 1.353l1.563-.619.905 2.278-1.119.444c.386.448.893.776 1.46.944l.941 1.686z" fill="#D17918"/>
        <path d="M610.895 52.025c2.742-1.087 7.265 3.825 10.086 10.947 2.821 7.122 2.892 13.8.151 14.887-2.742 1.087-7.261-3.829-10.082-10.95-2.821-7.123-2.893-13.797-.155-14.884m-1.167-2.951c-3.372 1.337-3.289 9.522.183 18.286 3.472 8.765 9.022 14.796 12.391 13.447 3.369-1.35 3.285-9.523-.187-18.283-3.471-8.76-9.014-14.784-12.387-13.45z" fill="#FFC022"/>
        <path d="M611.705 66.651c-2.448-6.181-2.507-11.974-.131-12.918 2.377-.945 6.301 3.32 8.753 9.502s2.508 11.974.131 12.915c-2.377.94-6.305-3.321-8.753-9.499zm.191-.075c2.341 5.908 6.094 9.982 8.368 9.082 2.273-.9 2.214-6.44-.127-12.348-2.341-5.907-6.095-9.982-8.368-9.086-2.274.897-2.218 6.444.143 12.352h-.016z" fill="#FFC022"/>
        <path d="m618.26 65.72.666 6.836-1.23.476-.551-7.05a6.856 6.856 0 0 1-2.194-2.219l-.167-.261-1.095.432-.901-2.277.841-.334c-.218-.488-.396-.952-.555-1.357l-.825.33-.905-2.278 3.285-1.301.901 2.277-1.587.627c.139.397.325.861.559 1.353l1.563-.619.905 2.278-1.119.444c.386.448.893.776 1.46.944l.949 1.698z" fill="#FFC022"/>
    </g>
    <path d="M22.586 70 18.75 59.89h-.063c.021.214.04.475.055.782a45.665 45.665 0 0 1 .055 2.11V70h-1.235V58.578h1.97l3.616 9.5h.055l3.672-9.5h1.953V70h-1.312v-7.313c0-.338.005-.677.015-1.015a46.19 46.19 0 0 1 .086-1.766h-.062L23.672 70h-1.086zm16.555-4.297c0 .703-.091 1.33-.274 1.883a3.856 3.856 0 0 1-.789 1.398c-.344.38-.76.672-1.25.875-.484.198-1.034.297-1.648.297a4.095 4.095 0 0 1-1.578-.297 3.561 3.561 0 0 1-1.235-.875 4.04 4.04 0 0 1-.804-1.398c-.188-.552-.282-1.18-.282-1.883 0-.937.16-1.734.477-2.39.317-.662.77-1.165 1.36-1.508.593-.35 1.299-.524 2.116-.524.782 0 1.464.175 2.047.524.589.349 1.044.854 1.367 1.515.329.657.493 1.45.493 2.383zm-6.516 0c0 .688.091 1.284.273 1.79.183.504.464.895.844 1.171.38.276.87.414 1.469.414.594 0 1.08-.138 1.46-.414.386-.276.67-.667.852-1.172.183-.505.274-1.101.274-1.789 0-.682-.091-1.27-.274-1.766-.182-.5-.463-.885-.843-1.156-.38-.27-.873-.406-1.477-.406-.89 0-1.544.294-1.96.883-.412.588-.618 1.404-.618 2.445zm12.813-4.422c1.015 0 1.783.25 2.304.75.521.495.781 1.292.781 2.39V70h-1.28v-5.492c0-.714-.165-1.248-.493-1.602-.323-.354-.82-.531-1.492-.531-.948 0-1.615.268-2 .805-.386.536-.578 1.315-.578 2.336V70h-1.297v-8.563h1.047l.195 1.235h.07c.183-.302.414-.555.696-.758a3.03 3.03 0 0 1 .945-.469c.349-.11.716-.164 1.102-.164zm8.523 7.813c.214 0 .432-.018.656-.055.224-.036.406-.08.547-.133v1.008a2.747 2.747 0 0 1-.633.172c-.265.047-.526.07-.781.07-.453 0-.865-.078-1.234-.234a1.912 1.912 0 0 1-.891-.813c-.219-.38-.328-.906-.328-1.578v-5.078h-1.219v-.633l1.227-.508.515-1.859h.782v1.984h2.507v1.016h-2.507v5.04c0 .536.122.937.367 1.202.25.266.58.399.992.399zm4.234-11.25v3.633c0 .208-.005.419-.015.632a6.08 6.08 0 0 1-.055.578h.086c.177-.302.401-.554.672-.757.276-.209.588-.365.937-.47.35-.108.72-.163 1.11-.163.687 0 1.26.11 1.718.328.464.219.81.557 1.04 1.016.234.458.351 1.052.351 1.78V70h-1.281v-5.492c0-.714-.164-1.248-.492-1.602-.323-.354-.82-.531-1.493-.531-.635 0-1.143.122-1.523.367-.375.24-.646.594-.813 1.063-.161.468-.242 1.041-.242 1.718V70h-1.297V57.844h1.297zM68.015 70h-1.304V57.844h1.305V70zm1.391-8.563h1.39l1.891 4.97c.11.29.211.572.305.843.094.266.177.52.25.766.073.244.13.481.172.71h.055a42.765 42.765 0 0 1 .75-2.328l1.789-4.96h1.398l-3.726 9.82a6.52 6.52 0 0 1-.696 1.375c-.26.39-.578.69-.953.898-.375.214-.828.32-1.36.32-.244 0-.46-.015-.648-.046a4.013 4.013 0 0 1-.484-.094v-1.04a4.502 4.502 0 0 0 .93.102 1.71 1.71 0 0 0 1.453-.719 3.61 3.61 0 0 0 .445-.835l.469-1.203-3.43-8.579zm14.82 0V70H82.93v-8.563h1.297zm-.632-3.203c.213 0 .396.07.547.211.156.136.234.35.234.64 0 .287-.078.5-.234.642a.774.774 0 0 1-.547.21.794.794 0 0 1-.563-.21c-.146-.141-.219-.355-.219-.641 0-.292.073-.505.22-.64a.794.794 0 0 1 .562-.212zm7.437 3.047c1.016 0 1.784.25 2.305.75.52.495.781 1.292.781 2.39V70h-1.281v-5.492c0-.714-.164-1.248-.492-1.602-.323-.354-.82-.531-1.492-.531-.948 0-1.615.268-2 .805-.386.536-.579 1.315-.579 2.336V70h-1.296v-8.563h1.046l.196 1.235h.07c.182-.302.414-.555.695-.758.282-.208.597-.364.946-.469a3.66 3.66 0 0 1 1.101-.164zM98.671 70l-3.25-8.563h1.391l1.883 5.18c.13.354.263.745.399 1.172.135.427.229.77.281 1.031h.055c.062-.26.166-.604.312-1.03.146-.433.279-.824.399-1.173l1.882-5.18h1.391L100.156 70h-1.484zm9.415-8.719c.729 0 1.354.162 1.875.485.521.323.919.776 1.195 1.359.276.578.414 1.255.414 2.031v.805h-5.914c.016 1.005.266 1.77.75 2.297.485.526 1.167.789 2.047.789.542 0 1.021-.05 1.438-.149a7.947 7.947 0 0 0 1.297-.437v1.14a6.314 6.314 0 0 1-1.29.422 7.375 7.375 0 0 1-1.5.133c-.822 0-1.541-.166-2.156-.5a3.502 3.502 0 0 1-1.422-1.484c-.338-.651-.508-1.448-.508-2.39 0-.923.154-1.72.461-2.391.313-.677.75-1.198 1.313-1.563.568-.364 1.234-.547 2-.547zm-.016 1.063c-.692 0-1.244.226-1.656.68-.411.453-.656 1.085-.734 1.898h4.531c-.005-.51-.086-.958-.242-1.344a1.884 1.884 0 0 0-.696-.906c-.312-.219-.713-.328-1.203-.328zm11.242 5.312c0 .547-.138 1.008-.414 1.383-.27.37-.661.648-1.171.836-.506.188-1.11.281-1.813.281a7.51 7.51 0 0 1-1.555-.14 4.5 4.5 0 0 1-1.148-.399v-1.195c.349.172.766.328 1.25.469.484.14.979.21 1.484.21.74 0 1.276-.12 1.61-.359.333-.24.5-.565.5-.976a.99.99 0 0 0-.203-.618c-.131-.182-.352-.356-.664-.523a9.884 9.884 0 0 0-1.297-.563 14.956 14.956 0 0 1-1.422-.617c-.396-.208-.703-.46-.922-.757-.214-.297-.32-.683-.32-1.157 0-.724.291-1.278.875-1.664.588-.39 1.359-.586 2.312-.586.516 0 .997.052 1.445.157.453.098.875.234 1.266.406l-.437 1.039a8.08 8.08 0 0 0-1.133-.383 4.859 4.859 0 0 0-1.227-.156c-.599 0-1.06.099-1.383.297-.317.198-.476.468-.476.812 0 .266.073.484.219.656.151.172.39.334.718.485.328.15.761.328 1.297.531.537.198 1 .404 1.391.617.39.209.69.464.898.766.214.297.32.68.32 1.148zm4.852 1.438c.214 0 .432-.018.656-.055.224-.036.407-.08.547-.133v1.008a2.745 2.745 0 0 1-.633.172c-.265.047-.526.07-.781.07-.453 0-.864-.078-1.234-.234a1.912 1.912 0 0 1-.891-.813c-.219-.38-.328-.906-.328-1.578v-5.078h-1.219v-.633l1.227-.508.515-1.859h.782v1.984h2.507v1.016h-2.507v5.04c0 .536.122.937.367 1.202.25.266.581.399.992.399zm12.234-7.813c.943 0 1.654.248 2.133.742.479.49.719 1.28.719 2.368V70h-1.281v-5.547c0-.693-.151-1.21-.453-1.555-.297-.349-.74-.523-1.328-.523-.829 0-1.43.24-1.805.719s-.563 1.185-.563 2.117V70h-1.289v-5.547c0-.463-.067-.849-.203-1.156a1.38 1.38 0 0 0-.594-.688c-.26-.156-.591-.234-.992-.234-.568 0-1.023.117-1.367.352-.344.234-.594.583-.75 1.046-.151.459-.227 1.024-.227 1.696V70h-1.296v-8.563h1.046l.196 1.211h.07c.172-.296.388-.546.648-.75.261-.203.553-.356.876-.46a3.33 3.33 0 0 1 1.031-.157c.651 0 1.195.123 1.633.367.442.24.763.607.96 1.102h.071a2.645 2.645 0 0 1 1.156-1.102 3.548 3.548 0 0 1 1.609-.367zm8.813 0c.729 0 1.354.162 1.875.485.521.323.919.776 1.195 1.359.276.578.414 1.255.414 2.031v.805h-5.914c.016 1.005.266 1.77.75 2.297.485.526 1.167.789 2.047.789.542 0 1.021-.05 1.438-.149a7.905 7.905 0 0 0 1.296-.437v1.14a6.286 6.286 0 0 1-1.289.422 7.375 7.375 0 0 1-1.5.133c-.822 0-1.541-.166-2.156-.5a3.502 3.502 0 0 1-1.422-1.484c-.338-.651-.507-1.448-.507-2.39 0-.923.153-1.72.46-2.391.313-.677.75-1.198 1.313-1.563.568-.364 1.234-.547 2-.547zm-.016 1.063c-.692 0-1.244.226-1.656.68-.411.453-.656 1.085-.734 1.898h4.531c-.005-.51-.086-.958-.242-1.344a1.884 1.884 0 0 0-.696-.906c-.312-.219-.713-.328-1.203-.328zm9.758-1.063c1.016 0 1.784.25 2.305.75.521.495.781 1.292.781 2.39V70h-1.281v-5.492c0-.714-.164-1.248-.492-1.602-.323-.354-.821-.531-1.493-.531-.947 0-1.614.268-2 .805-.385.536-.578 1.315-.578 2.336V70h-1.297v-8.563h1.047l.196 1.235h.07c.182-.302.414-.555.695-.758a3.04 3.04 0 0 1 .946-.469 3.66 3.66 0 0 1 1.101-.164zm8.524 7.813c.213 0 .432-.018.656-.055.224-.036.406-.08.547-.133v1.008a2.745 2.745 0 0 1-.633.172 4.49 4.49 0 0 1-.781.07c-.454 0-.865-.078-1.235-.234a1.91 1.91 0 0 1-.89-.813c-.219-.38-.329-.906-.329-1.578v-5.078h-1.218v-.633l1.226-.508.516-1.859h.781v1.984h2.508v1.016h-2.508v5.04c0 .536.123.937.367 1.202.25.266.581.399.993.399zm8.476-1.438c0 .547-.138 1.008-.414 1.383-.271.37-.661.648-1.172.836-.505.188-1.109.281-1.812.281a7.51 7.51 0 0 1-1.555-.14 4.487 4.487 0 0 1-1.148-.399v-1.195c.349.172.765.328 1.25.469.484.14.979.21 1.484.21.74 0 1.276-.12 1.609-.359.334-.24.5-.565.5-.976a.984.984 0 0 0-.203-.618c-.13-.182-.351-.356-.664-.523a9.824 9.824 0 0 0-1.297-.563 14.956 14.956 0 0 1-1.422-.617c-.395-.208-.703-.46-.921-.757-.214-.297-.321-.683-.321-1.157 0-.724.292-1.278.875-1.664.589-.39 1.36-.586 2.313-.586.515 0 .997.052 1.445.157.453.098.875.234 1.266.406l-.438 1.039a8.037 8.037 0 0 0-1.133-.383 4.857 4.857 0 0 0-1.226-.156c-.599 0-1.06.099-1.383.297-.318.198-.477.468-.477.812 0 .266.073.484.219.656.151.172.391.334.719.485.328.15.76.328 1.297.531.536.198 1 .404 1.39.617.391.209.69.464.899.766.213.297.32.68.32 1.148zm3.57.485.102.18c-.094.38-.214.786-.359 1.218-.141.432-.297.865-.469 1.297a22.12 22.12 0 0 1-.508 1.227h-.969a38.65 38.65 0 0 0 .602-2.68c.088-.453.159-.867.211-1.242h1.39zm9.579.953c.213 0 .432-.018.656-.055.224-.036.406-.08.547-.133v1.008a2.745 2.745 0 0 1-.633.172 4.49 4.49 0 0 1-.781.07c-.453 0-.865-.078-1.235-.234a1.91 1.91 0 0 1-.89-.813c-.219-.38-.328-.906-.328-1.578v-5.078h-1.219v-.633l1.226-.508.516-1.859h.781v1.984h2.508v1.016h-2.508v5.04c0 .536.123.937.367 1.202.25.266.581.399.993.399zm10.32-3.39c0 .702-.091 1.33-.274 1.882a3.849 3.849 0 0 1-.789 1.398c-.343.38-.76.672-1.25.875-.484.198-1.033.297-1.648.297a4.093 4.093 0 0 1-1.578-.297 3.565 3.565 0 0 1-1.235-.875 4.04 4.04 0 0 1-.804-1.398c-.188-.552-.282-1.18-.282-1.883 0-.937.159-1.734.477-2.39.318-.662.771-1.165 1.359-1.508.594-.35 1.3-.524 2.118-.524.781 0 1.463.175 2.046.524.589.349 1.045.854 1.368 1.515.328.657.492 1.45.492 2.383zm-6.516 0c0 .687.091 1.283.274 1.788.182.505.463.896.843 1.172.381.276.87.414 1.469.414.594 0 1.081-.138 1.461-.414.386-.276.669-.667.852-1.172.182-.505.273-1.101.273-1.789 0-.682-.091-1.27-.273-1.766-.183-.5-.464-.885-.844-1.156-.38-.27-.872-.406-1.477-.406-.89 0-1.544.294-1.961.883-.411.588-.617 1.404-.617 2.445zm15.305 8.14c-1.125 0-1.992-.211-2.602-.633-.609-.417-.914-1.003-.914-1.758 0-.536.17-.995.508-1.375.344-.38.818-.633 1.422-.758a1.554 1.554 0 0 1-.578-.468 1.168 1.168 0 0 1-.235-.72c0-.312.086-.585.258-.82.177-.24.446-.468.805-.687a2.339 2.339 0 0 1-1.094-.922c-.276-.437-.414-.945-.414-1.523 0-.615.128-1.138.383-1.57a2.47 2.47 0 0 1 1.109-1c.485-.23 1.071-.344 1.758-.344.151 0 .302.007.453.023.157.01.305.029.446.055.14.02.263.047.367.078h2.937v.836l-1.578.195a2.776 2.776 0 0 1 .547 1.688c0 .854-.289 1.534-.867 2.039-.578.5-1.373.75-2.383.75-.24 0-.484-.021-.734-.063-.256.14-.451.297-.586.469a.959.959 0 0 0-.196.594c0 .166.05.3.149.398a.962.962 0 0 0 .445.219c.193.041.425.062.695.062h1.508c.933 0 1.646.196 2.141.586.5.39.75.961.75 1.711 0 .948-.385 1.675-1.156 2.18-.771.505-1.886.758-3.344.758zm.039-1.016c.708 0 1.294-.073 1.758-.219.469-.14.818-.346 1.047-.617.234-.265.351-.583.351-.953 0-.344-.078-.604-.234-.781-.156-.172-.386-.287-.688-.344a5.577 5.577 0 0 0-1.109-.094h-1.484c-.386 0-.722.06-1.008.18-.287.12-.508.297-.664.531-.151.235-.227.526-.227.875 0 .464.196.815.586 1.055.391.245.948.367 1.672.367zm.336-6.844c.62 0 1.086-.156 1.398-.468.313-.313.469-.769.469-1.368 0-.64-.159-1.12-.476-1.437-.318-.323-.787-.484-1.407-.484-.593 0-1.052.166-1.375.5-.317.328-.476.81-.476 1.445 0 .583.161 1.031.484 1.344.323.312.784.468 1.383.468zm9.812-4.703c.172 0 .352.01.54.032.187.015.354.039.5.07l-.165 1.203a4.055 4.055 0 0 0-.953-.117c-.343 0-.669.07-.976.21a2.315 2.315 0 0 0-.797.594 2.763 2.763 0 0 0-.539.93c-.13.36-.196.76-.196 1.203V70h-1.304v-8.563h1.078l.141 1.579h.054c.177-.318.391-.607.641-.868.25-.265.539-.476.867-.632a2.58 2.58 0 0 1 1.109-.235zm10.04 4.422c0 .703-.092 1.33-.274 1.883a3.849 3.849 0 0 1-.789 1.398c-.344.38-.76.672-1.25.875-.484.198-1.034.297-1.648.297a4.102 4.102 0 0 1-1.579-.297 3.56 3.56 0 0 1-1.234-.875 4.043 4.043 0 0 1-.805-1.398c-.187-.552-.281-1.18-.281-1.883 0-.937.159-1.734.477-2.39.317-.662.771-1.165 1.359-1.508.594-.35 1.3-.524 2.117-.524.781 0 1.464.175 2.047.524.589.349 1.044.854 1.367 1.515.328.657.493 1.45.493 2.383zm-6.516 0c0 .688.091 1.284.273 1.79.183.504.464.895.844 1.171.38.276.87.414 1.469.414.594 0 1.081-.138 1.461-.414.385-.276.669-.667.851-1.172.183-.505.274-1.101.274-1.789 0-.682-.091-1.27-.274-1.766-.182-.5-.463-.885-.843-1.156-.381-.27-.873-.406-1.477-.406-.891 0-1.544.294-1.961.883-.411.588-.617 1.404-.617 2.445zm15.726 4.281L232.125 65a54.316 54.316 0 0 1-.195-.625l-.164-.594c-.047-.192-.092-.37-.133-.531l-.094-.43h-.055c-.02.12-.049.263-.086.43-.036.161-.08.339-.132.531-.047.193-.099.396-.157.61a10.6 10.6 0 0 1-.195.632l-1.594 4.961h-1.461l-2.359-8.562h1.344l1.234 4.726c.083.313.162.623.234.93.079.302.144.589.196.86.057.265.099.497.125.695h.062c.032-.13.065-.287.102-.469l.133-.578c.052-.208.106-.414.164-.617.057-.209.114-.404.172-.586l1.578-4.961h1.398l1.524 4.953c.078.25.153.51.226.781.078.271.149.534.211.79.063.25.107.473.133.671h.062a6.78 6.78 0 0 1 .118-.656 63.4 63.4 0 0 1 .195-.86c.078-.312.159-.63.242-.953l1.25-4.726h1.32l-2.367 8.562h-1.508zm8.243-8.546h1.39l1.891 4.968c.109.292.211.573.305.844.093.266.177.52.25.766.072.244.13.481.171.71h.055c.073-.26.177-.601.313-1.023.135-.427.281-.862.437-1.305l1.789-4.96h1.399l-3.727 9.82c-.198.526-.43.984-.695 1.375a2.75 2.75 0 0 1-.953.898c-.375.214-.828.32-1.36.32-.245 0-.461-.015-.648-.046a4.031 4.031 0 0 1-.485-.094v-1.04a4.523 4.523 0 0 0 .93.102c.323 0 .602-.062.836-.187.24-.12.445-.297.617-.531.172-.235.321-.513.446-.836l.468-1.203-3.429-8.579zm16.75 4.265c0 .703-.092 1.33-.274 1.883a3.849 3.849 0 0 1-.789 1.398c-.344.38-.76.672-1.25.875-.484.198-1.034.297-1.648.297a4.093 4.093 0 0 1-1.578-.297 3.565 3.565 0 0 1-1.235-.875 4.043 4.043 0 0 1-.805-1.398c-.187-.552-.281-1.18-.281-1.883 0-.937.159-1.734.477-2.39.318-.662.771-1.165 1.359-1.508.594-.35 1.3-.524 2.117-.524.782 0 1.464.175 2.047.524.589.349 1.045.854 1.367 1.515.329.657.493 1.45.493 2.383zm-6.516 0c0 .688.091 1.284.273 1.79.183.504.464.895.844 1.171.38.276.87.414 1.469.414.594 0 1.081-.138 1.461-.414.385-.276.669-.667.851-1.172.183-.505.274-1.101.274-1.789 0-.682-.091-1.27-.274-1.766-.182-.5-.463-.885-.843-1.156-.381-.27-.873-.406-1.477-.406-.891 0-1.544.294-1.961.883-.411.588-.617 1.404-.617 2.445zm15.828-4.266V70h-1.062l-.188-1.203h-.07a2.479 2.479 0 0 1-.688.75 2.984 2.984 0 0 1-.953.453 3.884 3.884 0 0 1-1.117.156c-.677 0-1.245-.11-1.703-.328a2.207 2.207 0 0 1-1.039-1.016c-.229-.458-.344-1.046-.344-1.765v-5.61h1.313v5.516c0 .714.161 1.248.484 1.602.323.349.815.523 1.476.523.636 0 1.141-.12 1.516-.36.38-.239.654-.59.82-1.054.167-.469.25-1.042.25-1.719v-4.507h1.305zm6.633-.156c.172 0 .352.01.539.032.187.015.354.039.5.07l-.164 1.203a4.04 4.04 0 0 0-.953-.117c-.344 0-.669.07-.977.21a2.325 2.325 0 0 0-.797.594 2.78 2.78 0 0 0-.539.93c-.13.36-.195.76-.195 1.203V70h-1.305v-8.563h1.078l.141 1.579h.055c.177-.318.39-.607.64-.868.25-.265.539-.476.868-.632a2.58 2.58 0 0 1 1.109-.235zm13.781 8.703L286.844 65a86.195 86.195 0 0 1-.196-.625l-.164-.594c-.046-.192-.091-.37-.132-.531l-.094-.43h-.055a9.803 9.803 0 0 1-.219.961c-.046.193-.099.396-.156.61a10.6 10.6 0 0 1-.195.632l-1.594 4.961h-1.461l-2.359-8.562h1.343l1.235 4.726c.083.313.161.623.234.93.078.302.143.589.196.86.057.265.099.497.125.695h.062c.031-.13.065-.287.102-.469l.132-.578a26.129 26.129 0 0 1 .336-1.203l1.578-4.961h1.399l1.523 4.953c.078.25.154.51.227.781.078.271.148.534.211.79.062.25.107.473.133.671h.062c.021-.177.06-.396.117-.656.058-.26.123-.547.196-.86.078-.312.159-.63.242-.953l1.25-4.726h1.32l-2.367 8.562h-1.508zm8.735-8.703c.729 0 1.354.162 1.875.485.52.323.919.776 1.195 1.359.276.578.414 1.255.414 2.031v.805h-5.914c.016 1.005.266 1.77.75 2.297.484.526 1.167.789 2.047.789.541 0 1.021-.05 1.437-.149a7.915 7.915 0 0 0 1.297-.437v1.14a6.306 6.306 0 0 1-1.289.422 7.389 7.389 0 0 1-1.5.133c-.823 0-1.542-.166-2.156-.5a3.49 3.49 0 0 1-1.422-1.484c-.339-.651-.508-1.448-.508-2.39 0-.923.154-1.72.461-2.391.313-.677.75-1.198 1.313-1.563.567-.364 1.234-.547 2-.547zm-.016 1.063c-.693 0-1.245.226-1.656.68-.412.453-.657 1.085-.735 1.898h4.532c-.006-.51-.086-.958-.243-1.344a1.883 1.883 0 0 0-.695-.906c-.312-.219-.713-.328-1.203-.328zm8.906-1.047c1.021 0 1.779.229 2.274.687.494.459.742 1.19.742 2.196V70h-.946l-.25-1.266h-.062c-.24.313-.49.576-.75.79a2.78 2.78 0 0 1-.906.476c-.339.104-.755.156-1.25.156-.521 0-.985-.09-1.391-.273a2.163 2.163 0 0 1-.953-.828c-.229-.37-.344-.839-.344-1.407 0-.854.339-1.51 1.016-1.968.677-.459 1.708-.709 3.094-.75l1.476-.063v-.523c0-.74-.159-1.258-.476-1.555-.318-.297-.766-.445-1.344-.445a4.17 4.17 0 0 0-1.281.195c-.407.13-.792.284-1.157.461l-.398-.984a7.126 7.126 0 0 1 1.328-.508c.5-.14 1.026-.211 1.578-.211zm1.735 4.484-1.305.055c-1.068.042-1.82.216-2.258.523-.437.308-.656.743-.656 1.305 0 .49.148.852.445 1.086.297.234.69.352 1.18.352.76 0 1.383-.211 1.867-.633.484-.422.727-1.055.727-1.899v-.789zM312.984 70h-1.304V57.844h1.304V70zm5.508-.906c.214 0 .432-.018.656-.055.224-.036.407-.08.547-.133v1.008a2.745 2.745 0 0 1-.633.172c-.265.047-.526.07-.781.07-.453 0-.864-.078-1.234-.234a1.912 1.912 0 0 1-.891-.813c-.218-.38-.328-.906-.328-1.578v-5.078h-1.219v-.633l1.227-.508.516-1.859h.781v1.984h2.508v1.016h-2.508v5.04c0 .536.122.937.367 1.202.25.266.581.399.992.399zm4.235-11.25v3.633c0 .208-.006.419-.016.632-.01.209-.029.401-.055.578h.086a2.54 2.54 0 0 1 .672-.757c.276-.209.589-.365.938-.47.349-.108.718-.163 1.109-.163.687 0 1.26.11 1.719.328.463.219.81.557 1.039 1.016.234.458.351 1.052.351 1.78V70h-1.281v-5.492c0-.714-.164-1.248-.492-1.602-.323-.354-.82-.531-1.492-.531-.636 0-1.144.122-1.524.367-.375.24-.646.594-.812 1.063-.162.468-.242 1.041-.242 1.718V70h-1.297V57.844h1.297zm20.054 7.86c0 .702-.091 1.33-.273 1.882a3.863 3.863 0 0 1-.789 1.398c-.344.38-.761.672-1.25.875-.485.198-1.034.297-1.649.297a4.093 4.093 0 0 1-1.578-.297 3.56 3.56 0 0 1-1.234-.875 4.043 4.043 0 0 1-.805-1.398c-.187-.552-.281-1.18-.281-1.883 0-.937.159-1.734.476-2.39.318-.662.771-1.165 1.36-1.508.594-.35 1.299-.524 2.117-.524.781 0 1.464.175 2.047.524.588.349 1.044.854 1.367 1.515.328.657.492 1.45.492 2.383zm-6.515 0c0 .687.091 1.283.273 1.788.182.505.464.896.844 1.172.38.276.87.414 1.469.414.593 0 1.08-.138 1.46-.414.386-.276.67-.667.852-1.172.182-.505.274-1.101.274-1.789 0-.682-.092-1.27-.274-1.766-.182-.5-.463-.885-.844-1.156-.38-.27-.872-.406-1.476-.406-.891 0-1.545.294-1.961.883-.412.588-.617 1.404-.617 2.445zM346.906 70l-3.25-8.563h1.391l1.883 5.18c.13.354.263.745.398 1.172.136.427.229.77.281 1.031h.055c.063-.26.167-.604.313-1.03.145-.433.278-.824.398-1.173l1.883-5.18h1.39L348.391 70h-1.485zm9.414-8.719c.729 0 1.354.162 1.875.485.521.323.92.776 1.196 1.359.276.578.414 1.255.414 2.031v.805h-5.914c.015 1.005.265 1.77.75 2.297.484.526 1.166.789 2.047.789.541 0 1.02-.05 1.437-.149a7.915 7.915 0 0 0 1.297-.437v1.14a6.306 6.306 0 0 1-1.289.422 7.389 7.389 0 0 1-1.5.133c-.823 0-1.542-.166-2.156-.5a3.49 3.49 0 0 1-1.422-1.484c-.339-.651-.508-1.448-.508-2.39 0-.923.154-1.72.461-2.391.312-.677.75-1.198 1.312-1.563.568-.364 1.235-.547 2-.547zm-.015 1.063c-.693 0-1.245.226-1.657.68-.411.453-.656 1.085-.734 1.898h4.531c-.005-.51-.086-.958-.242-1.344a1.889 1.889 0 0 0-.695-.906c-.313-.219-.714-.328-1.203-.328zm9.593-1.063c.172 0 .352.01.54.032.187.015.354.039.5.07l-.165 1.203a4.055 4.055 0 0 0-.953-.117c-.343 0-.669.07-.976.21a2.315 2.315 0 0 0-.797.594 2.763 2.763 0 0 0-.539.93c-.13.36-.196.76-.196 1.203V70h-1.304v-8.563h1.078l.141 1.579h.054c.177-.318.391-.607.641-.868.25-.265.539-.476.867-.632a2.58 2.58 0 0 1 1.109-.235zm9.579 7.813c.213 0 .432-.018.656-.055.224-.036.406-.08.547-.133v1.008a2.745 2.745 0 0 1-.633.172 4.49 4.49 0 0 1-.781.07c-.454 0-.865-.078-1.235-.234a1.91 1.91 0 0 1-.89-.813c-.219-.38-.329-.906-.329-1.578v-5.078h-1.218v-.633l1.226-.508.516-1.859h.781v1.984h2.508v1.016h-2.508v5.04c0 .536.123.937.367 1.202.25.266.581.399.993.399zm4.234-7.656V70h-1.297v-8.563h1.297zm-.633-3.204c.214 0 .396.07.547.211.156.136.234.35.234.64 0 .287-.078.5-.234.642a.773.773 0 0 1-.547.21.793.793 0 0 1-.562-.21c-.146-.141-.219-.355-.219-.641 0-.292.073-.505.219-.64a.793.793 0 0 1 .562-.212zm12.68 3.047c.943 0 1.653.248 2.133.742.479.49.718 1.28.718 2.368V70h-1.281v-5.547c0-.693-.151-1.21-.453-1.555-.297-.349-.74-.523-1.328-.523-.828 0-1.43.24-1.805.719s-.562 1.185-.562 2.117V70h-1.289v-5.547c0-.463-.068-.849-.203-1.156a1.389 1.389 0 0 0-.594-.688c-.261-.156-.591-.234-.992-.234-.568 0-1.024.117-1.368.352-.343.234-.593.583-.75 1.046-.151.459-.226 1.024-.226 1.696V70h-1.297v-8.563h1.047l.195 1.211h.07c.172-.296.388-.546.649-.75.26-.203.552-.356.875-.46a3.34 3.34 0 0 1 1.031-.157c.651 0 1.195.123 1.633.367.443.24.763.607.961 1.102h.07a2.65 2.65 0 0 1 1.156-1.102 3.55 3.55 0 0 1 1.61-.367zm8.812 0c.729 0 1.354.162 1.875.485.521.323.92.776 1.196 1.359.276.578.414 1.255.414 2.031v.805h-5.914c.015 1.005.265 1.77.75 2.297.484.526 1.166.789 2.047.789.541 0 1.02-.05 1.437-.149a7.915 7.915 0 0 0 1.297-.437v1.14a6.306 6.306 0 0 1-1.289.422 7.389 7.389 0 0 1-1.5.133c-.823 0-1.542-.166-2.156-.5a3.49 3.49 0 0 1-1.422-1.484c-.339-.651-.508-1.448-.508-2.39 0-.923.154-1.72.461-2.391.312-.677.75-1.198 1.312-1.563.568-.364 1.235-.547 2-.547zm-.015 1.063c-.693 0-1.245.226-1.657.68-.411.453-.656 1.085-.734 1.898h4.531c-.005-.51-.086-.958-.242-1.344a1.889 1.889 0 0 0-.695-.906c-.313-.219-.714-.328-1.203-.328zm5.507 6.843c0-.364.089-.622.266-.773a.945.945 0 0 1 .649-.234c.265 0 .489.078.671.234.183.151.274.409.274.773 0 .36-.091.623-.274.79a.976.976 0 0 1-.671.242.928.928 0 0 1-.649-.242c-.177-.167-.266-.43-.266-.79z" fill="#333"/>
    <defs>
        <linearGradient id="wxkc0xd0hc" x1="604.769" y1="40.283" x2="604.769" y2="53.388" gradientUnits="userSpaceOnUse">
            <stop stop-color="#fff"/>
            <stop offset="1" stop-color="#D17918"/>
        </linearGradient>
        <linearGradient id="pbgzxbb73d" x1="604.769" y1="33.719" x2="604.769" y2="46.82" gradientUnits="userSpaceOnUse">
            <stop stop-color="#fff"/>
            <stop offset="1" stop-color="#D17918"/>
        </linearGradient>
        <linearGradient id="cuh0evy2ge" x1="604.769" y1="27.156" x2="604.769" y2="40.257" gradientUnits="userSpaceOnUse">
            <stop stop-color="#fff"/>
            <stop offset="1" stop-color="#D17918"/>
        </linearGradient>
        <linearGradient id="09kr6nh1cf" x1="604.769" y1="20.59" x2="604.769" y2="33.695" gradientUnits="userSpaceOnUse">
            <stop stop-color="#fff"/>
            <stop offset="1" stop-color="#D17918"/>
        </linearGradient>
        <linearGradient id="tctavskvgg" x1="604.769" y1="14.027" x2="604.769" y2="27.128" gradientUnits="userSpaceOnUse">
            <stop stop-color="#fff"/>
            <stop offset="1" stop-color="#D17918"/>
        </linearGradient>
        <linearGradient id="7mmkerx52h" x1="589.344" y1="60.119" x2="589.344" y2="73.22" gradientUnits="userSpaceOnUse">
            <stop stop-color="#fff"/>
            <stop offset="1" stop-color="#D17918"/>
        </linearGradient>
        <linearGradient id="wd32n0706i" x1="589.344" y1="53.557" x2="589.344" y2="66.658" gradientUnits="userSpaceOnUse">
            <stop stop-color="#fff"/>
            <stop offset="1" stop-color="#D17918"/>
        </linearGradient>
        <linearGradient id="w326mizhwj" x1="589.344" y1="46.992" x2="589.344" y2="60.093" gradientUnits="userSpaceOnUse">
            <stop stop-color="#fff"/>
            <stop offset="1" stop-color="#D17918"/>
        </linearGradient>
        <linearGradient id="yzu04oszxk" x1="589.344" y1="40.428" x2="589.344" y2="53.529" gradientUnits="userSpaceOnUse">
            <stop stop-color="#fff"/>
            <stop offset="1" stop-color="#D17918"/>
        </linearGradient>
        <linearGradient id="7bsf0qebll" x1="589.344" y1="33.865" x2="589.344" y2="46.967" gradientUnits="userSpaceOnUse">
            <stop stop-color="#fff"/>
            <stop offset="1" stop-color="#D17918"/>
        </linearGradient>
        <linearGradient id="ylr77a36bm" x1="623.833" y1="66.16" x2="611.649" y2="71.007" gradientUnits="userSpaceOnUse">
            <stop stop-color="#fff"/>
            <stop offset="1" stop-color="#D17918"/>
        </linearGradient>
        <clipPath id="dcmff2m3db">
            <path fill="#fff" transform="translate(576 14)" d="M0 0h49.56v68.136H0z"/>
        </clipPath>
    </defs>
</svg>
