<svg width="110" height="110" viewBox="0 0 110 110" fill="none" xmlns="http://www.w3.org/2000/svg">
<path d="M102.268 62.732C106.538 36.6266 88.8374 12.0023 62.7319 7.73206C36.6265 3.46181 12.0022 21.1627 7.73197 47.2681C3.46172 73.3735 21.1626 97.9979 47.268 102.268C73.3734 106.538 97.9978 88.8374 102.268 62.732Z" fill="#FF451C"/>
<path d="M69.7134 91.0129C89.6162 82.8866 99.163 60.1646 91.0368 40.2618C82.9105 20.359 60.1885 10.8123 40.2857 18.9385C20.3829 27.0647 10.8361 49.7867 18.9624 69.6895C27.0886 89.5923 49.8106 99.1391 69.7134 91.0129Z" fill="#F7E1C1"/>
<path d="M55.004 34.2725L61.737 47.9106L76.7906 50.1104L65.9069 60.7263L68.47 75.7226L55.004 68.6262L41.5379 75.7226L44.1202 60.7263L33.2173 50.1104L48.2709 47.9106L55.004 34.2725Z" fill="#FF2A00"/>
</svg>
