<svg width="26" height="26" viewBox="0 0 72 72" fill="none" xmlns="http://www.w3.org/2000/svg">
<path d="M72 36C72 55.8823 55.8823 72 36 72C16.1177 72 0 55.8823 0 36C0 16.1177 16.1177 0 36 0C55.8823 0 72 16.1177 72 36Z" fill="#043B73"/>
<path d="M51.6667 34.0733L51.5458 33.8545C51.4621 33.9007 51.3808 33.9528 51.3074 33.9999C51.2963 34.0071 51.2853 34.0141 51.2745 34.021C51.1895 34.0754 51.1132 34.1226 51.0357 34.161L51.0351 34.1613C48.961 35.1951 46.2929 35.75 43.3333 35.75C41.5166 35.75 39.8195 35.5307 38.2913 35.1331L37.9189 35.0362L37.9817 35.4158C37.994 35.4905 38.0125 35.572 38.0289 35.6448C38.0361 35.6768 38.043 35.7071 38.0488 35.7343C38.0698 35.8334 38.0833 35.9189 38.0833 36V38.5517V38.733L38.2557 38.7893C39.895 39.3245 41.6096 39.5926 43.334 39.5833C43.3342 39.5833 43.3345 39.5833 43.3347 39.5833L51.6667 34.0733ZM51.6667 34.0733H51.9167V36C51.9167 36.3275 51.7426 36.7041 51.4005 37.0818C51.0546 37.4638 50.519 37.8679 49.7472 38.2551L51.6667 34.0733ZM31.7101 30.2006L32.0807 30.2948L32.0183 29.9176C32.006 29.8428 31.9875 29.7613 31.9711 29.6885C31.9639 29.6565 31.957 29.6263 31.9512 29.599C31.9302 29.5 31.9167 29.4144 31.9167 29.3333V22.6667C31.9167 20.5305 33.5485 18.8778 35.6316 17.8387C37.7057 16.8049 40.3738 16.25 43.3333 16.25C46.2946 16.25 48.9627 16.805 51.0333 17.8387L51.0335 17.8387C53.1182 18.8778 54.75 20.5305 54.75 22.6667V42.6667C54.75 44.8027 53.1167 46.4554 51.0351 47.4946C48.9611 48.5283 46.2932 49.0833 43.3338 49.0833C41.6668 49.0749 40.0079 48.8504 38.3986 48.4153L38.0833 48.3301V48.6567V49.3333C38.0833 51.4694 36.45 53.1221 34.3685 54.1613C32.2943 55.1951 29.6262 55.75 26.6667 55.75C23.7071 55.75 21.039 55.195 18.9666 54.1613L18.9665 54.1613C16.8818 53.1222 15.25 51.4695 15.25 49.3333V36C15.25 33.8639 16.8818 32.2112 18.9649 31.1721C21.039 30.1383 23.7071 29.5833 26.6667 29.5833L26.668 29.5833C28.368 29.5745 30.0624 29.7819 31.7101 30.2006ZM35.1209 27.1878L34.75 26.983V27.4067V29.3333C34.75 29.6601 34.9242 30.0366 35.2661 30.4144C35.612 30.7966 36.1476 31.2012 36.9195 31.5884C38.4635 32.3639 40.7632 32.9167 43.3333 32.9167C45.9035 32.9167 48.2032 32.3639 49.7472 31.5884C50.519 31.2012 51.0546 30.7971 51.4005 30.4151C51.7426 30.0374 51.9167 29.6608 51.9167 29.3333V27.4067V26.983L51.5458 27.1878C51.4621 27.234 51.3808 27.2862 51.3074 27.3333C51.2963 27.3404 51.2853 27.3475 51.2745 27.3543C51.1895 27.4087 51.1132 27.4559 51.0357 27.4943L51.0351 27.4946C48.961 28.5284 46.2929 29.0833 43.3333 29.0833C40.3738 29.0833 37.7057 28.5284 35.6333 27.4946L35.6318 27.4939C35.5537 27.4556 35.4771 27.4084 35.3921 27.3542C35.3805 27.3468 35.3687 27.3393 35.3567 27.3316C35.284 27.285 35.2035 27.2335 35.1209 27.1878ZM18.4542 40.5212L18.0833 40.3163V40.74V42.6667C18.0833 42.9934 18.2575 43.37 18.5994 43.7478C18.9453 44.1299 19.4809 44.5345 20.2528 44.9217C21.7968 45.6972 24.0965 46.25 26.6667 46.25C29.2368 46.25 31.5365 45.6972 33.0805 44.9217C33.8524 44.5345 34.3879 44.1304 34.7338 43.7484C35.0759 43.3707 35.25 42.9942 35.25 42.6667V40.74V40.3163L34.8791 40.5212C34.7954 40.5674 34.7142 40.6195 34.6407 40.6666C34.6296 40.6738 34.6186 40.6808 34.6079 40.6877C34.5228 40.742 34.4466 40.7892 34.369 40.8277L34.3685 40.8279C32.2943 41.8617 29.6262 42.4167 26.6667 42.4167C23.7071 42.4167 21.039 41.8617 18.9666 40.8279L18.9652 40.8272C18.887 40.7889 18.8105 40.7417 18.7254 40.6875C18.7139 40.6802 18.7021 40.6726 18.6901 40.6649C18.6173 40.6183 18.5369 40.5668 18.4542 40.5212ZM51.6667 40.74L51.5458 40.5212C51.4621 40.5674 51.3808 40.6195 51.3074 40.6666C51.2963 40.6738 51.2853 40.6808 51.2745 40.6877C51.1895 40.742 51.1132 40.7892 51.0357 40.8277L51.0351 40.8279C48.961 41.8617 46.2929 42.4167 43.3333 42.4167C41.5506 42.4167 39.9054 42.1976 38.3971 41.7999L38.0833 41.7172V42.0417V45.27V45.4503L38.2544 45.5072C39.6772 45.9804 41.4161 46.25 43.3333 46.25C45.9035 46.25 48.2032 45.6972 49.7472 44.9217C50.519 44.5345 51.0546 44.1304 51.4005 43.7484C51.7426 43.3707 51.9167 42.9942 51.9167 42.6667V40.74H51.6667ZM18.4542 47.1878L18.0833 46.983V47.4067V49.3333C18.0833 49.6601 18.2575 50.0366 18.5994 50.4144C18.9453 50.7966 19.4809 51.2012 20.2528 51.5884C21.7968 52.3638 24.0965 52.9167 26.6667 52.9167C29.2368 52.9167 31.5365 52.3638 33.0805 51.5884C33.8524 51.2012 34.3879 50.7971 34.7338 50.4151C35.0759 50.0374 35.25 49.6608 35.25 49.3333V47.4067V46.983L34.8791 47.1878C34.7954 47.2341 34.7142 47.2862 34.6407 47.3333C34.6296 47.3404 34.6186 47.3475 34.6079 47.3543C34.5228 47.4087 34.4466 47.4559 34.369 47.4943L34.3685 47.4946C32.2943 48.5284 29.6262 49.0833 26.6667 49.0833C23.7071 49.0833 21.039 48.5284 18.9666 47.4946L18.9652 47.4939C18.887 47.4556 18.8105 47.4084 18.7254 47.3542C18.7139 47.3468 18.7021 47.3393 18.6901 47.3316C18.6173 47.285 18.5368 47.2335 18.4542 47.1878ZM51.4006 21.5856C51.0546 21.2034 50.5191 20.7988 49.7471 20.4115C48.2031 19.6361 45.9034 19.0833 43.3333 19.0833C40.7633 19.0833 38.4619 19.6361 36.9195 20.4116C36.1476 20.7988 35.6121 21.2029 35.2662 21.5849C34.9241 21.9626 34.75 22.3392 34.75 22.6667C34.75 22.9934 34.9242 23.37 35.2661 23.7478C35.612 24.1299 36.1476 24.5345 36.9195 24.9217C38.4635 25.6972 40.7632 26.25 43.3333 26.25C45.9033 26.25 48.2046 25.6973 49.7471 24.9218C50.519 24.5346 51.0546 24.1304 51.4005 23.7484C51.7426 23.3707 51.9167 22.9942 51.9167 22.6667C51.9167 22.3399 51.7425 21.9634 51.4006 21.5856ZM34.7339 34.9189C34.388 34.5367 33.8524 34.1322 33.0805 33.7449C31.5365 32.9695 29.2368 32.4167 26.6667 32.4167C24.0966 32.4167 21.7952 32.9695 20.2527 33.745C19.4809 34.1322 18.9454 34.5363 18.5995 34.9182C18.2574 35.2959 18.0833 35.6725 18.0833 36C18.0833 36.3267 18.2575 36.7033 18.5994 37.0811C18.9453 37.4633 19.4809 37.8678 20.2528 38.2551C21.7968 39.0305 24.0965 39.5833 26.6667 39.5833C29.2368 39.5833 31.5365 39.0305 33.0805 38.2551C33.8524 37.8679 34.3879 37.4638 34.7338 37.0818C35.0759 36.7041 35.25 36.3275 35.25 36C35.25 35.6733 35.0758 35.2967 34.7339 34.9189Z" fill="white" stroke="#043B73" stroke-width="0.5"/>
</svg>
