<svg width="24" height="24" viewBox="0 0 24 24" fill="none" xmlns="http://www.w3.org/2000/svg">
    <g clip-path="url(#0my5bjmqua)" fill="#F58220" stroke="#F58220" stroke-width=".2">
        <path d="M1.116 18.9a.37.37 0 0 1 .37-.37h3.707a.37.37 0 0 1 .37.37v3.707H9.64v-8.154a.37.37 0 0 1 .37-.37h3.706a.37.37 0 0 1 .37.37v8.154h4.077V9.264a.37.37 0 0 1 .37-.37h3.707a.37.37 0 0 1 .37.37v13.341h.742v.742H.375v-.741h.741V18.9zm17.788 3.707h2.965V9.636h-2.965v12.97zm-8.523 0h2.965v-7.783H10.38v7.783zm-8.524 0h2.965V19.27H1.857v3.335zM1.217 15.862l.282.685c.094-.038 9.07-3.81 15.716-11.46l.093 1.193.737-.058-.161-2.09a.37.37 0 0 0-.398-.341l-2.09.162.058.737 1.203-.092c-6.526 7.516-15.351 11.226-15.44 11.264z"/>
        <path d="M5.562.371a5.188 5.188 0 1 1 0 10.377 5.188 5.188 0 0 1 0-10.377zm0 9.636a4.447 4.447 0 1 0 0-8.895 4.447 4.447 0 0 0 0 8.895z"/>
        <path d="M7.656 7.133 3.988 3.464l-.524.524 3.668 3.669.524-.524zM4.862 5.884A1.112 1.112 0 1 1 3.29 7.457a1.112 1.112 0 0 1 1.572-1.573zM3.814 6.932a.37.37 0 1 0 .524-.524.37.37 0 0 0-.524.524zM6.258 5.233A1.112 1.112 0 1 1 7.831 3.66a1.112 1.112 0 0 1-1.573 1.572zm1.048-1.048a.37.37 0 1 0-.524.524.37.37 0 0 0 .524-.524z"/>
    </g>
    <defs>
        <clipPath id="0my5bjmqua">
            <path fill="#fff" transform="matrix(-1 0 0 1 23.719 0)" d="M0 0h23.718v23.718H0z"/>
        </clipPath>
    </defs>
</svg>
