<svg width="16" height="16" viewBox="0 0 16 16" fill="none" xmlns="http://www.w3.org/2000/svg">
<path d="M12.8917 11.0291H3.25728C3.18905 11.0291 3.12361 11.002 3.07536 10.9538C3.02711 10.9055 3 10.8401 3 10.7719V5.25728C3 5.18905 3.02711 5.12361 3.07536 5.07536C3.12361 5.02711 3.18905 5 3.25728 5H12.8917C12.96 5 13.0254 5.02711 13.0736 5.07536C13.1219 5.12361 13.149 5.18905 13.149 5.25728V10.7719C13.149 10.8401 13.1219 10.9055 13.0736 10.9538C13.0254 11.002 12.96 11.0291 12.8917 11.0291ZM3.51456 10.5146H12.6344V5.51456H3.51456V10.5146Z" fill="#F6821F"/>
<path d="M11.2334 10.2498H4.9179C4.84967 10.2498 4.78423 10.2227 4.73598 10.1744C4.68773 10.1262 4.66062 10.0608 4.66062 9.99252C4.66042 9.85559 4.60591 9.72433 4.50907 9.62753C4.41222 9.53073 4.28093 9.47629 4.144 9.47615C4.07577 9.47615 4.01032 9.44905 3.96207 9.4008C3.91383 9.35255 3.88672 9.28711 3.88672 9.21887V6.81097C3.88672 6.74274 3.91383 6.6773 3.96207 6.62905C4.01032 6.5808 4.07577 6.55369 4.144 6.55369C4.28095 6.55348 4.41224 6.49899 4.50908 6.40215C4.60592 6.30531 4.66042 6.17402 4.66062 6.03707C4.66062 5.96883 4.68773 5.90339 4.73598 5.85514C4.78423 5.80689 4.84967 5.77979 4.9179 5.77979H11.2334C11.3016 5.77979 11.3671 5.80689 11.4153 5.85514C11.4636 5.90339 11.4907 5.96883 11.4907 6.03707C11.4908 6.17369 11.545 6.3047 11.6414 6.4015C11.7378 6.4983 11.8686 6.55301 12.0053 6.55369C12.0735 6.55369 12.1389 6.5808 12.1872 6.62905C12.2354 6.6773 12.2625 6.74274 12.2625 6.81097V9.21887C12.2625 9.28711 12.2354 9.35255 12.1872 9.4008C12.1389 9.44905 12.0735 9.47615 12.0053 9.47615C11.8683 9.47629 11.7371 9.53074 11.6403 9.62754C11.5435 9.72435 11.489 9.85561 11.4889 9.99252C11.4889 10.0604 11.462 10.1256 11.4142 10.1738C11.3663 10.222 11.3013 10.2493 11.2334 10.2498ZM5.1438 9.73524H11.0098C11.0558 9.5571 11.1485 9.39443 11.2782 9.26397C11.4079 9.13351 11.5701 9.03998 11.748 8.99298V7.03558C11.5696 6.9892 11.4069 6.89604 11.2766 6.76574C11.1463 6.63543 11.0531 6.4727 11.0067 6.29435H5.14251C5.09618 6.47272 5.00304 6.63548 4.87273 6.7658C4.74242 6.89611 4.57966 6.98925 4.40128 7.03558V8.99298C4.57976 9.03945 4.74258 9.13276 4.87289 9.26325C5.00321 9.39375 5.09629 9.5567 5.14251 9.73524H5.1438Z" fill="#F6821F"/>
<path d="M8.07465 9.43296C7.79413 9.43301 7.5199 9.34987 7.28665 9.19405C7.05339 9.03823 6.87158 8.81673 6.76422 8.55758C6.65686 8.29842 6.62877 8.01324 6.68351 7.73812C6.73824 7.463 6.87333 7.21029 7.0717 7.01195C7.27008 6.81362 7.52281 6.67857 7.79794 6.62389C8.07308 6.5692 8.35825 6.59735 8.61738 6.70475C8.87652 6.81216 9.09798 6.99401 9.25376 7.22729C9.40954 7.46058 9.49263 7.73482 9.49253 8.01533C9.49191 8.39117 9.34233 8.75143 9.07655 9.01716C8.81077 9.28289 8.45048 9.43241 8.07465 9.43296V9.43296ZM8.07465 7.1115C7.89594 7.11145 7.72122 7.16439 7.5726 7.26364C7.42398 7.36288 7.30813 7.50397 7.23969 7.66906C7.17126 7.83414 7.15331 8.01582 7.18813 8.1911C7.22294 8.36639 7.30895 8.52741 7.43528 8.65382C7.56161 8.78022 7.72259 8.86632 7.89786 8.90124C8.07312 8.93615 8.25481 8.91831 8.41993 8.84997C8.58506 8.78163 8.72621 8.66585 8.82554 8.51729C8.92487 8.36872 8.97791 8.19404 8.97796 8.01533C8.97783 7.77575 8.88263 7.54602 8.71327 7.37656C8.54391 7.2071 8.31423 7.11177 8.07465 7.1115V7.1115Z" fill="#F6821F"/>
<circle cx="8" cy="8" r="7.6" stroke="#F6821F" stroke-width="0.8"/>
<line x1="2.35355" y1="2.64645" x2="13.3536" y2="13.6464" stroke="#F6821F"/>
</svg>
