<svg width="79" height="79" viewBox="0 0 79 79" fill="none" xmlns="http://www.w3.org/2000/svg">
    <g clip-path="url(#82qunkutia)">
        <path d="M78.186 39.526c0 3.868-6.93 6.593-8.063 10.083-1.175 3.617 2.789 9.886.597 12.896-2.212 3.041-9.414 1.198-12.455 3.411-3.01 2.19-3.47 9.62-7.087 10.791-3.49 1.133-8.214-4.57-12.086-4.57s-8.592 5.703-12.086 4.57c-3.617-1.175-4.076-8.605-7.087-10.79-3.04-2.213-10.242-.37-12.455-3.41-2.191-3.012 1.771-9.281.597-12.897C6.93 46.12 0 43.395 0 39.528c0-3.868 6.929-6.593 8.062-10.082 1.174-3.617-2.789-9.886-.598-12.897 2.213-3.04 9.415-1.198 12.456-3.41 3.01-2.19 3.47-9.621 7.086-10.79 3.49-1.134 8.215 4.57 12.087 4.57 3.871 0 8.591-5.704 12.086-4.57 3.616 1.173 4.076 8.604 7.086 10.79 3.041 2.214 10.243.37 12.456 3.41 2.191 3.011-1.773 9.28-.597 12.897 1.133 3.488 8.062 6.213 8.062 10.08z" fill="#42B544"/>
        <path d="M35.68 50.415h-.004L25.044 36.304a3.087 3.087 0 0 1 4.352-.015l5.383 5.772.751.806.883-.66 18.49-13.797.072-.053.062-.063a3.088 3.088 0 0 1 4.415 4.317L37.973 49.413l-.06.046-.053.054a3.072 3.072 0 0 1-2.18.902zm-3.054-.034.89-.85-.01-.01-.01-.008-.87.868z" fill="#fff" stroke="#42B544" stroke-width="2.459"/>
    </g>
    <defs>
        <clipPath id="82qunkutia">
            <path fill="#fff" transform="translate(0 .434)" d="M0 0h78.186v78.186H0z"/>
        </clipPath>
    </defs>
</svg>
