<svg width="26" height="26" viewBox="0 0 72 72" fill="none" xmlns="http://www.w3.org/2000/svg">
<path d="M72 36C72 55.8823 55.8823 72 36 72C16.1177 72 0 55.8823 0 36C0 16.1177 16.1177 0 36 0C55.8823 0 72 16.1177 72 36Z" fill="#043B73"/>
<path fill-rule="evenodd" clip-rule="evenodd" d="M25.3353 17.8507C28.0043 16.5444 32.3831 15 37.1752 15C41.8673 15 46.1308 16.4803 48.7857 17.7691L48.9358 17.842C49.7363 18.2379 50.3823 18.612 50.837 18.9155L46.8193 24.7887C56.0815 34.2576 63.236 54.1515 37.1752 54.1515C11.1145 54.1515 18.0764 34.6187 27.4192 24.7887L23.4276 18.9155C23.7354 18.7143 24.1258 18.4804 24.5914 18.2324C24.8219 18.1084 25.0699 17.9812 25.3353 17.8518V17.8507ZM44.2372 24.7104L47.4534 20.0085C44.4624 20.2239 40.9036 20.9265 37.4776 21.9184C35.0304 22.6254 32.3114 22.5177 29.7935 22.0533C29.159 21.9357 28.5289 21.7956 27.9043 21.6335L29.9925 24.7082C34.4681 26.3016 39.7605 26.3016 44.2372 24.7104V24.7104ZM28.7363 26.5615C33.9733 28.5845 40.2674 28.5845 45.5043 26.5593C47.6903 28.8637 49.519 31.4824 50.9294 34.3283C52.3999 37.328 53.2004 40.3266 53.0699 42.9108C52.9437 45.4047 51.9627 47.5354 49.7222 49.119C47.387 50.7689 43.4596 51.9762 37.1742 51.9762C30.8822 51.9762 26.9363 50.7896 24.5794 49.1581C22.3226 47.5941 21.3317 45.4928 21.1914 43.0326C21.0446 40.4767 21.8277 37.4933 23.2927 34.4729C24.6903 31.5929 26.6405 28.8205 28.7363 26.5615V26.5615ZM27.4855 19.2592C28.3556 19.518 29.2649 19.7432 30.1872 19.9139C32.5256 20.3446 34.8706 20.4077 36.8718 19.828C39.2039 19.1486 41.5759 18.6143 43.974 18.2281C41.9728 17.6255 39.6322 17.1753 37.1742 17.1753C33.4273 17.1753 29.9327 18.2205 27.4855 19.2592V19.2592Z" fill="white"/>
<path d="M40.9642 35.2981H39.0403C39.3403 35.792 39.5345 36.3716 39.6227 37.0367H41.4054L40.9642 38.8347H39.6316C39.5021 39.9214 39.1138 40.7545 38.4666 41.3341C37.8194 41.907 36.9045 42.2495 35.7219 42.3615L39.8345 47.7454V47.8739H37.3017L32.8096 42.0157L32.8008 40.5042H35.0336C35.6925 40.5042 36.2132 40.3528 36.5957 40.0498C36.984 39.7403 37.2428 39.3352 37.3723 38.8347H32.6243L33.0744 37.0367H37.337C37.0487 36.0159 36.2691 35.5055 34.9983 35.5055H32.6243L33.1008 33.4902H41.4143L40.9642 35.2981Z" fill="white"/>
</svg>
