<svg width="26" height="26" viewBox="0 0 26 26" fill="none" xmlns="http://www.w3.org/2000/svg">
<path d="M26 13C26 20.1797 20.1797 26 13 26C5.8203 26 0 20.1797 0 13C0 5.8203 5.8203 0 13 0C20.1797 0 26 5.8203 26 13Z" fill="#F58220" fill-opacity="0.1"/>
<path d="M14.9753 4.00027C15.1942 4.14185 15.4072 4.2939 15.6342 4.4209C15.7583 4.49024 15.9032 4.53962 16.0439 4.55829C16.3367 4.59719 16.4542 4.7835 16.3213 5.05126C15.9146 5.8702 15.5036 6.68705 15.0946 7.5049C15.0663 7.56148 15.041 7.61951 15.0352 7.63181C15.1382 7.75426 15.2204 7.86121 15.3137 7.95751C15.3414 7.98612 15.401 7.99769 15.4444 7.99477C15.5899 7.98475 15.7348 7.94986 15.8797 7.95104C16.3822 7.95533 16.6213 7.75553 16.695 7.25236C16.7761 6.69789 17.1588 6.28628 17.7078 6.17231C17.8099 6.15108 17.9181 6.16083 18.0222 6.14644C18.2092 6.12065 18.3953 6.08749 18.6352 6.04877C18.715 6.14261 18.8387 6.28783 18.9725 6.44517C18.7764 6.6323 18.5452 6.71302 18.2924 6.74591C18.2519 6.75119 18.2103 6.74982 18.1692 6.74991C17.5345 6.75073 17.381 6.88776 17.2596 7.51866C17.1684 7.99332 16.8717 8.30699 16.4279 8.49294C16.6418 8.564 16.8774 8.46725 17.057 8.22655C17.2864 7.91907 17.5833 7.73184 17.9668 7.68529C18.2643 7.64912 18.5315 7.72838 18.7926 7.86868C18.9628 7.96015 19.1516 8.01719 19.3824 8.10993C19.4036 8.22354 19.4378 8.40566 19.474 8.59935C19.2877 8.68608 19.1014 8.64791 18.9262 8.59479C18.7772 8.5496 18.6344 8.47399 18.4997 8.39372C18.1646 8.19402 17.7973 8.25369 17.5572 8.55826C17.0647 9.18306 16.4381 9.30122 15.7565 8.89799C15.7313 8.88305 15.7059 8.86829 15.6799 8.8549C15.4575 8.74065 15.4395 8.74676 15.3219 8.99146C15.382 9.01078 15.4399 9.02872 15.4974 9.04813C17.9211 9.86562 19.3892 11.5307 19.8927 14.0351C19.9672 14.4057 19.9781 14.7935 19.98 15.1735C19.9888 16.9111 19.9846 18.6488 19.9837 20.3864C19.9831 21.3753 19.356 21.9996 18.3646 21.9997C14.8247 22 11.2848 22.0003 7.74481 21.9995C6.94181 21.9994 6.33496 21.5213 6.18746 20.7709C6.16505 20.6568 6.16305 20.5375 6.16296 20.4206C6.1615 18.6536 6.15694 16.8865 6.16314 15.1196C6.17334 12.2561 7.97576 9.85177 10.7175 9.03164C10.7506 9.02171 10.7823 9.00631 10.8145 8.99347C10.5657 8.37204 10.6398 8.05946 11.1325 7.67345C11.0726 7.55127 11.0124 7.42582 10.9502 7.30137C10.583 6.56743 10.215 5.83394 9.84816 5.09982C9.68471 4.77275 9.78174 4.60457 10.1373 4.55683C10.2666 4.53952 10.3985 4.48732 10.5124 4.42173C10.738 4.2919 10.9519 4.14176 11.1706 4C11.429 4 11.6873 4 11.9457 4C12.1631 4.13429 12.3871 4.25928 12.5966 4.40496C12.8913 4.60986 13.2558 4.61141 13.5505 4.40715C13.7603 4.26174 13.9831 4.13502 14.2002 4C14.4586 4.00027 14.7169 4.00027 14.9753 4.00027ZM13.0735 21.3997C14.8577 21.3997 16.642 21.4008 18.4264 21.3991C18.9931 21.3985 19.3812 21.0251 19.3819 20.4728C19.3842 18.6357 19.3968 16.7983 19.377 14.9614C19.3511 12.5452 17.7295 10.3578 15.418 9.65225C14.0213 9.22597 12.5833 9.25357 11.168 9.53727C8.71782 10.0284 6.79823 12.3764 6.77035 14.8745C6.74958 16.7408 6.76398 18.6074 6.76398 20.4739C6.76398 20.5496 6.76871 20.6273 6.78621 20.7006C6.88879 21.1316 7.24474 21.3988 7.72049 21.3992C9.50478 21.4004 11.2891 21.3997 13.0735 21.3997ZM10.5336 5.12542C10.9241 5.90628 11.318 6.69817 11.7199 7.48595C11.7424 7.53014 11.8308 7.56321 11.8886 7.56357C12.6749 7.56858 13.4612 7.56485 14.2474 7.5695C14.3574 7.57013 14.4121 7.53342 14.4601 7.43539C14.7437 6.8566 15.0351 6.28163 15.3234 5.70512C15.4223 5.50724 15.5198 5.30872 15.6135 5.11959C15.4385 4.99869 15.2687 4.89538 15.1148 4.77221C14.7635 4.49124 14.3755 4.49935 14.0251 4.78214C13.8726 4.90522 13.6996 5.0212 13.5166 5.08461C12.995 5.26518 12.5264 5.141 12.1127 4.78031C11.8027 4.51019 11.4061 4.4927 11.0947 4.72246C10.9168 4.85384 10.7354 4.98075 10.5336 5.12542ZM13.059 8.77126C13.3582 8.77126 13.6574 8.77172 13.9566 8.77108C14.1678 8.77062 14.3794 8.77582 14.5901 8.76534C14.7584 8.75696 14.8659 8.64016 14.8721 8.48528C14.8788 8.32148 14.7739 8.19949 14.6001 8.17525C14.5424 8.16714 14.4831 8.16906 14.4245 8.16906C13.7967 8.16869 13.1689 8.16878 12.5412 8.16888C12.2303 8.16888 11.9192 8.1656 11.6084 8.17061C11.4185 8.17361 11.2998 8.27009 11.2766 8.42242C11.2461 8.62267 11.3813 8.76771 11.6158 8.7698C12.0967 8.7739 12.5778 8.7709 13.059 8.77126Z" fill="#F58220"/>
<path d="M8.8667 15.6861C8.86615 13.3611 10.756 11.4708 13.0767 11.4751C15.3985 11.4795 17.2851 13.3743 17.2791 15.6957C17.2731 18.0174 15.3982 19.8895 13.0769 19.8918C10.7489 19.894 8.86725 18.0143 8.8667 15.6861ZM16.677 15.6887C16.6788 13.6962 15.0672 12.0795 13.0761 12.0765C11.0881 12.0734 9.47146 13.6895 9.46881 15.6824C9.46617 17.6765 11.0762 19.2905 13.0689 19.2914C15.0622 19.2922 16.6751 17.6817 16.677 15.6887Z" fill="#F58220"/>
<path d="M11.4596 17.6711C11.3404 17.5521 11.2083 17.4202 11.0918 17.3039C12.2906 16.1048 13.4869 14.9083 14.6863 13.7085C14.7993 13.8262 14.932 13.9644 15.0468 14.0841C13.8576 15.2731 12.6596 16.4711 11.4596 17.6711Z" fill="#F58220"/>
<path d="M14.2716 17.7871C13.7747 17.7854 13.3789 17.3899 13.3769 16.8929C13.3749 16.3905 13.7822 15.9809 14.2796 15.985C14.77 15.9891 15.1747 16.3933 15.1788 16.8833C15.1831 17.3807 14.7734 17.7887 14.2716 17.7871ZM14.2685 16.5886C14.1032 16.5928 13.9751 16.7311 13.9805 16.8995C13.986 17.0702 14.1188 17.1913 14.2914 17.1832C14.4507 17.1758 14.577 17.043 14.5752 16.8851C14.5735 16.7232 14.4301 16.5846 14.2685 16.5886Z" fill="#F58220"/>
<path d="M11.8785 15.382C11.3766 15.3848 10.9663 14.9802 10.9668 14.4828C10.9673 13.9932 11.3716 13.5864 11.8619 13.5822C12.3639 13.5779 12.7696 13.981 12.7691 14.4838C12.7689 14.9815 12.3745 15.3791 11.8785 15.382ZM11.5698 14.4807C11.5682 14.6439 11.7069 14.7818 11.872 14.7809C12.0346 14.7799 12.1599 14.6578 12.1654 14.4948C12.171 14.325 12.0441 14.188 11.8772 14.1838C11.7145 14.1797 11.5715 14.3179 11.5698 14.4807Z" fill="#F58220"/>
</svg>
