<svg width="104" height="104" viewBox="0 0 104 104" fill="none" xmlns="http://www.w3.org/2000/svg">
<path d="M96.7652 59.2344C100.761 34.5112 83.9579 11.23 59.2348 7.23435C34.5116 3.23869 11.2304 20.0416 7.23479 44.7648C3.23913 69.4879 20.042 92.7691 44.7652 96.7648C69.4883 100.76 92.7696 83.9575 96.7652 59.2344Z" fill="url(#paint0_linear_4694_3574)"/>
<path d="M65.5506 86.1316C84.4509 78.7627 93.799 57.4672 86.43 38.5668C79.0611 19.6664 57.7656 10.3184 38.8652 17.6873C19.9648 25.0563 10.6168 46.3518 17.9857 65.2521C25.3547 84.1525 46.6502 93.5006 65.5506 86.1316Z" fill="url(#paint1_linear_4694_3574)"/>
<path d="M62.1708 49.2902C52.6333 47.5677 48.8209 40.6901 48.5296 36.105C48.2382 31.5199 46.4777 28.2015 43.1592 29.8607C39.8407 31.5199 39.0554 41.0447 41.006 46.0605C32.5198 44.7939 24.6036 45.7438 23.831 49.9235C32.1272 57.2445 29.2393 65.6166 26.1488 69.7204C30.1766 72.5576 48.0229 74.0268 52.38 73.3682C56.7371 72.7096 60.3596 66.6046 64.324 66.7692L72.2529 67.0986L72.9621 50.1642C69.3484 50.1387 65.7415 49.8466 62.1708 49.2902V49.2902Z" fill="url(#paint2_linear_4694_3574)"/>
<g style="mix-blend-mode:multiply">
<path d="M53.5828 60.969C49.1244 59.601 45.4766 54.636 44.7166 52.7614C44.7419 56.8018 49.9856 61.045 53.5828 60.969Z" fill="#F9E6E1"/>
</g>
<g style="mix-blend-mode:multiply">
<path d="M31.494 71.469C37.5357 72.2543 41.6268 71.3423 43.1467 69.1891C44.6666 67.0359 43.4127 65.1233 41.6901 63.9074L31.494 71.469Z" fill="#F9E6E1"/>
</g>
<path d="M40.8412 64.4902C42.855 64.9715 44.375 68.5306 40.3092 70.1772C36.2434 71.8238 29.5431 72.3304 25.794 69.6199C24.1348 68.4166 23.7168 65.4148 28.5299 64.3128C32.596 63.4579 36.8014 63.5185 40.8412 64.4902V64.4902Z" fill="url(#paint3_linear_4694_3574)"/>
<g style="mix-blend-mode:multiply">
<path d="M27.1871 66.0352C31.1136 67.1118 38.9791 67.9857 42.0823 65.2246C45.1854 62.4634 40.9297 58.7143 40.9297 58.7143L27.1871 66.0352Z" fill="#F9E6E1"/>
</g>
<path d="M39.8531 58.8033C41.867 59.2847 44.2735 63.7431 40.1951 65.4023C36.1166 67.0615 25.1986 66.5929 24.0967 64.8703C22.9947 63.1477 22.9567 60.0319 27.7698 58.9427C31.7389 58.0129 35.8636 57.9654 39.8531 58.8033V58.8033Z" fill="url(#paint4_linear_4694_3574)"/>
<g style="mix-blend-mode:multiply">
<path d="M40.8793 52.7225C43.5898 55.395 43.1718 57.9029 42.4372 58.9415C41.7026 59.9801 39.4481 61.9814 29.1127 60.5501C29.784 60.4615 40.8793 52.7225 40.8793 52.7225Z" fill="#F9E6E1"/>
</g>
<path d="M39.4608 52.7746C41.6393 53.2939 44.3752 58.5503 39.8281 59.8675C35.6863 61.0581 23.983 60.9948 22.7924 59.1329C21.6018 57.271 21.5258 53.9398 26.7569 52.7999C30.9338 51.8193 35.28 51.8106 39.4608 52.7746V52.7746Z" fill="url(#paint5_linear_4694_3574)"/>
<g style="mix-blend-mode:multiply">
<path d="M41.6771 48.2267C43.1717 50.3799 43.2603 52.0265 42.437 53.1411C41.6137 54.2557 32.3043 55.0663 27.6812 53.7997L41.6771 48.2267Z" fill="#F9E6E1"/>
</g>
<path d="M37.8137 45.4911C41.7275 46.0611 44.8053 52.1914 40.0809 53.23C35.8252 54.1673 25.1351 54.3953 23.9446 52.5461C22.754 50.6969 22.1333 47.1884 27.3137 46.0105C30.738 45.0994 34.3162 44.9224 37.8137 45.4911V45.4911Z" fill="url(#paint6_linear_4694_3574)"/>
<path d="M66.819 49.7468C66.515 50.4561 65.0711 65.8326 66.1604 66.8332C67.2496 67.8338 74.0512 67.0232 74.0512 67.0232C74.0512 67.0232 75.4951 51.2161 75.0772 50.0888C74.6592 48.9616 67.7183 49.3542 66.819 49.7468Z" fill="url(#paint7_linear_4694_3574)"/>
<path d="M69.4788 48.7451C69.1369 49.5684 67.8576 67.3007 69.2002 68.4913C70.5428 69.6819 78.7503 68.9346 78.7503 68.9346C78.7503 68.9346 80.0169 50.721 79.4849 49.3911C78.9529 48.0612 70.5428 48.3272 69.4788 48.7451Z" fill="url(#paint8_linear_4694_3574)"/>
<defs>
<linearGradient id="paint0_linear_4694_3574" x1="35.3823" y1="15.236" x2="69.9878" y2="91.7877" gradientUnits="userSpaceOnUse">
<stop stop-color="#9571CB"/>
<stop offset="0.1" stop-color="#8A64C9"/>
<stop offset="0.32" stop-color="#744BC4"/>
<stop offset="0.53" stop-color="#673CC1"/>
<stop offset="0.69" stop-color="#6237C0"/>
</linearGradient>
<linearGradient id="paint1_linear_4694_3574" x1="38.8277" y1="22.0974" x2="65.6542" y2="81.7286" gradientUnits="userSpaceOnUse">
<stop stop-color="#F5F0FF"/>
<stop offset="1" stop-color="#D2C1F7"/>
</linearGradient>
<linearGradient id="paint2_linear_4694_3574" x1="52.3564" y1="32.4721" x2="45.6983" y2="72.7498" gradientUnits="userSpaceOnUse">
<stop stop-color="#FFC085"/>
<stop offset="1" stop-color="#FA976E"/>
</linearGradient>
<linearGradient id="paint3_linear_4694_3574" x1="30.7403" y1="72.4361" x2="35.8273" y2="63.9721" gradientUnits="userSpaceOnUse">
<stop stop-color="#FFC085"/>
<stop offset="1" stop-color="#FA976E"/>
</linearGradient>
<linearGradient id="paint4_linear_4694_3574" x1="29.6918" y1="68.1263" x2="35.2877" y2="58.8187" gradientUnits="userSpaceOnUse">
<stop stop-color="#FFC085"/>
<stop offset="1" stop-color="#FA976E"/>
</linearGradient>
<linearGradient id="paint5_linear_4694_3574" x1="28.7855" y1="62.6385" x2="34.6855" y2="52.8407" gradientUnits="userSpaceOnUse">
<stop stop-color="#FFC085"/>
<stop offset="1" stop-color="#FA976E"/>
</linearGradient>
<linearGradient id="paint6_linear_4694_3574" x1="24.3892" y1="46.3302" x2="41.4968" y2="53.5814" gradientUnits="userSpaceOnUse">
<stop stop-color="#FFC085"/>
<stop offset="1" stop-color="#FA976E"/>
</linearGradient>
<linearGradient id="paint7_linear_4694_3574" x1="70.9701" y1="50.4185" x2="69.5399" y2="69.2093" gradientUnits="userSpaceOnUse">
<stop stop-color="#F5F0FF"/>
<stop offset="1" stop-color="#D2C1F7"/>
</linearGradient>
<linearGradient id="paint8_linear_4694_3574" x1="74.5266" y1="48.9397" x2="73.5442" y2="69.0758" gradientUnits="userSpaceOnUse">
<stop stop-color="#263681"/>
<stop offset="1" stop-color="#1A1248"/>
</linearGradient>
</defs>
</svg>
