<svg width="14" height="14" viewBox="0 0 14 14" fill="none" xmlns="http://www.w3.org/2000/svg">
<path d="M5.48828 10.7617L12.2383 4.01172L11.1836 2.92188L5.48828 8.61719L2.81641 5.94531L1.76172 7L5.48828 10.7617ZM12.2383 0.25C12.6602 0.25 13.0117 0.402344 13.293 0.707031C13.5977 0.988281 13.75 1.33984 13.75 1.76172V12.2383C13.75 12.6602 13.5977 13.0234 13.293 13.3281C13.0117 13.6094 12.6602 13.75 12.2383 13.75H1.76172C1.33984 13.75 0.976562 13.6094 0.671875 13.3281C0.390625 13.0234 0.25 12.6602 0.25 12.2383V1.76172C0.25 1.33984 0.390625 0.988281 0.671875 0.707031C0.976562 0.402344 1.33984 0.25 1.76172 0.25H12.2383Z" fill="#02A734"/>
</svg>
