<svg width="53" height="53" viewBox="0 0 53 53" fill="none" xmlns="http://www.w3.org/2000/svg">
    <g clip-path="url(#a41th2tqha)">
        <mask id="pi9yllylyb" maskUnits="userSpaceOnUse" x="-1" y="-.949" width="55" height="55" fill="#000">
            <path fill="#fff" d="M-1-.949h55v55H-1z"/>
            <path d="M1.074 9.351c-1.408 1.405-1.107 3.382.014 4.497.044.043 4.546 4.326 10.877 10.631a.828.828 0 0 0 1.178 0 .826.826 0 0 0 0-1.17c-.955-.951-1.863-1.85-2.724-2.702l2.642-2.632a.826.826 0 0 0-.59-1.403.833.833 0 0 0-.585.232l-2.65 2.639a828.134 828.134 0 0 0-3.85-3.762l6.012-5.987a.826.826 0 0 0-.59-1.403.833.833 0 0 0-.585.232l-6.03 6.005c-1.225-1.18-1.93-1.851-1.941-1.863-.351-.35-.812-1.333 0-2.141l8.315-8.282c.32-.324 1.175-.968 2.113-.04.042.047 4.241 4.797 10.65 11.18a.834.834 0 0 0 1.41-.588.826.826 0 0 0-.234-.583C18.136 5.87 13.969 1.156 13.893 1.07c-1.55-1.54-3.42-1.078-4.502 0L1.074 9.35zm35.27 30.64a.833.833 0 0 0-1.176 0l-2.646 2.634a572.209 572.209 0 0 0-2.545-2.552.833.833 0 0 0-1.409.588.826.826 0 0 0 .234.583 490.31 490.31 0 0 1 10.523 10.78c.57.57 1.352.883 2.2.883.873 0 1.756-.34 2.303-.886l8.312-8.376c1.046-1.041 1.106-2.809.13-3.784L41.118 28.756a.833.833 0 0 0-1.41.588.826.826 0 0 0 .234.583l11.152 11.105c.333.331.27 1.047-.131 1.446l-8.314 8.375c-.19.192-.625.398-1.124.398-.286 0-.695-.07-1.004-.38-.017-.018-.714-.758-1.923-2.018l6.06-6.036a.827.827 0 0 0-.59-1.403.833.833 0 0 0-.585.232l-6.035 6.01a550.54 550.54 0 0 0-3.759-3.852l2.654-2.643a.826.826 0 0 0 0-1.17zM.235 52.718a.833.833 0 0 0 .833.213l16.63-4.934a.815.815 0 0 0 .353-.21l28.42-28.496c.04-.04.06-.09.09-.136l6.08-6.055a2.569 2.569 0 0 0 .565-2.812 2.57 2.57 0 0 0-.565-.837L43.937.782c-.978-.974-2.686-.974-3.664 0l-6.218 6.192c-.04.04-.062.091-.091.138L5.5 35.462a.82.82 0 0 0-.203.33L.042 51.882a.823.823 0 0 0 .194.835zM34.69 8.73l1.728 1.72-25.815 25.78-2.872-.649L34.691 8.73zM11.641 37.54l25.955-25.916 4.05 4.034-26.188 25.748H11.64v-3.865zM44.708 18.71 17.694 45.795l-.96-3.316 26.088-25.65 1.886 1.88zM6.64 37.032l3.338.755v4.447a.826.826 0 0 0 .832.828h4.363l1.055 3.644-14.116 4.189L6.64 37.032zm34.81-35.08a.95.95 0 0 1 1.313 0l8.705 8.671a.919.919 0 0 1 .202 1.008.92.92 0 0 1-.203.299l-5.606 5.585-10.017-9.976 5.606-5.586z"/>
        </mask>
        <path d="M1.074 9.351c-1.408 1.405-1.107 3.382.014 4.497.044.043 4.546 4.326 10.877 10.631a.828.828 0 0 0 1.178 0 .826.826 0 0 0 0-1.17c-.955-.951-1.863-1.85-2.724-2.702l2.642-2.632a.826.826 0 0 0-.59-1.403.833.833 0 0 0-.585.232l-2.65 2.639a828.134 828.134 0 0 0-3.85-3.762l6.012-5.987a.826.826 0 0 0-.59-1.403.833.833 0 0 0-.585.232l-6.03 6.005c-1.225-1.18-1.93-1.851-1.941-1.863-.351-.35-.812-1.333 0-2.141l8.315-8.282c.32-.324 1.175-.968 2.113-.04.042.047 4.241 4.797 10.65 11.18a.834.834 0 0 0 1.41-.588.826.826 0 0 0-.234-.583C18.136 5.87 13.969 1.156 13.893 1.07c-1.55-1.54-3.42-1.078-4.502 0L1.074 9.35zm35.27 30.64a.833.833 0 0 0-1.176 0l-2.646 2.634a572.209 572.209 0 0 0-2.545-2.552.833.833 0 0 0-1.409.588.826.826 0 0 0 .234.583 490.31 490.31 0 0 1 10.523 10.78c.57.57 1.352.883 2.2.883.873 0 1.756-.34 2.303-.886l8.312-8.376c1.046-1.041 1.106-2.809.13-3.784L41.118 28.756a.833.833 0 0 0-1.41.588.826.826 0 0 0 .234.583l11.152 11.105c.333.331.27 1.047-.131 1.446l-8.314 8.375c-.19.192-.625.398-1.124.398-.286 0-.695-.07-1.004-.38-.017-.018-.714-.758-1.923-2.018l6.06-6.036a.827.827 0 0 0-.59-1.403.833.833 0 0 0-.585.232l-6.035 6.01a550.54 550.54 0 0 0-3.759-3.852l2.654-2.643a.826.826 0 0 0 0-1.17zM.235 52.718a.833.833 0 0 0 .833.213l16.63-4.934a.815.815 0 0 0 .353-.21l28.42-28.496c.04-.04.06-.09.09-.136l6.08-6.055a2.569 2.569 0 0 0 .565-2.812 2.57 2.57 0 0 0-.565-.837L43.937.782c-.978-.974-2.686-.974-3.664 0l-6.218 6.192c-.04.04-.062.091-.091.138L5.5 35.462a.82.82 0 0 0-.203.33L.042 51.882a.823.823 0 0 0 .194.835zM34.69 8.73l1.728 1.72-25.815 25.78-2.872-.649L34.691 8.73zM11.641 37.54l25.955-25.916 4.05 4.034-26.188 25.748H11.64v-3.865zM44.708 18.71 17.694 45.795l-.96-3.316 26.088-25.65 1.886 1.88zM6.64 37.032l3.338.755v4.447a.826.826 0 0 0 .832.828h4.363l1.055 3.644-14.116 4.189L6.64 37.032zm34.81-35.08a.95.95 0 0 1 1.313 0l8.705 8.671a.919.919 0 0 1 .202 1.008.92.92 0 0 1-.203.299l-5.606 5.585-10.017-9.976 5.606-5.586z" fill="#043B73"/>
        <path d="M1.074 9.351c-1.408 1.405-1.107 3.382.014 4.497.044.043 4.546 4.326 10.877 10.631a.828.828 0 0 0 1.178 0 .826.826 0 0 0 0-1.17c-.955-.951-1.863-1.85-2.724-2.702l2.642-2.632a.826.826 0 0 0-.59-1.403.833.833 0 0 0-.585.232l-2.65 2.639a828.134 828.134 0 0 0-3.85-3.762l6.012-5.987a.826.826 0 0 0-.59-1.403.833.833 0 0 0-.585.232l-6.03 6.005c-1.225-1.18-1.93-1.851-1.941-1.863-.351-.35-.812-1.333 0-2.141l8.315-8.282c.32-.324 1.175-.968 2.113-.04.042.047 4.241 4.797 10.65 11.18a.834.834 0 0 0 1.41-.588.826.826 0 0 0-.234-.583C18.136 5.87 13.969 1.156 13.893 1.07c-1.55-1.54-3.42-1.078-4.502 0L1.074 9.35zm35.27 30.64a.833.833 0 0 0-1.176 0l-2.646 2.634a572.209 572.209 0 0 0-2.545-2.552.833.833 0 0 0-1.409.588.826.826 0 0 0 .234.583 490.31 490.31 0 0 1 10.523 10.78c.57.57 1.352.883 2.2.883.873 0 1.756-.34 2.303-.886l8.312-8.376c1.046-1.041 1.106-2.809.13-3.784L41.118 28.756a.833.833 0 0 0-1.41.588.826.826 0 0 0 .234.583l11.152 11.105c.333.331.27 1.047-.131 1.446l-8.314 8.375c-.19.192-.625.398-1.124.398-.286 0-.695-.07-1.004-.38-.017-.018-.714-.758-1.923-2.018l6.06-6.036a.827.827 0 0 0-.59-1.403.833.833 0 0 0-.585.232l-6.035 6.01a550.54 550.54 0 0 0-3.759-3.852l2.654-2.643a.826.826 0 0 0 0-1.17zM.235 52.718a.833.833 0 0 0 .833.213l16.63-4.934a.815.815 0 0 0 .353-.21l28.42-28.496c.04-.04.06-.09.09-.136l6.08-6.055a2.569 2.569 0 0 0 .565-2.812 2.57 2.57 0 0 0-.565-.837L43.937.782c-.978-.974-2.686-.974-3.664 0l-6.218 6.192c-.04.04-.062.091-.091.138L5.5 35.462a.82.82 0 0 0-.203.33L.042 51.882a.823.823 0 0 0 .194.835zM34.69 8.73l1.728 1.72-25.815 25.78-2.872-.649L34.691 8.73zM11.641 37.54l25.955-25.916 4.05 4.034-26.188 25.748H11.64v-3.865zM44.708 18.71 17.694 45.795l-.96-3.316 26.088-25.65 1.886 1.88zM6.64 37.032l3.338.755v4.447a.826.826 0 0 0 .832.828h4.363l1.055 3.644-14.116 4.189L6.64 37.032zm34.81-35.08a.95.95 0 0 1 1.313 0l8.705 8.671a.919.919 0 0 1 .202 1.008.92.92 0 0 1-.203.299l-5.606 5.585-10.017-9.976 5.606-5.586z" stroke="#043B73" stroke-width=".6" mask="url(#pi9yllylyb)"/>
    </g>
    <defs>
        <clipPath id="a41th2tqha">
            <path fill="#fff" d="M0 0h53v53H0z"/>
        </clipPath>
    </defs>
</svg>
