<svg width="26" height="26" viewBox="0 0 72 72" fill="none" xmlns="http://www.w3.org/2000/svg">
<path d="M72 36C72 55.8823 55.8823 72 36 72C16.1177 72 0 55.8823 0 36C0 16.1177 16.1177 0 36 0C55.8823 0 72 16.1177 72 36Z" fill="#043B73"/>
<path d="M52.2464 29.483L41.8325 27.9695L37.1772 18.5319C37.0501 18.2735 36.8409 18.0643 36.5825 17.9371C35.9345 17.6172 35.147 17.8838 34.8229 18.5319L30.1677 27.9695L19.7538 29.483C19.4667 29.524 19.2042 29.6594 19.0032 29.8645C18.7602 30.1142 18.6264 30.4502 18.631 30.7986C18.6356 31.147 18.7783 31.4793 19.0278 31.7225L26.5624 39.0684L24.7823 49.4412C24.7406 49.6825 24.7673 49.9307 24.8594 50.1576C24.9515 50.3845 25.1054 50.581 25.3035 50.7249C25.5016 50.8688 25.7361 50.9543 25.9804 50.9717C26.2246 50.9892 26.4689 50.9378 26.6854 50.8235L36.0001 45.9262L45.3147 50.8235C45.569 50.9588 45.8644 51.0039 46.1474 50.9547C46.861 50.8317 47.3409 50.1549 47.2179 49.4412L45.4378 39.0684L52.9724 31.7225C53.1774 31.5215 53.3128 31.259 53.3538 30.9719C53.4645 30.2541 52.9642 29.5897 52.2464 29.483V29.483ZM42.2673 38.0348L43.7479 46.6604L36.0001 42.5916L28.2522 46.6645L29.7329 38.0389L23.4657 31.9276L32.1282 30.6684L36.0001 22.8221L39.872 30.6684L48.5345 31.9276L42.2673 38.0348Z" fill="white"/>
</svg>
