<svg width="26" height="26" viewBox="0 0 72 72" fill="none" xmlns="http://www.w3.org/2000/svg">
<path d="M72 36C72 55.8823 55.8823 72 36 72C16.1177 72 0 55.8823 0 36C0 16.1177 16.1177 0 36 0C55.8823 0 72 16.1177 72 36Z" fill="#043B73"/>
<path d="M46.5 25.1875V22.5625H25.5V25.1875H32.7188C34.1674 25.1918 35.5637 25.7294 36.641 26.6978C37.7184 27.6662 38.4013 28.9975 38.5594 30.4375H25.5V33.0625H38.5594C38.4013 34.5025 37.7184 35.8338 36.641 36.8022C35.5637 37.7706 34.1674 38.3082 32.7188 38.3125H25.5V41.3903L38.1223 52.75L39.8784 50.7996L28.9204 40.9375H32.7188C34.8661 40.9344 36.9334 40.1221 38.5085 38.6625C40.0836 37.203 41.0508 35.2034 41.2172 33.0625H46.5V30.4375H41.2172C41.0666 28.4667 40.2334 26.6101 38.8613 25.1875H46.5Z" fill="#FCFCFC"/>
</svg>
