<svg width="26" height="26" viewBox="0 0 26 26" fill="none" xmlns="http://www.w3.org/2000/svg">
<path d="M26 13C26 20.1797 20.1797 26 13 26C5.8203 26 0 20.1797 0 13C0 5.8203 5.8203 0 13 0C20.1797 0 26 5.8203 26 13Z" fill="#999999" fill-opacity="0.1"/>
<path d="M14.0125 13.2873C14.0125 13.1891 14.0125 13.1065 14.0125 13.0239C14.0125 11.7451 14.0124 10.4662 14.0127 9.18728C14.0128 8.86803 14.0597 8.82162 14.3771 8.821C14.5088 8.82074 14.6406 8.82092 14.7972 8.82092C14.7972 8.72379 14.7972 8.64854 14.7972 8.57339C14.7972 7.70204 14.7968 6.83078 14.7975 5.95943C14.7978 5.6553 14.8373 5.61513 15.1352 5.61469C15.6475 5.61381 16.1597 5.61442 16.7065 5.61442C16.7065 5.34027 16.7065 5.07683 16.7065 4.81331C16.7065 4.74307 16.7053 4.67275 16.7074 4.60252C16.7116 4.4625 16.7828 4.36765 16.9232 4.36748C17.0643 4.3673 17.1349 4.46144 17.1353 4.60323C17.1359 4.8562 17.1359 5.10918 17.1362 5.36206C17.1362 5.43748 17.1362 5.51299 17.1362 5.61434C17.5923 5.61434 18.0256 5.61557 18.4589 5.61407C19.046 5.61196 19.0642 5.55975 19.059 6.21109C19.0528 6.99805 19.0576 7.78511 19.0576 8.57207C19.0576 8.64758 19.0576 8.72308 19.0576 8.82092C19.2184 8.82092 19.3571 8.82039 19.4958 8.821C19.7802 8.82232 19.8285 8.86882 19.8287 9.15019C19.8293 10.422 19.829 11.6939 19.829 12.9657C19.829 13.0636 19.829 13.1613 19.829 13.2936C19.9404 13.2936 20.0421 13.2968 20.1436 13.2929C20.3368 13.2855 20.4298 13.3727 20.4274 13.569C20.4239 13.857 20.4268 14.1452 20.4268 14.4333C20.4268 16.5976 20.4268 18.7618 20.4268 20.926C20.4268 21.0084 20.4268 21.0908 20.4268 21.202C20.7073 21.202 20.9651 21.2012 21.2229 21.2025C21.3 21.2028 21.3887 21.1861 21.4511 21.2181C21.5222 21.2545 21.6176 21.3381 21.6157 21.3985C21.6133 21.4745 21.5368 21.568 21.4664 21.6159C21.4117 21.653 21.3173 21.6362 21.2405 21.6362C15.7456 21.6368 10.2507 21.6368 4.75575 21.6366C4.58768 21.6366 4.39641 21.6652 4.36257 21.4277C4.33989 21.2687 4.4641 21.2026 4.75698 21.2021C5.01531 21.2018 5.27365 21.202 5.56161 21.202C5.56161 21.0905 5.56161 21.002 5.56161 20.9135C5.56161 15.5379 5.56161 10.1625 5.56161 4.78702C5.56161 4.38163 5.5835 4.36001 5.99135 4.36001C7.82538 4.36001 9.65932 4.35992 11.4933 4.3601C11.8353 4.3601 11.8769 4.40229 11.8769 4.75186C11.8771 10.1274 11.8771 15.5028 11.8771 20.8783C11.8771 20.9753 11.8771 21.0724 11.8771 21.1856C12.3997 21.1856 12.9005 21.1856 13.4167 21.1856C13.4167 21.0916 13.4167 21.0082 13.4167 20.9247C13.4167 18.5356 13.4167 16.1465 13.4167 13.7575C13.4167 13.3038 13.4217 13.2989 13.8726 13.2933C13.9076 13.2929 13.9425 13.2904 14.0125 13.2873ZM6.00023 4.8083C6.00023 10.2728 6.00023 15.7239 6.00023 21.1836C7.81439 21.1836 9.62108 21.1836 11.4286 21.1836C11.4286 15.7156 11.4286 10.2662 11.4286 4.8083C9.61308 4.8083 7.81061 4.8083 6.00023 4.8083ZM15.524 21.1921C15.524 20.5753 15.5235 19.9786 15.5242 19.382C15.5246 19.1088 15.5748 19.0534 15.8381 19.0526C16.5616 19.0504 17.2853 19.0504 18.0089 19.0526C18.2671 19.0534 18.3197 19.1065 18.3209 19.3627C18.3232 19.8966 18.3211 20.4306 18.3222 20.9645C18.3224 21.0384 18.3297 21.1124 18.3339 21.1907C18.8968 21.1907 19.4352 21.1907 19.9788 21.1907C19.9788 18.6983 19.9788 16.2173 19.9788 13.7398C17.9283 13.7398 15.8952 13.7398 13.8624 13.7398C13.8624 16.2318 13.8624 18.707 13.8624 21.1921C14.4175 21.1921 14.9561 21.1921 15.524 21.1921ZM14.4632 9.25593C14.4632 10.6091 14.4632 11.9456 14.4632 13.2824C16.1137 13.2824 17.7476 13.2824 19.3859 13.2824C19.3859 11.935 19.3859 10.5989 19.3859 9.25593C17.742 9.25593 16.114 9.25593 14.4632 9.25593ZM15.2336 8.80993C16.3684 8.80993 17.4812 8.80993 18.6048 8.80993C18.6048 7.88566 18.6048 6.97247 18.6048 6.06043C17.4703 6.06043 16.3526 6.06043 15.2336 6.06043C15.2336 6.98214 15.2336 7.88645 15.2336 8.80993ZM15.9621 21.188C16.6059 21.188 17.2395 21.188 17.8765 21.188C17.8765 20.618 17.8765 20.0609 17.8765 19.5037C17.2307 19.5037 16.5983 19.5037 15.9621 19.5037C15.9621 20.072 15.9621 20.6229 15.9621 21.188Z" fill="#999999" stroke="#999999" stroke-width="0.2"/>
<path d="M8.50204 14.9153C8.50187 14.7824 8.498 14.6492 8.50301 14.5165C8.5082 14.379 8.58239 14.2669 8.71986 14.2958C8.80249 14.3132 8.91808 14.4259 8.9252 14.5043C8.95034 14.7818 8.95042 15.0645 8.92546 15.3421C8.91825 15.4219 8.80442 15.5373 8.72206 15.5549C8.58616 15.584 8.50934 15.4719 8.50345 15.3349C8.49747 15.1953 8.50213 15.0552 8.50204 14.9153Z" fill="#999999" stroke="#999999" stroke-width="0.2"/>
<path d="M8.93562 17.0516C8.93562 17.1916 8.94115 17.3318 8.93403 17.4713C8.92709 17.6081 8.84824 17.7188 8.71226 17.6881C8.63051 17.6696 8.51897 17.5548 8.51194 17.4754C8.4875 17.1977 8.48759 16.9151 8.51273 16.6376C8.51985 16.559 8.64458 16.4911 8.71534 16.4182C8.7883 16.4895 8.9016 16.5496 8.92489 16.6345C8.96058 16.7646 8.9343 16.9118 8.9343 17.0517C8.93482 17.0516 8.93518 17.0516 8.93562 17.0516Z" fill="#999999" stroke="#999999" stroke-width="0.2"/>
<path d="M7.74316 10.6609C7.74324 10.7939 7.74641 10.9269 7.74236 11.0597C7.73814 11.1984 7.6622 11.309 7.5264 11.2817C7.44412 11.2652 7.32853 11.151 7.32141 11.0723C7.29627 10.7947 7.29618 10.512 7.32115 10.2343C7.32836 10.1544 7.44183 10.0386 7.52402 10.0211C7.65938 9.99225 7.73691 10.103 7.74192 10.2411C7.74702 10.3809 7.74307 10.521 7.74316 10.6609Z" fill="#999999" stroke="#999999" stroke-width="0.2"/>
<path d="M8.93666 10.6616C8.93666 10.7876 8.93859 10.9137 8.93613 11.0396C8.93332 11.1851 8.86757 11.2907 8.71374 11.2897C8.57126 11.2888 8.50375 11.189 8.50234 11.0518C8.49953 10.7859 8.49945 10.5199 8.50243 10.254C8.50402 10.1179 8.5688 10.0159 8.71181 10.0138C8.86607 10.0116 8.93165 10.1187 8.93587 10.2627C8.93973 10.3956 8.93666 10.5287 8.93666 10.6616Z" fill="#999999" stroke="#999999" stroke-width="0.2"/>
<path d="M8.9358 8.52473C8.93589 8.65763 8.9409 8.7908 8.93448 8.92335C8.92789 9.05846 8.85942 9.15629 8.71605 9.15541C8.5719 9.15453 8.50491 9.05555 8.50307 8.91966C8.49929 8.64691 8.48698 8.37266 8.51203 8.1022C8.51942 8.02265 8.63008 7.90899 8.71192 7.88974C8.84904 7.85757 8.92665 7.96894 8.93395 8.1051C8.94151 8.24468 8.93571 8.38488 8.9358 8.52473Z" fill="#999999" stroke="#999999" stroke-width="0.2"/>
<path d="M7.74213 8.52055C7.74213 8.66039 7.76754 8.80692 7.73308 8.93772C7.71058 9.02307 7.60132 9.08565 7.53091 9.15834C7.45804 9.08706 7.32918 9.02078 7.32232 8.94369C7.29718 8.65925 7.29736 8.3698 7.32276 8.08535C7.32944 8.0109 7.46349 7.89277 7.53583 7.89505C7.60694 7.89734 7.71207 8.01732 7.73413 8.1032C7.7678 8.23443 7.74301 8.3807 7.74301 8.52055C7.74266 8.52055 7.7424 8.52055 7.74213 8.52055Z" fill="#999999" stroke="#999999" stroke-width="0.2"/>
<path d="M7.31031 14.915C7.31031 14.7891 7.30855 14.6632 7.31084 14.5372C7.31347 14.3922 7.37615 14.2869 7.53217 14.2878C7.67676 14.2887 7.74181 14.3871 7.74312 14.5244C7.74567 14.7902 7.74559 15.056 7.74312 15.3218C7.74189 15.4582 7.67835 15.5599 7.53489 15.562C7.38081 15.5642 7.31488 15.4581 7.3111 15.3136C7.3075 15.1809 7.31031 15.0479 7.31031 14.915Z" fill="#999999" stroke="#999999" stroke-width="0.2"/>
<path d="M7.74159 17.0731C7.74151 17.2129 7.76506 17.3586 7.7328 17.4905C7.71329 17.5704 7.60016 17.6899 7.54206 17.683C7.45943 17.6732 7.32987 17.5687 7.32319 17.4953C7.29726 17.2109 7.29691 16.9214 7.32161 16.6368C7.32838 16.5586 7.45504 16.4907 7.52676 16.4182C7.5984 16.4896 7.71145 16.5507 7.73237 16.6347C7.76674 16.7731 7.74159 16.9262 7.74159 17.0731Z" fill="#999999" stroke="#999999" stroke-width="0.2"/>
<path d="M7.3103 12.7774C7.3103 12.6516 7.30723 12.5257 7.31109 12.4001C7.31549 12.2574 7.37456 12.1515 7.53357 12.1528C7.68256 12.154 7.74066 12.2552 7.74251 12.3895C7.74611 12.6549 7.74602 12.9205 7.74251 13.1859C7.74075 13.3203 7.68265 13.4214 7.53374 13.4227C7.37473 13.4241 7.3154 13.3185 7.31109 13.1756C7.30723 13.043 7.3103 12.9102 7.3103 12.7774Z" fill="#999999" stroke="#999999" stroke-width="0.2"/>
<path d="M8.50399 12.7817C8.50399 12.642 8.47832 12.4954 8.51322 12.365C8.53564 12.2815 8.64876 12.1653 8.71873 12.167C8.79221 12.1688 8.91756 12.2888 8.92459 12.3658C8.94999 12.643 8.94094 12.9241 8.93285 13.2033C8.92899 13.3372 8.8475 13.4505 8.7088 13.4145C8.62705 13.3933 8.53308 13.2848 8.51128 13.1987C8.47806 13.0674 8.50258 12.9214 8.50258 12.7817C8.50302 12.7817 8.50355 12.7817 8.50399 12.7817Z" fill="#999999" stroke="#999999" stroke-width="0.2"/>
<path d="M7.74307 19.182C7.74333 19.3218 7.74738 19.4616 7.74219 19.6012C7.73709 19.7365 7.67548 19.8329 7.52657 19.831C7.37925 19.829 7.31491 19.731 7.31236 19.5973C7.30717 19.3249 7.30533 19.0522 7.31377 18.7799C7.3179 18.6454 7.4 18.5333 7.53835 18.5695C7.61966 18.5908 7.71107 18.6996 7.73436 18.7861C7.76768 18.9098 7.7428 19.0492 7.74307 19.182Z" fill="#999999" stroke="#999999" stroke-width="0.2"/>
<path d="M8.93569 19.1896C8.93569 19.3294 8.94263 19.4696 8.93366 19.6087C8.92505 19.7426 8.84998 19.857 8.71093 19.8227C8.62909 19.8025 8.51913 19.6893 8.51219 19.6101C8.48819 19.3328 8.48837 19.0506 8.51351 18.7734C8.52045 18.6965 8.64641 18.574 8.71664 18.5748C8.78986 18.5756 8.90202 18.6891 8.92479 18.773C8.96012 18.9031 8.9341 19.0498 8.9341 19.1896C8.93472 19.1896 8.93516 19.1896 8.93569 19.1896Z" fill="#999999" stroke="#999999" stroke-width="0.2"/>
<path d="M10.1237 10.6529C10.1237 10.7858 10.1258 10.9188 10.1231 11.0516C10.1203 11.1893 10.0537 11.2858 9.91161 11.2887C9.76965 11.2916 9.6959 11.202 9.69511 11.0604C9.69344 10.7877 9.69344 10.5149 9.69555 10.242C9.69661 10.1006 9.77651 9.99405 9.91055 10.0216C9.99239 10.0383 10.0912 10.149 10.1139 10.2355C10.1482 10.3664 10.1228 10.5129 10.1228 10.6529C10.1232 10.6529 10.1234 10.6529 10.1237 10.6529Z" fill="#999999" stroke="#999999" stroke-width="0.2"/>
<path d="M10.1232 8.52009C10.1234 8.65299 10.1262 8.7859 10.1227 8.91863C10.119 9.05592 10.0506 9.15209 9.90921 9.15464C9.76628 9.15719 9.69605 9.06472 9.69526 8.92425C9.69377 8.6515 9.67988 8.37752 9.70387 8.10687C9.71108 8.02609 9.81612 7.90971 9.89629 7.88976C10.0306 7.85645 10.1145 7.9614 10.1213 8.10046C10.1282 8.24013 10.1229 8.38024 10.1232 8.52009Z" fill="#999999" stroke="#999999" stroke-width="0.2"/>
<path d="M9.69493 14.9304C9.69493 14.7906 9.67067 14.6446 9.70355 14.513C9.72508 14.4266 9.81852 14.3147 9.89877 14.2961C10.0326 14.265 10.1188 14.3708 10.1214 14.5101C10.1268 14.7897 10.1382 15.071 10.1127 15.3484C10.1055 15.4265 9.97884 15.4937 9.90694 15.5658C9.83662 15.4939 9.7271 15.4323 9.70495 15.3477C9.67058 15.2169 9.6959 15.0704 9.6959 14.9306C9.69554 14.9304 9.69528 14.9304 9.69493 14.9304Z" fill="#999999" stroke="#999999" stroke-width="0.2"/>
<path d="M9.69577 17.0559C9.69577 16.9161 9.67071 16.7697 9.70473 16.6387C9.72679 16.5537 9.83482 16.4909 9.90444 16.4182C9.97722 16.4895 10.1059 16.5559 10.1127 16.6329C10.1377 16.9174 10.1375 17.2068 10.1121 17.4912C10.1054 17.5658 9.97344 17.6293 9.89899 17.6979C9.83104 17.6238 9.72556 17.5592 9.70394 17.4733C9.67072 17.3418 9.69524 17.1958 9.69524 17.0558C9.69533 17.0559 9.6955 17.0559 9.69577 17.0559Z" fill="#999999" stroke="#999999" stroke-width="0.2"/>
<path d="M9.69656 19.2032C9.69656 19.0565 9.67424 18.9048 9.70527 18.7649C9.72267 18.6863 9.83659 18.5662 9.89197 18.5738C9.9753 18.5853 10.1046 18.6874 10.1108 18.7598C10.1356 19.0511 10.1354 19.3471 10.1099 19.6383C10.1036 19.7089 9.9695 19.8088 9.88599 19.8176C9.83009 19.8235 9.72285 19.7009 9.70422 19.6205C9.67354 19.4879 9.69586 19.343 9.69586 19.2032C9.69613 19.2032 9.69639 19.2032 9.69656 19.2032Z" fill="#999999" stroke="#999999" stroke-width="0.2"/>
<path d="M9.6952 12.7941C9.6952 12.6543 9.67121 12.5087 9.70373 12.3769C9.72491 12.2912 9.82722 12.1686 9.89552 12.167C9.96927 12.1653 10.1047 12.2803 10.111 12.3532C10.1358 12.6445 10.1355 12.9404 10.1098 13.2317C10.1037 13.3018 9.96848 13.4014 9.88497 13.4095C9.82881 13.4149 9.72263 13.292 9.70408 13.2113C9.67349 13.0786 9.69582 12.9338 9.69582 12.794C9.69564 12.7941 9.69538 12.7941 9.6952 12.7941Z" fill="#999999" stroke="#999999" stroke-width="0.2"/>
<path d="M18.2352 17.679C18.2352 17.5736 18.2297 17.4678 18.2366 17.3629C18.2455 17.2277 18.317 17.1115 18.4562 17.142C18.5386 17.1601 18.6485 17.2727 18.6594 17.3544C18.6879 17.5683 18.6879 17.7912 18.6591 18.0052C18.6481 18.0867 18.5378 18.1991 18.4555 18.2168C18.3161 18.2469 18.2453 18.1301 18.2366 17.9951C18.2297 17.8901 18.2352 17.7844 18.2352 17.679Z" fill="#999999" stroke="#999999" stroke-width="0.2"/>
<path d="M18.6672 15.7329C18.6672 15.8382 18.6961 15.9554 18.6589 16.0452C18.6238 16.1299 18.5246 16.2294 18.4432 16.2397C18.3835 16.2473 18.2562 16.1272 18.2472 16.0533C18.2203 15.8319 18.2178 15.6029 18.2459 15.3819C18.2562 15.3006 18.3786 15.2335 18.4499 15.16C18.5227 15.2317 18.63 15.2914 18.6597 15.3779C18.6963 15.4846 18.6685 15.6136 18.6685 15.7329C18.668 15.7329 18.6676 15.7329 18.6672 15.7329Z" fill="#999999" stroke="#999999" stroke-width="0.2"/>
<path d="M15.1842 15.6979C15.1843 15.5856 15.1578 15.4642 15.1926 15.3639C15.2207 15.283 15.3222 15.1761 15.3919 15.1755C15.463 15.175 15.5889 15.2841 15.5969 15.3556C15.6231 15.5913 15.6228 15.8336 15.5966 16.0693C15.589 16.138 15.4595 16.2423 15.388 16.2406C15.3187 16.239 15.2173 16.1329 15.1926 16.0533C15.1587 15.9445 15.1841 15.8173 15.1842 15.6979Z" fill="#999999" stroke="#999999" stroke-width="0.2"/>
<path d="M17.1344 17.6877C17.1345 17.7931 17.1364 17.8985 17.134 18.0039C17.131 18.1357 17.059 18.2413 16.9328 18.2167C16.8483 18.2003 16.7288 18.0953 16.7185 18.0175C16.6892 17.7965 16.6892 17.5668 16.7179 17.3457C16.7281 17.2668 16.8443 17.16 16.9284 17.142C17.0533 17.1152 17.1299 17.2178 17.1336 17.3505C17.1368 17.4629 17.1343 17.5754 17.1344 17.6877Z" fill="#999999" stroke="#999999" stroke-width="0.2"/>
<path d="M16.7084 15.7028C16.7084 15.5905 16.6792 15.4668 16.7172 15.3694C16.7505 15.2844 16.8534 15.1882 16.9376 15.1752C16.9917 15.1668 17.1156 15.2947 17.1246 15.3713C17.1504 15.5929 17.1371 15.8194 17.1328 16.0439C17.1303 16.1769 17.0558 16.254 16.9207 16.2531C16.7846 16.2522 16.717 16.1681 16.7091 16.0395C16.7022 15.9276 16.7077 15.815 16.7077 15.7028C16.7079 15.7028 16.7082 15.7028 16.7084 15.7028Z" fill="#999999" stroke="#999999" stroke-width="0.2"/>
<path d="M15.607 17.6938C15.607 17.8062 15.6339 17.9282 15.5985 18.0279C15.5702 18.1079 15.467 18.2108 15.3956 18.2119C15.3263 18.213 15.2022 18.1031 15.1945 18.032C15.1691 17.796 15.171 17.554 15.1946 17.3175C15.2014 17.2499 15.3221 17.1394 15.382 17.1447C15.4611 17.1517 15.5722 17.2406 15.5966 17.3175C15.6331 17.4323 15.6061 17.5673 15.6061 17.6938C15.6063 17.6938 15.6067 17.6938 15.607 17.6938Z" fill="#999999" stroke="#999999" stroke-width="0.2"/>
<path d="M18.669 11.2817C18.669 11.3871 18.6962 11.5029 18.6611 11.5948C18.6275 11.6825 18.5306 11.8009 18.4583 11.8032C18.3867 11.8055 18.2577 11.6866 18.2474 11.6084C18.2183 11.3874 18.2181 11.1578 18.2471 10.9368C18.2575 10.8578 18.3839 10.794 18.4573 10.7233C18.5279 10.7969 18.6295 10.8596 18.6608 10.9472C18.6963 11.0471 18.669 11.1693 18.669 11.2817Z" fill="#999999" stroke="#999999" stroke-width="0.2"/>
<path d="M17.1329 11.28C17.1331 11.3925 17.1588 11.5135 17.1249 11.6145C17.0978 11.6951 16.9987 11.8035 16.9305 11.8043C16.8578 11.8051 16.7283 11.7002 16.7204 11.6306C16.6938 11.3947 16.6937 11.1523 16.7199 10.9164C16.7278 10.8452 16.854 10.738 16.9265 10.7374C16.9948 10.737 17.0989 10.8445 17.1241 10.9245C17.1584 11.0331 17.1326 11.1607 17.1329 11.28Z" fill="#999999" stroke="#999999" stroke-width="0.2"/>
<path d="M15.6074 11.2779C15.6077 11.3903 15.6149 11.5033 15.6058 11.6149C15.5953 11.7454 15.5113 11.8408 15.3857 11.8095C15.3071 11.7898 15.2012 11.6872 15.193 11.6126C15.1681 11.3835 15.168 11.1481 15.1945 10.9193C15.2028 10.8474 15.3261 10.737 15.3952 10.738C15.4667 10.7391 15.5723 10.8427 15.5983 10.9225C15.6335 11.0305 15.6071 11.1586 15.6074 11.2779Z" fill="#999999" stroke="#999999" stroke-width="0.2"/>
</svg>
