<svg width="26" height="26" viewBox="0 0 26 26" fill="none" xmlns="http://www.w3.org/2000/svg">
<path d="M26 13C26 20.1797 20.1797 26 13 26C5.8203 26 0 20.1797 0 13C0 5.8203 5.8203 0 13 0C20.1797 0 26 5.8203 26 13Z" fill="#999999" fill-opacity="0.1"/>
<path fill-rule="evenodd" clip-rule="evenodd" d="M7.80066 5.72333L6.87629 4L5.95191 5.72333L4 6.05553L5.38062 7.4528L5.09864 9.38144L6.87629 8.52168L8.65393 9.38144L8.37196 7.4528L9.75258 6.05553L7.80066 5.72333ZM8.61668 6.42115L7.44249 6.22131L6.87629 5.16573L6.31008 6.22131L5.13589 6.42115L5.96556 7.26083L5.7942 8.43295L6.87629 7.90959L7.95838 8.43295L7.78701 7.26083L8.61668 6.42115Z" fill="#999999"/>
<path fill-rule="evenodd" clip-rule="evenodd" d="M21.449 6.22106H11.417V7.34583H21.449V6.22106ZM10.866 5.67004V7.89685H22V5.67004H10.866Z" fill="#999999"/>
<path fill-rule="evenodd" clip-rule="evenodd" d="M7.80066 12.0327L6.87629 10.3093L5.95191 12.0327L4 12.3649L5.38062 13.7621L5.09864 15.6908L6.87629 14.831L8.65393 15.6908L8.37196 13.7621L9.75258 12.3649L7.80066 12.0327ZM8.61668 12.7305L7.44249 12.5306L6.87629 11.4751L6.31008 12.5306L5.13589 12.7305L5.96556 13.5702L5.7942 14.7423L6.87629 14.2189L7.95838 14.7423L7.78701 13.5702L8.61668 12.7305Z" fill="#999999"/>
<path fill-rule="evenodd" clip-rule="evenodd" d="M7.80066 18.3419L6.87629 16.6185L5.95191 18.3419L4 18.6741L5.38062 20.0713L5.09864 22L6.87629 21.1402L8.65393 22L8.37196 20.0713L9.75258 18.6741L7.80066 18.3419ZM8.61668 19.0397L7.44249 18.8398L6.87629 17.7843L6.31008 18.8398L5.13589 19.0397L5.96556 19.8794L5.7942 21.0515L6.87629 20.5281L7.95838 21.0515L7.78701 19.8794L8.61668 19.0397Z" fill="#999999"/>
<path fill-rule="evenodd" clip-rule="evenodd" d="M17.7376 12.5304H11.417V13.6552H17.7376V12.5304ZM10.866 11.9794V14.2062H18.2886V11.9794H10.866Z" fill="#999999"/>
<path fill-rule="evenodd" clip-rule="evenodd" d="M14.0263 18.8397H11.417V19.9645H14.0263V18.8397ZM10.866 18.2887V20.5155H14.5773V18.2887H10.866Z" fill="#999999"/>
</svg>
