<svg width="26" height="26" viewBox="0 0 26 26" fill="none" xmlns="http://www.w3.org/2000/svg">
<path d="M25.67 13.835C25.67 20.3713 20.3713 25.67 13.835 25.67C7.29871 25.67 2 20.3713 2 13.835C2 7.29871 7.29871 2 13.835 2C20.3713 2 25.67 7.29871 25.67 13.835Z" fill="#043B73"/>
<path d="M21.065 9.41888H17.3066V7.80815L16.7697 7.27124H11.4006L10.8636 7.80815V9.41888H7.10527L6.56836 9.9558V18.5464L7.10527 19.0833H21.065L21.6019 18.5464V9.9558L21.065 9.41888ZM11.9375 8.34506H16.2328V9.41888H11.9375V8.34506ZM20.528 10.4927V11.3088L16.2328 13.7142V13.1773L15.7066 12.6404H12.4851L11.9375 13.1773V13.7142L7.64218 11.2551V10.4927H20.528ZM15.1589 13.7142V14.788H13.0113V13.7142H15.1589ZM7.64218 18.0095V12.49L11.9375 14.9491V15.3249L12.4744 15.8618H15.6958L16.2328 15.3249V14.992L20.528 12.5437V18.0095H7.64218Z" fill="white"/>
</svg>
