<svg width="308" height="266" viewBox="0 0 308 266" fill="none" xmlns="http://www.w3.org/2000/svg">
<path d="M78.5044 12.4038C78.5041 13.5084 79.3994 14.404 80.5039 14.4042C81.6085 14.4045 82.5041 13.5093 82.5044 12.4047L78.5044 12.4038ZM208.193 12.4042L206.196 12.2868L206.193 12.3455V12.4042H208.193ZM206.193 88.0714C206.193 89.176 207.088 90.0714 208.193 90.0714C209.297 90.0714 210.193 89.176 210.193 88.0714H206.193ZM82.5044 29.9023C82.5044 28.7977 81.609 27.9023 80.5044 27.9023C79.3998 27.9023 78.5044 28.7977 78.5044 29.9023H82.5044ZM80.5044 165.157L78.5044 165.157L78.5044 165.157L80.5044 165.157ZM160.901 177.562C162.005 177.562 162.901 176.666 162.901 175.562C162.901 174.457 162.005 173.562 160.901 173.562V177.562ZM82.5044 12.4047C82.5048 10.4309 82.5316 8.24725 83.2376 6.55251C83.5684 5.75866 84.0171 5.1596 84.6236 4.74631C85.2266 4.3353 86.1438 4 87.5982 4V0C85.5057 0 83.7628 0.492314 82.3709 1.44095C80.9823 2.3873 80.1011 3.67992 79.5453 5.01421C78.4781 7.57575 78.5048 10.5942 78.5044 12.4038L82.5044 12.4047ZM87.5982 4H200.626V0H87.5982V4ZM200.626 4C203.391 4 206.529 6.63273 206.196 12.2868L210.189 12.5217C210.613 5.31233 206.374 0 200.626 0V4ZM206.193 12.4042V88.0714H210.193V12.4042H206.193ZM78.5044 29.9023V165.157H82.5044V29.9023H78.5044ZM78.5044 165.157C78.5044 166.671 78.5029 168.183 78.6229 169.552C78.7427 170.917 78.9942 172.303 79.5908 173.536C80.214 174.824 81.1863 175.886 82.608 176.592C83.9785 177.272 85.6462 177.562 87.5982 177.562V173.562C86.0033 173.562 85.0108 173.319 84.3862 173.009C83.8127 172.724 83.455 172.338 83.1914 171.794C82.9013 171.194 82.7095 170.363 82.6076 169.202C82.5059 168.043 82.5044 166.718 82.5044 165.157L78.5044 165.157ZM87.5982 177.562H160.901V173.562H87.5982V177.562Z" fill="#043B73"/>
<path d="M21.8625 63.4797L21.2922 61.5628L21.2255 61.5826L21.1603 61.607L21.8625 63.4797ZM9.0937 80.9778L7.14133 81.4116L7.16047 81.4977L7.18711 81.5818L9.0937 80.9778ZM54.4939 224.273L52.5873 224.877L52.6 224.917L52.6143 224.956L54.4939 224.273ZM71.519 232.785L70.8611 230.896C70.8286 230.908 70.7963 230.92 70.7644 230.933L71.519 232.785ZM156.357 205.353C157.4 204.989 157.951 203.849 157.587 202.806C157.224 201.763 156.084 201.212 155.041 201.575L156.357 205.353ZM78.5155 44.5376L21.2922 61.5628L22.4329 65.3967L79.6562 48.3715L78.5155 44.5376ZM21.1603 61.607C20.2444 61.9505 19.3184 62.2668 18.3628 62.5977C17.4195 62.9243 16.4517 63.2637 15.5121 63.6365C13.6459 64.3768 11.7511 65.3005 10.1819 66.686C8.57015 68.1089 7.35803 69.969 6.79689 72.4566C6.24662 74.8961 6.34573 77.8314 7.14133 81.4116L11.0461 80.5439C10.3283 77.3141 10.321 75.0118 10.6988 73.3368C11.0658 71.7101 11.8163 70.5789 12.8293 69.6845C13.8847 68.7527 15.2767 68.0331 16.987 67.3546C17.8356 67.018 18.7284 66.7041 19.6716 66.3775C20.6026 66.0552 21.589 65.7183 22.5648 65.3524L21.1603 61.607ZM7.18711 81.5818L52.5873 224.877L56.4005 223.668L11.0003 80.3737L7.18711 81.5818ZM52.6143 224.956C53.6223 227.728 55.5042 231.323 58.7076 233.657C62.0581 236.097 66.5813 236.956 72.2736 234.637L70.7644 230.933C66.2416 232.776 63.1981 231.979 61.0628 230.424C58.7802 228.761 57.2571 226.019 56.3735 223.589L52.6143 224.956ZM72.1769 234.674L156.357 205.353L155.041 201.575L70.8611 230.896L72.1769 234.674Z" fill="#043B73"/>
<path d="M281.496 76.7214L282.257 74.872L282.177 74.839L282.094 74.8131L281.496 76.7214ZM289.535 93.2736L287.63 92.6641C287.629 92.6692 287.627 92.6743 287.626 92.6795L289.535 93.2736ZM281.005 113.961C280.677 115.016 281.266 116.137 282.32 116.465C283.375 116.793 284.496 116.204 284.824 115.149L281.005 113.961ZM243.189 237.514L245.046 238.257L245.065 238.209L245.082 238.16L243.189 237.514ZM226.164 244.608L225.489 246.491L225.539 246.508L225.589 246.524L226.164 244.608ZM208.54 55.9295L280.897 78.6297L282.094 74.8131L209.738 52.1129L208.54 55.9295ZM280.734 78.5708C284.68 80.1954 286.875 81.7488 287.909 83.648C288.905 85.4785 289.08 88.1344 287.63 92.6641L291.44 93.8832C293.017 88.9544 293.193 84.9894 291.422 81.736C289.689 78.5514 286.351 76.5578 282.257 74.872L280.734 78.5708ZM287.626 92.6795L281.005 113.961L284.824 115.149L291.445 93.8677L287.626 92.6795ZM248.39 216.06L241.296 236.869L245.082 238.16L252.176 217.351L248.39 216.06ZM241.332 236.771C240.537 238.759 238.937 240.853 236.562 242.14C234.234 243.401 231.006 243.972 226.739 242.692L225.589 246.524C230.781 248.081 235.12 247.47 238.467 245.657C241.766 243.87 243.95 240.999 245.046 238.257L241.332 236.771ZM226.839 242.725L133.201 209.148L131.851 212.913L225.489 246.491L226.839 242.725Z" fill="#043B73"/>
<path fill-rule="evenodd" clip-rule="evenodd" d="M275.348 185.493C292.846 150.024 281.969 112.19 253.594 98.9484C228.529 87.2514 185.209 84.1933 165.158 129.215C143.884 176.98 195.897 237.987 256.904 203.464L286.224 232.312C296.156 242.243 315.072 229.475 305.141 217.652L275.348 185.493ZM187.384 150.024C190.222 106.042 256.904 104.624 256.904 150.024C256.904 203.464 184.29 197.977 187.384 150.024Z" fill="#043B73"/>
<path opacity="0.5" d="M135.047 28.8931C133.706 27.5007 131.491 27.4589 130.098 28.7997C128.706 30.1405 128.664 32.3562 130.005 33.7485L135.047 28.8931ZM154.597 59.2862C155.937 60.6786 158.153 60.7204 159.545 59.3796C160.938 58.0388 160.98 55.8231 159.639 54.4307L154.597 59.2862ZM130.005 33.7485L154.597 59.2862L159.639 54.4307L135.047 28.8931L130.005 33.7485Z" fill="#043B73" fill-opacity="0.5"/>
<path opacity="0.5" d="M159.667 34.7604C161.124 33.4907 161.276 31.2798 160.007 29.8223C158.737 28.3648 156.526 28.2126 155.069 29.4823L159.667 34.7604ZM128.337 52.7701C126.879 54.0398 126.727 56.2507 127.996 57.7082C129.266 59.1657 131.477 59.3179 132.935 58.0482L128.337 52.7701ZM155.069 29.4823L128.337 52.7701L132.935 58.0482L159.667 34.7604L155.069 29.4823Z" fill="#043B73" fill-opacity="0.5"/>
<path d="M106.042 79.9236C104.938 79.9236 104.042 80.819 104.042 81.9236C104.042 83.0282 104.938 83.9236 106.042 83.9236L106.042 79.9236ZM179.345 83.9236C180.45 83.9236 181.345 83.0282 181.345 81.9236C181.345 80.819 180.45 79.9236 179.345 79.9236L179.345 83.9236ZM106.042 83.9236L179.345 83.9236L179.345 79.9236L106.042 79.9236L106.042 83.9236Z" fill="#043B73"/>
<path opacity="0.5" d="M106.043 102.624C104.939 102.623 104.043 103.518 104.042 104.623C104.042 105.727 104.937 106.623 106.042 106.624L106.043 102.624ZM128.742 106.634C129.846 106.634 130.742 105.739 130.743 104.635C130.743 103.53 129.848 102.634 128.744 102.634L128.742 106.634ZM106.042 106.624L128.742 106.634L128.744 102.634L106.043 102.624L106.042 106.624Z" fill="#043B73" fill-opacity="0.5"/>
<path opacity="0.5" d="M147.665 102.571C146.56 102.568 145.662 103.461 145.659 104.566C145.656 105.67 146.549 106.568 147.654 106.571L147.665 102.571ZM166.57 106.623C167.675 106.627 168.573 105.734 168.576 104.629C168.579 103.524 167.686 102.627 166.581 102.623L166.57 106.623ZM147.654 106.571L166.57 106.623L166.581 102.623L147.665 102.571L147.654 106.571Z" fill="#043B73" fill-opacity="0.5"/>
<path d="M106.045 125.283C104.94 125.282 104.044 126.176 104.042 127.281C104.041 128.385 104.936 129.282 106.04 129.283L106.045 125.283ZM145.766 129.324C146.87 129.325 147.767 128.43 147.768 127.326C147.769 126.221 146.874 125.325 145.77 125.324L145.766 129.324ZM106.04 129.283L145.766 129.324L145.77 125.324L106.045 125.283L106.04 129.283Z" fill="#043B73"/>
<path opacity="0.5" d="M106.049 145.145C104.944 145.142 104.046 146.034 104.042 147.139C104.039 148.244 104.932 149.142 106.036 149.145L106.049 145.145ZM119.278 149.186C120.383 149.19 121.281 148.297 121.284 147.193C121.288 146.088 120.395 145.19 119.29 145.186L119.278 149.186ZM106.036 149.145L119.278 149.186L119.29 145.186L106.049 145.145L106.036 149.145Z" fill="#043B73" fill-opacity="0.5"/>
<path opacity="0.5" d="M132.535 145.158C131.43 145.153 130.531 146.045 130.526 147.149C130.521 148.254 131.413 149.153 132.517 149.158L132.535 145.158ZM141.976 149.199C143.08 149.204 143.979 148.312 143.984 147.208C143.989 146.103 143.098 145.204 141.993 145.199L141.976 149.199ZM132.517 149.158L141.976 149.199L141.993 145.199L132.535 145.158L132.517 149.158Z" fill="#043B73" fill-opacity="0.5"/>
<path d="M48.7401 117.112C47.6847 117.438 47.0932 118.558 47.4191 119.613C47.7449 120.669 48.8646 121.26 49.92 120.934L48.7401 117.112ZM80.1121 111.614C81.1675 111.288 81.759 110.168 81.4332 109.113C81.1073 108.057 79.9876 107.466 78.9322 107.792L80.1121 111.614ZM49.92 120.934L80.1121 111.614L78.9322 107.792L48.7401 117.112L49.92 120.934Z" fill="#043B73"/>
<path opacity="0.5" d="M54.3196 136.836C53.2745 137.194 52.7174 138.331 53.0751 139.376C53.4328 140.421 54.57 140.978 55.615 140.621L54.3196 136.836ZM79.261 132.527C80.306 132.169 80.8632 131.032 80.5055 129.987C80.1478 128.942 79.0106 128.384 77.9656 128.742L79.261 132.527ZM55.615 140.621L79.261 132.527L77.9656 128.742L54.3196 136.836L55.615 140.621Z" fill="#043B73" fill-opacity="0.5"/>
<path d="M61.7268 157.254C60.6814 157.611 60.123 158.747 60.4797 159.793C60.8363 160.838 61.9729 161.396 63.0183 161.04L61.7268 157.254ZM78.9126 155.618C79.958 155.261 80.5163 154.124 80.1597 153.079C79.803 152.033 78.6665 151.475 77.621 151.832L78.9126 155.618ZM63.0183 161.04L78.9126 155.618L77.621 151.832L61.7268 157.254L63.0183 161.04Z" fill="#043B73"/>
<path opacity="0.5" d="M68.2639 177.766C67.2143 178.11 66.6426 179.24 66.9868 180.289C67.3311 181.339 68.461 181.911 69.5105 181.566L68.2639 177.766ZM81.3958 177.668C82.4453 177.324 83.0171 176.194 82.6728 175.144C82.3286 174.095 81.1987 173.523 80.1491 173.867L81.3958 177.668ZM69.5105 181.566L81.3958 177.668L80.1491 173.867L68.2639 177.766L69.5105 181.566Z" fill="#043B73" fill-opacity="0.5"/>
<path d="M73.4285 197.536C72.3689 197.848 71.7627 198.96 72.0745 200.019C72.3864 201.079 73.4981 201.685 74.5578 201.373L73.4285 197.536ZM113.601 189.884C114.661 189.572 115.267 188.46 114.955 187.4C114.643 186.341 113.531 185.735 112.472 186.046L113.601 189.884ZM74.5578 201.373L113.601 189.884L112.472 186.046L73.4285 197.536L74.5578 201.373Z" fill="#043B73"/>
<circle cx="45.5092" cy="90.4362" r="7.4584" fill="#043B73" fill-opacity="0.5" stroke="#043B73" stroke-width="4"/>
<path d="M250.328 23.5821C249.525 24.341 249.49 25.6068 250.248 26.4094C251.007 27.2121 252.273 27.2475 253.076 26.4887L250.328 23.5821ZM272.938 7.70952C273.741 6.95067 273.776 5.68484 273.018 4.88221C272.259 4.07957 270.993 4.04408 270.19 4.80293L272.938 7.70952ZM253.076 26.4887L272.938 7.70952L270.19 4.80293L250.328 23.5821L253.076 26.4887Z" fill="#043B73"/>
<path d="M44.0199 20.8753C44.6788 21.7618 45.9317 21.9462 46.8181 21.2872C47.7046 20.6283 47.8891 19.3755 47.2301 18.489L44.0199 20.8753ZM35.4545 2.64755C34.7956 1.76107 33.5428 1.57663 32.6563 2.23559C31.7698 2.89454 31.5854 4.14737 32.2443 5.03385L35.4545 2.64755ZM47.2301 18.489L35.4545 2.64755L32.2443 5.03385L44.0199 20.8753L47.2301 18.489Z" fill="#043B73"/>
<path d="M21.2612 183.492C22.3014 183.12 22.8434 181.976 22.4718 180.936C22.1002 179.896 20.9558 179.354 19.9156 179.725L21.2612 183.492ZM1.32734 186.365C0.287146 186.737 -0.254866 187.881 0.116719 188.922C0.488304 189.962 1.63278 190.504 2.67297 190.132L1.32734 186.365ZM19.9156 179.725L1.32734 186.365L2.67297 190.132L21.2612 183.492L19.9156 179.725Z" fill="#043B73"/>
<path d="M91.8312 263.288C91.438 264.32 91.9561 265.476 92.9883 265.869C94.0205 266.262 95.1761 265.744 95.5692 264.712L91.8312 263.288ZM102.595 246.266C102.988 245.234 102.47 244.078 101.438 243.685C100.406 243.292 99.2501 243.81 98.8569 244.842L102.595 246.266ZM95.5692 264.712L102.595 246.266L98.8569 244.842L91.8312 263.288L95.5692 264.712Z" fill="#043B73"/>
<path d="M211.505 129.689L210.787 127.822L210.645 127.877L210.513 127.952L211.505 129.689ZM237.988 132.999L239.616 131.837L239.439 131.589L239.197 131.406L237.988 132.999ZM210.513 127.952C210.342 128.05 210.129 128.17 209.994 128.261C209.967 128.279 209.851 128.355 209.727 128.468C209.69 128.502 209.491 128.679 209.327 128.969C209.244 129.115 209.073 129.456 209.066 129.928C209.058 130.5 209.295 131.061 209.739 131.455C210.106 131.78 210.489 131.882 210.661 131.918C210.856 131.958 211.015 131.961 211.1 131.96C211.271 131.958 211.404 131.934 211.454 131.925C211.568 131.903 211.663 131.875 211.698 131.865C211.835 131.824 212.049 131.748 212.207 131.692C212.402 131.623 212.647 131.538 212.943 131.441C214.125 131.051 216.127 130.468 218.626 130.134C223.634 129.466 230.486 129.819 236.779 134.593L239.197 131.406C231.775 125.776 223.729 125.418 218.097 126.169C215.276 126.546 213.021 127.203 211.691 127.641C211.359 127.751 211.085 127.846 210.88 127.918C210.775 127.955 210.698 127.982 210.635 128.005C210.564 128.029 210.549 128.033 210.561 128.03C210.567 128.028 210.582 128.024 210.603 128.018C210.622 128.013 210.663 128.003 210.717 127.993C210.756 127.986 210.881 127.963 211.046 127.96C211.128 127.959 211.284 127.962 211.477 128.002C211.647 128.037 212.029 128.139 212.394 128.463C212.837 128.856 213.074 129.416 213.066 129.987C213.059 130.457 212.889 130.796 212.807 130.941C212.645 131.227 212.45 131.399 212.419 131.427C212.353 131.487 212.298 131.528 212.275 131.545C212.248 131.565 212.227 131.58 212.217 131.586C212.204 131.595 212.254 131.564 212.497 131.425L210.513 127.952ZM236.361 134.162C236.369 134.173 236.363 134.166 236.353 134.15C236.347 134.142 236.332 134.118 236.312 134.086C236.304 134.073 236.243 133.974 236.184 133.837C236.164 133.789 236.075 133.583 236.04 133.302C236.025 133.181 235.883 131.945 237.067 131.3C237.402 131.155 238.008 131.056 238.258 131.069C238.419 131.095 238.681 131.167 238.783 131.205C238.971 131.282 239.103 131.371 239.144 131.399C239.245 131.468 239.316 131.53 239.329 131.541C239.353 131.563 239.371 131.579 239.377 131.585C239.389 131.596 239.392 131.6 239.345 131.553C239.311 131.518 239.262 131.469 239.202 131.411C238.96 131.172 238.555 130.79 237.989 130.331C236.861 129.414 235.095 128.196 232.685 127.192C227.814 125.163 220.492 124.089 210.787 127.822L212.223 131.555C220.96 128.195 227.218 129.248 231.147 130.885C233.137 131.713 234.576 132.712 235.468 133.436C235.913 133.797 236.222 134.091 236.399 134.264C236.44 134.304 236.59 134.455 236.633 134.495C236.646 134.508 236.671 134.531 236.701 134.557C236.719 134.572 236.794 134.639 236.898 134.709C236.941 134.738 237.075 134.828 237.264 134.906C237.366 134.944 237.628 135.016 237.79 135.042C238.04 135.056 238.646 134.957 238.982 134.811C240.166 134.166 240.024 132.929 240.009 132.808C239.974 132.525 239.885 132.318 239.864 132.269C239.804 132.128 239.74 132.024 239.728 132.006C239.705 131.967 239.685 131.936 239.673 131.92C239.651 131.886 239.628 131.855 239.616 131.837L236.361 134.162Z" fill="#043B73" fill-opacity="0.5"/>
<path d="M243.456 140.476L242.166 142.005L242.251 142.076L242.343 142.138L243.456 140.476ZM247.431 150.865L245.434 150.749L245.431 150.807L245.431 150.865L247.431 150.865ZM244.745 138.947C244.669 138.883 244.659 138.869 244.686 138.898C244.694 138.907 244.757 138.973 244.831 139.082C244.866 139.134 244.941 139.251 245.009 139.416C245.055 139.527 245.227 139.954 245.128 140.515C245.07 140.838 244.922 141.202 244.629 141.519C244.343 141.829 244.011 141.993 243.74 142.075C243.264 142.218 242.875 142.139 242.767 142.117C242.499 142.06 242.316 141.959 242.3 141.951C242.209 141.903 242.178 141.874 242.223 141.908C242.381 142.028 242.844 142.438 243.377 143.164C244.416 144.579 245.647 147.085 245.434 150.749L249.427 150.981C249.703 146.237 248.096 142.832 246.601 140.796C245.866 139.796 245.137 139.096 244.633 138.716C244.513 138.625 244.349 138.509 244.166 138.413C244.104 138.38 243.885 138.264 243.591 138.203C243.471 138.177 243.072 138.099 242.589 138.244C242.315 138.326 241.98 138.492 241.691 138.805C241.397 139.123 241.247 139.49 241.189 139.817C241.088 140.385 241.262 140.821 241.313 140.944C241.386 141.121 241.469 141.251 241.515 141.32C241.611 141.461 241.708 141.57 241.765 141.63C241.889 141.763 242.03 141.89 242.166 142.005L244.745 138.947ZM245.431 150.865C245.431 150.916 245.431 151.025 245.444 151.149C245.448 151.183 245.466 151.369 245.54 151.589C245.564 151.661 245.677 152.008 245.99 152.337C246.168 152.524 246.487 152.784 246.963 152.9C247.472 153.025 247.945 152.933 248.305 152.761C248.884 152.483 249.139 152.017 249.177 151.95C249.263 151.801 249.31 151.673 249.331 151.615C249.374 151.491 249.397 151.388 249.406 151.347C249.427 151.249 249.439 151.16 249.446 151.106C249.474 150.879 249.494 150.556 249.501 150.183C249.514 149.419 249.474 148.274 249.262 146.978C248.851 144.466 247.718 140.924 244.569 138.814L242.343 142.138C244.113 143.324 244.967 145.501 245.314 147.623C245.481 148.643 245.512 149.543 245.502 150.113C245.499 150.254 245.494 150.37 245.489 150.458C245.486 150.502 245.484 150.537 245.481 150.564C245.48 150.577 245.479 150.587 245.478 150.594C245.478 150.602 245.477 150.605 245.477 150.605C245.477 150.605 245.477 150.603 245.478 150.6C245.478 150.597 245.479 150.593 245.48 150.586C245.482 150.576 245.486 150.549 245.494 150.513C245.499 150.489 245.518 150.399 245.559 150.284C245.577 150.231 245.623 150.107 245.707 149.96C245.744 149.896 245.997 149.431 246.575 149.154C246.934 148.982 247.406 148.891 247.914 149.015C248.39 149.131 248.708 149.391 248.886 149.577C249.198 149.905 249.309 150.249 249.332 150.318C249.404 150.531 249.42 150.706 249.422 150.725C249.428 150.78 249.429 150.821 249.43 150.835C249.431 150.853 249.431 150.864 249.431 150.865L245.431 150.865Z" fill="#043B73"/>
</svg>
