<svg width="121" height="31" viewBox="0 0 121 31" fill="none" xmlns="http://www.w3.org/2000/svg">
    <rect width="121" height="31" rx="15.5" fill="#043B73"/>
    <path d="M19.713 21H18.3v-7.371h-2.508v-1.195h6.422v1.195h-2.502V21zm6.96-6.61a3.974 3.974 0 0 1 .692.065l-.129 1.29a1.742 1.742 0 0 0-.304-.054 3.214 3.214 0 0 0-.317-.017c-.246 0-.48.04-.703.123a1.658 1.658 0 0 0-.996.967 2.246 2.246 0 0 0-.146.843V21h-1.383v-6.486h1.078l.187 1.142h.065c.129-.23.289-.441.48-.633.192-.191.41-.343.657-.457.25-.117.523-.175.82-.175zm4.436 0c.82 0 1.44.182 1.858.545.422.364.633.93.633 1.7V21h-.979l-.264-.92h-.047a3.345 3.345 0 0 1-.568.58 1.986 1.986 0 0 1-.68.34 3.203 3.203 0 0 1-.931.117c-.387 0-.733-.07-1.037-.21a1.648 1.648 0 0 1-.721-.657c-.176-.293-.264-.664-.264-1.113 0-.668.248-1.17.744-1.506.5-.336 1.254-.522 2.262-.557l1.125-.04v-.34c0-.45-.105-.77-.316-.962-.207-.191-.5-.287-.88-.287a3.19 3.19 0 0 0-.942.14 6.676 6.676 0 0 0-.891.347l-.445-.973a4.994 4.994 0 0 1 1.078-.41 5.019 5.019 0 0 1 1.265-.158zm1.125 3.51-.838.03c-.687.023-1.17.14-1.447.351-.277.211-.416.5-.416.867 0 .32.096.555.287.704.192.144.444.216.756.216.477 0 .871-.134 1.184-.404.316-.273.474-.674.474-1.201V17.9zm6.674-3.51c.73 0 1.299.19 1.705.569.41.375.615.979.615 1.81V21h-1.376v-3.973c0-.504-.104-.88-.311-1.13-.207-.254-.527-.381-.96-.381-.63 0-1.067.193-1.313.58-.243.386-.364.947-.364 1.681V21h-1.377v-6.486H36.6l.193.879h.076c.14-.227.315-.413.522-.557.21-.149.445-.26.703-.334.261-.074.533-.111.814-.111zm8.608 4.758c0 .426-.104.786-.31 1.079-.208.293-.51.515-.91.668-.394.148-.878.222-1.452.222-.453 0-.844-.033-1.172-.1a4.014 4.014 0 0 1-.92-.292v-1.19c.308.145.654.27 1.037.375.387.106.752.158 1.096.158.453 0 .78-.07.978-.21a.676.676 0 0 0 .3-.575.609.609 0 0 0-.124-.375c-.078-.113-.227-.228-.445-.346a8.523 8.523 0 0 0-.95-.433 7.919 7.919 0 0 1-1.037-.492 1.806 1.806 0 0 1-.638-.592c-.145-.235-.217-.533-.217-.897 0-.574.226-1.01.68-1.306.457-.301 1.06-.451 1.81-.451.399 0 .774.04 1.125.123a5.35 5.35 0 0 1 1.043.345l-.433 1.037a6.48 6.48 0 0 0-.885-.316 3.167 3.167 0 0 0-.897-.129c-.355 0-.627.055-.814.164a.517.517 0 0 0-.276.469c0 .152.045.281.135.387.09.105.244.21.463.316.223.106.531.236.926.393.387.148.72.304 1.002.468.285.16.504.358.656.592.153.235.229.537.229.908zm4.728-3.585h-1.576V21h-1.377v-5.438h-1.06V14.9l1.06-.404v-.451c0-.55.086-.988.258-1.313.176-.324.426-.556.75-.697.328-.144.719-.217 1.172-.217.297 0 .568.026.814.077.246.046.453.101.621.164l-.357 1.043a4.522 4.522 0 0 0-.446-.118 2.27 2.27 0 0 0-.527-.058c-.312 0-.543.097-.691.293-.145.195-.217.48-.217.855v.44h1.576v1.049zm3.691-1.172c.579 0 1.075.119 1.489.357.414.238.732.576.955 1.014.223.437.334.96.334 1.57v.738h-4.33c.015.63.183 1.114.504 1.453.324.34.777.51 1.36.51.413 0 .784-.039 1.112-.117a6.185 6.185 0 0 0 1.026-.357v1.119a4.48 4.48 0 0 1-.99.334c-.336.07-.739.105-1.208.105-.636 0-1.197-.123-1.681-.369a2.7 2.7 0 0 1-1.131-1.113c-.27-.492-.404-1.104-.404-1.834 0-.727.123-1.344.369-1.852a2.66 2.66 0 0 1 1.037-1.16c.445-.266.965-.398 1.558-.398zm0 1.037c-.433 0-.785.14-1.054.422-.266.28-.422.693-.469 1.236h2.953a2.273 2.273 0 0 0-.164-.861 1.249 1.249 0 0 0-.469-.586c-.207-.141-.472-.211-.797-.211zm7.618-1.037a3.978 3.978 0 0 1 .691.064l-.129 1.29a1.742 1.742 0 0 0-.304-.054 3.214 3.214 0 0 0-.317-.017c-.246 0-.48.04-.703.123a1.658 1.658 0 0 0-.996.967 2.246 2.246 0 0 0-.147.843V21h-1.382v-6.486h1.078l.187 1.142h.065c.129-.23.289-.441.48-.633.192-.191.41-.343.656-.457.25-.117.524-.175.82-.175zM75.852 21h-1.729l-4.195-6.838h-.053c.016.23.03.475.041.732.016.258.027.524.035.797.012.274.022.551.03.832V21h-1.278v-8.566h1.717l4.19 6.79h.04c-.007-.199-.017-.427-.029-.685a363.05 363.05 0 0 1-.035-.797 61.87 61.87 0 0 1-.018-.803v-4.505h1.284V21zm7.851-3.258c0 .54-.07 1.018-.21 1.436-.141.418-.346.771-.616 1.06-.27.285-.594.504-.973.657a3.493 3.493 0 0 1-1.283.222c-.445 0-.853-.074-1.224-.223a2.793 2.793 0 0 1-.967-.656 3.01 3.01 0 0 1-.627-1.06 4.278 4.278 0 0 1-.223-1.436c0-.715.123-1.32.37-1.816.25-.5.605-.881 1.066-1.143.46-.261 1.01-.392 1.646-.392.598 0 1.125.13 1.582.392a2.71 2.71 0 0 1 1.072 1.143c.258.5.387 1.105.387 1.816zm-4.705 0c0 .473.057.877.17 1.213.117.336.297.594.539.774.242.175.555.263.938.263.382 0 .695-.088.937-.264.242-.18.42-.437.533-.773.114-.336.17-.74.17-1.213 0-.473-.056-.873-.17-1.201-.113-.332-.29-.584-.533-.756-.242-.176-.557-.264-.943-.264-.57 0-.987.192-1.248.575-.262.383-.393.931-.393 1.646zm11.59 3.252-.82-3.017a137.072 137.072 0 0 1-.305-1.19l-.152-.627-.1-.445h-.047c-.02.105-.05.254-.094.445a40.763 40.763 0 0 1-.31 1.29c-.051.214-.098.398-.14.55l-.862 2.994h-1.512l-1.816-6.486h1.394l.844 3.223c.055.218.107.454.158.708a16.782 16.782 0 0 1 .229 1.295h.047a19.03 19.03 0 0 1 .158-.908c.035-.18.07-.348.105-.504.035-.16.069-.289.1-.386l.996-3.428h1.506l.955 3.428a12.867 12.867 0 0 1 .275 1.236c.043.223.07.408.082.556h.047c.016-.132.043-.312.082-.539.043-.23.092-.474.147-.732.054-.262.111-.504.17-.727l.86-3.222h1.372l-1.828 6.486h-1.541zM104.721 10.727a.747.747 0 0 0-.719.488.741.741 0 0 0-.021.457c.04.15.126.284.247.383l4.589 3.932-4.589 3.93a.756.756 0 0 0-.301.52.75.75 0 0 0 1.275.615l5.254-4.495a.739.739 0 0 0 .263-.57.742.742 0 0 0-.263-.571l-5.254-4.5a.751.751 0 0 0-.481-.19z" fill="#fff"/>
</svg>
