<svg width="14" height="14" viewBox="0 0 14 14" fill="none" xmlns="http://www.w3.org/2000/svg">
<path d="M7 0C3.1346 0 0 3.1346 0 7C0 10.8654 3.1346 14 7 14C10.8654 14 14 10.8654 14 7C14 3.1346 10.8654 0 7 0ZM10.1961 5.45786C10.1992 5.52675 10.2007 5.59596 10.2007 5.6655C10.2007 7.78859 8.58466 10.2368 5.62929 10.2369H5.62939H5.62929C4.72192 10.2369 3.87758 9.97096 3.16653 9.5152C3.29225 9.53004 3.42021 9.53741 3.54977 9.53741C4.30258 9.53741 4.99536 9.28064 5.54533 8.84966C4.84198 8.83662 4.24896 8.3721 4.04431 7.73369C4.14226 7.75249 4.24298 7.76274 4.34627 7.76274C4.49292 7.76274 4.63498 7.74298 4.76999 7.70613C4.03481 7.55894 3.48099 6.90921 3.48099 6.1312C3.48099 6.12393 3.48099 6.11742 3.4812 6.11069C3.69771 6.23106 3.9453 6.30348 4.20891 6.3116C3.7775 6.02374 3.49391 5.53166 3.49391 4.97421C3.49391 4.67984 3.57349 4.40405 3.71149 4.16661C4.50381 5.13881 5.68793 5.77818 7.02328 5.84537C6.99573 5.72766 6.98152 5.60504 6.98152 5.479C6.98152 4.59204 7.70111 3.87245 8.58839 3.87245C9.05057 3.87245 9.46799 4.06781 9.76118 4.38013C10.1272 4.30792 10.4709 4.17419 10.7814 3.99016C10.6613 4.36517 10.4066 4.67984 10.0749 4.87883C10.3999 4.83995 10.7097 4.75375 10.9975 4.62579C10.7825 4.94804 10.5098 5.23109 10.1961 5.45786Z" fill="#00ACEE"/>
</svg>
