<svg width="16" height="16" viewBox="0 0 16 16" fill="none" xmlns="http://www.w3.org/2000/svg">
<path d="M15.8169 14.9324L11.3028 10.4182C13.3595 7.91589 13.2195 4.20124 10.8824 1.86418C8.39623 -0.622043 4.35088 -0.622043 1.86466 1.86418C-0.621555 4.35039 -0.621555 8.39574 1.86466 10.882C4.2011 13.2184 7.91529 13.3599 10.4187 11.3023L14.9329 15.8164C15.177 16.0606 15.5728 16.0606 15.8169 15.8164C16.061 15.5723 16.061 15.1765 15.8169 14.9324ZM9.99841 9.99789C7.99966 11.9966 4.74748 11.9966 2.74873 9.99789C0.749977 7.99914 0.749977 4.74696 2.74873 2.74821C4.74741 0.749551 7.9996 0.749395 9.99841 2.74821C11.9972 4.74696 11.9972 7.99914 9.99841 9.99789Z" fill="#F6821F"/>
<path d="M9.43412 5.74825H6.9985V3.31263C6.9985 2.96738 6.71863 2.6875 6.37338 2.6875C6.02813 2.6875 5.74825 2.96738 5.74825 3.31263V5.74825H3.31263C2.96738 5.74825 2.6875 6.02813 2.6875 6.37338C2.6875 6.71863 2.96738 6.9985 3.31263 6.9985H5.74825V9.43412C5.74825 9.77937 6.02813 10.0592 6.37338 10.0592C6.71863 10.0592 6.9985 9.77937 6.9985 9.43412V6.9985H9.43412C9.77937 6.9985 10.0592 6.71863 10.0592 6.37338C10.0592 6.02813 9.77937 5.74825 9.43412 5.74825Z" fill="#F6821F"/>
</svg>
