<svg width="293" height="224" viewBox="0 0 293 224" fill="none" xmlns="http://www.w3.org/2000/svg">
<path d="M67.6996 61.9781L10.8198 100.026L66.8434 183.779L123.723 145.731L67.6996 61.9781Z" fill="#F5F5F5"/>
<path d="M94.3325 141.767L93.6866 145.762L65.4111 141.689L66.0565 137.694L94.3325 141.767Z" fill="#E0E0E0"/>
<path d="M80.0923 127.516L84.1497 128.101L79.6512 155.94L75.5933 155.356L80.0923 127.516Z" fill="#E0E0E0"/>
<path d="M54.0477 92.1313C54.0883 92.1922 48.3878 96.0757 41.3177 100.805C34.245 105.536 28.4802 109.32 28.4397 109.259C28.3991 109.199 34.098 105.316 41.1712 100.585C48.2413 95.8562 54.0071 92.071 54.0477 92.1313Z" fill="#E0E0E0"/>
<path d="M74.9654 86.8814C75.006 86.9422 65.5269 93.3534 53.7965 101.199C42.0616 109.048 32.5192 115.36 32.4786 115.299C32.4381 115.239 41.9151 108.828 53.6495 100.98C65.3799 93.1339 74.9248 86.8211 74.9654 86.8814Z" fill="#E0E0E0"/>
<path d="M79.1583 93.1487C79.1988 93.2096 69.7197 99.6207 57.9894 107.466C46.2545 115.315 36.7121 121.627 36.6715 121.566C36.631 121.505 46.108 115.096 57.8424 107.247C69.5733 99.4012 79.1177 93.0884 79.1583 93.1487Z" fill="#E0E0E0"/>
<path d="M83.3516 99.4195C83.3922 99.4803 73.9131 105.891 62.1828 113.737C50.4479 121.586 40.9054 127.898 40.8649 127.837C40.8243 127.777 50.3014 121.367 62.0358 113.518C73.7666 105.671 83.3111 99.3587 83.3516 99.4195Z" fill="#E0E0E0"/>
<path d="M87.5445 105.687C87.5851 105.748 78.106 112.158 66.3756 120.005C54.6407 127.853 45.0983 134.165 45.0577 134.104C45.0172 134.044 54.4942 127.634 66.2286 119.785C77.959 111.939 87.5039 105.627 87.5445 105.687Z" fill="#E0E0E0"/>
<path d="M235.333 116.593L187.564 148.547L234.614 218.885L282.383 186.932L235.333 116.593Z" fill="#F5F5F5"/>
<path d="M257.699 183.611L257.157 186.966L233.41 183.545L233.953 180.19L257.699 183.611Z" fill="#E0E0E0"/>
<path d="M245.74 171.642L249.148 172.133L245.369 195.513L241.962 195.023L245.74 171.642Z" fill="#E0E0E0"/>
<path d="M213.19 149.214C219.129 145.242 223.91 141.973 223.87 141.912C223.83 141.852 218.982 145.023 213.044 148.995C207.105 152.968 202.323 156.237 202.364 156.298C202.404 156.358 207.251 153.187 213.19 149.214Z" fill="#E0E0E0"/>
<path d="M241.434 137.516C241.475 137.577 233.52 142.969 223.668 149.558C213.813 156.15 205.794 161.443 205.753 161.382C205.713 161.321 213.666 155.93 223.521 149.339C233.373 142.75 241.394 137.456 241.434 137.516Z" fill="#E0E0E0"/>
<path d="M244.956 142.782C244.997 142.843 237.042 148.235 227.19 154.824C217.335 161.415 209.316 166.708 209.275 166.647C209.235 166.587 217.188 161.196 227.043 154.604C236.895 148.015 244.916 142.721 244.956 142.782Z" fill="#E0E0E0"/>
<path d="M248.477 148.045C248.518 148.106 240.563 153.498 230.711 160.087C220.856 166.679 212.837 171.972 212.796 171.911C212.755 171.851 220.709 166.46 230.564 159.868C240.416 153.279 248.437 147.985 248.477 148.045Z" fill="#E0E0E0"/>
<path d="M251.999 153.311C252.039 153.371 244.084 158.763 234.232 165.353C224.377 171.944 216.358 177.237 216.318 177.176C216.277 177.116 224.231 171.725 234.086 165.133C243.937 158.544 251.958 153.25 251.999 153.311Z" fill="#E0E0E0"/>
<path d="M182.32 65.0535L130.199 37.1782L89.1534 113.925L141.275 141.8L182.32 65.0535Z" fill="#F5F5F5"/>
<path d="M132.353 117.794L129.047 118.926L120.653 95.7222L123.96 94.5897L132.353 117.794Z" fill="#E0E0E0"/>
<path d="M137.423 101.147L138.628 104.477L115.583 112.369L114.378 109.039L137.423 101.147Z" fill="#E0E0E0"/>
<path d="M141.99 60.7726C148.47 64.2381 153.755 66.9856 153.796 66.9093C153.837 66.833 148.617 63.9619 142.137 60.4964C135.658 57.0309 130.372 54.2834 130.331 54.3597C130.29 54.436 135.51 57.3071 141.99 60.7726Z" fill="#E0E0E0"/>
<path d="M166.305 80.7165C166.264 80.793 157.515 76.1931 146.766 70.4446C136.013 64.6934 127.332 59.9714 127.373 59.8949C127.414 59.8188 136.161 64.4172 146.914 70.1683C157.663 75.9169 166.346 80.6399 166.305 80.7165Z" fill="#E0E0E0"/>
<path d="M163.233 86.4608C163.192 86.5374 154.443 81.9375 143.694 76.1884C132.941 70.4373 124.26 65.7152 124.301 65.6387C124.342 65.5626 133.089 70.161 143.842 75.9121C154.591 81.6607 163.274 86.3843 163.233 86.4608Z" fill="#E0E0E0"/>
<path d="M160.16 92.2047C160.119 92.2812 151.37 87.6813 140.621 81.9322C129.868 76.1816 121.187 71.4591 121.228 71.3825C121.269 71.306 130.016 75.9048 140.769 81.656C151.518 87.405 160.201 92.1286 160.16 92.2047Z" fill="#E0E0E0"/>
<path d="M157.088 97.9502C157.047 98.0267 148.298 93.4268 137.549 87.6778C126.796 81.9272 118.115 77.2046 118.156 77.1281C118.197 77.052 126.944 81.6504 137.697 87.4015C148.446 93.1506 157.129 97.8741 157.088 97.9502Z" fill="#E0E0E0"/>
<path opacity="0.2" d="M157.362 -0.00012207H156.052V22.2961H157.362V-0.00012207Z" fill="black"/>
<path d="M126.174 49.2677H187.24C187.24 49.2677 181.601 22.2823 156.244 22.2823C133.69 22.2818 126.174 49.2677 126.174 49.2677Z" fill="#043B73"/>
<path d="M157.362 -0.000244141H156.052V22.296H157.362V-0.000244141Z" fill="#043B73"/>
<path d="M292.667 222.962C292.667 223.035 227.146 223.094 146.34 223.094C65.5069 223.094 0 223.034 0 222.962C0 222.889 65.5069 222.83 146.34 222.83C227.146 222.83 292.667 222.889 292.667 222.962Z" fill="#2E3C43"/>
<path d="M16.1972 191.215C17.9112 191.275 19.5202 192.205 20.6506 193.495C21.7811 194.785 22.474 196.407 22.9176 198.064C23.7753 201.269 23.2481 205.052 22.3341 208.242C18.8637 207.002 16.7239 203.301 15.7562 201.355C14.2263 198.28 13.3295 191.793 16.1972 191.215Z" fill="#043B73"/>
<path d="M27.3275 212.127C26.2325 210.555 26.2067 208.368 27.0725 206.659C27.9379 204.95 29.6011 203.717 31.4326 203.155C32.2797 202.894 33.2621 202.785 33.9987 203.277C34.6876 203.737 34.9852 204.64 34.896 205.463C34.8072 206.286 34.39 207.04 33.8978 207.706C32.2103 209.991 30.1577 211.892 27.3275 212.127Z" fill="#043B73"/>
<path d="M27.7092 222.837C27.6924 222.84 27.6397 222.602 27.5541 222.171C27.4613 221.696 27.3412 221.082 27.1972 220.344C26.9234 218.808 26.489 216.624 26.8175 214.209C27.1333 211.804 28.0904 209.749 29.0936 208.522C29.5874 207.901 30.0603 207.461 30.4101 207.191C30.5794 207.049 30.7285 206.962 30.8232 206.895C30.9201 206.831 30.9733 206.801 30.9784 206.808C31.0164 206.851 30.1673 207.374 29.229 208.625C28.2785 209.857 27.3675 211.877 27.0563 214.241C26.7328 216.607 27.1333 218.771 27.365 220.315C27.4892 221.091 27.589 221.719 27.6468 222.156C27.7041 222.592 27.7254 222.835 27.7092 222.837Z" fill="#043B73"/>
<path d="M17.3165 196.093C17.3241 196.089 17.3723 196.18 17.4564 196.356C17.5487 196.555 17.6673 196.811 17.8138 197.128C18.1205 197.801 18.5514 198.78 19.074 199.994C20.1198 202.422 21.5169 205.796 22.9759 209.557C24.4343 213.318 25.6773 216.753 26.5416 219.251C26.9745 220.5 27.3157 221.513 27.5428 222.217C27.6482 222.55 27.7334 222.819 27.7993 223.029C27.8556 223.215 27.8809 223.314 27.8733 223.317C27.8652 223.32 27.8246 223.226 27.7537 223.044C27.6766 222.839 27.5773 222.574 27.4546 222.248C27.191 221.525 26.827 220.528 26.3814 219.308C25.476 216.826 24.2087 213.403 22.7513 209.643C21.2934 205.885 19.9216 202.503 18.9169 200.06C18.4231 198.858 18.0196 197.876 17.7271 197.165C17.5973 196.841 17.4924 196.579 17.4108 196.375C17.3418 196.193 17.3089 196.097 17.3165 196.093Z" fill="#043B73"/>
<path d="M23.5898 215.751C21.5433 212.269 17.7221 209.895 13.6935 209.603C12.6675 209.528 11.4336 209.701 10.9763 210.622C10.5181 211.545 11.131 212.637 11.83 213.394C14.7378 216.543 19.657 217.641 23.6283 216.027" fill="#043B73"/>
<path d="M15.2559 212.348C15.2569 212.331 15.485 212.341 15.8982 212.372C16.105 212.386 16.358 212.404 16.6474 212.458C16.9364 212.512 17.2724 212.544 17.6303 212.643C17.9908 212.732 18.3882 212.82 18.7998 212.968C19.2196 213.093 19.6505 213.272 20.1031 213.464C20.9974 213.87 21.9458 214.401 22.8492 215.092C23.7459 215.791 24.5033 216.572 25.1192 217.338C25.4153 217.731 25.6981 218.103 25.9186 218.481C26.1625 218.845 26.3434 219.21 26.5133 219.54C26.6953 219.864 26.8027 220.184 26.9218 220.453C27.042 220.722 27.117 220.965 27.1768 221.163C27.3 221.559 27.3598 221.779 27.3441 221.784C27.2929 221.802 27.046 220.915 26.3627 219.618C26.1853 219.297 25.9982 218.942 25.7508 218.589C25.5268 218.221 25.2419 217.859 24.9463 217.476C24.3309 216.731 23.5832 215.969 22.7027 215.282C21.8156 214.604 20.8874 214.076 20.0119 213.666C19.5688 213.472 19.1471 213.288 18.736 213.157C18.3335 213.003 17.9431 212.907 17.5898 212.809C16.1678 212.449 15.2503 212.4 15.2559 212.348Z" fill="#043B73"/>
<path d="M107.785 118.897L89.8598 211.057L87.5132 223.121L207.18 222.53C212.551 222.504 217.31 217.735 219.038 210.651L240.258 123.643C241.569 118.264 238.692 112.67 234.614 112.675L113.497 112.802C110.823 112.806 108.485 115.301 107.785 118.897Z" fill="#043B73"/>
<g opacity="0.5">
<path opacity="0.5" d="M107.785 118.897L89.8598 211.057L87.5132 223.121L207.18 222.53C212.551 222.504 217.31 217.735 219.038 210.651L240.258 123.643C241.569 118.264 238.692 112.67 234.614 112.675L113.497 112.802C110.823 112.806 108.485 115.301 107.785 118.897Z" fill="black"/>
</g>
<path d="M195.702 204.813L183.032 102.713C182.512 98.5294 179.18 95.4087 175.245 95.4219L147.462 95.5127C145.406 95.5192 143.435 96.3937 141.974 97.9464L128.781 111.971L51.5118 112.374C46.7897 112.398 43.1621 116.866 43.7882 121.886L55.552 216.253C56.0726 220.43 59.3991 223.547 63.3283 223.539L197.993 223.273C212.991 223.583 214.423 219.154 214.423 219.154C197.234 222.963 195.703 204.824 195.702 204.813Z" fill="#043B73"/>
<g opacity="0.5">
<path opacity="0.5" d="M137.635 184.379L133.094 189.257L98.1143 157.789L102.656 152.911L137.635 184.379Z" fill="white"/>
<path opacity="0.5" d="M131.191 151.83L136.21 156.345L104.56 190.339L99.5405 185.823L131.191 151.83Z" fill="white"/>
</g>
</svg>
