<svg width="26" height="26" viewBox="0 0 26 26" fill="none" xmlns="http://www.w3.org/2000/svg">
<path d="M2.45828 9.33147C2.2054 9.33147 2 9.12624 2 8.87336V2.45811C2 2.20523 2.2054 2 2.45828 2H8.87336C9.12641 2 9.33164 2.20523 9.33164 2.45811C9.33164 2.71116 9.12641 2.91639 8.87336 2.91639H2.91656V8.87336C2.91656 9.12624 2.71116 9.33147 2.45828 9.33147Z" fill="#666666"/>
<path d="M2.91656 2.91639V2.86639H2.86656V2.91639H2.91656ZM2.45828 9.28147C2.23299 9.28147 2.05 9.0986 2.05 8.87336H1.95C1.95 9.15388 2.1778 9.38147 2.45828 9.38147V9.28147ZM2.05 8.87336V2.45811H1.95V8.87336H2.05ZM2.05 2.45811C2.05 2.23287 2.23299 2.05 2.45828 2.05V1.95C2.1778 1.95 1.95 2.17759 1.95 2.45811H2.05ZM2.45828 2.05H8.87336V1.95H2.45828V2.05ZM8.87336 2.05C9.09881 2.05 9.28164 2.23285 9.28164 2.45811H9.38164C9.38164 2.1776 9.15401 1.95 8.87336 1.95V2.05ZM9.28164 2.45811C9.28164 2.68355 9.0988 2.86639 8.87336 2.86639V2.96639C9.15402 2.96639 9.38164 2.73878 9.38164 2.45811H9.28164ZM8.87336 2.86639H2.91656V2.96639H8.87336V2.86639ZM2.86656 2.91639V8.87336H2.96656V2.91639H2.86656ZM2.86656 8.87336C2.86656 9.0986 2.68357 9.28147 2.45828 9.28147V9.38147C2.73875 9.38147 2.96656 9.15388 2.96656 8.87336H2.86656Z" fill="white"/>
<path d="M23.5367 9.33147C23.2836 9.33147 23.0784 9.12624 23.0784 8.87336V2.91639H17.1214C16.8686 2.91639 16.6633 2.71116 16.6633 2.45811C16.6633 2.20523 16.8686 2 17.1214 2H23.5367C23.7896 2 23.9948 2.20523 23.9948 2.45811V8.87336C23.9948 9.12624 23.7896 9.33147 23.5367 9.33147Z" fill="#666666"/>
<path d="M23.0784 2.91639H23.1284V2.86639H23.0784V2.91639ZM23.5367 9.28147C23.3112 9.28147 23.1284 9.09861 23.1284 8.87336H23.0284C23.0284 9.15387 23.256 9.38147 23.5367 9.38147V9.28147ZM23.1284 8.87336V2.91639H23.0284V8.87336H23.1284ZM23.0784 2.86639H17.1214V2.96639H23.0784V2.86639ZM17.1214 2.86639C16.8962 2.86639 16.7133 2.68356 16.7133 2.45811H16.6133C16.6133 2.73877 16.8409 2.96639 17.1214 2.96639V2.86639ZM16.7133 2.45811C16.7133 2.23284 16.8962 2.05 17.1214 2.05V1.95C16.8409 1.95 16.6133 2.17761 16.6133 2.45811H16.7133ZM17.1214 2.05H23.5367V1.95H17.1214V2.05ZM23.5367 2.05C23.7619 2.05 23.9448 2.23284 23.9448 2.45811H24.0448C24.0448 2.17761 23.8172 1.95 23.5367 1.95V2.05ZM23.9448 2.45811V8.87336H24.0448V2.45811H23.9448ZM23.9448 8.87336C23.9448 9.09863 23.7619 9.28147 23.5367 9.28147V9.38147C23.8172 9.38147 24.0448 9.15385 24.0448 8.87336H23.9448Z" fill="white"/>
<path d="M23.5376 23.9972H17.1224C16.8695 23.9972 16.6642 23.7918 16.6642 23.5389C16.6642 23.286 16.8695 23.0806 17.1224 23.0806H23.0793V17.1238C23.0793 16.8708 23.2845 16.6655 23.5376 16.6655C23.7905 16.6655 23.9957 16.8708 23.9957 17.1238V23.5389C23.9957 23.7918 23.7905 23.9972 23.5376 23.9972Z" fill="#666666"/>
<path d="M23.0793 23.0806V23.1306H23.1293V23.0806H23.0793ZM23.5376 23.9472H17.1224V24.0472H23.5376V23.9472ZM17.1224 23.9472C16.8971 23.9472 16.7142 23.7642 16.7142 23.5389H16.6142C16.6142 23.8194 16.8418 24.0472 17.1224 24.0472V23.9472ZM16.7142 23.5389C16.7142 23.3136 16.8971 23.1306 17.1224 23.1306V23.0306C16.8418 23.0306 16.6142 23.2584 16.6142 23.5389H16.7142ZM17.1224 23.1306H23.0793V23.0306H17.1224V23.1306ZM23.1293 23.0806V17.1238H23.0293V23.0806H23.1293ZM23.1293 17.1238C23.1293 16.8984 23.3122 16.7155 23.5376 16.7155V16.6155C23.2569 16.6155 23.0293 16.8431 23.0293 17.1238H23.1293ZM23.5376 16.7155C23.7628 16.7155 23.9457 16.8984 23.9457 17.1238H24.0457C24.0457 16.8432 23.8181 16.6155 23.5376 16.6155V16.7155ZM23.9457 17.1238V23.5389H24.0457V17.1238H23.9457ZM23.9457 23.5389C23.9457 23.7642 23.7628 23.9472 23.5376 23.9472V24.0472C23.8181 24.0472 24.0457 23.8194 24.0457 23.5389H23.9457Z" fill="white"/>
<path d="M8.87348 23.9996H2.4584C2.20552 23.9996 2.00012 23.7942 2.00012 23.5413V17.1262C2.00012 16.8732 2.20552 16.668 2.4584 16.668C2.71129 16.668 2.91668 16.8732 2.91668 17.1262V23.083H8.87348C9.12653 23.083 9.33176 23.2884 9.33176 23.5413C9.33176 23.7942 9.12653 23.9996 8.87348 23.9996Z" fill="#666666"/>
<path d="M2.91668 23.083H2.86668V23.133H2.91668V23.083ZM8.87348 23.9496H2.4584V24.0496H8.87348V23.9496ZM2.4584 23.9496C2.23313 23.9496 2.05012 23.7666 2.05012 23.5413H1.95012C1.95012 23.8218 2.1779 24.0496 2.4584 24.0496V23.9496ZM2.05012 23.5413V17.1262H1.95012V23.5413H2.05012ZM2.05012 17.1262C2.05012 16.9008 2.23312 16.718 2.4584 16.718V16.618C2.17792 16.618 1.95012 16.8456 1.95012 17.1262H2.05012ZM2.4584 16.718C2.68368 16.718 2.86668 16.9008 2.86668 17.1262H2.96668C2.96668 16.8456 2.73889 16.618 2.4584 16.618V16.718ZM2.86668 17.1262V23.083H2.96668V17.1262H2.86668ZM2.91668 23.133H8.87348V23.033H2.91668V23.133ZM8.87348 23.133C9.09891 23.133 9.28176 23.316 9.28176 23.5413H9.38176C9.38176 23.2608 9.15416 23.033 8.87348 23.033V23.133ZM9.28176 23.5413C9.28176 23.7666 9.09891 23.9496 8.87348 23.9496V24.0496C9.15416 24.0496 9.38176 23.8218 9.38176 23.5413H9.28176Z" fill="white"/>
</svg>
