<svg width="185" height="162" viewBox="0 0 185 162" fill="none" xmlns="http://www.w3.org/2000/svg">
<path d="M151.337 95.4264C150.869 94.7239 150.264 94.4515 150.167 94.5491C150.264 94.159 149.815 93.6709 150.752 93.6709C151.688 93.6709 152.899 94.4509 152.801 94.841C152.508 95.3288 151.806 96.1289 151.337 95.4264Z" fill="#FACFB2"/>
<path d="M146.757 92.9052L145.607 93.5957C144.711 94.1334 144.379 95.2704 144.847 96.2051L146.597 99.7056C147.106 100.724 148.362 101.112 149.357 100.559L150.924 99.6893C151.938 99.1258 152.261 97.8203 151.627 96.8484L149.462 93.5276C148.874 92.6269 147.68 92.3519 146.757 92.9052Z" fill="#C4C4C4"/>
<ellipse cx="92.5" cy="141.678" rx="92.5" ry="19.9051" fill="#FFAC66"/>
<ellipse cx="92.5" cy="138.163" rx="92.5" ry="19.9051" fill="#FEE2CA"/>
<path d="M117.63 136.058C117.572 136 117.455 135.941 117.455 135.824C117.396 131.667 117.045 127.569 117.63 123.471C118.333 122.886 119.211 123.003 120.031 123.003C125.592 123.003 131.154 123.003 136.716 123.003C138.765 123.003 138.823 122.944 138.823 120.837C138.823 87.8763 138.823 54.9159 138.823 22.014C138.823 19.7893 138.765 19.7893 136.482 19.7893C132.149 19.7893 127.817 19.7893 123.485 19.7893C122.724 19.7893 121.904 19.9064 121.202 19.438C120.499 18.6184 120.733 17.6231 120.733 16.6864C120.675 15.3399 120.675 13.9934 120.733 12.5883C120.733 12.0614 120.733 11.5345 121.202 11.1247C122.899 11.1247 124.597 11.2418 126.295 11.1247C130.569 10.7735 134.725 11.9444 138.999 11.7687C140.755 11.7102 144.092 15.3399 144.092 17.389C143.975 30.3273 144.034 43.3241 144.034 56.2624C144.444 56.7307 144.502 57.3162 144.502 57.9016C144.502 63.1706 144.561 68.4982 144.502 73.7671C144.561 80.3827 144.561 86.9396 144.502 93.5551C144.502 94.0235 144.561 94.4918 144.502 95.0187C144.561 102.454 144.561 109.948 144.561 117.383C144.561 118.202 144.736 119.08 144.092 119.783C144.092 123.179 144.092 126.574 144.092 129.97C144.092 132.487 141.751 135.122 139.409 135.941C137.652 136.585 135.896 136.351 134.14 136.468C133.613 135.648 132.852 135.414 131.857 135.414C127.993 135.473 124.187 135.473 120.323 135.414C119.27 135.239 118.509 135.766 117.63 136.058Z" fill="#FFD5B1"/>
<path d="M51.4745 11.5953C51.7087 10.7171 52.4112 11.0684 52.9381 11.0684C59.4951 11.0099 65.9935 11.0099 72.5504 11.0099C72.9017 12.0051 72.0821 11.9466 71.6137 11.9466C70.3843 11.9466 70.3843 12.532 70.677 13.4102C71.2625 15.2836 71.7308 17.2156 72.3748 19.089C72.2577 19.3232 72.0235 19.4402 71.7893 19.4988C67.5742 19.7915 63.4175 19.5573 59.2023 19.6159C55.8653 19.6744 56.0995 19.3817 56.0995 22.7187C56.0995 55.1523 56.158 87.5858 56.0995 120.019C56.0995 120.078 56.158 120.078 56.158 120.136C56.5678 117.795 57.6216 115.511 57.6216 113.053C57.6216 112.643 57.7973 112.174 58.3827 112.174C58.9096 112.35 58.9096 112.818 58.9681 113.228C59.0852 115.746 59.9634 118.146 60.5489 120.546C60.7245 121.249 60.783 121.951 60.6659 122.712C60.4318 123.766 59.6121 123.766 58.8511 123.766C55.8068 123.942 55.8068 123.883 54.9871 126.81C54.4017 128.977 53.8748 131.143 53.1723 133.309C52.9966 133.836 52.9381 134.48 52.177 134.538C50.3036 133.426 49.7181 131.611 49.3669 129.679C49.2498 129.152 49.3083 128.625 49.3083 128.098C49.3083 91.9766 49.3083 55.8548 49.3083 19.733C49.3083 18.3279 49.4254 16.9228 49.9523 15.5763C50.5378 14.1713 51.2403 12.9418 52.7624 12.1807C52.3526 11.888 51.7672 12.0051 51.4745 11.5953Z" fill="#FFD5B1"/>
<path d="M51.4756 11.5938C52.4123 11.5938 53.2904 11.5938 54.2271 11.5938C54.2271 11.7108 54.2857 11.8279 54.2857 11.945C53.7588 12.2377 53.1733 12.5305 52.6464 12.8232C51.9439 13.1745 51.3585 13.7013 51.0072 14.4039C50.1876 15.9846 49.7192 17.6238 49.7192 19.4972C49.7778 55.7362 49.7778 91.9751 49.7192 128.155C49.7192 130.731 50.5388 132.839 52.3537 134.537C53.4661 134.537 54.2857 135.239 55.2224 135.591C55.5151 135.708 55.8664 136.059 55.398 136.469C54.6369 136.703 53.8759 136.703 53.1733 136.293C50.5974 136.644 48.6654 135.298 46.7335 133.951C45.2113 133.015 44.5088 131.61 44.5088 129.795C44.5088 127.277 44.5088 124.76 44.5088 122.243C44.5088 121.599 44.5673 120.955 44.9186 120.428C44.9186 86.3548 44.9186 52.2235 44.9186 18.1507C45.0357 14.7551 48.0214 11.6523 51.4756 11.5938Z" fill="#FFAC66"/>
<path d="M72.2585 18.9722C70.7949 18.3282 71.3803 16.8061 70.912 15.6937C70.5021 14.8156 70.3851 13.6447 70.0338 12.708C69.5654 11.4786 70.1509 11.7127 70.8534 11.6542C71.4389 11.5956 72.317 12.1225 72.5512 11.0688C72.6098 9.25388 74.1904 7.49755 75.9468 6.97065C79.8107 5.79976 83.7332 6.61938 87.6556 6.50229C89.2363 6.44375 89.7632 5.79976 90.1145 4.57033C90.6414 2.46273 93.6857 0.00387038 95.8518 0.00387038C97.7838 0.00387038 99.5987 -0.113215 101.472 0.940583C103.404 1.99438 104.165 3.63362 104.751 5.44849C105.043 6.44375 105.453 6.50229 106.214 6.50229C109.083 6.50229 111.952 6.56084 114.82 6.50229C116.05 6.50229 117.103 7.02919 118.274 7.38046C120.148 7.90736 120.382 9.78077 121.202 11.1858C121.202 13.0593 121.202 14.8741 121.202 16.7475C120.792 17.0403 120.382 17.0403 119.972 16.8646C118.45 16.2206 116.811 16.3377 115.23 16.3377C102.76 16.3377 90.2901 16.3377 77.8202 16.3377C77.1762 16.3377 76.5322 16.3377 75.9468 16.3377C74.5417 16.3963 73.3708 16.8061 73.0196 18.4453C72.9025 18.621 72.7268 18.9722 72.2585 18.9722Z" fill="#FFD5B1"/>
<path d="M150.473 138.109C150.648 132.431 151.292 126.81 150.999 121.132C150.297 119.844 150.531 118.497 150.765 117.092C151.292 116.39 151.175 115.511 151.234 114.692C151.292 113.345 151.878 112.877 153.107 113.228C155.098 113.872 157.029 113.521 159.02 113.579C159.547 113.579 160.074 113.345 160.484 113.052C160.776 112.877 161.128 112.526 161.537 112.877C161.713 114.984 161.42 117.209 162.123 119.258C162.123 126.284 162.181 133.309 162.181 140.334C162.708 141.154 162.24 141.739 161.654 142.208C161.42 142.325 161.186 142.383 160.952 142.442C160.367 142.5 159.781 142.5 159.196 142.383C158.727 142.266 158.435 141.973 158.317 141.564C158.025 140.51 157.498 139.573 157.673 138.461C158.025 134.304 156.795 130.147 157.029 125.991C157.088 124.644 156.151 123.415 156.503 121.951C156.21 127.279 154.922 132.548 154.98 137.934C154.512 139.456 154.571 141.095 154.102 142.676C153.751 143.027 153.341 143.086 152.873 143.086C152.287 143.086 151.643 143.144 151.058 142.793C150.882 142.617 150.765 142.383 150.707 142.09C150.648 141.212 150.121 140.451 150.063 139.573C150.004 139.105 150.004 138.578 150.473 138.109Z" fill="#C0975B"/>
<path d="M161.538 112.938C158.845 114.752 155.976 114.343 153.108 113.582C152.171 113.347 151.629 113.816 151.629 113.816C151.044 113.816 150.707 113.816 150.707 113.816C151.41 111.298 151.059 108.722 151.234 106.146C151.293 104.917 151.176 103.629 151.527 102.4C151.878 101.112 150.473 101.229 149.888 100.76C148.893 100.058 148.951 99.2382 149.419 98.243C150.18 96.7208 150.942 95.1987 152.815 94.7303C153.518 94.262 154.279 93.9693 155.157 94.1449C156.152 93.5594 157.089 93.5009 158.084 94.1449C160.66 94.262 162.182 95.8427 162.182 98.3601C162.182 102.341 162.182 106.322 162.182 110.303C162.182 111.298 162.124 112.177 161.538 112.938Z" fill="#D4EAFE"/>
<path d="M45.0355 120.488C45.0355 123.123 45.1526 125.699 45.0355 128.333C44.9184 130.499 45.4453 132.373 46.8504 134.012C45.2111 133.895 43.9817 132.841 42.5766 132.139C37.4247 129.68 32.3314 127.104 27.238 124.528C27.1209 124.469 27.0624 124.235 26.9453 124.059C29.3456 123.24 31.9216 123.006 34.3804 122.479C35.844 122.186 37.3662 121.952 38.8298 121.659C40.8788 121.191 43.1035 121.542 45.0355 120.488Z" fill="#EFC39D"/>
<path d="M158.025 83.6678C158.786 84.2533 159.547 84.8387 160.308 85.4241C160.191 86.2438 160.952 86.7707 161.011 87.5317C161.187 89.7564 159.899 91.1029 158.435 92.3909C158.259 92.5665 158.025 92.6251 158.025 92.9178C157.674 93.3862 157.381 93.0349 157.088 92.8007C156.561 92.3909 156.152 91.864 155.625 91.3957C155.039 90.8102 154.747 90.2833 155.391 89.5222C155.625 89.2881 155.8 88.9368 155.566 88.5855C155.332 88.1757 154.922 88.2343 154.571 88.4099C154.161 88.5855 153.751 88.6441 153.342 88.2928C153.342 88.1172 153.283 87.9415 153.283 87.7659C152.99 87.1219 152.99 86.5365 153.283 85.8925C154.22 83.8434 156.093 83.6093 158.025 83.6678Z" fill="#596169"/>
<path d="M153.401 88.2905C153.87 88.232 154.338 88.4076 154.748 87.9392C155.216 87.4709 155.567 87.9393 155.919 88.2905C156.27 88.6418 156.387 89.0516 156.094 89.2858C154.572 90.5738 155.919 91.1592 156.621 91.9788C157.031 92.3886 157.441 92.7399 158.026 92.9155C158.026 93.3253 158.026 93.7351 158.026 94.1449C157.031 94.1449 156.094 94.1449 155.099 94.1449C155.216 93.1497 154.982 92.3886 154.162 91.7446C152.933 90.8665 153.46 89.5199 153.401 88.2905Z" fill="#F6CDB1"/>
<path d="M151.001 94.1456C150.884 94.2041 150.65 94.2041 150.591 94.2627C150.299 94.6725 149.889 94.9652 149.538 94.5554C149.186 94.2041 149.83 93.9114 150.006 93.6187C150.181 93.3845 150.416 93.2089 150.357 92.9161C150.416 92.2136 150.708 91.6867 151.352 91.3354C152.289 92.5063 150.767 93.2089 151.001 94.1456Z" fill="#9EA3A8"/>
<path d="M31.2771 156.202C32.5651 155.675 33.2091 156.553 33.9116 157.373C32.7993 157.607 31.9796 157.022 31.2771 156.202Z" fill="#D6E6FD"/>
<path d="M153.342 85.9463C153.342 86.5903 153.342 87.1757 153.342 87.8197C152.347 87.1757 152.522 86.5317 153.342 85.9463Z" fill="#8E949A"/>
<path d="M58.5002 112.289C57.9733 112.347 57.9148 112.698 57.9148 113.167C58.0319 116.211 56.6854 118.904 55.9243 122.007C55.3974 121.304 55.573 120.719 55.573 120.192C55.573 90.5686 55.573 60.8867 55.573 31.2633C55.573 27.7506 55.6316 24.2379 55.573 20.7253C55.573 19.6129 55.8657 19.2031 57.0366 19.2031C62.0129 19.2617 66.9892 19.2617 71.9654 19.2617C72.5509 20.374 73.4876 20.5496 74.6585 20.5496C89.2945 20.5496 103.872 20.5496 118.508 20.5496C119.679 20.5496 120.616 20.374 121.201 19.2617C126.704 19.2617 132.208 19.2617 137.711 19.2031C138.999 19.2031 139.35 19.4958 139.35 20.8424C139.291 34.893 139.291 48.9436 139.291 62.9357C139.291 82.4895 139.291 102.043 139.291 121.597C139.291 123.471 139.291 123.471 137.359 123.471C130.802 123.471 124.187 123.471 117.63 123.471C117.103 121.304 117.337 119.138 117.337 116.972C117.337 115.977 117.22 114.982 116.927 114.103C116.576 112.933 115.581 112.347 114.234 112.347C110.019 112.406 105.804 112.347 101.53 112.347C100.242 112.347 99.0129 112.464 98.2518 111.176C97.2566 109.654 97.0809 107.781 96.6711 106.083C96.0857 103.507 94.9733 102.746 92.4559 103.331C87.0699 104.619 81.7423 106.083 76.2977 107.312C72.668 108.132 69.0382 109.069 65.4085 109.888C63.7107 110.298 62.0129 110.825 60.3151 111.118C59.6711 111.235 59.2613 112.113 58.5002 112.289Z" fill="#FEFEFE"/>
<path d="M58.5 112.291C59.0854 111.237 59.9051 110.769 61.193 110.476C63.125 110.008 65.057 109.657 66.9304 109.013C68.7452 108.369 70.7358 108.134 72.6092 107.666C74.7753 107.081 77.0585 106.729 79.2247 106.144C81.0981 105.617 82.9715 105.207 84.9035 104.739C86.894 104.271 88.8259 103.568 90.8164 103.275C92.28 103.041 93.6266 101.929 95.3244 102.865C96.3196 103.451 96.9051 104.271 97.0221 105.032C97.3734 107.081 98.2516 109.071 98.3687 111.12C98.4858 112.291 97.7832 112.291 96.9051 112.291C90.0554 112.291 83.2642 112.291 76.4146 112.291C74.0728 112.291 73.7801 112.701 73.0775 114.926C72.4921 116.74 72.4335 118.438 73.0775 120.253C73.3702 121.014 73.3702 122.127 73.019 122.829C72.375 124 72.375 125.229 72.6677 126.225C73.4873 128.684 72.9604 131.142 73.1361 133.543C73.2532 135.299 72.2579 136.88 72.6092 138.636C70.6772 139.865 68.5696 140.451 66.3449 140.1C64.3544 139.807 63.769 138.109 63.3592 136.353C62.3054 131.845 60.8418 127.396 60.2563 122.771C60.2563 121.073 59.6123 119.492 59.2025 117.853C58.8513 116.096 58.2073 114.282 58.5 112.291Z" fill="#F5B37A"/>
<path d="M150.474 138.109C150.24 139.514 151.001 140.861 150.942 142.266C150.65 142.559 150.298 142.5 149.947 142.442C149.303 142.149 148.659 141.622 147.957 142.442C148.249 144.198 149.888 144.315 151.059 145.018C151.938 145.486 152.874 145.603 153.752 145.018C154.396 144.315 154.104 143.554 153.869 142.793C153.869 141.212 153.987 139.69 154.513 138.168C156.036 137.465 156.797 137.641 158.026 138.753C157.792 139.807 158.729 140.685 158.494 141.681C158.085 142.149 157.499 141.973 156.972 142.032C156.738 142.09 156.445 142.032 156.387 142.324C156.328 142.617 156.504 142.793 156.738 142.91C157.85 143.554 159.021 143.964 160.251 144.139C161.422 144.315 161.832 143.612 161.597 142.149C161.773 141.563 162.3 141.154 162.183 140.451C163.178 141.037 164.056 141.622 163.939 142.968C163.822 144.139 163.002 144.608 162.066 145.135C157.968 147.476 153.46 147.769 148.952 147.359C146.317 147.125 143.624 146.481 141.282 144.959C140.521 144.432 139.702 143.847 139.819 142.617C139.994 141.154 141.048 140.393 142.102 139.866C144.795 138.695 147.488 137.817 150.474 138.109Z" fill="#EFC39D"/>
<path d="M63.7684 136.352C64.4709 139.338 65.7589 140.626 69.2716 139.455C70.3254 139.104 71.4377 138.694 72.55 138.694C72.55 139.982 72.55 141.212 72.55 142.5C72.55 143.202 72.2573 143.553 71.5548 143.261C68.1592 141.856 64.588 140.743 61.1339 139.455C58.7336 138.519 56.2747 137.582 53.7573 136.938C53.4061 136.821 53.2304 136.704 53.1719 136.352C53.933 136.352 54.7526 136.352 55.5136 136.352C55.7478 136.06 56.0991 135.943 56.3918 135.943C58.4994 135.826 60.5485 135.884 62.6561 135.943C63.1244 135.884 63.4757 136.06 63.7684 136.352Z" fill="#EFC39D"/>
<path d="M117.63 136.061C118.098 135.125 118.86 134.832 119.913 134.89C124.07 134.949 128.285 134.949 132.442 134.89C133.554 134.89 134.14 135.183 134.023 136.354C129.046 136.354 124.129 136.354 119.152 136.354C118.684 136.296 118.098 136.53 117.63 136.061Z" fill="#FFD5B1"/>
<path d="M121.2 19.266C121.434 20.6711 120.849 21.0224 119.444 21.0224C104.222 20.9638 89.0007 20.9638 73.7792 21.0224C72.3741 21.0224 71.8472 20.6126 72.0228 19.266C72.1399 19.149 72.257 19.0319 72.3741 18.9733C72.4326 18.9148 72.4912 18.9148 72.4912 18.8562C72.9595 15.9876 73.1937 15.7534 76.8235 15.7534C88.5909 15.6948 100.358 15.6948 112.067 15.7534C115.17 15.7534 118.273 15.3436 121.259 16.6315C121.141 17.5097 121.2 18.3879 121.2 19.266Z" fill="#FFC798"/>
<path d="M63.7704 136.356C61.0188 136.356 58.3258 136.356 55.5742 136.356C55.0473 135.478 53.9349 135.771 53.2324 135.244C52.9397 135.01 52.647 134.776 52.3542 134.6C53.0568 132.024 53.7008 129.507 54.4618 126.989C54.696 126.228 54.9887 125.467 55.1058 124.647C55.2229 123.945 55.7498 123.418 56.6865 123.477C57.5061 123.535 58.3258 123.477 59.1454 123.477C59.6137 123.477 60.1406 123.594 60.2577 122.891C60.5505 122.95 60.7846 123.125 60.7846 123.477C60.7846 126.579 62.1897 129.39 62.658 132.434C62.9508 133.663 63.302 135.068 63.7704 136.356Z" fill="#FFD5B1"/>
<path d="M97.2562 2.87055C99.5395 2.57783 101.998 5.21232 101.881 7.31991C101.764 9.60314 99.3639 12.1791 97.1977 12.1791C95.0901 12.1791 92.6312 9.66168 92.5727 7.437C92.4556 5.3294 95.0316 2.81201 97.2562 2.87055Z" fill="#FE9F4D"/>
<path d="M151 145.134C148.892 144.841 147.604 143.729 147.546 142.207C148.307 141.68 149.068 141.797 149.888 142.148C150.239 142.148 150.59 142.207 150.941 142.207C151 142.382 151 142.558 151.059 142.734C151.644 143.26 152.229 143.085 152.815 142.792C153.166 142.734 153.517 142.733 153.927 142.675C154.805 143.436 154.922 144.256 153.986 145.075C152.991 145.602 151.995 145.485 151 145.134Z" fill="#FAC822"/>
<path d="M161.597 142.091C162.417 142.266 162.417 143.027 162.3 143.496C162.124 144.081 161.539 144.491 160.836 144.432C159.08 144.374 157.558 143.847 156.153 142.793C155.801 142.5 155.626 142.266 155.684 141.856C155.801 141.33 156.27 141.505 156.621 141.505C157.265 141.505 157.85 141.564 158.494 141.564C158.553 141.974 158.728 142.208 159.138 142.149C159.724 142.559 160.368 142.5 160.953 142.149C161.187 142.149 161.422 142.149 161.597 142.091Z" fill="#F8C20F"/>
<path d="M161.012 142.208C160.368 143.086 159.782 143.027 159.197 142.208C159.782 142.208 160.426 142.208 161.012 142.208Z" fill="#8C9C8D"/>
<path d="M152.816 142.793C152.172 143.613 151.586 143.671 151.06 142.734C151.645 142.793 152.23 142.793 152.816 142.793Z" fill="#A4A87D"/>
<path d="M151.336 105.674C151.336 105.674 151.058 106.79 150.648 107.2C149.478 108.488 149.185 108.488 148.014 107.259C147.253 106.439 146.785 105.444 146.492 104.507C145.906 102.458 145.028 100.468 145.087 98.3014C145.204 97.4232 145.262 97.5403 145.789 97.4232C146.667 97.2476 147.019 97.4232 146.902 98.4185C146.667 100.409 147.136 102.165 148.951 103.453C149.287 102.282 148.951 101.868 149.829 100.643C150.59 100.468 151.117 101.17 151.819 101.346C152.288 101.463 152.288 102.048 152.112 102.282C151.819 103.453 151.512 104.503 151.336 105.674Z" fill="#FACFB2"/>
<path d="M86.0162 69.2644C86.4845 76.2897 80.3374 80.5049 74.9513 80.6219C72.1997 80.6805 69.5067 79.6267 67.3991 77.5777C64.8817 75.1773 63.5352 72.1916 63.7694 68.6789C64.1792 62.1219 69.0383 58.0824 75.0684 57.9068C80.2788 57.8482 86.7773 62.8245 86.0162 69.2644Z" fill="#EAEEF4"/>
<path d="M111.658 61.4145C116.869 61.4145 122.079 61.473 127.29 61.4145C128.402 61.4145 128.812 61.7072 128.812 62.8781C128.753 66.098 128.812 66.098 125.592 66.098C115.698 66.098 105.804 66.098 95.9099 66.098C94.5634 66.098 94.1536 65.7468 94.2122 64.4003C94.3293 61.356 94.2122 61.356 97.1979 61.356C101.999 61.4145 106.858 61.4145 111.658 61.4145Z" fill="#EAEEF4"/>
<path d="M111.424 39.1688C106.155 39.1688 100.886 39.1688 95.6173 39.1688C94.5635 39.1688 94.1537 38.8761 94.2122 37.7638C94.2122 34.4268 94.1537 34.4268 97.4907 34.4268C107.385 34.4268 117.279 34.4268 127.173 34.4268C128.402 34.4268 128.87 34.7195 128.812 36.066C128.753 39.1688 128.812 39.1688 125.768 39.1688C120.967 39.1688 116.225 39.1688 111.424 39.1688Z" fill="#EFF2F7"/>
<path d="M111.424 47.9491C106.155 47.9491 100.886 47.9491 95.617 47.9491C94.5632 47.9491 94.1534 47.7149 94.1534 46.6026C94.1534 43.2656 94.0948 43.2656 97.4319 43.2656C107.267 43.2656 117.103 43.2656 126.938 43.207C128.285 43.207 128.812 43.4998 128.753 44.9634C128.636 47.9491 128.753 47.9491 125.709 47.9491C120.967 47.9491 116.225 47.9491 111.424 47.9491Z" fill="#EFF2F7"/>
<path d="M111.424 76.0507C106.156 76.0507 100.887 76.0507 95.6175 76.0507C94.5637 76.0507 94.1539 75.758 94.2125 74.6456C94.2125 71.3086 94.1539 71.3086 97.491 71.3086C107.385 71.3086 117.279 71.3086 127.173 71.3086C128.461 71.3086 128.871 71.6013 128.812 72.9478C128.754 76.0507 128.812 76.0507 125.768 76.0507C120.967 76.0507 116.225 76.0507 111.424 76.0507Z" fill="#EAEEF5"/>
<path d="M66.3452 37.1793C66.8136 37.2379 67.1063 37.5306 67.4576 37.8233C68.7455 39.1113 70.1506 40.3993 71.38 41.7458C72.0826 42.5069 72.4924 42.4483 73.1949 41.7458C76.4148 38.4673 79.7519 35.2474 82.9718 31.9104C83.7914 31.0322 84.3183 31.0907 85.0208 31.9689C85.255 32.2616 85.5477 32.5543 85.8405 32.7885C86.6015 33.374 86.4259 33.7838 85.8405 34.4278C81.5667 38.643 77.3515 42.8581 73.1364 47.1319C72.4338 47.8344 72.024 47.7173 71.38 47.0733C69.2724 44.8486 67.1063 42.6825 64.8816 40.5749C63.9449 39.6967 63.8278 39.1113 64.8816 38.3502C65.4085 37.9404 65.7012 37.355 66.3452 37.1793Z" fill="#EAEEF4"/>
<path d="M85.8989 111.707C86.7771 110.77 87.304 110.126 86.3087 109.248C85.8989 108.896 86.6015 108.37 87.0113 108.253C88.592 107.843 90.0556 107.14 91.5192 106.555C92.3973 106.203 92.573 106.906 92.3973 107.55C92.1046 108.779 91.6363 109.95 91.2265 111.18C91.1094 111.472 90.9337 111.707 90.641 111.707C89.236 111.707 87.7138 111.707 85.8989 111.707Z" fill="white"/>
<path d="M151.001 145.133C151.996 145.133 152.991 145.074 153.928 145.074C153.167 145.952 151.879 145.952 151.001 145.133Z" fill="#DBD099"/>
<path d="M149.888 142.151C149.127 142.151 148.307 142.21 147.546 142.21C148.307 141.156 149.069 141.331 149.888 142.151Z" fill="#DBD6A4"/>
<path d="M82.5046 69.4395C82.8559 71.4886 81.8607 73.2449 80.5141 74.7671C79.0505 76.3478 76.9429 77.1674 75.011 77.1089C71.4398 76.9332 67.166 73.9475 67.2831 69.2054C67.4002 64.5804 71.2056 61.4775 75.128 61.4775C78.5236 61.4775 82.8559 64.112 82.5046 69.4395Z" fill="#FEFEFE"/>
<path d="M72.5957 115.82C72.5957 113.611 74.3866 111.82 76.5957 111.82H113.675C115.884 111.82 117.675 113.611 117.675 115.82V143.434H72.5957V115.82Z" fill="#F3DAC5"/>
<path d="M104.282 117.387C105.746 116.217 107.268 116.334 108.732 116.451C109.727 116.568 110.43 115.748 111.366 115.807C112.186 115.865 112.42 115.924 111.952 116.802C110.839 118.675 109.903 120.607 108.79 122.422C108.322 123.242 107.795 122.832 107.502 122.188C106.917 120.9 106.214 120.783 105.043 121.603C102.643 123.242 99.9501 124.471 97.5498 126.169C97.14 126.462 96.6131 126.403 96.1447 126.169C95.852 125.993 95.5007 125.876 95.2666 125.701C93.276 124.061 91.6368 125.115 89.8805 126.228C87.5387 127.75 85.0798 129.038 82.7381 130.501C81.977 130.97 81.6257 130.677 81.3916 130.092C81.1574 129.623 81.0403 129.038 81.8014 128.628C85.1384 126.696 88.4754 124.647 91.8124 122.656C92.3393 122.364 92.9248 121.954 93.5102 122.539C95.3251 124.296 97.2571 124.12 99.189 122.715C101.004 121.427 102.936 120.373 104.809 119.261C105.161 119.085 105.278 118.91 105.043 118.617C104.751 118.266 104.809 117.68 104.282 117.387Z" fill="#FEFEFE"/>
<rect x="81.3765" y="134.066" width="3.51266" height="5.85443" fill="white"/>
<rect x="87.2314" y="132.312" width="3.51266" height="7.61076" fill="white"/>
<rect x="93.0854" y="130.552" width="3.51266" height="9.36709" fill="white"/>
<rect x="98.939" y="129.382" width="3.51266" height="10.538" fill="white"/>
<rect x="104.795" y="127.625" width="3.51266" height="12.2943" fill="white"/>
</svg>
