<svg width="26" height="26" viewBox="0 0 26 26" fill="none" xmlns="http://www.w3.org/2000/svg">
<path d="M8.87328 2C9.12616 2 9.33155 2.20522 9.33155 2.45811V8.87327C9.33155 9.12616 9.12616 9.33138 8.87328 9.33138H2.45827C2.20523 9.33138 2 9.12616 2 8.87327C2 8.62023 2.20523 8.415 2.45827 8.415H8.415V2.45811C8.415 2.20522 8.62039 2 8.87328 2Z" fill="#666666"/>
<path d="M8.415 8.415V8.465H8.465V8.415H8.415ZM8.87328 2.05C9.09857 2.05 9.28155 2.23286 9.28155 2.45811H9.38155C9.38155 2.17759 9.15375 1.95 8.87328 1.95V2.05ZM9.28155 2.45811V8.87327H9.38155V2.45811H9.28155ZM9.28155 8.87327C9.28155 9.09852 9.09857 9.28138 8.87328 9.28138V9.38138C9.15375 9.38138 9.38155 9.15379 9.38155 8.87327H9.28155ZM8.87328 9.28138H2.45827V9.38138H8.87328V9.28138ZM2.45827 9.28138C2.23283 9.28138 2.05 9.09853 2.05 8.87327H1.95C1.95 9.15378 2.17762 9.38138 2.45827 9.38138V9.28138ZM2.05 8.87327C2.05 8.64784 2.23284 8.465 2.45827 8.465V8.365C2.17761 8.365 1.95 8.59261 1.95 8.87327H2.05ZM2.45827 8.465H8.415V8.365H2.45827V8.465ZM8.465 8.415V2.45811H8.365V8.415H8.465ZM8.465 2.45811C8.465 2.23286 8.64798 2.05 8.87328 2.05V1.95C8.5928 1.95 8.365 2.17759 8.365 2.45811H8.465Z" fill="white"/>
<path d="M17.1207 2C17.3738 2 17.579 2.20522 17.579 2.45811V8.415H23.5359C23.7887 8.415 23.994 8.62023 23.994 8.87327C23.994 9.12616 23.7887 9.33138 23.5359 9.33138H17.1207C16.8678 9.33138 16.6626 9.12616 16.6626 8.87327V2.45811C16.6626 2.20522 16.8678 2 17.1207 2Z" fill="#666666"/>
<path d="M17.579 8.415H17.529V8.465H17.579V8.415ZM17.1207 2.05C17.3461 2.05 17.529 2.23285 17.529 2.45811H17.629C17.629 2.1776 17.4014 1.95 17.1207 1.95V2.05ZM17.529 2.45811V8.415H17.629V2.45811H17.529ZM17.579 8.465H23.5359V8.365H17.579V8.465ZM23.5359 8.465C23.7611 8.465 23.944 8.64783 23.944 8.87327H24.044C24.044 8.59262 23.8164 8.365 23.5359 8.365V8.465ZM23.944 8.87327C23.944 9.09854 23.7611 9.28138 23.5359 9.28138V9.38138C23.8164 9.38138 24.044 9.15377 24.044 8.87327H23.944ZM23.5359 9.28138H17.1207V9.38138H23.5359V9.28138ZM17.1207 9.28138C16.8954 9.28138 16.7126 9.09854 16.7126 8.87327H16.6126C16.6126 9.15377 16.8402 9.38138 17.1207 9.38138V9.28138ZM16.7126 8.87327V2.45811H16.6126V8.87327H16.7126ZM16.7126 2.45811C16.7126 2.23284 16.8954 2.05 17.1207 2.05V1.95C16.8402 1.95 16.6126 2.17761 16.6126 2.45811H16.7126Z" fill="white"/>
<path d="M17.1217 16.666H23.5368C23.7897 16.666 23.9949 16.8714 23.9949 17.1243C23.9949 17.3772 23.7897 17.5826 23.5368 17.5826H17.58V23.5393C17.58 23.7924 17.3747 23.9976 17.1217 23.9976C16.8688 23.9976 16.6636 23.7924 16.6636 23.5393V17.1243C16.6636 16.8714 16.8688 16.666 17.1217 16.666Z" fill="#666666"/>
<path d="M17.58 17.5826V17.5326H17.53V17.5826H17.58ZM17.1217 16.716H23.5368V16.616H17.1217V16.716ZM23.5368 16.716C23.7621 16.716 23.9449 16.899 23.9449 17.1243H24.0449C24.0449 16.8438 23.8174 16.616 23.5368 16.616V16.716ZM23.9449 17.1243C23.9449 17.3496 23.7621 17.5326 23.5368 17.5326V17.6326C23.8174 17.6326 24.0449 17.4048 24.0449 17.1243H23.9449ZM23.5368 17.5326H17.58V17.6326H23.5368V17.5326ZM17.53 17.5826V23.5393H17.63V17.5826H17.53ZM17.53 23.5393C17.53 23.7647 17.3471 23.9476 17.1217 23.9476V24.0476C17.4023 24.0476 17.63 23.82 17.63 23.5393H17.53ZM17.1217 23.9476C16.8964 23.9476 16.7136 23.7648 16.7136 23.5393H16.6136C16.6136 23.82 16.8412 24.0476 17.1217 24.0476V23.9476ZM16.7136 23.5393V17.1243H16.6136V23.5393H16.7136ZM16.7136 17.1243C16.7136 16.899 16.8964 16.716 17.1217 16.716V16.616C16.8412 16.616 16.6136 16.8438 16.6136 17.1243H16.7136Z" fill="white"/>
<path d="M2.45827 16.6689H8.87328C9.12616 16.6689 9.33155 16.8743 9.33155 17.1272V23.5422C9.33155 23.7953 9.12616 24.0005 8.87328 24.0005C8.62039 24.0005 8.415 23.7953 8.415 23.5422V17.5855H2.45827C2.20523 17.5855 2 17.3801 2 17.1272C2 16.8743 2.20523 16.6689 2.45827 16.6689Z" fill="#666666"/>
<path d="M8.415 17.5855H8.465V17.5355H8.415V17.5855ZM2.45827 16.7189H8.87328V16.6189H2.45827V16.7189ZM8.87328 16.7189C9.09854 16.7189 9.28155 16.902 9.28155 17.1272H9.38155C9.38155 16.8467 9.15377 16.6189 8.87328 16.6189V16.7189ZM9.28155 17.1272V23.5422H9.38155V17.1272H9.28155ZM9.28155 23.5422C9.28155 23.7676 9.09856 23.9505 8.87328 23.9505V24.0505C9.15376 24.0505 9.38155 23.8229 9.38155 23.5422H9.28155ZM8.87328 23.9505C8.648 23.9505 8.465 23.7676 8.465 23.5422H8.365C8.365 23.8229 8.59279 24.0505 8.87328 24.0505V23.9505ZM8.465 23.5422V17.5855H8.365V23.5422H8.465ZM8.415 17.5355H2.45827V17.6355H8.415V17.5355ZM2.45827 17.5355C2.23285 17.5355 2.05 17.3525 2.05 17.1272H1.95C1.95 17.4077 2.1776 17.6355 2.45827 17.6355V17.5355ZM2.05 17.1272C2.05 16.9019 2.23285 16.7189 2.45827 16.7189V16.6189C2.1776 16.6189 1.95 16.8467 1.95 17.1272H2.05Z" fill="white"/>
</svg>
