<svg width="30" height="28" viewBox="0 0 30 28" fill="none" xmlns="http://www.w3.org/2000/svg">
<path fill-rule="evenodd" clip-rule="evenodd" d="M9.19019 9.24057C9.32331 8.3876 9.37134 7.50937 9.61449 6.68893C9.83826 5.93373 10.2066 5.19983 10.6268 4.52883C11.4815 3.16381 12.6509 2.10612 14.1267 1.43753C14.7448 1.15749 15.4009 0.939846 16.0604 0.779118C16.6752 0.629368 17.3165 0.531527 17.9479 0.521678C18.7514 0.509085 19.5413 0.672477 20.3266 0.879704C21.5748 1.20907 22.665 1.82115 23.6251 2.64901C24.8129 3.67328 25.6906 4.92399 26.1683 6.44239C26.3662 7.07158 26.465 7.71401 26.5996 8.35329C26.7725 9.17453 26.6362 9.96243 26.5195 10.7391C26.3592 11.8063 25.9743 12.8281 25.384 13.749C25.1989 14.0378 25.1738 14.2113 25.4916 14.4443C26.5957 15.2536 27.6796 16.091 28.758 16.9346C29.3184 17.373 29.6075 17.9884 29.5763 18.685C29.5267 19.7914 28.6181 20.7995 27.454 20.8292C26.6067 20.8506 25.9889 20.5052 25.4647 19.8903C24.5997 18.8756 23.7206 17.873 22.8619 16.8532C22.6901 16.6492 22.5837 16.6349 22.3308 16.7508C21.5508 17.1088 20.7643 17.4809 19.9423 17.7123C18.864 18.016 17.7225 18.0202 16.6299 17.8527C14.3679 17.5058 12.5057 16.3965 11.0782 14.5901C10.4551 13.8017 10.0131 12.9242 9.68407 11.9707C9.37739 11.082 9.26542 10.1819 9.27713 9.25445C9.24798 9.24985 9.21909 9.24517 9.19019 9.24057ZM11.6285 9.24727C11.4834 12.613 14.5526 15.7089 18.0533 15.5756C19.6791 15.5136 21.0673 14.9617 22.25 13.8841C23.563 12.6879 24.2969 11.1538 24.2984 9.40372C24.3016 5.70995 21.5863 2.88627 17.8557 2.88401C14.6079 2.88199 11.5578 5.57045 11.6285 9.24727Z" fill="white"/>
<path fill-rule="evenodd" clip-rule="evenodd" d="M7.21844 15.0985C7.21836 17.9645 7.20245 20.8307 7.23135 23.6964C7.23733 24.2908 6.76378 24.7799 6.14888 24.779C5.26265 24.7778 4.37635 24.7837 3.4902 24.7778C2.85036 24.7735 2.40886 24.3282 2.40861 23.6818C2.40627 17.9382 2.39747 12.1945 2.41846 6.45094C2.42129 5.67854 2.81968 5.40245 3.50933 5.36629C4.37021 5.32108 5.23569 5.33989 6.09834 5.36209C6.79147 5.37993 7.22845 5.73707 7.22449 6.50043C7.20964 9.36633 7.21852 12.2324 7.21844 15.0985Z" fill="#00B9F1"/>
<path fill-rule="evenodd" clip-rule="evenodd" d="M15.101 25.7777C19.6918 25.7781 24.2826 25.7777 28.8735 25.7786C29.4396 25.7786 29.5883 25.9326 29.5887 26.5048C29.5887 26.6774 29.59 26.8499 29.5881 27.0225C29.5832 27.4793 29.3822 27.6865 28.9293 27.6866C24.6835 27.6887 20.4378 27.6894 16.1921 27.6898C11.1755 27.6904 6.15889 27.6902 1.14232 27.6907C0.690652 27.6907 0.472042 27.4783 0.468328 27.0314C0.466714 26.8357 0.466553 26.6401 0.467037 26.4445C0.468167 25.9616 0.659976 25.7755 1.15572 25.7756C2.8816 25.7762 4.60755 25.7772 6.33342 25.7773C9.25592 25.7776 12.1784 25.7773 15.101 25.7777Z" fill="white"/>
<path fill-rule="evenodd" clip-rule="evenodd" d="M9.37352 14.4746C10.4762 16.179 11.8856 17.533 13.7745 18.3428C13.9418 18.4146 14.0008 18.5513 13.9996 18.7493C13.9896 20.4281 13.9724 22.1075 14.0053 23.7857C14.0162 24.3324 13.5369 24.763 13.018 24.7745C12.0986 24.7947 11.1774 24.8085 10.2589 24.7727C9.72001 24.7515 9.2647 24.4382 9.26858 23.7633C9.28481 20.9692 9.27577 18.1749 9.27601 15.3807C9.27601 15.0805 9.27601 14.7802 9.27601 14.4801C9.30854 14.4782 9.34107 14.4765 9.37352 14.4746Z" fill="#00B9F1"/>
<path fill-rule="evenodd" clip-rule="evenodd" d="M16.076 19.1726C16.8934 19.2099 17.6708 19.3048 18.4409 19.2638C19.2024 19.2234 19.9566 19.046 20.7526 18.9226C20.7595 19.0062 20.7778 19.126 20.778 19.2458C20.7803 20.7294 20.7717 22.2131 20.7836 23.6966C20.79 24.4893 20.409 24.7443 19.6956 24.7712C18.8343 24.8038 17.9708 24.7823 17.1082 24.778C16.4684 24.7749 16.065 24.3811 16.0639 23.7579C16.0616 22.309 16.0642 20.8599 16.0656 19.4108C16.0659 19.3328 16.0723 19.2548 16.076 19.1726Z" fill="#00B9F1"/>
<path fill-rule="evenodd" clip-rule="evenodd" d="M22.837 18.8577C23.5153 19.6456 24.1037 20.3807 24.7481 21.0629C25.4347 21.7898 26.2917 22.1954 27.3158 22.1859C27.4162 22.1849 27.5167 22.1962 27.6955 22.2061C27.6466 22.8462 27.6293 23.4698 27.543 24.0836C27.466 24.6322 26.9914 24.7534 26.5471 24.7714C25.6745 24.8069 24.7988 24.8013 23.9255 24.7743C23.2789 24.7542 22.8281 24.421 22.8345 23.6839C22.8474 22.2233 22.8374 20.7625 22.8369 19.3018C22.8369 19.1797 22.837 19.0576 22.837 18.8577Z" fill="#00B9F1"/>
</svg>
