<svg id="Layer_1" data-name="Layer 1" xmlns="http://www.w3.org/2000/svg" viewBox="0 0 35 34"><defs><style>.cls-1{fill:#666766;}</style></defs><path class="cls-1" d="M28.5,15.48A11,11,0,0,0,21.78,5.3a10.78,10.78,0,0,0-4.19-.85H17.5a11,11,0,0,0-11,11c0,5.1-1.08,8-2,9.56a1.8,1.8,0,0,0,0,1.76,2,2,0,0,0,.64.64,1.8,1.8,0,0,0,.87.23h6.24v.58a5.23,5.23,0,0,0,10.46,0v-.58H29a1.8,1.8,0,0,0,.87-.23,2,2,0,0,0,.64-.64,1.8,1.8,0,0,0,0-1.76c-.9-1.54-2-4.46-2-9.56ZM21.56,28.25a4,4,0,0,1-1.19,2.87,4.06,4.06,0,0,1-5.74,0,4,4,0,0,1-1.19-2.87v-.58h8.12Zm7.91-2a.59.59,0,0,1-.5.29H6a.59.59,0,0,1-.5-.29.51.51,0,0,1-.07-.3.54.54,0,0,1,.08-.28c1-1.67,2.12-4.79,2.12-10.16A9.84,9.84,0,0,1,17.5,5.61h.07A9.73,9.73,0,0,1,24.5,8.52a9.6,9.6,0,0,1,2.11,3.19,9.77,9.77,0,0,1,.73,3.77c0,5.37,1.16,8.49,2.12,10.16a.54.54,0,0,1,.08.28.51.51,0,0,1-.07.3ZM31.3,9.34a.64.64,0,0,1-.24.05.48.48,0,0,1-.31-.08.69.69,0,0,1-.22-.23A14.51,14.51,0,0,0,25.24,3.2.65.65,0,0,1,25.07,3,.67.67,0,0,1,25,2.83a.59.59,0,0,1,0-.23.9.9,0,0,1,.08-.21.81.81,0,0,1,.16-.16.58.58,0,0,1,.21-.1h.23a.54.54,0,0,1,.21.08,15.71,15.71,0,0,1,5.7,6.34.63.63,0,0,1,.07.22.85.85,0,0,1,0,.23.82.82,0,0,1-.12.2.62.62,0,0,1-.18.14ZM3.94,9.39a.64.64,0,0,1-.24-.05.62.62,0,0,1-.18-.14A.82.82,0,0,1,3.4,9a.85.85,0,0,1,0-.23.63.63,0,0,1,.07-.22,15.71,15.71,0,0,1,5.7-6.34.54.54,0,0,1,.21-.08h.23a.58.58,0,0,1,.21.1.81.81,0,0,1,.16.16A.9.9,0,0,1,10,2.6a.59.59,0,0,1,0,.23A.67.67,0,0,1,9.93,3a.65.65,0,0,1-.17.16A14.51,14.51,0,0,0,4.47,9.08a.69.69,0,0,1-.22.23.48.48,0,0,1-.31.08Z"/><path class="cls-1" d="M17.5,33.55a5.31,5.31,0,0,1-5.3-5.3v-.51H6a1.72,1.72,0,0,1-.91-.24,1.84,1.84,0,0,1-.66-.67,1.79,1.79,0,0,1-.24-.91A1.86,1.86,0,0,1,4.46,25c.9-1.53,2-4.42,2-9.52A11.11,11.11,0,0,1,17.5,4.37h.09a11,11,0,0,1,11,11.11h0c0,5.1,1.07,8,2,9.52a1.86,1.86,0,0,1,.24.92,1.82,1.82,0,0,1-.24.91,1.84,1.84,0,0,1-.66.67,1.81,1.81,0,0,1-.9.24H22.8v.51a5.31,5.31,0,0,1-5.3,5.3ZM12.27,27.6h.08v.65a5.15,5.15,0,0,0,10.3,0V27.6H29a1.59,1.59,0,0,0,.82-.23,1.49,1.49,0,0,0,.61-.61,1.69,1.69,0,0,0,.23-.84,1.63,1.63,0,0,0-.23-.84c-.9-1.55-2-4.47-2-9.6h0a10.7,10.7,0,0,0-.81-4.18,10.9,10.9,0,0,0-10-6.78H17.5a11,11,0,0,0-10.93,11c0,5.13-1.08,8.05-2,9.6a1.63,1.63,0,0,0-.23.84,1.66,1.66,0,0,0,.23.84,1.49,1.49,0,0,0,.61.61A1.62,1.62,0,0,0,6,27.6Zm5.23,4.78a4.13,4.13,0,0,1-4.14-4.13V27.6h8.28v.65a4.15,4.15,0,0,1-4.14,4.13Zm-4-4.64v.51a4,4,0,0,0,8,0v-.51ZM29,26.58H6a.62.62,0,0,1-.32-.09.72.72,0,0,1-.25-.24.73.73,0,0,1-.08-.33.75.75,0,0,1,.1-.32c1-1.68,2.11-4.79,2.11-10.12a9.72,9.72,0,0,1,.75-3.8A10,10,0,0,1,17.5,5.53h.07a10.06,10.06,0,0,1,3.79.77,9.82,9.82,0,0,1,3.19,2.17,9.68,9.68,0,0,1,2.13,3.22,9.83,9.83,0,0,1,.73,3.79c0,5.33,1.15,8.44,2.11,10.12a.75.75,0,0,1,.1.32.73.73,0,0,1-.08.33h0a.72.72,0,0,1-.25.24A.62.62,0,0,1,29,26.58ZM17.5,5.68a9.61,9.61,0,0,0-3.74.75,9.78,9.78,0,0,0-6,9.05c0,5.36-1.16,8.5-2.13,10.19a.59.59,0,0,0-.07.26.54.54,0,0,0,.06.25.5.5,0,0,0,.19.19.54.54,0,0,0,.25.06H29a.54.54,0,0,0,.25-.06.5.5,0,0,0,.19-.19.57.57,0,0,0,.06-.25.59.59,0,0,0-.07-.26c-1-1.69-2.13-4.83-2.13-10.19a9.76,9.76,0,0,0-.72-3.74,9.64,9.64,0,0,0-2.1-3.17,9.73,9.73,0,0,0-6.88-2.89ZM31.05,9.47a.67.67,0,0,1-.34-.1.6.6,0,0,1-.24-.26A14.58,14.58,0,0,0,25.2,3.26.66.66,0,0,1,25,3.08a.67.67,0,0,1-.1-.23.76.76,0,0,1,0-.26A1.17,1.17,0,0,1,25,2.35a.77.77,0,0,1,.18-.18.7.7,0,0,1,.23-.11.57.57,0,0,1,.26,0,.5.5,0,0,1,.24.09,15.8,15.8,0,0,1,5.73,6.37.72.72,0,0,1,.07.25,1.07,1.07,0,0,1,0,.25.76.76,0,0,1-.13.23.8.8,0,0,1-.21.15h0a.64.64,0,0,1-.27.07Zm-5.5-7.28h-.11a.66.66,0,0,0-.19.09.35.35,0,0,0-.13.14.64.64,0,0,0-.08.19.46.46,0,0,0,0,.2.48.48,0,0,0,.08.18.93.93,0,0,0,.14.14A14.65,14.65,0,0,1,30.6,9a.49.49,0,0,0,.45.28h0a.54.54,0,0,0,.21-.05h0a.61.61,0,0,0,.16-.12.59.59,0,0,0,.1-.17.46.46,0,0,0,0-.2.41.41,0,0,0-.05-.19,15.68,15.68,0,0,0-5.68-6.32.67.67,0,0,0-.18-.07ZM4,9.47a.59.59,0,0,1-.29-.07,1,1,0,0,1-.2-.15A.76.76,0,0,1,3.33,9a1.07,1.07,0,0,1,0-.25.72.72,0,0,1,.07-.25A15.8,15.8,0,0,1,9.1,2.15a.5.5,0,0,1,.24-.09.57.57,0,0,1,.26,0,.7.7,0,0,1,.23.11.77.77,0,0,1,.18.18,1.17,1.17,0,0,1,.09.24.76.76,0,0,1,0,.26.67.67,0,0,1-.1.23.66.66,0,0,1-.19.18A14.58,14.58,0,0,0,4.53,9.11a.6.6,0,0,1-.24.26A.67.67,0,0,1,4,9.47Zm0-.15h0a.41.41,0,0,0,.27-.07A.48.48,0,0,0,4.4,9a14.65,14.65,0,0,1,5.33-5.9A.93.93,0,0,0,9.87,3,.48.48,0,0,0,10,2.82a.46.46,0,0,0,0-.2.64.64,0,0,0-.08-.19.35.35,0,0,0-.13-.14.47.47,0,0,0-.39-.09.67.67,0,0,0-.18.07A15.71,15.71,0,0,0,3.5,8.58a.49.49,0,0,0,0,.2.46.46,0,0,0,0,.2.59.59,0,0,0,.1.17.61.61,0,0,0,.16.12.54.54,0,0,0,.21.05Z"/><path class="cls-1" d="M19.89,5.61h-1V2.7a1.23,1.23,0,0,0-1.23-1.23h-.3A1.23,1.23,0,0,0,16.12,2.7V5.61h-1V2.7A2.24,2.24,0,0,1,17.35.45h.3A2.24,2.24,0,0,1,19.89,2.7Z"/></svg>