<?xml version="1.0" encoding="utf-8"?>
<!-- Generator: Adobe Illustrator 19.0.0, SVG Export Plug-In . SVG Version: 6.00 Build 0)  -->
<svg version="1.1" id="Layer_1" xmlns="http://www.w3.org/2000/svg" xmlns:xlink="http://www.w3.org/1999/xlink" x="0px" y="0px"
	 viewBox="-470.9 263 36 36" style="enable-background:new -470.9 263 36 36;" xml:space="preserve">
<style type="text/css">
	.st0{fill:#808184;}
</style>
<title>Page 1</title>
<g>
	<path class="st0" d="M-447.4,281.7c-0.1-1.8,0.7-3,2-4.1c-0.9-1.1-1.9-1.8-3.3-1.9c-1-0.1-1.9,0.2-2.7,0.5
		c-0.7,0.3-1.5,0.3-2.2,0.1c-0.4-0.1-0.8-0.2-1.3-0.3c-2.5-0.6-4.4,0.4-5.4,2.8c-0.3,0.8-0.5,1.7-0.5,2.6c-0.1,3,1,5.6,2.8,7.9
		c0.3,0.3,0.6,0.6,0.9,0.8c0.7,0.5,1.4,0.7,2.2,0.4c0.3-0.1,0.6-0.2,0.9-0.3c1-0.4,1.9-0.4,2.9-0.1c0.3,0.1,0.5,0.2,0.8,0.3
		c0.4,0.1,0.9,0.2,1.3,0.2c0.8,0,1.4-0.5,1.9-1.1c0.8-0.9,1.5-2,1.9-3.1c0.1-0.3,0.2-0.6,0.3-0.9
		C-446.5,284.7-447.3,283.4-447.4,281.7"/>
	<path class="st0" d="M-449.3,271.4c-2.5,0.5-3.7,2.4-3.7,4.6C-450.9,276.1-448.5,273.2-449.3,271.4"/>
</g>
</svg>
