<svg width="49" height="28" viewBox="0 0 49 28" fill="none" xmlns="http://www.w3.org/2000/svg">
<path fill-rule="evenodd" clip-rule="evenodd" d="M11.4942 19.4083C10.9878 19.717 10.605 19.985 10.1929 20.1952C9.02155 20.7919 7.77811 21.2729 6.68449 21.9852C6.12998 22.3463 5.7925 23.0825 5.43479 23.6948C4.81792 24.7512 4.84697 24.7717 5.79792 25.6178C5.95598 25.7579 6.11232 25.9086 6.2345 26.0794C6.4031 26.3147 6.53867 26.5733 6.68904 26.8219C6.4031 26.9655 6.12999 27.1896 5.82896 27.2369C5.01472 27.365 4.16773 27.565 3.37485 27.451C2.81351 27.3707 2.30401 26.8458 1.79963 26.481C1.42028 26.2065 1.05317 25.8997 0.743592 25.5511C0.576984 25.3635 0.430595 25.0411 0.46705 24.8095C0.648751 23.6515 0.769226 22.4599 1.14658 21.3612C1.66065 19.8651 2.27468 18.3762 3.06841 17.014C3.50387 16.2664 3.54858 15.5769 3.54915 14.8122C3.55 12.582 3.54629 10.352 3.53404 8.12176C3.53062 7.54988 3.65651 7.09164 4.1532 6.7046C5.1423 5.93364 6.08071 5.09748 7.0288 4.27526C8.14692 3.30524 9.26106 2.33037 10.361 1.34013C10.9738 0.788187 11.5913 0.485161 12.4673 0.752017C13.1346 0.955079 13.8628 0.975299 14.5677 1.03368C16.1936 1.16839 17.8255 1.23931 19.4477 1.40876C20.5197 1.52069 21.5778 1.7602 22.6435 1.93706C22.7825 1.96013 22.9323 1.92738 23.069 1.957C23.3971 2.02849 23.7209 2.12161 24.047 2.2062C23.9148 2.51521 23.7807 2.82336 23.6525 3.13408C23.6186 3.21581 23.603 3.30524 23.5135 3.62621C23.9228 3.32261 24.1822 3.15942 24.4069 2.95778C25.3303 2.13016 26.2302 1.27633 27.1644 0.460952C27.7311 -0.0334583 28.377 0.196375 28.9723 0.411398C29.7193 0.681103 30.4376 1.02913 31.1783 1.31592C32.8148 1.94846 34.4512 2.57985 36.0991 3.18135C37.6182 3.73614 39.1262 4.35615 40.6897 4.74062C41.527 4.94653 42.4712 4.70559 43.3677 4.68993C43.6212 4.68537 43.9262 4.69562 44.1107 4.83119C44.2164 4.90894 44.162 5.25924 44.1173 5.47426C44.0339 5.88152 43.9854 6.19964 44.3807 6.54453C44.9401 7.03268 45.4174 7.62564 45.8668 8.22115C46.0004 8.3983 46.0348 8.80527 45.9212 8.98412C45.5963 9.49562 45.8173 9.82114 46.1593 10.1612C46.8605 10.8581 47.554 11.5621 48.2585 12.2556C48.6402 12.6315 48.6279 12.9853 48.2469 13.3484C47.9743 13.6087 47.7077 13.8758 47.4403 14.1415C46.8864 14.6915 46.3239 14.4047 45.7406 14.1897C45.5117 14.1054 45.236 14.1492 44.9814 14.1347C45.097 14.3412 45.2229 14.5428 45.3257 14.7553C45.4484 15.009 45.7124 15.3978 45.629 15.5046C45.461 15.7202 45.0722 15.9306 44.8219 15.8845C43.9948 15.733 43.1814 15.4892 42.376 15.2377C41.4188 14.9387 40.4952 14.4899 39.5192 14.3062C38.8266 14.1757 38.0687 14.3546 37.3448 14.4375C36.5855 14.5243 35.996 14.3093 35.4466 13.7499C34.9462 13.2407 34.212 12.944 33.7708 12.3994C33.2163 11.7148 32.8504 10.876 32.4121 10.0988C32.1535 9.64001 31.9125 9.17124 31.6394 8.66173C31.2535 9.38712 31.6727 9.95472 31.9681 10.5386C32.2099 11.0167 32.4286 11.5106 32.7125 11.9628C33.1523 12.6626 32.6835 13.1143 32.3238 13.6001C31.3646 14.8965 30.3977 16.1873 29.4342 17.4805C28.8441 18.2723 28.2195 19.0415 27.6784 19.8657C27.4073 20.2787 27.2569 20.7813 27.1066 21.2607C26.8619 22.0419 26.6341 22.8308 26.4524 23.6285C26.3205 24.2078 26.8556 24.261 27.2059 24.367C27.5338 24.4663 27.9681 24.4809 27.8023 24.9266C27.7015 25.1969 27.327 25.4905 27.0368 25.5383C26.4114 25.6411 25.7415 25.499 25.1241 25.6252C23.7451 25.9069 22.8354 25.1658 21.9856 24.3014C21.758 24.0705 21.6455 23.6718 21.5948 23.3331C21.4627 22.446 21.2807 21.5429 21.336 20.6594C21.3792 19.9605 21.6971 19.2619 21.9768 18.5986C22.3561 17.6998 22.8283 16.84 23.2276 15.9489C23.284 15.823 23.1866 15.4892 23.1043 15.4678C22.9043 15.4157 22.6082 15.412 22.4623 15.5285C21.9132 15.9677 21.4054 16.4592 20.8882 16.9377C19.9102 17.8422 18.9576 18.7749 17.9545 19.6501C17.3143 20.2089 17.1827 20.9613 16.9805 21.7047C16.8532 22.1726 16.7436 22.6539 16.5456 23.0928C16.2005 23.8586 16.4474 24.3242 17.2873 24.4288C17.6586 24.4752 18.0192 24.6008 18.3883 24.6686C18.74 24.7335 19.1333 24.8429 18.9553 25.2661C18.8502 25.5161 18.4643 25.7784 18.1855 25.8012C17.242 25.8787 16.289 25.8809 15.3415 25.8545C14.7654 25.8379 14.1052 25.8716 13.6364 25.6087C12.622 25.0405 11.8171 24.2824 11.8359 22.9088C11.851 21.7853 11.626 20.6594 11.4942 19.4083Z" fill="#EB5556"/>
<path fill-rule="evenodd" clip-rule="evenodd" d="M34.7518 21.0459C34.9534 19.9409 34.9423 20.0121 33.9484 19.8603C32.6733 19.6655 31.4142 19.3593 30.1569 19.0654C29.5927 18.9336 29.5291 18.5385 29.8407 18.1017C30.6538 16.9627 31.4877 15.8389 32.3071 14.7046C32.4723 14.4759 32.6075 14.2253 32.7639 13.9897C33.2333 13.282 33.6043 13.2222 34.2557 13.7414C34.985 14.3229 35.7258 14.8908 36.4401 15.4909C36.6822 15.6943 36.9661 15.9474 37.0436 16.2294C37.3791 17.4517 37.5821 18.6875 37.0629 19.9289C36.857 20.4211 36.7653 20.9616 36.5489 21.448C36.3202 21.9624 35.8696 22.3617 35.3183 22.0843C35.0286 21.9393 34.9343 21.4047 34.7518 21.0459Z" fill="#EB5556"/>
<circle cx="43.1809" cy="8.99465" r="0.569597" fill="#EB5556"/>
</svg>
