<svg width="44" height="28" viewBox="0 0 44 28" fill="none" xmlns="http://www.w3.org/2000/svg">
<path fill-rule="evenodd" clip-rule="evenodd" d="M20.2629 24.4179C18.7563 23.9006 17.3084 23.4039 15.8609 22.9065C14.6792 22.4999 13.8854 20.5418 14.4091 19.2923C14.5724 18.9025 14.7549 18.5129 14.9842 18.1653C15.5388 17.3241 15.5969 16.4778 15.2784 15.5007C15.0221 14.7153 14.955 13.8597 14.5241 13.0592C14.5789 14.1512 14.6334 15.2429 14.692 16.4121C13.4393 16.4482 12.3181 16.2893 11.2868 15.3086C10.4863 14.5467 9.83454 13.2323 8.48594 13.661C10.5427 14.9875 12.0808 16.8586 13.035 19.2663C13.1194 19.4784 12.9125 19.8422 12.8011 20.1175C12.6892 20.3938 12.4541 20.6317 12.4006 20.9139C12.1669 22.1462 11.7693 22.3442 10.7009 22.0154C9.68986 21.7041 8.62121 21.6083 7.58052 21.4026C7.23957 21.3351 6.80675 21.3315 6.58781 21.1072C5.79669 20.2962 5.06801 20.5037 4.22746 21.0071C3.36038 21.5262 2.42627 21.9175 1.36677 22.2031C2.15934 21.2015 2.95167 20.2004 3.74424 19.1991C3.69095 19.1216 3.63791 19.0441 3.58439 18.9668C2.63484 19.5778 1.68529 20.1888 0.669922 20.8423C0.69524 20.6556 0.681021 20.5619 0.716707 20.5274C3.554 17.795 3.98851 13.8845 5.15096 10.3225C5.38702 9.59848 5.81742 8.85797 6.3462 8.34687C8.90669 5.87379 11.5472 3.49521 14.1203 1.03603C14.6563 0.52391 15.0758 0.486836 15.7208 0.759505C21.6462 3.26503 27.5933 5.71261 33.5145 8.22946C34.6249 8.70142 35.6212 9.4736 36.7205 9.98366C37.8118 10.4904 38.9477 10.9196 40.0993 11.2371C41.1135 11.5167 41.9666 10.3403 41.8451 9.25294C41.6179 7.22041 40.0415 6.19332 38.9916 4.62116C40.2524 3.13062 41.5063 1.64858 42.7601 0.166016C42.8351 0.196656 42.9096 0.227298 42.9846 0.257938C42.7734 1.11714 42.731 2.09195 42.3049 2.80465C41.8542 3.55778 41.0378 4.06115 40.6489 4.42419C41.5258 6.27315 42.3857 7.97018 43.1187 9.72773C43.2687 10.0872 43.0659 10.7685 42.8144 11.1374C41.8615 12.5363 40.624 13.3358 38.9089 12.8847C38.6176 12.8082 38.2936 12.8739 38.1356 12.8739C38.3042 14.4694 38.4428 15.9814 38.6393 17.4848C38.6849 17.8342 38.8648 18.2163 39.0893 18.4784C41.2579 21.0089 41.8424 24.0502 41.7088 27.45C40.8828 27.45 40.1037 27.45 39.2371 27.45C39.3034 27.1003 39.2822 26.6809 39.4553 26.3969C40.014 25.4813 40.1353 24.534 39.4254 23.7467C38.7044 22.9467 37.9034 22.0473 36.9696 21.6853C35.205 21.0012 33.3662 20.6245 31.9383 19.1329C31.3598 18.5281 30.9463 18.0118 30.9015 17.104C30.8626 16.3163 30.5844 15.5421 30.2731 14.7872C30.2731 15.8173 30.2731 16.8478 30.2731 17.6933C27.3184 17.6933 24.4835 17.6987 21.6491 17.6658C21.5678 17.6648 21.4909 17.2541 21.4791 17.2216C20.2245 18.2873 18.9314 19.386 17.5493 20.5604C18.2167 21.1752 18.8754 21.7818 19.6171 22.4649C20.5997 21.6904 21.2874 19.5907 23.4826 21.1636C22.894 21.6109 22.2763 21.9809 21.7791 22.4858C21.2375 23.0355 20.808 23.7106 20.2629 24.4179Z" fill="#14A84B"/>
<ellipse cx="8.27525" cy="18.8334" rx="0.447368" ry="0.478666" fill="#14A84B"/>
</svg>
