<svg width="34" height="34" viewBox="0 0 34 34" fill="none" xmlns="http://www.w3.org/2000/svg">
    <path d="M17.708 10.271a1.062 1.062 0 1 0-2.125 0v7.792c0 .383.204.734.536.922l4.958 2.834a1.063 1.063 0 0 0 1.054-1.845l-4.423-2.527v-7.175z" fill="#F5821F"/>
    <path d="M17 1.416c8.606 0 15.583 6.977 15.583 15.583 0 8.607-6.977 15.584-15.583 15.584S1.417 25.606 1.417 16.999C1.417 8.393 8.394 1.416 17 1.416zM3.542 16.999a13.458 13.458 0 1 0 26.916 0 13.458 13.458 0 0 0-26.916 0z" fill="#F5821F"/>
</svg>
