<svg width="1100" height="560" viewBox="0 0 1100 560" fill="none" xmlns="http://www.w3.org/2000/svg">
<g clip-path="url(#clip0)">
<path d="M163.303 293.727C162.14 300.708 148.564 396.513 147.4 405.434H178.042C178.818 398.84 192.781 302.648 193.945 293.727H163.303Z" fill="#003F7E"/>
<path d="M415.413 293.727C414.249 300.708 400.673 396.513 399.51 405.434H471.654C472.43 400.391 473.981 387.592 475.145 381.386H431.315L434.418 360.828H473.981C474.757 356.174 476.308 344.538 477.084 338.332H437.521L440.624 317.775H483.29C484.066 312.732 486.005 299.933 486.781 293.727H415.413Z" fill="#003F7E"/>
<path d="M72.1441 357.725C72.1441 357.725 97.7437 298.769 100.071 293.727H138.858C138.858 301.484 133.816 397.676 133.816 405.434H105.889L110.543 327.084C110.543 327.084 79.1258 400.391 77.1865 405.434H55.0778L44.9931 327.084C44.2174 330.574 33.7448 382.937 27.9268 405.434H0C2.7151 395.349 24.048 299.545 25.9874 293.727H63.2231L72.1441 357.725Z" fill="#003F7E"/>
<path d="M334.73 359.665L352.572 318.162L358.39 359.665H334.73ZM361.105 382.937C361.105 382.937 363.044 401.167 363.82 405.434H393.298C391.747 396.125 375.456 300.32 374.293 293.727H337.057C334.73 298.381 292.064 394.573 287.021 405.434H316.888C318.439 401.555 326.197 382.937 326.197 382.937H361.105Z" fill="#003F7E"/>
<path d="M236.984 314.665H243.966C248.621 314.665 254.051 315.053 257.154 318.932C259.481 321.647 260.257 325.525 259.481 330.18C259.481 330.18 258.705 338.713 252.887 341.428C252.887 341.428 249.008 344.143 242.802 344.143H228.839L254.826 405.427H284.693L262.196 358.494C275.772 355.779 286.632 351.901 289.347 330.568C289.735 327.853 289.735 325.525 289.735 322.81C289.735 315.053 287.796 308.459 283.529 303.805C276.159 295.271 263.36 293.332 254.051 293.332H212.161C210.997 299.926 197.421 396.118 196.258 405.039H224.185C224.96 399.221 236.984 314.665 236.984 314.665Z" fill="#003F7E"/>
<path d="M1100 151C1082.16 225.471 1017.38 265.81 979.758 287.531L978.207 285.204C993.722 272.404 1047.25 233.229 1064.31 168.066L1100 151Z" fill="#F08300"/>
<path d="M766.056 337.568L757.911 333.301C755.196 331.75 748.99 328.259 748.99 322.441C748.99 319.726 750.153 317.011 752.093 315.459C754.42 313.132 758.687 312.356 762.565 313.132C767.996 313.908 773.814 317.399 780.795 323.217C783.898 317.011 790.104 305.374 792.044 301.496C784.286 295.29 776.917 291.799 766.056 289.86C752.481 287.92 739.293 290.635 729.984 297.617C722.227 303.435 717.184 312.356 716.021 322.829C716.021 324.768 715.633 326.32 715.633 327.871C715.633 333.689 716.796 338.731 719.512 342.998C736.19 342.61 753.644 341.834 771.486 340.283C769.547 339.507 767.995 338.344 766.056 337.568Z" fill="#003F7E"/>
<path d="M890.554 293.727C889.779 298.381 887.839 313.12 886.676 320.49C908.397 314.284 934.772 305.751 958.82 293.727H890.554Z" fill="#003F7E"/>
<path d="M902.186 321.653C899.083 322.817 895.981 323.593 892.878 324.756C892.102 324.756 891.714 325.144 890.938 325.532C889.775 325.92 888.223 326.308 887.059 326.696C886.284 327.084 885.508 327.084 885.12 327.471C880.854 328.635 876.199 330.187 871.545 331.35C870.769 331.738 869.605 331.738 868.829 332.126C867.666 332.514 866.114 332.902 864.951 333.289C863.787 333.677 863.011 333.677 861.848 334.065C860.684 334.453 859.133 334.841 857.969 335.229C856.805 335.617 855.642 336.005 854.478 336.005C852.151 336.392 850.212 337.168 847.884 337.556C846.721 337.944 845.557 338.332 844.006 338.332C843.618 338.332 842.842 338.72 842.454 338.72C829.654 341.435 816.467 344.15 802.116 346.865C801.728 346.865 801.34 346.865 800.952 346.865C798.237 347.253 795.91 347.641 793.194 348.029C792.419 348.029 792.031 348.416 791.255 348.416C788.54 348.804 785.825 349.192 783.11 349.58C782.722 349.58 782.722 349.58 782.334 349.58C767.207 351.907 750.916 353.847 734.238 355.01H733.85C731.135 355.398 728.808 355.398 726.093 355.786C725.705 355.786 725.705 355.786 725.317 355.786C722.602 356.174 720.275 356.174 717.559 356.174C717.172 356.174 717.172 356.174 716.784 356.174C714.069 356.174 711.354 356.562 708.639 356.562C708.251 356.562 708.251 356.562 707.863 356.562C705.148 356.562 702.433 356.95 699.33 356.95H698.942C684.59 357.725 669.851 358.113 654.724 358.113C654.336 358.113 653.949 358.113 653.561 358.113C650.07 358.113 646.967 358.113 643.476 358.113C642.7 358.113 641.925 358.113 641.149 358.113C629.125 358.113 616.325 357.338 603.525 356.95H603.137C583.744 355.786 563.574 354.235 543.017 351.907L566.677 329.411C566.677 329.411 580.641 333.677 599.647 337.168C596.156 315.447 592.665 296.442 592.277 293.727H555.041C552.714 298.381 510.436 394.573 505.006 405.434H534.872C536.423 401.555 546.508 377.507 546.508 377.507H577.926C577.926 377.507 581.029 400.779 581.804 405.434H611.283C610.507 401.943 607.792 384.876 604.301 365.483C625.246 366.646 646.579 367.034 665.973 366.646C667.136 368.198 667.524 370.137 667.524 372.077C667.524 372.852 667.524 373.628 667.136 374.016C666.748 376.343 665.585 378.67 663.257 379.834C659.379 382.549 653.561 382.161 649.294 381.386C639.597 379.834 632.228 372.465 626.022 366.646C622.143 372.852 613.998 386.04 611.671 390.307C622.919 400.391 635.331 406.985 648.13 408.537C661.318 410.476 674.118 407.761 683.815 400.391C691.96 394.185 697.39 385.264 698.942 374.404C699.33 371.301 699.717 368.198 699.33 365.483C720.275 364.707 738.117 363.156 748.977 362.38C752.468 365.095 754.407 368.198 754.407 372.077C754.407 372.852 754.407 373.628 754.407 374.016C754.019 376.343 752.468 378.67 750.529 379.834C746.65 382.549 740.444 382.161 736.565 381.386C726.868 379.834 719.499 372.465 713.293 366.646C709.414 372.852 701.269 386.04 698.942 390.307C710.19 400.391 722.214 406.985 735.402 408.537C748.589 410.476 761.389 407.761 771.086 400.391C779.619 394.185 784.661 385.264 786.213 374.404C786.989 368.198 786.989 362.768 785.437 358.113C790.092 357.338 794.746 356.562 799.013 356.174C795.522 379.446 792.419 401.555 792.031 405.821H864.175C864.951 400.779 866.89 387.979 867.666 381.773H824.612L827.715 361.216H867.278C868.054 356.95 869.217 347.253 870.381 340.659C875.811 339.108 878.526 337.944 878.526 337.944C878.526 337.944 892.102 334.065 909.168 327.471C906.841 344.926 899.083 398.452 897.92 405.821H929.337C930.501 399.228 941.362 321.653 941.362 321.653H963.858C964.634 316.999 966.573 301.484 967.737 294.502C955.713 301.096 933.604 311.181 902.186 321.653Z" fill="#003F7E"/>
<path d="M688.086 343.377C685.371 341.438 682.268 339.498 678.777 337.947L670.632 333.68C667.916 332.129 662.098 328.638 662.098 322.82C662.098 320.105 663.262 317.39 665.201 315.838C667.916 313.511 671.795 312.735 675.674 313.511C681.104 314.287 686.922 317.777 693.516 323.595C696.619 317.39 702.825 305.753 704.764 301.875C697.007 295.669 689.637 292.178 678.777 290.239C665.201 288.299 652.014 291.014 642.705 297.996C634.947 303.814 629.905 312.735 628.741 323.208C628.354 325.147 628.354 326.698 628.354 328.25C628.354 333.292 629.129 337.559 631.069 341.438C631.844 341.438 632.232 341.438 633.008 341.438C646.971 342.213 665.977 342.989 688.086 343.377Z" fill="#003F7E"/>
<path d="M833.539 317.775H876.205C876.981 312.732 878.921 299.933 879.696 293.727H808.716C808.328 296.442 805.613 315.447 802.51 337.168C812.207 336.005 821.903 334.453 831.6 332.902L833.539 317.775Z" fill="#003F7E"/>
</g>
<defs>
<clipPath id="clip0">
<rect width="1100" height="560" fill="white"/>
</clipPath>
</defs>
</svg>
