<svg width="77" height="77" viewBox="0 0 77 77" fill="none" xmlns="http://www.w3.org/2000/svg">
    <circle opacity=".5" cx="38.5" cy="38.5" r="38.5" fill="#127CDD" fill-opacity=".1"/>
    <path d="M39.57 65.882H18.45a3.696 3.696 0 0 1-3.696-3.696V58.49H43.12l-3.55 7.392z" fill="#D5EAFF"/>
    <path d="M62.806 36.312v25.872H18.45a3.696 3.696 0 0 1-3.696-3.696V36.312l25.874-9.24 22.178 9.24z" fill="#EBF5FC"/>
    <path d="M21.281 43.706h-1.963a.866.866 0 0 1-.867-.867v-1.963c0-.478.388-.866.867-.866h1.963c.479 0 .866.388.866.866v1.964a.866.866 0 0 1-.866.866zM28.673 43.706H26.71a.866.866 0 0 1-.867-.867v-1.963c0-.478.388-.866.867-.866h1.963c.479 0 .866.388.866.866v1.964a.866.866 0 0 1-.866.866zM36.065 43.706h-1.963a.866.866 0 0 1-.867-.867v-1.963c0-.478.388-.866.867-.866h1.963c.479 0 .866.388.866.866v1.964a.866.866 0 0 1-.866.866zM43.457 43.706h-1.963a.866.866 0 0 1-.867-.867v-1.963c0-.478.388-.866.867-.866h1.963c.478 0 .866.388.866.866v1.964a.866.866 0 0 1-.866.866zM50.848 43.706h-1.964a.866.866 0 0 1-.866-.867v-1.963c0-.478.388-.866.866-.866h1.964c.478 0 .866.388.866.866v1.964a.866.866 0 0 1-.866.866zM58.24 43.706h-1.964a.866.866 0 0 1-.866-.867v-1.963c0-.478.388-.866.866-.866h1.964c.478 0 .866.388.866.866v1.964a.866.866 0 0 1-.866.866zM21.281 51.096h-1.963a.866.866 0 0 1-.867-.866v-1.963c0-.479.388-.867.867-.867h1.963c.479 0 .866.388.866.867v1.963a.866.866 0 0 1-.866.866zM28.673 51.096H26.71a.866.866 0 0 1-.867-.866v-1.963c0-.479.388-.867.867-.867h1.963c.479 0 .866.388.866.867v1.963a.866.866 0 0 1-.866.866zM36.065 51.096h-1.963a.866.866 0 0 1-.867-.866v-1.963c0-.479.388-.867.867-.867h1.963c.479 0 .866.388.866.867v1.963a.866.866 0 0 1-.866.866zM44.323 51.096v-2.772a.924.924 0 0 0-.924-.924h-1.848a.924.924 0 0 0-.924.924v1.848c0 .51.414.924.924.924h2.772zM21.281 58.49h-1.963a.866.866 0 0 1-.867-.865V55.66c0-.478.388-.866.867-.866h1.963c.479 0 .866.388.866.866v1.964a.866.866 0 0 1-.866.866zM28.673 58.49H26.71a.866.866 0 0 1-.867-.865V55.66c0-.478.388-.866.867-.866h1.963c.479 0 .866.388.866.866v1.964a.866.866 0 0 1-.866.866zM36.065 58.49h-1.963a.866.866 0 0 1-.867-.865V55.66c0-.478.388-.866.867-.866h1.963c.479 0 .866.388.866.866v1.964a.866.866 0 0 1-.866.866z" fill="#3C58A0"/>
    <path d="M58.214 40.01h-1.911a.89.89 0 0 0-.328.063c.331.13.566.452.566.83v1.91a.892.892 0 0 1-.566.83c.102.04.212.063.328.063h1.91c.494 0 .893-.4.893-.893v-1.91c0-.494-.4-.893-.892-.893zM50.822 40.01H48.91a.89.89 0 0 0-.328.063c.331.13.566.452.566.83v1.91a.892.892 0 0 1-.566.83c.102.04.212.063.328.063h1.91c.494 0 .893-.4.893-.893v-1.91c0-.494-.4-.893-.892-.893zM43.431 40.01H41.52a.89.89 0 0 0-.327.063c.33.13.565.452.565.83v1.91a.892.892 0 0 1-.565.83c.101.04.211.063.327.063h1.911c.493 0 .893-.4.893-.893v-1.91c0-.494-.4-.893-.893-.893zM36.039 40.01h-1.911a.89.89 0 0 0-.327.063c.33.13.565.452.565.83v1.91a.892.892 0 0 1-.565.83c.101.04.211.063.327.063h1.911c.493 0 .892-.4.892-.893v-1.91c0-.494-.4-.893-.892-.893zM28.647 40.01h-1.911a.89.89 0 0 0-.327.063c.33.13.565.452.565.83v1.91a.892.892 0 0 1-.565.83c.101.04.211.063.327.063h1.91c.494 0 .893-.4.893-.893v-1.91c0-.494-.4-.893-.892-.893zM21.255 40.01h-1.911a.89.89 0 0 0-.327.063c.33.13.565.452.565.83v1.91a.892.892 0 0 1-.565.83c.101.04.211.063.327.063h1.911c.493 0 .893-.4.893-.893v-1.91c0-.494-.4-.893-.893-.893zM21.255 47.4h-1.911a.89.89 0 0 0-.327.063c.33.13.565.453.565.83v1.911c0 .377-.235.7-.565.83a.89.89 0 0 0 .327.063h1.911c.493 0 .893-.4.893-.893v-1.911c0-.493-.4-.893-.893-.893zM21.255 54.795h-1.911a.892.892 0 0 0-.327.063c.33.13.565.452.565.83v1.91c0 .378-.235.7-.565.83.101.04.211.063.327.063h1.911c.493 0 .893-.4.893-.892v-1.912c0-.493-.4-.892-.893-.892zM28.647 47.4h-1.911a.89.89 0 0 0-.327.063c.33.13.565.453.565.83v1.911c0 .377-.235.7-.565.83a.89.89 0 0 0 .327.063h1.91c.494 0 .893-.4.893-.893v-1.911c0-.493-.4-.893-.892-.893zM28.647 54.795h-1.911a.891.891 0 0 0-.327.063c.33.13.565.452.565.83v1.91c0 .378-.235.7-.565.83.101.04.211.063.327.063h1.91c.494 0 .893-.4.893-.892v-1.912c0-.493-.4-.892-.892-.892zM36.039 47.4h-1.911a.89.89 0 0 0-.327.063c.33.13.565.453.565.83v1.911c0 .377-.235.7-.565.83a.89.89 0 0 0 .327.063h1.911c.493 0 .892-.4.892-.893v-1.911c0-.493-.4-.893-.892-.893zM44.323 51.096v-2.803c0-.493-.4-.893-.892-.893H41.52a.89.89 0 0 0-.328.063c.331.13.566.453.566.83v1.911c0 .377-.235.7-.566.83a.89.89 0 0 0 .328.063h2.803zM36.039 54.795h-1.911a.892.892 0 0 0-.327.063c.33.13.565.452.565.83v1.91c0 .378-.235.7-.565.83.101.04.211.063.327.063h1.911c.493 0 .892-.4.892-.892v-1.912c0-.493-.4-.892-.892-.892z" fill="#2A428C"/>
    <path d="M60.238 35.244v26.942h2.568V36.314l-2.568-1.07z" fill="#D5EAFF"/>
    <path d="M62.806 36.313v-9.24a3.696 3.696 0 0 0-3.696-3.696H18.45a3.696 3.696 0 0 0-3.696 3.696v9.24h48.052z" fill="#FF800D"/>
    <path d="M26.4 27.907h-2.406a.837.837 0 1 1 0-1.673H26.4a.837.837 0 1 1 0 1.673zM32.31 27.907h-2.406a.837.837 0 1 1 0-1.673h2.406a.836.836 0 1 1 0 1.673zM47.653 27.907h-2.406a.836.836 0 1 1 0-1.673h2.406a.836.836 0 1 1 0 1.673zM53.563 27.907h-2.405a.836.836 0 1 1 0-1.673h2.405a.836.836 0 1 1 0 1.673z" fill="#EA6F00"/>
    <path d="M30.462 26.612a2.31 2.31 0 1 1-4.62 0v-4.62a2.31 2.31 0 1 1 4.62 0v4.62zM51.715 26.612a2.31 2.31 0 1 1-4.62 0v-4.62a2.31 2.31 0 1 1 4.62 0v4.62z" fill="#EBF5FC"/>
    <path d="M49.405 19.682c-.474 0-.914.143-1.281.388a2.307 2.307 0 0 1 1.028 1.922v4.62c0 .801-.408 1.507-1.028 1.921a2.31 2.31 0 0 0 3.592-1.922v-4.62a2.31 2.31 0 0 0-2.31-2.31zM28.152 19.682c-.474 0-.915.143-1.282.388a2.307 2.307 0 0 1 1.029 1.922v4.62c0 .801-.409 1.507-1.029 1.921a2.31 2.31 0 0 0 3.592-1.922v-4.62a2.31 2.31 0 0 0-2.31-2.31z" fill="#D4EAFF"/>
    <path d="M59.11 23.377h-2.567a3.696 3.696 0 0 1 3.696 3.696v9.24h2.567v-9.24a3.696 3.696 0 0 0-3.696-3.696z" fill="#EA6F00"/>
    <path d="M14.754 31.781h48.052v1.674H14.754V31.78z" fill="#FF983C"/>
    <path d="M52.64 75.122c7.655 0 13.86-6.205 13.86-13.86 0-7.654-6.205-13.86-13.86-13.86-7.655 0-13.86 6.206-13.86 13.86 0 7.655 6.205 13.86 13.86 13.86z" fill="#4FABF7"/>
    <path d="M52.64 71.426c5.614 0 10.164-4.55 10.164-10.164s-4.55-10.164-10.164-10.164c-5.613 0-10.164 4.55-10.164 10.164 0 5.613 4.55 10.164 10.164 10.164z" fill="#fff"/>
    <path d="M52.64 60.25a.836.836 0 0 1-.837-.836v-4.62a.837.837 0 1 1 1.674 0v4.62a.837.837 0 0 1-.837.836zM57.26 62.097h-2.772a.837.837 0 1 1 0-1.673h2.772a.837.837 0 1 1 0 1.673z" fill="#043B73"/>
    <path d="M52.64 47.402c-.433 0-.86.021-1.283.06 7.053.647 12.577 6.578 12.577 13.8s-5.524 13.153-12.577 13.8c.423.04.85.06 1.283.06 7.654 0 13.86-6.205 13.86-13.86 0-7.654-6.205-13.86-13.86-13.86z" fill="#043B73"/>
    <path d="M52.64 51.098c-.434 0-.862.027-1.282.08 5.008.63 8.882 4.905 8.882 10.084 0 5.179-3.874 9.453-8.882 10.084.42.052.848.08 1.282.08 5.613 0 10.164-4.55 10.164-10.164s-4.55-10.164-10.164-10.164z" fill="#D3DCFB"/>
    <path d="M52.64 63.11a1.848 1.848 0 1 0 0-3.696 1.848 1.848 0 0 0 0 3.696z" fill="#FF800D"/>
</svg>
