<svg width="30" height="30" viewBox="0 0 30 30" fill="none" xmlns="http://www.w3.org/2000/svg">
<circle cx="15" cy="15" r="14.75" fill="white" stroke="#F5821F" stroke-width="0.5"/>
<path d="M21.3401 10.2868C20.4941 10.1019 19.3731 10 18.1836 10C16.5432 10 14.6563 10.2128 13.9021 10.6843C13.1086 10.2347 12.212 9.99897 11.3 10C8.37756 10 6 12.3776 6 15.3C6 18.2224 8.37756 20.6 11.3 20.6C12.2119 20.601 13.1085 20.3653 13.902 19.9158C14.6561 20.3873 16.5433 20.6 18.1836 20.6C19.3731 20.6 20.4941 20.4981 21.3401 20.3132C22.3434 20.0938 22.8311 19.7881 22.8311 19.3784V11.2215C22.8311 10.8119 22.3434 10.5062 21.3401 10.2868ZM22.3052 16.6498C22.286 16.6796 22.1102 16.9042 21.0977 17.1076C20.3035 17.2672 19.2686 17.355 18.1836 17.355C17.53 17.3566 16.8769 17.3224 16.2271 17.2527C16.4741 16.6314 16.6006 15.9687 16.6 15.3C16.6 15.2322 16.5983 15.1649 16.5957 15.0978C17.1015 15.1402 17.6339 15.162 18.1835 15.162C19.373 15.162 20.494 15.0601 21.3401 14.8752C21.7453 14.7866 22.0669 14.6836 22.3051 14.566L22.3052 16.6498ZM22.3052 13.9308C22.286 13.9606 22.1102 14.1852 21.0977 14.3886C20.3035 14.5482 19.2686 14.6361 18.1836 14.6361C17.6155 14.6361 17.0668 14.6125 16.5489 14.5661C16.4338 13.7398 16.1242 12.9528 15.6455 12.2695C16.3861 12.3824 17.2613 12.4431 18.1836 12.4431C19.3731 12.4431 20.4941 12.3412 21.3401 12.1563C21.7453 12.0677 22.067 11.9646 22.3052 11.8471V13.9308ZM18.1836 10.526C19.2686 10.526 20.3035 10.6138 21.0977 10.7734C22.0357 10.9618 22.2555 11.1685 22.298 11.2215C22.2555 11.2746 22.0358 11.4812 21.0978 11.6696C20.3036 11.8292 19.2686 11.9171 18.1836 11.9171C17.0381 11.9171 15.9314 11.8165 15.13 11.6403C14.91 11.4102 14.6699 11.2003 14.4125 11.0131C15.0461 10.754 16.4061 10.526 18.1836 10.526ZM6.52597 15.3C6.52597 12.6676 8.66757 10.526 11.3 10.526C13.9324 10.526 16.074 12.6676 16.074 15.3C16.074 17.9324 13.9323 20.074 11.3 20.074C8.66767 20.074 6.52597 17.9324 6.52597 15.3ZM21.0978 19.8267C20.3036 19.9863 19.2686 20.0741 18.1836 20.0741C16.4062 20.0741 15.0461 19.8461 14.4124 19.5871C15.0736 19.1058 15.6153 18.4791 15.9958 17.7552C16.7219 17.8412 17.4525 17.8833 18.1836 17.8811C19.3731 17.8811 20.4941 17.7792 21.3401 17.5943C21.7453 17.5057 22.067 17.4026 22.3052 17.2851V19.3687C22.2859 19.3987 22.1097 19.6233 21.0978 19.8267ZM13.4502 13.5218L11.672 15.3L13.4502 17.0782C13.4995 17.1275 13.5272 17.1944 13.5272 17.2642C13.5272 17.3339 13.4995 17.4008 13.4502 17.4502C13.4008 17.4995 13.3339 17.5272 13.2642 17.5272C13.1944 17.5272 13.1275 17.4995 13.0782 17.4501L11.3 15.6719L9.52178 17.4502C9.47246 17.4995 9.40557 17.5272 9.33581 17.5272C9.26606 17.5272 9.19916 17.4995 9.14984 17.4502C9.10051 17.4009 9.0728 17.334 9.0728 17.2642C9.07279 17.1945 9.1005 17.1276 9.14982 17.0782L10.9281 15.3L9.14982 13.5218C9.1005 13.4724 9.07279 13.4055 9.0728 13.3358C9.0728 13.266 9.10051 13.1991 9.14984 13.1498C9.19916 13.1005 9.26606 13.0728 9.33581 13.0728C9.40557 13.0728 9.47246 13.1005 9.52178 13.1498L11.3 14.9281L13.0782 13.1499C13.1026 13.1254 13.1316 13.1061 13.1635 13.0928C13.1954 13.0796 13.2296 13.0728 13.2642 13.0728C13.2987 13.0728 13.3329 13.0796 13.3648 13.0928C13.3967 13.106 13.4257 13.1254 13.4502 13.1498C13.4746 13.1743 13.494 13.2033 13.5072 13.2352C13.5204 13.2671 13.5272 13.3013 13.5272 13.3358C13.5272 13.3703 13.5204 13.4045 13.5072 13.4365C13.494 13.4684 13.4746 13.4974 13.4502 13.5218Z" fill="#F5821F" stroke="#F5821F" stroke-width="0.5"/>
</svg>
