<svg xmlns="http://www.w3.org/2000/svg" width="51" height="40" fill="none" viewBox="0 0 51 40">
    <ellipse cx="28.164" cy="21.451" fill="#127CDD" opacity=".1" rx="17.68" ry="17.239"/>
    <path fill="#50AAFD" d="M6.164 16.303c.64-7.426 6.4-10.375 9.2-10.92 9.6-1.56 13.92 5.772 14.72 9.828.8 4.056 2.48 5.85 4.16 7.722 1.344 1.498 1.84 4.264 1.92 5.46-14.08 7.426-26.987 6.059-31.68 4.447-1.2-3.199 0-5.46.48-6.475.48-1.014 1.76-3.822 1.52-5.382-.192-1.248-.294-3.64-.32-4.68z"/>
    <ellipse cx="20.164" cy="34.088" fill="#127CDD" rx="6" ry="5.85"/>
    <path fill="#6FB6F8" d="M31.748 19.775c-7.553 4.868-20.28 4.514-25.64 3.708 0 .234-.231.843-.984 2.492-.688 1.506-1.12 2.86-1.12 3.354 14.144 2.122 26.773-2.21 31.28-4.602-.08-.78-1.75-2.704-1.92-2.808-.108-.066-1.11-1.442-1.616-2.144z"/>
    <path fill="#2A94F6" d="M35.284 24.727c-9.664 5.492-24.88 5.357-31.28 4.603-.192 1.56.293 2.99.56 3.51 14.277 3.733 25.414-1.482 31.6-4.446-.128-1.623-.64-3.12-.88-3.666z"/>
    <path fill="#6FB6F8" d="M19.284 20.904c-7.616-.499-10.693-7.072-11.28-10.296 3.008-4.868 8.08-5.668 10.24-5.46 8.192.312 11.36 7.098 11.92 10.452-.453 1.976-3.264 5.804-10.88 5.304z"/>
    <path fill="#127CDD" fill-opacity=".1" d="M6.324 4.134c1.536-.375 1.44.624 1.2 1.17-6.016 4.243-6.054 10.114-5.28 12.558-.88 1.248-1.627.416-1.76.078-2.24-7.098 3.92-13.338 5.84-13.806zM41.892 38.705c-1.581.072-1.286-.889-.94-1.378 6.756-3.004 7.979-8.753 7.714-11.298 1.115-1.054 1.679-.095 1.741.262.762 7.39-6.538 12.324-8.515 12.414z"/>
    <ellipse cx="16.244" cy="2.652" fill="#6EB9FE" rx="2.72" ry="2.652"/>
    <ellipse cx="22.084" cy="10.529" fill="#A7D4FF" rx="2" ry="1.95"/>
    <path fill="#F97866" fill-rule="evenodd" d="M42.244 20.28c4.551 0 8.24-3.597 8.24-8.034 0-4.437-3.689-8.034-8.24-8.034-4.55 0-8.24 3.597-8.24 8.034 0 1.314.324 2.554.897 3.65-.013 1.152-.09 2.56-.257 3.527-.248 1.437.08 1.716 1.04 1.56.428-.07 1.223-.387 2.05-.718.494-.198 1-.4 1.447-.558.947.37 1.98.574 3.063.574z" clip-rule="evenodd"/>
    <path fill="#fff" d="M40.884 8.19v6.007c.768.874 1.6.468 1.92.156.454-1.664 1.408-5.148 1.6-5.772.192-.624-.08-.78-.24-.78-.64-.078-2.064-.25-2.64-.312-.576-.063-.666.442-.64.702z"/>
    <ellipse cx="41.684" cy="16.38" fill="#fff" rx=".96" ry=".936"/>
</svg>
