<svg width="288" height="188" viewBox="0 0 288 188" fill="none" xmlns="http://www.w3.org/2000/svg">
    <path opacity=".1" d="M.873 93.37C-5.39 40.16 23.386 27.276 44.115 23.535 115.06 3.918 168.683-14.3 221.14 16.476c39.206 23.003 105.318 73.22 37.837 134.173-66.891 60.42-245.265 51.79-258.103-57.28z" fill="#F58220"/>
    <path d="M103.205 128.474c-.401 3.726 4.228 1.656 4.414 5.411-1.05-1.685-2.562.976-2.408-.798.093-.917-.71-.444-1.018-1.331-.896-2.573-3.396-4.11-4.661-6.417-3.642-4.198-5.71-9.196-6.636-14.607-.988-5.796-.247-11.384 1.759-16.855.525-1.419 1.358-2.72 2.068-4.08.185-.355.432-.71.926-.621 0 .443-.154.828-.401 1.183-.525.414-.68.946-.525 1.567.062.089.03.148-.062.207-.03.03-.123.03-.123.059 0 .06.03.148.062.207-.031.207-.062.444-.124.65-.37 2.011-.926 4.022-1.05 6.033-.184 3.223-.215 6.505.031 9.728.124 1.774-.03 3.489-.092 5.234-.03 1.183.617 1.922 1.45 2.632.278.236.803.443.896.029.185-.857.432-1.537.987-2.277.402-.562.34-1.774-.277-2.513-.741-.887-.71-1.863-.494-2.809.463-2.188.617-4.347.555-6.565-.03-1.715-.061-3.43 0-5.174.062-1.006.587-2.04 1.667-2.218 1.327-.207.401 1.183.957 1.597.031.03.093.059.123.088.402 1.568.371 3.164.062 4.761-.586.325-.463.71-.154 1.153-.247 1.213-.463 2.425-.741 3.608-.123.562-.247 1.123-.093 1.715-.34.916-.864 1.774-.956 2.779-.649 5.648.74 10.971 2.747 16.204h-.031c-.031.267-.031.503.247.651l-.031.059c.123.207.864.444.926.71z" fill="#FCE3CE"/>
    <path d="M109.501 121.405c1.05 2.454 2.13 4.909 3.18 7.363-.031 2.868 1.296 4.997 1.296 7.865-1.636-.621-1.728-1.035-3.611-1.685-1.266-.414-2.068-1.804-2.284-.739-.371 1.951-2.593.739-2.902 2.691-.586 3.932-.031-8.783-.339-4.82-.031.443.061.916-.556 1.094-.031-.03-.092-.059-.154-.089.617-6.387 2.16-.473 3.426.089.062-.592.988.029.988-.562.031-.296.031-.562.061-.858.371-1.064.247-2.158.093-3.252.031-1.981.062-3.963.123-5.973v-.858c.031-.177.031-.355.062-.562l.617.296z" fill="#E4EDFE"/>
    <path d="M200.617 112.801c0 2.011-.031 3.992-.031 6.003-1.111.118-1.42.858-1.358 1.774.062 1.035.185 2.129.741 2.987 1.049 1.626.123 2.809-.679 4.347-.216-1.242-.309-2.248-.556-3.224-.185-.739-.494-1.537-1.482-1.33-1.08.236-.987 1.094-.771 1.922.401 1.39 1.358 2.513 2.068 3.755-.957.503-.525 1.094-.093 1.686-.586.059-1.142-.326-1.728-.119-.093-.325-.155-.65-.247-1.005 1.018-.148 1.296-.532.401-1.242-.71-.562-1.451-1.094-2.099-1.685-1.358-1.242-2.839-2.307-3.272-4.258-.308-1.449-.648-2.987-1.913-4.111-1.327-1.182-2.253-1.064-2.871.562-.895 2.336-1.265 4.791-1.234 7.274-.432-.621-1.112-.591-1.791-.591-10.525 0-21.019 0-31.544.03-7.809 0-15.618-.119-23.427.059-2.439.059-4.784-2.218-4.692-4.436.062-1.685 0-3.341 0-5.027 0-9.403 0-18.806-.031-28.209 0-.532.402-1.39-.74-1.42-.093-1.3-.494-2.513-.834-3.755.587-.236 1.482.178 1.76-.561.308-.799-.402-1.331-.926-1.863-.834-.858-1.852-1.597-2.531-2.543-1.42-2.04-3.272-3.46-5.68-4.288.124-.562-1.049-1.242-.37-1.42 1.574-.413.278-.827.093-1.064-.494-.591-.957-1.123-.433-1.892 1.328.266 2.717.65 3.457 1.715 1.359 1.892 3.18 3.312 5.001 4.701.277.207.463.651.864.503.494-.177.278-.68.278-1.064V64.81c0-3.4 1.821-5.145 5.401-5.145h20.526c-.155 4.495 1.389 8.25 5.309 10.852 4.136 2.72 8.58 2.987 12.963.65 4.599-2.454 6.667-6.386 6.328-11.443 7.222 0 14.445-.059 21.667-.03 2.47 0 4.291 2.011 4.352 4.584.031 3.105.031 6.18.031 9.285.093 13.01.093 26.14.093 39.238zm-38.274-5.618c-8.117 0-16.235.03-24.352-.029-1.204 0-1.667.266-1.575 1.478.093 1.213.031 2.454.031 3.696 0 1.952 0 1.952 1.976 1.952h26.667c7.254 0 14.507-.03 21.73.03 1.142 0 1.574-.267 1.512-1.42-.092-1.212-.031-2.454-.031-3.696 0-2.011 0-2.011-2.037-2.011h-23.921zm-.03-14.193c-8.18 0-16.359.03-24.508-.03-1.265 0-1.79.326-1.697 1.597a31.08 31.08 0 0 1 0 4.14c-.093 1.3.401 1.715 1.759 1.685 16.297-.029 32.594-.029 48.891 0 1.451 0 1.79-.62 1.821-1.744.031-1.272-.062-2.573.031-3.844.124-1.42-.401-1.893-1.914-1.863-8.117.088-16.235.059-24.383.059zm-.124-5.323c8.18 0 16.359-.03 24.507.03 1.204 0 1.729-.385 1.791-1.42.061-1.27.092-2.542.061-3.843-.031-1.272-.494-1.922-2.129-1.893-14.692.089-29.415.03-44.107.03-1.605 0-3.179.03-4.784 0-1.081-.03-1.482.414-1.42 1.419.061 1.33.092 2.661 0 3.992-.124 1.42.494 1.745 1.883 1.745 8.055-.09 16.111-.06 24.198-.06z" fill="#fff"/>
    <path d="M76.568 50.618c-.37.06-.71.06-1.05-.148-.154-.03-.277-.059-.432-.089-9.012-1.449-13.21-12.39-7.438-19.486 3.179-3.903 7.47-5.53 12.531-4.672 5 .858 8.334 3.815 10.032 8.398.154.414.154.857.216 1.3-.062.297-.093.888-.155.8-1.11-1.095-1.42.295-2.006.59-.401.208-.648.77-1.173.888-.772.177-.71.739-.648 1.271.093.74.74.621 1.204.532 1.605-.266 2.037.562 2.068 1.834-1.266-1.153-2.778-1.745-4.445-1.183-1.05.355-1.667.148-2.47-.473-3.24-2.514-6.543-4.909-9.784-7.422-1.08-.828-1.759-.769-2.469.325-.247.385-.555.71-.833 1.065-.309.414-.401.798.062 1.153.4.325.74.118 1.08-.178.278-.206.401-.857.926-.443.37.296-.031.621-.216.887-.309.414-.37.828.092 1.153.494.355.834.089 1.173-.266.216-.236.401-.71.834-.355.4.326 0 .621-.186.887-.246.355-.4.71 0 1.035.402.326.803.148 1.08-.207.402-.502.772-.65 1.39-.177a471.817 471.817 0 0 0 6.173 4.642c.34.237.617.503.494.976-.463 1.538.216 2.78 1.172 3.933-1.018-.118-2.16.148-2.808-1.035-.185-.355-.37-.917-.957-.828-.648.089-.772.65-1.08 1.124-.834 1.449-1.358 2.957-2.377 4.169z" fill="#F58220"/>
    <path d="M149.997 59.579h-20.526c-3.58 0-5.401 1.744-5.401 5.145v10.201c0 .355.216.858-.278 1.065-.401.148-.586-.296-.864-.503-1.852-1.39-3.642-2.81-5-4.701-.772-1.065-2.161-1.45-3.457-1.716-.679-.354-1.328-.739-2.007-1.094.803-.059 1.235-.473 1.482-1.242 2.191-6.741 6.821-11.472 13.334-14.548 2.685-1.271 5.648-1.863 8.704-2.129 2.531-.236 5-.207 7.408.385 2.623.68 5.463 1.035 7.623 2.838.587.473 1.081 0 1.575.178-.587 1.035-1.328 1.98-1.636 3.134-.71.917-.556 2.04-.957 2.987zM200.617 112.806V73.479c1.203-.119 1.697.857 2.345 1.478 3.488 3.223 6.174 6.89 7.624 11.444.772 2.424.865 4.849.957 7.244.124 2.868-.555 5.737-1.667 8.457-1.605 3.962-4.29 7.185-7.5 10.054-.494.473-1.049.739-1.759.65z" fill="#FCE3CE"/>
    <path d="M122.465 82.728c.339 1.242.741 2.454.833 3.755-1.728 1.005-3.704 1.39-5.586 2.01-.865.267-1.266.71-1.605 1.538-1.976 4.76-1.852 9.699-1.482 14.667.093 1.123.463 2.217.154 3.341-4.815 0-9.63.03-14.445.03-.154-.592-.031-1.154.093-1.715.247-1.213.494-2.396.741-3.608.123-.384.37-.739.154-1.153.278-1.597.339-3.164-.062-4.76.155-.977-.061-1.923-.432-2.84-1.204.77-2.84.385-4.352-.946.03-.207.062-.443.124-.65.092-.06.123-.148.061-.266.093-.06.093-.119.062-.207.432-.444.556-1.006.525-1.568.247-.354.401-.739.401-1.182.34-.266.185-.828.679-1.006.123.089.278.178.34.296 2.068 3.844 7.099 4.702 10.679 3.637 2.13-.62 3.611-1.951 4.29-4.05.525-1.657-.061-3.195-.185-4.791.587-.089 1.142-.148 1.729-.237 2.407.118 4.846-.177 7.284-.295z" fill="#FFD2AC"/>
    <path d="M113.391 83.258c.123 1.597.741 3.164.185 4.79-.679 2.1-2.161 3.43-4.29 4.051-3.612 1.065-8.612.207-10.68-3.637-.061-.118-.216-.207-.34-.296-.894-2.897-.215-5.293 2.316-7.244 1.358-1.035 1.944-2.632 2.407-4.2.432-1.448.864-2.926 1.327-4.375.741-2.248 2.223-3.844 4.599-4.613.247.059.463.059.648-.148l2.871.355c.679.355 1.327.739 2.006 1.094-.524.769-.061 1.3.432 1.892.186.237 1.482.68-.092 1.065-.71.177.494.857.37 1.42-.308.354-.525.738-.617 1.212-1.142 1.803-1.729 3.755-1.513 5.884-.154.976.155 1.863.371 2.75z" fill="#1F292D"/>
    <path d="M206.265 157.424c-.062.295-.093.591-.154.916-.679.68-1.513.917-2.531.887-2.408-.088-4.815 0-7.223-.059-3.457-.089-3.271.562-3.951-2.927-.246-2.721-.493-5.471-.771-8.191-.031-.325 0-.769-.401-.887-1.328-.296-.896-1.272-.834-2.04.093-.976 1.05-.503 1.605-.71.432-.059.864-.384 1.327-.118.618.414 1.358.355 2.068.355 2.099.029 4.167-.089 6.266-.03 1.698.059 3.457.473 5.093-.384.556.354 1.605-.089 1.728.916.093.828.124 1.508-.956 2.159-.834.502-.433 1.981-.494 3.045-.247.355-.216.74-.124 1.154l-.185 2.217-.093.444c-.061.68-.123 1.36-.154 2.07-.339.355-.309.769-.216 1.183z" fill="#ECCAAD"/>
    <path d="M207.16 123.03c.864-1.065.803-2.395 1.235-3.578.679-1.833 1.42-3.607 3.364-4.554 1.111-.532 2.377-.946 3.488-.118.988.739.833 1.893.494 2.868-1.451 4.436-2.099 8.989-1.976 13.661 0 .296.031.592-.247.799-.03-.03-.061-.089-.092-.089a.32.32 0 0 0-.093.03c-.062.443-.185.946-.648 1.094-2.253.65-3.827 2.336-5.834 3.341-.648.325-1.358.68-1.574 1.449-.617.739-1.111 1.567-1.234 2.513-.309.03-.587.03-.895.06.123-.592.463-1.154.154-1.775l.062.03c.216 0 .308-.118.339-.296.617-.355.988-.828.926-1.537 0-.207-.092-.355-.309-.414l.031.029c0-.207-.061-.295-.277-.118-.494 0-1.019 0-1.513-.03-.154-.532-.432-1.035-.309-1.626.463-.207.957-.414 1.482-.355.278.355.586.355.926.119.278-.207.37-.474.031-.71.031-.385.062-.769.092-1.183.031-.03.062-.118.062-.118-.062-.059-.123-.118-.216-.148-1.296-.769-2.438.177-3.642.355-.216-1.272.926-2.041 1.235-3.135.679-.118 1.389-.207 2.068-.384 1.296-.325 1.821-1.035.987-2.247.402-.651 1.142-1.153 1.235-1.981.71-.503 1.235-1.035.648-1.952z" fill="#FAA55D"/>
    <path d="M102.032 141.807c-.031-.207-.031-.414-.061-.621.123-.325.154-.621-.062-.917 0-.207-.031-.384-.031-.591-.185-3.756.278-7.511.679-11.237.309-.059.586-.177.494-.532-.093-.355-.401-.325-.71-.236l.031-.06c.092-.266.092-.502-.247-.65h.031c0-1.124.339-2.04 1.605-2.336 2.778-.651 4.475.591 4.599 3.312.031.828-.031 1.656.031 2.484.061.709-.278 1.478.247 2.129 0 .591 0 1.182-.031 1.744-.618 6.387-1.235 12.804-1.852 19.191-1.204.029-2.439.059-3.642.059h-.031c-.093-.296-.155-.591-.247-.917 0-.295-.031-.591-.031-.887-.124-3.282-.463-6.594-.772-9.935zM76.568 50.611c1.05-1.212 1.574-2.72 2.377-4.05.277-.474.432-1.035 1.08-1.124.586-.089.771.503.957.828.648 1.153 1.759.916 2.808 1.035v.03c.71 1.419 3.303 1.773 4.507.62l-.031.03c.494.059.957.089.957-.591v.029c.864.03.987-.503.957-1.153.987-.237.648-.858.432-1.45 0-.206 0-.413.03-.62.618-.769.371-1.33-.462-1.774 0-.266-.062-.503-.37-.562l-.032.03c-.061-1.272-.494-2.13-2.068-1.834-.463.089-1.11.207-1.203-.532-.062-.532-.155-1.094.648-1.272.525-.118.771-.68 1.173-.887.586-.295.895-1.685 2.006-.591.093.089.093-.532.154-.798.309.561.34 1.153.247 1.744-.987.503-.586.976 0 1.479.247.502.803.562 1.266.739 3.117 1.271 4.938 4.021 4.784 7.215-.154 3.016-2.284 5.648-5.31 6.564-3.086.917-6.357-.059-8.394-2.543-.402-.473-.649-1.182-1.513-1.005-.062-.03-.093-.089-.154-.118.03.059.092.088.123.148-.555.354-1.142.561-1.82.384.246-.118.647-.06.678-.444 0-.059-.216-.207-.34-.207-.4.06-.4.385-.4.68a6.064 6.064 0 0 1-3.087 0zm12.87-12.034c-.154-.118-.277-.237-.37-.237-.123 0-.308.089-.34.148-.06.237.124.325.34.296.124.03.216-.089.37-.207z" fill="#F58220"/>
    <path d="M152.157 38.613c-.031 3.017-3.734 5.175-6.42 3.608-1.265-.74-2.345-.68-3.457-.177-2.315 1.005-4.599 2.158-6.883 3.223-.617.266-.956.473-.617 1.182.185.385.309.947-.154 1.213-.525.295-.834-.207-1.111-.533-.217-.266-.402-.65-.834-.384-.308.177-.154.532-.062.798.217.562.278 1.124-.432 1.36-.617.178-.926-.295-1.203-.71-.155-.236-.093-.68-.556-.531-.432.148-.34.502-.247.857.124.503.401 1.124-.432 1.301-.803.178-1.08-.355-1.296-.946-.124-.355-.402-.68-.587-1.035-.525-.976-.555-1.626.741-2.188 4.568-1.981 9.044-4.11 13.581-6.15.679-.296.987-.71 1.08-1.42.34-2.661 2.346-4.14 5.278-3.903 1.883.118 3.611 2.247 3.611 4.435zm-1.543-1.242c-.093-.561-.37-1.094-1.049-1.035-.525.06-1.112.355-1.081 1.035.031.68.402 1.183 1.112 1.124.617-.03.956-.503 1.018-1.123z" fill="#F9A660"/>
    <path d="M195.462 52.541c-.772.74-2.253.385-2.531-.62-.124-.474-.401-.71-.803-.858-.833-.296-1.697-.562-2.531-.828-.216-.089-.37-.089-.463.148-.061.148-.154.295-.339.266-.216-.06-.154-.237-.154-.385 0-.118.061-.266-.093-.295-.123-.03-.185.088-.216.177-.093.178-.216.355-.463.237-.185-.089-.154-.296-.124-.473.031-.09.155-.178 0-.266-.154-.06-.216.03-.277.147-.093.148-.185.385-.463.207-.247-.148-.185-.325-.062-.532.062-.118.093-.266.123-.384.124-.355.278-.533.741-.355 1.636.591 3.303 1.123 4.939 1.685.247.089.432.06.648-.088.772-.592 1.636-.474 2.315.295.432.444.308 1.36-.247 1.922zm-.062-.68c.124-.177.185-.355 0-.502-.154-.119-.37-.178-.525 0-.154.177-.216.384 0 .561.155.119.34.089.525-.059z" fill="#E4EDFE"/>
    <path d="M207.16 123.033c.587.887.093 1.449-.679 1.893-1.605.266-3.148.769-4.815.591-.401-.029-.679.089-.864.473-.371.887-.772 1.745-1.266 2.928 2.068-.947 3.581-2.307 5.71-2.011.834 1.212.278 1.892-.987 2.247-.679.178-1.389.266-2.068.385-.895 0-1.79-.059-2.655.059-.648.118-.71-.296-.957-.621-.709-1.242-1.666-2.366-2.068-3.755-.216-.828-.308-1.656.772-1.923.988-.207 1.327.592 1.482 1.331.216.976.339 1.981.555 3.223.803-1.537 1.729-2.72.679-4.347-.555-.857-.71-1.951-.74-2.986-.031-.917.246-1.656 1.358-1.774 1.173.621 1.049 1.715 1.018 2.72-.031.621-.123 1.272-.216 2.247 1.08-1.034 2.13-1.626 2.439-2.927.246-1.035.648-2.07 1.296-2.957.463-.621.988-1.449 1.975-.828.957.592.463 1.36.031 2.04-.772 1.183-1.914 2.041-2.963 2.957-.309.267-.926.503-.648 1.035.339.592.802.059 1.204-.059.771-.177 1.574-.621 2.407.059zm-3.704.266c-.061-.147-.031-.325-.247-.295a.631.631 0 0 0-.247.118c-.185.177.031.266.124.266.092.059.216-.029.37-.089z" fill="#2F373C"/>
    <path d="M99.748 53.751c1.482 0 2.655 1.065 2.685 2.484.031 1.39-1.111 2.572-2.53 2.632-1.544.059-2.748-1.065-2.748-2.543-.03-1.45 1.142-2.573 2.593-2.573zM203.981 140.446c.154-.946.648-1.774 1.235-2.513.463 0 .926 0 1.142.502.493 1.065 1.111.887 1.79.148.216-.236.494-.325.802-.325-1.049 1.892-2.16 3.785-2.716 5.884-1.852 0-3.735.03-5.587.03-.37 0-1.049.177-.709-.621.586.059 1.142.089 1.666-.237l.124.059.061-.118c.68.059 1.297-.207 1.852-.473 1.266-.591 1.328-1.271.34-2.336z" fill="#F58220"/>
    <path d="M208.981 138.266a.938.938 0 0 0-.802.325c-.679.739-1.266.916-1.79-.148-.216-.473-.679-.503-1.142-.503.247-.769.956-1.123 1.574-1.449 2.006-1.035 3.58-2.69 5.833-3.341.432-.118.587-.651.648-1.094 0-.03.093-.03.093-.03l.093.089c.031.503-.062 1.005-.371 1.449-.339.207-.524.503-.432.887l.031-.029c-.494.236-.586.68-.679 1.123l-.031.03c-.401.029-.586.236-.555.621v-.03l-.34.325h.031c-.833.03-1.204.592-1.574 1.183l.031-.029-.34.325.031-.03a3.258 3.258 0 0 1-.309.326zM110.366 158.396c.031.503-.34.532-.71.532-1.821 0-3.673-.029-5.494 0-.71 0-.833-.384-.957-.887.031-.887.062-1.774.124-2.661 1.142.029 2.284.029 3.426.059.895 1.331 1.882 2.573 3.611 2.957z" fill="#F58220"/>
    <path d="M199.968 143.551c-.339.798.34.621.71.621 1.852 0 3.735-.03 5.587-.03.185.118.401.237.617.325.185.06.371 0 .432-.236h-.586c-1.636.857-3.426.414-5.124.384-2.099-.059-4.167.059-6.265.03-.71 0-1.42.059-2.068-.355l3.179-.089c.494-.029 1.08.089 1.111-.65.278-.059.679.088.741-.266.061-.296-.433-.06-.556-.296-.093-.148-.154-.325-.247-.503.803-.976.185-2.07.309-3.105.185-.029.401-.029.586-.059l.062.059c.031.976.031 1.922.062 2.898.031.769.463.858 1.111.592.123.266.216.473.339.68z" fill="#2F373C"/>
    <path d="M105.242 63.778c-.062.739-.463 1.212-1.235 1.241-.833.03-1.389-.443-1.389-1.241 0-.799.525-1.301 1.389-1.272.772.06 1.173.503 1.235 1.272z" fill="#F58220"/>
    <path d="M106.755 155.441c-1.142-.03-2.284-.03-3.426-.059-.463-.532-.155-1.183-.278-1.745 1.204-.029 2.438-.059 3.642-.059.062.03.093.059.154.089-.031.562-.061 1.183-.092 1.774z" fill="#fff"/>
    <path d="M209.599 137.674c.339-.591.74-1.183 1.574-1.183-.371.621-.834 1.094-1.574 1.183zM90.704 39.18c-.586-.474-.988-.976 0-1.479.124.473.093.976 0 1.479zM79.624 50.555c0-.296 0-.62.4-.68.093 0 .34.148.34.207-.03.384-.432.325-.679.444l-.061.03zM212.037 135.541c.093-.444.216-.887.679-1.124-.031.473-.216.858-.679 1.124z" fill="#F58220"/>
    <path d="M206.265 157.425c-.093-.414-.093-.828.154-1.212.062.414.186.857-.154 1.212z" fill="#fff"/>
    <path d="M212.685 134.447c-.062-.414.124-.68.432-.887.062.354-.031.68-.432.887zM211.451 136.191c-.031-.384.154-.591.555-.621-.031.355-.216.562-.555.621zM75.086 50.383c.155.03.278.059.433.088-.186.148-.31.09-.433-.088z" fill="#F58220"/>
    <path d="M153.392 52.474a88.19 88.19 0 0 1-.309.295 1.41 1.41 0 0 0 .309-.295zM153.701 52.19l-.308.295c.123-.089.216-.177.308-.295z" fill="#FCE3CE"/>
    <path d="m206.574 154.169.092-.443-.092.443z" fill="#fff"/>
    <path d="M154.04 51.889c-.123.088-.216.207-.339.295.123-.088.216-.177.339-.295z" fill="#FCE3CE"/>
    <path d="m209.29 137.966.34-.325-.34.325z" fill="#F58220"/>
    <path d="M156.201 50.443c-.124.09-.216.148-.34.237.124-.089.247-.178.34-.237z" fill="#FCE3CE"/>
    <path d="m211.142 136.483.339-.325c-.031.207-.154.325-.339.325z" fill="#F58220"/>
    <path d="M154.689 51.36c-.124.09-.247.207-.34.296.124-.118.216-.207.34-.296zM158.856 49.318c-.155.06-.34.148-.494.207.154-.088.308-.148.494-.207z" fill="#FCE3CE"/>
    <path d="m208.981 138.258.339-.325-.339.325z" fill="#F58220"/>
    <path d="M152.837 53.098c-.093.118-.185.236-.309.355.093-.119.186-.237.309-.355zM152.157 125.52c-1.419 2.248-3.457 3.933-5.555 5.589-2.655 2.099-5.741 3.548-8.951 4.731-2.902 1.065-5.927 1.774-9.106 1.804a95.644 95.644 0 0 1-9.661-.296c0-.621-.031-1.271-.031-1.892.093-3.016.525-6.032-.185-9.019-.062-.237-.092-.503-.154-.739l.062-.03h-.062c-.525-1.478-.463-3.016-.772-4.524l-2.963-13.129c.309-1.123-.062-2.247-.154-3.341-.401-4.968-.494-9.906 1.481-14.667.34-.828.772-1.242 1.605-1.537 1.883-.592 3.859-1.006 5.587-2.011 1.142.03.741.887.741 1.42.031 9.402.031 18.806.031 28.209 0 1.685.061 3.341 0 5.026-.093 2.218 2.253 4.495 4.691 4.436 7.778-.148 15.587-.03 23.396-.03z" fill="#FCE3CE"/>
    <path d="M162.343 107.184h23.89c2.037 0 2.037 0 2.037 2.011 0 1.242-.061 2.454.031 3.696.093 1.123-.37 1.419-1.512 1.419-7.253-.029-14.507-.029-21.729-.029h-26.668c-1.976 0-1.976 0-1.976-1.952 0-1.242.093-2.454-.031-3.696-.092-1.213.402-1.479 1.575-1.479 8.117.03 16.235.03 24.383.03z" fill="#F7D1B2"/>
    <path d="M162.313 92.993c8.117 0 16.235.029 24.352-.03 1.513 0 2.007.473 1.914 1.863-.092 1.271 0 2.572-.031 3.844-.031 1.123-.37 1.744-1.821 1.744a6752.366 6752.366 0 0 0-48.891 0c-1.358 0-1.852-.414-1.759-1.685a31.08 31.08 0 0 0 0-4.14c-.093-1.242.463-1.596 1.697-1.596 8.211.029 16.39 0 24.539 0zm19.599 4.642c.401-.089.803-.296.803-.828 0-.503-.309-.858-.865-.828-.463 0-.771.296-.802.74-.031.502.216.827.864.916zm-4.352-1.686c-.555.03-.864.326-.864.828-.031.444.247.77.71.828.524.06.895-.236.926-.739.061-.532-.247-.798-.772-.917zm-5.247.799c.062.473.278.857.802.887.525.03.865-.266.896-.769.03-.503-.278-.828-.803-.857-.494-.06-.802.236-.895.739zm-19.97.088c-.031-.502-.278-.857-.833-.857-.463 0-.772.237-.834.71-.062.532.216.887.741.946.525.059.833-.296.926-.799zm-4.352-.147c-.124-.414-.371-.77-.926-.71-.463.06-.741.355-.741.798 0 .503.309.858.833.858.556-.03.803-.385.834-.946zm7.871.946c.524-.118.864-.414.802-.917-.031-.502-.401-.798-.926-.739-.525.06-.833.384-.772.887.062.503.402.74.896.769zm13.827-.887c-.092-.473-.401-.828-.926-.769-.493.06-.833.355-.802.858.031.502.401.798.895.768.556-.03.833-.355.833-.857zm-5.154.887c.463-.089.802-.355.802-.858-.031-.502-.37-.828-.895-.798-.463.03-.741.325-.771.769-.031.502.277.798.864.887zm-4.445-1.686c-.463.119-.833.355-.771.888.03.502.401.798.926.768.462-.03.74-.355.74-.798 0-.503-.308-.798-.895-.858zm-17.254.03c-.524.03-.864.266-.864.798 0 .503.309.858.833.858.463.03.772-.266.803-.71.062-.532-.185-.857-.772-.946zM162.189 87.668c-8.056 0-16.143-.029-24.198.03-1.389 0-2.007-.325-1.883-1.744.123-1.331.061-2.662 0-3.992-.031-1.006.339-1.45 1.42-1.42 1.605.06 3.179 0 4.784 0 14.692 0 29.415.03 44.107-.03 1.605 0 2.098.622 2.129 1.893.031 1.272 0 2.573-.061 3.844-.062 1.035-.587 1.45-1.791 1.42-8.179-.03-16.328 0-24.507 0zm11.853-3.223c-.062-.473-.34-.827-.865-.827-.524 0-.833.354-.833.857s.309.828.864.828c.525-.03.803-.355.834-.858zm-4.322-.059c-.092-.384-.339-.768-.895-.739-.525 0-.864.325-.833.828 0 .503.308.828.864.798.525 0 .803-.325.864-.887zm-17.377.06c-.062-.444-.309-.828-.864-.828-.556 0-.834.354-.834.857 0 .473.309.74.772.769.556.088.833-.266.926-.799zm4.352.029c-.062-.473-.339-.828-.864-.828-.525 0-.834.325-.864.798-.031.503.308.828.833.828.525 0 .833-.325.895-.798zm4.29 0c-.061-.444-.247-.828-.833-.828-.525 0-.864.325-.864.828 0 .444.308.74.741.798.586.06.864-.266.956-.798zm4.383.06c-.031-.504-.278-.858-.833-.888-.556-.03-.864.355-.864.828 0 .414.247.769.74.798.525.03.834-.236.957-.739z" fill="#FDFEFE"/>
    <path d="M187.345 129.982c-.34 0-.679-.089-.926-.325-.309-.887-.587-1.774-.895-2.661-.031-.296-.031-.592-.062-.887 0-2.484.339-4.939 1.235-7.275.617-1.596 1.543-1.744 2.87-.561 1.266 1.123 1.574 2.661 1.914 4.11.432 1.981 1.913 3.045 3.271 4.258.649.591 1.42 1.123 2.099 1.685.895.71.618 1.094-.401 1.242-.185-.059-.339-.118-.525-.177v-.266c0-.178-.031-.326-.247-.119-.216-.029-.432-.029-.648-.059-.278-.207-.463-.177-.524.178v.029c-.494.118-.494.562-.68.887-.74 1.479-.37 2.987-.216 4.495-.061.325-.154.68-.216 1.005-.802-.236-.401-.887-.524-1.36-.402-1.478-1.636-2.159-2.223-1.183-.524.858-.895.03-1.265.148-.587-.946-1.945-1.567-1.204-3.105.185-.384-.494-.266-.833-.059z" fill="#FAA55D"/>
    <path d="M113.39 83.264c-.247-.887-.524-1.774-.37-2.69 1.852-1.095 2.408-3.313 1.512-5.885.093-.473.309-.858.618-1.212 2.376.828 4.259 2.247 5.679 4.287.679.946 1.667 1.686 2.531 2.543.525.532 1.235 1.065.926 1.863-.278.769-1.173.355-1.759.562-.247-.532-.803-.444-1.204-.355-1.79.384-3.611.266-5.432.266-.309 0-.618.06-.741.385-.587.088-1.173.147-1.76.236z" fill="#FCE3CE"/>
    <path d="M195.956 129.423c.185.059.339.118.524.177.093.326.155.68.247 1.006a81.8 81.8 0 0 1 .895 2.572c-.246.118-.493.237-.771.385-1.173-1.065-2.716-1.952-2.408-3.874.525-.089 1.081.148 1.513-.266z" fill="#1F292D"/>
    <path d="M197.623 133.142a81.8 81.8 0 0 1-.895-2.572c.586-.207 1.142.177 1.728.118a.18.18 0 0 1 0 .177c-.154.799.278 1.804-.833 2.277z" fill="#F58220"/>
    <path d="M90.55 44.199c0 .207 0 .414-.03.62-.155.474-.278.947-.433 1.45-.308.384-.648.768-.957 1.153v-.03c-.4.089-.71.296-.956.592l.03-.03c-1.605.414-3.117.266-4.506-.65v-.03c-.957-1.153-1.636-2.395-1.173-3.933.154-.473-.154-.739-.494-.976a470.924 470.924 0 0 1-6.173-4.642c-.617-.473-.957-.325-1.389.177-.277.326-.648.503-1.08.207-.401-.325-.247-.68 0-1.035.185-.266.586-.561.185-.887-.432-.354-.617.119-.833.355-.34.355-.68.65-1.173.266-.463-.325-.401-.739-.093-1.153.186-.266.587-.591.216-.887-.524-.414-.648.237-.926.444-.34.295-.679.473-1.08.177-.463-.355-.37-.769-.062-1.153.278-.355.618-.68.834-1.065.679-1.094 1.389-1.182 2.469-.325 3.21 2.514 6.543 4.909 9.784 7.422.803.621 1.451.828 2.47.473 1.666-.562 3.179 0 4.444 1.183l.031-.03c.031.266.124.444.37.562.247.562.37 1.153.525 1.745zm-2.593 2.306c.618-.03.988-.355 1.05-.887.062-.65-.34-1.035-1.019-1.035-.617 0-.957.385-.957.946 0 .503.37.858.926.976z" fill="#fff"/>
    <path d="m114.78 108.011 2.963 13.129c.339 1.508.277 3.045.771 4.524v.029c.062.237.093.503.155.74-1.42.295-1.451-.858-1.667-1.627-.185-.709-.648-1.094-1.08-.562-.618.769-1.235.414-1.883.385-1.42-.059-1.976.709-1.358 1.922.37.739.463 1.449.031 2.218-1.05-2.455-2.13-4.909-3.18-7.363-.061-.178-.061-.385-.154-.473-.185-.148-.339 0-.401.207-.031.177-.031.354-.062.561-.339.296-.339.562 0 .858a405 405 0 0 1-.123 5.973c-.309 1.065-.124 2.159-.093 3.253-.031.295-.031.561-.062.857-.524-.65-.216-1.419-.247-2.129-.061-.828 0-1.656-.03-2.484-.093-2.72-1.822-3.962-4.599-3.311-1.266.295-1.605 1.212-1.605 2.336-2.007-5.234-3.396-10.557-2.748-16.205.124-1.005.649-1.862.957-2.779 4.784-.03 9.6-.03 14.415-.059z" fill="#F58220"/>
    <path d="M101.229 96.836c-.03-.03-.092-.06-.123-.089-.556-.414.339-1.804-.957-1.597-1.08.178-1.636 1.183-1.667 2.218-.092 1.715-.061 3.43 0 5.175.031 2.217-.123 4.405-.555 6.564-.185.946-.216 1.922.494 2.809.617.739.679 1.952.277 2.514-.555.739-.833 1.448-.987 2.276-.093.414-.618.207-.895-.029-.834-.68-1.482-1.449-1.451-2.632.03-1.744.216-3.459.093-5.234-.216-3.223-.186-6.505-.031-9.728.123-2.01.679-4.022 1.05-6.032 1.511 1.36 3.147 1.715 4.351.946.34.917.556 1.833.401 2.839z" fill="#EFD8B6"/>
    <path d="M115.119 83.028c.124-.325.432-.384.741-.384 1.821-.03 3.642.088 5.432-.266.402-.09.926-.178 1.204.354-2.469.119-4.908.414-7.377.296zM101.168 102.718c-.34-.414-.432-.828.154-1.154.216.414-.031.799-.154 1.154zM96.662 91.927c-.124-.621.03-1.154.524-1.568.031.592-.092 1.124-.524 1.568zM96.569 92.372a.53.53 0 0 1-.062-.207s.092-.03.123-.06c.031.119.031.207-.061.267z" fill="#fff"/>
    <path d="M114.532 74.69c.926 2.603.34 4.82-1.512 5.885-.216-2.13.37-4.08 1.512-5.885z" fill="#EFD8B6"/>
    <path d="M191.943 144.381c-.401-.739-.771-1.478-1.172-2.217-.062-.119-.155-.267-.216-.385-.062-.029-.093-.089-.093-.177.062-.976-1.296-2.277.772-2.721-.34-.561-.803-.68-1.328-.65-.185-.296-.154-.592-.061-.887.617.118 1.234.502 1.882.207.834-.355 1.142.177 1.297.739.154.532.123 1.124.154 1.715-.988.946-.71 1.774.401 2.366 1.235.65 2.5 1.241 3.982 1.212-.062.739-.648.621-1.111.65-1.05.03-2.099.06-3.179.089-.463-.296-.865 0-1.328.059zM149.997 59.577c.401-.946.247-2.07.926-2.957.309.178.432.532.278.769-.586.946.247 1.685.37 2.513.062.444.309.592.741.533.463-.09.371-.385.278-.68-.154-.444-.031-.799.432-.976.37-.148.71 0 .926.325.216.384.556.74.123 1.183-.401.384-.926.887-.463 1.36.433.444.71-.296 1.081-.444.123-.059.339-.118.432-.059 1.451.976 2.963.266 4.414.03.308-.06.987 0 .833-.592-.123-.473-.525-.857-1.173-.62-.247.088-.37.561-.895.029.803-.384.401-1.094.525-1.715.648.562 1.265 1.153 1.913 1.685.679.533.618.976-.03 1.538-.988.858-1.914 1.804-2.84 2.72-.278.267-.679.562-.278 1.006.494.532.803.089 1.142-.237.988-.946 2.006-1.863 2.932-2.838.494-.503.834-.562 1.358 0 .926.975 1.945 1.892 2.933 2.809.308.295.617.769 1.111.236.401-.443.031-.739-.247-1.005a87.69 87.69 0 0 0-2.963-2.81c-.648-.561-.525-.975.154-1.389 1.173 1.478 2.469 1.981 3.519 1.065.741-.68 1.111-.562 1.697 0 .371.325.803.739 1.359.473.555-.267.679-.858.524-1.39-.216-.68 0-1.035.679-1.213.587-.147 1.173-.561 1.42.414.062.237.278.444.587.355.123-.059.216-.295.246-.473.062-.296 0-.591.247-.828.186.385-.092.858.309 1.213.309 5.056-1.728 8.989-6.327 11.443-4.383 2.336-8.828 2.1-12.964-.65-3.951-2.573-5.494-6.328-5.309-10.823z" fill="#F58220"/>
    <path d="M158.794 58.306c-.124.62.247 1.33-.525 1.715.525.532.679.059.895-.03.648-.236 1.049.148 1.173.621.154.591-.525.532-.833.591-1.451.237-2.933.947-4.414-.03-.093-.058-.309.03-.432.06-.371.148-.648.887-1.081.444-.463-.503.062-.976.463-1.36.433-.444.124-.829-.123-1.183-.185-.326-.525-.503-.926-.326-.432.178-.586.532-.432.976.092.296.185.592-.278.68-.432.06-.679-.088-.741-.532-.092-.828-.957-1.567-.37-2.514.154-.236.031-.59-.278-.768.278-1.183 1.019-2.13 1.636-3.135v-.03c.093-.117.185-.236.309-.354.092-.089.185-.207.277-.296l.309-.295.309-.296c.123-.089.216-.207.339-.296a2.15 2.15 0 0 1 .309-.236c.123-.09.247-.207.339-.296v.03c.433-.06.741-.296.988-.621.093.03.154 0 .185-.09.124-.088.216-.147.34-.236l-.031.03c.278 0 .494-.089.617-.325.216-.09.402-.178.618-.267a.86.86 0 0 0 .74-.266c.093.03.155.03.216-.059.155-.059.34-.148.494-.207.155-.03.278-.059.432-.059.34.06.679.03.957-.207.494-.06 1.019-.089 1.513-.148h.308l2.315.089c.309.266.679.296 1.081.266.123.03.277.06.401.06.185.058.339.147.524.206.031.089.093.089.155.03.185.236.463.295.771.295 1.513.888 3.056 1.745 4.26 3.017 1.512 1.596 2.253 3.489 2.747 5.529-.247.237-.185.532-.247.828-.031.177-.123.414-.247.473-.278.118-.525-.118-.586-.355-.247-.946-.865-.562-1.42-.414-.679.178-.895.532-.679 1.213.154.532.031 1.123-.525 1.39-.556.265-.988-.148-1.358-.474-.586-.532-.957-.68-1.698 0-1.018.917-2.315.444-3.518-1.064l.061.03c2.13.532 1.729-1.302 2.254-2.248l.339-.325c.124-.06.556.118.309-.296.185-.414.494-.828-.124-1.123-.432-.208-.648.147-.895.384-.957.887-1.944 1.774-2.839 2.72-.587.621-.957.68-1.575.03-.895-.946-1.882-1.804-2.839-2.72-.772-.77-1.235-.621-1.358.443-.371.976.308 1.064 1.018 1.094h-.031c.031.207.124.296.34.325l.062-.088zm-2.47 1.567c.371 0 .741-.06.679-.532-.03-.385-.308-.592-.709-.592-.402 0-.679.237-.679.621-.031.473.37.473.709.503z" fill="#F58220"/>
    <path d="m166.696 57.512-.34.326c-.864.65-1.698 1.33-2.253 2.247l-.062-.03c-.679.385-.802.799-.154 1.39 1.018.917 1.975 1.863 2.963 2.81.278.265.648.561.247 1.005-.494.532-.803.059-1.111-.237-.988-.946-2.007-1.833-2.933-2.809-.524-.532-.864-.503-1.358 0-.956.976-1.944 1.892-2.932 2.839-.309.295-.648.739-1.142.236-.401-.443 0-.71.278-1.005.926-.917 1.852-1.834 2.84-2.72.648-.562.709-1.006.03-1.538-.679-.532-1.296-1.124-1.913-1.686l-.062.03c-.031-.207-.123-.296-.34-.325h.031c-.185-.503-.586-.828-1.018-1.094.123-1.065.555-1.213 1.358-.444.926.917 1.944 1.774 2.84 2.72.617.651.987.592 1.574-.03.895-.945 1.882-1.832 2.839-2.72.247-.236.463-.59.895-.384.587.296.309.74.124 1.124a1.62 1.62 0 0 0-.401.295z" fill="#fff"/>
    <path d="M164.103 60.052c.555-.917 1.388-1.597 2.253-2.247-.525.976-.124 2.809-2.253 2.247zM156.325 59.874c-.371-.03-.741-.03-.71-.503.03-.384.308-.621.679-.621.401 0 .679.207.71.591.061.474-.309.503-.679.533zM157.374 56.916c.432.266.834.591 1.019 1.094-.71-.03-1.358-.118-1.019-1.094zM166.695 57.508c.093-.09.186-.207.309-.296.247.414-.185.236-.309.296zM158.393 58.009c.216.03.308.118.339.325-.216 0-.309-.118-.339-.325z" fill="#F58220"/>
    <path d="M197.623 133.145c1.111-.473.679-1.478.833-2.277.772.976.186 2.07.247 3.312.865-.562 1.667-.828 2.223-1.479 1.203-.177 2.315-1.153 3.642-.354.061.088.092.177.154.295-.031.385-.062.769-.093 1.183-.308.207-.648.414-.956.621-.556-.059-1.019.148-1.482.355h-1.574c-2.161-.118-2.161-.118-2.191 1.922 0 .503.03.976.061 1.478.093.621.556.355.895.355l-.277.799c-.186.059-.402.088-.587.147l-.062-.059c.124-.68-.956-.414-.895-1.064.679-.946.309-1.981.247-2.987.309-.887-.679-1.153-.895-1.803.216-.178.463-.326.71-.444z" fill="#2F373C"/>
    <path d="M198.487 139.444c.185-.059.401-.088.586-.148 1.482.267 2.778-.473 4.198-.591.278.621-.031 1.183-.154 1.774-1.081.651-2.315 1.124-3.149 2.1l-.061-.03.031.059c-.093.119-.186.207-.247.326-.649.236-1.081.147-1.081-.592-.092-.976-.092-1.922-.123-2.898z" fill="#F58220"/>
    <path d="M203.271 138.737c-1.42.088-2.716.857-4.198.591l.278-.798c.741-1.094 2.099-1.39 3.117-2.159.494 0 1.019 0 1.513.03.092.029.185.088.278.118 0 0-.031-.03 0-.03.092.148.216.266.308.414.062.71-.308 1.183-.926 1.538-.123.089-.216.207-.339.296h-.031zM199.938 142.578c.864-.976 2.068-1.449 3.148-2.1.309-.029.586-.029.895-.059.988 1.064.895 1.745-.34 2.336-.586.266-1.172.532-1.852.473-.061.03-.123.03-.185.059-.524.325-1.08.296-1.666.237-.093-.207-.216-.414-.309-.592.093-.118.185-.207.247-.325.031 0 .062-.029.062-.029z" fill="#1F292D"/>
    <path d="M202.499 136.37c-1.018.739-2.376 1.035-3.117 2.159-.34 0-.833.236-.895-.355.926-1.005 2.006-1.922 2.13-3.401h1.574c-.124.562.154 1.065.308 1.597zM203.672 134.389c.309-.207.649-.414.957-.621.34.266.247.502-.031.709-.308.266-.648.266-.926-.088zM203.302 138.737c.123-.089.216-.207.339-.296 0 .207-.123.296-.339.296zM204.567 136.905c-.092-.148-.216-.266-.308-.414.216.059.308.207.308.414z" fill="#F58220"/>
    <path d="M204.29 136.512c-.093-.029-.186-.088-.278-.118.185-.177.278-.089.278.118zM204.722 132.614c-.062-.089-.093-.177-.155-.296.062.059.155.089.216.148.031.03-.03.118-.061.148zM102.526 128.471a7.368 7.368 0 0 0-.216-.769c.308-.088.586-.118.709.237.093.355-.185.473-.493.532zM102.372 127.643c-.278-.148-.278-.385-.247-.651.308.148.339.385.247.651zM114.533 158.338v-2.927c1.203-.059 2.407-.119 3.611.059.957 1.449 2.377 2.277 3.982 2.898.154.236.401.295.679.295l.185.266c-1.019.681-2.161.296-3.272.355-1.389.059-2.747-.059-4.136-.029-.648-.03-1.049-.237-1.049-.917zM83.729 47.336c1.389.887 2.901 1.064 4.506.65-1.172 1.154-3.765.77-4.506-.65zM90.55 44.205l-.463-1.774c.833.443 1.111 1.005.463 1.774zM90.118 46.274c.154-.473.278-.976.432-1.449.216.592.555 1.183-.432 1.45zM89.13 47.424c.309-.385.649-.77.957-1.154.062.651-.062 1.183-.957 1.154zM89.439 38.583c-.185.118-.278.236-.37.236-.217.03-.402-.088-.34-.295.03-.089.216-.178.34-.148.123-.03.215.089.37.207z" fill="#F58220"/>
    <path d="M88.204 48.015c.247-.325.556-.502.957-.591.03.65-.463.62-.957.591zM90.118 42.427c-.247-.118-.34-.325-.37-.562.308.089.37.296.37.562zM81.506 50.143c-.03-.06-.092-.089-.123-.148.03.06.092.118.123.148z" fill="#F58220"/>
    <path d="M203.456 123.301c-.123.03-.247.119-.37.119-.093 0-.309-.089-.124-.267.062-.059.155-.088.247-.118.185-.059.185.118.247.266z" fill="#FDFEFE"/>
    <path d="M201.604 143.313a.449.449 0 0 1 .186-.059l-.062.118-.124-.059z" fill="#2F373C"/>
    <path d="M197.561 143.553c-1.481.029-2.747-.562-3.982-1.213-1.111-.591-1.358-1.39-.401-2.365h.926c1.235.709 2.346 1.596 3.395 2.543.093.177.155.325.247.502.124.207.618-.029.556.296-.031.325-.463.207-.741.237z" fill="#1F292D"/>
    <path d="M197.53 142.52c-1.05-.946-2.161-1.833-3.395-2.542-.587-1.006-.031-1.863.339-2.75 1.019.561 1.759 1.448 2.871 1.862.061.237.247.296.463.326-.093 1.035.493 2.129-.278 3.104z" fill="#F58220"/>
    <path d="M197.345 139.119c-1.111-.384-1.883-1.301-2.87-1.862-.679-.385-.772-1.094-1.05-1.686.062-.325.155-.68.216-1.005.957-.414 1.605 0 2.223.68.463.503.586 1.212 1.265 1.567.154.503.278 1.005.432 1.508-.061.621 1.019.384.895 1.065-.185.029-.401.029-.586.059-.124-.237-.278-.326-.525-.326z" fill="#1F292D"/>
    <path d="M112.65 138.53c0-.384-.031-.798-.031-1.182.031-2.869.031-5.737.061-8.576.402-.739.34-1.448-.03-2.217-.618-1.213-.062-1.981 1.358-1.922.648.029 1.265.384 1.882-.385.433-.532.896-.177 1.081.562.216.769.247 1.922 1.666 1.626.71 2.987.278 6.003.186 9.019-.031.621 0 1.272.031 1.893 0 .295-.001.591-.031.887a10.482 10.482 0 0 0-.062 2.957l-.093 2.336c-.339 1.863-.277 3.755-.216 5.647-.092 1.42-.154 2.839-.247 4.288-1.234.444-2.469.266-3.734.118v.03c-.216-1.449-.463-2.927-.649-4.376-.37-3.578-.74-7.156-1.172-10.705zM193.425 135.573c.308.591.37 1.331 1.049 1.685-.37.887-.926 1.745-.339 2.75h-.926c-.031-.561 0-1.153-.155-1.715-.154-.561-.463-1.094-1.296-.739-.648.266-1.266-.118-1.883-.207-.216-1.064.247-2.218-.401-3.253a9.07 9.07 0 0 1-.062-.916c.401-.148.741.709 1.266-.148.586-.946 1.821-.296 2.222 1.183.093.473-.309 1.123.525 1.36z" fill="#F58220"/>
    <path d="M114.533 153.58c1.234.118 2.5.325 3.734-.118-.03.68-.061 1.36-.123 2.04-1.204-.177-2.408-.118-3.611-.059v-1.863z" fill="#fff"/>
    <path d="M189.937 138.236c.525 0 .988.089 1.327.651-2.068.443-.71 1.744-.771 2.72-.71-1.035-.834-2.188-.556-3.371zM190.585 141.78c.062.119.155.266.216.385-.216-.059-.278-.207-.216-.385z" fill="#FAA55D"/>
    <path d="M122.805 158.664c-.278.03-.525-.059-.68-.296.309-.029.556 0 .68.296z" fill="#fff"/>
    <path d="M118.545 125.692v-.029h.061l-.061.029z" fill="#F58220"/>
    <path d="M181.912 97.636c-.648-.089-.895-.414-.864-.947.031-.443.309-.739.802-.739.556 0 .865.325.865.828 0 .562-.402.769-.803.858zM177.56 95.95c.525.118.833.385.772.917-.062.502-.402.798-.926.74-.463-.06-.741-.385-.71-.829 0-.503.308-.798.864-.828zM172.312 96.744c.093-.473.402-.798.926-.769.525.03.834.355.803.858-.031.503-.37.798-.895.769-.525-.03-.772-.385-.834-.858zM152.343 96.837c-.093.503-.402.828-.926.77-.525-.06-.834-.415-.741-.947.062-.444.37-.71.833-.71.525.03.772.385.834.887zM147.991 96.69c-.031.562-.278.916-.833.946-.525 0-.834-.325-.834-.858 0-.443.278-.768.741-.798.556-.059.802.296.926.71zM155.862 97.636c-.494-.03-.834-.266-.895-.768-.062-.503.278-.828.771-.887.525-.06.865.266.926.739.062.502-.277.798-.802.916zM169.689 96.75c-.031.502-.308.827-.802.857-.525.03-.864-.266-.895-.769-.031-.503.308-.828.802-.857.525-.06.803.266.895.768zM164.535 97.631c-.618-.088-.896-.384-.865-.887.031-.443.309-.739.772-.769.555-.03.895.296.895.799.031.502-.34.769-.802.857zM160.09 95.95c.587.06.895.355.895.887 0 .444-.277.77-.74.799-.525.03-.895-.266-.926-.77-.062-.561.308-.797.771-.916zM142.836 95.978c.587.088.834.413.772.916-.062.444-.339.74-.802.71-.525-.03-.834-.355-.834-.858 0-.502.34-.768.864-.768zM174.041 84.445c-.031.503-.309.828-.864.828-.525 0-.865-.325-.865-.828 0-.473.309-.857.834-.857.555 0 .833.355.895.857zM169.72 84.385c-.062.562-.339.887-.864.887-.525 0-.864-.325-.864-.798 0-.503.339-.828.833-.828.556-.03.772.355.895.74zM152.343 84.445c-.093.532-.371.857-.926.828-.463-.03-.772-.326-.772-.77 0-.502.309-.857.833-.857.556-.03.803.355.865.799zM156.695 84.474c-.062.503-.371.828-.895.799-.525 0-.865-.296-.834-.828.031-.503.34-.828.865-.799.524 0 .802.326.864.828zM160.985 84.474c-.093.532-.37.858-.926.798-.463-.059-.741-.355-.741-.798 0-.503.309-.828.865-.828.555-.03.74.384.802.828zM165.368 84.535c-.093.503-.432.798-.957.769-.494-.03-.741-.385-.741-.799 0-.502.309-.857.865-.828.524-.03.771.355.833.858z" fill="#2F373C"/>
    <path d="M197.098 136.818c-.648-.355-.803-1.065-1.266-1.567-.617-.681-1.265-1.095-2.222-.681-.154-1.508-.525-3.016.216-4.494.185-.355.185-.769.679-.917-.031.148-.031.325-.062.473-.308 1.922 1.235 2.809 2.408 3.874.216.65 1.204.917.895 1.804-1.019.177-.185 1.123-.648 1.508z" fill="#F58220"/>
    <path d="M194.443 129.655c.031-.148.031-.326.062-.473v-.03c.185-.059.37-.118.525-.177.216.029.432.029.648.059a.286.286 0 0 0 .247.118.392.392 0 0 1 0 .266c-.401.414-.957.178-1.482.237z" fill="#2F373C"/>
    <path d="M195.03 128.946c-.185.059-.37.118-.525.177.062-.325.278-.355.525-.177zM195.956 129.158c-.124 0-.185-.059-.247-.119.185-.207.216-.059.247.119z" fill="#F58220"/>
    <path d="M87.957 46.508c-.555-.118-.926-.443-.926-1.005 0-.562.34-.946.957-.946.648 0 1.08.414 1.019 1.035-.062.532-.433.857-1.05.916zM108.761 128.502c.154 1.094.247 2.188-.093 3.253-.031-1.094-.185-2.159.093-3.253zM108.915 121.67v.857c-.34-.266-.34-.561 0-.857zM109.501 121.402l-.555-.266c.062-.207.216-.355.401-.207.124.059.124.296.154.473z" fill="#FAA55D"/>
    <path d="M197.098 136.812c.463-.384-.371-1.33.679-1.478.061 1.005.432 2.04-.247 2.987a26.7 26.7 0 0 1-.432-1.509z" fill="#F7D1B2"/>
    <path d="m199.937 142.579-.031.029-.03-.058.061.029zM197.345 139.118c.216.03.401.118.463.325-.185-.059-.371-.118-.463-.325z" fill="#2F373C"/>
    <path d="M114.44 69.068s-1.266.799 1.049 2.395c0 0-.586.622-1.142.68-.555.06.618 1.154.803 1.213.185.06 3.241 1.36 4.938 3.43 1.698 2.07 4.013 3.312 4.075 4.465.092 1.153-1.698 1.42-1.698 1.42l.833 3.755s5.957-1.242 6.636-2.662c.68-1.419-.926-3.548-1.543-4.11-.617-.562-8.241-6.475-8.241-6.475s-2.006-2.544-2.716-3.105c-.679-.473-2.994-1.006-2.994-1.006z" fill="#EFD8B6"/>
    <path d="M213.518 159.196H92.433V161h121.085v-1.804z" fill="#FEA050"/>
</svg>
