<svg width="30" height="30" viewBox="0 0 30 30" fill="none" xmlns="http://www.w3.org/2000/svg">
<circle cx="15" cy="15" r="14.75" fill="white" stroke="#F5821F" stroke-width="0.5"/>
<path d="M22.4521 10.8542L22.1552 13.7156C22.1208 14.0297 21.7356 14.1647 21.5147 13.9438L20.8128 13.2419L16.3931 17.6617C16.1158 17.939 15.6274 17.939 15.3501 17.6617L12.9157 15.2273L8.80273 19.3427C8.66039 19.485 8.47144 19.5587 8.28247 19.5587C8.0935 19.5587 7.90455 19.485 7.76221 19.3427C7.4751 19.0556 7.4751 18.5893 7.76221 18.2997L12.3955 13.6665C12.6728 13.3892 13.1611 13.3892 13.436 13.6665L15.8728 16.1009L19.7723 12.2014L18.9502 11.3793C18.7269 11.156 18.8619 10.7707 19.176 10.7388L22.0374 10.4419C22.2754 10.4149 22.4767 10.6161 22.4521 10.8542Z" fill="#F5821F"/>
</svg>
