<svg width="30" height="30" viewBox="0 0 30 30" fill="none" xmlns="http://www.w3.org/2000/svg">
<circle cx="15" cy="15" r="14.75" fill="white" stroke="#F5821F" stroke-width="0.5"/>
<path d="M7.54787 19.1458L7.8448 16.2844C7.87916 15.9703 8.26443 15.8353 8.48533 16.0562L9.18716 16.7581L13.6069 12.3383C13.8842 12.061 14.3726 12.061 14.6499 12.3383L17.0843 14.7727L21.1973 10.6573C21.3396 10.515 21.5286 10.4413 21.7175 10.4413C21.9065 10.4413 22.0954 10.515 22.2378 10.6573C22.5249 10.9444 22.5249 11.4107 22.2378 11.7003L17.6045 16.3335C17.3272 16.6108 16.8389 16.6108 16.564 16.3335L14.1272 13.8991L10.2277 17.7986L11.0498 18.6207C11.2731 18.844 11.1381 19.2293 10.824 19.2612L7.96259 19.5581C7.72456 19.5851 7.52331 19.3839 7.54787 19.1458Z" fill="#F5821F"/>
</svg>
