<svg width="34" height="29" viewBox="0 0 34 29" fill="none" xmlns="http://www.w3.org/2000/svg">
<rect x="1.56494" y="1.03687" width="30.7419" height="19.9216" rx="3" stroke="white" stroke-width="2"/>
<line x1="0.564941" y1="15.7593" x2="32.8853" y2="15.7593" stroke="white" stroke-width="2"/>
<path d="M5.69434 12.8243L9.57082 9.30964C10.3537 8.59981 11.5537 8.62157 12.3104 9.3593L12.4068 9.45329C13.1721 10.1994 14.3888 10.212 15.1693 9.48183L16.7044 8.04574C17.4975 7.30381 18.7378 7.33038 19.4984 8.1056L20.4104 9.03519C21.1734 9.81286 22.4185 9.83678 23.2108 9.08899L28.0375 4.53345" stroke="#14A84B"/>
<path d="M24.6646 4.39282H28.1776V7.9059" stroke="#14A84B"/>
<circle cx="17.2167" cy="18.9371" r="0.491831" fill="white"/>
<path d="M13.3527 24.4878L12.4451 26.0853C12.0663 26.7519 12.5478 27.5793 13.3145 27.5793H20.9792C21.7459 27.5793 22.2274 26.7519 21.8487 26.0853L20.941 24.4878" stroke="white" stroke-width="2"/>
</svg>
