<svg width="30" height="30" viewBox="0 0 30 30" fill="none" xmlns="http://www.w3.org/2000/svg">
<circle cx="15" cy="15" r="14.75" fill="white" stroke="#F5821F" stroke-width="0.5"/>
<rect x="12.625" y="22.1504" width="2" height="0.5" rx="0.25" fill="#FF7518"/>
<path d="M17.1713 6.4043H10.0784C9.82559 6.40458 9.58321 6.50631 9.40446 6.68717C9.22572 6.86802 9.12521 7.11323 9.125 7.36896V22.6361C9.12521 22.8918 9.22572 23.137 9.40446 23.3179C9.58321 23.4987 9.82559 23.6004 10.0784 23.6007H17.1713C17.4242 23.6005 17.6666 23.4988 17.8454 23.3179C18.0242 23.1371 18.1248 22.8918 18.125 22.6361V7.36896C18.1248 7.11318 18.0242 6.86794 17.8454 6.68707C17.6666 6.50621 17.4242 6.40451 17.1713 6.4043ZM17.8776 22.6361C17.877 22.8255 17.8024 23.0069 17.6701 23.1409C17.5378 23.275 17.3586 23.3507 17.1713 23.3516H10.0784C9.89117 23.3514 9.71167 23.276 9.57929 23.1421C9.44692 23.0081 9.3725 22.8265 9.37236 22.6371V7.36896C9.37252 7.23506 9.4099 7.1039 9.48022 6.99045C9.55055 6.877 9.65098 6.78584 9.77007 6.72736C9.86589 6.67914 9.97139 6.65385 10.0784 6.65344H17.1713C17.3586 6.65365 17.5381 6.72899 17.6705 6.86293C17.803 6.99687 17.8774 7.17848 17.8776 7.3679V22.6361Z" fill="#F5821F" stroke="#F5821F" stroke-width="0.3"/>
<path d="M14.2804 21.9754H12.9661C12.9123 21.972 12.8584 21.9797 12.8077 21.9981C12.757 22.0166 12.7106 22.0453 12.6713 22.0826C12.632 22.1199 12.6007 22.165 12.5793 22.215C12.5579 22.265 12.5469 22.3189 12.5469 22.3734C12.5469 22.4279 12.5579 22.4819 12.5793 22.5319C12.6007 22.5819 12.632 22.627 12.6713 22.6643C12.7106 22.7015 12.757 22.7303 12.8077 22.7488C12.8584 22.7672 12.9123 22.7749 12.9661 22.7715H14.2804C14.3805 22.7651 14.4744 22.7204 14.543 22.6464C14.6116 22.5725 14.6498 22.4749 14.6498 22.3734C14.6498 22.272 14.6116 22.1744 14.543 22.1005C14.4744 22.0265 14.3805 21.9818 14.2804 21.9754V21.9754ZM14.2804 22.5213H12.9661C12.9273 22.5213 12.8902 22.5057 12.8628 22.478C12.8353 22.4503 12.8199 22.4127 12.8199 22.3734C12.8199 22.3342 12.8353 22.2966 12.8628 22.2689C12.8902 22.2412 12.9273 22.2256 12.9661 22.2256H14.2804C14.3192 22.2256 14.3564 22.2412 14.3838 22.2689C14.4112 22.2966 14.4266 22.3342 14.4266 22.3734C14.4266 22.4127 14.4112 22.4503 14.3838 22.478C14.3564 22.5057 14.3192 22.5213 14.2804 22.5213V22.5213Z" fill="#F5821F"/>
<line x1="11.25" y1="9.75" x2="15.75" y2="9.75" stroke="#F5821F" stroke-width="0.5" stroke-linecap="round"/>
<line x1="11.25" y1="10.75" x2="14.75" y2="10.75" stroke="#F5821F" stroke-width="0.5" stroke-linecap="round"/>
<line x1="11.25" y1="12.75" x2="15.75" y2="12.75" stroke="#F5821F" stroke-width="0.5" stroke-linecap="round"/>
<line x1="11.25" y1="13.75" x2="14.75" y2="13.75" stroke="#F5821F" stroke-width="0.5" stroke-linecap="round"/>
<path d="M19.9584 12.6543L19.9584 13.622C19.3693 13.7645 18.7931 13.9471 18.25 14.1927C17.4679 14.5465 16.7514 15.0382 16.2401 15.6745C16.1704 15.7608 16.1046 15.8507 16.0431 15.9419C15.8013 16.2998 15.6221 16.6945 15.5129 17.1098C15.4057 17.5147 15.3659 17.9259 15.3767 18.3308C15.3822 18.5325 15.3995 18.7338 15.4285 18.9336C15.4579 19.1327 15.4975 19.3298 15.5463 19.5243C15.5712 19.6214 15.5976 19.7182 15.6272 19.814C15.6569 19.9099 15.6879 20.0053 15.722 20.0997C15.756 20.1941 15.7922 20.2878 15.8311 20.3804C15.87 20.473 15.9105 20.5646 15.9566 20.6543C15.924 20.5603 15.8971 20.4652 15.8718 20.3698C15.8466 20.2743 15.8247 20.1779 15.8046 20.0814C15.7845 19.985 15.7674 19.8884 15.7524 19.7915C15.7375 19.6946 15.7252 19.5978 15.7145 19.5008C15.6946 19.3066 15.6838 19.1124 15.6836 18.9189C15.6836 18.7263 15.6948 18.5337 15.7172 18.3423C15.7622 17.9613 15.8549 17.5882 16.0029 17.239C16.0126 17.216 16.0226 17.193 16.033 17.1699C16.1767 16.8465 16.3702 16.5464 16.6069 16.2801C16.7346 16.1375 16.8736 16.0049 17.0224 15.8833L17.0787 15.8376C17.0975 15.8226 17.1159 15.8073 17.1359 15.7932L17.2532 15.7069C17.3345 15.6526 17.414 15.5972 17.4993 15.5476L17.562 15.5095C17.5723 15.5029 17.5831 15.4969 17.5941 15.4911L17.6168 15.4785C17.6309 15.4705 17.645 15.4626 17.6591 15.4547C17.6909 15.437 17.7229 15.4197 17.7551 15.4029C17.7555 15.4025 17.756 15.4022 17.7566 15.402C18.4252 15.0503 19.181 14.8512 19.947 14.7389C19.949 14.7384 19.9511 14.7381 19.9529 14.7378C19.9547 14.7376 19.9562 14.7374 19.9577 14.7371L19.9577 15.6293L21.4162 14.8855L22.875 14.1417L21.4162 13.3979L19.9584 12.6543Z" fill="white" stroke="#F5821F" stroke-width="0.5"/>
<circle cx="2" cy="2" r="2" transform="matrix(1 0 0 -1 10.666 21)" fill="white"/>
<path d="M11.6381 20.028C11.5976 20.028 11.5619 20.0156 11.5308 19.9907C11.4996 19.9658 11.4825 19.9331 11.4794 19.8927C11.4794 19.8491 11.4996 19.804 11.5401 19.7573L12.3568 18.7307V18.9267L11.5914 17.97C11.551 17.9202 11.5308 17.8751 11.5308 17.8347C11.5339 17.7942 11.551 17.7616 11.5821 17.7367C11.6132 17.7118 11.649 17.6993 11.6894 17.6993C11.7361 17.6993 11.775 17.7087 11.8061 17.7273C11.8403 17.7429 11.8714 17.7693 11.8994 17.8067L12.5668 18.6513H12.4361L13.1081 17.8067C13.1361 17.7693 13.1656 17.7429 13.1968 17.7273C13.2279 17.7087 13.2668 17.6993 13.3134 17.6993C13.357 17.6993 13.3928 17.7118 13.4208 17.7367C13.4519 17.7616 13.4674 17.7958 13.4674 17.8393C13.4705 17.8798 13.4519 17.9249 13.4114 17.9747L12.6508 18.9173V18.7447L13.4674 19.7573C13.5048 19.804 13.5219 19.8491 13.5188 19.8927C13.5188 19.9331 13.5032 19.9658 13.4721 19.9907C13.441 20.0156 13.4036 20.028 13.3601 20.028C13.3165 20.028 13.2776 20.0187 13.2434 20C13.2123 19.9844 13.1812 19.958 13.1501 19.9207L12.4314 19.0153H12.5668L11.8481 19.9207C11.8201 19.9549 11.789 19.9813 11.7548 20C11.7236 20.0187 11.6848 20.028 11.6381 20.028Z" fill="#F5821F"/>
</svg>
