<svg width="30" height="28" viewBox="0 0 30 28" fill="none" xmlns="http://www.w3.org/2000/svg">
<path d="M1.56519 8.63388L6.47664 7.75684L10.7742 11.7035L14.7096 18.9638C15.3074 20.0666 16.761 20.3532 17.7327 19.56L28.7536 10.5634" stroke="#14A84B" stroke-width="2"/>
<path d="M1.56519 14.2468L4.02181 18.3003C4.52682 19.1335 5.71243 19.1966 6.30293 18.4215V18.4215C6.97428 17.5404 8.35757 17.7677 8.71166 18.8173L9.05752 19.8425C9.57786 21.3849 11.6443 21.6545 12.543 20.2972L17.3612 13.0197C18.0732 11.9443 19.6019 11.8141 20.4856 12.7535L28.4905 21.2632" stroke="#EB5556" stroke-width="2"/>
<path d="M0.600342 0.619759V27.5778H27.6065C27.9009 27.5778 28.1395 27.3391 28.1395 27.0448C28.1395 26.7504 27.9009 26.5117 27.6065 26.5117H1.76271V0.619759C1.76271 0.298779 1.50251 0.0385742 1.18153 0.0385742C0.860547 0.0385742 0.600342 0.29878 0.600342 0.619759Z" fill="white"/>
<path d="M26.868 10.651H27.2257H27.872L28.5182 10.4756V11.8789V12.419C28.5182 12.7504 28.7869 13.019 29.1183 13.019C29.4497 13.019 29.7184 12.7504 29.7184 12.419V9.33545H26.868C26.5047 9.33545 26.2102 9.62995 26.2102 9.99323C26.2102 10.3565 26.5047 10.651 26.868 10.651Z" fill="#14A84B"/>
<path d="M28.3756 19.4071L28.3552 19.8151L28.3213 20.4928L28.4625 21.1793L27.061 21.1092L26.5516 21.0837C26.204 21.0663 25.9082 21.3339 25.8908 21.6815C25.8734 22.029 26.141 22.3249 26.4886 22.3423L29.5383 22.4949L29.6895 19.4729C29.7077 19.11 29.4283 18.8012 29.0655 18.783C28.7026 18.7649 28.3938 19.0443 28.3756 19.4071Z" fill="#EB5556"/>
</svg>
