<svg width="981" height="90" viewBox="0 0 981 90" fill="none" xmlns="http://www.w3.org/2000/svg">
<rect x="27.5" y="0.5" width="953" height="89" rx="3.5" fill="white" stroke="#999999"/>
<rect y="20" width="196" height="52" rx="6" fill="#043B73"/>
<path d="M48.7021 57L45.7139 49.2969H35.9854L33.0137 57H30.1582L39.6543 32.6289H42.1943L51.624 57H48.7021ZM44.8672 46.79L42.0283 39.1367C41.9619 38.9375 41.8512 38.611 41.6963 38.1572C41.5524 37.7035 41.403 37.2331 41.248 36.7461C41.0931 36.2591 40.9658 35.8662 40.8662 35.5674C40.7555 36.0212 40.6338 36.4749 40.501 36.9287C40.3792 37.3714 40.2575 37.7865 40.1357 38.1738C40.014 38.5501 39.9089 38.8711 39.8203 39.1367L36.9316 46.79H44.8672ZM69.6035 38.8047V57H67.3457L66.9473 54.4434H66.7979C66.4215 55.0742 65.9346 55.6055 65.3369 56.0371C64.7393 56.4688 64.0641 56.7897 63.3115 57C62.57 57.2214 61.7786 57.332 60.9375 57.332C59.4987 57.332 58.2923 57.0996 57.3184 56.6348C56.3444 56.1699 55.6084 55.4505 55.1104 54.4766C54.6234 53.5026 54.3799 52.252 54.3799 50.7246V38.8047H57.1689V50.5254C57.1689 52.0417 57.512 53.1761 58.1982 53.9287C58.8844 54.6702 59.9303 55.041 61.3359 55.041C62.6862 55.041 63.7598 54.7865 64.5566 54.2773C65.3646 53.7682 65.9456 53.0212 66.2998 52.0361C66.654 51.04 66.8311 49.8226 66.8311 48.3838V38.8047H69.6035ZM81.3076 55.0742C81.7614 55.0742 82.2262 55.0355 82.7021 54.958C83.1781 54.8805 83.5654 54.7865 83.8643 54.6758V56.8174C83.5433 56.9613 83.0951 57.083 82.5195 57.1826C81.9551 57.2822 81.4017 57.332 80.8594 57.332C79.8965 57.332 79.0221 57.166 78.2363 56.834C77.4505 56.4909 76.8197 55.9154 76.3438 55.1074C75.8789 54.2995 75.6465 53.1816 75.6465 51.7539V40.9629H73.0566V39.6182L75.6631 38.5391L76.7588 34.5879H78.4189V38.8047H83.748V40.9629H78.4189V51.6709C78.4189 52.8109 78.679 53.6631 79.1992 54.2275C79.7305 54.792 80.4333 55.0742 81.3076 55.0742ZM103.238 47.8691C103.238 49.3633 103.045 50.6969 102.657 51.8701C102.27 53.0433 101.711 54.0339 100.98 54.8418C100.25 55.6497 99.3646 56.2695 98.3242 56.7012C97.2949 57.1217 96.1273 57.332 94.8213 57.332C93.6038 57.332 92.486 57.1217 91.4678 56.7012C90.4606 56.2695 89.5863 55.6497 88.8447 54.8418C88.1143 54.0339 87.5443 53.0433 87.1348 51.8701C86.7363 50.6969 86.5371 49.3633 86.5371 47.8691C86.5371 45.877 86.8747 44.1836 87.5498 42.7891C88.2249 41.3835 89.1878 40.3154 90.4385 39.585C91.7002 38.8434 93.1999 38.4727 94.9375 38.4727C96.5977 38.4727 98.0475 38.8434 99.2871 39.585C100.538 40.3265 101.506 41.4001 102.192 42.8057C102.89 44.2002 103.238 45.888 103.238 47.8691ZM89.3926 47.8691C89.3926 49.3301 89.5863 50.5973 89.9736 51.6709C90.361 52.7445 90.9587 53.5745 91.7666 54.1611C92.5745 54.7477 93.6149 55.041 94.8877 55.041C96.1494 55.041 97.1842 54.7477 97.9922 54.1611C98.8112 53.5745 99.4144 52.7445 99.8018 51.6709C100.189 50.5973 100.383 49.3301 100.383 47.8691C100.383 46.4193 100.189 45.1686 99.8018 44.1172C99.4144 43.0547 98.8167 42.2357 98.0088 41.6602C97.2008 41.0846 96.1549 40.7969 94.8711 40.7969C92.9785 40.7969 91.5895 41.4222 90.7041 42.6729C89.8298 43.9235 89.3926 45.6556 89.3926 47.8691ZM116.553 38.4727C118.822 38.4727 120.631 39.2529 121.981 40.8135C123.332 42.374 124.007 44.7204 124.007 47.8525C124.007 49.9222 123.697 51.6598 123.077 53.0654C122.457 54.471 121.583 55.5335 120.454 56.2529C119.336 56.9723 118.014 57.332 116.486 57.332C115.523 57.332 114.677 57.2048 113.946 56.9502C113.216 56.6956 112.59 56.3525 112.07 55.9209C111.55 55.4893 111.118 55.0189 110.775 54.5098H110.576C110.609 54.9414 110.648 55.4616 110.692 56.0703C110.748 56.679 110.775 57.2103 110.775 57.6641V65.1348H108.003V38.8047H110.277L110.643 41.4941H110.775C111.13 40.9408 111.561 40.4372 112.07 39.9834C112.579 39.5186 113.199 39.1533 113.93 38.8877C114.671 38.611 115.546 38.4727 116.553 38.4727ZM116.071 40.7969C114.81 40.7969 113.791 41.0404 113.017 41.5273C112.253 42.0143 111.694 42.7448 111.34 43.7188C110.986 44.6816 110.798 45.8936 110.775 47.3545V47.8857C110.775 49.4242 110.941 50.7246 111.273 51.7871C111.617 52.8496 112.175 53.6576 112.95 54.2109C113.736 54.7643 114.787 55.041 116.104 55.041C117.233 55.041 118.174 54.7367 118.927 54.1279C119.679 53.5192 120.238 52.6725 120.604 51.5879C120.98 50.4922 121.168 49.236 121.168 47.8193C121.168 45.6722 120.747 43.9678 119.906 42.7061C119.076 41.4333 117.798 40.7969 116.071 40.7969ZM135.628 38.5059C137.797 38.5059 139.408 38.9928 140.459 39.9668C141.51 40.9408 142.036 42.4958 142.036 44.6318V57H140.027L139.496 54.3105H139.363C138.854 54.9746 138.323 55.5335 137.77 55.9873C137.216 56.43 136.574 56.7676 135.844 57C135.124 57.2214 134.239 57.332 133.188 57.332C132.081 57.332 131.096 57.1383 130.232 56.751C129.38 56.3636 128.705 55.777 128.207 54.9912C127.72 54.2054 127.477 53.2093 127.477 52.0029C127.477 50.1878 128.196 48.7933 129.635 47.8193C131.074 46.8454 133.265 46.3141 136.209 46.2256L139.347 46.0928V44.9805C139.347 43.4089 139.009 42.3076 138.334 41.6768C137.659 41.0459 136.707 40.7305 135.479 40.7305C134.527 40.7305 133.619 40.8688 132.756 41.1455C131.893 41.4222 131.074 41.7487 130.299 42.125L129.452 40.0332C130.271 39.6126 131.212 39.2529 132.274 38.9541C133.337 38.6553 134.455 38.5059 135.628 38.5059ZM139.313 48.0352L136.541 48.1514C134.272 48.2399 132.673 48.6107 131.743 49.2637C130.813 49.9167 130.349 50.8408 130.349 52.0361C130.349 53.0765 130.664 53.8457 131.295 54.3438C131.926 54.8418 132.761 55.0908 133.802 55.0908C135.418 55.0908 136.74 54.6426 137.77 53.7461C138.799 52.8496 139.313 51.5049 139.313 49.7119V48.0352ZM144.842 38.8047H147.797L151.814 49.3633C152.047 49.9831 152.263 50.5807 152.462 51.1562C152.661 51.7207 152.838 52.263 152.993 52.7832C153.148 53.3034 153.27 53.807 153.358 54.2939H153.475C153.63 53.7406 153.851 53.0156 154.139 52.1191C154.426 51.2116 154.736 50.2874 155.068 49.3467L158.87 38.8047H161.842L153.923 59.6729C153.502 60.7907 153.01 61.7646 152.445 62.5947C151.892 63.4248 151.217 64.0612 150.42 64.5039C149.623 64.9577 148.66 65.1846 147.531 65.1846C147.011 65.1846 146.552 65.1514 146.153 65.085C145.755 65.0296 145.412 64.9632 145.124 64.8857V62.6777C145.368 62.7331 145.661 62.7829 146.004 62.8271C146.358 62.8714 146.723 62.8936 147.1 62.8936C147.786 62.8936 148.378 62.7607 148.876 62.4951C149.385 62.2406 149.822 61.8643 150.188 61.3662C150.553 60.8682 150.868 60.276 151.134 59.5898L152.13 57.0332L144.842 38.8047Z" fill="white"/>
<path d="M936.555 26.437C936.69 26.2984 936.852 26.1883 937.03 26.1133C937.209 26.0382 937.401 25.9997 937.595 26C937.788 26.0003 937.98 26.0394 938.158 26.115C938.337 26.1906 938.498 26.3012 938.633 26.4402L955.151 43.3881C955.441 43.6857 955.603 44.0849 955.603 44.5005C955.603 44.9161 955.441 45.3153 955.151 45.613L938.633 62.5609C938.498 62.6997 938.336 62.81 938.158 62.8853C937.979 62.9606 937.788 62.9995 937.594 62.9995C937.4 62.9995 937.208 62.9606 937.03 62.8853C936.851 62.81 936.69 62.6997 936.555 62.5609C936.277 62.2762 936.121 61.8941 936.121 61.4963C936.121 61.0984 936.277 60.7163 936.555 60.4316L952.087 44.5005L936.555 28.563C936.278 28.2785 936.123 27.8971 936.123 27.5C936.123 27.1029 936.278 26.7215 936.555 26.437ZM923.805 26.437C923.94 26.2984 924.102 26.1883 924.28 26.1133C924.459 26.0382 924.651 25.9997 924.845 26C925.038 26.0003 925.23 26.0394 925.408 26.115C925.587 26.1906 925.748 26.3012 925.883 26.4402L942.401 43.3881C942.691 43.6857 942.853 44.0849 942.853 44.5005C942.853 44.9161 942.691 45.3153 942.401 45.613L925.883 62.5609C925.748 62.6997 925.586 62.81 925.408 62.8853C925.229 62.9606 925.038 62.9995 924.844 62.9995C924.65 62.9995 924.458 62.9606 924.28 62.8853C924.101 62.81 923.94 62.6997 923.805 62.5609C923.527 62.2762 923.371 61.8941 923.371 61.4963C923.371 61.0984 923.527 60.7163 923.805 60.4316L939.337 44.5005L923.805 28.563C923.528 28.2785 923.373 27.8971 923.373 27.5C923.373 27.1029 923.528 26.7215 923.805 26.437Z" fill="#F6821F"/>
<path d="M255.242 31.4453L244.988 60H241.648L231.395 31.4453H234.871L241.551 50.2539C241.824 51.0091 242.065 51.7318 242.273 52.4219C242.495 53.112 242.69 53.776 242.859 54.4141C243.029 55.0521 243.178 55.6706 243.309 56.2695C243.439 55.6706 243.589 55.0521 243.758 54.4141C243.927 53.763 244.122 53.0924 244.344 52.4023C244.565 51.6992 244.812 50.9635 245.086 50.1953L251.727 31.4453H255.242ZM261.922 38.5938V60H258.68V38.5938H261.922ZM260.34 30.5859C260.874 30.5859 261.329 30.7617 261.707 31.1133C262.098 31.4518 262.293 31.9857 262.293 32.7148C262.293 33.431 262.098 33.9648 261.707 34.3164C261.329 34.668 260.874 34.8438 260.34 34.8438C259.78 34.8438 259.311 34.668 258.934 34.3164C258.569 33.9648 258.387 33.431 258.387 32.7148C258.387 31.9857 258.569 31.4518 258.934 31.1133C259.311 30.7617 259.78 30.5859 260.34 30.5859ZM277.039 38.2031C278.862 38.2031 280.424 38.6068 281.727 39.4141C283.029 40.2214 284.025 41.3542 284.715 42.8125C285.405 44.2578 285.75 45.9505 285.75 47.8906V49.9023H270.965C271.004 52.4154 271.629 54.3294 272.84 55.6445C274.051 56.9596 275.757 57.6172 277.957 57.6172C279.311 57.6172 280.509 57.4935 281.551 57.2461C282.592 56.9987 283.673 56.6341 284.793 56.1523V59.0039C283.712 59.4857 282.638 59.8372 281.57 60.0586C280.516 60.2799 279.266 60.3906 277.82 60.3906C275.763 60.3906 273.966 59.974 272.43 59.1406C270.906 58.2943 269.721 57.0573 268.875 55.4297C268.029 53.8021 267.605 51.8099 267.605 49.4531C267.605 47.1484 267.99 45.1562 268.758 43.4766C269.539 41.7839 270.633 40.4818 272.039 39.5703C273.458 38.6589 275.125 38.2031 277.039 38.2031ZM277 40.8594C275.268 40.8594 273.888 41.4258 272.859 42.5586C271.831 43.6914 271.219 45.2734 271.023 47.3047H282.352C282.339 46.0286 282.137 44.9089 281.746 43.9453C281.368 42.9688 280.789 42.2135 280.008 41.6797C279.227 41.1328 278.224 40.8594 277 40.8594ZM308.68 59.9609L304.871 47.5C304.702 46.9661 304.539 46.4453 304.383 45.9375C304.24 45.4167 304.103 44.9219 303.973 44.4531C303.855 43.9714 303.745 43.5286 303.641 43.125C303.549 42.7083 303.471 42.3503 303.406 42.0508H303.27C303.217 42.3503 303.146 42.7083 303.055 43.125C302.964 43.5286 302.853 43.9714 302.723 44.4531C302.605 44.9349 302.475 45.4427 302.332 45.9766C302.189 46.4974 302.026 47.0247 301.844 47.5586L297.859 59.9609H294.207L288.309 38.5547H291.668L294.754 50.3711C294.962 51.1523 295.158 51.9271 295.34 52.6953C295.535 53.4505 295.698 54.1667 295.828 54.8438C295.971 55.5078 296.076 56.0872 296.141 56.582H296.297C296.375 56.2565 296.46 55.8659 296.551 55.4102C296.655 54.9544 296.766 54.4727 296.883 53.9648C297.013 53.444 297.15 52.9297 297.293 52.4219C297.436 51.901 297.579 51.4128 297.723 50.957L301.668 38.5547H305.164L308.973 50.9375C309.168 51.5625 309.357 52.2135 309.539 52.8906C309.734 53.5677 309.91 54.2253 310.066 54.8633C310.223 55.4883 310.333 56.0482 310.398 56.543H310.555C310.607 56.1003 310.704 55.5534 310.848 54.9023C310.991 54.2513 311.154 53.5352 311.336 52.7539C311.531 51.9727 311.733 51.1784 311.941 50.3711L315.066 38.5547H318.367L312.449 59.9609H308.68ZM343.484 31.4453L332.859 60H329.656L340.301 31.4453H343.484ZM370.438 33.9648C368.862 33.9648 367.443 34.2383 366.18 34.7852C364.93 35.319 363.862 36.1003 362.977 37.1289C362.104 38.1445 361.434 39.375 360.965 40.8203C360.496 42.2656 360.262 43.8932 360.262 45.7031C360.262 48.099 360.633 50.1823 361.375 51.9531C362.13 53.7109 363.25 55.0716 364.734 56.0352C366.232 56.9987 368.1 57.4805 370.34 57.4805C371.616 57.4805 372.814 57.3763 373.934 57.168C375.066 56.9466 376.167 56.6732 377.234 56.3477V59.2383C376.193 59.6289 375.099 59.9154 373.953 60.0977C372.807 60.293 371.447 60.3906 369.871 60.3906C366.967 60.3906 364.539 59.7917 362.586 58.5938C360.646 57.3828 359.188 55.6771 358.211 53.4766C357.247 51.276 356.766 48.6784 356.766 45.6836C356.766 43.5221 357.065 41.5495 357.664 39.7656C358.276 37.9688 359.161 36.4193 360.32 35.1172C361.492 33.8151 362.924 32.8125 364.617 32.1094C366.323 31.3932 368.276 31.0352 370.477 31.0352C371.922 31.0352 373.315 31.1784 374.656 31.4648C375.997 31.7513 377.208 32.1615 378.289 32.6953L376.961 35.5078C376.049 35.0911 375.047 34.7331 373.953 34.4336C372.872 34.1211 371.701 33.9648 370.438 33.9648ZM392.664 38.2031C393.094 38.2031 393.543 38.2292 394.012 38.2812C394.48 38.3203 394.897 38.3789 395.262 38.457L394.852 41.4648C394.5 41.3737 394.109 41.3021 393.68 41.25C393.25 41.1979 392.846 41.1719 392.469 41.1719C391.609 41.1719 390.796 41.3477 390.027 41.6992C389.272 42.0378 388.608 42.5326 388.035 43.1836C387.462 43.8216 387.013 44.5964 386.688 45.5078C386.362 46.4062 386.199 47.4089 386.199 48.5156V60H382.938V38.5938H385.633L385.984 42.5391H386.121C386.564 41.7448 387.098 41.0221 387.723 40.3711C388.348 39.707 389.07 39.1797 389.891 38.7891C390.724 38.3984 391.648 38.2031 392.664 38.2031ZM407.547 38.2031C409.37 38.2031 410.932 38.6068 412.234 39.4141C413.536 40.2214 414.533 41.3542 415.223 42.8125C415.913 44.2578 416.258 45.9505 416.258 47.8906V49.9023H401.473C401.512 52.4154 402.137 54.3294 403.348 55.6445C404.559 56.9596 406.264 57.6172 408.465 57.6172C409.819 57.6172 411.017 57.4935 412.059 57.2461C413.1 56.9987 414.181 56.6341 415.301 56.1523V59.0039C414.22 59.4857 413.146 59.8372 412.078 60.0586C411.023 60.2799 409.773 60.3906 408.328 60.3906C406.271 60.3906 404.474 59.974 402.938 59.1406C401.414 58.2943 400.229 57.0573 399.383 55.4297C398.536 53.8021 398.113 51.8099 398.113 49.4531C398.113 47.1484 398.497 45.1562 399.266 43.4766C400.047 41.7839 401.141 40.4818 402.547 39.5703C403.966 38.6589 405.633 38.2031 407.547 38.2031ZM407.508 40.8594C405.776 40.8594 404.396 41.4258 403.367 42.5586C402.339 43.6914 401.727 45.2734 401.531 47.3047H412.859C412.846 46.0286 412.645 44.9089 412.254 43.9453C411.876 42.9688 411.297 42.2135 410.516 41.6797C409.734 41.1328 408.732 40.8594 407.508 40.8594ZM429.773 38.2422C432.326 38.2422 434.22 38.8151 435.457 39.9609C436.694 41.1068 437.312 42.9362 437.312 45.4492V60H434.949L434.324 56.8359H434.168C433.569 57.6172 432.944 58.2747 432.293 58.8086C431.642 59.3294 430.887 59.7266 430.027 60C429.181 60.2604 428.139 60.3906 426.902 60.3906C425.6 60.3906 424.441 60.1628 423.426 59.707C422.423 59.2513 421.629 58.5612 421.043 57.6367C420.47 56.7122 420.184 55.5404 420.184 54.1211C420.184 51.9857 421.03 50.3451 422.723 49.1992C424.415 48.0534 426.993 47.4284 430.457 47.3242L434.148 47.168V45.8594C434.148 44.0104 433.751 42.7148 432.957 41.9727C432.163 41.2305 431.043 40.8594 429.598 40.8594C428.478 40.8594 427.41 41.0221 426.395 41.3477C425.379 41.6732 424.415 42.0573 423.504 42.5L422.508 40.0391C423.471 39.5443 424.578 39.1211 425.828 38.7695C427.078 38.418 428.393 38.2422 429.773 38.2422ZM434.109 49.4531L430.848 49.5898C428.178 49.694 426.297 50.1302 425.203 50.8984C424.109 51.6667 423.562 52.7539 423.562 54.1602C423.562 55.3841 423.934 56.2891 424.676 56.875C425.418 57.4609 426.401 57.7539 427.625 57.7539C429.526 57.7539 431.082 57.2266 432.293 56.1719C433.504 55.1172 434.109 53.5352 434.109 51.4258V49.4531ZM450.906 57.7344C451.44 57.7344 451.987 57.6888 452.547 57.5977C453.107 57.5065 453.562 57.3958 453.914 57.2656V59.7852C453.536 59.9544 453.009 60.0977 452.332 60.2148C451.668 60.332 451.017 60.3906 450.379 60.3906C449.246 60.3906 448.217 60.1953 447.293 59.8047C446.368 59.401 445.626 58.724 445.066 57.7734C444.52 56.8229 444.246 55.5078 444.246 53.8281V41.1328H441.199V39.5508L444.266 38.2812L445.555 33.6328H447.508V38.5938H453.777V41.1328H447.508V53.7305C447.508 55.0716 447.814 56.0742 448.426 56.7383C449.051 57.4023 449.878 57.7344 450.906 57.7344ZM466.492 38.2031C468.315 38.2031 469.878 38.6068 471.18 39.4141C472.482 40.2214 473.478 41.3542 474.168 42.8125C474.858 44.2578 475.203 45.9505 475.203 47.8906V49.9023H460.418C460.457 52.4154 461.082 54.3294 462.293 55.6445C463.504 56.9596 465.21 57.6172 467.41 57.6172C468.764 57.6172 469.962 57.4935 471.004 57.2461C472.046 56.9987 473.126 56.6341 474.246 56.1523V59.0039C473.165 59.4857 472.091 59.8372 471.023 60.0586C469.969 60.2799 468.719 60.3906 467.273 60.3906C465.216 60.3906 463.419 59.974 461.883 59.1406C460.359 58.2943 459.174 57.0573 458.328 55.4297C457.482 53.8021 457.059 51.8099 457.059 49.4531C457.059 47.1484 457.443 45.1562 458.211 43.4766C458.992 41.7839 460.086 40.4818 461.492 39.5703C462.911 38.6589 464.578 38.2031 466.492 38.2031ZM466.453 40.8594C464.721 40.8594 463.341 41.4258 462.312 42.5586C461.284 43.6914 460.672 45.2734 460.477 47.3047H471.805C471.792 46.0286 471.59 44.9089 471.199 43.9453C470.822 42.9688 470.242 42.2135 469.461 41.6797C468.68 41.1328 467.677 40.8594 466.453 40.8594ZM509.5 60L505.984 50.9375H494.539L491.043 60H487.684L498.855 31.3281H501.844L512.938 60H509.5ZM504.988 47.9883L501.648 38.9844C501.57 38.75 501.44 38.3659 501.258 37.832C501.089 37.2982 500.913 36.7448 500.73 36.1719C500.548 35.599 500.398 35.1367 500.281 34.7852C500.151 35.319 500.008 35.8529 499.852 36.3867C499.708 36.9076 499.565 37.3958 499.422 37.8516C499.279 38.2943 499.155 38.6719 499.051 38.9844L495.652 47.9883H504.988ZM534.09 38.5938V60H531.434L530.965 56.9922H530.789C530.346 57.7344 529.773 58.3594 529.07 58.8672C528.367 59.375 527.573 59.7526 526.688 60C525.815 60.2604 524.884 60.3906 523.895 60.3906C522.202 60.3906 520.783 60.1172 519.637 59.5703C518.491 59.0234 517.625 58.1771 517.039 57.0312C516.466 55.8854 516.18 54.4141 516.18 52.6172V38.5938H519.461V52.3828C519.461 54.1667 519.865 55.5013 520.672 56.3867C521.479 57.2591 522.71 57.6953 524.363 57.6953C525.952 57.6953 527.215 57.3958 528.152 56.7969C529.103 56.1979 529.786 55.319 530.203 54.1602C530.62 52.9883 530.828 51.556 530.828 49.8633V38.5938H534.09ZM547.859 57.7344C548.393 57.7344 548.94 57.6888 549.5 57.5977C550.06 57.5065 550.516 57.3958 550.867 57.2656V59.7852C550.49 59.9544 549.962 60.0977 549.285 60.2148C548.621 60.332 547.97 60.3906 547.332 60.3906C546.199 60.3906 545.171 60.1953 544.246 59.8047C543.322 59.401 542.579 58.724 542.02 57.7734C541.473 56.8229 541.199 55.5078 541.199 53.8281V41.1328H538.152V39.5508L541.219 38.2812L542.508 33.6328H544.461V38.5938H550.73V41.1328H544.461V53.7305C544.461 55.0716 544.767 56.0742 545.379 56.7383C546.004 57.4023 546.831 57.7344 547.859 57.7344ZM573.66 49.2578C573.66 51.0156 573.432 52.5846 572.977 53.9648C572.521 55.3451 571.863 56.5104 571.004 57.4609C570.145 58.4115 569.103 59.1406 567.879 59.6484C566.668 60.1432 565.294 60.3906 563.758 60.3906C562.326 60.3906 561.01 60.1432 559.812 59.6484C558.628 59.1406 557.599 58.4115 556.727 57.4609C555.867 56.5104 555.197 55.3451 554.715 53.9648C554.246 52.5846 554.012 51.0156 554.012 49.2578C554.012 46.9141 554.409 44.9219 555.203 43.2812C555.997 41.6276 557.13 40.3711 558.602 39.5117C560.086 38.6393 561.85 38.2031 563.895 38.2031C565.848 38.2031 567.553 38.6393 569.012 39.5117C570.483 40.3841 571.622 41.6471 572.43 43.3008C573.25 44.9414 573.66 46.9271 573.66 49.2578ZM557.371 49.2578C557.371 50.9766 557.599 52.4674 558.055 53.7305C558.51 54.9935 559.214 55.9701 560.164 56.6602C561.115 57.3503 562.339 57.6953 563.836 57.6953C565.32 57.6953 566.538 57.3503 567.488 56.6602C568.452 55.9701 569.161 54.9935 569.617 53.7305C570.073 52.4674 570.301 50.9766 570.301 49.2578C570.301 47.5521 570.073 46.0807 569.617 44.8438C569.161 43.5938 568.458 42.6302 567.508 41.9531C566.557 41.276 565.327 40.9375 563.816 40.9375C561.59 40.9375 559.956 41.6732 558.914 43.1445C557.885 44.6159 557.371 46.6536 557.371 49.2578ZM589.324 38.2031C591.993 38.2031 594.122 39.1211 595.711 40.957C597.299 42.793 598.094 45.5534 598.094 49.2383C598.094 51.6732 597.729 53.7174 597 55.3711C596.271 57.0247 595.242 58.2747 593.914 59.1211C592.599 59.9674 591.043 60.3906 589.246 60.3906C588.113 60.3906 587.117 60.2409 586.258 59.9414C585.398 59.6419 584.663 59.2383 584.051 58.7305C583.439 58.2227 582.931 57.6693 582.527 57.0703H582.293C582.332 57.5781 582.378 58.1901 582.43 58.9062C582.495 59.6224 582.527 60.2474 582.527 60.7812V69.5703H579.266V38.5938H581.941L582.371 41.7578H582.527C582.944 41.1068 583.452 40.5143 584.051 39.9805C584.65 39.4336 585.379 39.0039 586.238 38.6914C587.111 38.3659 588.139 38.2031 589.324 38.2031ZM588.758 40.9375C587.273 40.9375 586.076 41.224 585.164 41.7969C584.266 42.3698 583.608 43.2292 583.191 44.375C582.775 45.5078 582.553 46.9336 582.527 48.6523V49.2773C582.527 51.0872 582.723 52.6172 583.113 53.8672C583.517 55.1172 584.174 56.0677 585.086 56.7188C586.01 57.3698 587.247 57.6953 588.797 57.6953C590.125 57.6953 591.232 57.3372 592.117 56.6211C593.003 55.9049 593.66 54.9089 594.09 53.6328C594.533 52.3438 594.754 50.8659 594.754 49.1992C594.754 46.6732 594.259 44.668 593.27 43.1836C592.293 41.6862 590.789 40.9375 588.758 40.9375ZM611.766 38.2422C614.318 38.2422 616.212 38.8151 617.449 39.9609C618.686 41.1068 619.305 42.9362 619.305 45.4492V60H616.941L616.316 56.8359H616.16C615.561 57.6172 614.936 58.2747 614.285 58.8086C613.634 59.3294 612.879 59.7266 612.02 60C611.173 60.2604 610.132 60.3906 608.895 60.3906C607.592 60.3906 606.434 60.1628 605.418 59.707C604.415 59.2513 603.621 58.5612 603.035 57.6367C602.462 56.7122 602.176 55.5404 602.176 54.1211C602.176 51.9857 603.022 50.3451 604.715 49.1992C606.408 48.0534 608.986 47.4284 612.449 47.3242L616.141 47.168V45.8594C616.141 44.0104 615.743 42.7148 614.949 41.9727C614.155 41.2305 613.035 40.8594 611.59 40.8594C610.47 40.8594 609.402 41.0221 608.387 41.3477C607.371 41.6732 606.408 42.0573 605.496 42.5L604.5 40.0391C605.464 39.5443 606.57 39.1211 607.82 38.7695C609.07 38.418 610.385 38.2422 611.766 38.2422ZM616.102 49.4531L612.84 49.5898C610.171 49.694 608.289 50.1302 607.195 50.8984C606.102 51.6667 605.555 52.7539 605.555 54.1602C605.555 55.3841 605.926 56.2891 606.668 56.875C607.41 57.4609 608.393 57.7539 609.617 57.7539C611.518 57.7539 613.074 57.2266 614.285 56.1719C615.496 55.1172 616.102 53.5352 616.102 51.4258V49.4531ZM622.605 38.5938H626.082L630.809 51.0156C631.082 51.7448 631.336 52.4479 631.57 53.125C631.805 53.7891 632.013 54.4271 632.195 55.0391C632.378 55.651 632.521 56.2435 632.625 56.8164H632.762C632.944 56.1654 633.204 55.3125 633.543 54.2578C633.882 53.1901 634.246 52.1029 634.637 50.9961L639.109 38.5938H642.605L633.289 63.1445C632.794 64.4596 632.215 65.6055 631.551 66.582C630.9 67.5586 630.105 68.3073 629.168 68.8281C628.23 69.362 627.098 69.6289 625.77 69.6289C625.158 69.6289 624.617 69.5898 624.148 69.5117C623.68 69.4466 623.276 69.3685 622.938 69.2773V66.6797C623.224 66.7448 623.569 66.8034 623.973 66.8555C624.389 66.9076 624.819 66.9336 625.262 66.9336C626.069 66.9336 626.766 66.7773 627.352 66.4648C627.951 66.1654 628.465 65.7227 628.895 65.1367C629.324 64.5508 629.695 63.8542 630.008 63.0469L631.18 60.0391L622.605 38.5938Z" fill="#043B73"/>
</svg>
