<svg width="33" height="36" viewBox="0 0 33 36" fill="none" xmlns="http://www.w3.org/2000/svg">
<path d="M4.27832 34.4884V26.9897M12.0662 34.4884V22.4126M20.8276 34.4884V19.1989M28.4532 34.4884V15.2061" stroke="white" stroke-width="2" stroke-linecap="round"/>
<path d="M0.249023 34.4885H32.4822" stroke="white" stroke-width="2"/>
<path d="M27.968 8.02412C28.1341 7.4974 27.8417 6.93577 27.315 6.76969L18.7316 4.06321C18.2049 3.89712 17.6432 4.18948 17.4772 4.7162C17.3111 5.24292 17.6034 5.80455 18.1301 5.97063L25.7598 8.37639L23.3541 16.0061C23.188 16.5328 23.4804 17.0944 24.0071 17.2605C24.5338 17.4266 25.0954 17.1343 25.2615 16.6075L27.968 8.02412ZM6.46686 19.5467L27.476 8.61042L26.5525 6.83638L5.54339 17.7727L6.46686 19.5467Z" fill="#14A84B"/>
</svg>
