<svg width="30" height="30" viewBox="0 0 30 30" fill="none" xmlns="http://www.w3.org/2000/svg">
<circle cx="15" cy="15" r="14.75" fill="white" stroke="#F5821F" stroke-width="0.5"/>
<path d="M12.3894 9.32633L11.094 7.58727C10.8091 7.20483 11.0841 6.66144 11.561 6.66456C11.6848 6.66536 11.8047 6.70641 11.9039 6.78042C12.3744 7.13146 13.0436 7.09331 13.4709 6.66593C13.9402 6.19667 14.7036 6.20837 15.1703 6.66593C15.598 7.09366 16.268 7.13152 16.7386 6.77949C16.8369 6.70596 16.9559 6.66536 17.0787 6.66453C17.5519 6.66141 17.8248 7.20053 17.5421 7.57997L16.2089 9.36977" stroke="#F5821F" stroke-width="0.6" stroke-miterlimit="10" stroke-linecap="round" stroke-linejoin="round"/>
<path d="M10.7051 12.6029L12.5593 10.6875" stroke="#F5821F" stroke-width="0.6" stroke-miterlimit="10" stroke-linecap="round" stroke-linejoin="round"/>
<path d="M16.9682 21.7388C16.4697 21.9082 15.9354 22.0001 15.3797 22.0001H13.2526C10.5275 22.0001 8.31836 19.791 8.31836 17.0658C8.31836 16.27 8.51065 15.4935 8.86995 14.7988" stroke="#F5821F" stroke-width="0.6" stroke-miterlimit="10" stroke-linecap="round" stroke-linejoin="round"/>
<path d="M16.0723 10.6875L18.9249 13.6342C19.3382 14.0612 19.667 14.555 19.9008 15.0897" stroke="#F5821F" stroke-width="0.6" stroke-miterlimit="10" stroke-linecap="round" stroke-linejoin="round"/>
<path d="M16.3699 10.6753H12.2625C11.9104 10.6753 11.625 10.3899 11.625 10.0378C11.625 9.68578 11.9104 9.40039 12.2625 9.40039H16.3699C16.722 9.40039 17.0074 9.68578 17.0074 10.0378C17.0074 10.3899 16.722 10.6753 16.3699 10.6753Z" stroke="#F5821F" stroke-width="0.6" stroke-miterlimit="10" stroke-linecap="round" stroke-linejoin="round"/>
<path d="M23.3628 20.2793H16.9883V22.0004H23.3628V20.2793Z" stroke="#F5821F" stroke-width="0.6" stroke-miterlimit="10" stroke-linecap="round" stroke-linejoin="round"/>
<path d="M18.2637 20.6762V20.2793" stroke="#F5821F" stroke-width="0.6" stroke-miterlimit="10" stroke-linecap="round" stroke-linejoin="round"/>
<path d="M19.5371 20.6762V20.2793" stroke="#F5821F" stroke-width="0.6" stroke-miterlimit="10" stroke-linecap="round" stroke-linejoin="round"/>
<path d="M20.8125 20.6762V20.2793" stroke="#F5821F" stroke-width="0.6" stroke-miterlimit="10" stroke-linecap="round" stroke-linejoin="round"/>
<path d="M22.0879 20.6762V20.2793" stroke="#F5821F" stroke-width="0.6" stroke-miterlimit="10" stroke-linecap="round" stroke-linejoin="round"/>
<path d="M23.3628 18.5586H16.9883V20.2797H23.3628V18.5586Z" stroke="#F5821F" stroke-width="0.6" stroke-miterlimit="10" stroke-linecap="round" stroke-linejoin="round"/>
<path d="M18.2637 18.9555V18.5586" stroke="#F5821F" stroke-width="0.6" stroke-miterlimit="10" stroke-linecap="round" stroke-linejoin="round"/>
<path d="M19.5371 18.9555V18.5586" stroke="#F5821F" stroke-width="0.6" stroke-miterlimit="10" stroke-linecap="round" stroke-linejoin="round"/>
<path d="M20.8125 18.9555V18.5586" stroke="#F5821F" stroke-width="0.6" stroke-miterlimit="10" stroke-linecap="round" stroke-linejoin="round"/>
<path d="M22.0879 18.9555V18.5586" stroke="#F5821F" stroke-width="0.6" stroke-miterlimit="10" stroke-linecap="round" stroke-linejoin="round"/>
<path d="M23.3628 15.1152H16.9883V16.8363H23.3628V15.1152Z" stroke="#F5821F" stroke-width="0.6" stroke-miterlimit="10" stroke-linecap="round" stroke-linejoin="round"/>
<path d="M18.2637 15.5121V15.1152" stroke="#F5821F" stroke-width="0.6" stroke-miterlimit="10" stroke-linecap="round" stroke-linejoin="round"/>
<path d="M19.5371 15.5121V15.1152" stroke="#F5821F" stroke-width="0.6" stroke-miterlimit="10" stroke-linecap="round" stroke-linejoin="round"/>
<path d="M20.8125 15.5121V15.1152" stroke="#F5821F" stroke-width="0.6" stroke-miterlimit="10" stroke-linecap="round" stroke-linejoin="round"/>
<path d="M22.0879 15.5121V15.1152" stroke="#F5821F" stroke-width="0.6" stroke-miterlimit="10" stroke-linecap="round" stroke-linejoin="round"/>
<path d="M23.9995 16.8359H17.625V18.5571H23.9995V16.8359Z" stroke="#F5821F" stroke-width="0.6" stroke-miterlimit="10" stroke-linecap="round" stroke-linejoin="round"/>
<path d="M18.9004 17.2329V16.8359" stroke="#F5821F" stroke-width="0.6" stroke-miterlimit="10" stroke-linecap="round" stroke-linejoin="round"/>
<path d="M20.1758 17.2329V16.8359" stroke="#F5821F" stroke-width="0.6" stroke-miterlimit="10" stroke-linecap="round" stroke-linejoin="round"/>
<path d="M21.4512 17.2329V16.8359" stroke="#F5821F" stroke-width="0.6" stroke-miterlimit="10" stroke-linecap="round" stroke-linejoin="round"/>
<path d="M22.7246 17.2329V16.8359" stroke="#F5821F" stroke-width="0.6" stroke-miterlimit="10" stroke-linecap="round" stroke-linejoin="round"/>
<path d="M15.9501 14.4938V14H12V14.4938H13.3578C13.6303 14.4946 13.893 14.5957 14.0956 14.7779C14.2983 14.96 14.4267 15.2104 14.4565 15.4813H12V15.9751H14.4565C14.4267 16.2459 14.2983 16.4963 14.0956 16.6785C13.893 16.8606 13.6303 16.9618 13.3578 16.9626H12V17.5415L14.3743 19.6783L14.7046 19.3114L12.6434 17.4563H13.3578C13.7618 17.4558 14.1506 17.303 14.4469 17.0284C14.7432 16.7539 14.9251 16.3778 14.9564 15.9751H15.9501V15.4813H14.9564C14.9281 15.1106 14.7714 14.7614 14.5133 14.4938H15.9501Z" fill="#F5821F"/>
</svg>
