<svg width="30" height="30" viewBox="0 0 30 30" fill="none" xmlns="http://www.w3.org/2000/svg">
<circle cx="15" cy="15" r="14.75" fill="white" stroke="#F5821F" stroke-width="0.5"/>
<path d="M20 8.75H10C9.60218 8.75 9.22064 8.90804 8.93934 9.18934C8.65804 9.47064 8.5 9.85218 8.5 10.25V19.75C8.5 20.1478 8.65804 20.5294 8.93934 20.8107C9.22064 21.092 9.60218 21.25 10 21.25H20C20.3978 21.25 20.7794 21.092 21.0607 20.8107C21.342 20.5294 21.5 20.1478 21.5 19.75V10.25C21.5 9.85218 21.342 9.47064 21.0607 9.18934C20.7794 8.90804 20.3978 8.75 20 8.75ZM20.5 19.75C20.5 19.8826 20.4473 20.0098 20.3536 20.1036C20.2598 20.1973 20.1326 20.25 20 20.25H10C9.86739 20.25 9.74021 20.1973 9.64645 20.1036C9.55268 20.0098 9.5 19.8826 9.5 19.75V10.25C9.5 10.1174 9.55268 9.99021 9.64645 9.89645C9.74021 9.80268 9.86739 9.75 10 9.75H20C20.1326 9.75 20.2598 9.80268 20.3536 9.89645C20.4473 9.99021 20.5 10.1174 20.5 10.25V19.75Z" fill="#F5821F"/>
<path d="M18.2504 14.2496C18.383 14.2496 18.5102 14.1969 18.604 14.1031C18.6977 14.0094 18.7504 13.8822 18.7504 13.7496C18.7504 13.617 18.6977 13.4898 18.604 13.396C18.5102 13.3023 18.383 13.2496 18.2504 13.2496H12.7079L13.3554 12.6021C13.4492 12.5083 13.5019 12.381 13.5019 12.2483C13.5019 12.1156 13.4492 11.9884 13.3554 11.8946C13.2616 11.8008 13.1343 11.748 13.0016 11.748C12.869 11.748 12.7417 11.8008 12.6479 11.8946L11.1479 13.3946C11.0775 13.4644 11.0295 13.5535 11.0099 13.6506C10.9903 13.7478 11 13.8485 11.0377 13.9402C11.0755 14.0318 11.1397 14.1101 11.222 14.1652C11.3044 14.2203 11.4013 14.2497 11.5004 14.2496H18.2504Z" fill="#F5821F"/>
<path d="M18.75 16H12C11.8674 16 11.7402 16.0527 11.6464 16.1464C11.5527 16.2402 11.5 16.3674 11.5 16.5C11.5 16.6326 11.5527 16.7598 11.6464 16.8536C11.7402 16.9473 11.8674 17 12 17H17.5425L16.895 17.6475C16.8012 17.7413 16.7485 17.8686 16.7485 18.0013C16.7485 18.1339 16.8012 18.2612 16.895 18.355C16.9888 18.4488 17.1161 18.5015 17.2487 18.5015C17.3814 18.5015 17.5087 18.4488 17.6025 18.355L19.1025 16.855C19.1729 16.7852 19.2209 16.6961 19.2405 16.599C19.2601 16.5018 19.2504 16.401 19.2127 16.3094C19.1749 16.2178 19.1107 16.1395 19.0284 16.0844C18.946 16.0293 18.8491 15.9999 18.75 16Z" fill="#F5821F"/>
</svg>
