<svg width="51" height="44" viewBox="0 0 51 44" fill="none" xmlns="http://www.w3.org/2000/svg">
<path d="M16.2386 22.6696C16.9053 22.2847 17.7386 22.7659 17.7386 23.5357L17.7386 36.5249C17.7386 37.2947 16.9053 37.7758 16.2386 37.3909L4.98963 30.8963C4.32296 30.5114 4.32296 29.5492 4.98963 29.1643L16.2386 22.6696Z" fill="#14A84B"/>
<path d="M33.7809 6.25998C33.1142 5.87508 32.2809 6.3562 32.2809 7.126L32.2809 20.1152C32.2809 20.885 33.1142 21.3661 33.7809 20.9812L45.0299 14.4866C45.6966 14.1017 45.6966 13.1395 45.0299 12.7546L33.7809 6.25998Z" fill="#EB5556"/>
<path d="M21.8603 11.9971H32.3547V15.3362H22.8143L20.8108 18.6753C20.2002 19.4386 19.1572 19.1842 18.712 18.9616C17.7198 18.4273 17.9169 17.2761 18.1396 16.7673L20.2384 12.8557C20.5437 12.1688 21.4469 11.9971 21.8603 11.9971Z" fill="#EB5556"/>
<path d="M28.0613 31.6863H17.5669V28.3471H27.1074L29.1108 25.008C29.7214 24.2448 30.7645 24.4992 31.2097 24.7218C32.2019 25.2561 32.0047 26.4073 31.7821 26.9161L29.6832 30.8276C29.3779 31.5146 28.4747 31.6863 28.0613 31.6863Z" fill="#14A84B"/>
</svg>
