<svg width="41" height="28" viewBox="0 0 41 28" fill="none" xmlns="http://www.w3.org/2000/svg">
<path d="M1.84717 1.01318V27.566" stroke="white" stroke-miterlimit="10"/>
<path d="M0.526367 2.3508L1.84728 1.1286L3.16819 2.3508V1.31377L1.84728 0.0922852L0.526367 1.31377V2.3508Z" fill="white"/>
<path d="M19.2842 8.84448H16.8369V15.6968H19.2842V8.84448Z" fill="#14A84B"/>
<path d="M6.06885 15.9414H3.62158V21.3254H6.06885V15.9414Z" fill="#EB5556"/>
<path d="M10.4739 15.9414H8.02661V24.2621H10.4739V15.9414Z" fill="#EB5556"/>
<path d="M14.8792 15.9414H12.4319V27.5659H14.8792V15.9414Z" fill="#EB5556"/>
<path d="M23.5669 6.76416H21.1196V15.6967H23.5669V6.76416Z" fill="#14A84B"/>
<path d="M27.8496 4.56177H25.4023V15.6968H27.8496V4.56177Z" fill="#14A84B"/>
<path d="M32.1326 1.99219H29.6853V15.6969H32.1326V1.99219Z" fill="#14A84B"/>
<path d="M36.415 6.76416H33.9678V15.6967H36.415V6.76416Z" fill="#14A84B"/>
<path d="M1.78638 15.8804H39.3519" stroke="white" stroke-miterlimit="10"/>
<path d="M38.2717 17.0249L39.331 15.8801L38.2717 14.7354H39.1705L40.2291 15.8801L39.1705 17.0249H38.2717Z" fill="white"/>
</svg>
