<svg width="30" height="30" viewBox="0 0 30 30" fill="none" xmlns="http://www.w3.org/2000/svg">
<circle cx="15" cy="15" r="14.75" fill="white" stroke="#F5821F" stroke-width="0.5"/>
<path d="M12.15 15.5402C10.3773 15.5402 8.98828 14.1511 8.98828 12.3785C8.98828 10.6058 10.3773 9.2168 12.15 9.2168C13.9226 9.2168 15.3117 10.6058 15.3117 12.3785C15.3117 14.1511 13.9226 15.5402 12.15 15.5402ZM12.15 10.2707C10.9485 10.2707 10.0422 11.177 10.0422 12.3785C10.0422 13.5799 10.9485 14.4863 12.15 14.4863C13.3514 14.4863 14.2578 13.5799 14.2578 12.3785C14.2578 11.177 13.3514 10.2707 12.15 10.2707Z" fill="#F5821F"/>
<path d="M18.2368 10.2695L19.15 9.74253L17.919 7.61155C17.7972 7.4006 17.606 7.23839 17.378 7.1525C17.1501 7.06661 16.8994 7.06236 16.6686 7.14046L15.386 7.57414C15.165 7.42534 14.934 7.29189 14.6947 7.17471L14.4296 5.84681C14.3817 5.6079 14.2525 5.39297 14.0641 5.23858C13.8756 5.08419 13.6394 4.99988 13.3957 5H10.9085C10.6648 4.9999 10.4286 5.08429 10.2401 5.23878C10.0516 5.39328 9.92244 5.60833 9.87467 5.84733L9.60961 7.17419C9.36722 7.29275 9.1322 7.42185 8.91035 7.5715L7.63514 7.14046C7.40438 7.06236 7.15369 7.06661 6.92571 7.1525C6.69774 7.23839 6.50656 7.4006 6.38469 7.61155L5.1411 9.76571C5.01934 9.9767 4.97443 10.2234 5.01401 10.4637C5.05359 10.7041 5.17522 10.9233 5.3582 11.0841L6.37574 11.9784C6.36678 12.1112 6.35571 12.2429 6.35571 12.3773C6.35571 12.5132 6.36098 12.6476 6.37047 12.7809L5.35873 13.6704C5.17566 13.8311 5.05393 14.0503 5.01425 14.2907C4.97457 14.5311 5.0194 14.7778 5.1411 14.9888L6.38469 17.143C6.50658 17.354 6.69785 17.5163 6.92594 17.6022C7.15403 17.6881 7.40484 17.6923 7.63567 17.6141L8.91826 17.1804C9.13852 17.329 9.36933 17.4623 9.60961 17.5798L9.87467 18.9072C9.92244 19.1462 10.0516 19.3613 10.2401 19.5158C10.4286 19.6702 10.6648 19.7546 10.9085 19.7545H12.1521V18.7006H10.9085L10.5344 16.83C10.0169 16.6377 9.53642 16.3575 9.11428 16.0016L7.29789 16.616L6.0543 14.4619L7.49023 13.1998C7.39202 12.6549 7.39077 12.0969 7.48654 11.5515L6.05377 10.2921L7.29789 8.1385L9.10374 8.74976C9.52886 8.39337 10.013 8.1141 10.5344 7.92456L10.9085 6.0539H13.3963L13.7704 7.92456C14.2879 8.11687 14.7684 8.39711 15.1905 8.75292L17.0069 8.1385L18.2368 10.2695Z" fill="#F5821F"/>
<path d="M24.87 13.9837V13H17V13.9837H19.7053C20.2482 13.9853 20.7715 14.1868 21.1752 14.5498C21.579 14.9127 21.8349 15.4116 21.8942 15.9512H17V16.935H21.8942C21.8349 17.4746 21.579 17.9736 21.1752 18.3365C20.7715 18.6994 20.2482 18.9009 19.7053 18.9025H17V20.0559L21.7304 24.3131L22.3885 23.5822L18.2818 19.8862H19.7053C20.5101 19.8851 21.2848 19.5807 21.8751 19.0337C22.4654 18.4867 22.8278 17.7373 22.8902 16.935H24.87V15.9512H22.8902C22.8338 15.2127 22.5215 14.5169 22.0073 13.9837H24.87Z" fill="#F5821F"/>
</svg>
