<svg width="30" height="30" viewBox="0 0 30 30" fill="none" xmlns="http://www.w3.org/2000/svg">
<circle cx="15" cy="15" r="14.75" fill="white" stroke="#F5821F" stroke-width="0.5"/>
<path d="M7.125 8.8125V12.5039C7.125 13.4344 7.88196 14.1914 8.8125 14.1914H12.5039C13.4344 14.1914 14.1914 13.4344 14.1914 12.5039V8.8125C14.1914 7.88196 13.4344 7.125 12.5039 7.125H8.8125C7.88196 7.125 7.125 7.88196 7.125 8.8125ZM8.25 8.8125C8.25 8.50214 8.50241 8.25 8.8125 8.25H12.5039C12.814 8.25 13.0664 8.50214 13.0664 8.8125V12.5039C13.0664 12.8143 12.814 13.0664 12.5039 13.0664H8.8125C8.50241 13.0664 8.25 12.8143 8.25 12.5039V8.8125Z" fill="#F5821F"/>
<path d="M7.125 21.1875C7.125 22.118 7.88196 22.875 8.8125 22.875H12.5039C13.4344 22.875 14.1914 22.118 14.1914 21.1875V17.4961C14.1914 16.5656 13.4344 15.8086 12.5039 15.8086H8.8125C7.88196 15.8086 7.125 16.5656 7.125 17.4961V21.1875ZM8.25 17.4961C8.25 17.1857 8.50241 16.9336 8.8125 16.9336H12.5039C12.814 16.9336 13.0664 17.1857 13.0664 17.4961V21.1875C13.0664 21.4979 12.814 21.75 12.5039 21.75H8.8125C8.50241 21.75 8.25 21.4979 8.25 21.1875V17.4961Z" fill="#F5821F"/>
<path d="M21.1875 15.8086H17.4961C16.5656 15.8086 15.8086 16.5656 15.8086 17.4961V21.1875C15.8086 22.118 16.5656 22.875 17.4961 22.875H21.1875C22.118 22.875 22.875 22.118 22.875 21.1875V17.4961C22.875 16.5656 22.118 15.8086 21.1875 15.8086ZM21.75 21.1875C21.75 21.4979 21.4976 21.75 21.1875 21.75H17.4961C17.186 21.75 16.9336 21.4979 16.9336 21.1875V17.4961C16.9336 17.1857 17.186 16.9336 17.4961 16.9336H21.1875C21.4976 16.9336 21.75 17.1857 21.75 17.4961V21.1875Z" fill="#F5821F"/>
<path d="M22.3125 10.0957H19.9043V7.6875C19.9043 7.37659 19.6524 7.125 19.3418 7.125C19.0312 7.125 18.7793 7.37659 18.7793 7.6875V10.0957H16.3711C16.0605 10.0957 15.8086 10.3473 15.8086 10.6582C15.8086 10.9691 16.0605 11.2207 16.3711 11.2207H18.7793V13.6289C18.7793 13.9398 19.0312 14.1914 19.3418 14.1914C19.6524 14.1914 19.9043 13.9398 19.9043 13.6289V11.2207H22.3125C22.6231 11.2207 22.875 10.9691 22.875 10.6582C22.875 10.3473 22.6231 10.0957 22.3125 10.0957Z" fill="#F5821F"/>
</svg>
