<svg xmlns="http://www.w3.org/2000/svg" width="222" height="157" fill="none" viewBox="0 0 222 157">
    <path fill="#EDF8FE" d="M93.203 43.896c1.642 0 26.898.048 28.54 0 .821-.048 1.063.242 1.063 1.063-.049 4.442 0 8.885 0 13.328-1.497-.193-2.946-.434-4.443-.628-.387-.048-.773-.193-1.159.097"/>
    <path fill="#BFDEFA" d="M176.94 129.759c4.54 0 9.127.096 13.667.048 3.332-.048 6.036 1.159 8.403 3.429 5.65 5.36 11.396 10.721 17.095 16.033 1.449 1.352 2.897 2.656 4.346 4.008.724.676 1.304 1.4.869 2.463-.434 1.062-1.352 1.255-2.366 1.255H4.539c-1.014.049-1.786-.29-2.124-1.255-.387-.966.048-1.691.724-2.318 2.173-2.077 4.298-4.153 6.471-6.23 3.236-3.091 6.423-6.278 9.755-9.32 2.076-1.932 3.96-4.057 6.181-5.795 1.884-1.497 4.057-2.222 6.471-2.222 1.208 0 2.415 0 3.574-.048.29 0 .531.048.82.048h35.93c.048.194.145.387.193.58.87 2.801 1.69 5.65 2.56 8.451 0 .869.53 1.594.579 2.414-1.835 1.498-3.67 2.946-5.505 4.443-.338.29-.435.676-.29 1.063.145.434.483.627.917.627h1.208c10.527-.048 21.103-.144 31.631-.193 13.425-.096 26.802-.145 40.227-.241.627 0 1.255 0 1.448-.724.242-.725-.386-.966-.821-1.304-2.221-1.449-4.442-2.946-6.664-4.395.58-2.125 1.159-4.25 1.835-6.326.483-1.449.725-2.994 1.401-4.395h16.177v5.844c-.772.241-1.593.386-2.366.676-.483.145-.917.386-.821 1.062 0 .676 0 1.352-.048 2.028-.048.676.483.821.917 1.015.966.434 2.029.676 3.043.869 5.312.869 10.672.869 15.984.386 2.029-.193 4.105-.435 6.037-1.255.386-.194.869-.387.869-.87.048-.531-.483-.772-.918-.966-1.11-.531-2.366-.724-3.525-.965-.048-.097-.145-.194-.193-.29.048-.628-.338-.869-.821-1.063-1.159-.531-2.366-.627-3.574-.869-.096-.676.338-.821.87-.917 1.255-.194 2.221-.87 2.945-1.835.628-.87.918-1.884 1.063-2.898.096-.048.193-.048.241-.048zM36.943 142.121c-.628.194-1.062.628-1.642 1.111 1.304.29 2.463.386 3.622.483 1.835.193 3.718.435 5.553.676.725.097 1.45 0 2.174-.241 4.587-1.401 9.223-2.753 13.811-4.153 2.125-.628 4.201-1.256 6.568-1.98-2.222-.773-4.202-1.449-6.182-2.077-.096-.096-.145-.241-.241-.338-.193-1.642-.386-1.787-1.932-1.304-5.408 1.69-10.865 3.332-16.274 5.023-1.207.386-2.56.386-3.574 1.352-.724.289-1.352.772-1.883 1.448z"/>
    <path fill="#EDF8FE" d="M72.292 129.808H36.364c-.29 0-.532 0-.822-.048-.24-1.111-1.014-1.98-1.545-2.946-2.221-3.863-4.201-7.872-5.747-12.073-.627-1.69-1.255-3.332-1.786-5.022-.097-.29-.145-.58-.145-.87 1.062-.096 2.125.145 3.187-.096.145-.048.29-.097.386-.145.29.386.725.241 1.111.241h18.882c1.787 0 1.787 0 1.787 1.835v10.383c0 .338-.097.725.193 1.063.338-.338.193-.725.193-1.063v-10.865c0-1.353 0-1.353 1.4-1.353h2.174c-.338 1.594-.724 3.188-1.063 4.781-.386.821 0 1.401.532 1.932 1.255 1.255 2.8 2.221 4.298 3.187 3.573 2.27 7.34 4.202 11.058 6.278.097.145.194.193.338.145v-.048c.677 1.448 1.014 3.09 1.497 4.684zM176.94 129.76c-.097 0-.145.048-.242.048 0-.096-.048-.193-.048-.29-.193-2.849-1.593-4.636-4.491-5.119-.483-.096-.435-.386-.483-.724-.048-.821.145-1.642-.096-2.463.144-.579-.338-.676-.725-.772-.676-.194-1.352-.338-2.028-.435-3.284-.435-6.616-.29-9.9.097 0-3.381.048-6.81-.048-10.19 0-.869.241-1.111 1.111-1.111 8.644.049 17.24 0 25.884 0-.145 1.449-.821 2.705-1.256 4.057-1.835 5.505-4.491 10.672-7.437 15.646-.144.435-.241.821-.241 1.256zM87.697 3.38c1.787 0 3.477-.724 5.264-.869 2.221-.193 4.395-.531 6.568-.772 1.98-.194 3.96-.242 5.94-.242 2.318 0 4.636 0 6.953.242 2.029.193 4.009.434 5.989.676 1.497.193 2.945.434 4.394.82v6.906c0 .676-.193.918-.917.918H88.566c-.676 0-.917-.193-.917-.918.048-2.318.048-4.54.048-6.76z"/>
    <path fill="#D8D6D6" d="M87.698 3.38c0 2.222 0 4.443-.049 6.665 0 .724.242.917.918.917h33.321c.676 0 .917-.241.917-.917-.048-2.318 0-4.588 0-6.906V.773c0-.194-.048-.435.194-.483.289-.049.338.241.386.483v2.366c-.29 2.221-.241 4.394-.048 6.616.096.917.241 1.352 1.207 1.159v.966c-.483.145-.966.29-1.497.483-.386-.435-.386-1.063-1.352-1.063-11.011.048-22.021.048-33.032 0-.917 0-1.11.338-1.11 1.16.048 4.49.048 8.982 0 13.473 0 .869 0 1.593.724 1.497-.724-.145-.724.58-.724 1.4.048 4.54.048 9.03 0 13.57 0 .821.193 1.11 1.062 1.11 1.545-.048 26.464 0 28.009 0 .048.146.097.242.145.387-1.545 0-26.56.048-28.106-.048-.869-.048-1.11.241-1.11 1.11.048 4.395 0 8.838 0 13.232-.145 0-.242.049-.387.049 0-4.443-.048-8.886 0-13.329 0-.917-.29-1.207-1.11-1.11-.58.048-1.208 0-1.787 0 0-.145 0-.29.048-.435h.29c.483 0 1.014-.048 1.497 0 .87.096 1.11-.242 1.11-1.11-.048-4.83-.048-9.66-.048-14.488 0-.242-.145-.387-.386-.387H67.463c0-.145 0-.29-.048-.434 6.278 0 12.556 0 18.882.048.87 0 .87-.435.87-1.062 0-4.54-.049-9.03 0-13.57 0-.918-.194-1.208-1.16-1.208-6.23.049-12.459.049-18.64 0-.483 0-.918.097-1.352.194-.194-.242-.483-.194-.725-.194H52.928c-.725 0-.918.29-.87.918.049 2.946 0 5.892 0 8.886v5.167c0 .58.194.82.821.82 4.733-.048 9.417-.048 14.15-.048v.628c-1.4 0-2.801 0-4.202-.048-3.428-.048-6.857.145-10.286-.145-.434-.048-.483.29-.483.58v14.68c0 .386.049.676.532.628v.435c-.58-.049-.532.338-.532.724v3.042c-.096.049-.241.049-.338.097 0-.966-.096-1.932-.048-2.898.048-.772-.241-1.014-1.014-1.014-2.85.049-5.699 0-8.596 0-.338 0-.676 0-.966.194 0-.194 0-.387.048-.628h9.61c.677 0 .918-.194.918-.87-.048-4.636-.048-9.32 0-13.956 0-.773-.29-.966-1.014-.917-1.883.048-3.719 0-5.602 0h-27.43c-.869 0-1.159.193-1.159 1.11.049 4.443 0 8.934 0 13.377 0 1.207.097 1.304 1.304 1.304H35.688c0 .145 0 .29.048.435H17.433c-.772 0-1.014.241-1.014 1.014.048 4.587.048 9.175 0 13.763 0 .773.242 1.014 1.014 1.014 3.043-.048 6.133 0 9.176 0h23.47c.048.145.048.241.096.386-7.968 0-15.985 0-23.953.049h-8.885c-.676 0-.918.193-.918.917.048 4.636.048 9.32 0 13.956 0 .676.242.918.918.918 1.883-.048 3.815 0 5.698 0h27.526c.773 0 1.063-.193 1.014-1.014-.048-1.932 0-3.864 0-5.795-.048-2.56.194-5.12-.145-7.679.194.097.339.194.532.29V74.66c0 .772.193 1.062 1.014 1.014 3.042-.048 6.133 0 9.175 0-.048.145-.145.241-.193.386-2.994 0-6.036.049-9.03 0-.725 0-.966.242-.966.966.048 2.221 0 4.443 0 6.664-.338.387-.483.049-.676-.145.338-.29.241-.676.241-1.014 0-1.787-.048-3.573 0-5.36 0-.821-.193-1.11-1.062-1.063-9.176.049-18.351 0-27.527.049h-5.36c-.87 0-1.255.241-1.255 1.207.048 2.753 0 5.505-.049 8.258-.193-.097-.338-.193-.531-.29 0-2.752-.048-5.457 0-8.21 0-.82-.241-1.013-1.014-1.013-4.54.048-9.03 0-13.57 0-.338 0-.724.144-1.11-.194.337-.29.675-.193 1.013-.193 4.492 0 8.983-.048 13.474 0 .869 0 1.207-.193 1.207-1.159-.048-4.105 0-8.21 0-12.266 0-2.366 0-2.366-2.415-2.366H1.16c-.338 0-.724.145-1.11-.193.337-.29.675-.194 1.013-.194 4.492 0 8.983-.048 13.474 0 .869 0 1.207-.193 1.207-1.158-.048-4.492-.048-8.983 0-13.474 0-.917-.241-1.207-1.159-1.207-4.491.048-8.982.048-13.473 0-.338 0-.725.096-1.111-.193.386-.29.773-.194 1.11-.194 4.444 0 8.935-.048 13.378 0 .965 0 1.255-.29 1.255-1.255-.048-4.491-.048-8.982 0-13.473 0-.821-.241-1.111-1.062-1.063-4.443.049-8.934 0-13.377 0H.918c-.29-.048-.821.193-.821-.29 0-.386.53-.29.82-.29 4.54 0 9.031-.048 13.57 0 .966 0 1.256-.24 1.256-1.207-.048-4.49-.048-8.982 0-13.473 0-.87-.241-1.11-1.11-1.11-4.54.048-9.031 0-13.57 0-.29 0-.677.144-.966-.194.338-.29.676-.193 1.014-.193h13.57c.82 0 1.11-.193 1.11-1.062-.048-2.85 0-5.747 0-8.596 0-.29 0-.532.049-.821 0-.145.096-.242.241-.29.193 0 .29.145.29.29v9.417c0 .772.193 1.014 1.014 1.014 11.01-.049 22.02-.049 33.031 0 .918 0 1.111-.338 1.111-1.208-.048-2.8 0-5.601 0-8.402 0-.338-.096-.725.145-1.111.386.29.242.676.242.966 0 2.897.048 5.795 0 8.692 0 .773.193 1.014 1.014 1.014 4.925-.048 9.851 0 14.777 0h18.35c.773 0 1.063-.241 1.015-1.014-.049-2.076 0-4.104 0-6.181V.048h.29c.434 1.256.24 2.318.338 3.332zM51.72 22.117v-9.465c0-1.303 0-1.303-1.304-1.303H17.723c-.773.048-1.159.338-1.159 1.207.048 4.443.048 8.934 0 13.377 0 .965.29 1.207 1.256 1.207 9.513-.048 19.026 0 28.54 0 1.449.241 2.897.145 4.346.193.821.048 1.11-.193 1.063-1.062-.097-1.352-.049-2.753-.049-4.154zM144.199 10.963h12.991c1.303 0 1.4-.097 1.4-1.449v-8.21c0-.337-.097-.724.193-1.11.29.386.193.773.193 1.11 0 2.898.049 5.796 0 8.693 0 .773.242.966.966.966h33.273c.773 0 .966-.242.966-.966-.048-2.85 0-5.747 0-8.596 0-.338-.097-.724.145-1.11.386.29.241.676.241.965 0 2.898.049 5.795 0 8.693 0 .772.242 1.014 1.014 1.014 4.588-.048 9.176 0 13.763 0 .338 0 .725-.145 1.111.193-.338.29-.676.193-1.014.193-4.539 0-9.127.049-13.666 0-.87 0-1.208.193-1.208 1.16.049 4.49.049 8.981 0 13.473 0 .917.193 1.207 1.159 1.207 4.54-.049 9.031 0 13.57 0h.821c.193 0 .338.048.386.241.049.29-.193.29-.386.338H196.257c-.193 0-.434.049-.579 0-1.014-.338-1.014.242-1.014.966v10.093c0 1.256.048 2.511 0 3.815-.048.773.241.966.966.966 4.587-.048 9.175 0 13.763 0 .338 0 .724-.097 1.11.145-.289.386-.676.241-.965.241-4.588 0-9.176.049-13.763 0-.87 0-1.159.242-1.111 1.111.048 4.54.048 9.127 0 13.667 0 .82.241 1.014 1.014 1.014 4.588-.049 9.175 0 13.763 0 .338 0 .724-.145 1.111.193-.338.29-.676.193-1.014.193-4.54 0-9.031.048-13.57 0-.918 0-1.401.193-1.352 1.159-.097-.048-.194-.048-.29-.097.096-.82-.242-1.062-1.063-1.062-2.028.048-4.056-.048-6.084-.048.048-.097.048-.194.096-.338 1.98 0 4.008-.049 5.988 0 .821 0 1.063-.242 1.063-1.063-.049-4.54-.049-9.079 0-13.666 0-.821-.193-1.111-1.063-1.111-4.732.048-9.417 0-14.149 0-6.278 0-12.556 0-18.882-.048-.869 0-1.159.241-1.111 1.11.049 4.491.049 8.983 0 13.474 0 .966.242 1.255 1.208 1.207 8.402-.048 16.757 0 25.159 0 .049.145 0 .29-.144.386h-25.112c-.869 0-1.207.194-1.159 1.111.096.966.048 1.98.048 2.994 0 .242-.145.435-.386.531-.338-.241-.242-.58-.242-.917 0-.821-.048-1.642 0-2.463.097-.918-.193-1.304-1.207-1.256-1.69.097-3.38 0-5.07.049-.097-.145-.145-.242-.242-.387 1.787 0 3.525-.048 5.312 0 .869.049 1.207-.193 1.207-1.159-.048-4.49-.048-8.982 0-13.473 0-1.014-.338-1.207-1.255-1.207-5.843.048-11.735 0-17.578 0v-.387h13.763c.193.145.386.145.628 0 1.207 0 2.414-.048 3.573 0 .821.049 1.014-.241 1.014-1.014-.048-4.636-.048-9.223 0-13.86 0-.869-.241-1.11-1.11-1.11-4.733.048-9.417.048-14.15 0-.386 0-.821.193-1.111-.242 5.071 0 10.142 0 15.261.049.724 0 1.014-.387 1.014-.918.048-2.27.289-4.588-.145-6.857.338-2.367.145-4.781.241-7.147 0-.773-.241-1.063-1.062-1.063-3.767.049-7.582 0-11.349.049h-20.958v-.387c6.278-.048 12.604-.048 18.93-.048zm20.959 16.322c0 .097 0 .145.048.242-1.69 0-3.38.048-5.071 0-.869-.048-1.159.29-1.159 1.159.049 4.588.049 9.175 0 13.763 0 .82.193 1.11 1.063 1.11 6.133-.048 12.218 0 18.351 0h14.873c.58 0 .966-.048.966-.772V28.541c0-.58-.241-.773-.772-.773h-21.635c-.531 0-.821.145-.773.725 0 .241 0 .483-.145.676-.145-.725-.048-1.449 0-2.173.242.193.532.193.87.193h21.586c.724 0 .917-.242.917-.918 0-4.636-.048-9.32 0-13.956 0-.724-.241-.917-.917-.917h-33.37c-.724 0-.917.29-.917.917.048 2.753 0 5.505 0 8.258v5.892c0 .675.241.917.917.917 1.642-.097 3.429-.097 5.168-.097z"/>
    <path fill="#3DA23F" d="M62.102 76.252c.049-.145.145-.241.194-.386.193-.435.386-.821.627-1.256.435-.869 1.015-.869 1.546-.048.676 1.014.676 1.014 1.449.193-.194 1.063-.532 2.077-1.063 3.043-.386-.194-.531-.58-.724-.918-.29-.531-.531-.483-.773.048l-1.883 4.057c-.435 1.062-1.16 2.028-1.352 3.187-.387.386-.628.82-.628 1.352-.097.145-.242.29-.338.483-.918 2.028-1.835 4.057-2.753 6.036-.241.58-.483 1.208-1.304 1.111-.048-.048-.145-.096-.193-.145-.145-.241-.338-.386-.58-.434-.096-.049-.24-.145-.337-.194-.532-.917-1.4-1.4-2.27-1.931-.338-.58-.676-.531-1.014-.048-.338.53-.725 1.062-1.063 1.641-.145.194-.241.387-.386.58-1.062 1.497-2.077 2.994-3.187 4.443-.58.772-1.014 1.593-1.256 2.56-.241 1.158-.531 1.207-1.593.579-.966-.58-1.69-1.546-2.705-2.028-.29-.339-.58-.725-1.014-.918-.048-.193-.145-.338-.386-.386-.338-.435-.821-.725-1.256-1.063-.145-.29-.386-.53-.724-.58-.483-.579-1.11-.965-1.69-1.4-.145-.29-.387-.53-.725-.58-.145-.24-.338-.385-.58-.434-.048-.048-.144-.096-.192-.193-.049-.048-.049-.048-.097-.048-.338-.58-.821-.918-1.545-.87-.58.049-1.208.049-1.787 0-.918-.096-1.642.194-2.173.918h-.049c-.241.048-.338.193-.386.386-.193.145-.434.29-.628.483-.772.821-1.497.725-2.318.049-.483-.387-.966-.821-1.593-.918-.145-.29-.338-.483-.628-.58-2.077-1.593-4.153-3.138-6.423-4.442-.048-.049-.145-.097-.193-.194-.242-.193-.435-.386-.676-.579-.338-.241-.676-.483-.531-.966.144-.483.58-.434.965-.434.194.096.338.193.532.29.29.675 1.014.772 1.545 1.158 1.497 1.111 2.994 2.27 4.636 3.188.676.724 1.545 1.11 2.318 1.738.773.676 1.497.628 2.27-.097.483-.482 1.014-1.207 1.642-1.207 2.221 0 4.636-.773 6.422 1.352.338.387.725.676 1.16.966 1.158.966 2.172 2.125 3.573 2.753.724 1.207 1.98 1.787 2.946 2.704.29.29.58-.048.676-.386.145-.29.29-.58.434-.821.966-.725 1.498-1.739 1.98-2.85.87-.482 1.208-1.303 1.642-2.124.049-.049.097-.145.194-.193.627-.87 1.303-1.739 1.931-2.656.87-1.208.87-1.208 2.173-.58.097.338.29.531.628.58.048.048.145.096.193.193.242.386.58.676 1.014.82.097.194.242.29.435.387.821.87.966.87 1.352-.386.193-.145.242-.338.242-.58.627-.917 1.062-1.98 1.4-2.994 0-.048.048-.048.048-.096 0-.049 0-.145-.048-.194.628-.627.918-1.448 1.11-2.27.387-.337.629-.772.629-1.303 1.352-2.125 2.173-4.395 3.139-6.568z"/>
    <path fill="#FB462E" d="M194.132 61.137c.097.048.193.048.29.097.241.386.145.82.048 1.207-.145.145-.241.29-.386.435-1.739 1.786-3.429 3.622-4.974 5.553-.049.097-.145.193-.194.242-.096.048-.144.145-.241.193-.048.048-.097.145-.193.193l-.193.193-.194.193c-2.028 2.029-3.911 4.202-5.794 6.375-.049.096-.097.193-.145.338-.338.096-.532.338-.773.628-.773.869-1.594 1.69-2.366 2.56-.435.53-.87.53-1.304 0-.387-.484-.821-.967-1.207-1.45-.387-.53-.628-.386-.918.097-.821 1.352-1.69 2.704-2.511 4.056-.435.725-.918.773-1.497.145-.869-.869-.869-.869-1.497.194-.097.193-.242.386-.338.627-.676 1.16-.918 1.208-1.835.29-.435-.483-.676-.435-1.063.097-.434.676-.917 1.303-1.4 1.931-.676.87-1.014.87-1.594-.096-1.062-1.739-2.221-3.477-3.235-5.264-.483-.87-1.015-1.11-1.932-.918h-.193c-2.028 0-4.057-.193-6.085 0-2.077.194-3.574-.483-4.974-1.98-1.062-1.159-2.173-2.366-3.574-3.235-.386-.918-.724-1.787-.917-2.753.579.242.917.725 1.352 1.111 1.4 1.256 2.656 2.608 4.105 3.718l.29.29c.531.628 1.014 1.4 1.931 1.4 2.608 0 5.264-.048 7.872-.048h.241c1.69-.29 2.56.676 3.284 2.077.676 1.304 1.497 2.511 2.27 3.767.338.53.531.676.917.048.435-.676.918-1.304 1.401-1.932.386-.531.821-.628 1.255-.145.725.918 1.111.628 1.449-.29.097-.193.193-.337.29-.53.821-1.305.917-1.305 2.028-.242.242.241.531.676.869.097.87-1.498 2.029-2.898 2.656-4.54h-.048c.193 0 .29-.096.338-.241.145-.049.29-.145.386-.194h.194c.144.049.241.097.386.194.097.048.145.144.241.193.242.338.387.773.821 1.014.049.048.097.145.145.193.338.338.483 1.449 1.256.386l.193-.193c.531-.338.869-.869 1.207-1.4.338-.193.58-.483.773-.821.386-.242.676-.58.869-.966.435-.338.821-.773 1.111-1.207.29-.193.531-.435.628-.773.289-.145.434-.338.627-.628.194-.193.387-.386.58-.627.386-.242.676-.58.869-.966.048-.049.097-.097.145-.194.242-.144.483-.337.58-.627.338-.193.579-.483.772-.821.049 0 .097-.049.097-.097.145-.096.29-.241.241-.434v.048c.242-.048.387-.242.531-.483l.194-.193.193-.193c.048-.049.096-.145.193-.194.241-.096.386-.338.483-.58.241-.144.435-.337.531-.579.048-.096.145-.144.193-.241l.193-.193c.049-.049.097-.145.194-.193.338-.194.531-.435.676-.773.579-.628 1.207-1.256 1.786-1.932.483-.386.725-.966 1.401-1.014z"/>
    <path fill="#D8D6D6" d="M158.59 79.054h.193c.241.386.193.82.193 1.255v10.576c0 1.304 0 1.304 1.256 1.304h27.719c.386 0 .821 0 1.159-.193h4.201c.628 0 .821-.242.821-.821v-14.15c0-.628-.241-.82-.821-.82-1.4.048-2.801 0-4.201 0-2.318-.049-4.588.096-6.906-.097.049-.097.097-.193.145-.338h6.568c1.352 0 2.704-.049 4.056 0 .87.048 1.159-.193 1.159-1.111-.048-3.96-.048-7.968-.048-11.928.145-.145.242-.29.386-.435 0 4.105.049 8.162 0 12.266 0 .918.242 1.208 1.159 1.16 4.54-.049 9.127 0 13.667 0 .338 0 .724-.097 1.062.193-.386.29-.772.193-1.11.193-4.54 0-9.031.048-13.57 0-.966 0-1.256.29-1.256 1.255.048 4.492.048 8.983 0 13.474 0 .82.193 1.11 1.063 1.062 4.539-.048 9.127 0 13.666 0h.821c.193 0 .338.048.386.242.049.29-.193.29-.386.338h-14.391c-.869 0-1.159.193-1.159 1.11.048 4.491.048 8.983 0 13.474 0 .966.338 1.255 1.256 1.255 4.491-.048 8.982 0 13.473 0h1.207c-.338.531-.724.387-1.014.387h-13.377c-1.69 0-1.545-.145-1.545 1.593v10.576c0 .338.097.724-.145 1.111-.386-.29-.241-.676-.241-.966 0-3.719-.049-7.437 0-11.204 0-.869-.242-1.159-1.111-1.11-2.366.048-4.733 0-7.099 0h-25.884c-.869 0-1.159.241-1.111 1.11.048 3.381 0 6.809.048 10.19-.144 0-.289.048-.386.048 0-3.38-.048-6.761 0-10.189 0-1.015-.29-1.256-1.255-1.208-.918.097-1.884 0-2.801 0-.145-.096-.145-.241-.145-.386 1.062 0 2.125-.048 3.187 0 .724.048.966-.241.966-.966-.048-4.636-.048-9.32 0-13.956 0-.87-.338-1.063-1.111-1.063-2.076.049-4.201 0-6.278 0-.289 0-.628.145-.869-.193 2.415 0 4.733-.048 7.099 0 .917 0 1.207-.29 1.207-1.207.048-3.863.097-7.823.097-11.831zm27.526 29.361h7.051c.579 0 .965-.048.917-.773V93.396c0-.531-.193-.772-.773-.772-1.497 0-2.994.096-4.442-.194h-28.637c-1.208 0-1.304.097-1.304 1.304v13.57c0 .773.145 1.111 1.014 1.111h26.174z"/>
    <path fill="#EDF8FE" d="M144.2 10.962h-18.979c-.145-.676.241-1.497-.435-2.27-.289.87-.048 1.546-.193 2.27-.966.193-1.159-.242-1.207-1.159-.193-2.221-.242-4.395.048-6.616 3.332.918 6.713 1.739 9.997 2.85 2.414.82 4.829 1.786 7.147 2.897.821.386 1.593.917 2.463 1.207.434.097 1.014.193 1.159.821zM87.263 3.767c0 2.076-.049 4.105 0 6.181 0 .773-.242 1.014-1.014 1.014-6.133-.048-12.267 0-18.351 0 .386-.82 1.304-.917 1.931-1.207 2.27-.966 4.492-2.125 6.906-2.946 2.56-.87 5.119-1.787 7.727-2.511.917-.29 1.835-.676 2.8-.531z"/>
    <path fill="#FB462E" d="M39.503 97.26c.434.192.724.579 1.014.917-.724 1.98-1.449 3.96-2.125 5.988-.193.579-.628.918-1.11.628-1.111-.725-1.787-.049-2.463.628-.338.338-.725.579-1.063.917-.241.193-.531.338-.82.145-.629-.386-.967-.048-1.353.386-.434.483-.87.918-1.304 1.352-.096.145-.241.29-.338.387-.145.048-.29.096-.386.145-.242-.097-.531-.193-.773-.29-.483-.724-1.304-1.111-1.883-1.739-.435-.482-.821-.434-1.256-.096-.724.531-1.497.966-2.221 1.449-.338.241-.725.483-1.063.724-1.062.676-2.125 1.352-3.235 1.98-.435.241-.918.628-1.304.048-.435-.676.193-.917.58-1.207.338-.242.724-.483 1.062-.724.241-.049.434-.194.58-.387 1.496-.821 2.945-1.69 4.346-2.752.193-.049.338-.097.434-.29.193 0 .338-.048.435-.242.966-.724 1.69-.434 2.463.338 1.642 1.546 1.69 1.497 3.284-.048.193-.193.386-.386.58-.531.24-.242.579-.386.917-.193.58.386.965.096 1.352-.338.434-.435.917-.773 1.352-1.159.435-.435.87-.58 1.4-.242.532.29.773.097.918-.386.531-1.594 1.11-3.187 1.642-4.78.145-.242.241-.436.338-.629z"/>
    <path fill="#D8D6D6" d="M20.04 108.462c-.144.193-.337.338-.579.387-2.897-.145-2.897-.145-2.897 2.752v9.369c0 .338.193.917-.29.869-.483 0-.29-.58-.29-.918 0-3.718-.048-7.388 0-11.107 0-.821-.241-1.062-1.062-1.062-4.54.048-9.03 0-13.57 0-.338 0-.725.097-1.111-.193.386-.29.773-.193 1.11-.193 4.443 0 8.935-.049 13.377 0 .918 0 1.256-.194 1.256-1.208-.048-4.491-.048-8.982 0-13.473 0-.87-.193-1.159-1.11-1.159-4.202.048-8.403.048-12.605 0-.58 0-1.11-.097-1.69-.097-.145 0-.338.049-.338-.193 0-.193.145-.29.338-.29H1.4c4.491 0 8.982-.048 13.473 0 .918 0 1.111-.29 1.111-1.159 0-1.159-.097-2.366.193-3.525.049.049.145.097.193.193.097 1.208.29 2.367.194 3.574-.049.724.29.918.917.87 1.787-.05 3.525 0 5.312 0 .29.096.483.289.628.579-.097 0-.145 0-.241.048-1.884 0-3.816.048-5.699 0-.676 0-.918.241-.918.918.049 2.173 0 4.394 0 6.567v7.389c0 .434-.144.917.677.821.917 0 1.883.193 2.8.241zM22.31 108.801c.338-.241.724-.483 1.062-.724 1.787.386 3.574.386 5.36.338.242.096.532.193.773.289-1.062.242-2.125.049-3.187.097H22.31z"/>
    <path fill="#D2D2D2" d="M75.673 141.205c-.048-.821-.58-1.546-.58-2.415.242-.097.483-.193.773-.241 3.719-.483 7.292-1.642 10.77-2.946 2.897-1.063 5.698-2.366 8.45-3.767 2.994-1.497 5.94-3.139 8.838-4.926.338.049.724.097 1.062.145 1.497.338 2.897.29 4.298-.483 1.787-1.014 2.463-2.463 2.028-4.443 1.546-.724 2.801-1.835 4.202-2.8 2.462-1.739 4.974-3.429 7.34-5.264 3.525-2.705 7.002-5.554 10.479-8.355.628-.483 1.304-.917 1.545-1.786 1.208-.049 2.367-.049 3.574-.097 2.27 0 4.588.145 6.857 0 1.932-.097 3.139 1.159 2.463 3.236-1.207 3.718-2.269 7.485-3.38 11.203-.676 2.222-1.304 4.491-1.98 6.713-.531 1.545-1.159 3.042-1.4 4.684-.628 1.4-.918 2.946-1.401 4.395-.676 2.076-1.207 4.249-1.835 6.326-.966 2.269-2.753 2.945-5.119 2.897-17.385-.048-34.77-.048-52.107 0-2.076.193-3.718-.29-4.877-2.076z"/>
    <path fill="#E4E4E4" d="M134.83 104.02c-.193.821-.917 1.256-1.545 1.787-3.477 2.801-6.954 5.602-10.479 8.354-2.415 1.835-4.878 3.526-7.341 5.264-1.4.966-2.656 2.077-4.201 2.801-.29-.145-.435-.386-.628-.628-1.883-2.559-6.712-2.366-8.306.386-.579.966-.628 1.98-.097 3.091.387.821 1.401 1.063 1.642 1.932-2.897 1.738-5.795 3.38-8.837 4.926-2.753 1.4-5.554 2.656-8.451 3.766-3.525 1.304-7.05 2.463-10.77 2.946-.24.048-.482.145-.772.242-.869-2.801-1.69-5.651-2.56-8.451-.047-.194-.144-.387-.192-.58-.483-1.594-.821-3.187-1.45-4.733-.53-1.98-1.062-3.959-1.786-5.843-.097-.386-.145-.773-.29-1.159-.676-2.463-1.545-4.877-2.124-7.388 0-.338 0-.677-.049-.966-.434-1.69-1.159-3.332-.58-5.167v.048c.097-.048.194-.145.242-.193h-.048c.338.048.724.048 1.062.096.483.097.918.097 1.16-.434 1.303-.049 2.655-.097 3.96-.097.144.048.289.097.434.097.773.627 1.497.531 2.27 0l.096.048.145.145-.145-.145.048-.048.097.048c1.304 0 2.608 0 3.912-.048.434 0 .869.386 1.303-.097.29.048.628.097.918.145.193.483.386.483.58 0 .386 0 .724-.048 1.11-.048h15.936c1.401 0 2.801.048 4.154.048.627.724 1.159.724 1.98 0 .289-.097.531-.097.82 0 .242.579.725.338 1.111.338 5.167 0 10.335-.097 15.453.048 4.057.097 8.065-.483 12.073-.434l.145-.097zm-45.829 1.835c-.386-.338-.772-.193-1.11-.193H67.512c-.242 0-.531-.048-.531.29 0 .386.338.145.53.145.387 0 .725-.049 1.112-.049h19.171c.338-.048.773.097 1.207-.193z"/>
    <path fill="#A8A8A8" d="M75.673 141.204c1.159 1.787 2.849 2.27 4.877 2.222 17.385-.048 34.77-.048 52.107 0 2.366 0 4.153-.676 5.119-2.898 2.221 1.449 4.442 2.898 6.664 4.395.483.29 1.062.579.821 1.304-.242.724-.821.724-1.449.724-13.425.048-26.802.145-40.227.242-10.527.048-21.103.144-31.63.193h-1.208c-.435 0-.773-.242-.918-.628-.144-.435-.048-.773.29-1.062 1.883-1.546 3.719-2.995 5.554-4.492z"/>
    <path fill="#127CDD" d="M171.628 121.164c.242.821.048 1.642.097 2.463 0 .338 0 .676.483.724 2.897.483 4.298 2.27 4.491 5.119 0 .097.048.193.048.29-.145 1.062-.435 2.028-1.062 2.897-.725 1.015-1.69 1.642-2.946 1.836-.531.096-.966.193-.869.917-.483 2.028-.87 2.463-2.946 2.704-2.801.338-5.602.29-8.451.049-1.69-.145-2.898-.773-3.236-2.56v-5.843c.193-1.014.097-2.077.097-3.091.048-1.786-.097-3.573.096-5.36 3.622.917 7.341.966 11.059.579 1.063-.048 2.173-.144 3.139-.724zm.145 8.644c0 .773 0 1.594-.048 2.367 0 .482.241.676.676.531.869-.29 2.366-1.401 2.366-2.946.097-1.642-.821-2.994-2.173-3.429-.579-.145-.918-.145-.869.58.048.966.048 1.931.048 2.897z"/>
    <path fill="#EDF8FE" d="M157.431 121.357c-.193 1.786-.048 3.573-.097 5.36-.048 1.014.097 2.077-.096 3.091H141.06c.242-1.642.821-3.139 1.401-4.685 3.235-1.98 6.374-4.153 9.368-6.471 1.256-.966 2.511-1.931 3.525-3.187.435-.531.725-1.111.338-1.787-.193-1.642-.821-3.139-1.062-4.781.918 0 1.883.049 2.801 0 .917-.096 1.255.194 1.255 1.208-.048 3.38 0 6.76 0 10.189-.482.29-1.545 0-1.255 1.063z"/>
    <path fill="#A8A8A8" d="M60.847 135.94c1.98.677 3.96 1.353 6.182 2.077-2.367.724-4.491 1.304-6.568 1.98-4.636 1.4-9.224 2.753-13.811 4.153-.725.193-1.4.338-2.173.241-1.835-.241-3.67-.434-5.554-.676v-.096c.29-.049.58-.049.821-.242.435.049.87-.145 1.256-.241 6.326-1.932 12.604-3.912 18.93-5.795.87-.29 1.11-.628.917-1.401z"/>
    <path fill="#D2D2D2" d="M154.002 139.37c0-.676 0-1.352.049-2.028.676.241 1.255.676 2.028.821 2.318.483 4.732.676 7.099.772 2.076.049 4.153.049 6.278-.144 2.366-.194 4.684-.435 6.857-1.449.048.096.145.193.193.29-.338 2.124-.483 2.269-2.608 2.704h-.096c-4.974.917-9.948.869-14.971.338-1.738-.145-3.428-.338-4.829-1.304z"/>
    <path fill="#3DA23F" d="M38.875 140.625c1.014-.966 2.366-.966 3.574-1.352 5.408-1.739 10.817-3.38 16.274-5.022 1.545-.483 1.738-.338 1.931 1.303-2.318.483-4.539 1.304-6.76 1.98-4.83 1.449-9.659 2.946-14.488 4.443-.193-.483-.386-.917-.531-1.352z"/>
    <path fill="#A8A8A8" d="M154.001 139.37c1.401.966 3.091 1.159 4.733 1.352 4.974.531 9.996.58 14.97-.338h.097c2.173-.435 2.318-.579 2.607-2.704 1.208.241 2.415.434 3.526.966.434.193.917.386.917.965-.048.483-.483.676-.869.87-1.932.869-3.96 1.062-6.036 1.255-5.361.483-10.673.483-15.985-.386-1.062-.193-2.076-.435-3.042-.869-.483-.29-.966-.435-.918-1.111z"/>
    <path fill="#BA7C18" d="M39.406 141.929c4.829-1.497 9.658-2.994 14.487-4.443 2.27-.676 4.443-1.497 6.761-1.98.097.096.145.241.241.338.194.773-.096 1.111-.917 1.4-6.326 1.884-12.652 3.864-18.93 5.795-.387.145-.821.29-1.256.242-.193-.387-.29-.869-.386-1.352z"/>
    <path fill="#F8F7F7" d="M176.216 137.39c-2.173 1.014-4.491 1.255-6.857 1.448-2.077.194-4.202.194-6.278.145-2.367-.048-4.733-.241-7.099-.772-.725-.145-1.304-.628-2.029-.821-.096-.628.339-.918.821-1.063.773-.241 1.546-.434 2.367-.676.338 1.787 1.545 2.415 3.235 2.56 2.801.241 5.602.289 8.451-.049 2.077-.241 2.511-.676 2.946-2.704 1.207.241 2.415.338 3.574.869.531.193.965.435.869 1.063z"/>
    <path fill="#EDF8FE" d="M39.407 141.929c.096.483.24.966.338 1.4-.242.193-.532.193-.822.242-.096-.049-.24-.193-.337-.193-.918.096-1.45-.29-1.45-1.256 0-.048-.096-.048-.192-.097.53-.676 1.11-1.159 1.931-1.497.145.532.338.966.532 1.401z"/>
    <path fill="#2D4A5C" d="M36.943 142.123c.048.048.193.048.193.096 0 .966.531 1.352 1.449 1.256.096 0 .241.096.338.193v.096c-1.16-.096-2.318-.144-3.622-.482.58-.532 1.014-.966 1.642-1.159zM72.486 103.924c-1.304.048-2.656.096-3.96.096-.773-.048-1.546-.241-2.222.338h.049c-.097.049-.194.145-.242.194v-.049c-.724.483-.82 1.208-.628 1.932.387 1.4.87 2.801 1.304 4.201.58 2.512 1.449 4.926 2.125 7.389l.29 1.159c-.338.241-.628.097-.918-.097-2.221-1.255-4.394-2.559-6.47-4.056-1.111-.773-2.319-1.352-3.67-1.787-1.208-.386-2.27.145-3.43.242.338-1.594.725-3.188 1.063-4.781.048-.097.096-.242.145-.338.048-.242.145-.483.193-.725.048-.096.048-.241.096-.338 1.4-4.925 2.753-9.851 4.154-14.729.53-1.593 1.062-3.139 1.4-4.78.338-.387.386-.918.483-1.401.29-.87.628-1.739.87-2.608.579-2.028 1.4-3.96 1.834-6.036.483-.966.821-1.98 1.063-3.043 0-.096.048-.144.048-.241.193-.145.29-.338.241-.58.242-.627.483-1.255.725-1.835 1.062-2.607 1.931-5.312 3.477-7.678.724.58.82 1.497 1.11 2.27 1.546 3.573 2.608 7.292 3.67 11.058.628 2.222 1.16 4.492 1.111 6.858-.048 1.352-.193 2.656-.193 3.96-.048 3.332-.82 6.567-1.835 9.706-.724 1.932-1.304 3.815-1.883 5.699z"/>
    <path fill="#262E3A" d="M54.617 113.582c1.16-.096 2.222-.628 3.43-.241 1.303.386 2.559.966 3.67 1.786 2.076 1.449 4.297 2.753 6.47 4.057.29.193.58.29.918.097.724 1.931 1.255 3.863 1.787 5.843v.048c-.097-.048-.242-.096-.338-.145-3.719-2.076-7.486-3.96-11.06-6.278-1.496-.965-3.041-1.931-4.297-3.187-.58-.579-1.014-1.159-.58-1.98z"/>
    <path fill="#D8D6D6" d="M55.825 108.462c-.048.097-.097.242-.145.339h-2.173c-1.352 0-1.4 0-1.4 1.352v10.865c0 .338.144.725-.194 1.063-.29-.338-.193-.725-.193-1.063v-10.382c0-1.835 0-1.835-1.787-1.835H31.051c-.386 0-.82.144-1.11-.242.096-.145.241-.29.338-.386.338.338.724.241 1.11.241h18.93c1.208 0 1.401-.145 1.401-1.352v-12.46c0-1.883 0-1.883-1.931-1.93-.145 0-.339-.05-.483-.05.145-.192.241-.385.386-.579.628 0 1.304.145 1.835-.096.58-.242-.193-.966.193-1.4 0 0 .049-.049.049-.097.869.53 1.738 1.062 2.27 1.931-.387 0-.773.049-1.208.049-.531 0-.676.241-.676.724v14.536c0 .531.193.724.724.724.966 0 1.932.048 2.946.048z"/>
    <path fill="#E4E4E4" d="M70.506 124.979c.096.048.241.097.338.145-.145.048-.242 0-.338-.145z"/>
    <path fill="#BA7C18" d="M157.431 121.356c-.29-1.062.772-.772 1.159-1.159.145 0 .29-.048.386-.048 3.284-.434 6.616-.579 9.9-.096.676.096 1.352.241 2.028.434.338.097.821.145.724.773-.965.579-2.076.676-3.138.773-3.719.289-7.437.241-11.059-.677z"/>
    <path fill="#2D4A5C" d="M154.581 108.801c.241 1.642.869 3.139 1.062 4.781-1.11-.193-2.221-.048-3.284.434-2.076.87-3.959 2.077-5.891 3.188-.676.386-1.159 1.207-2.077 1.159 1.111-3.719 2.125-7.486 3.381-11.204.676-2.077-.531-3.332-2.463-3.236-2.27.145-4.588 0-6.858 0-.193-.434-.386-.917-.627-1.352-1.884-3.96-3.477-7.92-3.188-12.459.145-2.028.097-4.056-.096-6.085-.097-.772-.531-1.497-.386-2.318.386-2.028.772-4.056 1.207-6.036.676-3.043 1.449-6.133 2.173-9.175.048-.29.241-.532-.193-.821-.773 2.173-1.159 4.346-1.642 6.519-1.256 5.505-2.366 11.01-3.381 16.516-.289 1.593-1.014 3.235-.289 4.925.048.145.048.338-.049.483-.241.676-.144 1.4-.144 2.077-.821 2.221-1.256 4.539-1.884 6.809-.193.724-.483 1.014-1.255 1.014-4.974-.048-9.997-.048-14.971 0-2.559 0-5.119.048-7.678.048-.29-.096-.531-.096-.821 0h-1.98c-1.401 0-2.801-.048-4.153-.048H83.158c-.387 0-.725.048-1.111.048h-.58c-.29-.048-.627-.096-.917-.145-.58-2.559-1.449-5.022-1.883-7.63-.145-.965-.29-1.883-.338-2.849-.29-4.54-1.015-9.03-2.125-13.473-.87-3.429-1.884-6.81-2.994-10.19-.676-1.98-1.353-4.008-2.367-5.891.338-.628.966-.966 1.594-1.304 2.608-1.449 5.457-2.221 8.354-2.898 2.174-.483 4.347-.917 6.52-1.4.145 0 .241-.048.386-.048.58-.097 1.207-.194 1.787-.242.29.049.531-.048.82-.145.194 0 .387-.048.58-.048.338.097.821-.29 1.014.29-1.545 2.27-3.09 4.54-4.684 6.76-.676.966-.628 1.16.435 1.45 1.255.337 2.463.772 3.718 1.158.628.194.773.338.29 1.015-1.11 1.448-2.56 2.559-3.718 4.008-.87 1.11-.918 1.207.048 2.366 1.497 1.835 2.752 3.863 4.25 5.747 1.641 2.076 3.09 4.298 4.587 6.47 2.946 4.154 5.892 8.259 8.886 12.363.338.435.386.87.193 1.401-.29.724-.531 1.449-.483 2.559.435-.676.821-1.159 1.062-1.642 2.125-3.718 4.298-7.485 6.423-11.203 3.139-5.457 6.23-10.914 9.369-16.323.386-.628.241-.966-.193-1.449-1.353-1.4-2.608-2.897-3.96-4.297-.676-.677-.338-.918.338-1.111 1.255-.338 2.463-.773 3.718-1.063.821-.193.918-.53.483-1.159-1.593-2.27-3.187-4.54-4.829-6.809-.145-.241-.386-.241-.628-.241v-.338c.387-.29.773-.145 1.159-.097 1.497.193 2.946.435 4.443.628.193.048.386.097.628.145.966.145 1.883.338 2.849.483.241.048.531.145.773.193l-.049.048v-.048c.194.048.387.048.58.096l2.608.58c.483.193.965.338 1.497.29.048.145.193.193.338.193.966.338 1.931.676 2.945.966 2.995.917 5.216 2.656 6.278 5.698.483 1.4 1.159 2.753 1.787 4.105.193.966.58 1.835.918 2.752 2.366 6.81 4.491 13.667 6.519 20.573 1.352 4.636 2.656 9.32 3.96 14.004-.048.193 0 .338.145.435zM85.959 85.862h-4.781c-.725 0-.918.339-.918.966 0 .58.097 1.063.821 1.063h9.562c.87 0 .724-.628.772-1.208.049-.58-.193-.82-.82-.82h-4.636z"/>
    <path fill="#EDF8FE" d="M87.263 58.288c-2.173.435-4.346.87-6.52 1.4-2.897.677-5.746 1.45-8.354 2.898-.58.338-1.207.676-1.593 1.304-.242.097-.339.338-.435.531-1.546 2.367-2.415 5.07-3.477 7.679-.242.628-.483 1.255-.725 1.835-.193.145-.241.338-.241.58 0 .096-.048.144-.048.24-.821.822-.821.822-1.449-.192-.531-.821-1.062-.821-1.545.048-.194.386-.435.82-.628 1.255-3.042 0-6.133-.048-9.175 0-.822 0-1.015-.241-1.015-1.014.049-4.394 0-8.789 0-13.183.194 0 .387.048.58.048v12.604h.483V61.67c1.062-.145 1.738-.821 2.318-1.69 3.863 0 7.726.048 11.59.048.096.241-.049.58.483.82V52.06c1.786-.531 2.366-1.304 2.366-3.14 0-1.69.048-3.38.048-5.07h8.065c.338 0 .676 0 .966.193 0 2.27.048 4.588.048 6.858 0 2.028.483 2.704 2.415 3.332v3.477h.338c.29-1.16-.049-2.367.193-3.526 1.69-.434 2.318-1.207 2.318-2.945 0-2.463.048-4.926.048-7.34.58 0 1.207.048 1.787 0 .87-.097 1.159.193 1.11 1.11.049 4.395.049 8.837.049 13.28zM67.029 27.092c-4.733 0-9.417 0-14.15.049-.627 0-.82-.242-.82-.821.048-1.739 0-3.43 0-5.168 1.255-.628 2.172-1.738 3.283-2.51 3.043-2.222 6.181-4.25 9.369-6.279.434-.29 1.062-.241 1.304-.82.434-.097.917-.194 1.352-.194 6.23 0 12.459.048 18.64 0 .966 0 1.16.29 1.16 1.207-.049 4.54-.049 9.03 0 13.57 0 .628 0 1.063-.87 1.063-6.278-.049-12.556-.049-18.882-.049-.145-.869.145-1.786-.241-2.897-.242 1.062 0 1.98-.145 2.85zM26.367 60.075H50.32c.386.483.724 1.014 1.255 1.352.29 2.56.097 5.119.145 7.678.049 1.932-.048 3.864 0 5.795 0 .821-.241 1.014-1.014 1.014-9.175-.048-18.35 0-27.526 0 .241-1.207.241-2.463.483-3.621.531-2.705.966-5.458 1.642-8.114.338-1.448.966-2.704 1.062-4.104zM35.349 91.851c-1.787-2.125-4.202-1.352-6.423-1.352-.676 0-1.159.724-1.642 1.207-.773.725-1.497.725-2.27.097-.724-.628-1.642-1.014-2.27-1.739.628-.58.049-1.207.049-1.786.048-4.009-.097-8.017.434-12.025 9.176 0 18.351 0 27.527-.048.869 0 1.062.29 1.062 1.062-.048 1.787 0 3.574 0 5.36 0 .338.097.725-.241 1.014-.628-.627-1.256-1.303-1.884-1.931-.338-.338-.58-.821-1.11-.676-.58.096-.58.676-.677 1.11l-2.462 9.852h-6.23c-1.4 0-2.656.193-3.863-.145zM116.866 20.766c-.193-1.4-.966-2.463-1.98-3.38-1.545-1.4-3.332-2.367-5.264-3.091-1.69-.628-3.38-1.159-5.215-1.256-1.98-.096-3.864.242-5.168 1.932-.338.483-.772.676-1.303.773"/>
    <path fill="#EDF8FE" d="M122.853 43.51c-1.545 0-32.596-.047-34.142 0-.869.05-1.062-.289-1.062-1.11.048-4.54.048-9.03 0-13.57 0-.87 0-1.545.724-1.4-.724.096-.724-.628-.724-1.497.048-4.491.048-8.983 0-13.474 0-.82.145-1.159 1.11-1.159 11.011.049 22.022.049 33.032 0 .966 0 .966.628 1.352 1.063-1.304 1.835-1.304 5.553 0 7.678-.434.241-.338.676-.338 1.063 0 1.738-.048 3.428 0 5.167 0 .627.773.869.145.82"/>
    <path fill="#EDF8FE" d="M90.016 36.314c-.628 1.594-.435 3.09.483 4.54l-.483-4.54zM90.932 22.793c-1.448 1.835-2.27 3.863-.82 6.133-.049.242-.049.435.144.628.194.434.097.869.194 1.352M50.272 59.689h-23.47c.048-.29.048-.58.145-.87.241-1.255.869-2.414 1.303-3.621.628-1.787 1.353-3.526 2.174-5.216.966-2.028 1.98-4.056 2.994-6.036h2.51c0 3.042.05 6.133.05 9.175 0 1.739.579 2.463 2.317 2.994v1.98c0 .242-.096.628.29.58.29 0 .241-.338.241-.58v-1.98c1.884-.628 2.367-1.304 2.367-3.235 0-2.898.048-5.844.048-8.741.29-.193.628-.193.966-.193 2.849 0 5.698.048 8.596 0 .772 0 1.062.241 1.014 1.014-.048.966 0 1.932.048 2.897-1.207.773-1.545 1.836-1.497 3.236-.048 2.8-.096 5.698-.096 8.596zM87.263 27.913c0 4.829 0 9.658.048 14.487 0 .87-.241 1.208-1.11 1.11-.484-.047-1.015 0-1.498 0 0-.192-.096-.337-.29-.386-.096-.193-.096-.386 0-.627.435-.676.435-1.304 0-1.98 0-.29-.048-.531-.048-.821.145-.145.145-.29-.048-.386-.048-.049-.048-.097 0-.145l-.145-.29c-.048-.048-.048-.048-.048-.097-.048-.096-.145-.193-.193-.29l-.194-.193-.193-.193c0-.724-.483-.58-.917-.58h-.097c-.048-1.255-.386-2.51-.145-3.766.097-.483 0-.676-.483-.676-.53.048-.386.434-.386.724 0 1.063 0 2.173-.048 3.236-.531.193-1.304-.531-1.69.434-.242.58-1.063.918-.821 1.787v.58c-.676.338-.435.676 0 1.014h.145v2.173h-.145c-.049.145-.145.241-.194.386h-8.21c-.24-3.67.339-7.34.097-11.01-.048-.821-.144-1.304-.917-1.546 0-.193-.048-.338-.242-.386-.193-.048-.29-.193-.338-.338-.096-.096-.193-.145-.29-.241l-.048.048h-.096c-.048-.241-.097-.531-.435-.193l-.724-.145c0-.676.048-1.4.048-2.077h19.317c0 .242.096.387.338.387zM52.638 43.462c-.482.048-.53-.242-.53-.628v-14.68c0-.29 0-.628.482-.58 3.429.29 6.857.048 10.286.145 1.4.048 2.801 0 4.202.048v1.884c-1.739.386-2.415 1.159-2.415 2.994v17.481c-.531-.193-.338-.676-.338-1.014-.097-1.739.241-3.525-.242-5.264 0-.531-.434-.241-.627-.241-2.463-.048-4.926 0-7.389-.048-.917 0-2.125.386-2.704-.194-.628-.628-.145-1.835-.242-2.8-.048-.339.242-.773-.483-1.111v4.008zM38.826 35.108c1.014-.434 1.449-1.4 2.125-2.173 1.255-1.449 2.463-2.946 3.718-4.394.194-.242.483-.435.532-.821h5.601c.676 0 1.014.145 1.014.917-.048 4.636-.048 9.32 0 13.956 0 .725-.241.918-.917.87-3.187-.049-6.375 0-9.61 0 0-.531-.048-1.063-.048-1.594.193-.145.145-.241-.049-.386-.29-1.256-1.159-1.932-2.366-2.222-.048-1.352-.048-2.752 0-4.153zM116.817 57.321c-4.781 5.94-22.987-1.69-23.953 0-.676.193-1.4-.048-1.98.483-.193 0-.386.048-.58.048-.289-.193-.579-.29-.82.145-.58.097-1.207.194-1.787.242V45.007c0-.87.242-1.16 1.11-1.11 1.546.047 3.14 0 4.685 0"/>
    <path fill="#FB462E" d="M38.778 39.26c1.207.29 2.076.967 2.366 2.222 0 .145 0 .242.048.386 0 .532.049 1.063.049 1.594 0 .193 0 .386-.049.628 0 2.897-.048 5.843-.048 8.74 0 1.98-.483 2.608-2.366 3.236-.193 0-.387 0-.58-.048-1.738-.483-2.318-1.256-2.318-2.994 0-3.043-.048-6.133-.048-9.176 0-.145 0-.29-.048-.434.048-.338.096-.676.096-.966 0-2.028.483-2.608 2.415-3.236.145.049.29.049.483.049zM82.482 37.57h.096c.29.194.628.387.918.58l.193.193.193.194c.049.096.145.193.193.29 0 .048 0 .096.049.096l.145.29v.145c0 .144.048.241.048.386 0 .29.048.531.048.82-.145.677-.145 1.305 0 1.98-.096.194-.096.387 0 .629v.386c0 .145 0 .29-.048.434 0 2.463-.048 4.926-.048 7.34 0 1.74-.628 2.56-2.318 2.947-.194-.097-.387-.097-.532.096-1.931-.628-2.414-1.304-2.414-3.332 0-2.27 0-4.588-.048-6.857v-1.014-2.174c.048-.53.048-1.062.096-1.593.483-1.014 1.207-1.69 2.318-1.884h.483c.29-.048.435 0 .628.049z"/>
    <path fill="#3DA23F" d="M50.272 59.688c0-2.897.097-5.794 0-8.644-.048-1.4.338-2.462 1.497-3.235.097-.048.242-.048.338-.097.242.097.386-.096.531-.193.145.145.29.193.483.145.87.145 1.497.676 2.125 1.304.097.241.193.483.29.772 0 .145 0 .29.048.435 0 3.187 0 6.375-.048 9.61-.049.145-.049.242-.097.386-.58.821-1.255 1.546-2.318 1.69h-.483c-.193 0-.386-.048-.58-.048-.192-.096-.337-.193-.53-.29-.532-.337-.87-.869-1.256-1.352.048-.241 0-.386 0-.483z"/>
    <path fill="#EDF8FE" d="M62.103 76.253c-.966 2.173-1.787 4.443-2.994 6.52-.29-.339-.58-.629-.82-.967-.242-.29-.677-.58-.919-.29-.772.918-1.207.242-1.69-.29-.724-.772-.965-.724-1.642.097-.627.821-1.255 1.69-1.883 2.512 0-2.222.048-4.443 0-6.665 0-.724.193-.965.966-.965 2.946.096 5.988.048 8.982.048z"/>
    <path fill="#FB462E" d="M52.107 83.882c.627-.821 1.255-1.69 1.883-2.511.628-.821.87-.87 1.642-.097.483.531.917 1.207 1.69.29.241-.29.676-.048.918.29.29.338.58.627.82.966 0 .53-.24.965-.627 1.303-.097-.096-.242-.145-.338-.241-.338-.773-.676-.58-1.014 0-.29 0-.532 0-.821.048-.242-.338-.532-.676-.918-.869-.338-.724-.628-.531-.87.048-.144.193-.289.387-.386.58-.24.145-.386.338-.434.628-.048.048-.097.144-.145.193-.386.338-.628.724-.87 1.207l-.144.145c-.145.097-.242.193-.386.29-1.16-.483-1.739-1.546-2.56-2.367-.386-.386-.628-.483-.772.145-.628 2.656-1.304 5.312-1.932 7.968-.242.821-.435 1.642-.676 2.463-.483 1.063-1.014 2.077-1.98 2.85.338-1.498.676-2.946 1.014-4.443.193-.145.145-.387.145-.58.82-3.284 1.642-6.568 2.463-9.851.096-.435.096-1.014.676-1.111.53-.097.82.338 1.11.676.628.628 1.256 1.304 1.884 1.932.145.096.338.434.628.048zM123.144 20.04c-1.304-2.125-1.352-5.843 0-7.678.483-.145.966-.29 1.497-.483.241 0 .483 0 .724.048 1.401.338 2.125 1.207 2.173 2.656.049.821 0 1.642 0 2.463 0 2.125-.434 2.801-2.463 3.525-.144 0-.338-.048-.482-.048-.435-.145-.966-.29-1.449-.483z"/>
    <path fill="#EDF8FE" d="M46.312 27.14c.242-.821 1.014-1.304 1.545-1.884.87-.917 1.787-1.738 2.705-2.656.338-.338.676-.531 1.159-.434 0 1.4-.049 2.752 0 4.153.048.869-.29 1.062-1.063 1.062-1.449-.097-2.897-.048-4.346-.241zM38.295 39.26c-1.931.629-2.366 1.208-2.414 3.236 0 .338-.049.676-.097.966h-1.835c-.097-.773.531-1.159.82-1.738.822-1.69 1.933-3.188 3.043-4.685.097-.096.29-.096.435-.145 0 .822.048 1.594.048 2.367z"/>
    <path fill="#BFDEFA" d="M53.169 47.664c-.194.048-.338 0-.483-.145v-3.574-.434-3.96c.676.29.434.772.483 1.11.096.966-.387 2.174.241 2.801.58.58 1.787.145 2.705.194 2.462.048 4.925 0 7.388.048.193 0 .628-.29.628.241H53.797c-.677-.241-.628.29-.628.628-.049.966 0 2.028 0 3.09z"/>
    <path fill="#EDF8FE" d="M52.638 43.946v3.574c-.193.096-.338.241-.53.193v-3.042c0-.387 0-.821.53-.725z"/>
    <path fill="#BFDEFA" d="M67.077 29.603V27.72v-.628c.097-.87-.145-1.787.241-2.898.387 1.111.145 2.029.242 2.898 0 .145 0 .29.048.434 0 .677-.048 1.4-.048 2.077h-.483zM125.365 11.928c-.242 0-.483 0-.725-.048v-.966c.097-.676-.096-1.4.194-2.27.627.821.289 1.594.434 2.27v.387c0 .241.048.434.097.627z"/>
    <path fill="#EDF8FE" d="M84.414 43.462v-.386c.193.048.29.193.29.386h-.29zM87.263 27.913c-.242 0-.387-.145-.387-.387.242 0 .387.145.387.387zM126.283 58.917c-.966-.145-1.884-.338-2.849-.483 0-4.54 0-9.03-.049-13.57 0-.821.338-.966 1.063-.966 4.829.048 9.706 0 14.535 0 0 .483 0 .917.049 1.4 0 .194.048.338.241.338s.242-.193.242-.338c0-.483 0-.917.048-1.4h17.578c.918 0 1.256.193 1.256 1.207-.049 4.491-.049 8.983 0 13.474 0 .965-.338 1.159-1.208 1.159-1.738-.049-3.525 0-5.263 0-.338-.338-.725-.435-1.159-.435-1.401 0-2.801-.097-4.202-.048-.821 0-1.352-.242-1.883-.821l-6.664-7.679c-.918-1.062-1.304-1.014-2.029.097l-4.346 6.809c-.435.724-.773.676-1.207 0-.387-.628-.773-1.255-1.159-1.835-.387-.58-.918-.628-1.256 0-.628.966-1.304 1.932-1.738 3.09zM125.366 11.928c-.049-.193-.097-.386-.145-.628h20.958c.049.338.29.531.532.676 1.786.966 3.477 2.029 5.167 3.14 1.738 1.158 3.525 2.269 5.119 3.67.386.386.821.676 1.4.676.387 2.27.193 4.539.145 6.857 0 .58-.338.966-1.014.918-5.071-.049-10.141-.049-15.26-.049.241-1.062.483-2.173-.628-2.946l-.048-.048v-.048c.048-.58-.338-.966-.821-1.063-.483-.096-.821-.386-1.208-.676-.144-.145 0-.483-.241-.483s-.145.338-.241.483c-.966.435-2.029.821-2.463 1.932-.338.87-.097 1.787-.193 2.656-3.719 0-7.486 0-11.204.048-.242-2.173-.048-4.394-.097-6.567 1.98-.725 2.463-1.352 2.463-3.526 0-.82.048-1.641 0-2.462-.096-1.353-.821-2.222-2.221-2.56zM185.343 59.69h-25.16c-.966 0-1.207-.29-1.207-1.208.048-4.491.048-8.982 0-13.473 0-.87.241-1.111 1.111-1.111 6.277.048 12.555.048 18.882.048.096.821.724 1.4 1.062 2.125.821 1.787 1.69 3.525 2.463 5.312 1.159 2.656 2.414 5.312 2.897 8.21 0 0-.048.048-.048.096z"/>
    <path fill="#EDF8FE" d="M141.591 24.34c1.111.772.869 1.883.628 2.945.29.435.724.242 1.111.242 4.732 0 9.416.048 14.149 0 .869 0 1.111.241 1.111 1.11-.049 4.636-.049 9.224 0 13.86 0 .773-.193 1.062-1.014 1.014-1.208-.048-2.415 0-3.574 0 0-1.062-.048-2.173-.048-3.235 1.883-.677 2.414-1.353 2.414-3.236 0-1.883-.531-2.56-2.414-3.236v-2.173c0-.193-.049-.434-.29-.386-.193.048-.193.241-.193.386v2.173c-.145.049-.29.097-.483.194-1.545.53-2.077 1.545-1.98 3.67.096 1.352.917 2.27 2.366 2.56v3.331h-13.763v-4.153c1.739-.53 2.366-1.352 2.366-3.187V27.43c0-1.11 0-2.125-.386-3.09zM158.976 64.131c0-1.014.049-1.98-.048-2.994-.097-.918.29-1.11 1.159-1.11 8.355.048 16.709 0 25.112 0-.676 1.4-1.352 2.8-2.077 4.2-.966 1.836-.966 1.884-2.801.822-.869-.483-1.352-.338-1.883.483-1.352 2.173-2.801 4.25-4.202 6.422-.338.532-.627.725-1.159.194-.676-.628-1.159-.387-1.593.29-.676 1.062-1.352 2.124-2.125 3.138-.821 1.111-2.801.87-3.284-.386-.628-1.594-1.304-3.187-1.931-4.83-.966-2.365-1.884-4.78-2.85-7.146-.386-1.014-.869-1.063-1.545-.242-.241.386-.483.821-.773 1.16zM170.132 31.486c1.448 1.449 2.656 3.14 3.815 4.781 1.4 1.98 2.801 3.96 3.96 6.036.193.387.482.725.434 1.16H159.99c-.869 0-1.062-.29-1.062-1.111.048-4.588.048-9.176 0-13.763 0-.87.29-1.16 1.159-1.16 1.69.049 3.38 0 5.071 0h.096c.048.629.048 1.256.097 1.884.048 1.642.724 2.511 2.318 2.898.145.772.048 1.593.096 2.366 0 .29-.145.724.242.724.483 0 .29-.483.29-.773.048-.772 0-1.496.048-2.27.145-.047.338-.047.483-.096v.097-.097c.434-.145.869-.386 1.304-.676z"/>
    <path fill="#3DA23F" d="M158.976 64.13c.242-.386.483-.772.773-1.11.676-.82 1.159-.773 1.545.241.966 2.367 1.884 4.733 2.849 7.148.628 1.593 1.256 3.187 1.932 4.829.483 1.255 2.463 1.497 3.284.386.724-1.014 1.449-2.076 2.125-3.139.434-.724.966-.917 1.593-.29.532.483.821.29 1.159-.193 1.401-2.124 2.85-4.25 4.202-6.422.531-.821 1.014-.966 1.883-.483 1.787 1.062 1.835 1.062 2.801-.821.724-1.4 1.352-2.801 2.077-4.202.144-.096.193-.241.144-.386.049-.048.049-.097.049-.145.869-1.062 1.352-2.366 1.931-3.525 1.642-3.236 3.236-6.471 4.878-9.707.241-.434.483-1.014 1.111-.676.627.29.386.773.144 1.256-.821 1.545-1.593 3.139-2.366 4.732-1.304 2.705-2.849 5.312-4.008 8.113-.048.097-.048.193-.097.338-.289.097-.483.338-.483.676-.193.097-.193.242-.193.387-.338.53-.676 1.014-.821 1.593-.145.097-.193.242-.193.387-.483.58-.772 1.255-1.014 1.98-.145.096-.193.241-.193.386-.048.145-.145.241-.193.386-.145.097-.193.242-.193.387-.145.096-.194.241-.242.386v.241c-.241.097-.338.29-.386.532-.145.096-.242.193-.387.29-.386-.097-.821-.194-1.207-.29h-.096c-.097-.194-.29-.338-.532-.338-.096-.145-.241-.242-.386-.242-.145-.096-.241-.145-.386-.241-.097-.145-.242-.194-.435-.145-.531.096-.628.58-.821 1.014-.241.145-.386.338-.386.58-.242.144-.387.337-.387.579-.241.145-.386.338-.386.58-.241.144-.386.337-.435.579-.193.145-.386.338-.386.58-.724.869-1.352 1.738-1.835 2.752-.241.145-.386.338-.435.628-.096.145-.241.241-.338.386-.531.193-.917-.241-1.352-.386-.386-.338-.676-.29-.821.241-.241.145-.338.338-.386.628-.242.145-.386.29-.386.58l-3.188 4.636c-.241.338-.434.772-.965.772-.58 0-.628-.531-.773-.917-.58-1.16-.773-2.463-1.545-3.526-.049-.096-.049-.241-.097-.338-1.304-3.718-2.849-7.34-4.346-11.107-.676.918-1.256 1.69-1.546 2.608-.096.097-.193.193-.338.29-.627.145-1.062-.097-1.352-.725-.531-1.014-1.111-1.98-1.642-2.945-.628-1.111-.628-1.111-1.4-.194-.676.773-1.014.773-1.594-.096-.483-.773-.966-1.594-1.4-2.415-.29-.53-.676-.724-1.256-.724-1.255.048-2.511-.048-3.767 0-.724 0-1.448-.097-2.028-.58-.048-.096-.145-.241-.193-.338-1.835-2.124-3.622-4.25-5.457-6.326-1.4-1.642-1.449-1.642-2.608.193-1.304 2.029-2.656 4.057-3.815 6.182-.048.096-.096.241-.145.338-.096.048-.144.048-.241.096-.531.049-1.014-.145-1.497-.29-.145-.29-.29-.579-.483-.869-.338-.434-.531-1.352-1.062-1.304-.58.097-.821.966-1.063 1.546-.193-.048-.386-.048-.579-.097h.048c-.242-.048-.531-.145-.773-.193.387-1.159 1.111-2.125 1.69-3.139.339-.628.87-.58 1.256 0 .435.58.821 1.207 1.159 1.835.435.676.773.724 1.207 0 1.401-2.27 2.898-4.54 4.347-6.809.724-1.159 1.11-1.159 2.028-.097 2.221 2.56 4.491 5.071 6.664 7.679.531.628 1.111.869 1.883.82 1.401-.047 2.801.049 4.202.049.483 0 .821.145 1.159.435.096.145.145.241.241.386.097.531.435.966.725 1.4.579.966.579.966 1.304.097.724-.87 1.159-.82 1.69.193.579 1.014 1.11 2.029 1.69 3.043.145.241.193.676.531.676.338-.049.435-.483.483-.773.386-.097.531-.242.531-.531zm8.644 11.929c-.289.193-1.014-.242-.965.483.048.58.193 1.255.821 1.593.144.097 1.352-1.4 1.255-1.69-.193-.628-.724-.193-1.111-.386zM168.876 32.258c-.145.048-.338.048-.483.097-.241 0-.434-.049-.676-.049-1.594-.386-2.27-1.255-2.318-2.897 0-.628-.048-1.256-.097-1.883.097-.387.145-.773.049-1.208v-.628c0-.434.048-.869.048-1.303.097-1.304.821-2.174 2.27-2.56.338 0 .676 0 1.014.048 1.4.483 2.028 1.304 2.076 2.753 0 .773.049 1.497.049 2.27-.049.724-.145 1.448 0 2.173-.097.58-.193 1.207-.242 1.787-.048.048-.096.145-.145.193-.096.145-.193.241-.289.386-.435.338-.87.58-1.256.821z"/>
    <path fill="#EDF8FE" d="M165.35 25.74v.627c-.289.29-.145.628-.193.966-1.738 0-3.525 0-5.264.048-.676 0-.917-.241-.917-.917.048-1.98 0-3.912 0-5.892.869.387 1.497 1.063 2.173 1.642 1.062.918 2.076 1.932 3.091 2.898.338.241.676.53 1.11.628zM158.638 64.71c-.097.339-.145.725-.483.773-.338.049-.387-.434-.532-.676-.579-1.014-1.159-2.028-1.69-3.042-.531-.966-1.014-1.014-1.69-.193-.724.869-.724.869-1.304-.097-.29-.434-.628-.87-.724-1.4 1.69 0 3.38.048 5.07-.049 1.015-.048 1.256.29 1.208 1.256-.049.821 0 1.642 0 2.463-.097.338-.193.724.145.966z"/>
    <path fill="#BFDEFA" d="M139.611 39.358v4.539c0 .483 0 .918-.048 1.4 0 .194-.049.339-.242.339s-.241-.193-.241-.338c0-.483 0-.918-.049-1.4v-.435-4.153c.194.048.387.048.58.048zM153.953 40.227c0 1.063.049 2.174.049 3.236-.194.145-.387.145-.628 0v-3.332c.193.048.386.096.579.096z"/>
    <path fill="#E4E4E4" d="M165.157 27.285c.048-.338-.097-.676.193-.966.097.386.097.82-.048 1.207h-.097c0-.096-.048-.145-.048-.241z"/>
    <path fill="#EDF8FE" d="M49.257 92.574c.145 0 .338.049.483.049 1.932.048 1.932.048 1.932 1.931v12.459c0 1.208-.145 1.353-1.4 1.353h-18.93c-.387 0-.822.096-1.111-.242.434-.435.917-.869 1.303-1.352.387-.386.725-.773 1.352-.386.29.193.58.048.822-.145.337-.29.724-.58 1.062-.918.724-.676 1.352-1.304 2.463-.628.483.29.869-.048 1.11-.627.676-1.98 1.45-4.009 2.125-5.989 1.014.483 1.739 1.4 2.705 2.029 1.062.627 1.303.579 1.593-.58.242-.966.676-1.787 1.256-2.56 1.159-1.4 2.173-2.897 3.235-4.394z"/>
    <path fill="#EDF8FE" d="M23.18 92.623c.096 0 .145 0 .241-.048.677.096 1.16.53 1.594.917.821.676 1.545.821 2.318-.048.193-.193.435-.338.628-.483.241 0 .386-.097.386-.386h.048c1.835 0 3.67-.049 5.506-.049.048 0 .096 0 .096.049.048.048.145.096.193.193.242.048.435.241.58.434 0 .435.338.58.724.58.58.435 1.208.82 1.69 1.4.049.435.339.58.725.58.434.29.917.628 1.255 1.062 0 .338.049.676.049.966-.58 1.594-1.111 3.187-1.642 4.781-.193.531-.435.724-.918.386-.53-.338-.965-.193-1.4.242-.435.434-.918.772-1.352 1.159-.387.386-.773.676-1.353.338-.337-.193-.627-.048-.917.193-.193.193-.386.386-.58.531-1.593 1.546-1.641 1.594-3.283.049-.821-.773-1.546-1.063-2.463-.339-.29-1.979-.87-3.863-1.16-5.843-.434-2.125-.965-4.346-.965-6.664zM55.826 108.463c-1.014 0-1.98-.048-2.994-.048-.483 0-.725-.193-.725-.724V93.155c0-.483.145-.724.676-.724.387 0 .773-.049 1.207-.049.097.049.242.145.339.194 0 .434.29.482.58.434.047.048.144.097.192.145.387.435.821.338 1.111 0 .435-.58.966-.531 1.594-.531.82 0 1.642 0 2.463.048-1.401 4.926-2.753 9.852-4.154 14.729-.048.097-.048.241-.096.338-.048.242-.145.483-.193.724zM54.087 83.594c.144-.194.29-.387.386-.58.29 0 .58-.048.87-.048-.146.773.385.773.917.87.29.53.58.53.82-.05h1.015c.048.918-.87 1.594-.773 2.56 0 .048.048.145.048.193 0 .049-.048.049-.048.097-.87.82-1.352 1.835-1.4 2.994 0 .242-.049.435-.242.58-.434.241-.82.53-1.352.386-.193-.048-.338-.193-.435-.386-.048-.628-.434-.821-1.014-.821-.048-.049-.145-.097-.193-.194 0-.386-.193-.627-.628-.58 0-.868 0-1.786.049-2.655.193 0 .338-.048.386-.29l.145-.145c.773-.048.82-.628.87-1.207.047-.048.096-.145.144-.193.435.096.483-.193.435-.531z"/>
    <path fill="#EDF8FE" d="M52.107 86.056c0 .87 0 1.787-.048 2.656-1.352-.628-1.352-.628-2.173.58-.628.869-1.304 1.738-1.932 2.607-.048.049-.097.145-.193.194-.338-.097-.676 0-.966-.338.628-2.656 1.304-5.313 1.932-7.969.145-.627.386-.53.772-.144.87.82 1.449 1.931 2.608 2.414zM60.267 92.672c-.82 0-1.641 0-2.462-.049-.58 0-1.16-.048-1.594.531-.241.339-.724.435-1.11 0 .82.097 1.062-.53 1.303-1.11.918-2.028 1.835-4.057 2.753-6.037.096-.193.241-.338.338-.483.773.725 1.207 1.739 2.125 2.367-.29 1.642-.821 3.187-1.352 4.78zM45.152 92.624c-.338 1.497-.676 2.945-1.014 4.442-.145.29-.29.58-.434.821-.483-.82-1.014-1.69-1.546-2.51-.338-.484-.434-1.353-1.207-1.256-.773.096-.676.917-.918 1.497-1.4-.628-2.414-1.787-3.573-2.753.29-.29.676-.193 1.014-.193 2.608-.048 5.167-.048 7.678-.048zM64.855 77.798c-.434 2.076-1.304 4.008-1.835 6.036-.241.87-.58 1.739-.87 2.608-.675-.772-1.303-1.497-1.98-2.27.194-1.159.87-2.124 1.353-3.187.58-1.352 1.256-2.704 1.883-4.056.242-.532.483-.58.773-.049.145.339.29.725.676.918z"/>
    <path fill="#FB462E" d="M40.082 95.618c.193-.58.145-1.4.918-1.497.773-.097.87.772 1.207 1.255.531.821 1.014 1.69 1.545 2.511-.096.387-.386.725-.676.387-1.014-.87-2.27-1.497-2.994-2.656z"/>
    <path fill="#D8D6D6" d="M45.152 92.623h-7.63c-.338 0-.724-.097-1.014.193-.435-.29-.821-.58-1.16-.966 1.257.338 2.512.145 3.72.193 2.076.049 4.152 0 6.229 0 .048.193.048.435-.145.58zM33.852 92.575c-1.835 0-3.67.049-5.505.049.53-.725 1.255-1.015 2.173-.918.58.048 1.207.048 1.787 0 .724-.097 1.159.29 1.545.87z"/>
    <path fill="#FB462E" d="M60.172 84.22c.676.773 1.304 1.497 1.98 2.27-.048.483-.145 1.014-.483 1.4-.917-.627-1.352-1.641-2.125-2.366 0-.531.242-.966.628-1.304z"/>
    <path fill="#EDF8FE" d="M51.72 90.45c0 .049 0 .049-.048.097-.386.435.386 1.16-.193 1.4-.531.194-1.207.097-1.835.097.338-.531.676-1.062 1.062-1.642.338-.53.676-.53 1.014.049z"/>
    <path fill="#D8D6D6" d="M46.842 91.802c.242.29.628.241.966.338-.386.82-.773 1.642-1.642 2.125.193-.87.435-1.642.676-2.463z"/>
    <path fill="#EDF8FE" d="M55.97 89.678c.049-1.208.483-2.222 1.4-2.994-.385 1.014-.772 2.028-1.4 2.994zM57.371 86.393c-.097-.965.773-1.593.773-2.559.096.097.241.145.338.241-.193.87-.483 1.69-1.111 2.318zM54.328 90.644c.531.096.917-.145 1.352-.387-.386 1.208-.483 1.256-1.352.387zM52.928 89.436c.58 0 .917.241 1.014.821-.483-.145-.773-.435-1.014-.821z"/>
    <path fill="#D8D6D6" d="M35.494 93.83c-.386 0-.676-.144-.724-.579.338.048.58.29.724.58zM37.86 95.81c-.386 0-.675-.144-.724-.579.387.097.58.29.725.58z"/>
    <path fill="#EDF8FE" d="M52.058 88.664c.435-.049.628.193.628.58-.29-.049-.531-.242-.628-.58z"/>
    <path fill="#D8D6D6" d="M39.213 97.887c0-.338-.049-.676-.049-.966.242 0 .29.193.387.386-.145.145-.242.338-.338.58z"/>
    <path fill="#EDF8FE" d="M54.956 93.009c-.338 0-.627 0-.58-.435.242.049.436.193.58.435z"/>
    <path fill="#D8D6D6" d="M28.347 92.624c0 .241-.145.386-.386.386.048-.193.145-.338.386-.386zM47.761 92.093c.048-.048.097-.145.193-.193l-.193.193zM34.19 92.817c-.048-.049-.144-.097-.192-.193l.193.193z"/>
    <path fill="#EDF8FE" d="M182.252 76.156c2.27.193 4.588 0 6.906.096.096 1.4.096 2.801.241 4.153.338 3.864.338 7.727-.193 11.59-.386.194-.773.194-1.159.194h-27.719c-1.256 0-1.256-.049-1.256-1.304V80.309c0-.435.048-.87-.193-1.256.869-.241 1.449.049 1.932.918 1.014 1.787 2.124 3.525 3.235 5.264.58.965.918.965 1.594.096.483-.628.966-1.255 1.4-1.931.338-.532.58-.58 1.063-.097.917.918 1.159.87 1.835-.29.096-.193.241-.386.338-.628.627-1.062.628-1.062 1.497-.193.628.628 1.062.531 1.497-.145.821-1.352 1.69-2.704 2.511-4.056.29-.483.531-.628.917-.097.387.531.821.966 1.208 1.449.434.531.869.531 1.304 0 .772-.87 1.545-1.739 2.366-2.56.145-.24.338-.53.676-.627zM154.437 108.414c-1.304-4.684-2.608-9.32-3.96-14.004-2.029-6.906-4.153-13.763-6.52-20.573 1.401.87 2.511 2.077 3.574 3.236 1.4 1.497 2.897 2.173 4.974 1.98 2.028-.193 4.056 0 6.085 0 0 4.008-.049 7.968 0 11.976 0 .918-.242 1.256-1.208 1.208-2.366-.049-4.684 0-7.099 0 .242.338.58.193.87.193 2.076 0 4.201.048 6.278 0 .772 0 1.159.193 1.11 1.062-.048 4.636-.048 9.32 0 13.956 0 .725-.241 1.014-.965.966-1.015-.048-2.077 0-3.139 0z"/>
    <path fill="#EDF8FE" d="M144.149 59.978c.58.531 1.304.58 2.029.58 1.255 0 2.511.048 3.766 0 .628 0 .966.193 1.256.724.435.82.918 1.594 1.4 2.415.532.869.918.917 1.594.096.773-.917.773-.917 1.401.193.531.966 1.11 1.932 1.641 2.946.29.58.725.87 1.353.724v6.906c0 1.304 0 1.304-1.304 1.304-2.946.048-5.844-.097-8.789.097-1.449-1.16-2.753-2.512-4.105-3.719-.435-.386-.773-.917-1.352-1.11-.58-1.353-1.256-2.705-1.787-4.105-1.063-3.043-3.332-4.781-6.278-5.699-.966-.29-1.932-.628-2.946-.966-.048-.096-.048-.193-.096-.29 4.056.049 8.161.049 12.217-.096zM186.357 62.296c.434 1.642 1.062 3.284 1.207 4.974.048.145.048.339.097.483v-.048c-.242.048-.242.242-.242.435 0 .048-.048.096-.096.096-.58 0-.773.29-.773.821-.483-.048-.628.193-.58.628-.048.048-.096.097-.144.193-.628.049-.87.386-.87.966-.193.193-.386.386-.579.628-.483-.048-.676.145-.628.628-.531-.049-.628.338-.628.772-.289.483-.676.87-1.11 1.207-.628 0-.87.387-.87.966-.193.338-.434.628-.772.821h-3.622c-.097-.048-.145-.145-.242-.193-.145-.048-.241-.096-.386-.193-.048-.145-.145-.145-.193 0-.145.048-.29.145-.386.193-.194 0-.29.048-.339.242h.049c-1.014 0-2.077-.049-3.091-.049-.435 0-.821-.048-.773-.627.049-.29.145-.435.387-.58.29-.097.772-.097.386-.628.145-.531.435-.58.821-.241.048.483.29.772.773.82.289.049.579-.047.579-.434.097-.145.242-.241.338-.386.435 0 .483-.29.435-.628.917-.435 1.159-1.4 1.738-2.125.145-.193.435-.386.097-.628 0-.29.193-.434.386-.58.338-.047.725-.096.435-.579 0-.29.145-.483.386-.58.338-.047.676-.144.387-.579 0-.29.144-.482.386-.58.676 0 .579-.627.821-1.013.193-.049.338 0 .434.145 0 .241.049.53.387.241.193 0 .29.048.386.242.048.29.242.386.531.338h.097c.29.483.628.917 1.207.29.145-.097.242-.194.387-.29.338 0 .434-.194.386-.532v-.241c.241-.048.483-.097.241-.386 0-.145.049-.29.194-.387.241-.048.482-.096.193-.386 0-.145.048-.29.193-.386.773-.435 1.111-1.111 1.014-1.98 0-.145.048-.29.193-.387.242-.241.483-.386.773-.483z"/>
    <path fill="#EDF8FE" d="M171.339 75.239c0 .58.338.628.772.628 1.015 0 2.077.048 3.091.048-.628 1.642-1.787 3.042-2.656 4.54-.338.53-.579.144-.869-.097-1.111-1.063-1.207-1.063-2.028.241-.097.193-.242.338-.29.531-.338.87-.773 1.16-1.449.29-.386-.483-.869-.386-1.256.145-.482.628-.965 1.255-1.4 1.932-.386.627-.628.483-.918-.049-.724-1.255-1.593-2.462-2.269-3.766-.725-1.4-1.594-2.318-3.284-2.077 0-1.304.821-1.449 1.883-1.352 1.401.097 2.801 0 4.202 0 .724 1.062.966 2.366 1.545 3.525.193.386.241.87.773.918.531 0 .724-.435.966-.773 1.062-1.594 2.124-3.139 3.187-4.684zM188.144 69.491c.241 1.497.386 2.994.676 4.491.097.628.097 1.256.097 1.884h-6.568c1.883-2.222 3.767-4.347 5.795-6.375zM158.589 77.605c-2.608 0-5.264.048-7.871.048-.918 0-1.401-.82-1.932-1.4h8.354c1.401 0 1.401 0 1.449 1.352z"/>
    <path fill="#D8D6D6" d="M158.59 77.605c0-1.353 0-1.353-1.401-1.353h-8.354l-.29-.29c2.946-.193 5.843-.048 8.789-.096 1.304 0 1.304 0 1.304-1.304v-6.906c.096-.096.193-.193.338-.29.193 2.512.048 5.023.048 7.534 0 .725.193 1.014.966.966 1.642-.048 3.236 0 4.877 0 .049.097.049.242.097.338-1.4 0-2.801.097-4.201 0-1.063-.048-1.884.048-1.884 1.352-.145.049-.241.049-.289.049z"/>
    <path fill="#EDF8FE" d="M176.747 75.866h3.622c-.338.531-.676 1.014-1.208 1.4-.048-.29.097-.724-.386-.772-.435-.048-.966-.145-1.207.386-.435-.241-.58-.676-.821-1.014z"/>
    <path fill="#EDF8FE" d="M177.568 76.88c.29-.531.773-.435 1.207-.386.483.048.338.483.387.772l-.193.193c-.483.097-.773-.434-1.256-.386-.048-.048-.097-.145-.145-.193z"/>
    <path fill="#EDF8FE" d="M177.713 77.073c.483 0 .773.483 1.256.387-.773 1.062-.87-.049-1.256-.387zM181.142 75.045c0-.58.241-.966.869-.966-.193.435-.483.725-.869.966zM184.957 70.843c0-.58.241-.966.869-.966-.193.435-.531.725-.869.966zM186.55 69.058c-.048-.531.194-.821.773-.821-.193.386-.435.628-.773.82zM183.171 72.873c0-.435.096-.773.628-.773-.097.338-.338.58-.628.773zM185.971 69.733c-.049-.435.096-.676.579-.628-.096.242-.338.435-.579.628zM183.798 72.1c-.097-.484.144-.677.627-.628-.193.241-.386.483-.627.627zM187.371 68.14c0-.194 0-.387.242-.435.048.241-.097.338-.242.434zM175.202 75.914c.049-.193.194-.242.338-.242-.048.145-.144.242-.338.242zM188.531 66.835c.048-.048.096-.145.193-.193-.049.097-.145.145-.193.193zM188.337 67.077l.193-.193c-.048.048-.145.096-.193.193zM189.931 65.29l.194-.193-.194.193zM190.124 65.049c.048-.049.096-.145.193-.194-.049.097-.097.145-.193.194zM176.554 75.672c.096.049.145.145.241.194-.096-.049-.193-.145-.241-.194zM189.109 68.38c-.048.097-.144.194-.193.242.097-.048.145-.145.193-.241zM189.738 65.483c.048-.096.145-.145.193-.241-.048.096-.097.193-.193.241zM188.916 68.67c-.096.048-.145.145-.241.193.096-.048.193-.145.241-.193zM188.53 69.057l-.193.193c.096-.049.145-.145.193-.193zM175.974 75.48c.097-.145.145-.097.194 0h-.194zM186.116 108.415c-8.693 0-17.434 0-26.126.048-.869 0-1.014-.338-1.014-1.111.048-4.539 0-9.03 0-13.57 0-1.207.096-1.303 1.304-1.303h28.637c.048.338.241.676.144 1.062-.193 1.255-.386 2.511-.531 3.815-.434 3.718-1.4 7.389-2.414 11.059z"/>
    <path fill="#E4E4E4" d="M28.734 108.414c-1.787 0-3.573.049-5.36-.338.724-.483 1.497-.966 2.221-1.448.483-.339.87-.387 1.256.096.58.58 1.4.966 1.883 1.69z"/>
    <path fill="#EDF8FE" d="M24.774 105.468c.096-.145.241-.193.434-.241-.144.144-.29.241-.434.241z"/>
    <path fill="#EDF8FE" d="M24.387 105.711c.049-.193.193-.29.435-.29-.097.194-.29.242-.435.29z"/>
    <path fill="#232C39" d="M131.836 96.245c.048-.676-.049-1.4.144-2.077.049-.145.097-.338.049-.483-.773-1.69-.049-3.332.289-4.925 1.015-5.554 2.125-11.06 3.381-16.516.483-2.173.869-4.346 1.642-6.52.386.29.241.532.193.822-.724 3.042-1.497 6.133-2.173 9.175-.435 1.98-.821 4.008-1.207 6.036-.145.773.289 1.497.386 2.318.241 2.029.241 4.057.096 6.085-.289 4.54 1.304 8.5 3.188 12.459.193.435.434.918.627 1.353-1.207.048-2.366.048-3.573.096l-.048-.048-.049.048c-1.014-2.656-1.98-5.264-2.945-7.823z"/>
    <path fill="#F8F7F7" d="M103.875 126.959c-.241-.87-1.255-1.111-1.641-1.932-.58-1.111-.483-2.125.096-3.091 1.642-2.752 6.423-2.946 8.306-.386.193.241.338.483.628.628.435 1.98-.193 3.428-2.028 4.443-1.401.772-2.801.82-4.298.482-.338-.048-.724-.096-1.063-.144z"/>
    <path fill="#262E3A" d="M144.344 118.363c.917.048 1.4-.773 2.077-1.159 1.931-1.111 3.815-2.318 5.891-3.188 1.062-.483 2.125-.579 3.284-.434.386.676.145 1.255-.338 1.787-1.014 1.255-2.27 2.221-3.525 3.187-2.994 2.318-6.133 4.491-9.369 6.471.676-2.173 1.352-4.395 1.98-6.664z"/>
    <path fill="#232C39" d="M70.41 64.47c.096-.194.193-.435.434-.532 1.014 1.883 1.69 3.863 2.366 5.892 1.111 3.38 2.125 6.76 2.994 10.19 1.111 4.442 1.836 8.933 2.125 13.472.049.966.242 1.884.338 2.85-.58.145-.483.724-.676 1.11-.917 2.222-1.545 4.491-2.608 6.616l-.096-.048-.048.048-.097-.048c-.773-.097-1.497-.097-2.27 0-.145-.048-.29-.097-.434-.097.58-1.883 1.207-3.766 1.787-5.65 1.014-3.187 1.786-6.374 1.835-9.706 0-1.304.193-2.656.193-3.96.048-2.367-.483-4.636-1.111-6.858-1.062-3.718-2.125-7.485-3.67-11.058-.29-.725-.386-1.642-1.063-2.222z"/>
    <path fill="#EDF8FE" d="M131.836 96.246c.965 2.607 1.931 5.167 2.897 7.775-4.056-.049-8.065.579-12.073.434-5.167-.145-10.334-.048-15.453-.048-.386 0-.918.241-1.111-.338 2.56 0 5.119-.048 7.679-.048h14.97c.773 0 1.062-.242 1.256-1.015.579-2.221 1.014-4.539 1.835-6.76zM75.383 104.069c1.063-2.125 1.739-4.443 2.608-6.616.145-.386.097-.966.676-1.11.435 2.607 1.304 5.07 1.883 7.629-.386.483-.869.049-1.303.097-1.256 0-2.56-.048-3.864 0z"/>
    <path fill="#F8F7F7" d="M89.001 105.855c-.434.29-.87.193-1.255.193H68.574c-.386 0-.725 0-1.11.049-.194 0-.532.241-.532-.145 0-.338.338-.29.531-.29h20.379c.386-.048.773-.145 1.16.193z"/>
    <path fill="#EDF8FE" d="M66.69 110.684c-.434-1.4-.917-2.801-1.303-4.201-.194-.724-.049-1.449.627-1.932-.58 1.787.194 3.477.58 5.167.097.29.048.628.097.966zM103.248 104.068h1.98c-.773.725-1.352.725-1.98 0zM66.256 104.358c.676-.579 1.497-.338 2.221-.338-.241.531-.676.531-1.159.435-.338-.049-.724-.049-1.062-.097zM72.872 104.068c.773-.097 1.497-.097 2.27 0-.773.531-1.497.628-2.27 0zM81.467 104.068h.58c-.145.483-.386.483-.58 0zM75.239 104.068l.145.145-.145-.145zM66.014 104.551c.097-.049.193-.145.242-.194-.049.049-.145.145-.242.194zM171.773 129.808c0-.966 0-1.932-.048-2.898-.049-.724.338-.724.869-.579 1.4.434 2.27 1.786 2.173 3.428-.966 0-1.98 0-2.994.049z"/>
    <path fill="#BFDEFA" d="M171.773 129.807c1.014 0 2.028-.048 2.994-.048.049 1.545-1.497 2.704-2.366 2.946-.483.144-.676-.049-.676-.532.048-.821.048-1.593.048-2.366z"/>
    <path fill="#3DA23F" d="M65.966 74.562c0-.242.048-.435.241-.58 0 .242-.048.435-.241.58z"/>
    <path fill="#D8D6D6" d="M56.019 107.739c.048-.097.048-.242.096-.338-.048.145-.048.241-.096.338z"/>
    <path fill="#232C39" d="M117.252 58.095c.241 0 .434 0 .628.241 1.593 2.27 3.187 4.54 4.829 6.81.434.627.338.965-.483 1.158-1.256.29-2.511.725-3.719 1.063-.724.193-1.014.434-.338 1.11 1.353 1.4 2.608 2.898 3.96 4.298.435.483.58.773.193 1.449-3.138 5.409-6.277 10.866-9.368 16.323-2.125 3.718-4.25 7.485-6.423 11.203-.29.483-.628.966-1.062 1.642-.049-1.062.241-1.835.483-2.559.193-.532.145-.918-.194-1.4-2.945-4.106-5.94-8.259-8.885-12.363-1.546-2.173-2.994-4.395-4.588-6.471-1.497-1.884-2.752-3.912-4.25-5.747-.965-1.16-.917-1.256-.048-2.367 1.11-1.448 2.56-2.559 3.719-4.008.483-.627.338-.82-.29-1.014-1.256-.386-2.463-.772-3.719-1.159-1.11-.338-1.11-.531-.434-1.448 1.593-2.222 3.139-4.492 4.684-6.761.58-.58.676-.049.773.338 1.304 3.766 2.656 7.581 4.008 11.348 1.594 4.54 3.236 9.127 4.829 13.667 0 .145 0 .338.097.483 1.207 3.573 2.463 7.147 3.718 10.72.386 1.111.773 2.222 1.207 3.38.773-2.317 1.401-4.587 1.98-6.857.725-2.897 1.642-5.795 2.222-8.74 1.738-6.182 3.38-12.363 4.926-18.593.482-1.787 1.062-3.573 1.448-5.408-.048-.097 0-.242.097-.338z"/>
    <path fill="#F8F7F7" d="M117.252 58.095c-.097.145-.145.29-.241.386-.58.387-1.015.87-1.159 1.594-1.353 2.076-2.705 4.153-4.009 6.278-.338.531-.531.917-1.159.145-.531-.628-.917-1.45-1.786-1.835-.821-1.787-2.318-3.043-3.526-4.491-.241-.29-.483.048-.627.24-.58.725-1.111 1.498-1.642 2.27-.483.725-1.208 1.256-1.256 2.222-.821.29-1.062 1.11-1.545 1.739-.338.386-.483.53-.87 0-.917-1.353-1.835-2.705-2.849-3.96-.869-1.063-1.352-2.367-2.463-3.188 0-.193-.048-.338-.193-.434 0-.242-.145-.338-.386-.387-.097-.53-.435-.917-.628-1.352.966-1.69 2.898-3.235 4.54-4.394 2.414 1.738 3.959 3.428 6.422 5.167 1.256.918 1.256.966 2.56.048 2.173-1.497 4.394-2.994 6.567-4.54.387-.24.338-.096.532-.53.241 0 .434.241.627.434.821.87 1.691 1.4 2.367 2.367.386.579.772 1.158.821 1.883-.097.096-.097.193-.097.338z"/>
    <path fill="#D8D6D6" d="M122.853 58.288V44.959c0-.82-.241-1.11-1.062-1.062-1.642.048-3.332 0-4.974 0 .048-.145.048-.242.097-.387h.531c1.449 0 2.849-.048 4.298.049.869.048 1.11-.242 1.11-1.111-.048-4.83 0-9.658 0-14.488-.627-.434-1.352-.096-1.98-.193-1.303 0-33.514-.145-33.514-.145v-.53c.966-.05 32.259.337 32.259.337.821-.241 1.642-.241 2.463-.193.628.048.869-.193.869-.87-.048-1.69 0-3.428 0-5.166 0-.387-.097-.821.338-1.063.29.338.29.725.29 1.11 0 1.498.048 2.995 0 4.444-.048.966.096 1.593 1.207 1.642v.241c-1.111.048-1.207.724-1.207 1.642.048 4.25 0 8.5 0 12.749 0 1.449.096 1.545 1.497 1.545h14.053v.435h-14.536c-.724 0-1.062.145-1.062.966.048 4.54.048 9.03.048 13.57-.338-.097-.531-.145-.725-.193z"/>
    <path fill="#D2D2D2" d="M92.865 57.32c.193.435.53.87.628 1.353-.097 1.304.579 2.366 1.014 3.477 1.255 3.525 2.462 7.099 3.96 10.527.965 2.174 1.835 4.443 3.042 6.472.193.29.29.386.531.096-.145 1.4-.145 2.85-.531 4.201-1.594-4.539-3.236-9.127-4.83-13.666-1.351-3.767-2.655-7.582-4.007-11.349-.145-.386-.242-.917-.773-.337-.193-.58-.676-.194-1.014-.29.531-.532 1.304-.29 1.98-.483z"/>
    <path fill="#232C39" d="M85.96 85.863h4.684c.628 0 .87.193.821.82-.048.532.097 1.208-.773 1.208h-9.561c-.773 0-.821-.435-.821-1.062 0-.676.193-.966.917-.966h4.733z"/>
    <path fill="#E4E4E4" d="M127.635 59.206c.242-.58.483-1.449 1.063-1.546.483-.096.676.821 1.062 1.304.193.242.338.58.483.87-.918-.242-1.787-.435-2.608-.628z"/>
    <path fill="#282727" d="M91.175 34.528c-.386-3.477-.724-6.954.048-10.43.773-3.526 2.801-6.182 5.94-7.969.242-.145.483-.241.725-.338.048 0 .096 0 .29.048-.339.435-.628.87-.918 1.256.241.145.434.097.676-.048 1.738-1.353 3.67-2.077 5.795-2.463.145 0 .241-.048.29-.193h3.815c.483.338 1.062.241 1.593.386 3.332.773 6.133 2.415 8.596 4.78.097.097.145.194.242.29-.387.29-.725.097-1.208.194.87 1.497 1.449 3.09 1.787 4.78.483 2.657.338 5.313.097 7.969-.049.58-.097 1.207-.145 1.787-.725.29-1.111 1.014-1.739 1.593-.145-3.622-.145-7.195-1.062-10.624-.724-2.704-.29-2.125-2.753-1.352h-.386c-5.457 1.11-10.914 1.11-16.42.048-.337-.097-.724-.145-1.062-.338-.724-.386-1.014-.096-1.207.628-.483 1.593-.772 3.235-.917 4.877-.145 2.029-.242 4.105-.387 6.23-.58-.483-1.014-1.014-1.69-1.11zm8.258-14.15c.193 0 .435 0 .579-.047 3.139-1.111 6.423-1.111 9.707-.773.676.048 1.401.386 2.27.145-.242-.145-.387-.242-.531-.29-2.56-.918-5.216-1.207-7.872-.773-1.497.242-3.042.628-4.153 1.739-.048 0-.048.048-.097.096l.097-.096zm13.57-2.655c-3.815-2.028-7.727-2.753-11.783-1.014-2.753 1.207-4.588 2.56-4.878 4.056 2.415-1.69 5.119-2.608 7.968-3.187 2.946-.58 5.844-.386 8.693.145zm-.338 2.173c-.048-.048-.097-.097-.145-.048-.048 0-.097.048-.145.096.048.048.097.048.145.048.048-.048.097-.096.145-.096z"/>
    <path fill="#F0B998" d="M113.196 24.194c2.463-.773 2.028-1.304 2.753 1.352.917 3.429.917 6.954 1.062 10.624.628-.58 1.014-1.304 1.739-1.594 1.352 0 2.221.966 1.98 2.463-.242 1.932-1.015 3.67-2.946 4.54-.435.193-.58.53-.676.917-.483 1.449-1.208 2.753-2.27 3.912-.29.096-.338.386-.435.628-.386.241-.772.483-.821 1.014-.724.096-.965.82-1.545 1.159-4.443 2.414-8.934 2.8-13.473.241-.628-.338-1.063-1.014-1.787-1.207-.097-.58-.435-.918-1.014-1.014 0-.193-.049-.338-.193-.386-.097-.049-.194-.145-.29-.194-1.063-1.159-1.642-2.56-2.173-4.008-.193-.483-.387-.82-.918-1.062-1.931-.87-3.235-3.912-2.56-5.747.242-.724.677-1.207 1.498-1.256.676.097 1.11.628 1.69 1.111.145-2.173.242-4.201.386-6.23.145-1.641.435-3.283.918-4.877.241-.724.483-1.014 1.207-.628.338.193.676.242 1.063.338.193.58.772.628 1.207.676.87.145 1.69.387 2.511.532 3.912.676 7.727.386 11.59-.483.531-.194 1.256-.194 1.497-.821zM92.044 35.977s0-.048-.048-.048h-.048c.048 0 .048 0 .096.048 0 .048 0 .048.049.048h.048c-.048 0-.097-.048-.097-.048zm26.368-.193h1.497c-.483-.483-1.015-.676-1.497 0-.049 0-.049.048-.097.096.048-.048.048-.096.097-.096zm-13.329 11.541c1.883-.145 3.332-.869 4.298-2.51.145-.242.338-.484.145-.725-.193-.242-.483-.097-.773-.097-2.463.242-4.974.242-7.437 0-.241 0-.483-.145-.627.049-.145.241 0 .434.144.627.918 1.787 2.415 2.512 4.25 2.656zm4.878-12.12c0 .772.531 1.448 1.159 1.448.434 0 1.255-.918 1.255-1.449 0-.773-.579-1.449-1.207-1.449-.676 0-1.207.628-1.207 1.45zm-9.707.144c0-.917-.483-1.545-1.11-1.593-.677-.049-1.256.579-1.305 1.352-.048.82.532 1.545 1.208 1.545 1.014 0 .53-1.207 1.207-1.304zm-.966-3.38c-.966 0-1.787.241-2.511.724-.242.145-.435.338-.29.676.145.29.435.29.676.145 1.014-.628 2.125-.773 3.236-.386.241.096.483 0 .579-.242.145-.338-.048-.531-.338-.628-.434-.193-.917-.29-1.352-.29zm11.687 0c-.435-.049-.87.096-1.353.241-.289.097-.579.29-.434.676.096.29.386.29.676.242 1.062-.338 2.076-.242 3.042.338.29.193.58.241.773-.097.193-.338-.097-.531-.338-.724-.676-.435-1.449-.676-2.366-.676zm-5.844 9.368c.387.048.725-.145 1.111-.241.242-.097.386-.242.29-.531-.097-.242-.338-.242-.483-.194-.386.145-.773.145-1.159.145-.483 0-1.256-.627-1.304.145-.048.676.918.435 1.449.628 0 .096.048.048.096.048zm-13.328-5.795c-1.352-.29-1.594-.145-1.642.821.338-.58.918-.531 1.642-.82z"/>
    <path fill="#F0B998" d="M104.938 59.06c-1.159-.917-2.318-1.786-3.477-2.655-.917-.724-3.235-2.463-4.008-3.332-.193-.435.193-.87.145-1.304 0-.724.29-1.449.338-2.173.193.096 1.256.917 1.4 1.014 2.608 1.642 5.457 1.931 8.403 1.304 1.304-.242 4.298-2.705 5.506-3.284.241.966.772 3.767.241 4.346-1.497 1.739-4.346 3.14-6.036 4.443-.677.531-1.691.773-2.077 1.69-.097 0-.29-.048-.435-.048z"/>
    <path fill="#DA9F7E" d="M111.408 50.32c-1.207.579-2.318 1.303-3.621 1.545-2.946.58-5.795.338-8.403-1.304-.145-.097-.338-.145-.531-.242-.532-.483-1.014-.917-1.497-1.4-.242-.193-.58-.386-.483-.773.724.145 1.159.821 1.786 1.208 4.54 2.559 9.031 2.173 13.474-.242.579-.29.821-1.062 1.545-1.159-.241.821-.966 1.16-1.545 1.69-.242.242-.58.387-.725.676zM95.811 47.18c.58.097.918.435 1.014 1.015-.58-.097-.82-.531-1.014-1.014z"/>
    <path fill="#DA9F7E" d="M113.631 47.954c.048-.532.434-.773.821-1.014 0 .579-.29.917-.821 1.014z"/>
    <path fill="#DA9F7E" d="M114.403 46.987c.096-.242.144-.483.434-.628 0 .29.049.628-.434.628zM95.618 46.747c.193.096.193.241.193.386-.193-.048-.242-.193-.193-.386zM95.328 46.553c.097.048.194.145.29.193-.145.048-.241-.048-.29-.193z"/>
    <path fill="#282727" d="M98.274 15.646c.048 0 .048.048.096.048 0 .049-.048.049-.048.097l-.048-.048c-.049-.049 0-.097 0-.097z"/>
    <path fill="#454545" d="M113.002 17.723c-2.849-.531-5.747-.773-8.644-.193-2.849.58-5.553 1.497-7.968 3.187.29-1.449 2.076-2.85 4.877-4.056 4.009-1.69 7.92-.966 11.735 1.062z"/>
    <path fill="#DA9F7E" d="M113.195 24.194c-.289.676-.965.628-1.497.773-3.815.869-7.678 1.207-11.59.482-.82-.145-1.642-.386-2.51-.53-.435-.05-1.015-.097-1.208-.677 5.457 1.063 10.914 1.063 16.419-.048.145-.049.29 0 .386 0z"/>
    <path fill="#454545" d="M99.433 20.379c1.159-1.11 2.656-1.497 4.104-1.739 2.656-.386 5.312-.145 7.872.773.145.048.29.145.531.29-.869.241-1.545-.097-2.27-.145-3.283-.338-6.519-.338-9.706.773-.097.096-.338.048-.531.048zM112.665 19.896c-.048.048-.096.096-.145.096-.048 0-.096-.048-.145-.048.049-.048.097-.096.145-.096.049-.049.097 0 .145.048zM99.433 20.38l-.097.096.097-.097z"/>
    <path fill="#FBFBFB" d="M105.084 47.325c-1.835-.145-3.332-.917-4.25-2.608-.096-.193-.29-.434-.145-.627.145-.194.435-.097.628-.049 2.463.194 4.974.242 7.437 0 .241-.048.579-.144.773.097.193.241-.049.483-.145.724-.918 1.594-2.415 2.318-4.298 2.463z"/>
    <path fill="#322E2B" d="M109.961 35.204c0-.82.531-1.449 1.207-1.449.677 0 1.256.676 1.208 1.45 0 .53-.821 1.448-1.256 1.448-.628 0-1.159-.676-1.159-1.449zM100.254 35.35c-.676.096-.242 1.255-1.16 1.303-.675 0-1.255-.724-1.206-1.545.048-.773.627-1.4 1.303-1.352.58.048 1.063.724 1.063 1.593zM99.289 31.969c.434-.049.917.096 1.352.29.241.096.483.29.338.627-.097.242-.338.338-.579.242-1.16-.386-2.222-.29-3.236.386-.242.145-.531.145-.676-.145-.145-.29.048-.483.29-.676.724-.483 1.545-.724 2.51-.724zM110.974 31.969c.918-.048 1.69.193 2.415.676.241.145.531.338.338.724-.193.338-.483.29-.773.097-.966-.628-1.98-.676-3.042-.338-.29.096-.531.096-.676-.242-.145-.386.096-.53.434-.676.435-.145.87-.29 1.304-.241z"/>
    <path fill="#DA9F7E" d="M105.131 41.337h-.145c-.531-.194-1.497.048-1.449-.628.049-.773.87-.145 1.304-.145.387 0 .773-.048 1.159-.145.193-.048.435-.048.483.193.097.29-.048.483-.29.531-.289.097-.676.29-1.062.194zM91.803 35.542c-.724.29-1.303.242-1.641.821.048-.966.29-1.11 1.641-.82zM118.412 35.784c.483-.676 1.014-.434 1.497 0h-1.497zM92.044 35.976l.097.097h-.049c-.048-.049-.048-.097-.048-.097zM118.411 35.784l-.096.097c.048-.048.048-.097.096-.097z"/>
    <path fill="#DA9F7E" d="M92.044 35.977l-.096-.097h.048c.048.049.048.049.048.097z"/>
    <path fill="#D2D2D2" d="M89.436 57.998c.193-.434.482-.338.82-.145-.24.097-.53.193-.82.145z"/>
    <path fill="#E4E4E4" d="M127.056 59.11h-.049v.049l.049-.05z"/>
    <path fill="#D8D6D6" d="M131.932 60.026c.048.097.048.193.097.29-.145 0-.29 0-.338-.193.096-.048.145-.097.241-.097z"/>
    <path fill="#3DA23F" d="M67.076 29.602h.483l.725.145c.096.194.241.194.434.194l.049.048.048-.048c.097.096.193.145.29.241.048.193.193.29.338.338.096.145.193.29.241.386.097.194.145.387.242.628-.049.049 0 .097 0 .145v4.25c.048 2.51-.097 5.022.096 7.533v.435c0 1.69-.048 3.38-.048 5.07 0 1.836-.58 2.608-2.366 3.14h-.483c-.628-.097-1.111-.483-1.69-.677-.145-.386-.338-.724-.628-.965-.049-.145-.049-.242-.097-.387V32.597c-.048-1.787.628-2.608 2.367-2.995z"/>
    <path fill="#BFDEFA" d="M52.686 61.717h.483v12.652h-.483V61.717z"/>
    <path fill="#D8D6D6" d="M55.487 60.026c.048-.145.048-.242.096-.386H67.076v.434c-3.91 0-7.774 0-11.59-.048zM69.974 43.897v-.435H78.667c.144-.097.193-.241.193-.386h.145v1.014c-.29-.193-.628-.193-.966-.193h-8.065z"/>
    <path fill="#BFDEFA" d="M67.029 60.123v-.434-.387V52.3c0-.048.048-.096.048-.145h.483v8.79c-.58-.242-.435-.629-.531-.822zM81.467 54.28c.145-.193.338-.193.532-.096-.242 1.159.096 2.366-.194 3.525h-.338V54.28zM38.295 39.262v-2.367c-.048-.579-.048-1.207-.096-1.786 0-.338-.097-.87.241-.87.532-.048.193.58.387.87 0 1.4-.049 2.752-.049 4.153h-.483z"/>
    <path fill="#F8F7F7" d="M113.92 50.127c.483.579.483 1.158 0 1.786-.097-.627-.097-1.207 0-1.786zM113.968 49.065c.29.24.386.434-.048.627-.049-.241-.049-.434.048-.627zM113.919 52.3l.049.049-.049.048c-.048 0-.048-.048 0-.097z"/>
    <path fill="#FB462E" d="M97.452 50.126c0-.048-.049-.096-.049-.096s.049 0 .049.096c.048-.048 0 0 0 0zM113.051 49.692c0-.048.048-.048.048-.097 0 .049-.048.049-.048.097z"/>
    <path fill="#BFDEFA" d="M38.199 56.066c.193 0 .386 0 .579.049v1.98c0 .241.048.58-.242.58-.386 0-.29-.387-.29-.58-.047-.725-.047-1.4-.047-2.029z"/>
    <path fill="#EDF8FE" d="M70.505 43.462h-.482c-.194-2.51-.049-5.022-.097-7.533v-4.25l.048-.048c0-.048-.048-.096-.096-.096-.097-.194-.145-.387-.242-.628.725.29.821.724.918 1.545.29 3.718-.29 7.34-.049 11.01zM82.481 37.571c-.193-.048-.386-.048-.53-.096 0-1.45-.05-2.898-.05-4.347.484 0 .58.194.484.676-.29 1.256.048 2.512.096 3.767zM81.468 37.474c-1.111.194-1.884.87-2.319 1.884h-.193c-.241-.821.58-1.16.821-1.787.435-.966 1.16-.241 1.69-.435-.048.097 0 .194 0 .338z"/>
    <path fill="#BFDEFA" d="M81.467 37.475v-.387c0-1.062 0-2.173.049-3.235 0-.29-.097-.725.386-.725 0 1.45.048 2.898.048 4.347h-.483z"/>
    <path fill="#EDF8FE" d="M84.414 42.497c-.145-.676-.145-1.304 0-1.98.434.676.434 1.304 0 1.98zM78.908 40.902c-.435-.338-.676-.676 0-1.014v1.014zM83.496 38.103c-.29-.194-.628-.387-.918-.58.435 0 .918-.145.918.58z"/>
    <path fill="#D8D6D6" d="M78.909 40.903V39.89v-.58h.193c-.048.532-.048 1.063-.097 1.594h-.096z"/>
    <path fill="#EDF8FE" d="M68.719 29.94c-.193 0-.338 0-.435-.193.338-.29.386-.048.435.193zM84.317 39.696c0-.145-.048-.242-.048-.386.193.096.241.241.048.386zM78.908 43.124c0 .145-.048.29-.193.387.048-.145.097-.29.193-.387zM69.685 30.955c-.097-.145-.193-.29-.242-.386.194 0 .242.193.242.386zM84.268 39.165l-.145-.29c.049.145.097.194.145.29zM84.075 38.778c-.048-.097-.145-.194-.193-.29.048.096.096.193.193.29zM69.105 30.182c-.096-.097-.193-.145-.29-.242.049.097.145.145.29.242zM83.689 38.296l-.193-.193c.048.048.096.145.193.193zM83.883 38.537l-.194-.193.194.193zM67.028 52.3V59.3c-.29 0-.482.049-.53.387h-10.19c-.387-.676-.435-1.449-.387-2.173v-6.471c0-.338.145-.773-.338-.918 0-.145 0-.29-.048-.435.242-.386.29-.676-.29-.772.145-.531-.145-.821-.627-1.063-.387-.193-1.111-.241-1.111-.82 0-1.063-.242-2.174.193-3.236h10.334c.483 1.738.145 3.525.242 5.264 0 .338-.193.82.338 1.014.048.145.048.241.096.386-.241.242-.434.58-.29.87.194.289.58.144.918.096.242.966.966.87 1.69.87z"/>
    <path fill="#D8D6D6" d="M41.144 41.869c0-.145 0-.242-.048-.387.241.145.241.29.048.387z"/>
    <path fill="#EDF8FE" d="M55.584 50.078c.483.193.338.58.338.917v6.471c0 .773 0 1.497.386 2.173h-.772c.048-3.139.048-6.374.048-9.561zM53.748 43.8c-.434 1.063-.193 2.174-.193 3.236 0 .58.725.58 1.111.821.483.242.724.531.628 1.063-.628-.58-1.256-1.16-2.125-1.304 0-1.063-.048-2.125 0-3.188 0-.337-.097-.869.58-.627z"/>
    <path fill="#EDF8FE" d="M55.294 48.92c.58.096.483.386.29.772-.145-.241-.242-.531-.29-.773zM56.308 83.835c-.532-.048-1.063-.096-.918-.87.386.194.628.532.918.87zM53.507 84.414c-.048.58-.096 1.159-.87 1.207.242-.435.484-.87.87-1.207zM58.143 83.834h-1.014c.338-.58.676-.772 1.014 0z"/>
    <path fill="#EDF8FE" d="M55.39 83.013c-.289 0-.579.049-.868.049.24-.58.53-.821.869-.049zM57.128 83.834c-.241.58-.53.58-.82.048.29 0 .53-.048.82-.048zM54.087 83.593c0 .338 0 .628-.435.628.096-.242.241-.483.434-.628zM52.493 85.766c-.048.193-.193.241-.386.29.145-.097.29-.194.386-.29zM124.593 27.284c-1.111-.049-1.256-.676-1.208-1.642.097-1.497 0-2.946 0-4.443 0-.386 0-.773-.29-1.11l1.449.434c.097 2.27.049 4.54.049 6.76z"/>
    <path fill="#BFDEFA" d="M124.593 27.285v-6.761c.145 0 .338.048.483.048 0 2.173-.145 4.395.096 6.568v.58c-.29 1.641.097 3.332-.241 4.925h-.387v-5.07c.049-.097.049-.194.049-.29zM168.682 21.925c-.338 0-.676 0-1.014-.049.29-.772.097-1.545.145-2.366 0-.193 0-.435.242-.483.338-.048.289.29.338.483.096.821-.338 1.69.289 2.415z"/>
    <path fill="#3DA23F" d="M139.611 39.357h-.579c-1.401-.242-2.173-1.111-2.415-2.463.048-3.236.097-6.52 0-9.755 0-.193.048-.386.048-.58-.048-1.593.387-2.849 2.125-3.332.387-.096.387-.386.338-.724.097-.145 0-.483.242-.483.241 0 .145.338.241.483-.096.338 0 .628.338.724.676.145 1.159.676 1.691 1.014v.049l.048.048c.386.966.386 2.028.386 3.042v8.79c-.096 1.786-.773 2.655-2.463 3.187z"/>
    <path fill="#D8D6D6" d="M136.569 27.14c.097 3.236.097 6.52 0 9.755-.29-.338-.145-.676-.145-1.062 0-2.367-.048-4.733 0-7.051 0-.821-.241-1.062-1.062-1.062-3.38.048-6.761 0-10.141 0v-.58c3.718 0 7.485 0 11.203-.048.049 0 .097.048.145.048z"/>
    <path fill="#EDF8FE" d="M136.568 27.14h-.145c.097-.87-.193-1.787.194-2.657.434-1.11 1.497-1.497 2.462-1.931.097.338.049.628-.338.724-1.738.435-2.173 1.739-2.124 3.332 0 .145-.049.338-.049.532zM141.59 24.242c-.531-.386-.966-.869-1.69-1.014-.338-.048-.435-.338-.338-.724.338.29.676.58 1.207.676.483.097.821.483.821 1.062z"/>
    <path fill="#D8D6D6" d="M170.374 31.1c.048-.048.096-.145.144-.193 0 .048-.048.145-.144.193z"/>
    <path fill="#FB462E" d="M153.954 40.227c-.194-.048-.387-.048-.58-.097-1.449-.29-2.27-1.207-2.366-2.56-.097-2.124.434-3.138 1.98-3.67.145-.048.289-.096.483-.192h.483c1.883.676 2.414 1.4 2.414 3.235 0 1.932-.531 2.656-2.414 3.284z"/>
    <path fill="#BFDEFA" d="M153.905 33.757h-.483v-2.173c0-.145 0-.387.193-.387.29-.048.29.193.29.387.048.724.048 1.448 0 2.173zM167.717 32.307c.241 0 .434.048.676.048 0 .773 0 1.498-.048 2.27 0 .29.193.773-.29.773-.386 0-.242-.483-.242-.725-.048-.772.049-1.593-.096-2.366z"/>
    <path fill="#EDF8FE" d="M132.077 59.688c1.159-2.125 2.56-4.105 3.815-6.181 1.159-1.835 1.159-1.835 2.608-.193 1.835 2.125 3.622 4.25 5.457 6.326-3.96.048-7.92.048-11.88.048zM164.77 75.866c-1.641 0-3.235-.048-4.877 0-.773 0-.966-.242-.966-.966 0-2.511.097-5.022-.048-7.534.29-.965.869-1.69 1.545-2.607 1.497 3.766 3.043 7.388 4.346 11.107z"/>
    <path fill="#D8D6D6" d="M132.078 59.688h11.88c.048.097.144.242.193.338-4.057.145-8.113.145-12.17 0 0-.144.048-.24.097-.338z"/>
    <path fill="#EDF8FE" d="M167.62 76.06c.387.192.966-.194 1.111.385.048.242-1.111 1.787-1.255 1.69-.58-.337-.773-1.014-.821-1.593-.049-.724.676-.29.965-.483zM176.94 70.457c.338.29.048.483-.097.628-.579.725-.772 1.69-1.738 2.125.483-1.014 1.111-1.883 1.835-2.752zM185.343 63.069c.096.87-.242 1.545-1.014 1.98.241-.676.531-1.352 1.014-1.98zM174.333 74.224c0 .386-.29.483-.58.434-.483-.048-.724-.338-.773-.82.435.144.821.579 1.353.386zM186.357 62.296c-.29.145-.531.242-.821.386.145-.627.483-1.11.821-1.593v1.207zM182.736 67.753c-.58.58-.918.193-1.208-.29.435.049.821.194 1.208.29zM179.741 66.45c-.241.337-.145.965-.821 1.013.194-.434.29-.869.821-1.014zM172.16 74.032c.386.53-.097.53-.387.627 0-.29.145-.482.387-.627zM178.534 68.043c.29.483-.048.531-.386.58.048-.242.145-.435.386-.58zM177.761 69.25c.29.483-.097.532-.435.58.049-.242.194-.435.435-.58zM175.154 73.21c.048.338 0 .628-.435.628.048-.242.145-.483.435-.628zM183.508 66.932c.048.29-.048.483-.386.531.048-.241.144-.434.386-.53zM181.479 67.415c-.289.048-.482-.049-.531-.338.242 0 .435.145.531.338zM180.562 66.883c-.338.29-.386 0-.386-.24.144.047.241.144.386.24zM184.136 65.483c.29.338.048.338-.193.387.048-.145.145-.29.193-.387zM186.55 60.654c.29.338.049.338-.193.387 0-.145 0-.29.193-.387zM183.75 66.256c.289.338 0 .338-.242.386.048-.145.097-.29.242-.386zM125.172 27.72c3.38 0 6.761.047 10.141 0 .821 0 1.111.24 1.063 1.062-.049 2.366 0 4.732 0 7.05 0 .338-.097.724.145 1.063.241 1.352 1.014 2.22 2.414 2.462v4.153h-14.053c-1.448 0-1.497-.096-1.497-1.545 0-4.25.049-8.5 0-12.749 0-.917.097-1.642 1.208-1.642v5.07h.386c.338-1.641-.097-3.331.193-4.925z"/>
    <path fill="#FB462E" d="M101.508 83.448c.387-1.4.387-2.801.532-4.202.386-1.835.772-3.621 1.11-5.457.29-1.448.918-2.849 1.063-4.346.193-.241-.048-.338-.145-.483-.918-1.014-1.594-2.221-1.883-3.573-.049-.242-.145-.435-.387-.58.049-.917.773-1.497 1.256-2.221.531-.773 1.062-1.497 1.642-2.27.145-.193.338-.531.628-.241 1.207 1.448 2.704 2.752 3.525 4.49-.531 1.498-.821 3.043-1.932 4.299-.145.145-.096.386.097.53 0 .146-.049.29 0 .387 1.304 2.898 1.98 5.94 2.801 8.982.241 1.208.483 2.367.772 3.574-.579 2.946-1.448 5.843-2.221 8.74-.58 2.27-1.207 4.54-1.98 6.858-.386-1.11-.773-2.221-1.207-3.38-1.256-3.574-2.463-7.147-3.719-10.72.048-.05.048-.194.048-.387z"/>
    <path fill="#E4E4E4" d="M109.864 78.86c-.821-3.042-1.497-6.133-2.801-8.982-.049-.097 0-.242 0-.387.869-.53 1.159-1.497 1.497-2.366.241-.676.483-.724.869-.145l1.304 1.884c.338.483.579.772 1.014-.049 1.352-2.704 2.753-5.408 4.105-8.113.096-.193.241-.434 0-.627.193-.677.579-1.208 1.159-1.594-.338 1.835-.918 3.622-1.449 5.409-.676.483-.676 1.255-.869 1.931-1.159 3.332-2.27 6.713-3.525 10.045-.339.966-.435 2.173-1.304 2.994z"/>
    <path fill="#D2D2D2" d="M109.863 78.86c.821-.821.918-1.98 1.304-3.042 1.207-3.332 2.318-6.713 3.525-10.045.242-.676.242-1.449.87-1.932-1.546 6.23-3.236 12.411-4.926 18.593-.242-1.208-.483-2.367-.773-3.574z"/>
    <path fill="#E4E4E4" d="M104.214 69.443c-.145 1.497-.773 2.898-1.063 4.347-.386 1.835-.772 3.621-1.11 5.456-.242.29-.338.194-.531-.096-1.256-2.077-2.077-4.298-3.043-6.471-1.497-3.429-2.704-7.002-3.96-10.528-.386-1.11-1.11-2.221-1.014-3.477.242 0 .386.145.386.387 0 .193.049.338.194.434.145.87.724 1.546 1.159 2.27 1.4 2.56 2.849 5.07 4.298 7.63.29.483.483.531.724 0 .29-.58.579-1.207.869-1.787.145-.338.193-.917.58-.966.434 0 .434.58.628.918.338.87.82 1.69 1.883 1.883z"/>
    <path fill="#D2D2D2" d="M104.213 69.443c-1.062-.241-1.545-1.062-1.98-1.931-.193-.339-.193-.918-.627-.918-.387 0-.435.58-.58.966-.29.58-.579 1.207-.869 1.787-.242.53-.435.483-.724 0-1.4-2.56-2.898-5.071-4.298-7.63-.387-.725-1.014-1.401-1.16-2.27 1.111.82 1.643 2.125 2.464 3.187 1.014 1.256 1.931 2.608 2.849 3.96.338.531.53.386.869 0 .483-.628.724-1.449 1.545-1.739.242.145.29.338.387.58.338 1.352.965 2.511 1.883 3.573.241.097.483.194.241.435zM115.803 60.075c.241.193.145.386 0 .627-1.401 2.705-2.801 5.41-4.105 8.114-.386.82-.676.482-1.014.048l-1.304-1.884c-.386-.58-.628-.53-.869.145-.29.918-.58 1.835-1.497 2.367-.194-.145-.242-.339-.097-.532 1.062-1.255 1.4-2.8 1.932-4.298.869.338 1.255 1.16 1.786 1.835.628.773.821.435 1.159-.144 1.353-2.125 2.705-4.202 4.009-6.278zM94.072 59.495c-.193-.096-.193-.241-.193-.434.144.096.193.241.193.434z"/>
    <path fill="#EDF8FE" d="M122.854 27.913c-.676.145-1.4.58-1.98-.193.628.096 1.304-.193 1.98.193zM65.387 51.43c-.338.048-.725.193-.918-.096-.145-.29 0-.628.29-.87.29.242.483.58.628.966zM67.029 52.3c-.724 0-1.449.097-1.642-.87.58.242 1.062.629 1.69.677 0 .048-.048.145-.048.193z"/>
    <path fill="#D8D6D6" d="M69.877 31.534l.097.097-.049.048c-.048-.048-.048-.096-.048-.145z"/>
    <path fill="#EDF8FE" d="M66.498 59.689c.048-.339.241-.387.53-.387v.387c-.144-.049-.337-.049-.53 0zM119.135 31.294c0-.145.048-.29.048-.435l-.048.434z"/>
</svg>
