<svg width="30" height="30" viewBox="0 0 30 30" fill="none" xmlns="http://www.w3.org/2000/svg">
<circle cx="15" cy="15" r="14.75" fill="white" stroke="#F5821F" stroke-width="0.5"/>
<path d="M21.63 12.838V20.5245C21.63 21.027 21.4304 21.5088 21.0751 21.8641C20.7198 22.2194 20.238 22.419 19.7355 22.419H10.8945C10.392 22.419 9.91017 22.2194 9.55489 21.8641C9.1996 21.5088 9 21.027 9 20.5245V7.8945C9 7.39205 9.1996 6.91017 9.55489 6.55489C9.91017 6.1996 10.392 6 10.8945 6H14.792C15.1269 6.00005 15.448 6.13307 15.6848 6.36982L21.2602 11.9452C21.4969 12.182 21.6299 12.5031 21.63 12.838Z" stroke="#F5821F" stroke-width="1.375" stroke-linejoin="round"/>
<path d="M15.3145 6.31641V11.0527C15.3145 11.3876 15.4475 11.7089 15.6844 11.9457C15.9212 12.1826 16.2425 12.3157 16.5775 12.3157H21.3137" stroke="#F5821F" stroke-width="1.375" stroke-linecap="round" stroke-linejoin="round"/>
<path d="M16.8696 14.6087V14H12V14.6087H13.6739C14.0098 14.6097 14.3336 14.7344 14.5834 14.9589C14.8332 15.1835 14.9916 15.4922 15.0283 15.8261H12V16.4348H15.0283C14.9916 16.7687 14.8332 17.0774 14.5834 17.302C14.3336 17.5265 14.0098 17.6512 13.6739 17.6522H12V18.3659L14.9269 21L15.3341 20.5477L12.7931 18.2609H13.6739C14.1719 18.2601 14.6512 18.0718 15.0165 17.7333C15.3817 17.3949 15.606 16.9312 15.6446 16.4348H16.8696V15.8261H15.6446C15.6096 15.3691 15.4165 14.9386 15.0983 14.6087H16.8696Z" fill="#F5821F"/>
</svg>
