<svg width="144" height="144" viewBox="0 0 144 144" fill="none" xmlns="http://www.w3.org/2000/svg">
<path d="M72 144C111.765 144 144 111.765 144 72C144 32.2355 111.765 0 72 0C32.2355 0 0 32.2355 0 72C0 111.765 32.2355 144 72 144Z" fill="#EC1E2E"/>
<path d="M82.1539 71.9994L98.7139 55.5114C100.07 54.1556 100.831 52.3168 100.831 50.3994C100.831 48.482 100.07 46.6432 98.7139 45.2874C97.3581 43.9316 95.5193 43.1699 93.6019 43.1699C91.6845 43.1699 89.8457 43.9316 88.4899 45.2874L72.0019 61.8474L55.5139 45.2874C54.1581 43.9316 52.3193 43.1699 50.4019 43.1699C48.4845 43.1699 46.6457 43.9316 45.2899 45.2874C43.9341 46.6432 43.1724 48.482 43.1724 50.3994C43.1724 52.3168 43.9341 54.1556 45.2899 55.5114L61.8499 71.9994L45.2899 88.4874C44.6151 89.1567 44.0794 89.953 43.7139 90.8304C43.3484 91.7078 43.1602 92.6489 43.1602 93.5994C43.1602 94.5499 43.3484 95.491 43.7139 96.3683C44.0794 97.2457 44.6151 98.0421 45.2899 98.7114C45.9592 99.3862 46.7556 99.9219 47.633 100.287C48.5103 100.653 49.4514 100.841 50.4019 100.841C51.3524 100.841 52.2935 100.653 53.1709 100.287C54.0482 99.9219 54.8446 99.3862 55.5139 98.7114L72.0019 82.1514L88.4899 98.7114C89.1592 99.3862 89.9556 99.9219 90.833 100.287C91.7103 100.653 92.6514 100.841 93.6019 100.841C94.5524 100.841 95.4935 100.653 96.3709 100.287C97.2482 99.9219 98.0446 99.3862 98.7139 98.7114C99.3887 98.0421 99.9244 97.2457 100.29 96.3683C100.655 95.491 100.844 94.5499 100.844 93.5994C100.844 92.6489 100.655 91.7078 100.29 90.8304C99.9244 89.953 99.3887 89.1567 98.7139 88.4874L82.1539 71.9994Z" fill="#EDEBEA"/>
</svg>
