<svg width="202" height="95" viewBox="0 0 202 95" fill="none" xmlns="http://www.w3.org/2000/svg">
    <path d="M169.762 35.756c-2.638-.921-4.439-2.502-6.47-4.816l.858-1.833c2.136 2.817 2.838 4.346 5.497 4.126l.115 2.523z" fill="#FFB900"/>
    <path d="M200.035 76.328c-1.968-2.554-2.837-5.172-3.57-8.617l1.675-1.11c.576 3.969.471 5.822 3.005 7.35l-1.11 2.377z" fill="#007BFF"/>
    <path d="M62.94 33.89c-1.308 1.864-2.784 2.859-4.763 3.833l-.859-1.225c2.314-.911 3.445-1.026 4.084-3.246l1.539.639z" fill="#FF5C33"/>
    <path d="M17.275 88.21c-3.12.157-5.455-.712-8.198-2.22l.566-2.209c2.963 1.99 4.062 3.246 6.973 1.927l.66 2.502z" fill="#007BFF"/>
    <path d="M22.956 34.75c-2.376-1.737-3.622-3.852-4.816-6.763l1.623-1.518c1.1 3.434 1.215 5.151 4.073 5.78l-.88 2.502z" fill="#14CCA1"/>
    <path d="M37.197 53.826c-2.69 1.884-5.235 2.429-8.491 2.638l-.68-2.261c3.706.083 5.36.575 7.255-2.2l1.916 1.823z" fill="#007BFF"/>
    <path d="M75.82 1.916c-2.702 1.591-5.183 1.906-8.324 1.843l-.513-2.22c3.56.377 5.12.984 7.099-1.539l1.738 1.916z" fill="#FFB900"/>
    <path d="M114.141 7.392c-2.261-1.11-3.717-2.712-5.308-5.005l.911-1.518c1.643 2.743 2.136 4.178 4.512 4.293l-.115 2.23z" fill="#14CCA1"/>
    <path d="M148.516 13.798c2.869-.387 3.099-1.989 4.408-5.13l1.508 1.529c-1.372 2.649-2.733 4.544-5.204 5.999l-.712-2.398z" fill="#FF5C33"/>
    <path d="M68.023 94.251c-2.492-1.487-4.03-3.455-5.696-6.209l1.163-1.644c1.675 3.278 2.125 4.963 4.826 5.32l-.293 2.533z" fill="#FF5C33" opacity=".8"/>
    <path d="M150.275 71.963c-.994 3.089-2.523 5.13-4.722 7.392l-1.56-1.152c2.649-2.345 4.052-3.078 4.042-6.271l2.24.031zM49.2 20.94c0 .586-.47 1.047-1.046 1.047-.576 0-1.047-.461-1.047-1.047a1.05 1.05 0 0 1 1.047-1.047A1.05 1.05 0 0 1 49.2 20.94z" fill="#FF5C33"/>
    <path d="M132.402 20.94c0 .586-.471 1.047-1.047 1.047-.586 0-1.047-.461-1.047-1.047 0-.576.461-1.047 1.047-1.047a1.05 1.05 0 0 1 1.047 1.047z" fill="#FFB900"/>
    <path d="M159.764 52.842a1.05 1.05 0 0 1-1.047 1.047 1.05 1.05 0 0 1-1.047-1.047 1.05 1.05 0 0 1 1.047-1.047 1.05 1.05 0 0 1 1.047 1.047z" fill="#FF5C33"/>
    <path d="M50.872 63.447c0 .587-.471 1.047-1.047 1.047s-1.047-.46-1.047-1.047a1.05 1.05 0 0 1 1.047-1.047 1.05 1.05 0 0 1 1.047 1.047z" fill="#14CCA1"/>
    <path d="m4.188 54.278-2.094 2.094L0 54.278l2.094-2.094 2.094 2.094z" fill="#FFB900"/>
    <path d="m186.02 50.842-2.094 2.094-2.094-2.094 2.094-2.094 2.094 2.094z" fill="#14CCA1"/>
</svg>
