<svg width="65" height="66" viewBox="0 0 65 66" fill="none" xmlns="http://www.w3.org/2000/svg">
    <circle cx="32.273" cy="33.129" r="32.273" fill="#2B943F" fill-opacity=".13"/>
    <path d="M32.73 12.674c-11.53 0-20.91 9.38-20.91 20.91s9.38 20.909 20.91 20.909 20.91-9.38 20.91-20.91-9.38-20.91-20.91-20.91zm13.624 14.958L28.479 42.805c-.39.328-.87.508-1.359.511h-.031l-.204-.01a2.145 2.145 0 0 1-1.466-.79l-6.604-8.304a2.13 2.13 0 0 1-.452-1.575 2.108 2.108 0 0 1 2.114-1.886c.671 0 1.307.299 1.702.8l5.21 6.552 16.189-13.741c.367-.309.85-.476 1.366-.476.664 0 1.268.262 1.656.72.766.91.653 2.265-.245 3.026h-.001z" fill="#2B943F"/>
</svg>
