<svg width="30" height="30" viewBox="0 0 30 30" fill="none" xmlns="http://www.w3.org/2000/svg">
<circle cx="15" cy="15" r="14.75" fill="white" stroke="#F5821F" stroke-width="0.5"/>
<g clip-path="url(#clip0_2864_2177)">
<path d="M18.9492 8H9.07812C8.52715 8.00058 7.99891 8.21971 7.60931 8.60931C7.21971 8.99891 7.00058 9.52715 7 10.0781V11.7461C7 11.8549 7.04321 11.9592 7.12013 12.0361C7.19705 12.113 7.30138 12.1562 7.41016 12.1562H10.3359V21.5898C10.3359 21.6986 10.3792 21.8029 10.4561 21.8799C10.533 21.9568 10.6373 22 10.7461 22H20.5898C20.6986 22 20.8029 21.9568 20.8799 21.8799C20.9568 21.8029 21 21.6986 21 21.5898V10.0508C20.9993 9.50708 20.7831 8.98583 20.3986 8.60138C20.0142 8.21692 19.4929 8.00065 18.9492 8ZM7.82031 11.3359V10.0781C7.82075 9.74467 7.95341 9.42499 8.1892 9.1892C8.42499 8.95341 8.74467 8.82075 9.07812 8.82031H10.3359V11.3359H7.82031ZM20.1797 21.1797H11.1562V8.82031H18.9492C19.2754 8.82067 19.5882 8.95043 19.8189 9.18111C20.0496 9.41179 20.1793 9.72455 20.1797 10.0508V21.1797Z" fill="#F5821F"/>
<path d="M18.6758 18.5547H12.6602C12.5514 18.5547 12.4471 18.5979 12.3701 18.6748C12.2932 18.7517 12.25 18.8561 12.25 18.9648C12.25 19.0736 12.2932 19.1779 12.3701 19.2549C12.4471 19.3318 12.5514 19.375 12.6602 19.375H18.6758C18.7846 19.375 18.8889 19.3318 18.9658 19.2549C19.0427 19.1779 19.0859 19.0736 19.0859 18.9648C19.0859 18.8561 19.0427 18.7517 18.9658 18.6748C18.8889 18.5979 18.7846 18.5547 18.6758 18.5547Z" fill="#F5821F"/>
<path d="M17.8889 11.6524V11.1113H14V11.6524H15.3368C15.6051 11.6533 15.8636 11.7641 16.0632 11.9637C16.2627 12.1633 16.3891 12.4377 16.4184 12.7345H14V13.2756H16.4184C16.3891 13.5724 16.2627 13.8468 16.0632 14.0464C15.8636 14.246 15.6051 14.3568 15.3368 14.3577H14V14.9921L16.3375 17.3336L16.6627 16.9315L14.6334 14.8988H15.3368C15.7345 14.8981 16.1173 14.7307 16.409 14.4299C16.7007 14.129 16.8798 13.7169 16.9106 13.2756H17.8889V12.7345H16.9106C16.8827 12.3283 16.7284 11.9456 16.4743 11.6524H17.8889Z" fill="#F5821F"/>
</g>
<defs>
<clipPath id="clip0_2864_2177">
<rect width="14" height="14" fill="white" transform="translate(7 8)"/>
</clipPath>
</defs>
</svg>
