<svg width="39" height="27" viewBox="0 0 39 27" fill="none" xmlns="http://www.w3.org/2000/svg">
    <g clip-path="url(#da56463qya)">
        <path d="M37.595 4.55a4.745 4.745 0 0 0-1.234-2.12 4.787 4.787 0 0 0-2.131-1.226c-2.952-.8-14.83-.8-14.83-.8S7.523.43 4.572 1.228A4.787 4.787 0 0 0 2.44 2.455a4.745 4.745 0 0 0-1.235 2.119C.313 9.785-.034 17.726 1.23 22.729a4.744 4.744 0 0 0 1.234 2.119 4.787 4.787 0 0 0 2.132 1.226c2.95.8 14.829.8 14.829.8s11.878 0 14.829-.8a4.787 4.787 0 0 0 2.132-1.226 4.743 4.743 0 0 0 1.234-2.119c.941-5.219 1.231-13.155-.025-18.18z" fill="red"/>
        <path d="m15.62 19.311 9.854-5.672-9.854-5.672V19.31z" fill="#fff"/>
    </g>
    <defs>
        <clipPath id="da56463qya">
            <path fill="#fff" transform="translate(.405 .404)" d="M0 0h38.031v26.576H0z"/>
        </clipPath>
    </defs>
</svg>
