<svg width="151" height="135" viewBox="0 0 151 135" fill="none" xmlns="http://www.w3.org/2000/svg">
<path d="M38.2048 102.476C37.8036 106.202 42.4334 104.132 42.6186 107.887C41.5692 106.202 40.0567 108.863 40.2111 107.089C40.3037 106.172 39.5012 106.645 39.1925 105.758C38.2974 103.185 35.7973 101.648 34.5318 99.3414C30.8897 95.1425 28.8217 90.1453 27.8957 84.734C26.908 78.9384 27.6488 73.3498 29.655 67.8794C30.1798 66.4601 31.0131 65.159 31.723 63.7988C31.9082 63.444 32.1552 63.0891 32.649 63.1778C32.649 63.6214 32.4947 64.0058 32.2478 64.3606C31.723 64.7746 31.5687 65.3069 31.723 65.9278C31.7848 66.0165 31.7539 66.0757 31.6613 66.1348C31.6304 66.1644 31.5378 66.1644 31.5378 66.1939C31.5378 66.2531 31.5687 66.3418 31.5996 66.4009C31.5687 66.6079 31.5378 66.8445 31.4761 67.0515C31.1057 69.0622 30.5501 71.0729 30.4267 73.0836C30.2415 76.3067 30.2106 79.5889 30.4575 82.812C30.581 84.5862 30.4267 86.3012 30.365 88.0458C30.3341 89.2286 30.9823 89.9678 31.8156 90.6775C32.0934 90.9141 32.6181 91.1211 32.7107 90.7071C32.8959 89.8496 33.1429 89.1695 33.6984 88.4302C34.0997 87.8684 34.038 86.6561 33.4206 85.9168C32.6799 85.0297 32.7107 84.0539 32.9268 83.1077C33.3898 80.9196 33.5441 78.761 33.4824 76.5433C33.4515 74.8282 33.4206 73.1132 33.4824 71.3686C33.5441 70.3632 34.0688 69.3283 35.1491 69.1509C36.4763 68.9439 35.5504 70.3337 36.106 70.7477C36.1368 70.7772 36.1985 70.8068 36.2294 70.8364C36.6307 72.4035 36.5998 74.0003 36.2911 75.5971C35.7047 75.9223 35.8282 76.3067 36.1368 76.7503C35.8899 77.9626 35.6738 79.175 35.396 80.3577C35.2726 80.9196 35.1491 81.4814 35.3034 82.0728C34.9639 82.9894 34.4392 83.8469 34.3466 84.8523C33.6984 90.5001 35.0874 95.8226 37.0936 101.056H37.0628C37.0319 101.323 37.0319 101.559 37.3097 101.707L37.2788 101.766C37.4023 101.973 38.1431 102.21 38.2048 102.476Z" fill="#EAF2FD"/>
<path d="M44.5015 95.4051C45.5509 97.8593 46.6312 100.314 47.6806 102.768C47.6498 105.636 48.977 107.765 48.977 110.633C47.3411 110.012 47.2485 109.598 45.3657 108.948C44.1002 108.534 43.2977 107.144 43.0817 108.209C42.7113 110.16 40.4889 108.948 40.1803 110.9C39.5938 114.832 40.1494 102.117 39.8408 106.08C39.8099 106.523 39.9025 106.996 39.2852 107.174C39.2543 107.144 39.1926 107.115 39.1309 107.085C39.7482 100.698 41.2915 106.612 42.5569 107.174C42.6187 106.582 43.5446 107.203 43.5446 106.612C43.5755 106.316 43.5755 106.05 43.6064 105.754C43.9768 104.69 43.8533 103.596 43.699 102.502C43.7298 100.521 43.7607 98.5394 43.8224 96.5287C43.8224 96.233 43.8224 95.9373 43.8224 95.6712C43.8533 95.4938 43.8533 95.3164 43.8842 95.1094C44.1311 95.2277 44.3163 95.3164 44.5015 95.4051Z" fill="#E4EDFE"/>
<path d="M135.616 86.8005C135.616 88.8112 135.585 90.7924 135.585 92.8031C134.474 92.9214 134.166 93.6606 134.227 94.5773C134.289 95.6122 134.413 96.7063 134.968 97.5638C136.018 99.1901 135.092 100.373 134.289 101.911C134.073 100.669 133.98 99.6633 133.733 98.6875C133.548 97.9482 133.24 97.1499 132.252 97.3568C131.172 97.5934 131.264 98.4509 131.48 99.2789C131.882 100.669 132.838 101.792 133.548 103.034C132.591 103.537 133.024 104.128 133.456 104.72C132.869 104.779 132.314 104.394 131.727 104.601C131.635 104.276 131.573 103.951 131.48 103.596C132.499 103.448 132.777 103.064 131.882 102.354C131.172 101.792 130.431 101.26 129.783 100.669C128.425 99.4267 126.943 98.3622 126.511 96.4106C126.202 94.9617 125.863 93.4241 124.597 92.3004C123.27 91.1177 122.344 91.2359 121.727 92.8623C120.832 95.1983 120.461 97.6525 120.492 100.136C120.06 99.5154 119.381 99.545 118.702 99.545C108.177 99.545 97.6825 99.545 87.1573 99.5746C79.3483 99.5746 71.5393 99.4563 63.7304 99.6337C61.292 99.6928 58.9462 97.416 59.0388 95.1983C59.1005 93.5128 59.0388 91.8569 59.0388 90.1714C59.0388 80.7683 59.0388 71.3652 59.0079 61.9621C59.0079 61.4299 59.4092 60.5723 58.2671 60.5428C58.1745 59.2417 57.7733 58.0294 57.4338 56.7874C58.0202 56.5509 58.9153 56.9649 59.1931 56.2256C59.5018 55.4272 58.7919 54.895 58.2671 54.3627C57.4338 53.5052 56.4152 52.766 55.7362 51.8198C54.3164 49.7795 52.4644 48.3601 50.0569 47.5322C50.1804 46.9704 49.0075 46.2903 49.6865 46.1128C51.2607 45.6989 49.9643 45.2849 49.7791 45.0483C49.2853 44.4569 48.8223 43.9247 49.347 43.1559C50.6742 43.422 52.0632 43.8064 52.8039 44.8709C54.162 46.7634 55.9831 48.1827 57.8042 49.5725C58.0819 49.7795 58.2671 50.223 58.6684 50.0752C59.1622 49.8977 58.9462 49.3951 58.9462 49.0106C58.9462 45.6102 58.9462 42.2097 58.9462 38.8092C58.9462 35.4087 60.7673 33.6641 64.3477 33.6641C71.1998 33.6641 78.0211 33.6641 84.8733 33.6641C84.7189 38.1586 86.2622 41.914 90.1821 44.5161C94.3181 47.2365 98.7628 47.5026 103.146 45.1666C107.745 42.7123 109.813 38.7796 109.473 33.7232C116.696 33.7232 123.918 33.6641 131.141 33.6936C133.61 33.6936 135.431 35.7044 135.493 38.2769C135.524 41.3817 135.524 44.4569 135.524 47.5617C135.616 60.5723 135.616 73.7012 135.616 86.8005ZM97.343 81.1823C89.2253 81.1823 81.1077 81.2119 72.99 81.1527C71.7863 81.1527 71.3233 81.4189 71.4159 82.6312C71.5085 83.8436 71.4467 85.0855 71.4467 86.3274C71.4467 88.279 71.4467 88.279 73.4221 88.279C82.3114 88.279 91.2007 88.279 100.09 88.279C107.343 88.279 114.597 88.2494 121.819 88.3086C122.961 88.3086 123.394 88.0424 123.332 86.8892C123.239 85.6769 123.301 84.4349 123.301 83.193C123.301 81.1823 123.301 81.1823 121.264 81.1823C113.27 81.1823 105.306 81.1823 97.343 81.1823ZM97.3121 66.9889C89.1327 66.9889 80.9533 67.0185 72.8048 66.9594C71.5393 66.9594 71.0146 67.2846 71.1072 68.5561C71.1998 69.9163 71.1998 71.3061 71.1072 72.6958C71.0146 73.9969 71.5085 74.4109 72.8666 74.3813C89.1636 74.3517 105.461 74.3517 121.758 74.3813C123.208 74.3813 123.548 73.7604 123.579 72.6367C123.61 71.3652 123.517 70.0642 123.61 68.7927C123.733 67.3733 123.208 66.9002 121.696 66.9298C113.578 67.0185 105.461 66.9889 97.3121 66.9889ZM97.1886 61.6664C105.368 61.6664 113.547 61.6368 121.696 61.696C122.9 61.696 123.424 61.3116 123.486 60.2766C123.548 59.0051 123.579 57.7337 123.548 56.4326C123.517 55.1611 123.054 54.5106 121.418 54.5402C106.726 54.6289 92.0032 54.5697 77.3112 54.5697C75.7062 54.5697 74.1321 54.5993 72.527 54.5697C71.4467 54.5402 71.0455 54.9837 71.1072 55.9891C71.169 57.3197 71.1998 58.6503 71.1072 59.9809C70.9838 61.4003 71.6011 61.7256 72.99 61.7256C81.0459 61.6368 89.1019 61.6664 97.1886 61.6664Z" fill="#D6E3F4"/>
<path d="M11.568 24.618C11.1976 24.6771 10.8581 24.6771 10.5185 24.4701C10.3642 24.4406 10.2408 24.411 10.0864 24.3814C1.07368 22.9325 -3.12404 11.9918 2.64783 4.8951C5.82698 0.99192 10.1173 -0.634405 15.1793 0.223112C20.1795 1.08063 23.513 4.03758 25.2106 8.62086C25.3649 9.03483 25.3649 9.47838 25.4266 9.92192C25.3649 10.2176 25.334 10.809 25.2723 10.7203C24.1611 9.62622 23.8525 11.016 23.266 11.3117C22.8648 11.5187 22.6179 12.0805 22.0931 12.1988C21.3215 12.3762 21.3832 12.938 21.445 13.4703C21.5376 14.2095 22.1857 14.0912 22.6487 14.0025C24.2537 13.7364 24.6859 14.5643 24.7167 15.8358C23.4512 14.6826 21.9388 14.0912 20.2721 14.653C19.2226 15.0079 18.6053 14.8009 17.8028 14.1799C14.5619 11.6665 11.2593 9.27139 8.01844 6.75798C6.93814 5.93003 6.2591 5.98917 5.54919 7.08324C5.30227 7.46765 4.99361 7.79291 4.71582 8.14775C4.40716 8.56172 4.31457 8.94612 4.77755 9.30096C5.17881 9.62622 5.51833 9.41924 5.85785 9.12354C6.13564 8.91656 6.2591 8.26603 6.78382 8.68C7.1542 8.97569 6.75295 9.30096 6.56775 9.56708C6.2591 9.98106 6.19737 10.395 6.66035 10.7203C7.1542 11.0751 7.49372 10.809 7.83324 10.4542C8.0493 10.2176 8.23449 9.7445 8.66661 10.0993C9.06787 10.4246 8.66662 10.7203 8.48142 10.9864C8.2345 11.3413 8.08017 11.6961 8.48142 12.0214C8.88267 12.3466 9.28393 12.1692 9.56172 11.8144C9.96297 11.3117 10.3334 11.1638 10.9507 11.637C12.9878 13.2041 15.0558 14.7418 17.1238 16.2794C17.4633 16.5159 17.7411 16.7821 17.6176 17.2552C17.1547 18.7928 17.8337 20.0347 18.7905 21.1879C17.772 21.0696 16.6299 21.3358 15.9818 20.153C15.7966 19.7981 15.6114 19.2363 15.0249 19.325C14.3767 19.4137 14.2533 19.9756 13.9446 20.4487C13.1113 21.8976 12.5865 23.4056 11.568 24.618Z" fill="#077FE9"/>
<path d="M84.9974 33.5777C78.1452 33.5777 71.3239 33.5777 64.4718 33.5777C60.8914 33.5777 59.0703 35.3223 59.0703 38.7228C59.0703 42.1233 59.0703 45.5238 59.0703 48.9242C59.0703 49.2791 59.2864 49.7818 58.7925 49.9888C58.3913 50.1366 58.2061 49.6931 57.9283 49.4861C56.0763 48.0963 54.2861 46.677 52.9281 44.7845C52.1564 43.72 50.7675 43.3356 49.4711 43.0695C48.7921 42.7146 48.1439 42.3302 47.4648 41.9754C48.2673 41.9163 48.6995 41.5023 48.9464 40.7335C51.1379 33.9916 55.7677 29.2605 62.2803 26.1853C64.9656 24.9138 67.9287 24.3224 70.9844 24.0563C73.5154 23.8197 75.9846 23.8493 78.3922 24.4407C81.0157 25.1208 83.8554 25.4756 86.0159 27.2793C86.6024 27.7525 87.0962 27.2794 87.5901 27.4568C87.0036 28.4917 86.2629 29.4379 85.9542 30.5911C85.2443 31.5078 85.3986 32.6314 84.9974 33.5777Z" fill="#EAF2FD"/>
<path d="M135.617 86.8061C135.617 73.7068 135.617 60.5779 135.617 47.4786C136.821 47.3603 137.315 48.3361 137.963 48.9571C141.451 52.1801 144.136 55.8468 145.587 60.4005C146.358 62.8252 146.451 65.2499 146.544 67.645C146.667 70.5133 145.988 73.3815 144.877 76.1019C143.272 80.0642 140.587 83.2873 137.377 86.1555C136.883 86.6286 136.327 86.8948 135.617 86.8061Z" fill="#EAF2FD"/>
<path d="M57.4654 56.7266C57.8049 57.9685 58.2062 59.1808 58.2987 60.4819C56.5703 61.4873 54.5949 61.8717 52.7121 62.4926C51.8478 62.7587 51.4466 63.2023 51.1071 64.0302C49.1317 68.7909 49.2551 73.729 49.6255 78.6967C49.7181 79.8204 50.0885 80.9144 49.7798 82.0381C44.9648 82.0381 40.1498 82.0677 35.3348 82.0677C35.1804 81.4763 35.3039 80.9144 35.4274 80.3526C35.6743 79.1403 35.9212 77.9575 36.1681 76.7451C36.2916 76.3607 36.5385 76.0059 36.3225 75.5919C36.6002 73.9952 36.662 72.428 36.2607 70.8312C36.4151 69.8554 36.199 68.9092 35.8286 67.9926C34.6249 68.7614 32.989 68.377 31.4766 67.0463C31.5074 66.8393 31.5383 66.6028 31.6 66.3958C31.6926 66.3367 31.7235 66.248 31.6618 66.1297C31.7544 66.0705 31.7543 66.0114 31.7235 65.9227C32.1556 65.4791 32.2791 64.9173 32.2482 64.3555C32.4951 64.0007 32.6495 63.6163 32.6495 63.1727C32.989 62.9066 32.8346 62.3448 33.3285 62.1674C33.452 62.2561 33.6063 62.3448 33.668 62.4631C35.736 66.3071 40.7671 67.1646 44.3475 66.1001C46.4772 65.4791 47.9588 64.1485 48.6378 62.0491C49.1625 60.3932 48.5761 58.8556 48.4526 57.2588C49.0391 57.1701 49.5947 57.111 50.1811 57.0223C52.5886 57.1405 55.027 56.8448 57.4654 56.7266Z" fill="#69BDFA"/>
<path d="M48.3903 57.2578C48.5138 58.8545 49.1311 60.4217 48.5755 62.0481C47.8965 64.1475 46.4149 65.4781 44.2852 66.0991C40.6739 67.1636 35.6737 66.3061 33.6057 62.462C33.544 62.3438 33.3897 62.255 33.2662 62.1663C32.3711 59.2685 33.0501 56.8734 35.5811 54.9218C36.9392 53.8869 37.5257 52.2901 37.9886 50.7229C38.4208 49.274 38.8529 47.7955 39.3159 46.3466C40.0566 44.0993 41.5382 42.5026 43.9148 41.7338C44.1618 41.7929 44.3778 41.7929 44.563 41.5859C45.5198 41.7042 46.4767 41.8225 47.4335 41.9408C48.1125 42.2956 48.7607 42.68 49.4398 43.0348C48.9151 43.8037 49.378 44.3359 49.8719 44.9273C50.0571 45.1638 51.3534 45.6074 49.7793 45.9918C49.0694 46.1692 50.2731 46.8493 50.1497 47.4111C49.841 47.766 49.625 48.1504 49.5324 48.6235C48.3903 50.4272 47.8039 52.3788 48.02 54.5078C47.8656 55.4836 48.1743 56.3707 48.3903 57.2578Z" fill="#1F292D"/>
<path d="M141.265 131.424C141.203 131.719 141.172 132.015 141.111 132.34C140.432 133.02 139.598 133.257 138.58 133.227C136.172 133.139 133.765 133.227 131.357 133.168C127.9 133.079 128.086 133.73 127.406 130.241C127.16 127.52 126.913 124.77 126.635 122.05C126.604 121.725 126.635 121.281 126.234 121.163C124.906 120.867 125.338 119.891 125.4 119.123C125.493 118.147 126.45 118.62 127.005 118.413C127.437 118.354 127.869 118.029 128.332 118.295C128.95 118.709 129.69 118.65 130.4 118.65C132.499 118.679 134.567 118.561 136.666 118.62C138.364 118.679 140.123 119.093 141.759 118.236C142.315 118.59 143.364 118.147 143.487 119.152C143.58 119.98 143.611 120.66 142.531 121.311C141.697 121.813 142.098 123.292 142.037 124.356C141.79 124.711 141.821 125.096 141.913 125.51C141.852 126.249 141.79 126.988 141.728 127.727C141.697 127.875 141.666 128.023 141.635 128.171C141.574 128.851 141.512 129.531 141.481 130.241C141.142 130.596 141.172 131.01 141.265 131.424Z" fill="#A9C6EA"/>
<path d="M142.16 97.028C143.024 95.9635 142.963 94.6329 143.395 93.4501C144.074 91.6168 144.815 89.8426 146.759 88.8964C147.87 88.3641 149.136 87.9502 150.247 88.7781C151.235 89.5174 151.08 90.6706 150.741 91.6464C149.29 96.0818 148.642 100.635 148.765 105.307C148.765 105.603 148.796 105.899 148.518 106.106C148.488 106.076 148.457 106.017 148.426 106.017C148.395 106.017 148.333 106.047 148.333 106.047C148.271 106.49 148.148 106.993 147.685 107.141C145.432 107.791 143.858 109.477 141.851 110.482C141.203 110.807 140.493 111.162 140.277 111.931C139.66 112.67 139.166 113.498 139.043 114.444C138.734 114.474 138.456 114.474 138.148 114.504C138.271 113.912 138.611 113.35 138.302 112.729L138.364 112.759C138.58 112.759 138.672 112.641 138.703 112.463C139.32 112.108 139.691 111.635 139.629 110.926C139.629 110.719 139.537 110.571 139.32 110.512L139.351 110.541C139.351 110.334 139.29 110.246 139.074 110.423C138.58 110.423 138.055 110.423 137.561 110.393C137.407 109.861 137.129 109.359 137.252 108.767C137.715 108.56 138.209 108.353 138.734 108.412C139.012 108.767 139.32 108.767 139.66 108.531C139.938 108.324 140.03 108.057 139.691 107.821C139.722 107.436 139.753 107.052 139.783 106.638C139.814 106.609 139.845 106.52 139.845 106.52C139.783 106.461 139.722 106.402 139.629 106.372C138.333 105.603 137.191 106.549 135.987 106.727C135.771 105.455 136.913 104.687 137.222 103.592C137.901 103.474 138.611 103.385 139.29 103.208C140.586 102.883 141.111 102.173 140.277 100.961C140.679 100.31 141.419 99.8076 141.512 98.9796C142.222 98.4769 142.747 97.9447 142.16 97.028Z" fill="#1EB0F1"/>
<path d="M37.0323 115.807C37.0014 115.6 37.0014 115.393 36.9706 115.186C37.094 114.861 37.1249 114.565 36.9088 114.269C36.9088 114.062 36.878 113.885 36.878 113.678C36.6928 109.922 37.1558 106.167 37.557 102.441C37.8657 102.382 38.1435 102.264 38.0509 101.909C37.9583 101.554 37.6496 101.584 37.341 101.673L37.3718 101.613C37.4644 101.347 37.4644 101.111 37.1249 100.963H37.1558C37.1558 99.8393 37.4953 98.9226 38.7608 98.6269C41.5387 97.9764 43.2363 99.2183 43.3598 101.939C43.3906 102.767 43.3289 103.595 43.3906 104.423C43.4524 105.132 43.1128 105.901 43.6375 106.552C43.6375 107.143 43.6375 107.734 43.6067 108.296C42.9894 114.683 42.3721 121.1 41.7547 127.487C40.551 127.516 39.3164 127.546 38.1126 127.546H38.0817C37.9891 127.25 37.9274 126.955 37.8348 126.629C37.8348 126.334 37.8039 126.038 37.8039 125.742C37.6805 122.46 37.341 119.148 37.0323 115.807Z" fill="#0287EC"/>
<path d="M11.5684 24.6135C12.6178 23.4011 13.1425 21.8931 13.945 20.5625C14.2228 20.0893 14.3771 19.5275 15.0253 19.4388C15.6117 19.3501 15.7969 19.9415 15.9821 20.2668C16.6303 21.42 17.7415 21.1834 18.7909 21.3017V21.3313C19.5008 22.7506 22.0935 23.1054 23.2973 21.9522L23.2664 21.9818C23.7603 22.0409 24.2232 22.0705 24.2232 21.3904V21.42C25.0875 21.4495 25.2109 20.9173 25.1801 20.2668C26.1678 20.0302 25.8283 19.4092 25.6122 18.8179C25.6122 18.6109 25.6122 18.4039 25.6431 18.1969C26.2604 17.4281 26.0135 16.8663 25.1801 16.4227C25.1801 16.1566 25.1183 15.92 24.8097 15.8609L24.7788 15.8905C24.7171 14.619 24.285 13.7615 22.7108 14.0572C22.2479 14.1459 21.5997 14.2641 21.5071 13.5249C21.4453 12.9927 21.3527 12.4308 22.1552 12.2534C22.68 12.1351 22.9269 11.5733 23.3281 11.3663C23.9146 11.0706 24.2232 9.68087 25.3344 10.7749C25.427 10.8636 25.427 10.2427 25.4887 9.97656C25.7974 10.5384 25.8283 11.1298 25.7357 11.7212C24.748 12.2238 25.1492 12.697 25.7357 13.1996C25.9826 13.7023 26.5382 13.7615 27.0011 13.9389C30.1186 15.2104 31.9396 17.9603 31.7853 21.1538C31.631 24.1699 29.5013 26.8016 26.4764 27.7183C23.3899 28.6349 20.1181 27.6591 18.081 25.1753C17.6797 24.7022 17.4328 23.9925 16.5686 24.1699C16.5068 24.1404 16.476 24.0812 16.4142 24.0517C16.4451 24.1108 16.5069 24.1404 16.5377 24.1995C15.9821 24.5543 15.3957 24.7613 14.7166 24.5839C14.9636 24.4656 15.3648 24.5248 15.3957 24.1404C15.3957 24.0812 15.1796 23.9334 15.0562 23.9334C14.6549 23.9925 14.6549 24.3178 14.6549 24.6135C13.6055 24.8796 12.5869 24.8796 11.5684 24.6135ZM24.4393 12.5787C24.285 12.4604 24.1615 12.3421 24.0689 12.3421C23.9455 12.3421 23.7603 12.4308 23.7294 12.49C23.6677 12.7265 23.8529 12.8152 24.0689 12.7857C24.1924 12.8152 24.285 12.697 24.4393 12.5787Z" fill="#0287EC"/>
<path d="M87.1578 12.6124C87.127 15.6285 83.4231 17.7871 80.7378 16.2199C79.4723 15.4807 78.392 15.5398 77.2809 16.0425C74.9659 17.0479 72.6819 18.2011 70.3978 19.2656C69.7805 19.5317 69.441 19.7387 69.7805 20.4484C69.9657 20.8328 70.0892 21.3946 69.6262 21.6607C69.1015 21.9564 68.7928 21.4537 68.515 21.1284C68.299 20.8623 68.1138 20.4779 67.6817 20.744C67.373 20.9215 67.5273 21.2763 67.6199 21.5424C67.836 22.1042 67.8977 22.6661 67.1878 22.9026C66.5705 23.08 66.2618 22.6069 65.9841 22.193C65.8297 21.9564 65.8915 21.5129 65.4285 21.6607C64.9964 21.8085 65.0889 22.1634 65.1815 22.5182C65.305 23.0209 65.5828 23.6419 64.7494 23.8193C63.9469 23.9967 63.6691 23.4644 63.4531 22.8731C63.3296 22.5182 63.0518 22.193 62.8666 21.8381C62.3419 20.8623 62.3111 20.2118 63.6074 19.65C68.1755 17.6688 72.651 15.5398 77.1883 13.4995C77.8673 13.2038 78.176 12.7898 78.2686 12.0802C78.6081 9.41891 80.6143 7.94044 83.5466 8.17699C85.4294 8.29527 87.1578 10.4243 87.1578 12.6124ZM85.6146 11.3705C85.522 10.8087 85.2442 10.2764 84.5651 10.3356C84.0404 10.3947 83.454 10.6904 83.4848 11.3705C83.5157 12.0506 83.8861 12.5533 84.596 12.4941C85.2133 12.4646 85.5528 11.9915 85.6146 11.3705Z" fill="#E4EDFE"/>
<path d="M130.462 26.5403C129.69 27.2796 128.209 26.9247 127.931 25.9194C127.807 25.4462 127.53 25.2097 127.128 25.0618C126.295 24.7661 125.431 24.5 124.597 24.2339C124.381 24.1452 124.227 24.1452 124.134 24.3817C124.073 24.5296 123.98 24.6774 123.795 24.6479C123.579 24.5887 123.641 24.4113 123.641 24.2635C123.641 24.1452 123.702 23.9973 123.548 23.9678C123.425 23.9382 123.363 24.0565 123.332 24.1452C123.239 24.3226 123.116 24.5 122.869 24.3817C122.684 24.293 122.715 24.0861 122.745 23.9086C122.776 23.8199 122.9 23.7312 122.745 23.6425C122.591 23.5834 122.529 23.6721 122.468 23.7904C122.375 23.9382 122.283 24.1748 122.005 23.9973C121.758 23.8495 121.82 23.6721 121.943 23.4651C122.005 23.3468 122.036 23.199 122.066 23.0807C122.19 22.7259 122.344 22.5484 122.807 22.7259C124.443 23.3172 126.11 23.8495 127.746 24.4113C127.993 24.5 128.178 24.4705 128.394 24.3226C129.166 23.7312 130.03 23.8495 130.709 24.6183C131.141 25.0618 131.017 25.9785 130.462 26.5403ZM130.4 25.8602C130.524 25.6828 130.585 25.5054 130.4 25.3575C130.246 25.2393 130.03 25.1801 129.875 25.3575C129.721 25.535 129.659 25.7419 129.875 25.9194C130.03 26.0376 130.215 26.0081 130.4 25.8602Z" fill="#E4EDFE"/>
<path d="M142.16 97.0334C142.747 97.9204 142.253 98.4823 141.481 98.9258C139.876 99.1919 138.333 99.6946 136.666 99.5172C136.265 99.4876 135.987 99.6059 135.802 99.9903C135.431 100.877 135.03 101.735 134.536 102.918C136.604 101.971 138.117 100.611 140.246 100.907C141.08 102.119 140.524 102.799 139.259 103.154C138.58 103.332 137.87 103.42 137.191 103.539C136.296 103.539 135.401 103.48 134.536 103.598C133.888 103.716 133.826 103.302 133.579 102.977C132.87 101.735 131.913 100.611 131.511 99.2215C131.295 98.3936 131.203 97.5656 132.283 97.2995C133.271 97.0925 133.61 97.8909 133.765 98.6301C133.981 99.6059 134.104 100.611 134.32 101.853C135.123 100.316 136.049 99.1328 134.999 97.5065C134.444 96.649 134.289 95.5549 134.259 94.5199C134.228 93.6033 134.505 92.8641 135.617 92.7458C136.79 93.3667 136.666 94.4608 136.635 95.4662C136.604 96.0871 136.512 96.7377 136.419 97.7135C137.499 96.6785 138.549 96.0871 138.858 94.7861C139.104 93.7511 139.506 92.7162 140.154 91.8291C140.617 91.2082 141.142 90.3802 142.129 91.0012C143.086 91.5926 142.592 92.3614 142.16 93.0415C141.388 94.2243 140.246 95.0818 139.197 95.9984C138.888 96.2645 138.271 96.5011 138.549 97.0334C138.888 97.6247 139.351 97.0925 139.753 96.9742C140.524 96.7968 141.327 96.3533 142.16 97.0334ZM138.456 97.2995C138.395 97.1516 138.425 96.9742 138.209 97.0038C138.117 97.0334 138.024 97.0629 137.962 97.1221C137.777 97.2995 137.993 97.3882 138.086 97.3882C138.178 97.4473 138.302 97.3586 138.456 97.2995Z" fill="#2F373C"/>
<path d="M34.7476 27.75C36.2292 27.75 37.402 28.8145 37.4329 30.2338C37.4638 31.6236 36.3218 32.8064 34.9019 32.8655C33.3587 32.9247 32.1549 31.801 32.1549 30.3225C32.124 28.8736 33.2969 27.75 34.7476 27.75Z" fill="#077FE9"/>
<path d="M138.981 114.447C139.136 113.501 139.63 112.673 140.216 111.934C140.679 111.934 141.142 111.934 141.358 112.436C141.852 113.501 142.469 113.323 143.148 112.584C143.364 112.348 143.642 112.259 143.951 112.259C142.901 114.151 141.79 116.044 141.235 118.143C139.383 118.143 137.5 118.173 135.648 118.173C135.278 118.173 134.599 118.35 134.938 117.552C135.524 117.611 136.08 117.641 136.605 117.315L136.728 117.374L136.79 117.256C137.469 117.315 138.086 117.049 138.642 116.783C139.907 116.192 139.969 115.512 138.981 114.447Z" fill="#077FE9"/>
<path d="M143.981 112.267C143.672 112.237 143.394 112.355 143.178 112.592C142.499 113.331 141.913 113.508 141.388 112.444C141.172 111.971 140.709 111.941 140.246 111.941C140.493 111.172 141.203 110.818 141.82 110.492C143.826 109.457 145.401 107.802 147.654 107.151C148.086 107.033 148.24 106.5 148.302 106.057C148.302 106.027 148.395 106.027 148.395 106.027C148.425 106.057 148.456 106.086 148.487 106.116C148.518 106.619 148.425 107.121 148.117 107.565C147.777 107.772 147.592 108.068 147.685 108.452L147.716 108.422C147.222 108.659 147.129 109.103 147.037 109.546L147.006 109.576C146.604 109.605 146.419 109.812 146.45 110.197V110.167C146.327 110.285 146.234 110.374 146.111 110.492H146.141C145.308 110.522 144.938 111.084 144.567 111.675L144.598 111.646C144.475 111.764 144.382 111.853 144.259 111.971L144.289 111.941C144.197 112.06 144.073 112.178 143.981 112.267Z" fill="#0287EC"/>
<path d="M45.3659 132.395C45.3968 132.898 45.0264 132.927 44.656 132.927C42.8349 132.927 40.983 132.898 39.1619 132.927C38.452 132.927 38.3285 132.543 38.2051 132.04C38.2359 131.153 38.2668 130.266 38.3285 129.379C39.4706 129.408 40.6126 129.408 41.7546 129.438C42.6497 130.769 43.6374 132.011 45.3659 132.395Z" fill="#077FE9"/>
<path d="M134.968 117.549C134.629 118.347 135.308 118.17 135.678 118.17C137.53 118.17 139.413 118.14 141.265 118.14C141.45 118.258 141.666 118.377 141.882 118.465C142.067 118.525 142.253 118.465 142.314 118.229C142.129 118.229 141.944 118.229 141.728 118.229C140.092 119.086 138.302 118.643 136.604 118.613C134.505 118.554 132.437 118.672 130.339 118.643C129.629 118.643 128.919 118.702 128.271 118.288C129.32 118.258 130.369 118.229 131.45 118.199C131.944 118.17 132.53 118.288 132.561 117.549C132.839 117.49 133.24 117.637 133.302 117.283C133.363 116.987 132.869 117.223 132.746 116.987C132.653 116.839 132.592 116.662 132.499 116.484C133.302 115.508 132.684 114.414 132.808 113.379C132.993 113.35 133.209 113.35 133.394 113.32L133.456 113.379C133.487 114.355 133.487 115.301 133.518 116.277C133.549 117.046 133.981 117.135 134.629 116.869C134.752 117.135 134.845 117.342 134.968 117.549Z" fill="#2F373C"/>
<path d="M40.2417 37.7766C40.18 38.5159 39.7788 38.989 39.0071 39.0186C38.1737 39.0481 37.6182 38.575 37.6182 37.7766C37.6182 36.9783 38.1429 36.4756 39.0071 36.5051C39.7788 36.5643 40.18 37.0078 40.2417 37.7766Z" fill="#077FE9"/>
<path d="M41.7547 129.441C40.6126 129.411 39.4706 129.411 38.3286 129.382C37.8656 128.85 38.1742 128.199 38.0508 127.637C39.2545 127.608 40.4892 127.578 41.6929 127.578C41.7547 127.608 41.7855 127.637 41.8473 127.667C41.8164 128.229 41.7855 128.85 41.7547 129.441Z" fill="#D6E3F4"/>
<path d="M144.599 111.675C144.938 111.084 145.339 110.492 146.173 110.492C145.802 111.113 145.339 111.586 144.599 111.675Z" fill="#077FE9"/>
<path d="M25.7041 13.1777C25.1176 12.7046 24.7164 12.2019 25.7041 11.6992C25.8276 12.1723 25.7967 12.675 25.7041 13.1777Z" fill="#077FE9"/>
<path d="M14.623 24.5551C14.623 24.2594 14.623 23.9341 15.0243 23.875C15.1169 23.875 15.3638 24.0228 15.3638 24.082C15.333 24.4664 14.9317 24.4073 14.6848 24.5255C14.6848 24.5255 14.623 24.5551 14.623 24.5551Z" fill="#077FE9"/>
<path d="M147.037 109.542C147.13 109.098 147.253 108.655 147.716 108.418C147.685 108.891 147.5 109.275 147.037 109.542Z" fill="#077FE9"/>
<path d="M141.265 131.423C141.172 131.009 141.172 130.595 141.419 130.211C141.481 130.625 141.605 131.068 141.265 131.423Z" fill="#D6E3F4"/>
<path d="M147.685 108.446C147.623 108.032 147.808 107.766 148.117 107.559C148.179 107.913 148.086 108.239 147.685 108.446Z" fill="#077FE9"/>
<path d="M146.451 110.191C146.42 109.807 146.605 109.6 147.006 109.57C146.975 109.925 146.79 110.132 146.451 110.191Z" fill="#077FE9"/>
<path d="M10.0859 24.3828C10.2403 24.4124 10.3637 24.442 10.5181 24.4715C10.3329 24.6194 10.2094 24.5602 10.0859 24.3828Z" fill="#0287EC"/>
<path d="M88.3926 26.4727C88.3 26.5614 88.1766 26.6796 88.084 26.7684C88.2074 26.6796 88.3 26.5909 88.3926 26.4727Z" fill="#EAF2FD"/>
<path d="M88.7012 26.1875C88.6086 26.2762 88.4852 26.3945 88.3926 26.4832C88.516 26.3945 88.6086 26.3058 88.7012 26.1875Z" fill="#EAF2FD"/>
<path d="M141.573 128.17C141.604 128.022 141.635 127.874 141.666 127.727C141.635 127.874 141.604 128.022 141.573 128.17Z" fill="#D6E3F4"/>
<path d="M89.0407 25.8906C88.9172 25.9793 88.8246 26.0976 88.7012 26.1863C88.8246 26.0976 88.9172 26.0089 89.0407 25.8906Z" fill="#EAF2FD"/>
<path d="M144.29 111.966C144.414 111.848 144.506 111.759 144.63 111.641C144.506 111.759 144.383 111.877 144.29 111.966Z" fill="#077FE9"/>
<path d="M91.2009 24.4414C91.0774 24.5301 90.9848 24.5893 90.8613 24.678C90.9848 24.5893 91.1083 24.5005 91.2009 24.4414Z" fill="#EAF2FD"/>
<path d="M146.142 110.485C146.265 110.367 146.358 110.278 146.481 110.16C146.45 110.367 146.327 110.485 146.142 110.485Z" fill="#077FE9"/>
<path d="M89.6882 25.3594C89.5647 25.4481 89.4412 25.5664 89.3486 25.6551C89.4721 25.5368 89.5647 25.4481 89.6882 25.3594Z" fill="#EAF2FD"/>
<path d="M93.8552 23.3164C93.7009 23.3755 93.5157 23.4643 93.3613 23.5234C93.5157 23.4347 93.67 23.3755 93.8552 23.3164Z" fill="#EAF2FD"/>
<path d="M143.981 112.259C144.105 112.141 144.198 112.052 144.321 111.934C144.198 112.052 144.074 112.17 143.981 112.259Z" fill="#077FE9"/>
<path d="M87.837 27.0977C87.7444 27.2159 87.6518 27.3342 87.5283 27.4525C87.6209 27.3342 87.7135 27.2159 87.837 27.0977Z" fill="#EAF2FD"/>
<path d="M87.1574 99.5223C85.7375 101.77 83.7004 103.455 81.6015 105.111C78.9471 107.21 75.8605 108.659 72.6505 109.842C69.7492 110.907 66.7243 111.616 63.5452 111.646C60.3043 111.705 57.0943 111.616 53.8843 111.35C53.8843 110.729 53.8534 110.079 53.8534 109.458C53.946 106.442 54.3781 103.425 53.6682 100.439C53.6065 100.202 53.5756 99.9363 53.5139 99.6997L53.5756 99.6701H53.5139C52.9892 98.1917 53.0509 96.6541 52.7422 95.146C51.7545 90.7697 50.7668 86.3934 49.7791 82.0171C50.0878 80.8935 49.7174 79.7698 49.6248 78.6758C49.2236 73.7081 49.131 68.77 51.1064 64.0093C51.4459 63.1813 51.878 62.7674 52.7114 62.4717C54.5942 61.8803 56.5696 61.4663 58.298 60.4609C59.4401 60.4905 59.0388 61.348 59.0388 61.8803C59.0697 71.2834 59.0697 80.6865 59.0697 90.0896C59.0697 91.7751 59.1314 93.431 59.0697 95.1164C58.9771 97.3341 61.3229 99.611 63.7612 99.5519C71.5394 99.404 79.3484 99.5223 87.1574 99.5223Z" fill="#EAF2FD"/>
<path d="M97.3429 81.1819C105.306 81.1819 113.27 81.1819 121.233 81.1819C123.27 81.1819 123.27 81.1819 123.27 83.1926C123.27 84.4346 123.208 85.6469 123.301 86.8888C123.393 88.0125 122.93 88.3082 121.788 88.3082C114.535 88.2786 107.282 88.2786 100.059 88.2786C91.1698 88.2786 82.2805 88.2786 73.3912 88.2786C71.4158 88.2786 71.4158 88.2786 71.4158 86.327C71.4158 85.0851 71.5084 83.8727 71.3849 82.6308C71.2923 81.4185 71.7862 81.1523 72.9591 81.1523C81.0767 81.1819 89.1944 81.1819 97.3429 81.1819Z" fill="#AAC9F3"/>
<path d="M97.312 66.9905C105.43 66.9905 113.547 67.0201 121.665 66.9609C123.177 66.9609 123.671 67.4341 123.579 68.8238C123.486 70.0953 123.579 71.3964 123.548 72.6679C123.517 73.7915 123.177 74.4125 121.727 74.4125C105.43 74.3533 89.1326 74.3533 72.8356 74.4125C71.4775 74.4125 70.9837 73.9985 71.0763 72.727C71.1689 71.3668 71.1689 69.977 71.0763 68.5873C70.9837 67.3453 71.5392 66.9905 72.7739 66.9905C80.9841 67.0201 89.1635 66.9905 97.312 66.9905ZM116.912 71.6329C117.313 71.5442 117.714 71.3372 117.714 70.805C117.714 70.3023 117.406 69.9475 116.85 69.977C116.387 69.977 116.078 70.2727 116.047 70.7163C116.017 71.219 116.263 71.5442 116.912 71.6329ZM112.56 69.9475C112.004 69.977 111.695 70.2727 111.695 70.7754C111.665 71.2189 111.942 71.5442 112.405 71.6034C112.93 71.6625 113.3 71.3668 113.331 70.8641C113.393 70.3319 113.084 70.0657 112.56 69.9475ZM107.312 70.7458C107.374 71.219 107.59 71.6034 108.115 71.6329C108.64 71.6625 108.979 71.3668 109.01 70.8641C109.041 70.3614 108.732 70.0362 108.208 70.0066C107.714 69.9475 107.405 70.2432 107.312 70.7458ZM87.3424 70.8345C87.3116 70.3319 87.0646 69.977 86.5091 69.977C86.0461 69.977 85.7374 70.2136 85.6757 70.6867C85.614 71.219 85.8917 71.5738 86.4165 71.6329C86.9412 71.6921 87.2498 71.3372 87.3424 70.8345ZM82.9904 70.6867C82.8669 70.2727 82.62 69.9179 82.0644 69.977C81.6014 70.0362 81.3236 70.3319 81.3236 70.7754C81.3236 71.2781 81.6323 71.6329 82.157 71.6329C82.7126 71.6034 82.9595 71.2485 82.9904 70.6867ZM90.8611 71.6329C91.3858 71.5147 91.7253 71.219 91.6636 70.7163C91.6327 70.2136 91.2624 69.9179 90.7376 69.977C90.2129 70.0362 89.9043 70.3614 89.966 70.8641C90.0277 71.3668 90.3673 71.6034 90.8611 71.6329ZM104.689 70.7458C104.596 70.2727 104.288 69.9179 103.763 69.977C103.269 70.0362 102.93 70.3319 102.96 70.8345C102.991 71.3372 103.362 71.6329 103.856 71.6034C104.411 71.5738 104.689 71.2485 104.689 70.7458ZM99.5343 71.6329C99.9973 71.5442 100.337 71.2781 100.337 70.7754C100.306 70.2727 99.9664 69.9475 99.4417 69.977C98.9787 70.0066 98.701 70.3023 98.6701 70.7458C98.6392 71.2485 98.9479 71.5442 99.5343 71.6329ZM95.0897 69.9475C94.6267 70.0657 94.2563 70.3023 94.318 70.8345C94.3489 71.3372 94.7193 71.6329 95.244 71.6034C95.707 71.5738 95.9848 71.2485 95.9848 70.805C95.9848 70.3023 95.6761 70.0066 95.0897 69.9475ZM77.8358 69.977C77.3111 70.0066 76.9716 70.2432 76.9716 70.7754C76.9716 71.2781 77.2802 71.6329 77.805 71.6329C78.2679 71.6625 78.5766 71.3668 78.6075 70.9233C78.6692 70.391 78.4223 70.0657 77.8358 69.977Z" fill="#FDFEFE"/>
<path d="M97.1886 61.6675C89.1327 61.6675 81.0459 61.638 72.99 61.6971C71.6011 61.6971 70.9837 61.3719 71.1072 59.9525C71.2307 58.6219 71.1689 57.2913 71.1072 55.9606C71.0763 54.9553 71.4467 54.5117 72.527 54.5413C74.132 54.6004 75.7062 54.5413 77.3112 54.5413C92.0032 54.5413 106.726 54.5709 121.418 54.5117C123.023 54.5117 123.517 55.1327 123.548 56.4042C123.579 57.6757 123.548 58.9767 123.486 60.2482C123.424 61.2831 122.9 61.6971 121.696 61.6675C113.517 61.638 105.368 61.6675 97.1886 61.6675ZM109.041 58.4445C108.979 57.9714 108.701 57.6165 108.177 57.6165C107.652 57.6165 107.343 57.9714 107.343 58.474C107.343 58.9767 107.652 59.302 108.208 59.302C108.732 59.2724 109.01 58.9471 109.041 58.4445ZM104.72 58.3853C104.627 58.0009 104.38 57.6165 103.825 57.6461C103.3 57.6461 102.96 57.9714 102.991 58.474C102.991 58.9767 103.3 59.302 103.856 59.2724C104.38 59.2724 104.658 58.9471 104.72 58.3853ZM87.3425 58.4445C87.2808 58.0009 87.0338 57.6165 86.4783 57.6165C85.9227 57.6165 85.6449 57.9714 85.6449 58.474C85.6449 58.9472 85.9536 59.2133 86.4165 59.2428C86.9721 59.3315 87.2499 58.9767 87.3425 58.4445ZM91.6946 58.474C91.6328 58.0009 91.355 57.6461 90.8303 57.6461C90.3056 57.6461 89.9969 57.9714 89.9661 58.4445C89.9352 58.9471 90.2747 59.2724 90.7994 59.2724C91.3242 59.2724 91.6328 58.9472 91.6946 58.474ZM95.9849 58.474C95.9231 58.0305 95.7379 57.6461 95.1515 57.6461C94.6268 57.6461 94.2873 57.9714 94.2873 58.474C94.2873 58.9176 94.5959 59.2133 95.028 59.2724C95.6145 59.3315 95.8923 59.0063 95.9849 58.474ZM100.368 58.5332C100.337 58.0305 100.09 57.6757 99.5344 57.6461C98.9788 57.6165 98.6702 58.0009 98.6702 58.474C98.6702 58.888 98.9171 59.2428 99.4109 59.2724C99.9357 59.302 100.244 59.0359 100.368 58.5332Z" fill="#FDFEFE"/>
<path d="M122.345 103.98C122.005 103.98 121.666 103.891 121.419 103.655C121.11 102.768 120.832 101.881 120.524 100.994C120.493 100.698 120.493 100.402 120.462 100.107C120.462 97.6227 120.801 95.1684 121.697 92.8324C122.314 91.2357 123.24 91.0878 124.567 92.2706C125.833 93.3943 126.141 94.9319 126.481 96.3808C126.913 98.3619 128.394 99.4264 129.752 100.639C130.401 101.23 131.172 101.762 131.851 102.324C132.746 103.034 132.469 103.418 131.45 103.566C131.265 103.507 131.111 103.448 130.925 103.389C130.925 103.3 130.925 103.211 130.925 103.123C130.925 102.945 130.894 102.797 130.678 103.004C130.462 102.975 130.246 102.975 130.03 102.945C129.752 102.738 129.567 102.768 129.506 103.123V103.152C129.012 103.27 129.012 103.714 128.826 104.039C128.086 105.518 128.456 107.026 128.61 108.534C128.549 108.859 128.456 109.214 128.394 109.539C127.592 109.303 127.993 108.652 127.87 108.179C127.468 106.701 126.234 106.02 125.647 106.996C125.123 107.854 124.752 107.026 124.382 107.144C123.795 106.198 122.437 105.577 123.178 104.039C123.363 103.655 122.684 103.773 122.345 103.98Z" fill="#1EB0F1"/>
<path d="M48.3904 57.2641C48.1435 56.377 47.8657 55.4899 48.02 54.5732C49.872 53.4792 50.4275 51.2615 49.5324 48.6889C49.625 48.2158 49.8411 47.8314 50.1498 47.4766C52.5264 48.3045 54.4092 49.7238 55.829 51.7641C56.5081 52.7104 57.4958 53.4496 58.36 54.3071C58.8847 54.8394 59.5946 55.3716 59.286 56.17C59.0082 56.9388 58.1131 56.5248 57.5266 56.7318C57.2797 56.1996 56.7241 56.2883 56.3229 56.377C54.5327 56.7614 52.7116 56.6431 50.8905 56.6431C50.5819 56.6431 50.2732 56.7023 50.1498 57.0275C49.5633 57.1162 48.9769 57.1754 48.3904 57.2641Z" fill="#EAF2FD"/>
<path d="M130.956 103.422C131.141 103.481 131.295 103.54 131.48 103.599C131.573 103.925 131.635 104.279 131.727 104.605C132.036 105.462 132.345 106.32 132.622 107.177C132.376 107.295 132.129 107.414 131.851 107.562C130.678 106.497 129.135 105.61 129.443 103.688C129.968 103.599 130.524 103.836 130.956 103.422Z" fill="#1F292D"/>
<path d="M132.623 107.142C132.314 106.285 132.005 105.427 131.728 104.57C132.314 104.363 132.87 104.747 133.456 104.688C133.487 104.747 133.487 104.806 133.456 104.865C133.302 105.664 133.734 106.669 132.623 107.142Z" fill="#077FE9"/>
<path d="M25.5497 18.1978C25.5497 18.4048 25.5497 18.6118 25.5189 18.8187C25.3645 19.2919 25.2411 19.765 25.0867 20.2676C24.7781 20.6521 24.4386 21.0365 24.1299 21.4209V21.3913C23.7287 21.48 23.42 21.687 23.1731 21.9827L23.2039 21.9531C21.5989 22.3671 20.0865 22.2192 18.6976 21.3026V21.273C17.7407 20.1198 17.0617 18.8779 17.5247 17.3403C17.679 16.8672 17.3704 16.601 17.0308 16.3645C14.9628 14.8269 12.8948 13.2892 10.8577 11.7221C10.2404 11.2489 9.90089 11.3968 9.46877 11.8995C9.19098 12.2247 8.82059 12.4022 8.38847 12.1065C7.98722 11.7812 8.14155 11.4264 8.38847 11.0715C8.57367 10.8054 8.97492 10.5097 8.57366 10.1844C8.14154 9.8296 7.95635 10.3027 7.74029 10.5393C7.40077 10.8941 7.06125 11.1898 6.5674 10.8054C6.10442 10.4801 6.16615 10.0662 6.47481 9.65219C6.66 9.38606 7.06125 9.06079 6.69087 8.7651C6.16615 8.35113 6.04269 9.00166 5.7649 9.20864C5.42538 9.50434 5.08586 9.68175 4.6846 9.38606C4.22162 9.03122 4.31422 8.61725 4.62287 8.23285C4.90066 7.87801 5.24018 7.55275 5.45624 7.16834C6.13529 6.07427 6.84519 5.98556 7.92549 6.84308C11.1355 9.35649 14.469 11.7516 17.7099 14.265C18.5124 14.886 19.1606 15.093 20.1791 14.7381C21.8459 14.1763 23.3583 14.7381 24.6238 15.9209L24.6546 15.8914C24.6855 16.1575 24.7781 16.3349 25.025 16.4532C25.2719 17.015 25.3954 17.6064 25.5497 18.1978ZM22.957 20.5042C23.5743 20.4746 23.9447 20.1494 24.0065 19.6171C24.0682 18.9666 23.6669 18.5822 22.9879 18.5822C22.3706 18.5822 22.0311 18.9666 22.0311 19.5284C22.0311 20.0311 22.4014 20.3859 22.957 20.5042Z" fill="#EFF6FE"/>
<path d="M49.7791 82.0117C50.7668 86.388 51.7545 90.7643 52.7422 95.1406C53.0817 96.6486 53.0199 98.1863 53.5138 99.6647V99.6943C53.5755 99.9309 53.6064 100.197 53.6681 100.434C52.2483 100.729 52.2174 99.576 52.0014 98.8072C51.8162 98.0976 51.3532 97.7131 50.9211 98.2454C50.3038 99.0142 49.6865 98.6594 49.0383 98.6298C47.6185 98.5707 47.0629 99.3395 47.6802 100.552C48.0506 101.291 48.1432 102.001 47.7111 102.77C46.6616 100.315 45.5813 97.861 44.5319 95.4067C44.4702 95.2293 44.4702 95.0223 44.3776 94.9336C44.1924 94.7858 44.0381 94.9336 43.9763 95.1406C43.9455 95.318 43.9455 95.4954 43.9146 95.7024C43.5751 95.9981 43.5751 96.2642 43.9146 96.5599C43.8837 98.5411 43.8529 100.522 43.7911 102.533C43.4825 103.597 43.6677 104.692 43.6985 105.786C43.6677 106.081 43.6677 106.347 43.6368 106.643C43.1121 105.993 43.4208 105.224 43.3899 104.514C43.3282 103.686 43.3899 102.858 43.359 102.03C43.2664 99.3099 41.538 98.068 38.76 98.7185C37.4946 99.0142 37.155 99.9309 37.155 101.055C35.1488 95.8207 33.7598 90.4982 34.408 84.8504C34.5315 83.845 35.0562 82.9875 35.3648 82.0709C40.149 82.0413 44.964 82.0413 49.7791 82.0117Z" fill="#077FE9"/>
<path d="M36.2299 70.8357C36.199 70.8061 36.1373 70.7765 36.1064 70.747C35.5509 70.333 36.446 68.9432 35.1496 69.1502C34.0693 69.3276 33.5137 70.333 33.4829 71.3679C33.3903 73.083 33.4211 74.798 33.4829 76.5426C33.5137 78.7603 33.3594 80.9485 32.9273 83.107C32.7421 84.0533 32.7112 85.0291 33.4211 85.9161C34.0384 86.6554 34.1002 87.8677 33.6989 88.4296C33.1433 89.1688 32.8656 89.8785 32.7112 90.7064C32.6186 91.1204 32.0939 90.9134 31.8161 90.6768C30.9828 89.9967 30.3346 89.2279 30.3654 88.0452C30.3963 86.3005 30.5815 84.5855 30.458 82.8113C30.242 79.5883 30.2728 76.306 30.4272 73.083C30.5506 71.0722 31.1062 69.0615 31.4766 67.0508C32.989 68.411 34.6249 68.7658 35.8287 67.997C36.1682 68.9137 36.3842 69.8303 36.2299 70.8357Z" fill="#EFD8B6"/>
<path d="M50.1191 57.0301C50.2426 56.7048 50.5513 56.6457 50.8599 56.6457C52.681 56.6161 54.5021 56.7344 56.2923 56.3796C56.6935 56.2908 57.2182 56.2021 57.496 56.7344C55.0268 56.8527 52.5884 57.1484 50.1191 57.0301Z" fill="#D6E3F4"/>
<path d="M36.1679 76.7157C35.8284 76.3017 35.7358 75.8878 36.3223 75.5625C36.5383 75.9765 36.2914 76.3609 36.1679 76.7157Z" fill="#D6E3F4"/>
<path d="M31.6616 65.9266C31.5381 65.3056 31.6925 64.7733 32.1863 64.3594C32.2172 64.9508 32.0937 65.483 31.6616 65.9266Z" fill="#D6E3F4"/>
<path d="M31.5686 66.3716C31.5377 66.3125 31.5068 66.2238 31.5068 66.1646C31.5068 66.1646 31.5994 66.135 31.6303 66.1055C31.6612 66.2237 31.6612 66.3125 31.5686 66.3716Z" fill="#D6E3F4"/>
<path d="M49.5322 48.6914C50.4582 51.2935 49.8718 53.5112 48.0198 54.5757C47.8038 52.4467 48.3902 50.4951 49.5322 48.6914Z" fill="#EFD8B6"/>
<path d="M126.943 118.381C126.542 117.642 126.171 116.903 125.77 116.164C125.708 116.045 125.616 115.897 125.554 115.779C125.492 115.75 125.461 115.69 125.461 115.602C125.523 114.626 124.165 113.325 126.233 112.881C125.894 112.32 125.431 112.201 124.906 112.231C124.721 111.935 124.752 111.639 124.844 111.344C125.461 111.462 126.079 111.846 126.727 111.551C127.56 111.196 127.869 111.728 128.023 112.29C128.178 112.822 128.147 113.414 128.178 114.005C127.19 114.951 127.468 115.779 128.579 116.371C129.814 117.021 131.079 117.612 132.561 117.583C132.499 118.322 131.912 118.204 131.449 118.233C130.4 118.263 129.351 118.293 128.27 118.322C127.807 118.026 127.406 118.322 126.943 118.381Z" fill="#077FE9"/>
<path d="M84.9972 33.578C85.3985 32.6318 85.2441 31.5082 85.9232 30.6211C86.2318 30.7985 86.3553 31.1533 86.201 31.3899C85.6145 32.3361 86.4479 33.0754 86.5713 33.9033C86.6331 34.3469 86.88 34.4947 87.3121 34.4356C87.7751 34.3469 87.6825 34.0512 87.5899 33.7555C87.4356 33.3119 87.559 32.9571 88.022 32.7797C88.3924 32.6318 88.7319 32.7797 88.948 33.1049C89.164 33.4893 89.5036 33.8442 89.0715 34.2877C88.6702 34.6721 88.1455 35.1748 88.6085 35.6479C89.0406 36.0915 89.3184 35.3522 89.6888 35.2044C89.8122 35.1452 90.0283 35.0861 90.1209 35.1452C91.5716 36.121 93.084 35.4114 94.5347 35.1748C94.8433 35.1157 95.5224 35.1748 95.368 34.5834C95.2446 34.1103 94.8433 33.7259 94.1951 33.9625C93.9482 34.0512 93.8248 34.5243 93.3 33.992C94.1025 33.6076 93.7013 32.8979 93.8248 32.277C94.4729 32.8388 95.0902 33.4302 95.7384 33.9625C96.4175 34.4947 96.3557 34.9382 95.7076 35.5001C94.7199 36.3576 93.7939 37.3038 92.8679 38.2205C92.5901 38.4866 92.1889 38.7823 92.5901 39.2258C93.084 39.7581 93.3926 39.3145 93.7322 38.9893C94.7199 38.043 95.7384 37.1264 96.6644 36.1506C97.1582 35.6479 97.4978 35.5888 98.0225 36.1506C98.9484 37.1264 99.967 38.043 100.955 38.9597C101.263 39.2554 101.572 39.7285 102.066 39.1963C102.467 38.7527 102.097 38.457 101.819 38.1909C100.862 37.2447 99.8744 36.2984 98.8559 35.3818C98.2077 34.82 98.3311 34.406 99.0102 33.992C100.183 35.4705 101.479 35.9732 102.529 35.0565C103.27 34.3764 103.64 34.4947 104.226 35.0565C104.597 35.3818 105.029 35.7958 105.585 35.5296C106.14 35.2635 106.264 34.6721 106.109 34.1399C105.893 33.4598 106.109 33.1049 106.788 32.9275C107.375 32.7797 107.961 32.3657 108.208 33.3415C108.27 33.578 108.486 33.785 108.795 33.6963C108.918 33.6372 109.011 33.4006 109.041 33.2232C109.103 32.9275 109.041 32.6318 109.288 32.3953C109.474 32.7797 109.196 33.2528 109.597 33.6076C109.906 38.664 107.869 42.5968 103.27 45.051C98.8867 47.387 94.4421 47.1505 90.3061 44.4005C86.3553 41.8279 84.812 38.0726 84.9972 33.578Z" fill="#077FE9"/>
<path d="M93.7942 32.3066C93.6707 32.9276 94.0411 33.6372 93.2694 34.0216C93.7942 34.5539 93.9485 34.0808 94.1646 33.9921C94.8127 33.7555 95.214 34.1399 95.3374 34.613C95.4918 35.2044 94.8127 35.1453 94.5041 35.2044C93.0534 35.441 91.5718 36.1506 90.0903 35.1748C89.9977 35.1157 89.7816 35.2044 89.6582 35.234C89.2878 35.3818 89.01 36.1211 88.5779 35.6775C88.1149 35.1748 88.6396 34.7017 89.0409 34.3173C89.473 33.8738 89.1643 33.4894 88.9174 33.1345C88.7322 32.8093 88.3927 32.6319 87.9914 32.8093C87.5593 32.9867 87.405 33.3415 87.5593 33.7851C87.6519 34.0808 87.7445 34.3765 87.2815 34.4652C86.8494 34.5243 86.6025 34.3765 86.5408 33.9329C86.4482 33.105 85.5839 32.3657 86.1704 31.4195C86.3247 31.1829 86.2012 30.8281 85.8926 30.6507C86.1704 29.4679 86.9111 28.5217 87.5285 27.5163V27.4868C87.6211 27.3685 87.7137 27.2502 87.8371 27.1319C87.9297 27.0432 88.0223 26.9249 88.1149 26.8362C88.2075 26.7475 88.331 26.6292 88.4236 26.5405C88.5162 26.4518 88.6396 26.3335 88.7322 26.2448C88.8557 26.1561 88.9483 26.0378 89.0717 25.9491C89.1643 25.8604 89.2878 25.7717 89.3804 25.7126C89.5039 25.6239 89.6273 25.5056 89.7199 25.4169V25.4465C90.152 25.3873 90.4607 25.1508 90.7076 24.8255C90.8002 24.8551 90.8619 24.8255 90.8928 24.7368C91.0163 24.6481 91.1089 24.5889 91.2323 24.5002L91.2015 24.5298C91.4793 24.5298 91.6953 24.4411 91.8188 24.2045C92.0348 24.1158 92.22 24.0271 92.4361 23.9384C92.7139 23.968 92.9917 23.8793 93.1769 23.6723C93.2695 23.7019 93.3312 23.7019 93.3929 23.6131C93.5472 23.554 93.7324 23.4653 93.8868 23.4062C94.0411 23.3766 94.1646 23.347 94.3189 23.347C94.6584 23.4062 94.9979 23.3766 95.2757 23.14C95.7696 23.0809 96.2943 23.0513 96.7881 22.9922C96.8807 22.9922 97.0042 22.9922 97.0968 22.9922C97.8684 23.0218 98.6401 23.0513 99.4117 23.0809C99.7204 23.347 100.091 23.3766 100.492 23.347C100.615 23.3766 100.77 23.4062 100.893 23.4062C101.078 23.4653 101.233 23.554 101.418 23.6131C101.449 23.7019 101.511 23.7019 101.572 23.6427C101.757 23.8793 102.035 23.9384 102.344 23.9384C103.856 24.8255 105.4 25.683 106.603 26.9545C108.116 28.5513 108.857 30.4437 109.35 32.484C109.104 32.7206 109.165 33.0163 109.103 33.312C109.073 33.4894 108.98 33.7259 108.857 33.7851C108.579 33.9033 108.332 33.6668 108.27 33.4302C108.023 32.484 107.406 32.8684 106.85 33.0163C106.171 33.1937 105.955 33.5485 106.171 34.2286C106.326 34.7609 106.202 35.3523 105.647 35.6184C105.091 35.8845 104.659 35.4705 104.288 35.1453C103.702 34.613 103.332 34.4652 102.591 35.1453C101.572 36.0619 100.276 35.5888 99.0722 34.0808L99.1339 34.1103C101.264 34.6426 100.862 32.8093 101.387 31.863C101.511 31.7448 101.603 31.6561 101.727 31.5378C101.85 31.4786 102.282 31.6561 102.035 31.2421C102.22 30.8281 102.529 30.4141 101.912 30.1184C101.48 29.9115 101.264 30.2663 101.017 30.5029C100.06 31.3899 99.0722 32.277 98.1771 33.2232C97.5906 33.8442 97.2202 33.9033 96.6029 33.2528C95.7078 32.3066 94.7201 31.4491 93.7633 30.5324C92.9917 29.7636 92.5287 29.9115 92.4052 30.976C92.0348 31.9518 92.7139 32.0405 93.4238 32.07H93.3929C93.4238 32.277 93.5164 32.3657 93.7324 32.3953L93.7942 32.3066ZM91.3249 33.8738C91.6953 33.8738 92.0657 33.8146 92.004 33.3415C91.9731 32.9571 91.6953 32.7501 91.2941 32.7501C90.8928 32.7501 90.615 32.9867 90.615 33.3711C90.5842 33.8442 90.9854 33.8442 91.3249 33.8738Z" fill="#077FE9"/>
<path d="M101.695 31.5124C101.572 31.6307 101.479 31.7194 101.356 31.8377C100.491 32.4882 99.658 33.1683 99.1024 34.085L99.0407 34.0554C98.3616 34.4398 98.2382 34.8538 98.8863 35.4452C99.9049 36.3618 100.862 37.308 101.849 38.2543C102.127 38.5204 102.498 38.8161 102.096 39.2596C101.603 39.7919 101.294 39.3188 100.985 39.0231C99.9975 38.0768 98.9789 37.1898 98.053 36.214C97.5283 35.6817 97.1887 35.7113 96.6949 36.214C95.7381 37.1898 94.7504 38.1064 93.7627 39.0526C93.454 39.3483 93.1145 39.7919 92.6206 39.2892C92.2194 38.8457 92.6206 38.5795 92.8984 38.2838C93.8244 37.3672 94.7504 36.4505 95.7381 35.5634C96.3862 35.0016 96.448 34.5581 95.7689 34.0258C95.0899 33.4936 94.4726 32.9022 93.8553 32.3404L93.7935 32.3699C93.7627 32.1629 93.6701 32.0742 93.454 32.0447H93.4849C93.2997 31.542 92.8984 31.2167 92.4663 30.9506C92.5898 29.8861 93.0219 29.7382 93.8244 30.507C94.7504 31.4237 95.7689 32.2812 96.664 33.2274C97.2813 33.878 97.6517 33.8188 98.2382 33.1979C99.1333 32.2516 100.121 31.3646 101.078 30.4775C101.325 30.2409 101.541 29.8861 101.973 30.0931C102.559 30.3888 102.282 30.8323 102.096 31.2167C101.88 31.335 101.788 31.4237 101.695 31.5124Z" fill="#D6E6FD"/>
<path d="M99.1025 34.052C99.6581 33.1353 100.491 32.4552 101.356 31.8047C100.831 32.7805 101.232 34.6138 99.1025 34.052Z" fill="#077FE9"/>
<path d="M91.325 33.8736C90.9546 33.8441 90.5842 33.8441 90.6151 33.371C90.646 32.9866 90.9237 32.75 91.2941 32.75C91.6954 32.75 91.9732 32.957 92.004 33.3414C92.0658 33.8145 91.6954 33.8441 91.325 33.8736Z" fill="#077FE9"/>
<path d="M92.3742 30.918C92.8063 31.1841 93.2075 31.5094 93.3927 32.012C92.6828 31.9825 92.0346 31.8938 92.3742 30.918Z" fill="#077FE9"/>
<path d="M101.695 31.5105C101.788 31.4218 101.881 31.3036 102.004 31.2148C102.251 31.6288 101.819 31.4514 101.695 31.5105Z" fill="#077FE9"/>
<path d="M93.3926 32.0117C93.6086 32.0413 93.7012 32.13 93.7321 32.337C93.516 32.337 93.4234 32.2187 93.3926 32.0117Z" fill="#077FE9"/>
<path d="M132.623 107.144C133.734 106.671 133.302 105.666 133.456 104.867C134.228 105.843 133.642 106.937 133.703 108.179C134.568 107.617 135.37 107.351 135.926 106.7C137.129 106.523 138.241 105.547 139.568 106.346C139.629 106.434 139.66 106.523 139.722 106.641C139.691 107.026 139.66 107.41 139.629 107.824C139.321 108.031 138.981 108.238 138.673 108.445C138.117 108.386 137.654 108.593 137.191 108.8C136.666 108.8 136.142 108.8 135.617 108.8C133.456 108.682 133.456 108.682 133.426 110.722C133.426 111.225 133.456 111.698 133.487 112.2C133.58 112.821 134.043 112.555 134.382 112.555C134.29 112.821 134.197 113.088 134.105 113.354C133.919 113.413 133.703 113.442 133.518 113.501L133.456 113.442C133.58 112.762 132.5 113.028 132.561 112.378C133.24 111.432 132.87 110.397 132.808 109.391C133.117 108.504 132.129 108.238 131.913 107.588C132.129 107.41 132.376 107.262 132.623 107.144Z" fill="#2F373C"/>
<path d="M133.487 113.446C133.672 113.387 133.889 113.358 134.074 113.298C135.555 113.565 136.852 112.825 138.271 112.707C138.549 113.328 138.241 113.89 138.117 114.481C137.037 115.132 135.802 115.605 134.969 116.581L134.907 116.551L134.938 116.61C134.845 116.728 134.753 116.817 134.691 116.935C134.043 117.172 133.611 117.083 133.611 116.344C133.518 115.368 133.518 114.422 133.487 113.446Z" fill="#077FE9"/>
<path d="M138.271 112.737C136.851 112.825 135.555 113.594 134.073 113.328C134.166 113.062 134.258 112.796 134.351 112.53C135.092 111.436 136.45 111.14 137.468 110.371C137.962 110.371 138.487 110.371 138.981 110.401C139.073 110.43 139.166 110.489 139.259 110.519C139.259 110.519 139.228 110.489 139.259 110.489C139.351 110.637 139.475 110.755 139.567 110.903C139.629 111.613 139.259 112.086 138.641 112.441C138.518 112.53 138.425 112.648 138.302 112.737H138.271Z" fill="#1F292D"/>
<path d="M134.938 116.577C135.802 115.601 137.006 115.128 138.086 114.477C138.395 114.448 138.672 114.448 138.981 114.418C139.969 115.482 139.876 116.163 138.641 116.754C138.055 117.02 137.469 117.286 136.789 117.227C136.728 117.257 136.666 117.257 136.604 117.286C136.08 117.611 135.524 117.582 134.938 117.523C134.845 117.316 134.722 117.109 134.629 116.931C134.722 116.813 134.814 116.724 134.876 116.606C134.907 116.606 134.938 116.577 134.938 116.577Z" fill="#1F292D"/>
<path d="M137.5 110.37C136.481 111.109 135.123 111.405 134.382 112.529C134.043 112.529 133.549 112.765 133.487 112.174C134.413 111.169 135.494 110.252 135.617 108.773C136.142 108.773 136.666 108.773 137.191 108.773C137.068 109.335 137.346 109.838 137.5 110.37Z" fill="#077FE9"/>
<path d="M138.672 108.39C138.981 108.184 139.32 107.977 139.629 107.77C139.968 108.036 139.876 108.272 139.598 108.479C139.289 108.745 138.95 108.745 138.672 108.39Z" fill="#077FE9"/>
<path d="M138.302 112.737C138.425 112.648 138.518 112.53 138.641 112.441C138.641 112.648 138.518 112.737 138.302 112.737Z" fill="#077FE9"/>
<path d="M139.567 110.906C139.475 110.758 139.351 110.64 139.259 110.492C139.475 110.551 139.567 110.699 139.567 110.906Z" fill="#077FE9"/>
<path d="M139.29 110.51C139.197 110.481 139.104 110.422 139.012 110.392C139.197 110.215 139.29 110.303 139.29 110.51Z" fill="#077FE9"/>
<path d="M139.722 106.612C139.66 106.523 139.629 106.435 139.567 106.316C139.629 106.376 139.722 106.405 139.783 106.464C139.814 106.494 139.753 106.583 139.722 106.612Z" fill="#077FE9"/>
<path d="M37.5256 102.471C37.4639 102.205 37.4022 101.968 37.3096 101.702C37.6182 101.614 37.896 101.584 38.0195 101.939C38.1121 102.294 37.8343 102.412 37.5256 102.471Z" fill="#077FE9"/>
<path d="M37.3718 101.643C37.094 101.495 37.094 101.258 37.1248 100.992C37.4335 101.14 37.4644 101.377 37.3718 101.643Z" fill="#077FE9"/>
<path d="M49.5322 132.338C49.5322 131.362 49.5322 130.386 49.5322 129.411C50.736 129.352 51.9397 129.292 53.1435 129.47C54.1003 130.919 55.5202 131.747 57.1252 132.368C57.2795 132.604 57.5264 132.663 57.8042 132.663C57.8659 132.752 57.9277 132.841 57.9894 132.929C56.9708 133.61 55.8288 133.225 54.7176 133.284C53.3287 133.343 51.9706 133.225 50.5817 133.255C49.9335 133.225 49.5322 133.018 49.5322 132.338Z" fill="#077FE9"/>
<path d="M18.7285 21.3359C20.1175 22.223 21.6299 22.4004 23.2349 21.9865C22.062 23.1397 19.4693 22.7553 18.7285 21.3359Z" fill="#077FE9"/>
<path d="M25.5499 18.2039C25.3956 17.6125 25.2412 17.0211 25.0869 16.4297C25.9203 16.8732 26.1981 17.4351 25.5499 18.2039Z" fill="#077FE9"/>
<path d="M25.1182 20.2731C25.2725 19.8 25.396 19.2973 25.5503 18.8242C25.7663 19.4156 26.1059 20.007 25.1182 20.2731Z" fill="#077FE9"/>
<path d="M24.1299 21.4227C24.4385 21.0383 24.7781 20.6539 25.0867 20.2695C25.1484 20.9201 25.025 21.4523 24.1299 21.4227Z" fill="#077FE9"/>
<path d="M24.4387 12.5839C24.2535 12.7022 24.161 12.8204 24.0684 12.8204C23.8523 12.85 23.6671 12.7317 23.7288 12.5247C23.7597 12.436 23.9449 12.3473 24.0684 12.3769C24.1918 12.3473 24.2844 12.4656 24.4387 12.5839Z" fill="#077FE9"/>
<path d="M23.2041 22.0133C23.451 21.688 23.7597 21.5106 24.1609 21.4219C24.1918 22.0724 23.698 22.0428 23.2041 22.0133Z" fill="#077FE9"/>
<path d="M25.1175 16.429C24.8705 16.3107 24.7779 16.1037 24.7471 15.8672C25.0557 15.9559 25.1175 16.1629 25.1175 16.429Z" fill="#077FE9"/>
<path d="M16.5063 24.1439C16.4754 24.0848 16.4137 24.0552 16.3828 23.9961C16.4137 24.0552 16.4754 24.1144 16.5063 24.1439Z" fill="#077FE9"/>
<path d="M138.456 97.3012C138.333 97.3308 138.209 97.4195 138.086 97.4195C137.993 97.4195 137.777 97.3308 137.962 97.1534C138.024 97.0942 138.117 97.0647 138.209 97.0351C138.394 96.976 138.394 97.1534 138.456 97.3012Z" fill="#FDFEFE"/>
<path d="M136.604 117.313C136.666 117.283 136.728 117.254 136.79 117.254L136.728 117.372L136.604 117.313Z" fill="#2F373C"/>
<path d="M132.561 117.554C131.079 117.584 129.814 116.993 128.579 116.342C127.468 115.751 127.221 114.952 128.178 113.977C128.486 113.977 128.795 113.977 129.104 113.977C130.338 114.686 131.449 115.573 132.499 116.52C132.592 116.697 132.653 116.845 132.746 117.022C132.869 117.229 133.363 116.993 133.301 117.318C133.271 117.643 132.838 117.525 132.561 117.554Z" fill="#1F292D"/>
<path d="M132.53 116.52C131.48 115.573 130.369 114.686 129.135 113.977C128.548 112.971 129.104 112.114 129.474 111.227C130.493 111.788 131.233 112.675 132.345 113.089C132.406 113.326 132.592 113.385 132.808 113.415C132.715 114.45 133.301 115.544 132.53 116.52Z" fill="#077FE9"/>
<path d="M132.345 113.121C131.234 112.737 130.462 111.82 129.474 111.259C128.795 110.874 128.703 110.164 128.425 109.573C128.487 109.248 128.579 108.893 128.641 108.568C129.598 108.154 130.246 108.568 130.863 109.248C131.326 109.75 131.45 110.46 132.129 110.815C132.283 111.318 132.406 111.82 132.561 112.323C132.499 112.944 133.579 112.707 133.456 113.388C133.271 113.417 133.055 113.417 132.869 113.447C132.746 113.21 132.592 113.121 132.345 113.121Z" fill="#1F292D"/>
<path d="M47.65 112.529C47.65 112.145 47.6191 111.731 47.6191 111.347C47.65 108.478 47.65 105.61 47.6809 102.772C48.0821 102.032 48.0204 101.323 47.65 100.554C47.0327 99.3414 47.5883 98.5726 49.0081 98.6318C49.6563 98.6613 50.2736 99.0162 50.8909 98.2474C51.323 97.7151 51.786 98.07 51.9712 98.8092C52.1872 99.578 52.2181 100.731 53.6379 100.436C54.3478 103.422 53.9157 106.438 53.8231 109.454C53.7923 110.075 53.8231 110.726 53.854 111.347C53.854 111.642 53.854 111.938 53.8231 112.234C53.6688 113.21 53.6379 114.185 53.7614 115.191C53.7305 115.96 53.6997 116.758 53.6688 117.527C53.3293 119.39 53.391 121.282 53.4527 123.174C53.3601 124.594 53.2984 126.013 53.2058 127.462C51.9712 127.906 50.7366 127.728 49.4711 127.58V127.61C49.255 126.161 49.0081 124.683 48.8229 123.234C48.4525 119.656 48.0821 116.078 47.65 112.529Z" fill="#0287EC"/>
<path d="M128.425 109.572C128.733 110.163 128.795 110.903 129.474 111.257C129.104 112.145 128.548 113.002 129.135 114.007C128.826 114.007 128.517 114.007 128.209 114.007C128.178 113.446 128.209 112.854 128.054 112.292C127.9 111.731 127.591 111.198 126.758 111.553C126.11 111.819 125.492 111.435 124.875 111.346C124.659 110.282 125.122 109.128 124.474 108.093C124.443 107.798 124.412 107.473 124.412 107.177C124.813 107.029 125.153 107.887 125.678 107.029C126.264 106.083 127.499 106.733 127.9 108.212C127.993 108.685 127.591 109.335 128.425 109.572Z" fill="#0287EC"/>
<path d="M49.5322 127.579C50.7668 127.697 52.0323 127.904 53.267 127.461C53.2361 128.141 53.2052 128.821 53.1435 129.501C51.9397 129.324 50.736 129.383 49.5322 129.442C49.5322 128.792 49.5322 128.2 49.5322 127.579Z" fill="#D6E3F4"/>
<path d="M124.937 112.238C125.462 112.238 125.925 112.327 126.264 112.889C124.196 113.332 125.554 114.633 125.493 115.609C124.783 114.574 124.659 113.421 124.937 112.238Z" fill="#1EB0F1"/>
<path d="M125.585 115.781C125.647 115.9 125.74 116.047 125.801 116.166C125.585 116.107 125.523 115.959 125.585 115.781Z" fill="#1EB0F1"/>
<path d="M57.805 132.664C57.5272 132.694 57.2803 132.605 57.126 132.368C57.4346 132.339 57.6816 132.368 57.805 132.664Z" fill="#D6E3F4"/>
<path d="M53.5449 99.6926V99.6641H53.6058L53.5449 99.6926Z" fill="#0287EC"/>
<path d="M116.912 71.6347C116.264 71.546 116.017 71.2207 116.047 70.6885C116.078 70.2449 116.356 69.9492 116.85 69.9492C117.406 69.9492 117.714 70.2745 117.714 70.7772C117.714 71.339 117.313 71.546 116.912 71.6347Z" fill="#2F373C"/>
<path d="M112.56 69.9492C113.085 70.0675 113.393 70.3336 113.332 70.8659C113.27 71.3686 112.93 71.6643 112.406 71.6051C111.943 71.546 111.665 71.2207 111.696 70.7772C111.696 70.2745 112.004 69.9788 112.56 69.9492Z" fill="#2F373C"/>
<path d="M107.312 70.7433C107.405 70.2702 107.714 69.945 108.238 69.9745C108.763 70.0041 109.072 70.3294 109.041 70.832C109.01 71.3347 108.671 71.6304 108.146 71.6008C107.621 71.5713 107.374 71.2164 107.312 70.7433Z" fill="#2F373C"/>
<path d="M87.3432 70.8363C87.2506 71.339 86.942 71.6643 86.4173 71.6051C85.8925 71.546 85.5839 71.1911 85.6765 70.6589C85.7382 70.2153 86.0469 69.9492 86.5098 69.9492C87.0346 69.9788 87.2815 70.3336 87.3432 70.8363Z" fill="#2F373C"/>
<path d="M82.991 70.6888C82.9601 71.2506 82.7132 71.6055 82.1576 71.635C81.6329 71.635 81.3242 71.3098 81.3242 70.7775C81.3242 70.334 81.602 70.0087 82.065 69.9791C82.6206 69.92 82.8675 70.2748 82.991 70.6888Z" fill="#2F373C"/>
<path d="M90.8613 71.6355C90.3675 71.6059 90.028 71.3694 89.9662 70.8667C89.9045 70.364 90.244 70.0387 90.7379 69.9796C91.2626 69.9205 91.6021 70.2457 91.6638 70.7188C91.7256 71.2215 91.386 71.5172 90.8613 71.6355Z" fill="#2F373C"/>
<path d="M104.69 70.7484C104.659 71.2511 104.381 71.5763 103.887 71.6059C103.363 71.6355 103.023 71.3398 102.992 70.8371C102.961 70.3344 103.301 70.0091 103.795 69.9796C104.319 69.9204 104.597 70.2457 104.69 70.7484Z" fill="#2F373C"/>
<path d="M99.5345 71.6304C98.9172 71.5417 98.6394 71.246 98.6703 70.7433C98.7011 70.2998 98.9789 70.0041 99.4419 69.9745C99.9975 69.9449 100.337 70.2702 100.337 70.7729C100.368 71.2756 99.9975 71.5417 99.5345 71.6304Z" fill="#2F373C"/>
<path d="M95.0899 69.9492C95.6764 70.0084 95.985 70.3041 95.985 70.8363C95.985 71.2798 95.7072 71.6051 95.2442 71.6347C94.7195 71.6643 94.3491 71.3686 94.3183 70.8659C94.2565 70.3041 94.6269 70.0675 95.0899 69.9492Z" fill="#2F373C"/>
<path d="M77.8359 69.9766C78.4224 70.0653 78.6693 70.3905 78.6076 70.8932C78.5458 71.3368 78.268 71.6325 77.8051 71.6029C77.2803 71.5733 76.9717 71.2481 76.9717 70.7454C76.9717 70.2427 77.3112 69.9766 77.8359 69.9766Z" fill="#2F373C"/>
<path d="M109.041 58.4474C109.01 58.95 108.732 59.2753 108.177 59.2753C107.652 59.2753 107.312 58.95 107.312 58.4474C107.312 57.9743 107.621 57.5898 108.146 57.5898C108.701 57.5898 108.979 57.9447 109.041 58.4474Z" fill="#2F373C"/>
<path d="M104.721 58.3854C104.659 58.9472 104.381 59.2725 103.856 59.2725C103.332 59.2725 102.992 58.9472 102.992 58.4741C102.992 57.9714 103.332 57.6461 103.826 57.6461C104.381 57.6166 104.597 58.001 104.721 58.3854Z" fill="#2F373C"/>
<path d="M87.3431 58.4445C87.2505 58.9768 86.9727 59.302 86.4171 59.2725C85.9542 59.2429 85.6455 58.9472 85.6455 58.5036C85.6455 58.001 85.9542 57.6461 86.4789 57.6461C87.0345 57.6166 87.2814 58.001 87.3431 58.4445Z" fill="#2F373C"/>
<path d="M91.6953 58.4743C91.6335 58.977 91.3249 59.3023 90.8002 59.2727C90.2754 59.2727 89.9359 58.977 89.9668 58.4448C89.9977 57.9421 90.3063 57.6168 90.831 57.6464C91.3557 57.6464 91.6335 57.9717 91.6953 58.4743Z" fill="#2F373C"/>
<path d="M95.9851 58.474C95.8925 59.0062 95.6147 59.3315 95.0591 59.2723C94.5961 59.2132 94.3184 58.9175 94.3184 58.474C94.3184 57.9713 94.627 57.646 95.1826 57.646C95.7382 57.6165 95.9234 58.0304 95.9851 58.474Z" fill="#2F373C"/>
<path d="M100.369 58.535C100.276 59.0377 99.9364 59.3334 99.4117 59.3038C98.9178 59.2743 98.6709 58.9194 98.6709 58.5054C98.6709 58.0028 98.9796 57.6479 99.5351 57.6775C100.06 57.6479 100.307 58.0323 100.369 58.535Z" fill="#2F373C"/>
<path d="M132.098 110.819C131.45 110.464 131.295 109.754 130.832 109.251C130.215 108.571 129.567 108.157 128.61 108.571C128.456 107.063 128.085 105.555 128.826 104.077C129.011 103.722 129.011 103.308 129.505 103.16C129.474 103.308 129.474 103.485 129.443 103.633C129.135 105.555 130.678 106.442 131.851 107.507C132.067 108.157 133.055 108.424 132.746 109.311C131.727 109.488 132.561 110.434 132.098 110.819Z" fill="#077FE9"/>
<path d="M129.443 103.653C129.474 103.505 129.474 103.327 129.505 103.18V103.15C129.69 103.091 129.875 103.032 130.03 102.973C130.246 103.002 130.462 103.002 130.678 103.032C130.74 103.12 130.832 103.15 130.925 103.15C130.956 103.239 130.956 103.327 130.925 103.416C130.524 103.83 129.968 103.594 129.443 103.653Z" fill="#2F373C"/>
<path d="M130.031 102.948C129.845 103.007 129.66 103.066 129.506 103.125C129.568 102.8 129.784 102.77 130.031 102.948Z" fill="#077FE9"/>
<path d="M130.956 103.157C130.832 103.157 130.771 103.098 130.709 103.038C130.894 102.831 130.925 102.979 130.956 103.157Z" fill="#077FE9"/>
<path d="M22.9572 20.5063C22.4016 20.388 22.0312 20.0627 22.0312 19.5009C22.0312 18.9391 22.3708 18.5547 22.9881 18.5547C23.6363 18.5547 24.0684 18.9687 24.0066 19.5896C23.9449 20.1219 23.5745 20.4471 22.9572 20.5063Z" fill="#1EB0F1"/>
<path d="M43.7608 102.504C43.9151 103.598 44.0077 104.692 43.6682 105.757C43.6373 104.662 43.483 103.598 43.7608 102.504Z" fill="#1EB0F1"/>
<path d="M43.9148 95.6719C43.9148 95.9676 43.9148 96.2633 43.9148 96.5294C43.5753 96.2633 43.5753 95.9676 43.9148 95.6719Z" fill="#1EB0F1"/>
<path d="M44.5009 95.404C44.3157 95.3153 44.1305 95.2266 43.9453 95.1379C44.007 94.9309 44.1614 94.7831 44.3466 94.9309C44.47 94.9901 44.47 95.2266 44.5009 95.404Z" fill="#1EB0F1"/>
<path d="M132.098 110.811C132.561 110.426 131.727 109.48 132.777 109.332C132.838 110.337 133.209 111.372 132.53 112.319C132.375 111.816 132.221 111.313 132.098 110.811Z" fill="#AAC9F3"/>
<path d="M134.937 116.58L134.906 116.609L134.876 116.551L134.937 116.58Z" fill="#2F373C"/>
<path d="M132.345 113.117C132.561 113.147 132.746 113.235 132.808 113.442C132.623 113.383 132.437 113.324 132.345 113.117Z" fill="#2F373C"/>
<path d="M49.4399 43.0664C49.4399 43.0664 48.1745 43.8648 50.4894 45.4615C50.4894 45.4615 49.9029 46.0825 49.3473 46.1416C48.7918 46.2008 49.9647 47.2948 50.1498 47.354C50.335 47.4131 53.3907 48.7142 55.0883 50.7841C56.7859 52.8539 59.1009 54.0958 59.1626 55.2491C59.2552 56.4023 57.465 56.6684 57.465 56.6684L58.2984 60.4237C58.2984 60.4237 64.2554 59.1818 64.9345 57.7625C65.6135 56.3431 64.0085 54.2141 63.3912 53.6523C62.7739 53.0905 55.1501 47.1766 55.1501 47.1766C55.1501 47.1766 53.1438 44.6336 52.4339 44.0718C51.7549 43.5987 49.4399 43.0664 49.4399 43.0664Z" fill="#EFD8B6"/>
<path d="M148.518 133.195H27.4326V134.999H148.518V133.195Z" fill="#D6E3F4"/>
</svg>
