<svg width="288" height="188" viewBox="0 0 288 188" fill="none" xmlns="http://www.w3.org/2000/svg">
<path opacity="0.1" d="M0.873203 93.3695C-5.38968 40.1595 23.3856 27.2765 44.1155 23.5364C115.06 3.91751 168.683 -14.2995 221.139 16.4763C260.345 39.4789 326.457 89.6955 258.976 150.649C192.085 211.069 13.7108 202.439 0.873203 93.3695Z" fill="#00B9F1"/>
<path d="M146.204 170.062C185.303 170.062 217 138.365 217 99.2652C217 60.1654 185.303 28.4688 146.204 28.4688C107.104 28.4688 75.4071 60.1654 75.4071 99.2652C75.4071 138.365 107.104 170.062 146.204 170.062Z" fill="#FAFAFA" stroke="#D6EBFF" stroke-miterlimit="10"/>
<path d="M146.204 145.184C171.563 145.184 192.122 124.626 192.122 99.2658C192.122 73.9059 171.563 53.3477 146.204 53.3477C120.844 53.3477 100.285 73.9059 100.285 99.2658C100.285 124.626 120.844 145.184 146.204 145.184Z" fill="#E3F1FE"/>
<rect x="112.227" y="79.082" width="65.3943" height="49.7565" fill="white"/>
<path d="M114.928 73.6781H181.744C181.744 73.6781 183.165 73.2516 183.165 77.9429C183.165 82.6342 183.165 126.278 183.165 126.278H176.057V80.7861H117.771C117.771 80.7861 113.506 80.3596 113.506 84.0558C113.506 87.752 113.506 127.842 113.506 127.842H106.398V78.0851C106.398 77.9429 107.962 73.6781 114.928 73.6781Z" fill="#167EDF"/>
<path d="M102.133 124.855V129.12C102.133 129.12 104.124 134.807 109.384 134.807C114.644 134.807 184.587 134.807 184.587 134.807C184.587 134.807 188.852 132.959 188.852 129.689C188.852 126.419 188.852 124.855 188.852 124.855H154.733L152.601 127.699H141.939L138.527 124.855H102.133Z" fill="#4BA7FC"/>
<path d="M168.949 98.2695H124.737V110.353H168.949V98.2695Z" fill="#66A4FF"/>
<path d="M168.949 98.2695H124.737V101.824H168.949V98.2695Z" fill="#347CE5"/>
<path d="M132.272 104.242H129.571V106.659H132.272V104.242Z" fill="#D6E3F4"/>
<path d="M138.242 104.242H135.541V106.659H138.242V104.242Z" fill="#D6E3F4"/>
<path d="M144.213 104.242H141.512V106.659H144.213V104.242Z" fill="#D6E3F4"/>
<path d="M150.042 104.242H147.341V106.659H150.042V104.242Z" fill="#D6E3F4"/>
<path d="M126.301 52.0705L122.178 51.5018C121.894 50.5067 121.467 49.5115 120.899 48.5164L123.458 45.2467C124.453 43.9672 124.311 41.977 123.173 40.8397L119.761 37.4278C118.624 36.2905 116.776 36.1484 115.354 37.1435L112.085 39.7024C111.09 39.2759 110.095 38.8494 109.099 38.4229L108.531 34.3003C108.389 32.5943 106.967 31.457 105.261 31.457H100.285C98.5794 31.457 97.1578 32.7365 97.0156 34.3003L96.447 38.4229C95.4519 38.7073 94.4567 39.1338 93.4616 39.7024L90.1919 37.1435C88.9125 36.1484 87.0643 36.2905 85.7849 37.4278L82.373 40.8397C81.2357 41.977 81.0936 43.8251 82.0887 45.2467L84.6476 48.5164C84.2211 49.5115 83.7946 50.5067 83.3681 51.5018L79.2455 52.0705C77.5395 52.2126 76.4022 53.6342 76.4022 55.3402V60.3158C76.4022 62.0218 77.6817 63.4434 79.2455 63.5855L83.3681 64.1542C83.6525 65.1493 84.079 66.1444 84.6476 67.1396L82.0887 70.4093C81.0936 71.6888 81.2357 73.679 82.373 74.8163L85.7849 78.2282C86.9222 79.3655 88.7703 79.5076 90.1919 78.5125L93.4616 75.9536C94.4567 76.3801 95.4519 76.8066 96.447 77.233L97.0156 81.3557C97.1578 83.0617 98.5794 84.1989 100.285 84.1989H105.261C106.967 84.1989 108.389 82.9195 108.531 81.3557L109.099 77.233C110.095 76.9487 111.09 76.5222 112.085 75.9536L115.354 78.5125C116.634 79.5076 118.624 79.3655 119.761 78.2282L123.173 74.8163C124.311 73.679 124.453 71.8309 123.458 70.4093L120.899 67.1396C121.325 66.1444 121.752 65.1493 122.178 64.1542L126.301 63.5855C128.007 63.4434 129.144 62.0218 129.144 60.3158V55.3402C129.144 53.6342 127.865 52.2126 126.301 52.0705ZM102.844 68.7034C96.7313 68.7034 91.8978 63.7277 91.8978 57.7569C91.8978 51.6439 96.8735 46.8105 102.844 46.8105C108.957 46.8105 113.791 51.7861 113.791 57.7569C113.791 63.8698 108.957 68.7034 102.844 68.7034Z" fill="#6FB6F8"/>
<path d="M145.919 19.9416L143.502 19.6572C143.36 19.0886 143.076 18.52 142.791 17.9513L144.213 16.1032C144.782 15.3924 144.782 14.2551 144.071 13.5443L142.081 11.554C141.37 10.8432 140.375 10.8432 139.522 11.4119L137.674 12.8335C137.105 12.5492 136.536 12.2648 135.968 12.1227L135.683 9.70593C135.541 8.7108 134.688 8 133.835 8H130.992C129.997 8 129.286 8.7108 129.144 9.70593L128.86 12.1227C128.291 12.2648 127.722 12.5492 127.154 12.8335L125.306 11.4119C124.595 10.8432 123.457 10.8432 122.747 11.554L120.756 13.5443C120.046 14.2551 120.046 15.2502 120.614 16.1032L122.036 17.9513C121.752 18.52 121.467 19.0886 121.325 19.6572L118.908 19.9416C117.913 20.0837 117.202 20.9367 117.202 21.7897V24.6329C117.202 25.628 117.913 26.3388 118.908 26.481L121.325 26.7653C121.467 27.334 121.752 27.9026 122.036 28.4713L120.614 30.3194C120.046 31.0302 120.046 32.1675 120.756 32.8783L122.747 34.8685C123.457 35.5793 124.453 35.5793 125.306 35.0107L127.154 33.5891C127.722 33.8734 128.291 34.1577 128.86 34.2999L129.144 36.7166C129.286 37.7118 130.139 38.4226 130.992 38.4226H133.835C134.83 38.4226 135.541 37.7118 135.683 36.7166L135.968 34.2999C136.536 34.1577 137.105 33.8734 137.674 33.5891L139.522 35.0107C140.233 35.5793 141.37 35.5793 142.081 34.8685L144.071 32.8783C144.782 32.1675 144.782 31.1723 144.213 30.3194L142.791 28.4713C143.076 27.9026 143.36 27.334 143.502 26.7653L145.919 26.481C146.914 26.3388 147.625 25.4859 147.625 24.6329V21.7897C147.625 20.9367 146.772 20.0837 145.919 19.9416ZM132.414 29.6085C128.86 29.6085 126.016 26.7653 126.016 23.2113C126.016 19.6572 128.86 16.814 132.414 16.814C135.968 16.814 138.811 19.6572 138.811 23.2113C138.811 26.7653 135.826 29.6085 132.414 29.6085Z" fill="#6FB6F8"/>
<path d="M179.327 57.7578C174.209 57.7578 170.087 61.8805 170.087 66.9983V72.6848C170.087 73.1113 170.371 73.3956 170.797 73.3956H173.641C174.067 73.3956 174.351 73.1113 174.351 72.6848V66.9983C174.351 64.2972 176.626 62.0227 179.327 62.0227C182.028 62.0227 184.303 64.2972 184.303 66.9983V72.6848C184.303 73.1113 184.587 73.3956 185.014 73.3956H187.857C188.283 73.3956 188.568 73.1113 188.568 72.6848V66.9983C188.568 61.8805 184.445 57.7578 179.327 57.7578Z" fill="#ACCBD1"/>
<path d="M170.797 71.9727H187.857C189.847 71.9727 191.411 73.5364 191.411 75.5267V88.3212C191.411 90.3115 189.847 91.8753 187.857 91.8753H170.797C168.807 91.8753 167.243 90.3115 167.243 88.3212V75.5267C167.385 73.5364 168.949 71.9727 170.797 71.9727Z" fill="#6FB6F8"/>
<path d="M182.881 79.6478C182.881 77.6575 181.317 76.0938 179.327 76.0938C177.337 76.0938 175.773 77.6575 175.773 79.6478C175.773 81.0694 176.484 82.2067 177.763 82.7753L177.195 86.6137C177.195 87.0402 177.479 87.3245 177.763 87.4667C177.763 87.4667 177.763 87.4667 177.905 87.4667H180.749C181.175 87.4667 181.459 87.1824 181.459 86.7559V86.6137L180.891 82.7753C182.17 82.2067 182.881 81.0694 182.881 79.6478Z" fill="white"/>
<path d="M172.077 180.02C181.577 180.02 189.278 172.319 189.278 162.819C189.278 153.319 181.577 145.617 172.077 145.617C162.577 145.617 154.875 153.319 154.875 162.819C154.875 172.319 162.577 180.02 172.077 180.02Z" fill="#E3F1FE"/>
<path d="M172.077 175.465C179.065 175.465 184.729 169.8 184.729 162.813C184.729 155.825 179.065 150.16 172.077 150.16C165.089 150.16 159.424 155.825 159.424 162.813C159.424 169.8 165.089 175.465 172.077 175.465Z" fill="#2392F7"/>
<path d="M88.2016 158.692C97.7017 158.692 105.403 150.991 105.403 141.491C105.403 131.99 97.7017 124.289 88.2016 124.289C78.7014 124.289 71 131.99 71 141.491C71 150.991 78.7014 158.692 88.2016 158.692Z" fill="#E3F1FE"/>
<path d="M88.2016 154.145C95.1893 154.145 100.854 148.48 100.854 141.492C100.854 134.505 95.1893 128.84 88.2016 128.84C81.2139 128.84 75.5492 134.505 75.5492 141.492C75.5492 148.48 81.2139 154.145 88.2016 154.145Z" fill="#12D444"/>
<path d="M173.214 159.686H168.239L168.807 159.117C169.092 158.833 169.092 158.548 168.807 158.264C168.523 157.98 168.239 157.98 167.954 158.264L166.533 159.686C166.248 159.97 166.248 160.254 166.533 160.539L167.954 161.96C168.239 162.245 168.523 162.245 168.807 161.96C169.092 161.676 169.092 161.392 168.807 161.107L168.239 160.539H173.214C174.778 160.539 176.058 161.818 176.058 163.382C176.058 164.946 174.778 166.225 173.214 166.225H169.945C169.66 166.225 169.376 166.509 169.376 166.794C169.376 167.078 169.66 167.362 169.945 167.362H173.214C175.347 167.362 177.053 165.656 177.053 163.524C177.053 161.392 175.347 159.686 173.214 159.686Z" fill="white"/>
<path d="M89.9077 138.644C89.9077 140.208 88.6282 141.487 87.0644 141.487C86.3536 141.487 85.6428 141.203 85.2163 140.776C84.6477 140.208 84.2212 139.497 84.2212 138.644C84.2212 137.08 85.5006 135.801 87.0644 135.801C88.6282 135.943 89.9077 137.08 89.9077 138.644Z" fill="white"/>
<path d="M86.2114 140.496L85.5006 144.761H84.079L83.9369 147.604H86.4958L87.0644 140.496H86.2114Z" fill="white"/>
</svg>
