<svg xmlns="http://www.w3.org/2000/svg" width="28" height="28" fill="none" viewBox="0 0 28 28">
    <path fill="#CACACA" d="M10.58 15.91H8.51v3.986h2.07V15.91zM4.628 14.875h-2.07v5.02h2.07v-5.02zM23.06 2.2c-.74-.86-2.03-.953-2.883-.213-.616.534-.86 1.382-.616 2.159L17.087 5.9c-.761-.844-2.066-.906-2.91-.145-.641.58-.848 1.496-.527 2.298L11.34 10c-.6-.968-1.869-1.268-2.837-.668-.43.27-.75.684-.89 1.17L5.658 9.71c-.16-1.128-1.201-1.91-2.33-1.754-1.128.16-1.91 1.2-1.754 2.329.155 1.128 1.2 1.91 2.329 1.755.797-.114 1.46-.684 1.687-1.46l1.957.792c.15 1.128 1.185 1.92 2.314 1.775 1.128-.15 1.92-1.185 1.775-2.313l2.474-2.087c.378.384.9.6 1.444.6 1.14 0 2.06-.92 2.06-2.06 0-.227-.036-.455-.113-.667l2.458-1.744c.74.854 2.03.952 2.889.212s.952-2.03.212-2.888zM19.95 22.438c1.332 0 2.412-1.08 2.412-2.413 0-1.332-1.08-2.412-2.412-2.412-1.332 0-2.412 1.08-2.412 2.412 0 1.333 1.08 2.413 2.412 2.413zM14.515 12.078v5.477c.476-.968 1.185-1.807 2.07-2.433v-3.044h-2.07z"/>
    <path fill="#CACACA" d="M20.528 14.688c-3.266 0-5.916 2.65-5.916 5.916 0 3.266 2.645 5.911 5.916 5.911 3.272 0 5.917-2.65 5.917-5.916-.01-3.261-2.656-5.912-5.917-5.912zm3.52 9.43c-.16.16-.424.16-.585 0l-1.537-1.532c-1.418 1.098-3.458.834-4.555-.585-1.097-1.418-.833-3.457.585-4.555 1.418-1.097 3.457-.833 4.555.585.9 1.17.9 2.8 0 3.97l1.532 1.533c.166.16.166.424.005.585zM20.467 8.355v5.508h.037c.688 0 1.376.103 2.034.316V8.355h-2.07z"/>
</svg>
