<svg width="28" height="28" viewBox="0 0 28 28" fill="none" xmlns="http://www.w3.org/2000/svg">
<path d="M10.5802 15.9082H8.50977V19.8938H10.5802V15.9082Z" fill="#F58220"/>
<path d="M4.62808 14.874H2.55762V19.8949H4.62808V14.874Z" fill="#F58220"/>
<path d="M23.0596 2.19866C22.3194 1.33942 21.0305 1.24625 20.1765 1.98644C19.5605 2.51958 19.3172 3.36847 19.5605 4.1449L17.0863 5.89961C16.3254 5.0559 15.021 4.99379 14.1773 5.75468C13.5355 6.33441 13.3284 7.25059 13.6493 8.05289L11.3408 9.99913C10.7403 9.03118 9.47218 8.73097 8.50423 9.3314C8.07461 9.60056 7.75369 10.0147 7.61394 10.5012L5.65735 9.70926C5.49689 8.58086 4.45648 7.79926 3.32808 7.95454C2.19968 8.11501 1.41808 9.15541 1.57336 10.2838C1.72865 11.4122 2.77423 12.1938 3.90263 12.0385C4.69976 11.9247 5.36231 11.3553 5.59006 10.5789L7.54665 11.3708C7.69675 12.4992 8.73199 13.2912 9.86039 13.1462C10.9888 12.9961 11.7807 11.9609 11.6358 10.8325L14.11 8.7465C14.4879 9.12953 15.0107 9.34693 15.5542 9.34693C16.6929 9.34693 17.6143 8.42557 17.6143 7.28682C17.6143 7.05907 17.578 6.83132 17.5004 6.6191L19.9591 4.87473C20.6993 5.7288 21.9881 5.82715 22.8474 5.08696C23.7066 4.34677 23.7998 3.0579 23.0596 2.19866Z" fill="#F58220"/>
<path d="M19.9497 22.4355C21.2818 22.4355 22.3618 21.3556 22.3618 20.0234C22.3618 18.6913 21.2818 17.6113 19.9497 17.6113C18.6175 17.6113 17.5376 18.6913 17.5376 20.0234C17.5376 21.3556 18.6175 22.4355 19.9497 22.4355Z" fill="#F58220"/>
<path d="M14.5146 12.0791V17.5555C14.9909 16.5875 15.7 15.749 16.5851 15.1227V12.0791H14.5146V12.0791Z" fill="#F58220"/>
<path d="M20.5282 14.6865C17.262 14.6865 14.6118 17.3367 14.6118 20.6029C14.6118 23.869 17.2568 26.514 20.5282 26.514C23.7995 26.514 26.4445 23.8639 26.4445 20.5977C26.4342 17.3367 23.7891 14.6865 20.5282 14.6865ZM24.0479 24.1175C23.8875 24.2779 23.6235 24.2779 23.463 24.1175L21.9257 22.5853C20.5075 23.6827 18.4681 23.4187 17.3707 22.0004C16.2734 20.5822 16.5373 18.5428 17.9556 17.4454C19.3739 16.3481 21.4133 16.6121 22.5106 18.0303C23.4113 19.2001 23.4113 20.8306 22.5106 22.0004L24.0428 23.5326C24.2084 23.693 24.2084 23.957 24.0479 24.1175Z" fill="#F58220"/>
<path d="M20.4668 8.35352V13.8609C20.4668 13.8609 20.4875 13.8609 20.503 13.8609C21.1915 13.8609 21.8799 13.9645 22.5373 14.1767V8.35352H20.4668Z" fill="#F58220"/>
</svg>
