<svg width="28" height="28" viewBox="0 0 28 28" fill="none" xmlns="http://www.w3.org/2000/svg">
<path d="M10.5807 15.9102H8.51025V19.8958H10.5807V15.9102Z" fill="#999999"/>
<path d="M4.62808 14.875H2.55762V19.8959H4.62808V14.875Z" fill="#999999"/>
<path d="M23.0598 2.19964C22.3196 1.3404 21.0308 1.24723 20.1767 1.98742C19.5607 2.52056 19.3175 3.36945 19.5607 4.14587L17.0865 5.90059C16.3256 5.05688 15.0213 4.99476 14.1775 5.75566C13.5357 6.33539 13.3287 7.25156 13.6496 8.05387L11.341 10.0001C10.7406 9.03216 9.47242 8.73194 8.50448 9.33238C8.07486 9.60154 7.75394 10.0156 7.61418 10.5022L5.65759 9.71024C5.49713 8.58184 4.45673 7.80024 3.32832 7.95552C2.19992 8.11598 1.41832 9.15639 1.57361 10.2848C1.72889 11.4132 2.77448 12.1948 3.90288 12.0395C4.70001 11.9256 5.36255 11.3563 5.5903 10.5798L7.54689 11.3718C7.697 12.5002 8.73223 13.2921 9.86063 13.1472C10.989 12.9971 11.781 11.9619 11.6361 10.8335L14.1103 8.74747C14.4881 9.13051 15.0109 9.34791 15.5544 9.34791C16.6932 9.34791 17.6145 8.42655 17.6145 7.2878C17.6145 7.06005 17.5783 6.8323 17.5006 6.62007L19.9593 4.87571C20.6995 5.72978 21.9884 5.82812 22.8476 5.08793C23.7068 4.34774 23.8 3.05888 23.0598 2.19964Z" fill="#999999"/>
<path d="M19.9497 22.4375C21.2818 22.4375 22.3618 21.3575 22.3618 20.0254C22.3618 18.6932 21.2818 17.6133 19.9497 17.6133C18.6175 17.6133 17.5376 18.6932 17.5376 20.0254C17.5376 21.3575 18.6175 22.4375 19.9497 22.4375Z" fill="#999999"/>
<path d="M14.5149 12.0781V17.5545C14.9911 16.5866 15.7002 15.748 16.5854 15.1217V12.0781H14.5149Z" fill="#999999"/>
<path d="M20.5284 14.6875C17.2623 14.6875 14.6121 17.3377 14.6121 20.6038C14.6121 23.87 17.2571 26.515 20.5284 26.515C23.7997 26.515 26.4448 23.8648 26.4448 20.5987C26.4344 17.3377 23.7894 14.6875 20.5284 14.6875ZM24.0482 24.1185C23.8877 24.2789 23.6237 24.2789 23.4633 24.1185L21.926 22.5863C20.5077 23.6837 18.4683 23.4197 17.371 22.0014C16.2736 20.5831 16.5376 18.5437 17.9559 17.4464C19.3741 16.349 21.4135 16.613 22.5109 18.0313C23.4115 19.2011 23.4115 20.8316 22.5109 22.0014L24.043 23.5336C24.2087 23.694 24.2087 23.958 24.0482 24.1185Z" fill="#999999"/>
<path d="M20.4673 8.35547V13.8629C20.4673 13.8629 20.488 13.8629 20.5035 13.8629C21.1919 13.8629 21.8804 13.9664 22.5377 14.1786V8.35547H20.4673Z" fill="#999999"/>
</svg>
