<svg width="28" height="28" viewBox="0 0 28 28" fill="none" xmlns="http://www.w3.org/2000/svg">
<path d="M4.53918 0C10.666 0 16.807 0 22.9338 0C23.0611 0.055972 23.1885 0.111943 23.3158 0.153922C24.8157 0.671663 25.7496 1.90305 25.7496 3.48426C25.7637 10.4948 25.7637 17.4913 25.7496 24.5017C25.7496 26.041 24.8298 27.2724 23.3583 27.8041C23.2168 27.8601 23.0753 27.93 22.9196 28C16.7928 28 10.6518 28 4.52503 28C2.40258 27.3143 1.65264 25.8311 1.68094 23.6762C1.75169 17.0855 1.70925 10.5087 1.70925 3.91804C1.70925 3.55422 1.72339 3.17641 1.79414 2.81259C2.09128 1.27336 3.16666 0.475762 4.53918 0ZM13.6091 2.81259C10.8499 2.81259 8.1049 2.81259 5.34571 2.81259C4.45428 2.81259 4.15714 3.10645 4.14299 3.98801C4.12884 5.06547 4.12884 6.12894 4.14299 7.2064C4.14299 8.05997 4.44013 8.36782 5.27496 8.36782C10.8075 8.36782 16.34 8.36782 21.8725 8.36782C22.6791 8.36782 22.9762 8.07396 22.9904 7.26237C23.0045 6.18491 23.0045 5.12144 22.9904 4.04398C22.9904 3.06447 22.7357 2.81259 21.7311 2.81259C19.0143 2.81259 16.3117 2.81259 13.6091 2.81259ZM22.9904 22.1789C22.9904 21.4793 22.9904 20.7796 22.9904 20.08C22.9904 19.4223 22.6649 19.0725 22.014 19.0585C21.4198 19.0445 20.8396 19.0445 20.2453 19.0585C19.6227 19.0865 19.2832 19.4223 19.2832 20.038C19.269 21.4513 19.269 22.8786 19.2832 24.2919C19.2832 24.9075 19.651 25.2294 20.2736 25.2294C20.8396 25.2434 21.4056 25.2434 21.9716 25.2294C22.7215 25.2014 22.9762 24.9355 22.9904 24.1939C23.0045 23.5362 22.9904 22.8506 22.9904 22.1789ZM10.9773 21.6752C13.0573 21.7871 12.9016 21.2414 12.8875 19.982C12.8733 19.3803 12.5196 19.1005 11.9536 19.0725C11.3452 19.0445 10.7226 19.0025 10.1283 19.0865C9.81702 19.1284 9.37837 19.3803 9.26518 19.6462C8.74164 20.8496 9.32178 21.6612 10.6235 21.6612C10.7509 21.6752 10.8641 21.6752 10.9773 21.6752ZM6.01075 21.6752C7.97756 21.7871 7.89266 21.2274 7.85021 19.912C7.83606 19.3803 7.49647 19.1005 6.98708 19.0725C6.33619 19.0445 5.65701 18.9745 5.02027 19.1004C4.69483 19.1564 4.25619 19.5482 4.18544 19.8561C3.86 21.1574 4.31279 21.6612 5.65701 21.6612C5.7702 21.6752 5.8834 21.6752 6.01075 21.6752ZM16.0853 21.6612C16.3966 21.6612 16.6938 21.6752 17.0051 21.6612C17.6701 21.6192 17.9531 21.2834 17.9672 20.5417C17.9955 19.5202 17.7691 19.1284 17.0758 19.0865C16.4249 19.0445 15.7457 19.0165 15.0948 19.1144C14.8119 19.1564 14.3732 19.4643 14.3308 19.6882C14.1185 21.0175 14.161 21.8151 15.7316 21.6752C15.8448 21.6612 15.9721 21.6752 16.0853 21.6612ZM11.048 13.0135C11.3027 13.0135 11.5716 13.0135 11.8263 13.0135C12.6045 12.9995 12.8875 12.7336 12.9016 11.964C12.9016 11.7541 12.9016 11.5442 12.9016 11.3343C12.8733 10.7746 12.5762 10.4668 12.0244 10.4528C11.3593 10.4388 10.6943 10.3828 10.0434 10.4808C9.74627 10.5227 9.33592 10.8446 9.25103 11.1104C8.85484 12.4258 9.32178 12.9995 10.6943 12.9995C10.8075 13.0135 10.9207 13.0135 11.048 13.0135ZM11.0197 18.065C11.3027 18.065 11.5857 18.065 11.8687 18.065C12.6045 18.037 12.8733 17.7711 12.8875 17.0435C12.8875 16.8336 12.8875 16.6237 12.8875 16.4138C12.8733 15.8541 12.5904 15.5322 12.0244 15.5182C11.3593 15.5042 10.6943 15.4623 10.0434 15.5462C9.76042 15.5882 9.36422 15.8401 9.25103 16.1059C8.75579 17.3373 9.30762 18.079 10.6518 18.079C10.7933 18.065 10.9065 18.065 11.0197 18.065ZM5.95415 25.2434C6.23714 25.2434 6.52014 25.2574 6.80313 25.2434C7.55307 25.2154 7.82191 24.9635 7.85021 24.2219C7.86436 23.984 7.86436 23.7601 7.83606 23.5222C7.79361 22.9625 7.48232 22.6687 6.91633 22.6687C6.30789 22.6547 5.68531 22.5987 5.07687 22.6967C4.75143 22.7526 4.25619 23.0605 4.19959 23.3123C3.95904 24.6277 4.08639 25.3693 5.58626 25.2434C5.72776 25.2434 5.84095 25.2434 5.95415 25.2434ZM16.0712 22.6687C15.8306 22.6687 15.6042 22.6687 15.3637 22.6687C14.543 22.6827 14.2742 22.9485 14.26 23.7601C14.26 23.942 14.26 24.1379 14.26 24.3198C14.2742 24.9075 14.5996 25.2294 15.1797 25.2434C15.7882 25.2574 16.4108 25.3133 17.0051 25.2154C17.3305 25.1594 17.7691 24.8796 17.8823 24.5857C18.3351 23.3683 17.7833 22.6687 16.4815 22.6687C16.3542 22.6687 16.2127 22.6687 16.0712 22.6687ZM5.9966 13.0135C6.25129 13.0135 6.52014 13.0135 6.77483 13.0135C7.55306 12.9995 7.82191 12.7336 7.85021 11.964C7.86436 11.7541 7.86436 11.5442 7.85021 11.3343C7.82191 10.7886 7.52476 10.4668 6.95878 10.4528C6.32204 10.4388 5.6853 10.4388 5.04857 10.4528C4.48258 10.4668 4.19959 10.7886 4.14299 11.3203C3.98734 12.6497 4.31279 13.0135 5.64286 13.0135C5.75605 13.0135 5.8834 13.0135 5.9966 13.0135ZM16.0429 13.0135C16.3966 13.0135 16.7504 13.0275 17.1041 12.9995C17.7267 12.9435 17.9672 12.5937 17.9672 11.7261C17.9672 10.8446 17.755 10.4948 17.1183 10.4528C16.4391 10.4108 15.7457 10.3968 15.0665 10.4668C14.7977 10.4948 14.4298 10.7466 14.3308 10.9985C13.8214 12.2159 14.3874 12.9995 15.6891 12.9995C15.8165 13.0135 15.9297 13.0135 16.0429 13.0135ZM21.1226 13.0135C21.3773 13.0135 21.6462 13.0135 21.9008 13.0135C22.6932 12.9995 22.9621 12.7476 22.9904 11.964C23.0045 11.7541 22.9904 11.5442 22.9904 11.3343C22.9621 10.7886 22.6791 10.4528 22.1131 10.4528C21.4481 10.4388 20.783 10.3828 20.1463 10.4808C19.835 10.5367 19.4246 10.8866 19.3398 11.1804C18.986 12.4538 19.453 13.0135 20.783 13.0135C20.8962 13.0135 21.0094 13.0135 21.1226 13.0135ZM5.9966 18.065C6.25129 18.065 6.52014 18.065 6.77483 18.065C7.55306 18.051 7.82191 17.7851 7.85021 17.0155C7.85021 16.8336 7.85021 16.6377 7.85021 16.4558C7.83606 15.8401 7.52476 15.5042 6.88803 15.5042C6.39279 15.5042 5.89755 15.5042 5.40231 15.5042C4.39768 15.5042 4.14299 15.7561 4.14299 16.7356C4.14299 17.8411 4.36939 18.065 5.51551 18.065C5.67116 18.065 5.84095 18.065 5.9966 18.065ZM16.0853 15.5042C15.8306 15.5042 15.5618 15.5042 15.3071 15.5042C14.543 15.5182 14.2883 15.7701 14.26 16.4978C14.2459 16.7356 14.2459 16.9595 14.26 17.1974C14.3025 17.7431 14.5996 18.051 15.1656 18.065C15.7033 18.079 16.2551 18.079 16.7928 18.065C17.6842 18.051 17.9531 17.7851 17.9672 16.8896C17.9814 15.7281 17.7691 15.5042 16.5806 15.5042C16.4108 15.5042 16.2551 15.5042 16.0853 15.5042ZM21.0943 18.065C21.3773 18.065 21.6603 18.065 21.9433 18.065C22.6791 18.051 22.9621 17.7851 22.9904 17.0575C23.0045 16.8196 23.0045 16.5957 22.9904 16.3578C22.9479 15.8401 22.6791 15.5322 22.1414 15.5182C21.4764 15.5042 20.8113 15.4483 20.1746 15.5462C19.8633 15.6022 19.4388 15.924 19.3398 16.2179C18.9577 17.4773 19.4388 18.079 20.7547 18.079C20.8679 18.065 20.9811 18.065 21.0943 18.065ZM11.1046 25.2434V25.2294C11.4301 25.2294 11.798 25.3133 12.081 25.2014C12.3923 25.0755 12.7318 24.8096 12.845 24.5297C12.9724 24.1799 12.9724 23.7181 12.845 23.3683C12.746 23.0885 12.4206 22.7386 12.1517 22.7106C11.4301 22.6127 10.6801 22.6127 9.97266 22.7106C9.68967 22.7526 9.26518 23.1444 9.25103 23.4103C9.15198 24.6277 9.01048 25.3553 10.7509 25.2574C10.8641 25.2434 10.9914 25.2434 11.1046 25.2434Z" fill="#F58220"/>
</svg>
