<svg width="28" height="28" viewBox="0 0 28 28" fill="none" xmlns="http://www.w3.org/2000/svg">
<path d="M4.53906 0C10.6659 0 16.8068 0 22.9337 0C23.061 0.055972 23.1883 0.111943 23.3157 0.153922C24.8156 0.671663 25.7494 1.90305 25.7494 3.48426C25.7636 10.4948 25.7636 17.4913 25.7494 24.5017C25.7494 26.041 24.8297 27.2724 23.3581 27.8041C23.2166 27.8601 23.0751 27.93 22.9195 28C16.7927 28 10.6517 28 4.52491 28C2.40246 27.3143 1.65252 25.8311 1.68082 23.6762C1.75157 17.0855 1.70912 10.5087 1.70912 3.91804C1.70912 3.55422 1.72327 3.17641 1.79402 2.81259C2.09116 1.27336 3.16654 0.475762 4.53906 0ZM13.609 2.81259C10.8498 2.81259 8.10478 2.81259 5.34559 2.81259C4.45416 2.81259 4.15702 3.10645 4.14287 3.98801C4.12872 5.06547 4.12872 6.12894 4.14287 7.2064C4.14287 8.05997 4.44001 8.36782 5.27484 8.36782C10.8074 8.36782 16.3399 8.36782 21.8724 8.36782C22.679 8.36782 22.9761 8.07396 22.9903 7.26237C23.0044 6.18491 23.0044 5.12144 22.9903 4.04398C22.9903 3.06447 22.7356 2.81259 21.7309 2.81259C19.0142 2.81259 16.3116 2.81259 13.609 2.81259ZM22.9903 22.1789C22.9903 21.4793 22.9903 20.7796 22.9903 20.08C22.9903 19.4223 22.6648 19.0725 22.0139 19.0585C21.4196 19.0445 20.8395 19.0445 20.2452 19.0585C19.6226 19.0865 19.283 19.4223 19.283 20.038C19.2689 21.4513 19.2689 22.8786 19.283 24.2919C19.283 24.9075 19.6509 25.2294 20.2735 25.2294C20.8395 25.2434 21.4055 25.2434 21.9715 25.2294C22.7214 25.2014 22.9761 24.9355 22.9903 24.1939C23.0044 23.5362 22.9903 22.8506 22.9903 22.1789ZM10.9772 21.6752C13.0572 21.7871 12.9015 21.2414 12.8874 19.982C12.8732 19.3803 12.5195 19.1005 11.9535 19.0725C11.3451 19.0445 10.7225 19.0025 10.1282 19.0865C9.81689 19.1284 9.37825 19.3803 9.26505 19.6462C8.74152 20.8496 9.32165 21.6612 10.6234 21.6612C10.7508 21.6752 10.864 21.6752 10.9772 21.6752ZM6.01063 21.6752C7.97743 21.7871 7.89254 21.2274 7.85009 19.912C7.83594 19.3803 7.49634 19.1005 6.98695 19.0725C6.33607 19.0445 5.65688 18.9745 5.02015 19.1004C4.69471 19.1564 4.25607 19.5482 4.18532 19.8561C3.85988 21.1574 4.31266 21.6612 5.65688 21.6612C5.77008 21.6752 5.88328 21.6752 6.01063 21.6752ZM16.0852 21.6612C16.3965 21.6612 16.6936 21.6752 17.0049 21.6612C17.67 21.6192 17.953 21.2834 17.9671 20.5417C17.9954 19.5202 17.769 19.1284 17.0757 19.0865C16.4248 19.0445 15.7456 19.0165 15.0947 19.1144C14.8117 19.1564 14.3731 19.4643 14.3306 19.6882C14.1184 21.0175 14.1608 21.8151 15.7315 21.6752C15.8447 21.6612 15.972 21.6752 16.0852 21.6612ZM11.0479 13.0135C11.3026 13.0135 11.5715 13.0135 11.8261 13.0135C12.6044 12.9995 12.8874 12.7336 12.9015 11.964C12.9015 11.7541 12.9015 11.5442 12.9015 11.3343C12.8732 10.7746 12.5761 10.4668 12.0242 10.4528C11.3592 10.4388 10.6942 10.3828 10.0433 10.4808C9.74614 10.5227 9.3358 10.8446 9.2509 11.1104C8.85471 12.4258 9.32165 12.9995 10.6942 12.9995C10.8074 13.0135 10.9206 13.0135 11.0479 13.0135ZM11.0196 18.065C11.3026 18.065 11.5856 18.065 11.8686 18.065C12.6044 18.037 12.8732 17.7711 12.8874 17.0435C12.8874 16.8336 12.8874 16.6237 12.8874 16.4138C12.8732 15.8541 12.5902 15.5322 12.0242 15.5182C11.3592 15.5042 10.6942 15.4623 10.0433 15.5462C9.76029 15.5882 9.3641 15.8401 9.2509 16.1059C8.75567 17.3373 9.3075 18.079 10.6517 18.079C10.7932 18.065 10.9064 18.065 11.0196 18.065ZM5.95403 25.2434C6.23702 25.2434 6.52002 25.2574 6.80301 25.2434C7.55294 25.2154 7.82179 24.9635 7.85009 24.2219C7.86424 23.984 7.86423 23.7601 7.83594 23.5222C7.79349 22.9625 7.48219 22.6687 6.91621 22.6687C6.30777 22.6547 5.68518 22.5987 5.07675 22.6967C4.7513 22.7526 4.25606 23.0605 4.19946 23.3123C3.95892 24.6277 4.08627 25.3693 5.58614 25.2434C5.72763 25.2434 5.84083 25.2434 5.95403 25.2434ZM16.0711 22.6687C15.8305 22.6687 15.6041 22.6687 15.3636 22.6687C14.5429 22.6827 14.274 22.9485 14.2599 23.7601C14.2599 23.942 14.2599 24.1379 14.2599 24.3198C14.274 24.9075 14.5995 25.2294 15.1796 25.2434C15.7881 25.2574 16.4106 25.3133 17.0049 25.2154C17.3304 25.1594 17.769 24.8796 17.8822 24.5857C18.335 23.3683 17.7832 22.6687 16.4814 22.6687C16.354 22.6687 16.2126 22.6687 16.0711 22.6687ZM5.99648 13.0135C6.25117 13.0135 6.52001 13.0135 6.77471 13.0135C7.55294 12.9995 7.82179 12.7336 7.85009 11.964C7.86424 11.7541 7.86424 11.5442 7.85009 11.3343C7.82179 10.7886 7.52464 10.4668 6.95865 10.4528C6.32192 10.4388 5.68518 10.4388 5.04845 10.4528C4.48246 10.4668 4.19947 10.7886 4.14287 11.3203C3.98722 12.6497 4.31266 13.0135 5.64273 13.0135C5.75593 13.0135 5.88328 13.0135 5.99648 13.0135ZM16.0428 13.0135C16.3965 13.0135 16.7502 13.0275 17.104 12.9995C17.7266 12.9435 17.9671 12.5937 17.9671 11.7261C17.9671 10.8446 17.7549 10.4948 17.1181 10.4528C16.4389 10.4108 15.7456 10.3968 15.0664 10.4668C14.7976 10.4948 14.4297 10.7466 14.3306 10.9985C13.8213 12.2159 14.3872 12.9995 15.689 12.9995C15.8164 13.0135 15.9296 13.0135 16.0428 13.0135ZM21.1225 13.0135C21.3772 13.0135 21.646 13.0135 21.9007 13.0135C22.6931 12.9995 22.962 12.7476 22.9903 11.964C23.0044 11.7541 22.9903 11.5442 22.9903 11.3343C22.962 10.7886 22.679 10.4528 22.113 10.4528C21.4479 10.4388 20.7829 10.3828 20.1462 10.4808C19.8349 10.5367 19.4245 10.8866 19.3396 11.1804C18.9859 12.4538 19.4528 13.0135 20.7829 13.0135C20.8961 13.0135 21.0093 13.0135 21.1225 13.0135ZM5.99648 18.065C6.25117 18.065 6.52001 18.065 6.77471 18.065C7.55294 18.051 7.82179 17.7851 7.85009 17.0155C7.85009 16.8336 7.85009 16.6377 7.85009 16.4558C7.83594 15.8401 7.52464 15.5042 6.8879 15.5042C6.39267 15.5042 5.89743 15.5042 5.40219 15.5042C4.39756 15.5042 4.14287 15.7561 4.14287 16.7356C4.14287 17.8411 4.36926 18.065 5.51539 18.065C5.67103 18.065 5.84083 18.065 5.99648 18.065ZM16.0852 15.5042C15.8305 15.5042 15.5617 15.5042 15.307 15.5042C14.5429 15.5182 14.2882 15.7701 14.2599 16.4978C14.2457 16.7356 14.2457 16.9595 14.2599 17.1974C14.3023 17.7431 14.5995 18.051 15.1655 18.065C15.7032 18.079 16.255 18.079 16.7927 18.065C17.6841 18.051 17.953 17.7851 17.9671 16.8896C17.9813 15.7281 17.769 15.5042 16.5804 15.5042C16.4106 15.5042 16.255 15.5042 16.0852 15.5042ZM21.0942 18.065C21.3772 18.065 21.6602 18.065 21.9432 18.065C22.679 18.051 22.962 17.7851 22.9903 17.0575C23.0044 16.8196 23.0044 16.5957 22.9903 16.3578C22.9478 15.8401 22.679 15.5322 22.1413 15.5182C21.4762 15.5042 20.8112 15.4483 20.1745 15.5462C19.8632 15.6022 19.4387 15.924 19.3396 16.2179C18.9576 17.4773 19.4387 18.079 20.7546 18.079C20.8678 18.065 20.981 18.065 21.0942 18.065ZM11.1045 25.2434V25.2294C11.43 25.2294 11.7978 25.3133 12.0808 25.2014C12.3921 25.0755 12.7317 24.8096 12.8449 24.5297C12.9723 24.1799 12.9723 23.7181 12.8449 23.3683C12.7459 23.0885 12.4204 22.7386 12.1516 22.7106C11.43 22.6127 10.68 22.6127 9.97254 22.7106C9.68955 22.7526 9.26505 23.1444 9.2509 23.4103C9.15186 24.6277 9.01036 25.3553 10.7508 25.2574C10.864 25.2434 10.9913 25.2434 11.1045 25.2434Z" fill="#999999"/>
</svg>
