<svg width="55" height="55" viewBox="0 0 55 55" fill="none" xmlns="http://www.w3.org/2000/svg">
<path fill-rule="evenodd" clip-rule="evenodd" d="M3.79102 32.8221C5.51942 45.351 16.27 54.9997 29.2741 54.9997C43.4821 54.9997 54.9999 43.4819 54.9999 29.274C54.9999 16.27 45.3513 5.51956 32.8226 3.79102V32.8221H3.79102Z" fill="white"/>
<mask id="path-2-inside-1" fill="white">
<path fill-rule="evenodd" clip-rule="evenodd" d="M28.3871 0.135983V28.387H0.135984C0.0460723 27.5121 0 26.6243 0 25.7257C0 11.5178 11.5178 0 25.7258 0C26.6244 0 27.5122 0.0460722 28.3871 0.135983Z"/>
</mask>
<path d="M28.3871 0.135983H34.3871V-5.27898L29.0005 -5.83258L28.3871 0.135983ZM28.3871 28.387V34.387H34.3871V28.387H28.3871ZM0.135984 28.387L-5.83258 29.0004L-5.27898 34.387H0.135984V28.387ZM22.3871 0.135983V28.387H34.3871V0.135983H22.3871ZM28.3871 22.387H0.135984V34.387H28.3871V22.387ZM6.10454 27.7736C6.03554 27.1022 6 26.4191 6 25.7257H-6C-6 26.8295 -5.9434 27.9221 -5.83258 29.0004L6.10454 27.7736ZM6 25.7257C6 14.8315 14.8315 6 25.7258 6V-6C8.20413 -6 -6 8.20406 -6 25.7257H6ZM25.7258 6C26.4192 6 27.1023 6.03554 27.7737 6.10454L29.0005 -5.83258C27.9222 -5.9434 26.8296 -6 25.7258 -6V6Z" fill="white" mask="url(#path-2-inside-1)"/>
</svg>
