<svg width="28" height="28" viewBox="0 0 28 28" fill="none" xmlns="http://www.w3.org/2000/svg">
<path d="M7 0.875H2.625V2.1875H7.65625L7 0.875Z" fill="#F58220"/>
<path d="M20.5625 10.9375H21.4375V11.8125H20.5625V10.9375Z" fill="#F58220"/>
<path d="M20.5625 7.4375H21.4375V8.3125H20.5625V7.4375Z" fill="#F58220"/>
<path d="M20.5625 9.1875H21.4375V10.0625H20.5625V9.1875Z" fill="#F58220"/>
<path d="M20.5625 12.6875H21.4375V13.5625H20.5625V12.6875Z" fill="#F58220"/>
<path d="M18.8125 10.9375H19.6875V11.8125H18.8125V10.9375Z" fill="#F58220"/>
<path d="M18.8125 9.1875H19.6875V10.0625H18.8125V9.1875Z" fill="#F58220"/>
<path d="M19.6876 6.94531C19.4522 7.39463 19.2286 7.84963 19.0234 8.31425H19.6876V6.94531Z" fill="#F58220"/>
<path d="M20.5625 14.4375H21.4375V15.3125H20.5625V14.4375Z" fill="#F58220"/>
<path d="M22.3125 6.94531V8.31425H22.9766C22.7714 7.84963 22.5479 7.39419 22.3125 6.94531Z" fill="#F58220"/>
<path d="M24.0625 11.3359V13.5606H24.5779C24.444 12.8112 24.2703 12.0692 24.0625 11.3359Z" fill="#F58220"/>
<path d="M21.4375 5.79075C21.301 5.72906 21.1544 5.6875 21 5.6875C20.8456 5.6875 20.699 5.72906 20.5625 5.79075V6.5625H21.4375V5.79075Z" fill="#F58220"/>
<path d="M24.7205 14.4375H24.0625V15.3125H24.8185C24.7896 15.0203 24.7608 14.7284 24.7205 14.4375V14.4375Z" fill="#F58220"/>
<path d="M8.3125 17.0625C8.3125 17.5451 8.70494 17.9375 9.1875 17.9375H25.8125C26.2951 17.9375 26.6875 17.5451 26.6875 17.0625C26.6875 16.5799 26.2951 16.1875 25.8125 16.1875H9.1875C8.70494 16.1875 8.3125 16.5799 8.3125 17.0625Z" fill="#F58220"/>
<path d="M18.8125 12.6875H19.6875V13.5625H18.8125V12.6875Z" fill="#F58220"/>
<path d="M22.3125 9.1875H23.1875V10.0625H22.3125V9.1875Z" fill="#F58220"/>
<path d="M22.3125 14.4375H23.1875V15.3125H22.3125V14.4375Z" fill="#F58220"/>
<path d="M22.3125 12.6875H23.1875V13.5625H22.3125V12.6875Z" fill="#F58220"/>
<path d="M22.3125 10.9375H23.1875V11.8125H22.3125V10.9375Z" fill="#F58220"/>
<path d="M1.3125 3.0625H15.3125V3.9375H1.3125V3.0625Z" fill="#F58220"/>
<path d="M9.37388 12.6875H1.3125V13.5625H9.20981C9.23694 13.2619 9.29381 12.9697 9.37388 12.6875Z" fill="#F58220"/>
<path d="M1.3125 23.1875H7.574C7.58931 23.1328 7.59675 23.0768 7.61469 23.023L7.85137 22.3125H1.3125V23.1875Z" fill="#F58220"/>
<path d="M7.4375 17.0625C7.4375 16.0974 8.22238 15.3125 9.1875 15.3125H9.37388C9.29294 15.0268 9.23606 14.735 9.20938 14.4375H2.1875V21.4375H8.14319L9.02388 18.7959C8.13619 18.7119 7.4375 17.9712 7.4375 17.0625V17.0625Z" fill="#F58220"/>
<path d="M25.0604 18.8125H9.94044L8.44463 23.2999C8.35713 23.5629 8.3125 23.8363 8.3125 24.1137C8.31294 25.5329 9.4675 26.6875 10.8867 26.6875H24.1141C25.5334 26.6875 26.6879 25.5329 26.6879 24.1137C26.6879 23.8363 26.6433 23.5624 26.5558 23.2999L25.0604 18.8125ZM10.1058 23.8529C10.0966 23.8796 10.0892 23.9072 10.0831 23.9348L9.22862 23.7449C9.24131 23.688 9.25662 23.632 9.275 23.5769L9.51037 22.8694L10.3407 23.1459L10.1058 23.8529ZM10.6177 22.316L9.78819 22.0391L10.0651 21.2091L10.8946 21.4861L10.6177 22.316ZM11.1707 20.6561L10.3412 20.3792L10.6181 19.5492L11.4476 19.8262L11.1707 20.6561ZM19.2504 25.8125H18.3754V24.9375H19.2504V25.8125ZM21.0004 25.8125H20.1254V24.9375H21.0004V25.8125ZM24.1141 25.8125H21.8754V24.9375H24.1141C24.5683 24.9375 24.9379 24.5678 24.9379 24.1137C24.9379 24.0253 24.9239 23.9378 24.8959 23.8542L24.5739 22.8883L25.4043 22.6117L25.7259 23.5777C25.7841 23.7506 25.8129 23.9308 25.8129 24.1137C25.8129 25.0504 25.0508 25.8125 24.1141 25.8125V25.8125Z" fill="#F58220"/>
<path d="M17.9373 11.3359C17.7294 12.0692 17.5558 12.8112 17.4219 13.5606H17.9373V11.3359Z" fill="#F58220"/>
<path d="M14 9.1875C14.1474 9.1875 14.2927 9.19931 14.4375 9.21244V4.8125H2.1875V11.8125H9.71863C10.5171 10.2568 12.1345 9.1875 14 9.1875Z" fill="#F58220"/>
<path d="M18.8125 14.4375H19.6875V15.3125H18.8125V14.4375Z" fill="#F58220"/>
<path d="M17.9371 14.4375H17.2791C17.2389 14.7284 17.21 15.0203 17.1807 15.3125H17.9371V14.4375Z" fill="#F58220"/>
<path d="M10.0625 14C10.0625 14.4528 10.1421 14.8925 10.2909 15.3125H16.3017C16.4259 14.0123 16.6591 12.7212 16.9969 11.4559C16.2466 10.5709 15.1681 10.0625 14 10.0625C11.8287 10.0625 10.0625 11.8291 10.0625 14V14ZM14.875 11.375H15.75C15.75 12.1109 14.9813 12.6875 14 12.6875C13.0187 12.6875 12.25 12.1109 12.25 11.375H13.125C13.125 11.5535 13.4658 11.8125 14 11.8125C14.5342 11.8125 14.875 11.5535 14.875 11.375Z" fill="#F58220"/>
</svg>
