<svg width="28" height="28" viewBox="0 0 28 28" fill="none" xmlns="http://www.w3.org/2000/svg">
<g clip-path="url(#clip0)">
<path d="M12.3376 9.42468C12.4764 7.91626 13.0114 6.5234 13.8377 5.34562C13.1657 2.29243 10.4414 0 7.19039 0C3.4372 0 0.382812 3.05438 0.382812 6.80877C0.382812 10.0758 2.69668 12.8109 5.77192 13.4656C7.31907 11.3573 9.65141 9.86732 12.3376 9.42468ZM4.46724 8.42919C4.46724 8.18136 4.65728 7.99013 4.90571 7.99013H6.30273V7.66366L6.11149 7.33719H4.90511C4.65668 7.33719 4.46664 7.14596 4.46664 6.89813C4.46664 6.6503 4.65668 6.45906 4.90511 6.45906H5.592L4.10622 4.01651C4.02758 3.88128 3.94894 3.71268 3.94894 3.55481C3.94894 2.93583 4.52324 2.73328 4.91643 2.73328C5.38945 2.73328 5.60332 3.10502 5.68256 3.2623L7.19098 6.13319L8.69822 3.2623C8.77864 3.10502 8.99132 2.73328 9.46315 2.73328C9.85754 2.73328 10.4312 2.93643 10.4312 3.55481C10.4312 3.71268 10.3526 3.88128 10.2746 4.01592L8.78817 6.45906H9.47447C9.72171 6.45906 9.91294 6.6503 9.91294 6.89813C9.91294 7.14596 9.72171 7.33719 9.47447 7.33719H8.27047L8.07924 7.66366V7.99013H9.47507C9.7223 7.99013 9.91354 8.18136 9.91354 8.42919C9.91354 8.67702 9.7223 8.86826 9.47507 8.86826H8.07924V9.9823C8.07924 10.5226 7.75217 10.8831 7.19098 10.8831C6.628 10.8831 6.30213 10.5226 6.30213 9.9823V8.86826H4.90511C4.65668 8.86826 4.46724 8.67702 4.46724 8.42919Z" fill="#999999"/>
<path d="M20.8086 3.40625C17.3717 3.40625 14.5288 5.96914 14.0713 9.28268C15.3706 9.29221 16.6086 9.54897 17.75 10.0017C17.8257 9.82778 17.9818 9.71876 18.2248 9.71876H18.4607C18.2248 9.38097 18.1235 8.95323 18.1235 8.51416C18.1235 7.11893 19.3615 6.13953 20.9486 6.13953C22.9205 6.13953 23.8761 7.19757 23.8761 8.0757C23.8761 8.58268 23.5269 8.86387 23.0313 8.86387C22.0412 8.86387 22.6482 7.49068 21.1291 7.49068C20.4654 7.49068 19.8351 7.88506 19.8351 8.61604C19.8351 8.9991 20.0258 9.38157 20.2063 9.71936H21.4335C21.8946 9.71936 22.1317 9.88855 22.1317 10.2597C22.1317 10.6308 21.8952 10.7994 21.4335 10.7994H20.5435C20.578 10.89 20.6012 10.9686 20.6012 11.0699C20.6012 11.2516 20.556 11.4315 20.4857 11.6073C20.8538 11.9111 21.1934 12.2483 21.5157 12.6004C21.8279 12.6635 22.1061 12.7362 22.4361 12.7362C22.6262 12.7362 23.0903 12.6123 23.2684 12.6123C23.6842 12.6123 23.9213 12.9274 23.9213 13.332C23.9213 13.967 23.353 14.2428 22.7674 14.281C23.1558 14.9333 23.4793 15.6268 23.7182 16.3601C26.0184 15.2669 27.6173 12.9268 27.6173 10.2138C27.6161 6.46063 24.5618 3.40625 20.8086 3.40625Z" fill="#999999"/>
<path d="M14.4502 20.3008V23.0865C15.2932 23.0305 16.1808 22.6367 16.1808 21.7079C16.1808 20.7506 15.208 20.4694 14.4502 20.3008Z" fill="#999999"/>
<path d="M12.0293 16.9658C12.0293 17.6706 12.5506 18.0769 13.605 18.2889V15.7695C12.6471 15.7987 12.0293 16.3605 12.0293 16.9658Z" fill="#999999"/>
<path d="M13.9997 10.9805C9.307 10.9805 5.48828 14.7986 5.48828 19.4913C5.48828 24.184 9.307 28.0015 13.9997 28.0015C18.6924 28.0015 22.5117 24.1846 22.5117 19.4913C22.5117 14.798 18.6924 10.9805 13.9997 10.9805ZM14.4507 24.5235V25.3963C14.4507 25.6358 14.266 25.8747 14.0271 25.8747C13.7882 25.8747 13.6053 25.6364 13.6053 25.3963V24.5235C11.2283 24.4675 10.0451 23.0461 10.0451 21.9332C10.0451 21.372 10.3823 21.048 10.9173 21.048C12.493 21.048 11.2682 22.9901 13.6053 23.0884V20.1472C11.5214 19.7677 10.2572 18.8532 10.2572 17.2906C10.2572 15.3777 11.8467 14.3923 13.6053 14.3363V13.5869C13.6053 13.3468 13.7882 13.1079 14.0271 13.1079C14.266 13.1079 14.4507 13.3468 14.4507 13.5869V14.3363C15.5462 14.3655 17.7976 15.053 17.7976 16.4333C17.7976 16.982 17.3889 17.3043 16.9111 17.3043C15.9966 17.3043 16.0091 15.8006 14.4513 15.7714V18.4446C16.3088 18.8389 17.9536 19.387 17.9536 21.5555C17.9536 23.4405 16.5453 24.3978 14.4507 24.5235Z" fill="#999999"/>
</g>
<defs>
<clipPath id="clip0">
<rect width="28" height="28" fill="white"/>
</clipPath>
</defs>
</svg>
