<svg width="28" height="28" viewBox="0 0 28 28" fill="none" xmlns="http://www.w3.org/2000/svg">
<path d="M14.0653 2.24657C17.7402 2.24657 21.3964 2.24657 25.0713 2.24657C27.0113 2.24657 28 3.23525 28 5.17529C28 10.0813 28 14.9874 28 19.8935C28 21.6843 27.1046 22.5983 25.3138 22.5983C22.6649 22.617 20.0346 22.5983 17.3857 22.617C17.1246 22.617 16.7702 22.4678 16.6396 22.8035C16.509 23.1393 16.7515 23.4005 16.9567 23.6243C17.3671 24.072 17.9454 24.2586 18.4863 24.4824C18.9527 24.6876 19.3071 24.9488 19.2139 25.5084C19.1019 26.1053 18.6915 26.3105 18.1319 26.3105C15.3711 26.3105 12.6103 26.3105 9.83078 26.3105C9.27115 26.3105 8.86076 26.0867 8.76749 25.4897C8.67422 24.9115 9.02865 24.6503 9.495 24.4638C10.036 24.2399 10.6143 24.0534 11.0247 23.6057C11.2298 23.3818 11.4724 23.102 11.3418 22.7849C11.2112 22.4491 10.8568 22.5983 10.5956 22.5983C8.02132 22.5797 5.44704 22.5983 2.8541 22.5983C0.82079 22.5983 0 21.7589 0 19.6883C0 14.8195 0 9.93211 0 5.06336C0 3.14197 0.858093 2.26523 2.77948 2.24657C6.54763 2.22792 10.3158 2.24657 14.0653 2.24657ZM14.0093 21.162C17.6096 21.162 21.2285 21.162 24.8288 21.162C26.0973 21.162 26.5263 20.7516 26.5263 19.5017C26.5263 14.8009 26.5263 10.1187 26.5263 5.41779C26.5263 4.13065 26.0973 3.7016 24.7728 3.7016C17.5909 3.7016 10.4091 3.7016 3.22719 3.7016C1.90273 3.7016 1.49234 4.112 1.49234 5.41779C1.49234 10.0813 1.49234 14.7449 1.49234 19.4085C1.49234 20.7702 1.88408 21.162 3.28315 21.162C6.86476 21.162 10.4277 21.162 14.0093 21.162Z" fill="#999999"/>
<path d="M11.0619 9.55849C11.0619 11.6851 9.40172 13.364 7.29379 13.364C5.18586 13.364 3.52563 11.6851 3.52563 9.55849C3.52563 7.45056 5.20452 5.75303 7.29379 5.73438C9.38306 5.75303 11.0619 7.45056 11.0619 9.55849ZM6.99532 12.4686C8.35708 12.4686 9.06595 12.0022 9.66288 11.2747C9.96135 10.9016 10.639 9.61093 10.0794 9.51766C8.11938 9.51766 7.29379 9.55849 7.29379 9.55849C7.29379 6.7417 7.14456 6.62978 6.65955 6.7417C5.22317 7.09613 4.25315 8.45789 4.4397 9.93158C4.60758 11.4053 5.83876 12.4872 6.99532 12.4686Z" fill="#999999"/>
<path d="M24.4931 12.6563C24.4931 14.4844 24.4557 16.3125 24.5117 18.1593C24.549 18.9987 24.0454 18.8681 23.5604 18.8495C23.094 18.8495 22.5717 19.036 22.5903 18.1779C22.6276 14.4844 22.6276 10.7909 22.5903 7.09733C22.5903 6.31385 23.0567 6.44443 23.4857 6.46308C23.8961 6.50039 24.5304 6.14596 24.4931 7.06002C24.4558 8.92544 24.4931 10.7909 24.4931 12.6563Z" fill="#999999"/>
<path d="M16.8448 14.184C16.8448 12.8782 16.8821 11.5724 16.8262 10.2666C16.7889 9.38982 17.3858 9.63232 17.8149 9.63232C18.2439 9.63232 18.8222 9.38982 18.8035 10.2666C18.7662 12.9155 18.7662 15.5457 18.8035 18.1946C18.8222 19.0527 18.2626 18.8475 17.8149 18.8475C17.3672 18.8475 16.7889 19.0527 16.8262 18.1946C16.8821 16.8702 16.8448 15.5271 16.8448 14.184Z" fill="#999999"/>
<path d="M21.6576 15.1743C21.6576 16.2003 21.6203 17.2263 21.6763 18.2523C21.7136 18.9798 21.2472 18.9052 20.8368 18.8492C20.4451 18.7933 19.7549 19.2223 19.7549 18.3083C19.7549 16.2563 19.7735 14.2043 19.7549 12.1524C19.7549 11.1823 20.4637 11.63 20.8928 11.5554C21.3591 11.4622 21.7322 11.5368 21.6949 12.2083C21.6017 13.1783 21.6576 14.167 21.6576 15.1743Z" fill="#999999"/>
<path d="M15.8934 16.947C15.8934 17.2641 15.8561 17.5812 15.8934 17.8797C16.0053 18.6259 15.7441 18.887 14.9607 18.887C14.1958 18.887 13.916 18.6818 13.9906 17.8984C14.0653 17.1335 14.0279 16.3501 13.9906 15.5852C13.9533 14.8018 14.5316 15.0443 14.886 15.0816C15.2591 15.1189 15.912 14.7085 15.8934 15.5666C15.8747 16.0143 15.8934 16.4806 15.8934 16.947Z" fill="#999999"/>
<path d="M7.38706 16.5338C6.30512 16.5338 5.22317 16.5338 4.12257 16.5338C3.80545 16.5338 3.52563 16.5524 3.52563 16.0674C3.52563 15.5824 3.74949 15.5078 4.14123 15.5078C6.24916 15.5265 8.35708 15.5265 10.465 15.5078C10.8941 15.5078 11.0806 15.6197 11.0806 16.0861C11.0806 16.5898 10.7635 16.5151 10.4464 16.5151C9.43903 16.5338 8.41304 16.5338 7.38706 16.5338Z" fill="#999999"/>
<path d="M7.20057 18.8472C6.17459 18.8472 5.1486 18.8285 4.12262 18.8472C3.69357 18.8472 3.50703 18.7352 3.52568 18.2689C3.52568 17.7652 3.84281 17.8398 4.14128 17.8398C6.2492 17.8398 8.35713 17.8398 10.4651 17.8398C10.7822 17.8398 11.062 17.8212 11.0806 18.3062C11.0806 18.7912 10.8568 18.8658 10.4464 18.8658C9.36446 18.8285 8.28251 18.8472 7.20057 18.8472Z" fill="#999999"/>
</svg>
