<svg width="28" height="28" viewBox="0 0 28 28" fill="none" xmlns="http://www.w3.org/2000/svg">
<path d="M14.0653 2.24853C17.7402 2.24853 21.3964 2.24853 25.0713 2.24853C27.0113 2.24853 28 3.2372 28 5.17724C28 10.0833 28 14.9894 28 19.8954C28 21.6862 27.1046 22.6003 25.3138 22.6003C22.6649 22.6189 20.0346 22.6003 17.3857 22.6189C17.1246 22.6189 16.7702 22.4697 16.6396 22.8055C16.509 23.1413 16.7515 23.4024 16.9567 23.6263C17.3671 24.074 17.9454 24.2605 18.4863 24.4844C18.9527 24.6896 19.3071 24.9507 19.2139 25.5103C19.1019 26.1073 18.6915 26.3125 18.1319 26.3125C15.3711 26.3125 12.6103 26.3125 9.83078 26.3125C9.27115 26.3125 8.86076 26.0886 8.76749 25.4917C8.67422 24.9134 9.02865 24.6523 9.495 24.4657C10.036 24.2419 10.6143 24.0553 11.0247 23.6076C11.2298 23.3838 11.4724 23.104 11.3418 22.7868C11.2112 22.4511 10.8568 22.6003 10.5956 22.6003C8.02132 22.5816 5.44704 22.6003 2.8541 22.6003C0.82079 22.6003 0 21.7608 0 19.6902C0 14.8215 0 9.93407 0 5.06531C0 3.14393 0.858093 2.26718 2.77948 2.24853C6.54763 2.22987 10.3158 2.24853 14.0653 2.24853ZM14.0093 21.1639C17.6096 21.1639 21.2285 21.1639 24.8288 21.1639C26.0973 21.1639 26.5263 20.7535 26.5263 19.5037C26.5263 14.8028 26.5263 10.1206 26.5263 5.41974C26.5263 4.1326 26.0973 3.70355 24.7728 3.70355C17.5909 3.70355 10.4091 3.70355 3.22719 3.70355C1.90273 3.70355 1.49234 4.11395 1.49234 5.41974C1.49234 10.0833 1.49234 14.7469 1.49234 19.4104C1.49234 20.7722 1.88408 21.1639 3.28315 21.1639C6.86476 21.1639 10.4277 21.1639 14.0093 21.1639Z" fill="#F58220"/>
<path d="M11.0622 9.56142C11.0622 11.688 9.40196 13.3669 7.29404 13.3669C5.18611 13.3669 3.52588 11.688 3.52588 9.56142C3.52588 7.45349 5.20476 5.75596 7.29404 5.7373C9.38331 5.75596 11.0622 7.45349 11.0622 9.56142ZM6.99557 12.4715C8.35733 12.4715 9.06619 12.0051 9.66312 11.2776C9.96159 10.9045 10.6393 9.61386 10.0796 9.52059C8.11963 9.52059 7.29404 9.56142 7.29404 9.56142C7.29404 6.74463 7.1448 6.63271 6.65979 6.74463C5.22342 7.09906 4.2534 8.46082 4.43994 9.93451C4.60783 11.4082 5.839 12.4901 6.99557 12.4715Z" fill="#F58220"/>
<path d="M24.4931 12.6582C24.4931 14.4864 24.4557 16.3145 24.5117 18.1612C24.549 19.0007 24.0454 18.8701 23.5604 18.8514C23.094 18.8514 22.5717 19.038 22.5903 18.1799C22.6276 14.4864 22.6276 10.7928 22.5903 7.09928C22.5903 6.3158 23.0567 6.44638 23.4857 6.46503C23.8961 6.50234 24.5304 6.14791 24.4931 7.06197C24.4558 8.92739 24.4931 10.7928 24.4931 12.6582Z" fill="#F58220"/>
<path d="M16.8451 14.1869C16.8451 12.8811 16.8824 11.5753 16.8264 10.2695C16.7891 9.39275 17.386 9.63525 17.8151 9.63525C18.2441 9.63525 18.8224 9.39275 18.8038 10.2695C18.7665 12.9184 18.7665 15.5486 18.8038 18.1975C18.8224 19.0556 18.2628 18.8504 17.8151 18.8504C17.3674 18.8504 16.7891 19.0556 16.8264 18.1975C16.8824 16.8731 16.8451 15.53 16.8451 14.1869Z" fill="#F58220"/>
<path d="M21.6576 15.1753C21.6576 16.2013 21.6203 17.2273 21.6763 18.2533C21.7136 18.9808 21.2472 18.9062 20.8368 18.8502C20.4451 18.7942 19.7549 19.2233 19.7549 18.3092C19.7549 16.2573 19.7735 14.2053 19.7549 12.1533C19.7549 11.1833 20.4637 11.631 20.8928 11.5564C21.3591 11.4631 21.7322 11.5378 21.6949 12.2093C21.6017 13.1793 21.6576 14.168 21.6576 15.1753Z" fill="#F58220"/>
<path d="M15.8934 16.947C15.8934 17.2641 15.8561 17.5812 15.8934 17.8797C16.0053 18.6259 15.7441 18.887 14.9607 18.887C14.1958 18.887 13.916 18.6818 13.9906 17.8984C14.0653 17.1335 14.0279 16.3501 13.9906 15.5852C13.9533 14.8018 14.5316 15.0443 14.886 15.0816C15.2591 15.1189 15.912 14.7085 15.8934 15.5666C15.8747 16.0143 15.8934 16.4806 15.8934 16.947Z" fill="#F58220"/>
<path d="M7.38731 16.5377C6.30536 16.5377 5.22342 16.5377 4.12282 16.5377C3.80569 16.5377 3.52588 16.5564 3.52588 16.0713C3.52588 15.5863 3.74973 15.5117 4.14147 15.5117C6.2494 15.5304 8.35733 15.5304 10.4653 15.5117C10.8943 15.5117 11.0808 15.6236 11.0808 16.09C11.0808 16.5937 10.7637 16.519 10.4466 16.519C9.43927 16.5377 8.41329 16.5377 7.38731 16.5377Z" fill="#F58220"/>
<path d="M7.20057 18.8511C6.17459 18.8511 5.1486 18.8324 4.12262 18.8511C3.69357 18.8511 3.50703 18.7391 3.52568 18.2728C3.52568 17.7691 3.84281 17.8437 4.14128 17.8437C6.2492 17.8437 8.35713 17.8437 10.4651 17.8437C10.7822 17.8437 11.062 17.8251 11.0806 18.3101C11.0806 18.7951 10.8568 18.8697 10.4464 18.8697C9.36446 18.8324 8.28251 18.8511 7.20057 18.8511Z" fill="#F58220"/>
</svg>
