<svg width="28" height="31" viewBox="0 0 28 31" fill="none" xmlns="http://www.w3.org/2000/svg">
<path fill-rule="evenodd" clip-rule="evenodd" d="M1.11278 3.36862H26.7066C27.263 3.36862 27.5412 3.93007 27.5412 4.49152C27.5412 5.05297 26.9848 5.61442 26.4284 5.61442H25.5939L24.7593 28.0724C24.7593 29.7567 23.6465 30.8796 21.9773 30.8796H5.56388C4.17291 30.8796 2.78194 29.7567 2.78194 28.0724L1.94736 5.61442H1.11278C0.556389 5.61442 0 5.05297 0 4.49152C0 3.93007 0.556389 3.36862 1.11278 3.36862ZM6.16824 10.7749L7.39778 27.1464L9.6048 26.9655L8.37525 10.594L6.16824 10.7749ZM12.9092 26.8633L13.2164 8.23792L15.4308 8.2594L15.1236 26.8848L12.9092 26.8633ZM17.9359 26.7609L19.0061 10.38L21.215 10.5429L20.1448 26.9238L17.9359 26.7609Z" fill="#767A80"/>
<path d="M10.5713 2.2458H17.8043C18.6389 2.2458 18.9171 1.68435 18.9171 1.1229C18.9171 0.842173 18.9171 0.561449 18.6389 0.280725C18.3607 2.71903e-07 18.0825 5.35439e-07 17.8043 5.35439e-07H10.5713C9.73669 5.35439e-07 9.4585 0.561448 9.4585 1.1229C9.4585 1.40362 9.4585 1.68435 9.73669 1.96507C10.0149 1.96507 10.2931 2.2458 10.5713 2.2458Z" fill="#767A80"/>
</svg>
