<svg width="53" height="41" viewBox="0 0 53 41" fill="none" xmlns="http://www.w3.org/2000/svg">
<path d="M52.5671 25.1524C52.5671 28.4678 52.4861 31.8103 52.594 35.1257C52.648 37.0664 51.8119 38.3603 50.1127 39.0341C45.2579 40.9479 40.4031 41.1097 35.6832 38.549C35.1438 38.2525 34.8201 38.2525 34.2537 38.549C29.3989 41.1097 24.4363 41.0558 19.5006 38.8455C18.7184 38.4951 18.2329 38.4951 17.4508 38.8724C12.6769 41.1366 7.84908 41.1905 3.02126 39.0072C1.56483 38.3603 0.917522 37.1473 0.971464 35.53C1.02541 34.2362 1.07935 32.9154 0.944491 31.6216C0.755694 29.7347 1.64574 28.6026 3.21006 27.9018C7.33663 26.0689 11.5711 26.0689 15.8325 27.3357C17.4508 27.8209 17.5047 27.8748 17.4508 26.2576C17.3968 24.1281 18.5566 22.9152 20.3906 22.2143C24.4902 20.6509 28.6437 20.624 32.7703 21.9987C34.1458 22.4569 34.1458 22.5108 34.1458 21.0014C34.1458 19.0606 34.1998 17.1468 34.1458 15.2061C34.0919 13.427 34.8201 12.1332 36.4384 11.4324C40.9695 9.41077 45.5816 9.38382 50.1666 11.2437C51.8119 11.9176 52.621 13.1575 52.5671 15.0443C52.4861 18.4137 52.5671 21.783 52.5671 25.1524ZM26.9985 22.8612C24.6251 22.8343 22.4134 23.023 20.3906 24.182C19.096 24.9368 19.069 25.7993 20.4176 26.3923C24.6251 28.2253 28.8595 28.1714 33.067 26.3384C33.5525 26.1228 34.0649 25.8263 34.0649 25.1794C34.0379 24.5594 33.5255 24.2899 33.04 24.0473C31.0981 23.0499 29.0213 22.8073 26.9985 22.8612ZM10.0607 33.0771C11.8138 33.131 13.7018 32.9963 15.4549 32.2415C16.2371 31.9181 17.3698 31.6755 17.3429 30.5973C17.3159 29.6 16.2371 29.4113 15.4819 29.0878C14.6188 28.6835 13.6748 28.5487 12.7308 28.4409C9.71008 28.1444 6.71629 28.1444 3.91131 29.5191C3.39886 29.7617 2.80549 30.0851 2.77852 30.7321C2.75155 31.4329 3.39885 31.6755 3.88433 31.945C5.77231 32.9424 7.8221 33.1041 10.0607 33.0771ZM43.3969 11.8098C41.401 11.7289 39.2703 11.9984 37.3014 12.9958C36.789 13.2653 36.1956 13.5349 36.1687 14.2087C36.1417 14.9096 36.7351 15.2061 37.2745 15.4217C41.3741 17.1199 45.4737 17.066 49.5463 15.3678C50.0857 15.1522 50.6521 14.8017 50.6791 14.1279C50.7061 13.3731 50.0318 13.1305 49.4654 12.834C47.6044 11.9176 45.6085 11.7828 43.3969 11.8098ZM10.0877 38.7646C11.0317 38.7107 11.9756 38.6837 12.8927 38.549C13.6748 38.4411 14.484 38.2255 15.2391 37.956C17.3429 37.2282 17.7205 36.5543 17.4508 34.3171C17.3699 33.6432 17.1271 33.4815 16.5068 33.724C12.1914 35.3413 7.84908 35.4492 3.53371 33.751C3.21006 33.6162 2.88641 33.4545 2.72458 34.0206C2.2391 35.7457 2.85943 37.0934 4.55861 37.8212C6.3387 38.5759 8.1997 38.7376 10.0877 38.7646ZM43.1272 33.0771C45.0152 33.1041 46.7413 32.9693 48.4135 32.4033C50.5442 31.6485 50.9758 30.9477 50.787 28.6835C50.733 27.9827 50.5442 27.8209 49.87 28.0905C45.5546 29.7617 41.2123 29.8156 36.8699 28.1713C36.5193 28.0366 36.2226 27.8748 36.0338 28.4409C35.4944 30.0851 36.1956 31.5946 37.8139 32.2685C39.594 32.9693 41.401 33.131 43.1272 33.0771ZM26.567 33.0502C27.1603 33.0502 27.7267 33.0771 28.3201 33.0502C29.9923 32.9963 31.6106 32.5919 33.094 31.7833C33.957 31.2981 34.6583 29.007 34.038 28.3331C33.4176 27.6592 32.8243 28.6835 32.15 28.7104C31.9342 28.7104 31.7184 28.8452 31.5027 28.8722C27.8076 29.6808 24.1396 29.7617 20.4985 28.4409C20.1479 28.3061 19.6894 27.8748 19.3927 28.6026C18.8533 30.0043 19.5006 31.5677 20.9031 32.1607C22.7101 32.9424 24.6251 33.131 26.567 33.0502ZM43.343 21.9448C44.0712 21.9448 44.7724 21.9987 45.5006 21.9448C47.1189 21.783 48.7102 21.4865 50.0588 20.4892C50.7061 20.031 51.2455 17.8746 50.733 17.2816C50.0857 16.4999 49.5193 17.5781 48.872 17.5781C48.6563 17.5781 48.4405 17.7129 48.2247 17.7668C44.5297 18.6563 40.8616 18.6832 37.2475 17.3894C36.8429 17.2546 36.3305 16.7694 36.0877 17.605C35.6023 19.2223 36.2226 20.5162 37.8139 21.1631C39.594 21.8909 41.455 22.0796 43.343 21.9448ZM50.8139 23.9933C50.8139 22.2682 50.8139 22.2682 49.3575 22.8612C49.0339 22.996 48.6832 23.1038 48.3326 23.2117C44.6106 24.209 40.8886 24.1281 37.2205 22.8882C36.816 22.7534 36.3035 22.2413 36.0608 23.1038C35.6023 24.6942 36.1147 25.988 37.679 26.581C41.482 28.0096 45.3118 27.9288 49.1148 26.5271C50.3285 26.0419 51.0836 25.2333 50.8139 23.9933ZM43.343 38.6837C44.3948 38.5759 45.5276 38.4951 46.6334 38.3333C47.2538 38.2525 47.8471 38.0638 48.4405 37.8481C50.6251 37.0934 51.0027 36.4734 50.8139 34.1553C50.76 33.5354 50.6521 33.3736 50.0048 33.6432C49.1417 33.9936 48.2517 34.3171 47.3347 34.5327C43.8824 35.2605 40.484 35.1527 37.1396 33.9397C36.816 33.8049 36.4114 33.4275 36.1147 33.9936C35.6023 34.9101 36.1956 36.9047 37.1396 37.4169C39.0546 38.4142 41.1853 38.4951 43.343 38.6837ZM33.957 33.4006C32.1769 34.1553 30.4778 34.6405 28.6707 34.8292C25.8118 35.1257 23.0338 34.8831 20.3636 33.8588C19.5275 33.5354 19.3657 33.8319 19.3387 34.5866C19.2578 36.716 19.5006 37.1743 21.5234 37.8481C24.679 38.8994 27.8616 38.8724 31.0711 38.0638C33.9301 37.309 34.3616 36.5813 33.957 33.4006Z" fill="white"/>
<path d="M29.0479 3.64139C27.2409 3.23707 25.4608 2.8597 23.6807 2.45538C23.0334 2.3206 22.1703 2.21278 22.3861 1.26936C22.6018 0.352897 23.4379 0.622445 24.0852 0.730265C26.5126 1.21545 28.9131 1.75455 31.3405 2.23974C32.3923 2.45538 32.7699 2.96752 32.5002 4.04571C31.9338 6.4986 31.4753 8.95149 30.9359 11.4313C30.801 12.0513 30.6662 12.7791 29.8031 12.6443C28.9131 12.4826 29.0749 11.7817 29.1828 11.1348C29.4795 9.67927 29.7761 8.22371 30.0728 6.79511C30.1537 6.41774 30.5044 5.9056 30.1268 5.663C29.6952 5.33954 29.3176 5.87864 28.994 6.12123C22.467 10.4071 15.94 14.7198 9.41301 19.0326C7.2823 20.4343 5.12462 21.8359 2.9939 23.2376C2.42751 23.6149 1.78021 24.154 1.24079 23.3993C0.620452 22.5098 1.5105 22.1324 2.07689 21.755C10.6537 16.0945 19.2305 10.434 27.8342 4.74654C28.2658 4.50395 28.8591 4.36917 29.0479 3.64139Z" fill="white"/>
</svg>
