<svg width="28" height="28" viewBox="0 0 28 28" fill="none" xmlns="http://www.w3.org/2000/svg">
<path d="M1.54492 7.82422C9.84883 7.82422 18.1527 7.82422 26.4566 7.82422C26.4566 11.6155 26.4566 15.4068 26.4566 19.2117C18.1527 19.2117 9.85584 19.2117 1.54492 19.2117C1.54492 15.4204 1.54492 11.6359 1.54492 7.82422ZM5.41961 18.5877C11.1474 18.5877 16.8682 18.5877 22.596 18.5877C22.7504 17.7874 23.1084 17.1092 23.698 16.5395C24.2876 15.9698 24.9966 15.6239 25.8179 15.4747C25.8179 14.1589 25.8179 12.8567 25.8179 11.5545C24.9896 11.4053 24.2876 11.0594 23.698 10.4897C23.1084 9.91995 22.7504 9.23494 22.596 8.44141C16.8612 8.44141 11.1334 8.44141 5.41961 8.44141C5.01248 10.1438 3.9315 11.1747 2.1907 11.5613C2.1907 12.8635 2.1907 14.1657 2.1907 15.4543C3.94554 15.8612 5.01248 16.8922 5.41961 18.5877Z" fill="#999999"/>
<path d="M23.8585 6.10798C23.8585 5.49079 23.8585 4.90751 23.8585 4.31067C23.5145 4.29032 23.1846 4.26998 22.8477 4.26319C20.9595 4.2225 19.0783 4.30389 17.1971 4.46666C15.5265 4.60909 13.8699 4.81934 12.2274 5.14489C11.1324 5.36193 10.0514 5.62644 9.01252 6.01303C8.99146 6.01981 8.97742 6.02659 8.9353 5.99946C9.32839 5.79599 9.71445 5.58574 10.1146 5.40262C11.8905 4.5684 13.7506 3.95799 15.6458 3.42897C17.8709 2.805 20.1312 2.30311 22.4265 1.96399C22.8968 1.89617 23.3671 1.84869 23.8514 1.78765C23.8514 1.20437 23.8514 0.627878 23.8514 0.00390625C25.2483 1.03482 26.6171 2.0386 27.9999 3.06273C26.6241 4.06651 25.2553 5.07707 23.8585 6.10798Z" fill="#999999"/>
<path d="M19.1067 21.0207C18.6715 21.2445 18.2854 21.4548 17.8853 21.6379C16.1094 22.4721 14.2493 23.0826 12.3541 23.6116C10.1289 24.2355 7.8687 24.7374 5.57337 25.0766C5.10307 25.1444 4.63278 25.1918 4.14844 25.2529C4.14844 25.8294 4.14844 26.4127 4.14844 27.0366C2.75159 26.0057 1.38281 25.0019 0 23.9778C1.37579 22.9605 2.74457 21.9567 4.1344 20.9258C4.1344 21.5362 4.1344 22.1127 4.1344 22.7163C4.44325 22.7367 4.73105 22.757 5.01884 22.7638C6.52801 22.8045 8.03717 22.7841 9.54633 22.6553C10.9923 22.5332 12.4453 22.3908 13.8843 22.2009C15.6391 21.9703 17.3659 21.6176 19.0225 21.0072C19.0365 21.014 19.0435 21.014 19.1067 21.0207Z" fill="#999999"/>
<path d="M14.0174 8.87582C16.6918 8.87582 19.3662 8.87582 22.0405 8.87582C22.1809 8.87582 22.2441 8.90973 22.2862 9.04537C22.7635 10.4697 23.7463 11.4124 25.2203 11.8668C25.3467 11.9075 25.3818 11.955 25.3818 12.0703C25.3747 13.0402 25.3747 14.0168 25.3818 14.9867C25.3818 15.0952 25.3467 15.1359 25.2344 15.1698C23.7463 15.631 22.7635 16.5737 22.2792 18.0116C22.2371 18.1404 22.1809 18.1676 22.0546 18.1676C18.0114 18.1676 13.9683 18.1676 9.92513 18.1676C8.60549 18.1676 7.28586 18.1676 5.97324 18.1676C5.82583 18.1676 5.76265 18.1337 5.71352 17.9845C5.2362 16.567 4.26051 15.631 2.79346 15.1698C2.66712 15.1291 2.625 15.0884 2.625 14.9528C2.63202 13.9829 2.63202 13.0198 2.625 12.0499C2.625 11.9346 2.66712 11.8939 2.77943 11.8532C4.26753 11.3921 5.25024 10.4425 5.72756 9.00468C5.76967 8.8826 5.82583 8.85547 5.94516 8.85547C8.63357 8.87582 11.322 8.87582 14.0174 8.87582ZM17.9553 13.5556C17.9342 12.3687 17.5973 11.3174 16.8252 10.4154C15.3511 8.69269 12.9013 8.61809 11.329 10.2594C10.5709 11.0462 10.1778 11.9957 10.0866 13.0605C9.96725 14.4102 10.3182 15.631 11.2307 16.6755C12.7118 18.3643 15.1335 18.405 16.6848 16.784C17.5552 15.8616 17.9272 14.7561 17.9553 13.5556ZM5.13091 14.1592C5.49592 14.166 5.79073 13.8879 5.80477 13.5353C5.81179 13.1758 5.51698 12.8842 5.15197 12.8774C4.78696 12.8706 4.49215 13.1487 4.47811 13.5013C4.47109 13.8608 4.75889 14.1525 5.13091 14.1592ZM22.7776 14.1592C23.1496 14.166 23.4514 13.8812 23.4514 13.5217C23.4514 13.1758 23.1636 12.8842 22.7986 12.8774C22.4336 12.8706 22.1248 13.1622 22.1248 13.5149C22.1178 13.8676 22.4126 14.1525 22.7776 14.1592Z" fill="#999999"/>
<path fill-rule="evenodd" clip-rule="evenodd" d="M11.6026 10.6026C10.8445 11.4369 10.5286 12.4271 10.5076 13.4783C10.5146 14.4889 10.7813 15.3842 11.385 16.1777C12.7608 17.9818 15.2456 17.9818 16.6214 16.1777C17.176 15.4452 17.4567 14.611 17.4918 13.7089C17.5339 12.5424 17.2111 11.4911 16.4038 10.6026C15.0702 9.13766 12.9433 9.13766 11.6026 10.6026ZM14.5147 12.6286H15.0535L15.1795 12.1814H12.8515L12.718 12.6799H13.3828C13.7387 12.6799 13.957 12.8061 14.0377 13.0587H12.8441L12.718 13.5034H14.0476C14.0114 13.6273 13.9389 13.7274 13.8301 13.804C13.7231 13.879 13.5772 13.9164 13.3927 13.9164H12.7674L12.7699 14.2903L14.0279 15.7395H14.7371V15.7077L13.5855 14.3759C13.9166 14.3482 14.1728 14.2634 14.3541 14.1217C14.5353 13.9783 14.6441 13.7723 14.6803 13.5034H15.0535L15.1771 13.0587H14.6778C14.6531 12.8941 14.5988 12.7508 14.5147 12.6286Z" fill="#999999"/>
</svg>
