<svg width="28" height="28" viewBox="0 0 28 28" fill="none" xmlns="http://www.w3.org/2000/svg">
<path d="M1.54492 7.82422C9.84883 7.82422 18.1527 7.82422 26.4566 7.82422C26.4566 11.6155 26.4566 15.4068 26.4566 19.2117C18.1527 19.2117 9.85584 19.2117 1.54492 19.2117C1.54492 15.4204 1.54492 11.6359 1.54492 7.82422ZM5.41961 18.5877C11.1474 18.5877 16.8682 18.5877 22.596 18.5877C22.7504 17.7874 23.1084 17.1092 23.698 16.5395C24.2876 15.9698 24.9966 15.6239 25.8179 15.4747C25.8179 14.1589 25.8179 12.8567 25.8179 11.5545C24.9896 11.4053 24.2876 11.0594 23.698 10.4897C23.1084 9.91995 22.7504 9.23494 22.596 8.44141C16.8612 8.44141 11.1334 8.44141 5.41961 8.44141C5.01248 10.1438 3.9315 11.1747 2.1907 11.5613C2.1907 12.8635 2.1907 14.1657 2.1907 15.4543C3.94554 15.8612 5.01248 16.8922 5.41961 18.5877Z" fill="#F58220"/>
<path d="M23.8587 6.10798C23.8587 5.49079 23.8587 4.90751 23.8587 4.31067C23.5148 4.29032 23.1848 4.26998 22.8479 4.26319C20.9597 4.2225 19.0785 4.30389 17.1973 4.46666C15.5267 4.60909 13.8702 4.81934 12.2276 5.14489C11.1326 5.36193 10.0516 5.62644 9.01276 6.01303C8.9917 6.01981 8.97766 6.02659 8.93555 5.99946C9.32863 5.79599 9.7147 5.58574 10.1148 5.40262C11.8907 4.5684 13.7508 3.95799 15.6461 3.42897C17.8712 2.805 20.1314 2.30311 22.4268 1.96399C22.8971 1.89617 23.3674 1.84869 23.8517 1.78765C23.8517 1.20437 23.8517 0.627878 23.8517 0.00390625C25.2485 1.03482 26.6173 2.0386 28.0001 3.06273C26.6243 4.06651 25.2556 5.07707 23.8587 6.10798Z" fill="#F58220"/>
<path d="M19.1067 21.0217C18.6715 21.2455 18.2854 21.4558 17.8853 21.6389C16.1094 22.4731 14.2493 23.0835 12.3541 23.6126C10.1289 24.2365 7.8687 24.7384 5.57337 25.0775C5.10307 25.1454 4.63278 25.1928 4.14844 25.2539C4.14844 25.8304 4.14844 26.4136 4.14844 27.0376C2.75159 26.0067 1.38281 25.0029 0 23.9788C1.37579 22.9614 2.74457 21.9577 4.1344 20.9268C4.1344 21.5372 4.1344 22.1137 4.1344 22.7173C4.44325 22.7376 4.73105 22.758 5.01884 22.7648C6.52801 22.8055 8.03717 22.7851 9.54633 22.6562C10.9923 22.5342 12.4453 22.3917 13.8843 22.2018C15.6391 21.9712 17.3659 21.6186 19.0225 21.0081C19.0365 21.0149 19.0435 21.0149 19.1067 21.0217Z" fill="#F58220"/>
<path d="M14.0174 8.87386C16.6918 8.87386 19.3662 8.87386 22.0405 8.87386C22.1809 8.87386 22.2441 8.90777 22.2862 9.04342C22.7635 10.4677 23.7463 11.4104 25.2203 11.8649C25.3467 11.9056 25.3818 11.953 25.3818 12.0683C25.3747 13.0382 25.3747 14.0148 25.3818 14.9847C25.3818 15.0932 25.3467 15.1339 25.2344 15.1678C23.7463 15.629 22.7635 16.5718 22.2792 18.0096C22.2371 18.1385 22.1809 18.1656 22.0546 18.1656C18.0114 18.1656 13.9683 18.1656 9.92513 18.1656C8.60549 18.1656 7.28586 18.1656 5.97324 18.1656C5.82583 18.1656 5.76265 18.1317 5.71352 17.9825C5.2362 16.565 4.26051 15.629 2.79346 15.1678C2.66712 15.1271 2.625 15.0865 2.625 14.9508C2.63202 13.9809 2.63202 13.0179 2.625 12.048C2.625 11.9327 2.66712 11.892 2.77943 11.8513C4.26753 11.3901 5.25024 10.4406 5.72756 9.00273C5.76967 8.88064 5.82583 8.85352 5.94516 8.85352C8.63357 8.87386 11.322 8.87386 14.0174 8.87386ZM17.9553 13.5537C17.9342 12.3667 17.5973 11.3155 16.8252 10.4134C15.3511 8.69074 12.9013 8.61613 11.329 10.2575C10.5709 11.0442 10.1778 11.9937 10.0866 13.0585C9.96725 14.4082 10.3182 15.629 11.2307 16.6735C12.7118 18.3623 15.1335 18.403 16.6848 16.782C17.5552 15.8596 17.9272 14.7541 17.9553 13.5537ZM5.13091 14.1573C5.49592 14.1641 5.79073 13.886 5.80477 13.5333C5.81179 13.1738 5.51698 12.8822 5.15197 12.8754C4.78696 12.8686 4.49215 13.1467 4.47811 13.4994C4.47109 13.8589 4.75889 14.1505 5.13091 14.1573ZM22.7776 14.1573C23.1496 14.1641 23.4514 13.8792 23.4514 13.5197C23.4514 13.1738 23.1636 12.8822 22.7986 12.8754C22.4336 12.8686 22.1248 13.1603 22.1248 13.513C22.1178 13.8656 22.4126 14.1505 22.7776 14.1573Z" fill="#F58220"/>
<path fill-rule="evenodd" clip-rule="evenodd" d="M11.6028 10.6046C10.8447 11.4388 10.5289 12.429 10.5078 13.4803C10.5148 14.4909 10.7816 15.3861 11.3852 16.1796C12.761 17.9837 15.2459 17.9837 16.6217 16.1796C17.1762 15.4472 17.457 14.6129 17.4921 13.7109C17.5342 12.5443 17.2113 11.4931 16.4041 10.6046C15.0704 9.13961 12.9435 9.13961 11.6028 10.6046ZM14.515 12.6305H15.0537L15.1798 12.1833H12.8517L12.7183 12.6818H13.3831C13.7389 12.6818 13.9573 12.8081 14.038 13.0606H12.8443L12.7183 13.5054H14.0479C14.0116 13.6292 13.9391 13.7294 13.8304 13.806C13.7233 13.8809 13.5775 13.9184 13.393 13.9184H12.7677L12.7702 14.2923L14.0281 15.7414H14.7374V15.7097L13.5857 14.3778C13.9169 14.3501 14.1731 14.2654 14.3543 14.1237C14.5356 13.9803 14.6443 13.7742 14.6806 13.5054H15.0537L15.1773 13.0606H14.6781C14.6534 12.8961 14.599 12.7527 14.515 12.6305Z" fill="#F58220"/>
</svg>
