<svg width="27" height="28" viewBox="0 0 27 28" fill="none" xmlns="http://www.w3.org/2000/svg">
<path d="M2.46154 6.07926H0.290646V7.92542H2.46154V13.0769H0V14.9231H2.46154V20.0746H0V21.9207H2.46154V28H6.76923V0H2.46154V6.07926Z" fill="#999999"/>
<path d="M8.61536 0V28H26.1538V0H8.61536ZM17.3846 8.36074C18.8847 8.36074 20.1008 9.5768 20.1008 11.0769C20.1008 12.577 18.8847 13.7931 17.3846 13.7931C15.8845 13.7931 14.6684 12.577 14.6684 11.0769C14.6684 9.5768 15.8845 8.36074 17.3846 8.36074ZM12.4615 19.6393C12.4615 16.9203 14.6656 14.7162 17.3846 14.7162C20.1035 14.7162 22.3077 16.9203 22.3077 19.6393H12.4615Z" fill="#999999"/>
</svg>
