<svg width="28" height="17" viewBox="0 0 28 17" fill="none" xmlns="http://www.w3.org/2000/svg">
<path fill-rule="evenodd" clip-rule="evenodd" d="M9.3411 0.000586593C12.1735 0.000770517 15.0061 0.000770315 17.8387 0.000954238C17.8764 0.000954238 17.9141 0.000584887 17.9517 0.00113666C18.5608 0.0114364 18.7221 0.163727 18.726 0.777111C18.733 1.88746 18.7282 2.99798 18.7278 4.10833C18.7273 6.8749 18.7263 9.64148 18.7254 12.4082C18.7254 12.4928 18.7276 12.5778 18.7217 12.6621C18.6894 13.1198 18.531 13.2924 18.0677 13.2957C16.4304 13.3065 14.793 13.2999 13.1557 13.3097C12.9642 13.3108 12.9558 13.1938 12.9144 13.0685C12.3988 11.5057 10.9528 10.4362 9.34625 10.4263C7.66997 10.4158 6.21054 11.4344 5.68507 13.008C5.60176 13.2572 5.48607 13.3312 5.24458 13.2992C4.988 13.2651 4.7855 13.1734 4.74265 12.8936C4.72003 12.7461 4.72757 12.5935 4.7261 12.4432C4.72132 11.9821 4.72334 11.521 4.71341 11.0601C4.70862 10.8331 4.63174 10.6503 4.40368 10.5353C4.16918 10.4169 4.07464 10.1944 4.13754 9.93925C4.20265 9.67385 4.38602 9.52285 4.66908 9.52248C5.43126 9.52193 6.19344 9.52745 6.95562 9.5234C7.11342 9.52248 7.27785 9.51311 7.42738 9.46804C7.68156 9.39135 7.84434 9.21828 7.84967 8.9343C7.85463 8.67018 7.70382 8.45977 7.41671 8.38161C7.2567 8.33802 7.08326 8.33158 6.91552 8.33048C5.85226 8.32404 4.78882 8.3244 3.72537 8.32109C3.59387 8.32073 3.46144 8.31871 3.33067 8.30583C2.96043 8.2696 2.75591 8.059 2.76603 7.73364C2.77725 7.37977 2.99004 7.16679 3.36194 7.15833C3.757 7.14932 4.15226 7.15355 4.54769 7.15373C6.1756 7.1541 7.80369 7.15668 9.43159 7.15355C9.58977 7.15337 9.75309 7.13994 9.9052 7.09966C10.2131 7.01818 10.36 6.78956 10.3429 6.46365C10.3273 6.16845 10.1463 5.95786 9.83567 5.91354C9.63189 5.88429 9.42276 5.88448 9.21622 5.88448C7.9271 5.88448 6.6378 5.88981 5.34868 5.88963C4.96556 5.88963 4.73769 5.73256 4.68582 5.44987C4.61832 5.08073 4.86018 4.79528 5.26242 4.79087C6.20319 4.78038 7.14414 4.77542 8.08509 4.77377C9.24252 4.77174 10.3999 4.77653 11.5576 4.77487C11.717 4.77469 11.878 4.76604 12.0356 4.74268C12.351 4.69596 12.536 4.47379 12.536 4.16075C12.536 3.8764 12.3161 3.62737 12.0102 3.5961C11.8051 3.57513 11.5967 3.58489 11.3898 3.58489C8.49138 3.58378 5.59293 3.58451 2.69466 3.57955C2.54863 3.57937 2.3888 3.55914 2.25968 3.49752C2.05847 3.40151 1.92513 3.20086 1.9906 2.98953C2.04505 2.8137 2.18501 2.62315 2.34116 2.53211C2.48683 2.44714 2.70386 2.47067 2.88962 2.47049C6.55025 2.46755 10.2109 2.4681 13.8715 2.46866C14.1893 2.46866 14.4727 2.39821 14.6392 2.09566C14.7714 1.85545 14.7273 1.62132 14.5822 1.40374C14.4159 1.15434 14.1547 1.1159 13.8844 1.11571C12.4163 1.11461 10.9484 1.117 9.48033 1.1159C6.5348 1.11369 3.58945 1.11148 0.644101 1.10541C0.239286 1.10468 0.000553392 0.889302 1.62199e-06 0.553642C-0.000734072 0.22166 0.24885 0.00242372 0.645757 0.00187195C2.07613 -0.000886904 3.5065 0.000218948 4.93687 0.000218948C6.40495 0.000218948 7.87303 0.000218746 9.3411 0.000586593Z" fill="#999999"/>
<path fill-rule="evenodd" clip-rule="evenodd" d="M27.998 7.67642C27.998 8.63871 28.0033 9.58812 27.9967 10.5373C27.9873 11.8726 27.9763 13.2081 27.9504 14.543C27.9421 14.9681 27.8555 15.0174 27.4306 15.0111C26.9334 15.0037 26.4361 15.0093 25.9228 15.0093C26.3311 13.1421 25.8461 11.628 24.1948 10.665C22.7106 9.79926 21.2559 10.0431 19.8872 11.1059C19.8807 10.9927 19.8715 10.905 19.8715 10.8173C19.8706 8.24971 19.8706 5.68195 19.8702 3.11438C19.8702 2.59002 19.9874 2.46918 20.5219 2.4769C21.4338 2.49033 22.3458 2.52307 23.2577 2.52546C23.6688 2.52638 23.9397 2.70846 24.1045 3.06196C24.4496 3.80244 24.7828 4.54844 25.1236 5.29093C25.3798 5.84933 25.6837 6.37682 26.1288 6.81069C26.5799 7.25045 27.1131 7.5256 27.7385 7.6183C27.8203 7.63044 27.9001 7.65417 27.998 7.67642ZM25.0532 6.8094C25.044 6.75183 25.0447 6.72278 25.0346 6.69832C24.6103 5.68527 24.1853 4.67221 23.7598 3.65971C23.685 3.48149 23.5504 3.41823 23.3574 3.41933C22.4922 3.42393 21.6271 3.41786 20.7617 3.41768C20.6812 3.41768 20.6004 3.43202 20.5213 3.43956C20.5213 4.57547 20.5213 5.68747 20.5213 6.8094C22.0418 6.8094 23.5356 6.8094 25.0532 6.8094Z" fill="#999999"/>
<path fill-rule="evenodd" clip-rule="evenodd" d="M9.27429 11.5703C10.7245 11.5727 11.9614 12.8127 11.9531 14.2558C11.9449 15.6924 10.7133 16.9105 9.27208 16.908C7.81338 16.9056 6.61181 15.6856 6.61549 14.2109C6.61898 12.7905 7.8498 11.5679 9.27429 11.5703ZM9.28422 15.4667C9.98809 15.4629 10.5156 14.9341 10.5114 14.2367C10.5071 13.5365 9.97558 13.0084 9.27741 13.0106C8.57611 13.0132 8.05285 13.5418 8.05598 14.2446C8.05929 14.958 8.57446 15.4706 9.28422 15.4667Z" fill="#999999"/>
<path fill-rule="evenodd" clip-rule="evenodd" d="M24.9699 14.0138C24.9298 15.5024 23.6973 16.6729 22.2118 16.6327C20.7492 16.5931 19.6065 15.3395 19.6512 13.8234C19.6918 12.4453 20.9635 11.2597 22.3602 11.2978C23.8084 11.3373 25.0083 12.5862 24.9699 14.0138ZM22.28 15.192C23.0065 15.1962 23.5454 14.6744 23.5452 13.9674C23.545 13.276 23.0046 12.7388 22.3079 12.7372C21.6203 12.7355 21.0885 13.254 21.0755 13.9391C21.0619 14.6455 21.5837 15.1881 22.28 15.192Z" fill="#999999"/>
</svg>
