<svg width="28" height="25" viewBox="0 0 28 25" fill="none" xmlns="http://www.w3.org/2000/svg">
<path fill-rule="evenodd" clip-rule="evenodd" d="M18.6343 21.8924C18.6343 22.2839 18.6453 22.5637 18.6316 22.8421C18.6104 23.2785 18.3516 23.5483 17.9671 23.5584C17.5583 23.5692 17.2781 23.3057 17.2423 22.8632C17.218 22.5639 17.2088 22.2632 17.1951 22.0016C16.6581 22.5116 16.1172 23.0232 15.579 23.5373C15.4265 23.683 15.2875 23.8427 15.1318 23.9845C14.8098 24.2775 14.3622 24.2758 14.0932 23.9894C13.8422 23.7221 13.8645 23.3294 14.1764 23.0191C15.0566 22.1439 15.9326 21.2637 16.8371 20.414C17.1797 20.0922 17.3506 19.7631 17.3165 19.2836C17.2752 18.7025 17.3067 18.1164 17.3067 17.4764C17.1517 17.4764 17.0174 17.476 16.8831 17.4764C14.4709 17.4864 12.0585 17.5032 9.6463 17.5036C8.53147 17.5036 7.73142 16.5237 7.97139 15.4857C8.1063 14.9019 8.48854 14.5197 9.30106 14.1699C9.30106 13.3501 9.30106 12.5202 9.30106 11.6899C9.30106 10.8714 9.30106 10.053 9.30106 9.19875C9.76425 9.16605 10.2041 9.13478 10.6816 9.10105C10.6816 10.7455 10.6816 12.3769 10.6816 14.0379C15.4645 14.0379 20.2111 14.0379 24.9871 14.0379C24.9871 10.601 24.9871 7.15529 24.9871 3.68711C20.235 3.68711 15.4887 3.68711 10.7141 3.68711C10.7141 4.4424 10.7141 5.18726 10.7141 5.95685C10.2385 5.95685 9.79041 5.95685 9.30515 5.95685C9.30515 5.1472 9.30515 4.3451 9.30515 3.50908C9.05107 3.50908 8.83051 3.5285 8.61445 3.5054C8.03598 3.44387 7.70669 2.8932 8.03456 2.49235C8.17171 2.32474 8.46994 2.20884 8.69622 2.207C9.8082 2.19801 10.9204 2.24584 12.0328 2.25381C13.6605 2.26526 15.2881 2.25995 16.9158 2.26097C16.997 2.26097 17.0781 2.25279 17.2233 2.24482C17.2233 1.71826 17.212 1.19559 17.2269 0.673743C17.2378 0.293546 17.4731 0.0482571 17.8199 0.00676248C18.2547 -0.0453613 18.5707 0.206676 18.5897 0.664548C18.611 1.17822 18.5946 1.69333 18.5946 2.26056C18.7543 2.26056 18.8779 2.26056 19.0014 2.26056C21.7533 2.26015 24.5053 2.25974 27.2572 2.25913C27.7682 2.25913 27.9647 2.39363 27.9878 2.76115C28.0117 3.14217 27.7288 3.44714 27.2909 3.48802C27.0835 3.50744 26.8727 3.4915 26.6266 3.4915C26.619 3.63928 26.6082 3.7511 26.6082 3.86291C26.6074 7.18882 26.6113 10.5143 26.6009 13.8402C26.6 14.1197 26.684 14.2413 26.9459 14.3425C27.617 14.6021 28.0233 15.249 27.999 15.9329C27.9739 16.6357 27.5362 17.2176 26.8423 17.4507C26.7133 17.494 26.5684 17.5065 26.4308 17.5061C23.9599 17.4991 21.489 17.4877 19.0184 17.4774C18.9139 17.477 18.8095 17.4772 18.6402 17.4772C18.6402 17.854 18.6854 18.2178 18.6316 18.5665C18.4781 19.5653 18.8371 20.2921 19.6124 20.9315C20.3499 21.5398 21.0003 22.2579 21.6548 22.9599C21.8261 23.1434 21.9735 23.4564 21.9512 23.6924C21.9017 24.2155 21.2123 24.3842 20.8008 23.9929C20.2918 23.5091 19.8039 23.0028 19.3029 22.5102C19.1134 22.3241 18.9125 22.1488 18.6343 21.8924ZM17.9424 16.1846C17.9424 16.1842 17.9424 16.1838 17.9424 16.1833C20.6698 16.1833 23.3974 16.1827 26.1246 16.1848C26.3613 16.185 26.6037 16.1776 26.6111 15.8712C26.619 15.5456 26.3666 15.5196 26.1172 15.5205C26.0821 15.5205 26.0471 15.5202 26.012 15.5202C20.6273 15.5215 15.2428 15.5227 9.85807 15.5241C9.7528 15.5241 9.63016 15.4937 9.54635 15.5368C9.42861 15.5975 9.26324 15.7106 9.25875 15.8076C9.25343 15.9203 9.3771 16.0807 9.4883 16.1447C9.59725 16.2075 9.76098 16.1833 9.90059 16.1833C12.5812 16.185 15.2616 16.1846 17.9424 16.1846Z" fill="#999999"/>
<path fill-rule="evenodd" clip-rule="evenodd" d="M4.94365 16.4412C4.82755 17.2464 4.71022 18.0518 4.59534 18.8571C4.38235 20.3507 4.17365 21.8449 3.95677 23.3381C3.87051 23.9319 3.47232 24.2576 2.92472 24.203C2.40205 24.1511 2.08951 23.7686 2.11445 23.1654C2.21992 20.6158 2.33521 18.0667 2.44457 15.5171C2.48729 14.5231 2.5251 13.5286 2.56148 12.5344C2.56598 12.413 2.54861 12.291 2.47932 12.1591C2.43476 12.3212 2.38508 12.4821 2.34665 12.6456C2.11383 13.6357 1.88735 14.6269 1.65146 15.616C1.51206 16.1998 1.12369 16.4829 0.627795 16.3791C0.180756 16.2855 -0.0696441 15.8767 0.0170245 15.3154C0.327519 13.3042 0.649051 11.2951 0.96854 9.28556C1.02169 8.95074 1.07279 8.6151 1.14576 8.28437C1.23836 7.86451 1.46096 7.50455 1.85505 7.33183C2.35319 7.11373 2.88118 6.96308 3.37503 6.79097C3.82697 7.41421 4.24069 7.98511 4.70225 8.62164C4.74844 8.27231 4.8486 7.97898 4.80527 7.70896C4.76214 7.43976 4.5751 7.19344 4.4312 6.89562C4.80077 6.89562 5.14806 6.89562 5.63577 6.89562C5.05914 7.41747 5.0434 7.96447 5.29053 8.57892C5.69444 8.0074 6.10366 7.46184 6.47098 6.88929C6.5879 6.70676 6.68663 6.61988 6.90228 6.62111C8.77547 6.63358 10.6487 6.63214 12.5218 6.64727C13.2538 6.65299 13.6684 7.17996 13.4382 7.78071C13.3133 8.10694 13.0731 8.28764 12.7232 8.31421C11.5329 8.40394 10.3427 8.49327 9.15219 8.58116C8.76708 8.60958 8.38177 8.64392 7.99606 8.65434C7.80187 8.65966 7.73932 8.73386 7.71868 8.9211C7.5016 10.8897 7.36935 12.859 7.48464 14.843C7.59726 16.7826 7.66206 18.7251 7.74791 20.6663C7.78409 21.485 7.82354 22.3034 7.85564 23.1223C7.88323 23.8214 7.46031 24.2676 6.83707 24.2067C6.42049 24.1662 6.12532 23.9189 6.05399 23.4804C5.88147 22.4185 5.73041 21.3531 5.57424 20.2886C5.38619 19.0063 5.20161 17.7233 5.01539 16.4408C4.99148 16.441 4.96757 16.4412 4.94365 16.4412Z" fill="#999999"/>
<path fill-rule="evenodd" clip-rule="evenodd" d="M4.9217 6.19656C3.8179 6.1888 2.96511 5.32641 2.9737 4.22711C2.98228 3.13271 3.86594 2.26725 4.95584 2.28544C6.04144 2.30343 6.88483 3.15846 6.88667 4.24264C6.8885 5.33867 6.01794 6.20413 4.9217 6.19656Z" fill="#999999"/>
<path fill-rule="evenodd" clip-rule="evenodd" d="M20.6852 8.7864C20.685 9.67434 20.6862 10.5623 20.6844 11.4504C20.6836 11.8411 20.5746 11.95 20.1889 11.9537C19.9203 11.9561 19.6515 11.9502 19.3827 11.9541C19.0761 11.9584 18.9314 11.8061 18.9314 11.5048C18.9316 9.67025 18.9312 7.8359 18.932 6.00135C18.9322 5.71722 19.0759 5.56739 19.3627 5.56514C19.6431 5.56289 19.9236 5.56044 20.204 5.56535C20.566 5.57148 20.6834 5.6884 20.6846 6.05204C20.6873 6.96349 20.6854 7.87494 20.6852 8.7864Z" fill="#999999"/>
<path fill-rule="evenodd" clip-rule="evenodd" d="M18.5091 9.69455C18.5091 10.2916 18.5038 10.8889 18.5114 11.486C18.5155 11.8112 18.3695 11.961 18.0458 11.9539C17.7649 11.9479 17.4836 11.9498 17.2028 11.9535C16.914 11.9573 16.7592 11.814 16.7584 11.5307C16.7543 10.3012 16.7555 9.07172 16.7594 7.84221C16.7602 7.57444 16.9031 7.43217 17.1762 7.43135C17.4806 7.43053 17.7851 7.4289 18.0895 7.43013C18.3787 7.43156 18.5136 7.57628 18.5112 7.86797C18.5055 8.47669 18.5091 9.08562 18.5091 9.69455Z" fill="#999999"/>
<path fill-rule="evenodd" clip-rule="evenodd" d="M16.3339 10.5476C16.3339 10.8748 16.3323 11.2021 16.3345 11.5294C16.3363 11.7994 16.2104 11.9484 15.9361 11.9517C15.6205 11.9555 15.3049 11.9531 14.9893 11.9519C14.732 11.9508 14.5913 11.8082 14.5878 11.5631C14.578 10.8736 14.5782 10.1837 14.586 9.49428C14.5889 9.24409 14.7389 9.10918 14.9897 9.1055C15.3053 9.1008 15.6209 9.09937 15.9365 9.10652C16.2068 9.11245 16.3378 9.25799 16.3347 9.53067C16.3308 9.86958 16.3337 10.2087 16.3339 10.5476Z" fill="#999999"/>
<path fill-rule="evenodd" clip-rule="evenodd" d="M22.8597 10.5293C22.8594 10.8566 22.8572 11.1838 22.8599 11.5111C22.8623 11.7962 22.7303 11.9504 22.4402 11.9528C22.1365 11.9553 21.8325 11.9549 21.5286 11.953C21.2377 11.9512 21.106 11.7944 21.1062 11.5119C21.1067 10.8574 21.1085 10.2029 21.1058 9.54837C21.1046 9.26057 21.243 9.11033 21.5283 9.10604C21.8438 9.10133 22.1598 9.09786 22.475 9.1089C22.7239 9.11769 22.8597 9.25648 22.8601 9.51281C22.8605 9.85151 22.8603 10.1904 22.8597 10.5293Z" fill="#999999"/>
</svg>
