<svg width="28" height="27" viewBox="0 0 28 27" fill="none" xmlns="http://www.w3.org/2000/svg">
<path fill-rule="evenodd" clip-rule="evenodd" d="M0 23.9878C0.0281311 23.6996 0.0512192 23.4109 0.0857196 23.1234C0.340757 20.9887 1.09419 19.0813 2.64618 17.5426C3.36113 16.834 4.19125 16.2961 5.12011 15.91C5.14612 15.8993 5.17318 15.8919 5.2114 15.8789C6.21058 17.5424 7.20844 19.204 8.21426 20.8788C9.2705 19.2427 10.3177 17.6206 11.3758 15.9816C11.6083 16.0997 11.8403 16.2072 12.0621 16.3322C13.8397 17.3367 15.0419 18.8308 15.7677 20.7225C16.1886 21.8199 16.4012 22.9618 16.4609 24.1335C16.4691 24.2999 16.4702 24.4668 16.4859 24.6324C16.4959 24.7399 16.4598 24.7872 16.3569 24.827C15.0326 25.3402 13.6759 25.7388 12.2803 26.0042C10.6503 26.3139 9.00592 26.4281 7.3499 26.3516C5.45398 26.2638 3.59945 25.9291 1.78526 25.3758C1.23564 25.2081 0.69504 25.0109 0.149669 24.8283C0.100838 24.8118 0.0498928 24.8015 0 24.7885C0 24.5212 0 24.2545 0 23.9878Z" fill="#999999"/>
<path fill-rule="evenodd" clip-rule="evenodd" d="M28.0001 10.1006C27.9491 10.3312 27.9157 10.568 27.8435 10.7917C27.4149 12.1247 26.1928 13.0077 24.7743 13.0103C22.984 13.0138 21.194 13.0111 19.4037 13.0111C19.0226 13.0111 18.6417 13.0074 18.2609 13.0148C18.1927 13.0162 18.1115 13.0461 18.06 13.0907C17.0192 13.9978 15.981 14.9081 14.9459 15.8213C14.8629 15.8946 14.8047 15.9046 14.7161 15.8386C14.4003 15.6018 14.0787 15.3731 13.7647 15.1342C13.7352 15.1117 13.7273 15.0344 13.7382 14.9896C13.8937 14.3622 14.054 13.7359 14.2129 13.1093C14.2198 13.082 14.2228 13.0541 14.2302 13.0116C14.1352 13.0116 14.0471 13.0116 13.9603 13.0116C14.1471 12.5342 14.3297 12.0677 14.5171 11.5884C15.0112 11.5884 15.529 11.5884 16.0701 11.5884C15.9271 12.1574 15.7867 12.7163 15.6378 13.3083C15.6906 13.2691 15.7193 13.251 15.744 13.229C16.3347 12.7112 16.9263 12.1945 17.5138 11.673C17.5916 11.604 17.6685 11.5807 17.7694 11.5809C20.1024 11.5831 22.4354 11.5833 24.7684 11.582C25.6758 11.5815 26.3969 10.9785 26.5564 10.0879C26.5731 9.99499 26.5765 9.89839 26.5765 9.80391C26.5776 7.60411 26.58 5.40432 26.576 3.20452C26.5747 2.33405 25.9919 1.62998 25.1411 1.45907C25.0116 1.43306 24.8762 1.42563 24.7435 1.42563C20.8535 1.42377 16.9634 1.42377 13.0731 1.42457C11.9964 1.42457 11.2308 2.19313 11.23 3.26981C11.2297 3.54555 11.23 3.82128 11.23 4.11268C11.1835 4.0941 11.1504 4.0803 11.1169 4.06703C10.7146 3.90992 10.3133 3.7507 9.90942 3.59757C9.84652 3.57368 9.80433 3.562 9.80115 3.47893C9.76293 2.45985 10.0679 1.57372 10.82 0.866195C11.4245 0.296939 12.1488 0.00421702 12.9797 0.00368624C16.9268 0.000236209 20.8742 -0.00294902 24.8213 0.00474721C26.4412 0.00793186 27.7551 1.18891 27.9746 2.80511C27.9791 2.83723 27.9913 2.86854 28.0001 2.90012C28.0001 5.30055 28.0001 7.70072 28.0001 10.1006Z" fill="#999999"/>
<path fill-rule="evenodd" clip-rule="evenodd" d="M8.13813 14.561C5.56785 14.5554 3.48934 12.4753 3.48987 9.90901C3.4904 7.33794 5.58298 5.25093 8.15405 5.25783C10.7323 5.26446 12.81 7.35174 12.7999 9.92467C12.7898 12.4947 10.7068 14.5666 8.13813 14.561Z" fill="#999999"/>
<path fill-rule="evenodd" clip-rule="evenodd" d="M18.9308 7.59079C18.3016 7.58947 17.7984 7.08682 17.7974 6.45759C17.7963 5.82278 18.3056 5.31324 18.9388 5.31642C19.5667 5.31961 20.0715 5.82331 20.0752 6.45042C20.0786 7.08098 19.5657 7.59185 18.9308 7.59079Z" fill="#999999"/>
<path fill-rule="evenodd" clip-rule="evenodd" d="M15.3958 7.59026C14.7695 7.58866 14.2613 7.08204 14.2594 6.45679C14.2573 5.82676 14.7724 5.3135 15.404 5.31642C16.0301 5.31907 16.5388 5.82675 16.5407 6.45068C16.5425 7.08098 16.0298 7.59158 15.3958 7.59026Z" fill="#999999"/>
<path fill-rule="evenodd" clip-rule="evenodd" d="M22.5488 7.59051C21.9154 7.59078 21.4024 7.07646 21.4071 6.44696C21.4124 5.82144 21.9215 5.31694 22.5483 5.31641C23.1839 5.31561 23.6892 5.82304 23.6871 6.4597C23.685 7.08575 23.177 7.59025 22.5488 7.59051Z" fill="#999999"/>
</svg>
