<svg width="28" height="28" viewBox="0 0 28 28" fill="none" xmlns="http://www.w3.org/2000/svg">
<path d="M13.813 0.00127233C6.08157 0.10475 -0.101605 6.45677 0.0012652 14.1884C0.104744 21.9167 6.45623 28.1016 14.1873 27.9987C21.9172 27.8946 28.1016 21.5426 27.9987 13.8116C27.8953 6.08273 21.5435 -0.101901 13.813 0.00127233ZM13.7716 22.5217L13.6943 22.5205C12.5037 22.4852 11.6643 21.6081 11.698 20.4351C11.7312 19.2822 12.591 18.4453 13.7424 18.4453L13.8115 18.4465C15.0352 18.4827 15.8652 19.351 15.8308 20.5578C15.7967 21.714 14.9503 22.5217 13.7716 22.5217ZM18.7797 12.5821C18.4997 12.9798 17.884 13.4738 17.1082 14.0782L16.2539 14.668C15.7849 15.0327 15.5018 15.3757 15.3956 15.7132C15.3119 15.9789 15.2708 16.0492 15.2635 16.5897L15.2623 16.7269H12.0003L12.0097 16.4509C12.0496 15.3163 12.0776 14.6489 12.5478 14.0974C13.2855 13.2312 14.9129 12.1834 14.982 12.1389C15.2151 11.9633 15.4117 11.7634 15.5581 11.5497C15.9005 11.0777 16.0521 10.7061 16.0521 10.3408C16.0521 9.83411 15.9017 9.36541 15.6044 8.94815C15.3186 8.5455 14.7756 8.34159 13.9904 8.34159C13.2116 8.34159 12.6784 8.58872 12.3594 9.09576C12.0313 9.61711 11.8654 10.1646 11.8654 10.724V10.8631H8.50207L8.50815 10.7179C8.59489 8.65781 9.3302 7.17442 10.6928 6.30886C11.5489 5.75769 12.6141 5.4783 13.8571 5.4783C15.4842 5.4783 16.8577 5.87364 17.9391 6.65338C19.0347 7.44346 19.5905 8.62676 19.5905 10.1704C19.5905 11.0338 19.3178 11.8449 18.7797 12.5821Z" fill="#F58220"/>
</svg>
