<svg width="32" height="29" viewBox="0 0 32 29" fill="none" xmlns="http://www.w3.org/2000/svg">
<path d="M27.7686 16.9776L24.3192 21.4884C23.629 22.3909 22.5577 22.9203 21.4215 22.9203H15.0166C14.513 22.9203 14.1047 22.512 14.1047 22.0084C14.1047 21.5048 14.513 21.0964 15.0166 21.0964H20.5679C21.761 21.0964 22.7602 20.12 22.7374 18.927C22.7153 17.771 21.7712 16.8407 20.6099 16.8407H14.2263C12.3934 15.0784 9.56505 14.8722 7.49596 16.3501L6.80908 16.8407V27.1761H12.8887H14.1047H22.6687C24.5305 27.1761 26.2646 26.2294 27.2714 24.6633L30.8303 19.1271C31.0244 18.8251 31.1276 18.4737 31.1276 18.1147C31.1277 16.3245 28.856 15.5555 27.7686 16.9776V16.9776Z" fill="#767A80"/>
<path d="M4.07336 15.0168H0.911947C0.408309 15.0168 0 15.4251 0 15.9288V28.0881C0 28.5917 0.408309 29 0.911947 29H4.07336C4.577 29 4.98531 28.5917 4.98531 28.0881V15.9288C4.98531 15.4251 4.577 15.0168 4.07336 15.0168Z" fill="#767A80"/>
<rect x="9.35449" y="1.38022" width="2.07033" height="6.67107" fill="#767A80"/>
<rect x="10.2749" width="0.230037" height="9.43151" fill="#767A80"/>
<rect x="12.8052" y="5.04956" width="2.07033" height="4.39314" fill="#767A80"/>
<rect x="13.7256" y="4.14062" width="0.230037" height="6.21099" fill="#767A80"/>
<rect x="16.2559" y="1.44757" width="2.07033" height="6.99649" fill="#767A80"/>
<rect x="17.1763" width="0.230037" height="9.89158" fill="#767A80"/>
<rect x="20.396" y="5.58823" width="2.07033" height="6.99649" fill="#767A80"/>
<rect x="21.3164" y="4.14069" width="0.230037" height="9.89158" fill="#767A80"/>
</svg>
