<svg width="28" height="28" viewBox="0 0 28 28" fill="none" xmlns="http://www.w3.org/2000/svg">
<path d="M1.01562 23.5205C1.08561 22.8835 0.784639 22.3656 0.623651 21.8126C-0.67825 17.4169 0.0566931 13.3782 2.84248 9.75951C5.06131 6.88273 8.03609 5.17486 11.6198 4.6499C15.8895 4.02695 19.7112 5.11886 22.959 7.97465C25.6328 10.3335 27.1236 13.3292 27.4246 16.892C27.6136 19.1458 27.2076 21.3016 26.2767 23.3595C26.2207 23.4785 26.1647 23.5135 26.0317 23.5135C23.1409 23.5135 20.2572 23.5205 17.3664 23.5205C11.9978 23.5205 6.63619 23.5205 1.2676 23.5205C1.19061 23.5205 1.10661 23.5205 1.01562 23.5205ZM13.7407 21.3646C17.3944 21.3646 21.0481 21.3646 24.7088 21.3646C24.8348 21.3646 24.9118 21.3506 24.9608 21.2036C25.7028 18.7608 25.6398 16.339 24.7438 13.9452C23.1129 9.60552 18.9133 6.60975 14.2516 6.45576C11.2278 6.35077 8.52605 7.2397 6.16723 9.15756C2.6255 12.0413 1.17661 16.787 2.49951 21.1476C2.5555 21.3226 2.6255 21.3716 2.80748 21.3716C6.44721 21.3646 10.0939 21.3646 13.7407 21.3646Z" fill="#F58220"/>
<path d="M13.9932 18.6967C13.5242 18.2137 13.0762 17.7517 12.6143 17.2758C15.2601 15.1339 17.8989 12.9991 20.5307 10.8643C20.5377 10.8713 20.5517 10.8853 20.5587 10.8923C18.3748 13.4891 16.198 16.0789 13.9932 18.6967Z" fill="#F58220"/>
<path d="M14.0899 15.4573C13.2429 16.0873 12.417 16.6962 11.563 17.3332C12.41 18.0961 13.2499 18.8521 14.1039 19.629C14.7268 18.8101 15.3428 17.9981 15.9657 17.1792C16.3437 17.9211 15.9447 19.146 15.1538 19.755C14.1878 20.4969 12.83 20.4619 11.927 19.664C11.0381 18.8801 10.8351 17.6131 11.4301 16.6052C12.074 15.5273 13.3199 15.2473 14.0899 15.4573Z" fill="#F58220"/>
<path d="M14.2651 7.87663C14.2651 7.93263 14.2721 7.98162 14.2721 8.03762C14.2721 8.81456 14.2721 9.5915 14.2721 10.3684C14.2721 10.5084 14.2441 10.5574 14.0901 10.5574C13.6491 10.5504 13.2081 10.5504 12.7672 10.5574C12.6412 10.5574 12.5992 10.5224 12.5992 10.3964C12.6062 9.5985 12.5992 8.80756 12.5992 8.00962C12.5992 7.92563 12.5922 7.84863 12.7182 7.84863C13.2081 7.85563 13.7051 7.84863 14.1951 7.85563C14.2161 7.86263 14.2371 7.86963 14.2651 7.87663Z" fill="#F58220"/>
<path d="M10.4924 10.9418C10.0374 11.2498 9.58942 11.5438 9.12745 11.8587C8.60249 11.1168 8.08453 10.3819 7.55957 9.63291C8.02154 9.32494 8.4625 9.02396 8.92447 8.70898C9.44243 9.45793 9.96039 10.1929 10.4924 10.9418Z" fill="#F58220"/>
<path d="M17.9618 8.71582C18.4237 9.0238 18.8717 9.32477 19.3267 9.63275C18.8017 10.3817 18.2907 11.1096 17.7658 11.8586C17.3038 11.5506 16.8628 11.2496 16.4009 10.9417C16.9188 10.1997 17.4368 9.46476 17.9618 8.71582Z" fill="#F58220"/>
<path d="M7.86885 13.5822C7.56087 14.0442 7.27389 14.4851 6.96591 14.9401C6.18897 14.4501 5.42603 13.9672 4.64209 13.4702C4.95007 13.0082 5.23704 12.5673 5.54502 12.1123C6.32196 12.6093 7.08491 13.0852 7.86885 13.5822Z" fill="#F58220"/>
<path d="M20.4742 14.945C20.1732 14.49 19.8793 14.049 19.5713 13.5871C20.3482 13.0971 21.1112 12.6141 21.8881 12.1172C22.1891 12.5722 22.4831 13.0131 22.791 13.4751C22.0141 13.965 21.2512 14.448 20.4742 14.945Z" fill="#F58220"/>
<path d="M3.22747 17.0527C4.1444 17.0527 5.04733 17.0527 5.96426 17.0527C5.96426 17.5847 5.96426 18.1167 5.96426 18.6556C5.90127 18.6556 5.84527 18.6626 5.78927 18.6626C4.99833 18.6626 4.20039 18.6626 3.40945 18.6626C3.26246 18.6626 3.20647 18.6346 3.21347 18.4736C3.22747 18.0537 3.21347 17.6267 3.22047 17.2067C3.22047 17.1647 3.22747 17.1157 3.22747 17.0527Z" fill="#F58220"/>
<path d="M24.2119 17.0601C24.2119 17.592 24.2119 18.117 24.2119 18.6489C24.1559 18.6559 24.1069 18.6629 24.0579 18.6629C23.253 18.6629 22.441 18.6629 21.6361 18.6629C21.5031 18.6629 21.4541 18.6349 21.4541 18.495C21.4611 18.061 21.4611 17.627 21.4541 17.193C21.4541 17.1021 21.4611 17.0391 21.5801 17.0391C22.441 17.0461 23.295 17.0461 24.1559 17.0461C24.1699 17.0461 24.1769 17.0531 24.2119 17.0601Z" fill="#F58220"/>
</svg>
