<svg width="28" height="28" viewBox="0 0 28 28" fill="none" xmlns="http://www.w3.org/2000/svg">
<path d="M1.01562 23.5205C1.08561 22.8835 0.784639 22.3656 0.623651 21.8126C-0.67825 17.4169 0.0566931 13.3782 2.84248 9.75951C5.06131 6.88273 8.03609 5.17486 11.6198 4.6499C15.8895 4.02695 19.7112 5.11886 22.959 7.97465C25.6328 10.3335 27.1236 13.3292 27.4246 16.892C27.6136 19.1458 27.2076 21.3016 26.2767 23.3595C26.2207 23.4785 26.1647 23.5135 26.0317 23.5135C23.1409 23.5135 20.2572 23.5205 17.3664 23.5205C11.9978 23.5205 6.63619 23.5205 1.2676 23.5205C1.19061 23.5205 1.10661 23.5205 1.01562 23.5205ZM13.7407 21.3646C17.3944 21.3646 21.0481 21.3646 24.7088 21.3646C24.8348 21.3646 24.9118 21.3506 24.9608 21.2036C25.7028 18.7608 25.6398 16.339 24.7438 13.9452C23.1129 9.60552 18.9133 6.60975 14.2516 6.45576C11.2278 6.35077 8.52605 7.2397 6.16723 9.15756C2.6255 12.0413 1.17661 16.787 2.49951 21.1476C2.5555 21.3226 2.6255 21.3716 2.80748 21.3716C6.44721 21.3646 10.0939 21.3646 13.7407 21.3646Z" fill="#999999"/>
<path d="M13.9929 18.6957C13.5239 18.2127 13.076 17.7508 12.614 17.2748C15.2598 15.133 17.8986 12.9981 20.5304 10.8633C20.5374 10.8703 20.5514 10.8843 20.5584 10.8913C18.3746 13.4881 16.1977 16.0779 13.9929 18.6957Z" fill="#999999"/>
<path d="M14.0899 15.4593C13.2429 16.0892 12.417 16.6982 11.563 17.3351C12.41 18.0981 13.2499 18.854 14.1039 19.6309C14.7268 18.812 15.3428 18.0001 15.9657 17.1811C16.3437 17.9231 15.9447 19.148 15.1538 19.7569C14.1878 20.4989 12.83 20.4639 11.927 19.6659C11.0381 18.882 10.8351 17.6151 11.4301 16.6072C12.074 15.5293 13.3199 15.2493 14.0899 15.4593Z" fill="#999999"/>
<path d="M14.2651 7.87565C14.2651 7.93165 14.2721 7.98065 14.2721 8.03664C14.2721 8.81358 14.2721 9.59052 14.2721 10.3675C14.2721 10.5075 14.2441 10.5565 14.0901 10.5565C13.6491 10.5495 13.2081 10.5495 12.7672 10.5565C12.6412 10.5565 12.5992 10.5215 12.5992 10.3955C12.6062 9.59752 12.5992 8.80658 12.5992 8.00864C12.5992 7.92465 12.5922 7.84766 12.7182 7.84766C13.2081 7.85466 13.7051 7.84766 14.1951 7.85466C14.2161 7.86166 14.2371 7.86866 14.2651 7.87565Z" fill="#999999"/>
<path d="M10.4924 10.9438C10.0374 11.2517 9.58942 11.5457 9.12745 11.8607C8.60249 11.1188 8.08453 10.3838 7.55957 9.63487C8.02154 9.32689 8.4625 9.02591 8.92447 8.71094C9.44243 9.45988 9.96039 10.1948 10.4924 10.9438Z" fill="#999999"/>
<path d="M17.9615 8.71484C18.4235 9.02282 18.8715 9.3238 19.3264 9.63177C18.8015 10.3807 18.2905 11.1087 17.7655 11.8576C17.3036 11.5496 16.8626 11.2487 16.4006 10.9407C16.9186 10.1987 17.4366 9.46379 17.9615 8.71484Z" fill="#999999"/>
<path d="M7.86885 13.5832C7.56087 14.0451 7.27389 14.4861 6.96591 14.9411C6.18897 14.4511 5.42603 13.9681 4.64209 13.4712C4.95007 13.0092 5.23704 12.5682 5.54502 12.1133C6.32196 12.6102 7.08491 13.0862 7.86885 13.5832Z" fill="#999999"/>
<path d="M20.4742 14.945C20.1732 14.49 19.8793 14.049 19.5713 13.5871C20.3482 13.0971 21.1112 12.6141 21.8881 12.1172C22.1891 12.5722 22.4831 13.0131 22.791 13.4751C22.0141 13.965 21.2512 14.448 20.4742 14.945Z" fill="#999999"/>
<path d="M3.22747 17.0547C4.1444 17.0547 5.04733 17.0547 5.96426 17.0547C5.96426 17.5866 5.96426 18.1186 5.96426 18.6576C5.90127 18.6576 5.84527 18.6646 5.78927 18.6646C4.99833 18.6646 4.20039 18.6646 3.40945 18.6646C3.26246 18.6646 3.20647 18.6366 3.21347 18.4756C3.22747 18.0556 3.21347 17.6286 3.22047 17.2087C3.22047 17.1667 3.22747 17.1177 3.22747 17.0547Z" fill="#999999"/>
<path d="M24.2119 17.0601C24.2119 17.592 24.2119 18.117 24.2119 18.6489C24.1559 18.6559 24.1069 18.6629 24.0579 18.6629C23.253 18.6629 22.441 18.6629 21.6361 18.6629C21.5031 18.6629 21.4541 18.6349 21.4541 18.495C21.4611 18.061 21.4611 17.627 21.4541 17.193C21.4541 17.1021 21.4611 17.0391 21.5801 17.0391C22.441 17.0461 23.295 17.0461 24.1559 17.0461C24.1699 17.0461 24.1769 17.0531 24.2119 17.0601Z" fill="#999999"/>
</svg>
