<svg width="225" height="75" viewBox="0 0 225 75" fill="none" xmlns="http://www.w3.org/2000/svg">
<path d="M33.5595 29.6133C33.3215 31.0619 30.5447 50.94 30.3066 52.791H36.5743C36.733 51.4228 39.5891 31.4643 39.8271 29.6133H33.5595Z" fill="white"/>
<path d="M85.0497 29.6133C84.8117 31.0619 82.0349 50.94 81.7969 52.791H96.5536C96.7123 51.7448 97.0296 49.089 97.2676 47.8013H88.3025L88.9372 43.536H97.0296C97.1883 42.5703 97.5056 40.1559 97.6643 38.8683H89.5719L90.2066 34.6834H98.9337C99.0924 33.6372 99.4891 30.9814 99.6477 29.6938H85.0497V29.6133Z" fill="white"/>
<path d="M14.9943 42.8922C14.9943 42.8922 20.2305 30.6595 20.7066 29.6133H28.6403C28.6403 31.2228 27.6089 51.1009 27.6089 52.791H21.8966L22.8487 36.5344C22.8487 36.5344 16.4223 51.7448 16.0257 52.791H11.5034L9.44067 36.5344C9.282 37.2587 7.1399 48.1232 5.94984 52.791H0.316895C0.872255 50.6985 5.2358 30.8205 5.63249 29.6133H13.2489L14.9943 42.8922Z" fill="white"/>
<path d="M68.6264 43.293L72.1966 34.6818L73.3866 43.293H68.6264ZM74.0213 48.0412C74.0213 48.0412 74.418 51.8237 74.5767 52.7089H80.6063C80.289 50.7775 76.9568 30.8994 76.7188 29.5312H69.1024C68.6264 30.497 59.9786 50.4556 58.9473 52.7089H65.0562C65.3736 51.9042 66.9603 48.0412 66.9603 48.0412H74.0213Z" fill="white"/>
<path d="M48.6334 33.9575H50.0615C51.0135 33.9575 52.1242 34.038 52.7589 34.8428C53.2349 35.4061 53.3936 36.2109 53.2349 37.1767C53.2349 37.1767 53.0763 38.9472 51.8862 39.5105C51.8862 39.5105 51.0928 40.0739 49.8234 40.0739H46.9673L52.3622 52.7894H58.4712L53.8696 43.0516C56.6464 42.4882 58.8679 41.6834 59.4232 37.2571C59.5026 36.6938 59.5026 36.2109 59.5026 35.6476C59.5026 34.038 59.1059 32.6699 58.2332 31.7042C56.7258 29.9336 54.1076 29.5312 52.2036 29.5312H43.5558C43.3178 30.9799 40.541 50.8579 40.303 52.7894H46.0153C46.1739 51.4213 48.6334 33.9575 48.6334 33.9575Z" fill="white"/>
<path d="M225 0C221.35 15.4518 208.181 23.8215 200.405 28.3283L200.088 27.8454C203.262 25.1896 214.131 17.0614 217.622 3.54104L225 0Z" fill="#F08300"/>
<path d="M156.77 38.7167L155.104 37.8314C154.548 37.5095 153.279 36.7852 153.279 35.578C153.279 35.0147 153.517 34.4514 153.914 34.1294C154.39 33.6466 155.262 33.4856 156.056 33.6466C157.167 33.8075 158.357 34.5318 159.705 35.739C160.34 34.4514 161.609 32.037 162.006 31.2322C160.419 29.9446 158.912 29.2203 156.691 28.8179C153.914 28.4155 151.216 28.9788 149.312 30.4275C147.725 31.6346 146.773 33.4856 146.456 35.6585C146.456 36.0609 146.377 36.3828 146.377 36.7047C146.377 37.9119 146.615 38.9581 147.17 39.8434C150.582 39.7629 154.152 39.602 157.801 39.28C157.484 39.0386 157.167 38.8777 156.77 38.7167Z" fill="white"/>
<path d="M182.238 29.6133C182.079 30.579 181.682 33.6372 181.444 35.0858C185.887 33.7981 191.282 32.0276 196.201 29.6133H182.238Z" fill="white"/>
<path d="M184.538 35.3319C183.903 35.5734 183.269 35.7343 182.634 35.9758C182.475 36.0562 182.396 36.0562 182.237 36.1367C181.999 36.2172 181.682 36.2977 181.444 36.3781C181.285 36.4586 181.127 36.4586 181.047 36.5391C180.175 36.7805 179.223 37.1025 178.271 37.3439C178.112 37.4244 177.874 37.4244 177.715 37.5048C177.477 37.5853 177.16 37.6658 176.922 37.7463C176.684 37.8268 176.525 37.8268 176.287 37.9072C176.049 37.9877 175.732 38.0682 175.494 38.1487C175.256 38.2291 175.018 38.3096 174.78 38.3096C174.304 38.3901 173.907 38.5511 173.431 38.6315C173.193 38.712 172.955 38.7925 172.638 38.7925C172.558 38.7925 172.4 38.873 172.32 38.873C169.702 39.4363 167.005 39.9997 164.069 40.563C163.99 40.563 163.91 40.563 163.831 40.563C163.276 40.6435 162.8 40.724 162.244 40.8044C162.086 40.8044 162.006 40.8044 161.848 40.8849C161.292 40.9654 160.737 41.0459 160.182 41.1264C160.102 41.1264 160.102 41.1264 160.023 41.1264C156.929 41.6092 153.597 42.0116 150.185 42.253H150.106C149.55 42.3335 149.074 42.3335 148.519 42.414C148.44 42.414 148.44 42.414 148.36 42.414C147.805 42.4945 147.329 42.4945 146.774 42.4945C146.694 42.4945 146.694 42.4945 146.615 42.4945C146.06 42.4945 145.504 42.575 144.949 42.575C144.949 42.575 144.87 42.575 144.79 42.575C144.235 42.575 143.68 42.6554 143.124 42.6554H143.045C140.109 42.8164 137.174 42.8969 134.08 42.8969C134 42.8969 133.921 42.8969 133.842 42.8969C133.128 42.8969 132.493 42.8969 131.779 42.8969C131.62 42.8969 131.462 42.8969 131.303 42.8969C128.843 42.8969 126.225 42.7359 123.607 42.6554H123.449C119.482 42.414 115.356 42.0921 111.151 41.6092L115.991 36.9415C115.991 36.9415 118.847 37.8267 122.735 38.4706C122.02 33.9638 121.306 30.0204 121.227 29.457H113.611C113.135 30.4228 104.487 50.3813 103.456 52.6347H109.565C109.882 51.8299 111.945 46.8403 111.945 46.8403H118.292C118.292 46.8403 118.926 51.669 119.085 52.6347H125.115C124.956 51.9104 124.401 48.3694 123.687 44.3455C127.971 44.5869 132.334 44.6674 136.301 44.5869C136.539 44.9088 136.619 45.3112 136.619 45.7136C136.619 45.8746 136.619 45.955 136.539 46.116C136.46 46.6793 136.222 47.0817 135.746 47.3232C134.952 47.8865 133.762 47.806 132.89 47.6451C130.906 47.3232 129.399 45.7941 128.129 44.5869C127.336 45.8746 125.67 48.6108 125.194 49.4961C127.495 51.5885 129.954 52.9566 132.652 53.2785C135.27 53.6809 137.967 53.1176 139.951 51.5885C141.617 50.3009 142.727 48.4499 143.045 46.1965C143.124 45.5527 143.203 44.9088 143.124 44.3455C147.408 44.1845 150.979 43.8626 153.279 43.7017C153.993 44.265 154.39 44.9088 154.39 45.7136C154.39 45.8746 154.39 45.955 154.311 46.116C154.231 46.6793 153.914 47.0817 153.517 47.3232C152.724 47.8865 151.534 47.806 150.661 47.6451C148.678 47.3232 147.17 45.7941 145.901 44.5869C145.108 45.8746 143.442 48.6108 142.965 49.4961C145.266 51.5885 147.726 52.9566 150.423 53.2785C153.121 53.6809 155.739 53.1176 157.643 51.5885C159.388 50.3009 160.42 48.4499 160.737 46.1965C160.896 44.9088 160.896 43.7821 160.578 42.8164C161.53 42.6554 162.482 42.4945 163.355 42.414C162.641 47.2427 162.006 51.8299 161.927 52.7152H176.684C176.842 51.669 177.239 49.0132 177.398 47.7256H168.671L169.305 43.4602H177.398C177.557 42.575 177.795 40.563 178.033 39.1949C179.143 38.873 179.699 38.6315 179.699 38.6315C179.699 38.6315 182.475 37.8267 185.966 36.4586C185.49 40.0801 183.903 51.1861 183.665 52.7152H190.012C190.25 51.3471 192.472 35.3319 192.472 35.3319H197.073C197.232 34.3662 197.629 31.1471 197.867 29.6985C195.566 31.0666 191.044 33.159 184.538 35.3319Z" fill="white"/>
<path d="M140.823 39.8434C140.268 39.441 139.633 39.0386 138.919 38.7167L137.253 37.8314C136.698 37.5095 135.508 36.7852 135.508 35.578C135.508 35.0147 135.746 34.4514 136.143 34.1294C136.698 33.6466 137.491 33.4856 138.285 33.6466C139.395 33.8075 140.585 34.5318 141.934 35.739C142.569 34.4514 143.838 32.037 144.235 31.2322C142.648 29.9446 141.141 29.2203 138.919 28.8179C136.143 28.4155 133.445 28.9788 131.541 30.4275C129.954 31.6346 128.923 33.4856 128.685 35.6585C128.605 36.0609 128.605 36.3828 128.605 36.7047C128.605 37.751 128.764 38.6362 129.161 39.441C129.32 39.441 129.399 39.441 129.558 39.441C132.414 39.6824 136.301 39.8434 140.823 39.8434Z" fill="white"/>
<path d="M170.575 34.6029H179.302C179.461 33.5567 179.857 30.9009 180.016 29.6133H165.497C165.418 30.1766 164.863 34.1201 164.228 38.6268C166.211 38.3854 168.195 38.0635 170.178 37.7416L170.575 34.6029Z" fill="white"/>
<path d="M24.8326 63.8103C24.2772 63.086 23.4045 62.6836 22.2938 62.6836C21.7384 62.6836 21.2624 62.7641 20.8657 63.0055C20.469 63.2469 20.0723 63.5689 19.755 63.9712V62.8445H19.517H18.4062V74.9967H19.755V71.5362V70.1681C20.3103 70.9728 21.1831 71.3752 22.2938 71.3752C23.4045 71.3752 24.1979 70.9728 24.8326 70.2485C25.4673 69.4437 25.7053 68.3975 25.7053 67.0294C25.7053 65.5808 25.3879 64.5346 24.8326 63.8103ZM23.7218 69.3633C23.3252 69.9266 22.7698 70.2485 22.1351 70.2485C21.3417 70.2485 20.707 70.0071 20.3103 69.5242C19.9137 69.0414 19.755 68.1561 19.755 67.0294V66.788C19.755 65.8222 19.9137 65.0175 20.3103 64.6151C20.707 64.1322 21.2624 63.8908 22.0558 63.8908C22.7698 63.8908 23.3252 64.1322 23.7218 64.6955C24.1185 65.2589 24.2772 65.9832 24.2772 67.0294C24.2772 67.9951 24.1185 68.7999 23.7218 69.3633Z" fill="white"/>
<path d="M34.8291 70.1792C34.5911 70.1792 34.3531 70.2597 34.1944 70.2597C33.7977 70.2597 33.4804 70.0987 33.2424 69.8573C33.0044 69.6159 32.925 69.2135 32.925 68.7306V64.3043V63.8214H35.3051V62.7752H32.925V60.8438H32.1317H31.5763V62.6143V62.7752H31.2589H30.3862V63.1776V63.8214H31.5763V64.3043V68.7306C31.5763 70.4206 32.3697 71.3059 34.0357 71.3059C34.2738 71.3059 34.5911 71.3059 34.8291 71.2254C35.0671 71.1449 35.3051 71.1449 35.3845 71.0645V70.0183C35.2258 70.0987 35.0671 70.1792 34.8291 70.1792Z" fill="white"/>
<path d="M10.1544 64.776C10.7098 64.3736 11.6619 64.0517 11.6619 64.0517C12.0585 63.8908 12.6139 63.8103 13.0106 63.8103C13.6453 63.8103 14.042 63.9712 14.28 64.2932C14.518 64.6151 14.6767 65.0979 14.6767 65.6613V66.1441L13.2486 66.2246C10.6305 66.3051 9.28174 67.1904 9.28174 68.8804C9.28174 69.6852 9.51975 70.2485 9.99577 70.7314C10.4718 71.1338 11.1065 71.3752 11.8999 71.3752C12.5346 71.3752 13.0106 71.2948 13.4073 71.1338C13.804 70.9728 14.2006 70.8119 14.5973 70.2485V71.2143H14.9147H15.8667V69.6047V65.5003C15.8667 64.5346 15.6287 63.8103 15.1527 63.3274C14.6767 62.8445 13.9626 62.6836 12.9313 62.6836C12.4552 62.6836 11.8205 62.8445 11.3445 62.925C10.8685 63.086 10.3925 63.2469 9.99577 63.4884V64.776H10.1544ZM14.042 69.6047C13.6453 70.0071 13.0106 70.2485 12.2172 70.2485C11.7412 70.2485 11.3445 70.1681 11.1065 69.9266C10.8685 69.6852 10.7098 69.3633 10.7098 68.8804C10.7098 68.3171 10.9478 67.9147 11.3445 67.5928C11.7412 67.3513 12.4552 67.1904 13.4073 67.1099L14.5973 67.0294V67.7537C14.6767 68.639 14.518 69.2023 14.042 69.6047Z" fill="white"/>
<path d="M36.9718 64.776C37.5272 64.3736 38.4792 64.0517 38.4792 64.0517C38.8759 63.8908 39.4313 63.8103 39.828 63.8103C40.4627 63.8103 40.8593 63.9712 41.0974 64.2932C41.3354 64.6151 41.494 65.0979 41.494 65.6613V66.1441L40.066 66.2246C37.4479 66.3051 36.0991 67.1904 36.0991 68.8804C36.0991 69.6852 36.3371 70.2485 36.8132 70.7314C37.2892 71.1338 37.9239 71.3752 38.7172 71.3752C39.3519 71.3752 39.828 71.2948 40.2247 71.1338C40.6213 70.9728 41.018 70.8119 41.4147 70.2485V71.2143H41.7321H42.6841V69.6047V65.5003C42.6841 64.5346 42.4461 63.8103 41.9701 63.3274C41.4941 62.8445 40.78 62.6836 39.7486 62.6836C39.2726 62.6836 38.6379 62.8445 38.1619 62.925C37.6859 63.086 37.2098 63.2469 36.8132 63.4884V64.776H36.9718ZM40.8594 69.6047C40.3833 70.0071 39.828 70.2485 39.0346 70.2485C38.5586 70.2485 38.1619 70.1681 37.9239 69.9266C37.6859 69.6852 37.5272 69.3633 37.5272 68.8804C37.5272 68.3171 37.7652 67.9147 38.1619 67.5928C38.5586 67.3513 39.2726 67.1904 40.2247 67.1099L41.4147 67.0294V67.7537C41.494 68.639 41.3354 69.2023 40.8594 69.6047Z" fill="white"/>
<path d="M27.6099 60.5923C27.6099 60.2704 27.6892 60.0289 27.8479 59.9485C28.0066 59.7875 28.1652 59.707 28.4032 59.707C28.6412 59.707 28.7999 59.7875 28.9586 59.9485C29.1173 60.1094 29.1966 60.2704 29.1966 60.5923C29.1966 60.9142 29.1173 61.0752 28.9586 61.2361C28.7999 61.3971 28.6412 61.4776 28.4032 61.4776C28.1652 61.4776 28.0066 61.3971 27.8479 61.2361C27.6892 61.0752 27.6099 60.8337 27.6099 60.5923ZM29.0379 71.2154H27.6892V62.8457H29.0379V71.2154Z" fill="white"/>
<path d="M46.5709 71.2154H45.2222V59.3047H46.5709V71.2154Z" fill="white"/>
<path d="M5.31559 61.154C6.10896 61.154 6.90234 61.3955 7.77505 61.7979C8.01306 61.8783 8.33041 62.0393 8.33041 62.1198V60.6712C7.4577 60.2688 6.42631 60.0273 5.31559 60.0273C4.20487 60.0273 3.25283 60.2688 2.45945 60.7516C1.66608 61.2345 1.03138 61.8783 0.634699 62.7636C0.238013 63.6489 0 64.6146 0 65.7413C0 67.5923 0.396687 68.9604 1.34873 70.0066C2.22144 70.9724 3.49084 71.5357 5.07758 71.5357C5.63294 71.5357 6.10896 71.5357 6.58499 71.4552C6.98167 71.3748 7.85438 71.1333 8.33041 70.9724V69.7652C7.37836 70.0871 6.02963 70.3285 5.23626 70.3285C4.0462 70.3285 3.09415 69.9262 2.45945 69.1214C1.82476 68.3166 1.50741 67.2704 1.50741 65.8218C1.50741 64.4536 1.82475 63.3269 2.53879 62.5222C3.25282 61.5564 4.12553 61.154 5.31559 61.154Z" fill="white"/>
<path d="M92.1903 62.6914C91.0796 62.6914 90.2069 63.0938 89.4928 63.8986C88.8581 64.7034 88.5408 65.7496 88.5408 67.1177C88.5408 68.4858 88.8581 69.532 89.5722 70.2563C90.2862 70.9806 91.2382 71.383 92.5076 71.383C93.063 71.383 93.539 71.3026 93.9357 71.2221C94.3324 71.1416 94.7291 70.9806 95.2051 70.8197V69.6125C94.6497 69.854 94.1737 70.0149 93.777 70.0954C93.3803 70.1759 92.9837 70.1759 92.5076 70.1759C91.7143 70.1759 91.0796 69.9344 90.6035 69.4516C90.1275 68.9687 89.8895 68.2444 89.8895 67.2787H95.5224V66.4739C95.5224 65.3472 95.2051 64.3814 94.5704 63.7376C94.015 63.0133 93.2217 62.6914 92.1903 62.6914ZM89.9688 66.2324C90.0482 65.5081 90.2862 64.8643 90.6035 64.4619C91.0002 64.0595 91.4762 63.8181 92.1109 63.8181C92.7456 63.8181 93.2217 64.0595 93.539 64.4619C93.8564 64.8643 94.0944 65.4277 94.0944 66.2324H89.9688Z" fill="white"/>
<path d="M100.203 70.2519C99.8063 70.2519 99.4889 70.0909 99.2509 69.8495C99.0129 69.608 98.9336 69.2057 98.9336 68.7228V64.2965V63.8136H101.314V62.7674H98.9336V60.8359H98.1402H97.5848V62.6065V62.7674H97.2675H96.3948V63.1698V63.8136H97.5848V64.2965V68.7228C97.5848 70.4128 98.3782 71.2981 99.9649 71.2981C100.203 71.2981 100.52 71.2981 100.758 71.2176C100.996 71.1371 101.234 71.1371 101.314 71.0567V70.0104C101.234 70.0909 100.996 70.0909 100.758 70.1714C100.6 70.2519 100.441 70.2519 100.203 70.2519Z" fill="white"/>
<path d="M69.6585 62.6914C69.1825 62.6914 68.5478 62.8524 68.0718 62.9328C67.5958 63.0938 67.1197 63.2548 66.723 63.4962V64.7838C67.2784 64.3814 68.2305 64.0595 68.2305 64.0595C68.6271 63.8986 69.1825 63.8181 69.5792 63.8181C70.2139 63.8181 70.6106 63.9791 70.8486 64.301C71.0866 64.6229 71.2453 65.1057 71.2453 65.7496V66.2324L69.8172 66.3129C67.1991 66.3934 65.8503 67.2787 65.8503 68.9687C65.8503 69.7735 66.0884 70.3368 66.5644 70.8197C67.0404 71.2221 67.6751 71.4635 68.4685 71.4635C69.1032 71.4635 69.5792 71.383 69.9759 71.2221C70.3726 71.0611 70.7692 70.9002 71.1659 70.3368V71.3026H71.4833H72.4353V69.693V65.5886C72.4353 64.6229 72.1973 63.8986 71.7213 63.4157C71.4039 62.9328 70.6899 62.6914 69.6585 62.6914ZM71.2453 67.842C71.2453 68.5663 71.0073 69.2101 70.6106 69.6125C70.2139 70.0149 69.5792 70.2563 68.8652 70.2563C68.3891 70.2563 67.9924 70.1759 67.7544 69.9344C67.5164 69.693 67.3577 69.3711 67.3577 68.8882C67.3577 68.3249 67.5958 67.9225 67.9924 67.6006C68.3891 67.3591 69.1032 67.1982 70.0552 67.1177L71.2453 67.0372V67.842Z" fill="white"/>
<path d="M107.265 67.1177C106.947 66.8763 106.392 66.6348 105.757 66.3934C104.805 66.0715 104.25 65.7496 104.012 65.5886C103.774 65.4277 103.615 65.1057 103.615 64.8643C103.615 64.5424 103.774 64.301 104.012 64.14C104.329 63.9791 104.726 63.8986 105.281 63.8986C105.837 63.8986 106.471 64.0595 107.185 64.301C107.503 64.4619 108.058 64.7034 108.058 64.7034V63.2548C107.265 62.8524 106.392 62.6914 105.44 62.6914C104.488 62.6914 103.694 62.8524 103.139 63.2548C102.584 63.6571 102.346 64.2205 102.346 64.8643C102.346 65.2667 102.425 65.5886 102.584 65.83C102.742 66.0715 102.98 66.3129 103.298 66.5544C103.615 66.7958 104.17 67.0372 104.964 67.3591C105.757 67.681 106.233 67.9225 106.551 68.1639C106.868 68.4053 107.027 68.6468 107.027 68.9687C107.027 69.3711 106.868 69.6125 106.551 69.854C106.233 70.0954 105.757 70.1759 105.043 70.1759C104.17 70.1759 103.298 69.9344 102.425 69.532V70.8197C103.06 71.1416 103.932 71.383 105.043 71.383C106.075 71.383 106.868 71.1416 107.503 70.7392C108.058 70.3368 108.375 69.693 108.375 68.8882C108.375 68.4858 108.296 68.1639 108.137 67.9225C107.82 67.6006 107.582 67.3591 107.265 67.1177Z" fill="white"/>
<path d="M76.3226 64.3767V62.8477H74.9739V64.6182V71.2174H76.3226V67.5154C76.3226 66.6301 76.4813 66.0668 76.5606 65.9058C76.64 65.7449 76.64 65.6644 76.7193 65.5034C76.9573 65.101 77.2747 64.7791 77.7507 64.4572C78.2267 64.2158 78.8614 63.9744 79.7341 63.9744V62.8477C77.1953 62.9281 76.3226 64.3767 76.3226 64.3767Z" fill="white"/>
<path d="M61.8833 60.0352L58.4718 69.2097H58.3925L54.981 60.0352H54.3463H52.9976V71.2216H54.267H54.3463V61.8057L57.8371 71.2216H58.9478L62.5974 61.5642V64.381V71.2216H63.9461V60.0352H62.5974H61.8833Z" fill="white"/>
<path d="M84.2563 66.3063L87.5884 62.8457H86.081L82.4315 66.6282V59.3047H81.1621V71.2154H82.4315V68.2378L83.3836 67.272L86.2397 71.2154H87.9058L84.2563 66.3063Z" fill="white"/>
</svg>
