<svg width="28" height="28" viewBox="0 0 28 28" fill="none" xmlns="http://www.w3.org/2000/svg">
<path d="M4.97656 16.4609V14.8203H6.61719V8.25781H4.97656V6.61719H3.33594V8.25781H1.69531V14.8203H3.33594V16.4609H4.97656Z" fill="#999999"/>
<path d="M11.5391 13.1797V11.5391H13.1797V4.97656H11.5391V3.33594H9.89844V4.97656H8.25781V11.5391H9.89844V13.1797H11.5391Z" fill="#999999"/>
<path d="M18.1016 11.5391V9.89844H19.7422V3.33594H18.1016V1.69531H16.4609V3.33594H14.8203V9.89844H16.4609V11.5391H18.1016Z" fill="#999999"/>
<path d="M24.6641 0H23.0234V1.64062H21.3828V8.25781H23.0234V9.89844H24.6641V8.25781H26.3047V1.64062H24.6641V0Z" fill="#999999"/>
<path d="M26.4849 16.0159L27.3685 12.2371L23.8149 10.6758L23.1548 12.177L24.4844 12.7614L20.3686 14.819H13.8061L7.24363 18.1003H0.820312V19.7409H7.63137L14.1939 16.4596H20.7564L25.2177 14.2293L24.8876 15.6426L26.4849 16.0159Z" fill="#999999"/>
<path d="M26.3594 18.1016H21.3828V26.3594H19.7422V18.1016H14.8203V26.3594H13.1797V19.2351L8.25781 21.6961V26.3594H6.61719V21.3828H1.64062V26.3594H0V28H28V26.3594H26.3594V18.1016Z" fill="#999999"/>
</svg>
