<svg width="20" height="20" viewBox="0 0 20 20" fill="none" xmlns="http://www.w3.org/2000/svg">
<path d="M4.36436 8.52299L4.11154 8.39659L3.90798 8.59269C3.66185 8.82979 3.33188 8.975 2.96875 8.975C2.22043 8.975 1.61094 8.36551 1.61094 7.61719C1.61094 6.86886 2.22043 6.25938 2.96875 6.25938C3.71707 6.25938 4.32656 6.86886 4.32656 7.61719C4.32656 7.64356 4.32398 7.66227 4.31868 7.70061C4.31589 7.72077 4.31235 7.74635 4.30804 7.78133L4.27353 8.06167L4.52617 8.18798L6.26064 9.05513L6.51346 9.18153L6.71702 8.98543C6.96315 8.74833 7.29312 8.60312 7.65625 8.60312C7.85985 8.60312 8.05444 8.65298 8.23656 8.74016L8.49192 8.8624L8.69211 8.66221L11.045 6.3093L11.2452 6.10911L11.123 5.85375C11.0358 5.67163 10.9859 5.47704 10.9859 5.27344C10.9859 4.52511 11.5954 3.91563 12.3438 3.91563C12.6211 3.91563 12.8786 3.99969 13.0946 4.14396L13.3302 4.30128L13.5568 4.13137L15.6011 2.59847L15.8275 2.42877L15.7429 2.15883C15.6988 2.0183 15.6734 1.88753 15.6734 1.75781C15.6734 1.00949 16.2829 0.4 17.0312 0.4C17.7796 0.4 18.3891 1.00949 18.3891 1.75781C18.3891 2.50614 17.7796 3.11562 17.0312 3.11562C16.7539 3.11562 16.4964 3.03156 16.2804 2.88729L16.0448 2.72997L15.8182 2.89988L13.7739 4.43278L13.5475 4.60248L13.6321 4.87242C13.6762 5.01295 13.7016 5.14372 13.7016 5.27344C13.7016 6.02176 13.0921 6.63125 12.3438 6.63125C12.1401 6.63125 11.9456 6.5814 11.7634 6.49422L11.5081 6.37198L11.3079 6.57217L8.95498 8.92507L8.75479 9.12526L8.87703 9.38063C8.96421 9.56275 9.01406 9.75733 9.01406 9.96094C9.01406 10.7093 8.40457 11.3188 7.65625 11.3188C6.90793 11.3188 6.29844 10.7093 6.29844 9.96094C6.29844 9.93456 6.30102 9.91585 6.30633 9.87751C6.30911 9.85736 6.31265 9.83177 6.31696 9.7968L6.35147 9.51646L6.09883 9.39015L4.36436 8.52299Z" stroke="#999999" stroke-width="0.8"/>
<path d="M18.3891 18.8281V19.2281H18.7891H19.4141C19.5169 19.2281 19.6 19.3112 19.6 19.4141C19.6 19.5169 19.5169 19.6 19.4141 19.6H0.585938C0.48306 19.6 0.4 19.5169 0.4 19.4141C0.4 19.3112 0.48306 19.2281 0.585938 19.2281H1.21094H1.61094V18.8281V12.3047C1.61094 12.2018 1.694 12.1188 1.79688 12.1188H4.14062C4.2435 12.1188 4.32656 12.2018 4.32656 12.3047V18.8281V19.2281H4.72656H5.89844H6.29844V18.8281V14.6484C6.29844 14.5456 6.3815 14.4625 6.48438 14.4625H8.82812C8.931 14.4625 9.01406 14.5456 9.01406 14.6484V18.8281V19.2281H9.41406H10.5859H10.9859V18.8281V9.96094C10.9859 9.85806 11.069 9.775 11.1719 9.775H13.5156C13.6185 9.775 13.7016 9.85806 13.7016 9.96094V18.8281V19.2281H14.1016H15.2734H15.6734V18.8281V6.44531C15.6734 6.34243 15.7565 6.25938 15.8594 6.25938H18.2031C18.306 6.25938 18.3891 6.34243 18.3891 6.44531V18.8281Z" stroke="#999999" stroke-width="0.8"/>
</svg>
