<svg width="28" height="28" viewBox="0 0 28 28" fill="none" xmlns="http://www.w3.org/2000/svg">
<path d="M28 14C28 6.26816 21.7318 0 14 0C6.26816 0 0 6.26816 0 14C0 21.7318 6.26816 28 14 28C21.7318 28 28 21.7318 28 14ZM21.6364 11.4546C23.0414 11.4546 24.1818 12.5949 24.1818 14C24.1818 15.4051 23.0414 16.5455 21.6364 16.5455C20.23 16.5455 19.0909 15.4064 19.0909 14C19.0909 12.5936 20.23 11.4546 21.6364 11.4546ZM6.36364 16.5455C4.95728 16.5455 3.8182 15.4064 3.8182 14C3.8182 12.5936 4.95728 11.4546 6.36364 11.4546C7.76872 11.4546 8.90908 12.5949 8.90908 14C8.90908 15.4051 7.76872 16.5455 6.36364 16.5455ZM11.4546 14C11.4546 12.5936 12.5936 11.4546 14 11.4546C15.4051 11.4546 16.5455 12.5949 16.5455 14C16.5455 15.4051 15.4051 16.5455 14 16.5455C12.5936 16.5455 11.4546 15.4064 11.4546 14Z" fill="#F58220"/>
</svg>
