<svg width="28" height="28" viewBox="0 0 28 28" fill="none" xmlns="http://www.w3.org/2000/svg">
<path d="M15.7163 5.18188L14.0791 1L16.8604 1.76931L18.3991 1L19.9377 1.76931L22.6007 1L21.1607 5.18188H15.7163Z" fill="#F58220"/>
<path d="M1 26.9992V22.5806C2.5978 21.8047 6.02221 20.1149 6.93749 19.5626C7.85277 19.0103 9.29144 19.0957 9.89637 19.2075L14.7095 20.7461C15.4722 20.8316 17.0056 21.2196 17.0371 22.0875C17.0766 23.1724 15.538 22.8568 15.3999 22.8174C15.2894 22.7858 14.315 22.5412 13.8415 22.4228C13.4404 22.3768 12.6817 22.4307 12.8552 23.0146C13.0288 23.5985 14.7161 23.876 15.538 23.9417C18.3785 24.6834 20.7193 24.2507 21.5346 23.9417L24.6908 23.0146C25.2957 22.8371 26.6357 22.5885 27.1565 23.0146C27.6773 23.4407 26.8343 24.1258 26.3477 24.4151C24.8749 24.974 21.5544 26.2023 20.0552 26.6442C18.556 27.086 16.8662 26.8283 16.2086 26.6442C13.7561 26.2299 8.6852 25.4014 8.02241 25.4014H6.58242L1 26.9992Z" fill="#F58220"/>
<path fill-rule="evenodd" clip-rule="evenodd" d="M9.52246 18.1812C8.43096 15.4788 8.21266 9.2888 16.0714 6.14844H20.7465C22.9624 6.99665 27.4651 9.84901 27.7492 14.4728C28.1042 20.2524 23.8237 23.0732 17.7087 23.3494C18.0966 22.5735 18.4346 20.9152 16.683 20.4891C14.9313 20.0631 11.1794 18.773 9.52246 18.1812ZM15.8336 15.0616L18.157 19.1278H19.4109L17.0629 15.2464C17.7186 15.1561 18.2431 14.9466 18.6364 14.618C19.038 14.2812 19.2675 13.813 19.3248 13.2133H20.9229V12.4247H19.3002C19.2265 11.8744 18.9929 11.439 18.5996 11.1186H20.9229V10.33H15.8336V11.1186H16.1041C16.7269 11.1186 17.2104 11.2213 17.5547 11.4267C17.907 11.632 18.1242 11.9647 18.2062 12.4247H15.8336V13.2133H18.2185C18.1611 13.7062 17.9562 14.0471 17.6038 14.236C17.2596 14.425 16.7597 14.5194 16.1041 14.5194H15.8336V15.0616Z" fill="#F58220"/>
</svg>
