<svg width="28" height="28" viewBox="0 0 28 28" fill="none" xmlns="http://www.w3.org/2000/svg">
<g clip-path="url(#clip0)">
<path d="M4.94092 4.94141H26.3527V8.23553H4.94092V4.94141Z" fill="#F58220"/>
<path d="M4.94071 9.88379V23.8838V24.7073C4.94071 25.3044 4.78309 25.8677 4.50342 26.3544H23.1133C25.8076 26.3544 27.9995 24.1624 27.9995 21.4681V9.88379C25.9612 9.88379 10.1663 9.88379 4.94071 9.88379ZM17.2937 20.5897H8.23483V12.3544H17.2937V20.5897ZM24.7054 20.5897H18.9407V18.9426H24.7054V20.5897ZM24.7054 17.2956H18.9407V15.6485H24.7054V17.2956ZM24.7054 14.0014H18.9407V12.3544H24.7054V14.0014Z" fill="#F58220"/>
<path d="M9.88281 14H15.6475V18.9412H9.88281V14Z" fill="#F58220"/>
<path d="M8.64706 1.64746C7.59042 1.64746 5.32088 1.64746 3.29412 1.64746C1.94556 1.64746 0.704502 1.64746 0 1.64746V23.8828V24.7063C0 25.6159 0.737443 26.3533 1.64706 26.3533C1.77432 26.3533 1.89807 26.3384 2.0171 26.3111C2.7485 26.1431 3.29412 25.4886 3.29412 24.7063V3.29452H9.88235L8.64706 1.64746Z" fill="#F58220"/>
</g>
<defs>
<clipPath id="clip0">
<rect width="28" height="28" fill="white"/>
</clipPath>
</defs>
</svg>
