<svg width="28" height="28" viewBox="0 0 28 28" fill="none" xmlns="http://www.w3.org/2000/svg">
<g clip-path="url(#clip0)">
<path d="M4.94092 4.94141H26.3527V8.23553H4.94092V4.94141Z" fill="#999999"/>
<path d="M4.94096 9.88281V23.8828V24.7063C4.94096 25.3035 4.78333 25.8667 4.50366 26.3534H23.1135C25.8078 26.3534 27.9998 24.1614 27.9998 21.4671V9.88281C25.9614 9.88281 10.1665 9.88281 4.94096 9.88281ZM17.2939 20.5887H8.23507V12.3534H17.2939V20.5887ZM24.7057 20.5887H18.941V18.9416H24.7057V20.5887ZM24.7057 17.2946H18.941V15.6475H24.7057V17.2946ZM24.7057 14.0005H18.941V12.3534H24.7057V14.0005Z" fill="#999999"/>
<path d="M9.88281 14H15.6475V18.9412H9.88281V14Z" fill="#999999"/>
<path d="M8.64706 1.64844C7.59042 1.64844 5.32088 1.64844 3.29412 1.64844C1.94556 1.64844 0.704502 1.64844 0 1.64844V23.8837V24.7073C0 25.6169 0.737443 26.3543 1.64706 26.3543C1.77432 26.3543 1.89807 26.3394 2.0171 26.312C2.7485 26.144 3.29412 25.4896 3.29412 24.7073V3.2955H9.88235L8.64706 1.64844Z" fill="#999999"/>
</g>
<defs>
<clipPath id="clip0">
<rect width="28" height="28" fill="white"/>
</clipPath>
</defs>
</svg>
