<svg width="28" height="28" viewBox="0 0 28 28" fill="none" xmlns="http://www.w3.org/2000/svg">
<path d="M22.2341 25.9719L28.0006 16.3077V7.18441C28.0006 6.5433 27.4783 6.02148 26.8366 6.02148C26.1947 6.02148 25.6724 6.5433 25.6724 7.18441V14.3867L19.4067 20.8612L18.2274 19.722L21.5768 16.2611C21.9955 15.7709 21.9686 15.028 21.5031 14.5704C21.0171 14.0928 20.2306 14.0969 19.75 14.5803L14.8213 19.5352V27.999H22.2339V25.9719H22.2341Z" fill="#F58220"/>
<path d="M13.1798 27.999V19.5352L8.25109 14.5803C7.77046 14.0971 6.98393 14.0926 6.49796 14.5704C6.0325 15.028 6.00558 15.7709 6.42427 16.2611L9.77351 19.722L8.59436 20.8612L2.32866 14.3867V7.18441C2.32866 6.5433 1.80637 6.02148 1.16447 6.02148C0.522773 6.02148 0.000488281 6.5433 0.000488281 7.18441V16.3077L5.76698 25.9719V27.999H13.1798Z" fill="#F58220"/>
<path fill-rule="evenodd" clip-rule="evenodd" d="M14.3333 14.0152C18.207 14.0152 21.3472 10.8778 21.3472 7.00758C21.3472 3.1374 18.207 0 14.3333 0C10.4596 0 7.31934 3.1374 7.31934 7.00758C7.31934 10.8778 10.4596 14.0152 14.3333 14.0152ZM12.1982 7.30696L14.1473 10.9682H15.1992L13.2295 7.47338C13.7795 7.39202 14.2195 7.20341 14.5495 6.90755C14.8864 6.6043 15.0789 6.1827 15.127 5.64276H16.4676V4.9327H15.1064C15.0445 4.43714 14.8485 4.04512 14.5185 3.75666H16.4676V3.0466H12.1982V3.75666H12.4251C12.9476 3.75666 13.3532 3.84912 13.642 4.03403C13.9376 4.21894 14.1198 4.5185 14.1885 4.9327H12.1982V5.64276H14.1989C14.1507 6.08655 13.9789 6.3935 13.6832 6.56362C13.3945 6.73374 12.9751 6.8188 12.4251 6.8188H12.1982V7.30696Z" fill="#F58220"/>
</svg>
