<svg width="28" height="28" viewBox="0 0 28 28" fill="none" xmlns="http://www.w3.org/2000/svg">
<path d="M22.2339 25.97L28.0003 16.3057V7.18245C28.0003 6.54134 27.4781 6.01953 26.8364 6.01953C26.1945 6.01953 25.6722 6.54134 25.6722 7.18245V14.3847L19.4065 20.8592L18.2271 19.72L21.5766 16.2592C21.9952 15.769 21.9683 15.0261 21.5029 14.5685C21.0169 14.0908 20.2304 14.0949 19.7497 14.5783L14.821 19.5333V27.9971H22.2336V25.97H22.2339Z" fill="#999999"/>
<path d="M13.1795 27.9971V19.5333L8.25084 14.5783C7.77021 14.0951 6.98369 14.0906 6.49772 14.5685C6.03226 15.0261 6.00534 15.769 6.42402 16.2592L9.77326 19.72L8.59412 20.8592L2.32841 14.3847V7.18245C2.32841 6.54134 1.80613 6.01953 1.16422 6.01953C0.522529 6.01953 0.000244141 6.54134 0.000244141 7.18245V16.3057L5.76673 25.97V27.9971H13.1795Z" fill="#999999"/>
<path fill-rule="evenodd" clip-rule="evenodd" d="M14.3333 14.0152C18.207 14.0152 21.3472 10.8778 21.3472 7.00758C21.3472 3.1374 18.207 0 14.3333 0C10.4596 0 7.31934 3.1374 7.31934 7.00758C7.31934 10.8778 10.4596 14.0152 14.3333 14.0152ZM12.1982 7.30696L14.1473 10.9682H15.1992L13.2295 7.47338C13.7795 7.39202 14.2195 7.20341 14.5495 6.90755C14.8864 6.6043 15.0789 6.1827 15.127 5.64276H16.4676V4.9327H15.1064C15.0445 4.43714 14.8485 4.04512 14.5185 3.75666H16.4676V3.0466H12.1982V3.75666H12.4251C12.9476 3.75666 13.3532 3.84912 13.642 4.03403C13.9376 4.21894 14.1198 4.5185 14.1885 4.9327H12.1982V5.64276H14.1989C14.1507 6.08655 13.9789 6.3935 13.6832 6.56362C13.3945 6.73374 12.9751 6.8188 12.4251 6.8188H12.1982V7.30696Z" fill="#999999"/>
</svg>
