<svg width="28" height="28" viewBox="0 0 28 28" fill="none" xmlns="http://www.w3.org/2000/svg">
<path d="M6.29233 17.5949L7.74476 19.0473L10.2252 16.5427C7.84181 13.7018 7.33473 9.9488 8.44261 6.77103L11.7431 10.0715C11.715 13.3899 14.4167 16.29 17.9419 16.29C20.0113 16.29 21.8468 15.2705 22.9733 13.7077L19.2261 9.96032L16.6275 12.559L6.96352 2.89506V5.0863H5.26874L5.26879 0.00195312H10.3531V1.69668L8.1619 1.69674L16.6275 10.1623L19.2261 7.56356L23.7951 12.1325C24.5444 9.99026 24.0884 7.47108 22.3252 5.70783C20.0662 3.44891 16.5179 3.30418 14.0943 5.23024L11.3542 2.49012C15.3013 -0.941023 21.2903 -0.784877 25.0541 2.97889C26.9538 4.87858 27.9999 7.40442 27.9999 10.091C27.9999 15.6372 23.4879 20.1494 17.9418 20.1494C15.5237 20.1494 13.2361 19.3015 11.4179 17.7469L8.94308 20.2457L10.4014 21.7041L4.10922 27.9964L0 23.8872L6.29233 17.5949Z" fill="#F58220"/>
<path d="M14.4126 22.9141H27.9708V24.6088H14.4126V22.9141Z" fill="#F58220"/>
<path d="M9.32764 26.3027H19.4963V27.9975H9.32764V26.3027Z" fill="#F58220"/>
</svg>
