<svg width="28" height="28" viewBox="0 0 28 28" fill="none" xmlns="http://www.w3.org/2000/svg">
<path d="M6.29233 17.5929L7.74476 19.0453L10.2252 16.5407C7.84181 13.6998 7.33473 9.94684 8.44261 6.76907L11.7431 10.0695C11.715 13.3879 14.4167 16.2881 17.9419 16.2881C20.0113 16.288 21.8468 15.2686 22.9733 13.7057L19.2261 9.95837L16.6275 12.5571L6.96352 2.89311V5.08435H5.26874L5.26879 0H10.3531V1.69473L8.1619 1.69478L16.6275 10.1604L19.2261 7.56161L23.7951 12.1306C24.5444 9.98831 24.0884 7.46913 22.3252 5.70588C20.0662 3.44696 16.5179 3.30223 14.0943 5.22829L11.3542 2.48817C15.3013 -0.942977 21.2903 -0.786831 25.0541 2.97694C26.9538 4.87662 27.9999 7.40247 27.9999 10.0891C27.9999 15.6352 23.4879 20.1474 17.9418 20.1475C15.5237 20.1475 13.2361 19.2995 11.4179 17.7449L8.94308 20.2438L10.4014 21.7021L4.10922 27.9945L0 23.8852L6.29233 17.5929Z" fill="#999999"/>
<path d="M14.4126 22.9102H27.9708V24.6049H14.4126V22.9102Z" fill="#999999"/>
<path d="M9.32764 26.3008H19.4963V27.9955H9.32764V26.3008Z" fill="#999999"/>
</svg>
