<svg width="28" height="28" viewBox="0 0 28 28" fill="none" xmlns="http://www.w3.org/2000/svg">
<g clip-path="url(#clip0)">
<path d="M20.2268 15.3348L18.3598 17.2019L18.3598 17.2018L5.46336 4.30537L6.45449 3.31424L2.34478 0.00195312L0 2.34673L3.31228 6.45639L4.30347 5.46526L17.1999 18.3617L15.3329 20.2288L17.9956 22.8914L22.8894 17.9975L20.2268 15.3348Z" fill="#F58220"/>
<path d="M24.0496 19.1572L19.1558 24.0511L22.092 26.9873C22.7456 27.6409 23.6146 28.0008 24.5389 28.0008C25.4633 28.0008 26.3323 27.6409 26.9859 26.9873C28.3351 25.638 28.3351 23.4427 26.9859 22.0934L24.0496 19.1572Z" fill="#F58220"/>
<path d="M14.1711 17.6517L10.3486 13.8291L7.54996 16.6273C5.49431 15.9831 3.25109 16.5212 1.70402 18.0689C0.605375 19.1675 0 20.6281 0 22.1824C0 23.736 0.605375 25.1972 1.70402 26.2958C2.83821 27.43 4.32786 27.9971 5.81751 27.9971C7.30716 27.9971 8.79735 27.43 9.931 26.2958C11.4786 24.7488 12.0167 22.5055 11.3725 20.4499L14.1711 17.6517ZM7.14911 23.5134C6.41359 24.2489 5.22143 24.2489 4.48645 23.5134C3.75092 22.7784 3.75092 21.5862 4.48645 20.8507C5.22143 20.1157 6.41359 20.1157 7.14911 20.8507C7.8841 21.5862 7.8841 22.7784 7.14911 23.5134Z" fill="#F58220"/>
<path d="M27.6182 3.50885L27.161 2.3413L24.226 5.27631L23.0409 4.95858L22.7232 3.77353L25.6582 0.839077L24.4907 0.381354C22.4438 -0.420344 20.1174 0.0652686 18.5638 1.6189C17.1408 3.04183 16.6137 5.11389 17.1518 7.02517L13.8281 10.3492L17.6507 14.1718L20.9743 10.8477C21.4676 10.9866 21.9707 11.0544 22.4711 11.0544C23.911 11.0539 25.3246 10.4917 26.3806 9.43573C27.9343 7.88216 28.4199 5.55581 27.6182 3.50885V3.50885Z" fill="#F58220"/>
</g>
<defs>
<clipPath id="clip0">
<rect width="28" height="28" fill="white"/>
</clipPath>
</defs>
</svg>
