<svg width="28" height="28" viewBox="0 0 28 28" fill="none" xmlns="http://www.w3.org/2000/svg">
<g clip-path="url(#clip0)">
<path d="M20.2268 15.3329L18.3598 17.1999L18.3598 17.1999L5.46336 4.30341L6.45449 3.31228L2.34478 0L0 2.34478L3.31228 6.45444L4.30347 5.46331L17.1999 18.3598L15.3329 20.2268L17.9956 22.8894L22.8894 17.9956L20.2268 15.3329Z" fill="#999999"/>
<path d="M24.0499 19.1562L19.156 24.0501L22.0922 26.9863C22.7458 27.6399 23.6148 27.9999 24.5392 27.9999C25.4635 27.9999 26.3325 27.6399 26.9861 26.9863C28.3353 25.637 28.3353 23.4417 26.9861 22.0925L24.0499 19.1562Z" fill="#999999"/>
<path d="M14.1711 17.6507L10.3486 13.8281L7.54996 16.6264C5.49431 15.9822 3.25109 16.5203 1.70402 18.0679C0.605375 19.1665 0 20.6271 0 22.1814C0 23.735 0.605375 25.1962 1.70402 26.2949C2.83821 27.4291 4.32786 27.9961 5.81751 27.9961C7.30716 27.9961 8.79735 27.4291 9.931 26.2949C11.4786 24.7478 12.0167 22.5046 11.3725 20.4489L14.1711 17.6507ZM7.14912 23.5124C6.41359 24.2479 5.22143 24.2479 4.48645 23.5124C3.75092 22.7774 3.75092 21.5852 4.48645 20.8497C5.22143 20.1147 6.41359 20.1147 7.14912 20.8497C7.8841 21.5852 7.8841 22.7775 7.14912 23.5124Z" fill="#999999"/>
<path d="M27.6184 3.50885L27.1612 2.3413L24.2262 5.27631L23.0412 4.95858L22.7235 3.77353L25.6585 0.839077L24.4909 0.381354C22.444 -0.420344 20.1177 0.0652686 18.564 1.6189C17.1411 3.04183 16.6139 5.11389 17.152 7.02517L13.8284 10.3492L17.6509 14.1718L20.9746 10.8477C21.4679 10.9866 21.971 11.0544 22.4714 11.0544C23.9112 11.0539 25.3249 10.4917 26.3809 9.43573C27.9345 7.88216 28.4201 5.55581 27.6184 3.50885Z" fill="#999999"/>
</g>
<defs>
<clipPath id="clip0">
<rect width="28" height="28" fill="white"/>
</clipPath>
</defs>
</svg>
