<svg width="28" height="28" viewBox="0 0 28 28" fill="none" xmlns="http://www.w3.org/2000/svg">
<g clip-path="url(#clip0)">
<path d="M0.0109339 7.93909C0.0437336 7.83522 0.0765327 7.73682 0.109332 7.63296C0.399063 6.72003 1.18626 6.18977 2.13198 6.1187C2.91371 6.05857 3.5369 6.22803 3.99063 6.8895C4.01796 6.92776 4.05623 6.94963 4.1109 6.99883C4.37876 6.75283 4.64116 6.50683 4.92542 6.24443C5.16596 6.50683 5.39555 6.76376 5.65248 7.04256C5.95315 6.7583 6.19915 6.50683 6.46701 6.2827C6.55994 6.2007 6.70208 6.14057 6.82234 6.14057C9.41899 6.1351 12.0156 6.12964 14.6123 6.1351C15.4377 6.1351 16.0773 6.74736 16.0719 7.51269C16.0664 8.28895 15.4104 8.91761 14.5904 8.91761C12.4694 8.92308 10.3428 8.91761 8.22179 8.91761C8.0578 8.91761 7.89926 8.91761 7.70793 8.91761C7.70793 9.09254 7.70793 9.24561 7.70793 9.39321C7.70793 15.002 7.70793 20.6162 7.70793 26.2249C7.70793 26.8591 7.44554 27.116 6.81141 27.116C5.51582 27.116 4.2257 27.116 2.93011 27.116C2.35065 27.116 2.07732 26.8427 2.07732 26.2632C2.07732 23.437 2.07732 20.6162 2.07732 17.7899C2.07732 17.6478 2.07732 17.5002 2.07732 17.3143C1.12612 17.4237 0.349864 17.2214 0 16.2374C0.0109332 13.4768 0.0109339 10.7052 0.0109339 7.93909Z" fill="#F58220"/>
<path d="M28.0003 18.4896C27.9785 18.5388 27.9566 18.5826 27.9402 18.6372C27.7161 19.3862 27.1694 19.8016 26.3822 19.8016C24.0152 19.8071 21.6427 19.8016 19.2756 19.8016C16.4166 19.8016 13.5575 19.8016 10.693 19.8016C10.4744 19.8016 10.2557 19.8016 10.0425 19.7579C9.35918 19.6158 8.87265 19.0636 8.86719 18.3694C8.85625 15.5486 8.86172 12.7224 8.86172 9.87425C9.21705 9.87425 9.56691 9.87425 9.95504 9.87425C9.95504 9.97265 9.95504 10.082 9.95504 10.1859C9.95504 12.8098 9.95504 15.4338 9.95504 18.0578C9.95504 18.6208 10.048 18.7083 10.6001 18.7083C15.7934 18.7083 20.9867 18.7083 26.1745 18.7083C26.2292 18.7083 26.2838 18.7083 26.3385 18.7083C26.743 18.7028 26.8961 18.5498 26.8961 18.1452C26.8961 16.5326 26.8961 14.9199 26.8961 13.3073C26.8961 9.98905 26.8961 6.67628 26.8961 3.35804C26.8961 3.29244 26.8961 3.23231 26.8961 3.15031C21.2491 3.15031 15.6185 3.15031 9.95504 3.15031C9.95504 3.82271 9.95504 4.50057 9.95504 5.19483C9.58331 5.19483 9.23891 5.19483 8.87812 5.19483C8.87812 3.79537 8.87812 2.39045 8.87812 0.947266C15.2467 0.947266 21.6153 0.947266 27.9894 0.947266C28.0004 6.79108 28.0003 12.6404 28.0003 18.4896Z" fill="#F58220"/>
<path d="M15.2789 12.4222C15.6124 12.5097 16.0333 12.6081 16.4543 12.7338C16.6674 12.7994 16.7877 12.7502 16.9244 12.5698C17.5968 11.6514 18.291 10.7494 18.9744 9.84199C19.3406 9.35546 19.5976 9.27346 20.177 9.44292C20.4449 9.51946 20.7237 9.57959 20.9915 9.66706C21.1665 9.72719 21.2485 9.66159 21.3359 9.51399C22.0029 8.366 22.6807 7.22348 23.3586 6.08095C23.5882 5.68736 23.9217 5.52336 24.2824 5.61082C24.8127 5.73109 25.086 6.28869 24.84 6.78068C24.6979 7.06495 24.523 7.33281 24.3644 7.60614C23.7085 8.72133 23.0525 9.83105 22.3965 10.9462C22.0958 11.4546 21.8006 11.5804 21.2375 11.4273C20.9205 11.3453 20.6034 11.2633 20.2918 11.1704C20.1278 11.1212 20.0349 11.154 19.931 11.2961C19.2477 12.22 18.5534 13.1329 17.8646 14.0458C17.482 14.5597 17.2633 14.6307 16.6456 14.4722C16.3121 14.3847 15.9732 14.3137 15.6452 14.2098C15.4867 14.1606 15.3992 14.2043 15.2953 14.3191C14.5901 15.1173 13.8795 15.9099 13.1743 16.7081C12.9392 16.9705 12.6659 17.1235 12.3051 17.0415C11.6874 16.8994 11.4632 16.1887 11.8842 15.6858C12.2942 15.1993 12.7315 14.7291 13.1524 14.2535C13.5952 13.7561 14.038 13.2641 14.4753 12.7612C14.6612 12.5534 14.8853 12.4168 15.2789 12.4222Z" fill="#F58220"/>
<path d="M4.91479 0.55957C6.24318 0.55957 7.33104 1.65289 7.3365 3.00315C7.34197 4.3206 6.24865 5.42486 4.92572 5.42486C3.57547 5.42486 2.47668 4.34247 2.47121 3.01408C2.46574 1.66929 3.57 0.55957 4.91479 0.55957Z" fill="#F58220"/>
</g>
<defs>
<clipPath id="clip0">
<rect width="28" height="28" fill="white"/>
</clipPath>
</defs>
</svg>
