<svg width="28" height="28" viewBox="0 0 28 28" fill="none" xmlns="http://www.w3.org/2000/svg">
<g clip-path="url(#clip0)">
<path d="M0.0109339 7.93713C0.0437336 7.83327 0.0765327 7.73487 0.109332 7.631C0.399063 6.71808 1.18626 6.18782 2.13198 6.11675C2.91371 6.05662 3.5369 6.22608 3.99063 6.88754C4.01796 6.92581 4.05623 6.94768 4.1109 6.99687C4.37876 6.75088 4.64116 6.50488 4.92542 6.24248C5.16596 6.50488 5.39555 6.76181 5.65248 7.04061C5.95315 6.75634 6.19915 6.50488 6.46701 6.28075C6.55994 6.19875 6.70208 6.13862 6.82234 6.13862C9.41899 6.13315 12.0156 6.12768 14.6123 6.13315C15.4377 6.13315 16.0773 6.74541 16.0719 7.51074C16.0664 8.287 15.4104 8.91566 14.5904 8.91566C12.4694 8.92112 10.3428 8.91566 8.22179 8.91566C8.0578 8.91566 7.89926 8.91566 7.70793 8.91566C7.70793 9.09059 7.70793 9.24366 7.70793 9.39125C7.70793 15 7.70793 20.6142 7.70793 26.223C7.70793 26.8571 7.44554 27.114 6.81141 27.114C5.51582 27.114 4.2257 27.114 2.93011 27.114C2.35065 27.114 2.07732 26.8407 2.07732 26.2612C2.07732 23.435 2.07732 20.6142 2.07732 17.788C2.07732 17.6458 2.07732 17.4982 2.07732 17.3124C1.12612 17.4217 0.349864 17.2195 0 16.2355C0.0109332 13.4748 0.0109339 10.7032 0.0109339 7.93713Z" fill="#999999"/>
<path d="M28.0003 18.4877C27.9785 18.5369 27.9566 18.5806 27.9402 18.6353C27.7161 19.3842 27.1694 19.7997 26.3822 19.7997C24.0152 19.8051 21.6427 19.7997 19.2756 19.7997C16.4166 19.7997 13.5575 19.7997 10.693 19.7997C10.4744 19.7997 10.2557 19.7997 10.0425 19.7559C9.35918 19.6138 8.87265 19.0617 8.86719 18.3674C8.85625 15.5466 8.86172 12.7204 8.86172 9.8723C9.21705 9.8723 9.56691 9.8723 9.95504 9.8723C9.95504 9.9707 9.95504 10.08 9.95504 10.1839C9.95504 12.8079 9.95504 15.4319 9.95504 18.0558C9.95504 18.6189 10.048 18.7064 10.6001 18.7064C15.7934 18.7064 20.9867 18.7064 26.1745 18.7064C26.2292 18.7064 26.2838 18.7064 26.3385 18.7064C26.743 18.7009 26.8961 18.5478 26.8961 18.1433C26.8961 16.5306 26.8961 14.918 26.8961 13.3053C26.8961 9.9871 26.8961 6.67433 26.8961 3.35609C26.8961 3.29049 26.8961 3.23036 26.8961 3.14836C21.2491 3.14836 15.6185 3.14836 9.95504 3.14836C9.95504 3.82075 9.95504 4.49862 9.95504 5.19288C9.58331 5.19288 9.23891 5.19288 8.87812 5.19288C8.87812 3.79342 8.87812 2.3885 8.87812 0.945312C15.2467 0.945312 21.6153 0.945312 27.9894 0.945312C28.0004 6.78913 28.0003 12.6384 28.0003 18.4877Z" fill="#999999"/>
<path d="M15.2789 12.4203C15.6124 12.5077 16.0333 12.6061 16.4543 12.7319C16.6674 12.7975 16.7877 12.7483 16.9244 12.5679C17.5968 11.6495 18.291 10.7475 18.9744 9.84003C19.3406 9.35351 19.5976 9.27151 20.177 9.44097C20.4449 9.5175 20.7237 9.57764 20.9915 9.6651C21.1665 9.72524 21.2485 9.65964 21.3359 9.51204C22.0029 8.36405 22.6807 7.22152 23.3586 6.079C23.5882 5.6854 23.9216 5.52141 24.2824 5.60887C24.8127 5.72914 25.086 6.28673 24.84 6.77873C24.6979 7.06299 24.523 7.33086 24.3644 7.60419C23.7085 8.71938 23.0525 9.8291 22.3965 10.9443C22.0958 11.4527 21.8006 11.5784 21.2375 11.4254C20.9205 11.3434 20.6034 11.2614 20.2918 11.1684C20.1278 11.1192 20.0349 11.152 19.931 11.2942C19.2477 12.218 18.5534 13.1309 17.8646 14.0439C17.482 14.5577 17.2633 14.6288 16.6456 14.4703C16.3121 14.3828 15.9732 14.3117 15.6452 14.2079C15.4867 14.1587 15.3992 14.2024 15.2953 14.3172C14.5901 15.1153 13.8795 15.908 13.1743 16.7061C12.9392 16.9685 12.6659 17.1216 12.3051 17.0396C11.6874 16.8974 11.4632 16.1868 11.8842 15.6839C12.2942 15.1973 12.7315 14.7272 13.1524 14.2516C13.5952 13.7541 14.038 13.2621 14.4753 12.7592C14.6612 12.5515 14.8853 12.4148 15.2789 12.4203Z" fill="#999999"/>
<path d="M4.91455 0.558594C6.24293 0.558594 7.33079 1.65192 7.33626 3.00217C7.34173 4.31963 6.2484 5.42388 4.92548 5.42388C3.57522 5.42388 2.47643 4.34149 2.47097 3.01311C2.4655 1.66832 3.56976 0.558594 4.91455 0.558594Z" fill="#999999"/>
</g>
<defs>
<clipPath id="clip0">
<rect width="28" height="28" fill="white"/>
</clipPath>
</defs>
</svg>
