<svg width="28" height="22" viewBox="0 0 28 22" fill="none" xmlns="http://www.w3.org/2000/svg">
<path d="M7.55223 21.3675C8.39168 22.2108 9.75436 22.2108 10.5938 21.3675L21.0065 10.9063C21.3055 10.6059 21.5355 10.2478 21.685 9.86652C22.7314 10.1611 23.7491 10.3171 24.6461 10.3113C26.8655 10.2998 27.6014 9.32353 27.8429 8.7401C28.0844 8.16246 28.2569 6.9494 26.6987 5.35509C26.6815 5.33776 26.6642 5.32043 26.647 5.3031C25.681 4.33265 24.2781 3.4373 22.6854 2.77301C22.3922 2.6517 22.099 2.54195 21.8115 2.43797V2.42064C21.7942 1.13826 20.765 0.104276 19.4886 0.0869462L13.2502 0.000299139C12.4222 -0.0112538 11.6288 0.312229 11.048 0.901429L0.629592 11.3626C-0.209864 12.206 -0.209864 13.575 0.629592 14.4184L7.55223 21.3675ZM15.5788 3.74345C16.2745 3.0445 17.4015 3.0445 18.0972 3.74345C18.5112 4.15936 18.6779 4.73123 18.5974 5.26844C19.2816 5.75367 20.0981 6.20423 20.972 6.56815C21.2825 6.69523 21.5815 6.81076 21.869 6.90896L21.8345 4.39042C21.8862 4.41353 21.9322 4.43086 21.984 4.45396C23.3466 5.02583 24.5713 5.79988 25.359 6.59126C25.3705 6.60281 25.382 6.61436 25.3935 6.62592C26.141 7.39419 26.2215 7.88519 26.1583 8.03537C25.9628 8.50327 23.8641 8.91918 20.6788 7.58481C19.7473 7.19201 18.8734 6.70679 18.1662 6.18113C18.1432 6.21001 18.1144 6.23889 18.0914 6.26777C17.3957 6.96673 16.2688 6.96673 15.5731 6.26777C14.8831 5.5746 14.8831 4.44241 15.5788 3.74345Z" fill="#999999"/>
</svg>
