<svg width="25" height="23" viewBox="0 0 25 23" fill="none" xmlns="http://www.w3.org/2000/svg">
    <path d="M1.315 5.346c.85 0 1.538-.688 1.538-1.537V2a1.5 1.5 0 0 1 1.5-1.5h.118A1.5 1.5 0 0 1 5.97 2v18.321a1.5 1.5 0 0 1-1.5 1.5h-.118a1.5 1.5 0 0 1-1.5-1.5v-1.67c0-.925-.75-1.676-1.677-1.676h-.44a.236.236 0 0 1 0-.472h.44c.926 0 1.677-.75 1.677-1.676v-1.754c0-.926-.75-1.676-1.677-1.676h-.44a.236.236 0 0 1 0-.472h.44c.926 0 1.677-.75 1.677-1.677V7.356c0-.85-.688-1.538-1.538-1.538h-.301a.236.236 0 0 1 0-.472h.301zM8.735 2a1.5 1.5 0 0 1 1.5-1.5H23A1.5 1.5 0 0 1 24.5 2v18.321a1.5 1.5 0 0 1-1.5 1.5H10.235a1.5 1.5 0 0 1-1.5-1.5V2zm10.979 6.83c0-1.553-1.475-2.665-3.096-2.665-1.622 0-3.097 1.112-3.097 2.665 0 1.196.874 2.13 2.016 2.497-1.474.264-2.735 1.06-3.465 2.17-.438.665-.316 1.376.1 1.88.397.482 1.052.78 1.74.78h5.411c.689 0 1.343-.298 1.74-.78.416-.505.539-1.216.1-1.88-.73-1.11-1.99-1.906-3.465-2.17 1.142-.367 2.016-1.301 2.016-2.497z" stroke="#F58220"/>
</svg>
