<svg width="56" height="56" viewBox="0 0 56 56" fill="none" xmlns="http://www.w3.org/2000/svg">
<circle cx="28" cy="28" r="26" fill="#FEFEFE" stroke="#F6821F" stroke-width="4"/>
<path fill-rule="evenodd" clip-rule="evenodd" d="M18.5312 38.4692V35.0635L31.7262 21.8685L35.1337 25.2742L21.9388 38.4692H18.5312ZM37.055 23.3511L38.5141 21.8921C38.5985 21.8079 38.6654 21.7079 38.7111 21.5978C38.7568 21.4877 38.7803 21.3696 38.7803 21.2504C38.7803 21.1312 38.7568 21.0132 38.7111 20.9031C38.6654 20.793 38.5985 20.693 38.5141 20.6088L36.3916 18.4864C36.3074 18.402 36.2074 18.335 36.0973 18.2893C35.9872 18.2436 35.8692 18.2201 35.75 18.2201C35.6308 18.2201 35.5128 18.2436 35.4027 18.2893C35.2926 18.335 35.1926 18.402 35.1084 18.4864L33.6493 19.9454L37.055 23.3511ZM15.8125 38.4692V33.9379L33.1871 16.5633C33.8669 15.8837 34.7888 15.502 35.75 15.502C36.7112 15.502 37.6331 15.8837 38.3129 16.5633L40.4371 18.6876C41.1167 19.3673 41.4985 20.2892 41.4985 21.2504C41.4985 22.2116 41.1167 23.1335 40.4371 23.8133L23.0625 41.1879H15.8125V38.4692Z" fill="#FF800D"/>
</svg>
